<?xml version="1.0" encoding="UTF-8" standalone="no"?>
<!-- Created with Inkscape (http://www.inkscape.org/) -->

<svg
   xmlns:dc="http://purl.org/dc/elements/1.1/"
   xmlns:cc="http://creativecommons.org/ns#"
   xmlns:rdf="http://www.w3.org/1999/02/22-rdf-syntax-ns#"
   xmlns:svg="http://www.w3.org/2000/svg"
   xmlns="http://www.w3.org/2000/svg"
   xmlns:sodipodi="http://sodipodi.sourceforge.net/DTD/sodipodi-0.dtd"
   xmlns:inkscape="http://www.inkscape.org/namespaces/inkscape"
   width="61.817158mm"
   height="18.905228mm"
   viewBox="0 0 219.03717 66.987027"
   id="svg3688"
   version="1.1"
   inkscape:version="0.91 r13725"
   sodipodi:docname="FabLab.svg">
  <defs
     id="defs3690" />
  <sodipodi:namedview
     id="base"
     pagecolor="#ffffff"
     bordercolor="#666666"
     borderopacity="1.0"
     inkscape:pageopacity="0.0"
     inkscape:pageshadow="2"
     inkscape:zoom="1.4"
     inkscape:cx="109.19618"
     inkscape:cy="18.362556"
     inkscape:document-units="px"
     inkscape:current-layer="layer1"
     showgrid="false"
     fit-margin-top="0"
     fit-margin-left="0"
     fit-margin-right="0"
     fit-margin-bottom="0"
     inkscape:window-width="1436"
     inkscape:window-height="855"
     inkscape:window-x="0"
     inkscape:window-y="1"
     inkscape:window-maximized="1" />
  <metadata
     id="metadata3693">
    <rdf:RDF>
      <cc:Work
         rdf:about="">
        <dc:format>image/svg+xml</dc:format>
        <dc:type
           rdf:resource="http://purl.org/dc/dcmitype/StillImage" />
        <dc:title></dc:title>
      </cc:Work>
    </rdf:RDF>
  </metadata>
  <g
     inkscape:label="Capa 1"
     inkscape:groupmode="layer"
     id="layer1"
     transform="translate(355.23287,-290.29726)">
    <g
       id="g4470"
       transform="matrix(0.12251412,0,0,0.12251412,-255.29068,312.50099)">
      <g
         transform="translate(-844.58259,-188.52516)"
         id="g3">
        <path
           d="m 236.824,493.146 0,-65.203 c 2.34,-0.895 4.623,-1.963 6.815,-3.257 31.087,-18.327 34.355,-70.395 7.293,-116.288 -27.059,-45.895 -74.196,-68.24 -105.282,-49.912 -31.087,18.329 -34.354,70.394 -7.297,116.288 4.366,7.403 9.258,14.182 14.517,20.287 l 0,48.439 -67.002,-38.344 0,-240.154 -23.485,-15.503 c -21.394,38.979 -33.561,83.741 -33.561,131.343 0,147.904 117.359,268.317 264.08,273.177 l 0.025,-28.178 -56.103,-32.695 z"
           id="path5"
           inkscape:connector-curvature="0"
           style="fill:#0e9a48" />
        <path
           d="m 159.006,111.537 40.952,24.27 c -0.807,6.729 -0.833,14.137 -0.807,16.684 0.375,36.085 49.245,63.517 102.52,62.965 53.275,-0.552 91.219,-32.827 90.95,-64.58 -0.304,-36.084 -35.004,-64.336 -88.259,-65.924 -18.029,-0.538 -35.408,3.062 -43.322,4.574 L 231.172,70.42 302.209,29.889 511.621,151.614 535.638,138.431 C 512.533,100.441 479.811,67.564 438.557,43.812 310.379,-29.985 147.468,11.642 70.052,136.37 l 23.821,15.042 65.133,-39.875 z"
           id="path7"
           inkscape:connector-curvature="0"
           style="fill:#cb2026" />
        <path
           d="m 518.687,243.843 -44.532,23.277 c -1.614,-0.27 -11.499,-9.522 -13.723,-10.764 -31.526,-17.563 -77.938,5.659 -103.867,52.201 -25.93,46.54 -23.719,99.753 7.805,117.32 31.527,17.562 78.47,-3.509 104.403,-50.049 4.182,-7.508 9.767,-24.938 12.378,-32.559 l 37.938,-21.932 -0.225,83.273 -208.851,121.97 0.101,27.481 c 44.448,-1.233 89.223,-13.354 130.301,-37.406 C 568.045,441.919 612.652,279.8 542.709,150.734 l -24.022,13.191 0,79.918 z"
           id="path9"
           inkscape:connector-curvature="0"
           style="fill:#35469d" />
      </g>
      <path
         d="M -459.49759,355.24988"
         id="path11"
         inkscape:connector-curvature="0"
         style="fill:none;stroke:#010101" />
    </g>
    <g
       transform="matrix(0.37253297,0,0,0.37253297,-388.13093,416.73142)"
       id="g4568">
      <text
         sodipodi:linespacing="92.000002%"
         id="text4570"
         y="-209.21812"
         x="273.33182"
         style="font-style:normal;font-variant:normal;font-weight:normal;font-stretch:normal;font-size:17.5px;line-height:92.00000167%;font-family:Arial;-inkscape-font-specification:Arial;text-align:start;letter-spacing:0px;word-spacing:0px;writing-mode:lr-tb;text-anchor:start;fill:#000000;fill-opacity:1;stroke:none;stroke-width:1px;stroke-linecap:butt;stroke-linejoin:miter;stroke-opacity:1"
         xml:space="preserve"><tspan
           id="tspan4572"
           style="font-style:normal;font-variant:normal;font-weight:normal;font-stretch:normal;font-size:112.5px;line-height:92.00000167%;font-family:'Arial Unicode MS';-inkscape-font-specification:'Arial Unicode MS';letter-spacing:0px"
           y="-209.21812"
           x="273.33182"
           sodipodi:role="line">FAB</tspan></text>
      <text
         xml:space="preserve"
         style="font-style:normal;font-variant:normal;font-weight:normal;font-stretch:normal;font-size:17.5px;line-height:92.00000167%;font-family:Arial;-inkscape-font-specification:Arial;text-align:start;letter-spacing:0px;word-spacing:0px;writing-mode:lr-tb;text-anchor:start;fill:#000000;fill-opacity:1;stroke:none;stroke-width:1px;stroke-linecap:butt;stroke-linejoin:miter;stroke-opacity:1"
         x="483.33182"
         y="-209.65802"
         id="text4574"
         sodipodi:linespacing="92.000002%"><tspan
           sodipodi:role="line"
           x="483.33182"
           y="-209.65802"
           style="font-style:normal;font-variant:normal;font-weight:300;font-stretch:normal;font-size:112.5px;line-height:92.00000167%;font-family:'Avenir Next';-inkscape-font-specification:'Avenir Next Light';letter-spacing:0px"
           id="tspan4576">LAB</tspan></text>
    </g>
  </g>
</svg>
