<?xml version="1.0" encoding="UTF-8" standalone="no"?>
<!-- Created with Inkscape (http://www.inkscape.org/) -->

<svg
   xmlns:dc="http://purl.org/dc/elements/1.1/"
   xmlns:cc="http://creativecommons.org/ns#"
   xmlns:rdf="http://www.w3.org/1999/02/22-rdf-syntax-ns#"
   xmlns:svg="http://www.w3.org/2000/svg"
   xmlns="http://www.w3.org/2000/svg"
   xmlns:sodipodi="http://sodipodi.sourceforge.net/DTD/sodipodi-0.dtd"
   xmlns:inkscape="http://www.inkscape.org/namespaces/inkscape"
   width="56.33675mm"
   height="18.062223mm"
   viewBox="0 0 199.6184 64.000004"
   id="svg3754"
   version="1.1"
   inkscape:version="0.92.2 5c3e80d, 2017-08-06"
   sodipodi:docname="LF2L-4.svg">
  <defs
     id="defs3756" />
  <sodipodi:namedview
     id="base"
     pagecolor="#ffffff"
     bordercolor="#666666"
     borderopacity="1.0"
     inkscape:pageopacity="0.0"
     inkscape:pageshadow="2"
     inkscape:zoom="1.4"
     inkscape:cx="227.79977"
     inkscape:cy="-75.988684"
     inkscape:document-units="px"
     inkscape:current-layer="layer1"
     showgrid="false"
     fit-margin-top="0"
     fit-margin-left="0"
     fit-margin-right="0"
     fit-margin-bottom="0"
     inkscape:window-width="2560"
     inkscape:window-height="1395"
     inkscape:window-x="1080"
     inkscape:window-y="1"
     inkscape:window-maximized="1" />
  <metadata
     id="metadata3759">
    <rdf:RDF>
      <cc:Work
         rdf:about="">
        <dc:format>image/svg+xml</dc:format>
        <dc:type
           rdf:resource="http://purl.org/dc/dcmitype/StillImage" />
        <dc:title />
      </cc:Work>
    </rdf:RDF>
  </metadata>
  <g
     inkscape:label="Capa 1"
     inkscape:groupmode="layer"
     id="layer1"
     transform="translate(473.18983,-113.79078)">
    <g
       transform="matrix(0.24563424,0,0,-0.24563424,-438.92636,153.93871)"
       id="g3810"
       inkscape:export-filename="/Users/fabbiocrux.ms/Dropbox/Doctorado/Images/logos/LF2L-Avatar.png"
       inkscape:export-xdpi="299.53125"
       inkscape:export-ydpi="299.53125">
      <path
         transform="translate(-9.2148106,-97.104006)"
         inkscape:connector-curvature="0"
         id="path4633"
         style="fill:#662483;fill-opacity:1;fill-rule:nonzero;stroke:none"
         d="M 0,-2.613191e-7 C 71.949,-2.613191e-7 130.275,58.325996 130.275,130.275 130.275,202.224 71.949,260.55 0,260.55 -71.949,260.55 -130.275,202.224 -130.275,130.275 -130.275,58.325996 -71.949,-2.6131913e-7 0,-2.6131913e-7" />
      <path
         transform="translate(-11.466288,74.521987)"
         inkscape:connector-curvature="0"
         id="path4641"
         style="fill:#ffffff;fill-opacity:1;fill-rule:nonzero;stroke:none"
         d="m 0,0 0,28.147 c 0,0 34.454,1.888 56.294,-7.607 17.496,-7.608 35.754,-22.061 38.037,-47.166 2.281,-25.104 -1.021,-41.625 -15.977,-60.097 -12.931,-15.976 -42.6,-20.54 -51.728,-21.301 -9.129,-0.761 -25.865,-1.337 -25.865,-1.337 L 0,-81.398 c 0,0 28.568,0.76 38.037,4.564 9.467,3.804 24.343,11.411 25.864,29.669 1.522,18.257 -6.205,34.993 -16.416,40.318 C 37.276,-1.521 33.472,0.761 0,0" />
      <path
         inkscape:connector-curvature="0"
         id="path4649"
         style="fill:#ffffff;fill-opacity:1;fill-rule:nonzero;stroke:none"
         d="m 0,0 0,24.424 -16.792,0 -1.526,84.721 -32.057,0 -55.717,-86.248 -1.131,-22.897 60.664,-0.067 1.527,-29.381 26.714,0 0,29.448 L 0,0 Z m -45.032,25.187 -31.293,0 31.293,47.322 0,-47.322 z" />
    </g>
    <text
       xml:space="preserve"
       style="font-style:normal;font-variant:normal;font-weight:normal;font-stretch:normal;line-height:0%;font-family:Georgia;-inkscape-font-specification:'Georgia, Normal';text-align:start;letter-spacing:0px;word-spacing:0px;writing-mode:lr-tb;text-anchor:start;fill:#662483;fill-opacity:1;stroke:none;stroke-width:1px;stroke-linecap:butt;stroke-linejoin:miter;stroke-opacity:1"
       x="-402.20792"
       y="141.04828"
       id="text5034"><tspan
         sodipodi:role="line"
         id="tspan5036"
         x="-402.20792"
         y="141.04828"
         style="font-style:normal;font-variant:normal;font-weight:800;font-stretch:normal;font-size:17.5px;line-height:1.25;font-family:'Avenir LT Std';-inkscape-font-specification:'Avenir LT Std Ultra-Bold'">LORRAINE FAB</tspan><tspan
         sodipodi:role="line"
         x="-402.20792"
         y="162.92328"
         id="tspan5038"
         style="font-style:normal;font-variant:normal;font-weight:800;font-stretch:normal;font-size:17.5px;line-height:1.25;font-family:'Avenir LT Std';-inkscape-font-specification:'Avenir LT Std Ultra-Bold'">LIVING LAB<tspan
   style="font-style:normal;font-variant:normal;font-weight:800;font-stretch:normal;font-size:64.99999762%;font-family:'Avenir LT Std';-inkscape-font-specification:'Avenir LT Std Ultra-Bold';baseline-shift:super;fill:#662483;fill-opacity:1"
   id="tspan5040">®</tspan></tspan></text>
  </g>
</svg>
