<?xml version="1.0" encoding="UTF-8" standalone="no"?>
<!-- Created with Inkscape (http://www.inkscape.org/) -->

<svg
   xmlns:dc="http://purl.org/dc/elements/1.1/"
   xmlns:cc="http://creativecommons.org/ns#"
   xmlns:rdf="http://www.w3.org/1999/02/22-rdf-syntax-ns#"
   xmlns:svg="http://www.w3.org/2000/svg"
   xmlns="http://www.w3.org/2000/svg"
   xmlns:sodipodi="http://sodipodi.sourceforge.net/DTD/sodipodi-0.dtd"
   xmlns:inkscape="http://www.inkscape.org/namespaces/inkscape"
   width="18.062223mm"
   height="21.921638mm"
   viewBox="0 0 64.000002 77.675097"
   id="svg3754"
   version="1.1"
   inkscape:version="0.91 r13725"
   sodipodi:docname="Made-LF2L.svg">
  <defs
     id="defs3756" />
  <sodipodi:namedview
     id="base"
     pagecolor="#ffffff"
     bordercolor="#666666"
     borderopacity="1.0"
     inkscape:pageopacity="0.0"
     inkscape:pageshadow="2"
     inkscape:zoom="3.959798"
     inkscape:cx="29.711173"
     inkscape:cy="0.82844103"
     inkscape:document-units="px"
     inkscape:current-layer="layer1"
     showgrid="false"
     fit-margin-top="0"
     fit-margin-left="0"
     fit-margin-right="0"
     fit-margin-bottom="0"
     inkscape:window-width="1440"
     inkscape:window-height="855"
     inkscape:window-x="0"
     inkscape:window-y="1"
     inkscape:window-maximized="1" />
  <metadata
     id="metadata3759">
    <rdf:RDF>
      <cc:Work
         rdf:about="">
        <dc:format>image/svg+xml</dc:format>
        <dc:type
           rdf:resource="http://purl.org/dc/dcmitype/StillImage" />
        <dc:title></dc:title>
      </cc:Work>
    </rdf:RDF>
  </metadata>
  <g
     inkscape:label="Capa 1"
     inkscape:groupmode="layer"
     id="layer1"
     transform="translate(475.01881,-107.02645)">
    <g
       id="g4143">
      <g
         inkscape:export-ydpi="299.53125"
         inkscape:export-xdpi="299.53125"
         inkscape:export-filename="/Users/fabbiocrux.ms/Dropbox/Doctorado/Images/logos/LF2L-Avatar.png"
         id="g3810"
         transform="matrix(0.24563424,0,0,-0.24563424,-440.75534,147.17438)">
        <path
           d="M 0,-2.613191e-7 C 71.949,-2.613191e-7 130.275,58.325996 130.275,130.275 130.275,202.224 71.949,260.55 0,260.55 -71.949,260.55 -130.275,202.224 -130.275,130.275 -130.275,58.325996 -71.949,-2.6131913e-7 0,-2.6131913e-7"
           style="fill:#662483;fill-opacity:1;fill-rule:nonzero;stroke:none"
           id="path4633"
           inkscape:connector-curvature="0"
           transform="translate(-9.2148106,-97.104006)" />
        <path
           d="m 0,0 0,28.147 c 0,0 34.454,1.888 56.294,-7.607 17.496,-7.608 35.754,-22.061 38.037,-47.166 2.281,-25.104 -1.021,-41.625 -15.977,-60.097 -12.931,-15.976 -42.6,-20.54 -51.728,-21.301 -9.129,-0.761 -25.865,-1.337 -25.865,-1.337 L 0,-81.398 c 0,0 28.568,0.76 38.037,4.564 9.467,3.804 24.343,11.411 25.864,29.669 1.522,18.257 -6.205,34.993 -16.416,40.318 C 37.276,-1.521 33.472,0.761 0,0"
           style="fill:#ffffff;fill-opacity:1;fill-rule:nonzero;stroke:none"
           id="path4641"
           inkscape:connector-curvature="0"
           transform="translate(-11.466288,74.521987)" />
        <path
           d="m 0,0 0,24.424 -16.792,0 -1.526,84.721 -32.057,0 -55.717,-86.248 -1.131,-22.897 60.664,-0.067 1.527,-29.381 26.714,0 0,29.448 L 0,0 Z m -45.032,25.187 -31.293,0 31.293,47.322 0,-47.322 z"
           style="fill:#ffffff;fill-opacity:1;fill-rule:nonzero;stroke:none"
           id="path4649"
           inkscape:connector-curvature="0" />
      </g>
      <text
         sodipodi:linespacing="125%"
         id="text4160"
         y="184.62654"
         x="-464.26117"
         style="font-style:normal;font-variant:normal;font-weight:800;font-stretch:normal;font-size:37.5px;line-height:125%;font-family:'Avenir LT Std';-inkscape-font-specification:'Avenir LT Std Ultra-Bold';text-align:start;letter-spacing:0px;word-spacing:0px;writing-mode:lr-tb;text-anchor:start;fill:#662483;fill-opacity:1;stroke:none;stroke-width:1px;stroke-linecap:butt;stroke-linejoin:miter;stroke-opacity:1"
         xml:space="preserve"><tspan
           id="tspan4139"
           style="font-style:normal;font-variant:normal;font-weight:800;font-stretch:normal;font-size:12.5px;font-family:'Avenir LT Std';-inkscape-font-specification:'Avenir LT Std Ultra-Bold';fill:#662483;fill-opacity:1"
           y="184.62654"
           x="-464.26117"
           sodipodi:role="line">LF2L.fr</tspan></text>
    </g>
  </g>
</svg>
