<?xml version="1.0" encoding="UTF-8" standalone="no"?>
<!-- Created with Inkscape (http://www.inkscape.org/) -->

<svg
   xmlns:dc="http://purl.org/dc/elements/1.1/"
   xmlns:cc="http://creativecommons.org/ns#"
   xmlns:rdf="http://www.w3.org/1999/02/22-rdf-syntax-ns#"
   xmlns:svg="http://www.w3.org/2000/svg"
   xmlns="http://www.w3.org/2000/svg"
   xmlns:sodipodi="http://sodipodi.sourceforge.net/DTD/sodipodi-0.dtd"
   xmlns:inkscape="http://www.inkscape.org/namespaces/inkscape"
   id="svg2"
   version="1.1"
   inkscape:version="0.91 r13725"
   width="187.47089"
   height="121.4225"
   xml:space="preserve"
   sodipodi:docname="Universite-Lorraine-LF2L.svg"
   inkscape:export-filename="/Users/fabio/ownCloud/Images/Logos/Vectors/Universite-Lorraine-LF2L.png"
   inkscape:export-xdpi="300.19147"
   inkscape:export-ydpi="300.19147"><metadata
     id="metadata8"><rdf:RDF><cc:Work
         rdf:about=""><dc:format>image/svg+xml</dc:format><dc:type
           rdf:resource="http://purl.org/dc/dcmitype/StillImage" /><dc:title></dc:title></cc:Work></rdf:RDF></metadata><defs
     id="defs6"><clipPath
       clipPathUnits="userSpaceOnUse"
       id="clipPath16"><path
         d="m 0,841.89 1190.55,0 L 1190.55,0 0,0 0,841.89 Z"
         id="path18"
         inkscape:connector-curvature="0" /></clipPath></defs><sodipodi:namedview
     pagecolor="#ffffff"
     bordercolor="#666666"
     borderopacity="1"
     objecttolerance="10"
     gridtolerance="10"
     guidetolerance="10"
     inkscape:pageopacity="0"
     inkscape:pageshadow="2"
     inkscape:window-width="1436"
     inkscape:window-height="855"
     id="namedview4"
     showgrid="false"
     inkscape:zoom="2.5371819"
     inkscape:cx="75.052609"
     inkscape:cy="77.192948"
     inkscape:window-x="0"
     inkscape:window-y="1"
     inkscape:window-maximized="1"
     inkscape:current-layer="g10"
     fit-margin-top="0"
     fit-margin-left="0"
     fit-margin-right="0"
     fit-margin-bottom="0" /><g
     id="g10"
     inkscape:groupmode="layer"
     inkscape:label="LOGO_UL"
     transform="matrix(1.25,0,0,-1.25,-660.98101,555.89175)"><g
       id="g4931"><g
         transform="translate(4.2529405e-6,0)"
         id="g12"><g
           clip-path="url(#clipPath16)"
           id="g14"><g
             transform="translate(585.6777,432.9629)"
             id="g20"><path
               inkscape:connector-curvature="0"
               id="path22"
               style="fill:#2d2c2e;fill-opacity:1;fill-rule:nonzero;stroke:none"
               d="m 0,0 0,-8.199 c 0,-1.12 0.487,-1.704 1.575,-1.704 1.088,0 1.591,0.584 1.591,1.704 l 0,8.199 2.24,0 0,-8.215 c 0,-2.581 -1.526,-3.669 -3.831,-3.669 -2.305,0 -3.815,1.088 -3.815,3.669 L -2.24,0 0,0 Z" /></g><g
             transform="translate(592.6982,421.2412)"
             id="g24"><path
               inkscape:connector-curvature="0"
               id="path26"
               style="fill:#2d2c2e;fill-opacity:1;fill-rule:nonzero;stroke:none"
               d="m 0,0 0,11.722 2.452,0 3.117,-6.949 0.033,0 0,6.949 2.045,0 L 7.647,0 5.504,0 2.078,7.565 2.046,7.565 2.046,0 0,0 Z" /></g><path
             inkscape:connector-curvature="0"
             id="path28"
             style="fill:#2d2c2e;fill-opacity:1;fill-rule:nonzero;stroke:none"
             d="m 601.967,432.963 2.239,0 0,-11.722 -2.239,0 0,11.722 z" /><g
             transform="translate(605.2603,432.9629)"
             id="g30"><path
               inkscape:connector-curvature="0"
               id="path32"
               style="fill:#2d2c2e;fill-opacity:1;fill-rule:nonzero;stroke:none"
               d="m 0,0 2.208,0 2.063,-8.377 0.032,0 L 6.349,0 8.54,0 5.553,-11.722 l -2.549,0 L 0,0 Z" /></g><g
             transform="translate(614.8491,421.2412)"
             id="g34"><path
               inkscape:connector-curvature="0"
               id="path36"
               style="fill:#2d2c2e;fill-opacity:1;fill-rule:nonzero;stroke:none"
               d="m 0,0 0,11.722 6.138,0 0,-1.981 -3.898,0 0,-2.695 2.972,0 0,-1.981 -2.972,0 0,-3.085 4.06,0 L 6.3,0 0,0 Z" /></g><g
             transform="translate(624.8442,427.8652)"
             id="g38"><path
               inkscape:connector-curvature="0"
               id="path40"
               style="fill:#2d2c2e;fill-opacity:1;fill-rule:nonzero;stroke:none"
               d="m 0,0 1.151,0 c 0.993,0 1.592,0.487 1.592,1.624 0,1.136 -0.599,1.623 -1.592,1.623 L 0,3.247 0,0 Z m 3.02,-6.624 -1.95,4.773 -1.07,0 0,-4.773 -2.24,0 0,11.722 3.247,0 c 2.694,0 3.976,-1.299 3.976,-3.507 0,-1.461 -0.518,-2.516 -1.768,-2.987 l 2.208,-5.228 -2.403,0 z" /></g><g
             transform="translate(636.0112,429.6997)"
             id="g42"><path
               inkscape:connector-curvature="0"
               id="path44"
               style="fill:#2d2c2e;fill-opacity:1;fill-rule:nonzero;stroke:none"
               d="m 0,0 c -0.373,1.104 -0.859,1.575 -1.64,1.575 -0.795,0 -1.233,-0.487 -1.233,-1.283 0,-1.769 5,-1.899 5,-5.568 0,-2.014 -1.38,-3.345 -3.732,-3.345 -1.82,0 -3.233,0.991 -3.833,3.296 l 2.209,0.471 c 0.258,-1.413 1.071,-1.916 1.737,-1.916 0.778,0 1.38,0.52 1.38,1.396 0,2.208 -5.001,2.241 -5.001,5.52 0,2.014 1.202,3.28 3.522,3.28 1.997,0 3.215,-1.185 3.606,-2.842 L 0,0 Z" /></g><path
             inkscape:connector-curvature="0"
             id="path46"
             style="fill:#2d2c2e;fill-opacity:1;fill-rule:nonzero;stroke:none"
             d="m 639.229,432.963 2.24,0 0,-11.722 -2.24,0 0,11.722 z" /><g
             transform="translate(649.9976,432.9629)"
             id="g48"><path
               inkscape:connector-curvature="0"
               id="path50"
               style="fill:#2d2c2e;fill-opacity:1;fill-rule:nonzero;stroke:none"
               d="m 0,0 0,-1.98 -2.613,0 0,-9.742 -2.241,0 0,9.742 -2.614,0 0,1.98 L 0,0 Z" /></g><g
             transform="translate(656.7397,435.999)"
             id="g52"><path
               inkscape:connector-curvature="0"
               id="path54"
               style="fill:#2d2c2e;fill-opacity:1;fill-rule:nonzero;stroke:none"
               d="m 0,0 -2.388,-2.37 -1.638,0 L -2.518,0 0,0 Z m -5.698,-14.758 0,11.722 6.136,0 0,-1.981 -3.896,0 0,-2.695 2.971,0 0,-1.98 -2.971,0 0,-3.085 4.059,0 0,-1.981 -6.299,0 z" /></g><g
             transform="translate(585.5479,408.9727)"
             id="g56"><path
               inkscape:connector-curvature="0"
               id="path58"
               style="fill:#2d2c2e;fill-opacity:1;fill-rule:nonzero;stroke:none"
               d="m 0,0 0.779,0 c 1.234,0 1.949,0.585 1.949,2.338 l 0,3.085 c 0,1.656 -0.552,2.338 -1.949,2.338 L 0,7.761 0,0 Z m -2.24,9.741 3.117,0 c 2.565,0 3.994,-1.103 4.091,-4.058 l 0,-3.605 C 4.871,-0.876 3.442,-1.979 0.877,-1.979 l -3.117,0 0,11.72 z" /></g><g
             transform="translate(592.1338,406.9922)"
             id="g60"><path
               inkscape:connector-curvature="0"
               id="path62"
               style="fill:#2d2c2e;fill-opacity:1;fill-rule:nonzero;stroke:none"
               d="m 0,0 0,11.722 6.137,0 0,-1.981 -3.897,0 0,-2.695 2.971,0 0,-1.981 -2.971,0 0,-3.086 4.059,0 L 6.299,0 0,0 Z" /></g><g
             transform="translate(603.9478,406.9922)"
             id="g64"><path
               inkscape:connector-curvature="0"
               id="path66"
               style="fill:#2d2c2e;fill-opacity:1;fill-rule:nonzero;stroke:none"
               d="m 0,0 0,11.722 2.24,0 0,-9.743 3.606,0 L 5.846,0 0,0 Z" /></g><g
             transform="translate(612.8979,410.4668)"
             id="g68"><path
               inkscape:connector-curvature="0"
               id="path70"
               style="fill:#2d2c2e;fill-opacity:1;fill-rule:nonzero;stroke:none"
               d="m 0,0 c 0,-1.299 0.568,-1.656 1.463,-1.656 0.891,0 1.461,0.357 1.461,1.656 l 0,4.772 c 0,1.299 -0.57,1.657 -1.461,1.657 C 0.568,6.429 0,6.071 0,4.772 L 0,0 Z m -2.239,4.479 c 0,2.891 1.525,3.93 3.702,3.93 2.175,0 3.7,-1.039 3.7,-3.93 l 0,-4.187 c 0,-2.89 -1.525,-3.929 -3.7,-3.929 -2.177,0 -3.702,1.039 -3.702,3.929 l 0,4.187 z" /></g><g
             transform="translate(621.9438,413.6162)"
             id="g72"><path
               inkscape:connector-curvature="0"
               id="path74"
               style="fill:#2d2c2e;fill-opacity:1;fill-rule:nonzero;stroke:none"
               d="m 0,0 1.151,0 c 0.993,0 1.592,0.487 1.592,1.623 0,1.137 -0.599,1.624 -1.592,1.624 L 0,3.247 0,0 Z m 3.02,-6.624 -1.95,4.773 -1.07,0 0,-4.773 -2.24,0 0,11.722 3.247,0 c 2.694,0 3.976,-1.299 3.976,-3.507 0,-1.461 -0.518,-2.517 -1.768,-2.987 l 2.208,-5.228 -2.403,0 z" /></g><g
             transform="translate(630.6655,413.6162)"
             id="g76"><path
               inkscape:connector-curvature="0"
               id="path78"
               style="fill:#2d2c2e;fill-opacity:1;fill-rule:nonzero;stroke:none"
               d="m 0,0 1.152,0 c 0.993,0 1.592,0.487 1.592,1.623 0,1.137 -0.599,1.624 -1.592,1.624 L 0,3.247 0,0 Z m 3.021,-6.624 -1.95,4.773 -1.071,0 0,-4.773 -2.239,0 0,11.722 3.247,0 c 2.694,0 3.976,-1.299 3.976,-3.507 0,-1.461 -0.518,-2.517 -1.768,-2.987 l 2.208,-5.228 -2.403,0 z" /></g><g
             transform="translate(639.9487,411.4404)"
             id="g80"><path
               inkscape:connector-curvature="0"
               id="path82"
               style="fill:#2d2c2e;fill-opacity:1;fill-rule:nonzero;stroke:none"
               d="M 0,0 2.226,0 1.138,4.741 1.104,4.741 0,0 Z m -3.197,-4.448 2.905,11.721 2.874,0 2.824,-11.721 -2.141,0 -0.57,2.468 -3.099,0 -0.634,-2.468 -2.159,0 z" /></g><path
             inkscape:connector-curvature="0"
             id="path84"
             style="fill:#2d2c2e;fill-opacity:1;fill-rule:nonzero;stroke:none"
             d="m 646.429,418.714 2.24,0 0,-11.722 -2.24,0 0,11.722 z" /><g
             transform="translate(650.312,406.9922)"
             id="g86"><path
               inkscape:connector-curvature="0"
               id="path88"
               style="fill:#2d2c2e;fill-opacity:1;fill-rule:nonzero;stroke:none"
               d="m 0,0 0,11.722 2.45,0 3.117,-6.949 0.034,0 0,6.949 2.045,0 L 7.646,0 5.504,0 2.077,7.565 2.045,7.565 2.045,0 0,0 Z" /></g><g
             transform="translate(659.5229,406.9922)"
             id="g90"><path
               inkscape:connector-curvature="0"
               id="path92"
               style="fill:#2d2c2e;fill-opacity:1;fill-rule:nonzero;stroke:none"
               d="m 0,0 0,11.722 6.137,0 0,-1.981 -3.898,0 0,-2.695 2.972,0 0,-1.981 -2.972,0 0,-3.086 4.06,0 L 6.299,0 0,0 Z" /></g><g
             transform="translate(576.3218,420.9434)"
             id="g94"><path
               inkscape:connector-curvature="0"
               id="path96"
               style="fill:#2d2c2e;fill-opacity:1;fill-rule:nonzero;stroke:none"
               d="m 0,0 c 0,-13.125 -10.642,-23.768 -23.768,-23.768 -13.128,0 -23.769,10.643 -23.769,23.768 0,13.127 10.641,23.77 23.769,23.77 C -10.642,23.77 0,13.127 0,0" /></g><g
             transform="translate(552.1968,413.9941)"
             id="g98"><path
               inkscape:connector-curvature="0"
               id="path100"
               style="fill:#ffffff;fill-opacity:1;fill-rule:nonzero;stroke:none"
               d="m 0,0 c -0.53,-0.289 -1.185,-0.443 -1.967,-0.443 -2.277,0 -3.689,0.881 -3.689,5.277 l 0,14.118 -7.34,0 0,-14.22 c 0,-7.529 4.02,-11.847 11.029,-11.847 2.126,0 3.743,0.351 5.337,1.128 C 1.772,-4.464 0.625,-2.452 0,0" /></g><g
             transform="translate(561.3638,418.8311)"
             id="g102"><path
               inkscape:connector-curvature="0"
               id="path104"
               style="fill:#fff04c;fill-opacity:1;fill-rule:nonzero;stroke:none"
               d="m 0,0 0,14.118 -7.34,0 0,-14.221 c 0,-7.527 4.022,-11.846 11.029,-11.846 l 2.909,0 0,6.671 -2.909,0 C 1.412,-5.278 0,-4.396 0,0" /></g></g></g><g
         inkscape:label="Capa 1"
         id="layer1"
         transform="matrix(0.74999998,0,0,-0.74999998,883.67717,480.91848)"><g
           transform="matrix(0.24563424,0,0,-0.24563424,-438.92636,153.93871)"
           id="g3810"
           inkscape:export-filename="/Users/fabbiocrux.ms/Dropbox/Doctorado/Images/logos/LF2L-Avatar.png"
           inkscape:export-xdpi="299.53125"
           inkscape:export-ydpi="299.53125"><path
             transform="translate(-9.2148106,-97.104006)"
             inkscape:connector-curvature="0"
             id="path4633"
             style="fill:#662483;fill-opacity:1;fill-rule:nonzero;stroke:none"
             d="M 0,-2.613191e-7 C 71.949,-2.613191e-7 130.275,58.325996 130.275,130.275 130.275,202.224 71.949,260.55 0,260.55 -71.949,260.55 -130.275,202.224 -130.275,130.275 -130.275,58.325996 -71.949,-2.6131913e-7 0,-2.6131913e-7" /><path
             transform="translate(-11.466288,74.521987)"
             inkscape:connector-curvature="0"
             id="path4641"
             style="fill:#ffffff;fill-opacity:1;fill-rule:nonzero;stroke:none"
             d="m 0,0 0,28.147 c 0,0 34.454,1.888 56.294,-7.607 17.496,-7.608 35.754,-22.061 38.037,-47.166 2.281,-25.104 -1.021,-41.625 -15.977,-60.097 -12.931,-15.976 -42.6,-20.54 -51.728,-21.301 -9.129,-0.761 -25.865,-1.337 -25.865,-1.337 L 0,-81.398 c 0,0 28.568,0.76 38.037,4.564 9.467,3.804 24.343,11.411 25.864,29.669 1.522,18.257 -6.205,34.993 -16.416,40.318 C 37.276,-1.521 33.472,0.761 0,0" /><path
             inkscape:connector-curvature="0"
             id="path4649"
             style="fill:#ffffff;fill-opacity:1;fill-rule:nonzero;stroke:none"
             d="m 0,0 0,24.424 -16.792,0 -1.526,84.721 -32.057,0 -55.717,-86.248 -1.131,-22.897 60.664,-0.067 1.527,-29.381 26.714,0 0,29.448 L 0,0 Z m -45.032,25.187 -31.293,0 31.293,47.322 0,-47.322 z" /></g><text
           xml:space="preserve"
           style="font-style:normal;font-variant:normal;font-weight:normal;font-stretch:normal;font-size:17.5px;line-height:125%;font-family:Georgia;-inkscape-font-specification:'Georgia, Normal';text-align:start;letter-spacing:0px;word-spacing:0px;writing-mode:lr-tb;text-anchor:start;fill:#662483;fill-opacity:1;stroke:none;stroke-width:1px;stroke-linecap:butt;stroke-linejoin:miter;stroke-opacity:1"
           x="-401.85736"
           y="141.04828"
           id="text5034"
           sodipodi:linespacing="125%"><tspan
             sodipodi:role="line"
             id="tspan5036"
             x="-401.85736"
             y="141.04828"
             style="font-style:normal;font-variant:normal;font-weight:800;font-stretch:normal;font-family:'Avenir LT Std';-inkscape-font-specification:'Avenir LT Std Ultra-Bold'">LORRAINE FAB</tspan><tspan
             sodipodi:role="line"
             x="-401.85736"
             y="162.92328"
             id="tspan5038"
             style="font-style:normal;font-variant:normal;font-weight:800;font-stretch:normal;font-family:'Avenir LT Std';-inkscape-font-specification:'Avenir LT Std Ultra-Bold'">LIVING LAB<tspan
   style="font-style:normal;font-variant:normal;font-weight:800;font-stretch:normal;font-size:64.99999762%;font-family:'Avenir LT Std';-inkscape-font-specification:'Avenir LT Std Ultra-Bold';baseline-shift:super;fill:#662483;fill-opacity:1"
   id="tspan5040">®</tspan></tspan></text>
</g></g></g></svg>