<?xml version="1.0" encoding="UTF-8" standalone="no"?>
<!-- Generator: Adobe Illustrator 23.0.3, SVG Export Plug-In . SVG Version: 6.00 Build 0)  -->

<svg
   xmlns:ns="&amp;ns_sfw;"
   xmlns:dc="http://purl.org/dc/elements/1.1/"
   xmlns:cc="http://creativecommons.org/ns#"
   xmlns:rdf="http://www.w3.org/1999/02/22-rdf-syntax-ns#"
   xmlns:svg="http://www.w3.org/2000/svg"
   xmlns="http://www.w3.org/2000/svg"
   xmlns:sodipodi="http://sodipodi.sourceforge.net/DTD/sodipodi-0.dtd"
   xmlns:inkscape="http://www.inkscape.org/namespaces/inkscape"
   version="1.1"
   x="0px"
   y="0px"
   viewBox="0 0 750 725"
   enable-background="new 0 0 750 725"
   xml:space="preserve"
   id="svg286"
   sodipodi:docname="Arya-Stark-Standing.svg"
   inkscape:version="0.92.4 (5da689c313, 2019-01-14)"><defs
   id="defs290">
	
	
	
	
	
	
	
	
	
	
	
	
	
	
	
	
	
	
	
	
	
	
	
	
	
	
	
	
	
	
	
	
	
	
	
	
	
	
	
	
	
	
	
	
	
	
	
	
	
	
	
	
	
	
	
	
	
	
	
	
	
	
	
	
	
	
	
	
	
	
	
	
	
	

	
	
</defs><sodipodi:namedview
   pagecolor="#ffffff"
   bordercolor="#666666"
   borderopacity="1"
   objecttolerance="10"
   gridtolerance="10"
   guidetolerance="10"
   inkscape:pageopacity="0"
   inkscape:pageshadow="2"
   inkscape:window-width="1920"
   inkscape:window-height="1018"
   id="namedview288"
   showgrid="false"
   inkscape:zoom="0.65103448"
   inkscape:cx="510.04366"
   inkscape:cy="416.84535"
   inkscape:window-x="-8"
   inkscape:window-y="-8"
   inkscape:window-maximized="1"
   inkscape:current-layer="svg286" />
<metadata
   id="metadata2">
	<ns:sfw>
		<ns:slices />
		<ns:sliceSourceBounds
   bottomLeftOrigin="true"
   height="3850"
   width="9389.062"
   x="-3544.062"
   y="1000" />
	</ns:sfw>
<rdf:RDF><cc:Work
     rdf:about=""><dc:format>image/svg+xml</dc:format><dc:type
       rdf:resource="http://purl.org/dc/dcmitype/StillImage" /><dc:title></dc:title></cc:Work></rdf:RDF></metadata>


<g
   id="N-TEXT">
</g>


<g
   id="AG-DETAILS">
</g>

<g
   id="g1349"
   transform="matrix(1.5208973,0,0,1.5208973,-57.063422,-341.77713)"><g
     id="POLYLINE_784_">
		
			<path
   stroke-miterlimit="10"
   d="m 184.503,542.277 c -2.685,-0.073 -5.384,-0.049 -8.068,0.038 -1.726,0.056 -3.614,0.125 -5.232,0.805 -1.792,0.754 -2.105,2.367 -2,4.134 0.151,2.551 0.683,5.078 0.953,7.619 0.581,5.465 0.837,10.953 1.063,16.442 0.222,5.375 0.288,10.763 0.247,16.142 -0.02,2.621 -0.094,5.244 -0.242,7.861 -0.148,2.62 -0.447,5.263 -0.339,7.89 0.101,2.441 0.231,4.747 0.083,7.19 -0.124,2.038 0.282,3.867 0.522,5.878 0.125,1.047 0.06,2.04 -0.193,3.063 -0.541,2.187 -1.218,4.243 -1.61,6.473 -0.877,4.988 -2.783,9.764 -3.793,14.738 -0.469,2.307 -0.867,4.652 -0.98,7.007 -0.072,1.506 -0.155,3.475 0.746,4.779 0.841,1.216 2.525,1.45 3.88,1.617 2.24,0.277 4.505,0.273 6.758,0.296 3.497,0.036 6.993,0.073 10.49,0.109 1.821,0.018 3.684,0.069 5.483,-0.265 3.085,-0.573 4.406,-3.047 5.075,-5.878 1.16,-4.909 0.395,-9.964 -0.12,-14.902 -0.225,-2.158 -0.373,-4.325 -0.225,-6.493 0.17,-2.495 0.71,-4.952 0.826,-7.451 0.118,-2.53 -0.115,-5.062 -0.001,-7.593 0.092,-2.053 0.329,-4.098 0.599,-6.134 0.912,-6.876 1.824,-13.752 2.736,-20.627 0.553,-4.166 1.077,-8.336 1.52,-12.515 0.629,-5.925 1.161,-11.869 1.9,-17.782 0.312,-2.5 0.912,-5.015 1.074,-7.526 0.08,-1.252 -0.133,-2.588 -1.054,-3.518 -1.088,-1.099 -2.831,-1.076 -4.264,-1.054 -2.673,0.04 -5.325,0.11 -7.998,0.012 -2.611,-0.097 -5.223,-0.237 -7.836,-0.355 z"
   id="path131"
   inkscape:connector-curvature="0"
   style="fill:none;stroke:#c346ff;stroke-width:2.75;stroke-linecap:round;stroke-linejoin:round;stroke-miterlimit:10" />
	</g><g
     id="POLYLINE_785_">
		
			<path
   stroke-miterlimit="10"
   d="m 161.545,389.844 c -0.458,2.163 -0.916,4.326 -1.374,6.49 -1.227,5.799 -2.455,11.597 -3.682,17.396 -1.786,8.439 -3.573,16.879 -5.359,25.318 -2.135,10.086 -4.269,20.172 -6.404,30.258 -2.273,10.738 -4.545,21.476 -6.818,32.214 -2.207,10.425 -4.413,20.85 -6.62,31.276 -1.911,9.029 -3.822,18.057 -5.733,27.086 -1.427,6.743 -2.854,13.485 -4.281,20.228 -0.717,3.385 -1.433,6.77 -2.15,10.156 -0.987,4.663 -2.174,9.396 -4.436,13.625 -0.701,1.311 -1.517,2.57 -2.511,3.679 -1.854,-5.709 -0.664,-12.278 0.525,-18 0.509,-2.45 1.036,-4.897 1.555,-7.346 1.273,-6.016 2.546,-12.031 3.82,-18.047 1.818,-8.588 3.635,-17.176 5.453,-25.764 2.152,-10.166 4.303,-20.331 6.455,-30.497 2.282,-10.781 4.564,-21.562 6.846,-32.343 2.181,-10.305 4.362,-20.609 6.543,-30.914 1.895,-8.954 3.79,-17.909 5.686,-26.863 1.377,-6.506 2.754,-13.011 4.131,-19.517 0.664,-3.137 1.328,-6.274 1.992,-9.411 0.028,-0.133 0.056,-0.266 0.084,-0.399"
   id="path134"
   inkscape:connector-curvature="0"
   style="fill:none;stroke:#c346ff;stroke-width:2.75;stroke-linecap:round;stroke-linejoin:round;stroke-miterlimit:10" />
	</g><g
     id="POLYLINE_786_">
		
			<path
   stroke-miterlimit="10"
   d="m 202.192,542.678 c 0.48,-5.033 0.958,-10.064 1.35,-15.105 0.38,-4.888 0.689,-9.783 0.964,-14.679 0.148,-2.627 0.257,-5.256 0.377,-7.884"
   id="path137"
   inkscape:connector-curvature="0"
   style="fill:none;stroke:#c346ff;stroke-width:2.75;stroke-linecap:round;stroke-linejoin:round;stroke-miterlimit:10" />
	</g><g
     id="POLYLINE_787_">
		
			<path
   stroke-miterlimit="10"
   d="m 173.366,542.565 c 0.055,-5.105 0.11,-10.211 0.165,-15.316 0.044,-4.098 0.086,-8.196 0.163,-12.294 0.055,-2.921 0.11,-5.841 0.164,-8.762"
   id="path140"
   inkscape:connector-curvature="0"
   style="fill:none;stroke:#c346ff;stroke-width:2.75;stroke-linecap:round;stroke-linejoin:round;stroke-miterlimit:10" />
	</g><g
     id="POLYLINE_788_">
		
			<path
   stroke-miterlimit="10"
   d="m 256.23,543.198 c -2.878,-0.049 -9.126,-1.093 -9.315,3.265 -0.091,2.1 0.48,4.248 0.862,6.296 0.489,2.625 0.932,5.255 1.302,7.9 0.729,5.206 1.305,10.441 1.758,15.678 0.475,5.495 0.809,10.987 1.015,16.498 0.096,2.572 0.124,5.158 0.434,7.716 0.292,2.407 0.922,4.749 1.385,7.125 0.927,4.757 0.33,9.582 0.975,14.357 0.341,2.526 0.995,5.002 1.067,7.56 0.075,2.676 -0.285,5.358 -0.54,8.016 -0.387,4.025 -0.977,8.553 0.374,12.467 1.036,3.003 3.776,3.854 6.677,4.05 2.85,0.192 5.725,0.142 8.579,0.189 2.407,0.04 4.816,0.078 7.223,-0.003 2.552,-0.086 5.774,-0.005 6.757,-2.898 1.146,-3.371 0.123,-7.295 -0.413,-10.69 -0.459,-2.91 -0.856,-5.838 -1.406,-8.733 -0.48,-2.528 -1.229,-4.948 -1.942,-7.417 -0.523,-1.811 -0.843,-3.625 -0.76,-5.511 0.102,-2.292 0.6,-4.547 0.715,-6.838 0.12,-2.384 -0.441,-4.692 -0.585,-7.058 -0.144,-2.359 0.462,-4.664 0.657,-7.003 0.417,-5.01 -0.722,-10.014 -0.391,-15.034 0.174,-2.645 0.582,-5.269 0.796,-7.911 0.21,-2.592 0.253,-5.19 0.285,-7.789 0.065,-5.346 -0.018,-10.689 0.152,-16.034 0.061,-1.93 0.262,-3.976 -0.146,-5.883 -0.357,-1.672 -1.499,-2.352 -3.087,-2.595 -1.676,-0.256 -3.408,-0.139 -5.096,-0.099 -3.498,0.084 -6.996,0.169 -10.494,0.253 -0.13,0.005 -6.838,0.17 -6.838,0.126 z"
   id="path143"
   inkscape:connector-curvature="0"
   style="fill:none;stroke:#c346ff;stroke-width:2.75;stroke-linecap:round;stroke-linejoin:round;stroke-miterlimit:10" />
	</g><g
     id="POLYLINE_789_">
		
			<path
   stroke-miterlimit="10"
   d="m 249.043,543.536 c -0.523,-5.131 -1.046,-10.261 -1.569,-15.392 -0.387,-3.796 -0.801,-7.591 -1.274,-11.377 -0.345,-2.761 -0.712,-5.519 -1.069,-8.279"
   id="path146"
   inkscape:connector-curvature="0"
   style="fill:none;stroke:#c346ff;stroke-width:2.75;stroke-linecap:round;stroke-linejoin:round;stroke-miterlimit:10" />
	</g><g
     id="POLYLINE_790_">
		
			<path
   stroke-miterlimit="10"
   d="m 280.211,543.34 c -0.119,-4.694 -0.262,-9.39 -0.626,-14.073 -0.372,-4.802 -0.928,-9.589 -1.225,-14.396 -0.167,-2.699 -0.254,-5.401 -0.36,-8.103"
   id="path149"
   inkscape:connector-curvature="0"
   style="fill:none;stroke:#c346ff;stroke-width:2.75;stroke-linecap:round;stroke-linejoin:round;stroke-miterlimit:10" />
	</g><g
     id="POLYLINE_791_">
		
			<path
   stroke-miterlimit="10"
   d="m 204.749,508.146 c 6.205,0.268 12.41,0.507 18.622,0.574 6.629,0.072 13.255,-0.031 19.881,-0.189 5.489,-0.13 10.966,-0.398 16.447,-0.712 6.987,-0.4 13.974,-0.873 20.966,-1.172 6.227,-0.266 12.437,-0.139 18.666,-0.142 2.814,-0.002 5.765,0.127 8.536,-0.455 0.619,-0.13 1.352,-0.298 1.815,-0.755 0.586,-0.578 0.512,-1.46 0.427,-2.213 -0.347,-3.089 -1.414,-6.174 -2.183,-9.17 -0.719,-2.801 -1.349,-5.621 -1.948,-8.45 -1.426,-6.734 -2.643,-13.511 -3.921,-20.275 -0.952,-5.043 -1.836,-10.098 -2.746,-15.149 -1.426,-7.922 -2.853,-15.844 -4.279,-23.766 -0.091,-0.504 -0.181,-1.008 -0.272,-1.512"
   id="path152"
   inkscape:connector-curvature="0"
   style="fill:none;stroke:#c346ff;stroke-width:2.75;stroke-linecap:round;stroke-linejoin:round;stroke-miterlimit:10" />
	</g><g
     id="POLYLINE_792_">
		
			<path
   stroke-miterlimit="10"
   d="m 152.777,431.27 c -0.501,5.184 -1.002,10.368 -1.503,15.552 -0.981,10.151 -1.962,20.303 -2.942,30.454 -0.677,7.009 -1.354,14.018 -2.032,21.028 -0.327,3.383 -0.595,6.773 -0.887,10.159 -0.82,9.504 -1.641,19.009 -2.461,28.513 -0.798,9.24 -1.595,18.479 -2.393,27.719 -0.419,4.854 -0.811,9.704 -1.163,14.564 -0.483,6.659 -1.248,13.446 -0.993,20.127 0.056,1.473 0.063,3.928 1.34,5.015 0.828,0.705 2.009,0.462 2.964,0.196 1.551,-0.432 3.043,-1.104 4.538,-1.691 6.125,-2.407 12.593,-3.993 19.081,-5.05 1.59,-0.259 3.186,-0.466 4.785,-0.66"
   id="path155"
   inkscape:connector-curvature="0"
   style="fill:none;stroke:#c346ff;stroke-width:2.75;stroke-linecap:round;stroke-linejoin:round;stroke-miterlimit:10" />
	</g><g
     id="POLYLINE_793_">
		
			<path
   stroke-miterlimit="10"
   d="m 199.388,598.586 c 6.778,1.027 13.548,2.012 20.423,1.834 6.73,-0.174 13.394,-1.166 20.048,-2.116 4.04,-0.577 8.077,-1.166 12.128,-1.659"
   id="path158"
   inkscape:connector-curvature="0"
   style="fill:none;stroke:#c346ff;stroke-width:2.75;stroke-linecap:round;stroke-linejoin:round;stroke-miterlimit:10" />
	</g><g
     id="POLYLINE_794_">
		
			<path
   stroke-miterlimit="10"
   d="m 281.127,596.5 c 3.994,0.407 7.97,0.925 11.938,1.53 3.369,0.513 7.106,1.485 10.533,1.029 2.173,-0.289 3.249,-1.732 3.513,-3.855 0.391,-3.143 0.04,-6.471 -0.159,-9.62 -0.549,-8.689 -1.141,-17.375 -1.578,-26.07 -0.391,-7.781 -0.789,-15.567 -0.996,-23.355 -0.256,-9.611 -0.512,-19.223 -0.767,-28.834 -0.008,-0.289 -0.015,-0.578 -0.023,-0.867"
   id="path161"
   inkscape:connector-curvature="0"
   style="fill:none;stroke:#c346ff;stroke-width:2.75;stroke-linecap:round;stroke-linejoin:round;stroke-miterlimit:10" />
	</g><g
     id="POLYLINE_795_">
		
			<line
   stroke-miterlimit="10"
   x1="227.44099"
   y1="201.222"
   x2="225.25"
   y2="201.222"
   id="line164"
   style="fill:none;stroke:#c346ff;stroke-width:2.75;stroke-linecap:round;stroke-linejoin:round;stroke-miterlimit:10" />
	</g><g
     id="POLYLINE_796_">
		
			<path
   stroke-miterlimit="10"
   d="m 254.472,352.993 c 6.889,-0.249 13.805,-0.112 20.696,0 2.101,0.034 4.2,0.089 6.301,0.153"
   id="path167"
   inkscape:connector-curvature="0"
   style="fill:none;stroke:#c346ff;stroke-width:2.75;stroke-linecap:round;stroke-linejoin:round;stroke-miterlimit:10" />
	</g><g
     id="POLYLINE_797_">
		
			<path
   stroke-miterlimit="10"
   d="m 226.734,331.432 c -0.012,2.896 0.205,5.735 1.053,8.519 0.869,2.851 2.196,5.585 3.768,8.113 1.793,2.882 4.43,6.723 8.207,6.955 2.76,0.169 5.54,-1.011 8.236,-1.446"
   id="path170"
   inkscape:connector-curvature="0"
   style="fill:none;stroke:#c346ff;stroke-width:2.75;stroke-linecap:round;stroke-linejoin:round;stroke-miterlimit:10" />
	</g><g
     id="POLYLINE_798_">
		
			<path
   stroke-miterlimit="10"
   d="m 261.154,331.86 c 5.571,0.22 11.134,0.505 16.7,0.842 1.452,0.088 2.903,0.176 4.355,0.264"
   id="path173"
   inkscape:connector-curvature="0"
   style="fill:none;stroke:#c346ff;stroke-width:2.75;stroke-linecap:round;stroke-linejoin:round;stroke-miterlimit:10" />
	</g><g
     id="POLYLINE_799_">
		
			<path
   stroke-miterlimit="10"
   d="m 174.22,329.963 c 3.053,0.085 6.106,0.171 9.159,0.256 6.562,0.184 13.124,0.367 19.686,0.551 6.048,0.169 12.095,0.338 18.143,0.508 2.37,0.066 4.738,0.149 7.108,0.167 5.684,0.044 11.367,0.087 17.051,0.131 0.146,10e-4 0.292,0.002 0.438,0.003"
   id="path176"
   inkscape:connector-curvature="0"
   style="fill:none;stroke:#c346ff;stroke-width:2.75;stroke-linecap:round;stroke-linejoin:round;stroke-miterlimit:10" />
	</g><g
     id="POLYLINE_800_">
		
			<path
   stroke-miterlimit="10"
   d="m 254.686,326.906 c -0.022,-1.859 -0.025,-3.72 -0.134,-5.576 -0.051,-0.866 0.086,-2.702 -0.887,-3.113 -0.979,-0.413 -2.37,-0.393 -3.411,-0.374 -0.942,0.017 -1.833,0.067 -1.932,1.187 -0.182,2.039 -0.055,4.152 -0.06,6.197"
   id="path179"
   inkscape:connector-curvature="0"
   style="fill:none;stroke:#c346ff;stroke-width:2.75;stroke-linecap:round;stroke-linejoin:round;stroke-miterlimit:10" />
	</g><g
     id="POLYLINE_801_">
		
			<path
   stroke-miterlimit="10"
   d="m 248.268,332.328 c -0.013,4.895 -0.069,9.787 -0.127,14.682 -0.049,4.141 -0.173,8.288 -0.329,12.426 -0.172,4.583 -0.37,9.165 -0.637,13.743 -0.249,4.262 -0.486,8.528 -0.835,12.784 -0.432,5.271 -0.829,10.547 -1.297,15.815 -0.256,2.881 -0.565,5.758 -0.847,8.637 -0.632,6.436 -1.265,12.872 -1.897,19.307 -0.579,5.898 -1.159,11.795 -1.738,17.693 -0.289,2.937 -0.592,5.87 -0.77,8.816 -0.13,2.157 -0.183,4.325 -0.05,6.483 0.071,1.149 0.134,2.392 0.558,3.479 1.192,3.054 4.064,-1.386 4.675,-2.698 1.722,-3.696 2.199,-7.974 2.748,-11.97 0.581,-4.232 1.095,-8.474 1.549,-12.722 0.529,-4.958 1.046,-9.913 1.516,-14.877 0.465,-4.919 0.879,-9.84 1.287,-14.764 0.328,-3.951 0.623,-7.909 0.849,-11.866 0.292,-5.103 0.563,-10.203 0.79,-15.309 0.173,-3.909 0.324,-7.823 0.404,-11.734 0.114,-5.612 0.229,-11.223 0.343,-16.835 0.09,-4.416 0.102,-8.834 0.147,-13.25 0.019,-1.891 0.039,-3.783 0.058,-5.674"
   id="path182"
   inkscape:connector-curvature="0"
   style="fill:none;stroke:#c346ff;stroke-width:2.75;stroke-linecap:round;stroke-linejoin:round;stroke-miterlimit:10" />
	</g><g
     id="POLYLINE_802_">
		
			<path
   stroke-miterlimit="10"
   d="m 254.527,320.939 c 7.246,0.389 14.473,0.891 21.707,1.457 1.774,0.139 3.547,0.278 5.321,0.416"
   id="path185"
   inkscape:connector-curvature="0"
   style="fill:none;stroke:#c346ff;stroke-width:2.75;stroke-linecap:round;stroke-linejoin:round;stroke-miterlimit:10" />
	</g><g
     id="POLYLINE_803_">
		
			<path
   stroke-miterlimit="10"
   d="m 176.272,320.266 c 3.077,0.005 6.153,0.01 9.23,0.015 6.564,0.01 13.128,0.021 19.692,0.031 6.18,0.01 12.36,0.02 18.54,0.03 2.709,0.004 5.417,0.003 8.125,0.035 5.197,0.062 10.389,0.165 15.585,0.293 0.278,0.007 0.556,0.014 0.834,0.021"
   id="path188"
   inkscape:connector-curvature="0"
   style="fill:none;stroke:#c346ff;stroke-width:2.75;stroke-linecap:round;stroke-linejoin:round;stroke-miterlimit:10" />
	</g><g
     id="POLYLINE_804_">
		
			<path
   stroke-miterlimit="10"
   d="m 238.502,328.87 c -0.202,-1.138 0.282,-2.521 0.735,-3.532 0.258,-0.575 0.579,-1.236 1.192,-1.489 0.594,-0.245 1.371,-0.089 1.983,0.006 2.859,0.446 5.667,1.334 8.462,2.057 2.162,0.559 4.395,1.016 6.46,1.885 2.02,0.851 3.751,2.343 3.894,4.646 0.088,1.418 -0.63,3.16 -2.213,3.342 -1.598,0.184 -3.463,-0.96 -4.865,-1.486 -2.439,-0.916 -4.934,-1.7 -7.43,-2.445 -1.439,-0.43 -2.878,-0.857 -4.323,-1.264 -1.031,-0.291 -2.167,-0.452 -3.146,-0.891 -0.383,-0.171 -0.663,-0.4 -0.749,-0.829 z"
   id="path191"
   inkscape:connector-curvature="0"
   style="fill:none;stroke:#c346ff;stroke-width:2.75;stroke-linecap:round;stroke-linejoin:round;stroke-miterlimit:10" />
	</g><g
     id="POLYLINE_805_">
		
			<path
   stroke-miterlimit="10"
   d="m 283.198,348.361 c -0.653,0.84 -1.302,1.262 -1.529,2.376 -0.16,0.785 -0.186,1.602 -0.199,2.4 -0.048,2.905 0.241,5.816 0.53,8.703 0.46,4.603 1.079,9.198 1.781,13.77 1.137,7.415 2.275,14.831 3.412,22.246 0.854,5.568 1.69,11.14 2.562,16.705 0.397,2.531 0.773,5.105 1.546,7.555 0.327,1.036 0.959,3.151 2.34,3.136 1.344,-0.015 2.186,-1.674 2.593,-2.774 0.78,-2.111 0.925,-4.463 1.012,-6.69 0.248,-6.368 -0.115,-12.78 -0.257,-19.146 -0.127,-5.682 -0.349,-11.359 -0.598,-17.037 -0.249,-5.673 -0.647,-11.346 -1.112,-17.006 -0.232,-2.819 -0.385,-5.681 -0.844,-8.476 -0.271,-1.655 -0.691,-3.333 -1.87,-4.59 -0.614,-0.655 -1.364,-1.161 -2.12,-1.638"
   id="path194"
   inkscape:connector-curvature="0"
   style="fill:none;stroke:#c346ff;stroke-width:2.75;stroke-linecap:round;stroke-linejoin:round;stroke-miterlimit:10" />
	</g><g
     id="POLYLINE_806_">
		
			<path
   stroke-miterlimit="10"
   d="m 289.148,327.724 c 0.378,5.888 0.757,11.775 1.135,17.663 0.054,0.836 0.107,1.672 0.161,2.508 -2.026,0.13 -4.052,0.26 -6.077,0.391 -0.279,0.018 -1.019,0.181 -1.174,0 -0.151,-0.176 -0.065,-1.015 -0.08,-1.238 -0.296,-4.605 -0.592,-9.21 -0.888,-13.815 -0.439,-6.831 -0.892,-13.662 -1.246,-20.498 -0.181,-3.496 -0.346,-6.994 -0.421,-10.494 -0.063,-2.928 -0.326,-6.113 0.254,-9.005 0.076,-0.38 0.136,-0.819 0.511,-0.982 0.32,-0.139 0.934,-0.06 1.275,-0.082 0.602,-0.039 1.272,-0.169 1.873,-0.12 0.897,0.073 1.093,1.332 1.287,2.095 0.795,3.137 1.119,6.429 1.458,9.641 0.774,7.316 1.297,14.653 1.798,21.992 0.045,0.646 0.09,1.295 0.134,1.944 z"
   id="path197"
   inkscape:connector-curvature="0"
   style="fill:none;stroke:#c346ff;stroke-width:2.75;stroke-linecap:round;stroke-linejoin:round;stroke-miterlimit:10" />
	</g><g
     id="POLYLINE_807_">
		
			<path
   stroke-miterlimit="10"
   d="m 179.216,309.782 c 7.919,-0.122 15.839,-0.266 23.758,-0.367 6.291,-0.08 12.586,-0.03 18.877,-0.043 9.812,-0.02 19.625,-0.041 29.437,-0.061 6.064,-0.013 12.131,0.058 18.194,0.168 1.488,0.027 3.026,-0.005 4.505,0.185 1.205,0.155 1.735,0.745 2.014,1.908 0.685,2.862 0.817,6.112 0.56,9.038 -0.052,0.595 -0.13,1.188 -0.245,1.774"
   id="path200"
   inkscape:connector-curvature="0"
   style="fill:none;stroke:#c346ff;stroke-width:2.75;stroke-linecap:round;stroke-linejoin:round;stroke-miterlimit:10" />
	</g><g
     id="POLYLINE_808_">
		
			<path
   stroke-miterlimit="10"
   d="m 288.433,317.426 c 1.54,-0.716 3.066,-1.406 4.247,-2.658 1.663,-1.763 2.661,-4.147 3.468,-6.395 1.971,-5.489 2.789,-11.36 3.068,-17.163 0.323,-6.704 0.047,-13.428 -0.206,-20.13 -0.259,-6.861 -0.538,-13.725 -0.87,-20.583 -0.305,-6.299 -0.767,-12.602 -1.398,-18.876 -0.087,-0.87 -0.183,-1.739 -0.274,-2.609"
   id="path203"
   inkscape:connector-curvature="0"
   style="fill:none;stroke:#c346ff;stroke-width:2.75;stroke-linecap:round;stroke-linejoin:round;stroke-miterlimit:10" />
	</g><g
     id="POLYLINE_809_">
		
			<path
   stroke-miterlimit="10"
   d="m 272.545,309.569 c 0.025,-5.152 0.111,-10.304 0.39,-15.45 0.29,-5.359 0.672,-10.71 1.263,-16.045 0.423,-3.819 0.97,-7.624 1.512,-11.428 0.993,-6.966 1.986,-13.931 2.979,-20.897 0.762,-5.345 1.524,-10.691 2.286,-16.036 0.013,-0.093 0.026,-0.186 0.04,-0.278"
   id="path206"
   inkscape:connector-curvature="0"
   style="fill:none;stroke:#c346ff;stroke-width:2.75;stroke-linecap:round;stroke-linejoin:round;stroke-miterlimit:10" />
	</g><g
     id="POLYLINE_810_">
		
			<path
   stroke-miterlimit="10"
   d="m 169.421,352.633 c 5.169,-0.455 10.307,-0.797 15.497,-0.493 5.489,0.322 10.949,1.05 16.417,1.599 4.282,0.43 9.019,1.068 13.168,-0.432 3.327,-1.203 5.719,-3.919 7.565,-6.847 2.497,-3.961 4.368,-8.538 4.612,-13.251 0.031,-0.592 0.041,-1.184 0.053,-1.776"
   id="path209"
   inkscape:connector-curvature="0"
   style="fill:none;stroke:#c346ff;stroke-width:2.75;stroke-linecap:round;stroke-linejoin:round;stroke-miterlimit:10" />
	</g><g
     id="POLYLINE_811_">
		
			<path
   stroke-miterlimit="10"
   d="m 160.913,392.832 c -0.11,2.961 -0.221,5.922 -0.331,8.883 -0.26,6.981 -0.521,13.961 -0.781,20.942 -0.308,8.26 -0.616,16.52 -0.925,24.78 -0.25,6.693 -0.5,13.386 -0.749,20.079 -0.104,2.793 -0.185,5.588 -0.328,8.379 -0.318,6.205 -0.738,12.402 -1.146,18.601 -0.148,2.251 -0.308,4.503 -0.355,6.759 -0.027,1.314 -0.313,3.609 0.547,4.788 0.815,1.119 3.462,0.674 4.609,0.632 3.502,-0.127 7.003,-0.263 10.505,-0.394 5.675,-0.213 11.354,-0.323 17.031,-0.465 4.592,-0.114 9.17,-0.349 13.752,-0.68 3.571,-0.258 7.143,-0.516 10.714,-0.774 2.096,-0.151 4.247,-0.102 6.321,-0.459 1.423,-0.245 2.362,-0.933 2.717,-2.407 0.476,-1.98 0.401,-4.118 0.464,-6.142 0.181,-5.8 0.4,-11.585 0.845,-17.372 0.394,-5.124 0.819,-10.256 1.426,-15.36 0.695,-5.853 1.433,-11.697 2.193,-17.542 0.748,-5.744 1.464,-11.489 2.156,-17.24 0.63,-5.237 1.148,-10.491 1.685,-15.739 0.496,-4.852 0.958,-9.709 1.437,-14.563 0.739,-7.491 1.478,-14.983 2.217,-22.474 0.384,-3.893 0.827,-7.773 1.373,-11.646 0.421,-2.991 0.843,-5.983 1.264,-8.974"
   id="path212"
   inkscape:connector-curvature="0"
   style="fill:none;stroke:#c346ff;stroke-width:2.75;stroke-linecap:round;stroke-linejoin:round;stroke-miterlimit:10" />
	</g><g
     id="POLYLINE_812_">
		
			<line
   stroke-miterlimit="10"
   x1="164.17999"
   y1="377.39499"
   x2="161.87399"
   y2="388.29199"
   id="line215"
   style="fill:none;stroke:#c346ff;stroke-width:2.75;stroke-linecap:round;stroke-linejoin:round;stroke-miterlimit:10" />
	</g><g
     id="POLYLINE_813_">
		
			<line
   stroke-miterlimit="10"
   x1="155.593"
   y1="386.92999"
   x2="157.89301"
   y2="376.064"
   id="line218"
   style="fill:none;stroke:#c346ff;stroke-width:2.75;stroke-linecap:round;stroke-linejoin:round;stroke-miterlimit:10" />
	</g><g
     id="POLYLINE_814_">
		
			<path
   stroke-miterlimit="10"
   d="m 157.238,379.16 c -3.336,0.482 -5.948,3.589 -4.223,6.874 0.822,1.565 2.339,2.695 3.965,3.322 1.608,0.62 3.422,0.793 5.102,0.376 1.855,-0.46 3.605,-1.747 3.988,-3.714 0.364,-1.871 -0.625,-3.68 -2.005,-4.878 -0.186,-0.161 -0.38,-0.313 -0.581,-0.456"
   id="path221"
   inkscape:connector-curvature="0"
   style="fill:none;stroke:#c346ff;stroke-width:2.75;stroke-linecap:round;stroke-linejoin:round;stroke-miterlimit:10" />
	</g><g
     id="POLYLINE_815_">
		
			<path
   stroke-miterlimit="10"
   d="m 156.914,380.692 c -1.77,0.421 -3.43,1.81 -2.963,3.797 0.335,1.422 1.509,2.524 2.772,3.173 1.92,0.987 4.429,1.258 6.361,0.141 2.298,-1.329 1.852,-3.984 0.07,-5.558"
   id="path224"
   inkscape:connector-curvature="0"
   style="fill:none;stroke:#c346ff;stroke-width:2.75;stroke-linecap:round;stroke-linejoin:round;stroke-miterlimit:10" />
	</g><g
     id="POLYLINE_816_">
		
			<path
   stroke-miterlimit="10"
   d="m 173.023,301.156 c -0.727,3.437 -1.455,6.873 -2.182,10.31 1.117,0.236 2.234,0.473 3.351,0.709 0.844,0.179 1.689,0.357 2.533,0.536 0.367,0.078 1.265,0.448 1.635,0.346 0.401,-0.111 0.462,-1.411 0.56,-1.877 0.35,-1.652 0.699,-3.303 1.049,-4.955 0.243,-1.148 0.486,-2.296 0.729,-3.444"
   id="path227"
   inkscape:connector-curvature="0"
   style="fill:none;stroke:#c346ff;stroke-width:2.75;stroke-linecap:round;stroke-linejoin:round;stroke-miterlimit:10" />
	</g><g
     id="POLYLINE_817_">
		
			<line
   stroke-miterlimit="10"
   x1="171.535"
   y1="311.612"
   x2="162.537"
   y2="354.121"
   id="line230"
   style="fill:none;stroke:#c346ff;stroke-width:2.75;stroke-linecap:round;stroke-linejoin:round;stroke-miterlimit:10" />
	</g><g
     id="POLYLINE_818_">
		
			<line
   stroke-miterlimit="10"
   x1="168.825"
   y1="355.452"
   x2="177.82201"
   y2="312.94299"
   id="line233"
   style="fill:none;stroke:#c346ff;stroke-width:2.75;stroke-linecap:round;stroke-linejoin:round;stroke-miterlimit:10" />
	</g><g
     id="POLYLINE_819_">
		
			<path
   stroke-miterlimit="10"
   d="m 183.154,297.907 c 0.328,-2.391 -0.349,-5.234 -2.502,-6.605 -2.421,-1.541 -5.241,-0.19 -6.734,1.939 -1.348,1.924 -1.845,4.48 -1.284,6.764 0.68,2.771 3.233,4.996 6.186,3.932 2.191,-0.79 3.636,-2.966 4.168,-5.153 0.07,-0.29 0.125,-0.582 0.166,-0.877 z"
   id="path236"
   inkscape:connector-curvature="0"
   style="fill:none;stroke:#c346ff;stroke-width:2.75;stroke-linecap:round;stroke-linejoin:round;stroke-miterlimit:10" />
	</g><g
     id="POLYLINE_820_">
		
			<path
   stroke-miterlimit="10"
   d="m 161.215,353.841 c 2.719,0.576 5.439,1.151 8.158,1.727 0.132,0.028 0.707,0.07 0.77,0.185 0.13,0.24 -0.291,1.373 -0.342,1.614 -0.289,1.368 -0.579,2.735 -0.868,4.103 -1.021,0 -2.226,-0.471 -3.219,-0.681 -1.646,-0.348 -3.293,-0.697 -4.939,-1.045 -0.132,-0.028 -0.707,-0.07 -0.77,-0.185 -0.13,-0.24 0.291,-1.373 0.342,-1.614 0.289,-1.368 0.578,-2.736 0.868,-4.104 z"
   id="path239"
   inkscape:connector-curvature="0"
   style="fill:none;stroke:#c346ff;stroke-width:2.75;stroke-linecap:round;stroke-linejoin:round;stroke-miterlimit:10" />
	</g><g
     id="POLYLINE_821_">
		
			<line
   stroke-miterlimit="10"
   x1="161.215"
   y1="353.841"
   x2="170.147"
   y2="355.73199"
   id="line242"
   style="fill:none;stroke:#c346ff;stroke-width:2.75;stroke-linecap:round;stroke-linejoin:round;stroke-miterlimit:10" />
	</g><g
     id="POLYLINE_822_">
		
			<path
   stroke-miterlimit="10"
   d="m 159.341,362.695 c -0.923,4.363 -1.847,8.726 -2.77,13.089 1.392,0.295 2.783,0.589 4.175,0.884 1.033,0.219 2.066,0.437 3.098,0.656 0.263,0.056 1.364,0.474 1.61,0.341 0.385,-0.209 0.559,-2.398 0.655,-2.85 0.434,-2.052 0.868,-4.103 1.303,-6.155 0.287,-1.358 0.575,-2.716 0.862,-4.073"
   id="path245"
   inkscape:connector-curvature="0"
   style="fill:none;stroke:#c346ff;stroke-width:2.75;stroke-linecap:round;stroke-linejoin:round;stroke-miterlimit:10" />
	</g><g
     id="POLYLINE_823_">
		
			<path
   stroke-miterlimit="10"
   d="m 151.273,360.988 c 0.22,-1.039 0.44,-2.077 0.659,-3.116 8,1.693 16.001,3.387 24.001,5.08 0.147,0.031 0.979,0.09 1.067,0.226 0.119,0.183 -0.287,1.355 -0.33,1.558 -0.11,0.519 -0.22,1.039 -0.33,1.558 -7.319,-1.549 -14.637,-3.098 -21.956,-4.647 -1.036,-0.22 -2.074,-0.44 -3.111,-0.659 z"
   id="path248"
   inkscape:connector-curvature="0"
   style="fill:none;stroke:#c346ff;stroke-width:2.75;stroke-linecap:round;stroke-linejoin:round;stroke-miterlimit:10" />
	</g><g
     id="POLYLINE_824_">
		
			<path
   stroke-miterlimit="10"
   d="m 150.057,227.642 c -0.103,7.954 -0.17,15.903 0.003,23.856 0.175,8.063 0.607,16.119 1.069,24.169 0.43,7.494 0.971,14.994 1.649,22.469 0.363,3.995 0.727,7.989 1.244,11.967 0.459,3.534 1.096,6.9 2.661,10.13 1.743,3.596 4.521,5.557 8.442,6.292 0.788,0.148 1.584,0.246 2.383,0.311"
   id="path251"
   inkscape:connector-curvature="0"
   style="fill:none;stroke:#c346ff;stroke-width:2.75;stroke-linecap:round;stroke-linejoin:round;stroke-miterlimit:10" />
	</g><g
     id="POLYLINE_825_">
		
			<path
   stroke-miterlimit="10"
   d="m 166.964,333.209 c 0.518,-5.923 1.029,-11.846 1.645,-17.759 0.625,-6.007 1.299,-12.013 2.119,-17.996 0.793,-5.79 1.689,-11.583 3.028,-17.276 1.219,-5.185 2.785,-10.479 5.607,-15.042 2.372,-3.835 5.733,-6.749 9.604,-9.011 4.86,-2.839 10.208,-4.883 15.492,-6.777 5.866,-2.103 11.833,-3.934 17.756,-5.868 5.068,-1.655 10.147,-3.279 15.196,-4.991 6.142,-2.083 12.25,-4.343 18.498,-6.093 5.544,-1.553 11.2,-2.383 16.942,-2.708 5.802,-0.329 11.694,-0.464 17.501,-0.233 1.657,0.066 3.382,0.338 5.019,-0.066 1.393,-0.344 2.607,-1.176 3.73,-2.037 2.222,-1.705 4.277,-3.632 6.456,-5.394 1.304,-1.054 2.398,-2.222 1.778,-3.985 -0.375,-1.065 -1.129,-1.997 -1.901,-2.799 -1.772,-1.84 -3.957,-3.29 -6.094,-4.667 -4.923,-3.172 -9.917,-6.346 -15.088,-9.102 -4.74,-2.526 -9.703,-4.501 -14.836,-6.073 -3.111,-0.953 -6.236,-1.87 -9.332,-2.872 -1.982,-0.642 -4.165,-1.249 -5.895,-2.45 -1.709,-1.186 -2.104,-3.174 -2.73,-5.03 -0.467,-1.383 -1.108,-3.376 -2.782,-3.635 -0.637,-0.099 -1.3,0.032 -1.92,0.178 -1.484,0.35 -2.943,0.842 -4.406,1.271 -2.462,0.723 -4.947,1.44 -7.232,2.632 -3.489,1.82 -5.65,4.67 -6.742,8.449 -0.689,2.383 -0.94,4.875 -0.937,7.349"
   id="path254"
   inkscape:connector-curvature="0"
   style="fill:none;stroke:#c346ff;stroke-width:2.75;stroke-linecap:round;stroke-linejoin:round;stroke-miterlimit:10" />
	</g><g
     id="POLYLINE_826_">
		
			<path
   stroke-miterlimit="10"
   d="m 225.25,201.222 c 0.08,-3.474 -0.263,-7.032 -0.999,-10.428 -0.452,-2.085 -1.103,-4.246 -2.986,-5.474 -2.318,-1.512 -5.358,-1.981 -7.999,-2.618 -1.964,-0.473 -3.915,-0.995 -5.878,-1.474 -0.928,-0.226 -2.045,-0.523 -3.009,-0.303 -1.114,0.254 -1.536,1.319 -1.785,2.324 -0.402,1.623 -0.491,3.31 -0.852,4.943 -0.188,0.85 -0.434,1.973 -1.153,2.544 -1.008,0.8 -2.823,0.619 -4.038,0.873 -3.494,0.729 -6.928,1.947 -10.277,3.168 -3.903,1.423 -7.817,2.822 -11.7,4.299 -7.158,2.723 -14.548,5.531 -20.783,10.076 -2.946,2.147 -5.584,4.767 -7.612,7.805 -1.267,1.899 -2.569,4.175 -2.781,6.501 -0.298,3.265 3.246,3.456 5.635,3.938 2.572,0.518 4.949,1.355 6.935,3.117 2.439,2.164 4.153,5.076 5.57,7.976 1.688,3.452 2.992,7.084 4.199,10.727 2.503,7.554 4.475,15.325 5.417,23.238 0.949,7.975 0.323,15.761 -0.448,23.715 -0.178,1.834 -0.355,3.667 -0.533,5.501"
   id="path257"
   inkscape:connector-curvature="0"
   style="fill:none;stroke:#c346ff;stroke-width:2.75;stroke-linecap:round;stroke-linejoin:round;stroke-miterlimit:10" />
	</g><g
     id="POLYLINE_827_">
		
			<path
   stroke-miterlimit="10"
   d="m 244.705,181.821 c -0.129,-4.583 0.101,-9.168 0.704,-13.712"
   id="path260"
   inkscape:connector-curvature="0"
   style="fill:none;stroke:#c346ff;stroke-width:2.75;stroke-linecap:round;stroke-linejoin:round;stroke-miterlimit:10" />
	</g><g
     id="POLYLINE_828_">
		
			<path
   stroke-miterlimit="10"
   d="m 207.033,180.979 c 0.448,-4.913 0.162,-9.855 -0.857,-14.682"
   id="path263"
   inkscape:connector-curvature="0"
   style="fill:none;stroke:#c346ff;stroke-width:2.75;stroke-linecap:round;stroke-linejoin:round;stroke-miterlimit:10" />
	</g><g
     id="POLYLINE_829_">
		
			<path
   stroke-miterlimit="10"
   d="m 193.882,134.504 c -0.565,0.26 -1.219,0.353 -1.636,0.859 -0.364,0.443 -0.453,1.062 -0.509,1.617 -0.19,1.885 0.124,3.852 0.445,5.706 0.417,2.406 0.946,4.834 1.745,7.145 0.379,1.095 0.839,2.273 1.647,3.135 1.071,1.142 2.62,1.385 3.538,2.746 1.185,1.757 1.924,3.789 3.043,5.591 2.428,3.909 5.974,7.182 9.718,9.807 3.532,2.476 7.491,4.428 11.826,4.9 4.381,0.477 8.933,-0.467 12.982,-2.126 4.403,-1.803 8.152,-4.659 11.011,-8.463 1.346,-1.79 2.517,-3.728 3.45,-5.765 0.743,-1.622 1.058,-4.03 2.647,-5.073 1.147,-0.753 2.087,-1.195 2.711,-2.476 1.008,-2.069 1.617,-4.379 2.185,-6.601 0.598,-2.334 1.11,-4.719 1.297,-7.125 0.089,-1.152 0.367,-3.494 -0.705,-4.342 -0.496,-0.393 -1.232,-0.344 -1.815,-0.215"
   id="path266"
   inkscape:connector-curvature="0"
   style="fill:none;stroke:#c346ff;stroke-width:2.75;stroke-linecap:round;stroke-linejoin:round;stroke-miterlimit:10" />
	</g><g
     id="POLYLINE_830_">
		
			<path
   stroke-miterlimit="10"
   d="m 196.302,142.892 c -0.906,0.397 -1.753,-3.096 -1.852,-3.523 -0.461,-1.985 -0.573,-4.041 -0.594,-6.072 -0.053,-5.009 0.193,-10.075 0.556,-15.07 0.331,-4.562 0.991,-9.233 3.335,-13.244 2.298,-3.932 5.85,-7.027 9.452,-9.734 3.374,-2.536 7.106,-4.686 11.224,-5.727 4.064,-1.028 8.342,-0.889 12.446,-0.174 4.679,0.815 9.425,2.365 13.469,4.896 3.743,2.343 6.422,5.695 8.107,9.76 1.789,4.315 2.69,8.97 3.535,13.544 0.854,4.623 1.625,9.297 1.539,14.014 -0.041,2.246 -0.287,4.484 -0.751,6.683 -0.107,0.51 -0.796,4.527 -1.707,4.475 -0.87,-0.05 -0.79,-4.347 -0.811,-4.827 -0.125,-2.864 -0.199,-5.731 -0.3,-8.596 -0.151,-4.313 -0.332,-8.824 -2.038,-12.851 -0.896,-2.114 -2.074,-4.135 -3.208,-6.128 -0.963,-1.691 -2.019,-3.392 -3.411,-4.769 -1.339,-1.325 -2.91,-2.033 -4.778,-2.255 -2.132,-0.253 -4.299,-0.055 -6.439,-0.099 -2.579,-0.052 -5.146,-0.343 -7.711,-0.591 -4.465,-0.432 -9.262,-1.214 -13.62,0.245 -3.937,1.318 -7.32,4.108 -9.653,7.508 -2.652,3.864 -4.034,8.477 -4.768,13.065 -0.776,4.848 -0.846,9.774 -1.165,14.664 -0.072,1.105 -0.137,2.219 -0.319,3.312 -0.072,0.421 -0.143,1.25 -0.538,1.494 z"
   id="path269"
   inkscape:connector-curvature="0"
   style="fill:none;stroke:#c346ff;stroke-width:2.75;stroke-linecap:round;stroke-linejoin:round;stroke-miterlimit:10" />
	</g><g
     id="POLYLINE_831_">
		
			<path
   stroke-miterlimit="10"
   d="m 255.291,153.724 c 2.932,5.854 5.79,11.647 7.466,18.008 0.968,3.673 1.856,7.377 2.963,11.012 0.83,2.727 1.834,5.402 3.587,7.679 0.887,1.152 1.962,2.169 2.749,3.395 0.551,0.859 0.912,1.815 1.229,2.781"
   id="path272"
   inkscape:connector-curvature="0"
   style="fill:none;stroke:#c346ff;stroke-width:2.75;stroke-linecap:round;stroke-linejoin:round;stroke-miterlimit:10" />
	</g><g
     id="POLYLINE_832_">
		
			<path
   stroke-miterlimit="10"
   d="m 174.398,199.143 c 0.476,-1.758 1.316,-3.021 2.709,-4.184 1.244,-1.039 2.489,-2.033 3.499,-3.313 1.055,-1.335 1.914,-2.822 2.705,-4.325 1.777,-3.376 3.226,-6.919 4.739,-10.417 1.564,-3.618 3.131,-7.236 4.631,-10.882 1.623,-3.944 3.127,-7.933 4.493,-11.973"
   id="path275"
   inkscape:connector-curvature="0"
   style="fill:none;stroke:#c346ff;stroke-width:2.75;stroke-linecap:round;stroke-linejoin:round;stroke-miterlimit:10" />
	</g><g
     id="POLYLINE_869_">
		
			<path
   stroke-miterlimit="10"
   d="m 257.409,133.838 c 0.518,-7.104 -0.892,-14.299 -2.411,-21.21 -1.362,-6.197 -3.315,-12.594 -8.4,-16.766 -5.075,-4.163 -12.13,-6.265 -18.569,-6.908 -5.588,-0.558 -10.96,0.39 -15.902,3.082 -3.185,1.735 -6.115,3.976 -8.811,6.394 -2.291,2.054 -4.388,4.367 -5.869,7.082 -3.23,5.921 -3.109,13.15 -3.369,19.702 -0.072,1.798 -0.155,3.597 -0.199,5.396 -0.02,0.82 -0.032,1.64 -0.026,2.46 0.003,0.35 0.063,0.742 0.019,1.088 -0.053,0.417 -0.005,0.294 -0.304,0.476 -0.43,0.261 -0.892,0.261 -1.261,0.661 -0.333,0.361 -0.451,0.859 -0.526,1.331 -0.154,0.974 -0.093,1.986 -0.01,2.964 0.275,3.237 0.974,6.512 1.949,9.609 0.554,1.759 1.235,3.628 2.927,4.578 0.43,0.242 0.459,0.141 0.422,0.587 -0.034,0.416 -0.302,0.899 -0.442,1.302 -0.331,0.958 -0.672,1.913 -1.021,2.864 -0.57,1.553 -1.163,3.099 -1.773,4.636 -1.247,3.14 -2.549,6.261 -3.89,9.362 -1.603,3.708 -3.168,7.434 -4.839,11.112 -1.308,2.88 -2.711,5.87 -4.749,8.317 -1.476,1.772 -3.724,2.872 -4.976,4.814 -0.41,0.636 -0.582,1.321 -0.876,2.003 -0.177,0.411 -0.116,0.374 -0.57,0.548 -0.607,0.233 -1.214,0.466 -1.821,0.699 -0.787,0.302 -1.569,0.617 -2.352,0.93 -6.249,2.501 -12.658,5.305 -17.852,9.679 -2.532,2.133 -4.791,4.655 -6.473,7.516 -0.964,1.64 -1.951,3.573 -2.05,5.517 -0.12,2.347 1.818,2.971 3.731,3.364 0.829,0.17 1.776,0.223 2.573,0.518 0.447,0.166 0.278,-0.005 0.37,0.367 0.089,0.363 -0.012,0.898 -0.017,1.268 -0.03,2.248 -0.069,4.496 -0.089,6.744 -0.063,7.203 0.032,14.406 0.283,21.604 0.238,6.849 0.589,13.704 1.055,20.541 0.54,7.921 1.105,15.831 1.823,23.738 0.582,6.407 0.877,13.304 3.912,19.107 1.608,3.075 4.27,4.796 7.629,5.517 0.713,0.153 1.434,0.263 2.159,0.341 0.307,0.033 0.574,-0.011 0.688,0.191 0.137,0.241 -0.092,1.074 -0.116,1.352 -0.144,1.674 -0.173,3.406 -0.456,5.063 -0.717,4.191 -1.768,8.352 -2.648,12.512 -0.454,2.147 -0.909,4.293 -1.363,6.44 -0.087,0.41 -0.096,1.23 -0.335,1.581 -0.039,0.057 -0.011,0.174 -0.06,0.207 -0.149,0.1 -1.112,-0.235 -1.307,-0.277 -0.405,1.913 -0.81,3.826 -1.215,5.738 -2.689,-0.569 -5.378,-1.138 -8.068,-1.708 -0.189,0.894 -0.438,1.794 -0.571,2.697 -0.092,0.622 0.131,0.465 0.764,0.599 2.1,0.444 4.2,0.889 6.3,1.333 0.283,0.06 0.811,0.068 0.896,0.287 0.128,0.331 -0.29,1.368 -0.361,1.703 -0.464,2.191 -0.927,4.382 -1.391,6.573 -0.333,1.573 -0.666,3.146 -0.999,4.719 0.238,0.05 1.216,0.117 1.319,0.296 0.141,0.245 -0.312,1.472 -0.365,1.725 -0.063,0.296 -0.098,1.168 -0.32,1.36 -0.131,0.113 -0.632,0.118 -0.813,0.166 -1.383,0.366 -2.699,1.172 -3.417,2.441 -0.901,1.593 -0.576,3.469 0.437,4.908 0.423,0.601 0.948,1.064 1.504,1.535 0.403,0.342 0.322,0.181 0.273,0.632 -0.142,1.303 -0.557,2.632 -0.828,3.913 -1.304,6.162 -2.608,12.324 -3.913,18.486 -2.06,9.731 -4.119,19.463 -6.179,29.194 -2.479,11.71 -4.957,23.421 -7.436,35.131 -2.607,12.315 -5.213,24.63 -7.82,36.945 -2.392,11.302 -4.784,22.604 -7.176,33.905 -1.886,8.91 -3.772,17.819 -5.657,26.729 -1.045,4.936 -2.089,9.872 -3.134,14.808 -1.007,4.758 -1.935,9.588 -1.716,14.475 0.078,1.734 0.312,3.479 0.85,5.134 3.503,-3.908 5.11,-9.427 6.306,-14.422 0.493,-2.056 0.905,-4.133 1.343,-6.202 0.934,-4.415 1.869,-8.83 2.803,-13.245 1.417,-6.693 2.833,-13.387 4.25,-20.08 1.72,-8.126 3.44,-16.253 5.16,-24.379 1.851,-8.746 3.702,-17.493 5.554,-26.239 1.789,-8.454 3.579,-16.907 5.368,-25.361 1.555,-7.348 3.11,-14.695 4.665,-22.043 1.142,-5.396 2.284,-10.792 3.426,-16.188 0.55,-2.597 1.04,-5.215 1.65,-7.798 0.027,-0.113 0.048,-0.228 0.072,-0.341 -0.233,0 -1.418,14.675 -1.503,15.552 -0.981,10.151 -1.962,20.303 -2.942,30.454 -0.677,7.009 -1.354,14.018 -2.032,21.028 -0.327,3.383 -0.595,6.773 -0.887,10.159 -0.82,9.504 -1.641,19.009 -2.461,28.513 -0.798,9.24 -1.595,18.479 -2.393,27.719 -0.419,4.854 -0.811,9.704 -1.163,14.564 -0.483,6.659 -1.248,13.446 -0.993,20.127 0.056,1.473 0.063,3.928 1.34,5.015 0.828,0.705 2.009,0.462 2.964,0.196 1.551,-0.432 3.043,-1.104 4.538,-1.691 6.125,-2.407 12.593,-3.993 19.081,-5.05 1.59,-0.259 3.186,-0.466 4.785,-0.66 -0.165,2.675 -0.294,5.28 -0.098,7.954 0.17,2.329 -0.142,4.601 -0.091,6.924 0.04,1.817 0.666,3.574 0.642,5.392 -0.02,1.526 -0.598,2.967 -1.04,4.406 -0.682,2.218 -0.857,4.551 -1.476,6.787 -0.756,2.733 -1.619,5.432 -2.309,8.184 -0.62,2.471 -1.148,4.971 -1.503,7.495 -0.278,1.977 -0.524,4.059 -0.234,6.05 0.25,1.72 1.11,2.812 2.805,3.257 2.012,0.529 4.199,0.546 6.265,0.582 3.538,0.061 7.078,0.073 10.617,0.11 2.19,0.023 4.411,0.132 6.592,-0.102 1.447,-0.155 2.921,-0.494 3.984,-1.565 0.977,-0.985 1.508,-2.372 1.882,-3.681 1.421,-4.978 0.652,-10.198 0.126,-15.245 -0.241,-2.316 -0.429,-4.633 -0.268,-6.962 0.181,-2.605 0.753,-5.17 0.838,-7.782 0.087,-2.663 -0.143,-5.321 0.024,-7.984 0.171,-2.715 0.565,-5.407 0.932,-8.1 0.196,-1.443 0.393,-2.885 0.589,-4.328 6.778,1.027 13.548,2.012 20.423,1.834 6.73,-0.174 13.394,-1.166 20.048,-2.116 4.04,-0.577 8.077,-1.166 12.128,-1.659 0.128,2.424 0.356,4.803 0.86,7.181 0.536,2.533 1.157,5.045 1.351,7.634 0.204,2.72 0.09,5.452 0.231,8.175 0.139,2.675 0.8,5.258 1.126,7.908 0.661,5.383 -0.746,10.798 -0.78,16.187 -0.02,3.206 0.058,7.831 3.394,9.505 1.291,0.648 2.784,0.812 4.204,0.899 3.074,0.19 6.172,0.143 9.25,0.194 2.459,0.041 4.922,0.066 7.379,-0.058 1.297,-0.065 2.731,-0.105 3.936,-0.663 2.92,-1.354 2.409,-5.999 2.097,-8.515 -0.374,-3.012 -0.923,-6.009 -1.396,-9.006 -0.387,-2.451 -0.757,-4.903 -1.383,-7.308 -0.659,-2.53 -1.679,-5 -1.944,-7.618 -0.221,-2.179 0.163,-4.365 0.433,-6.52 0.296,-2.362 0.244,-4.591 -0.067,-6.95 -0.344,-2.61 -0.237,-4.936 0.136,-7.536 0.174,-1.213 0.297,-2.427 0.314,-3.653 5.061,0.516 10.082,1.247 15.11,2.014 2.675,0.408 6.115,1.301 8.742,0.201 1.401,-0.587 1.92,-1.961 2.114,-3.368 0.277,-2.016 0.128,-4.117 0.044,-6.142 -0.211,-5.104 -0.6,-10.201 -0.923,-15.299 -0.283,-4.477 -0.567,-8.952 -0.792,-13.432 -0.251,-4.995 -0.492,-9.987 -0.687,-14.985 -0.16,-4.108 -0.328,-8.215 -0.437,-12.325 -0.179,-6.734 -0.358,-13.468 -0.538,-20.203 -0.036,-1.34 -0.071,-2.681 -0.107,-4.022 -0.017,-0.627 -0.241,-1.631 -0.06,-2.237 0.075,-0.252 -0.068,-0.121 0.11,-0.249 0.255,-0.184 1.351,-0.065 1.701,-0.091 0.893,-0.067 1.797,-0.153 2.671,-0.358 1.444,-0.339 2.173,-1.033 2.066,-2.559 -0.128,-1.826 -0.703,-3.635 -1.156,-5.399 -1.232,-4.8 -2.403,-9.596 -3.403,-14.45 -1.1,-5.339 -2.071,-10.703 -3.083,-16.059 -0.607,-3.213 -1.196,-6.427 -1.775,-9.645 -1.214,-6.74 -2.427,-13.479 -3.641,-20.219 -0.536,-2.975 -1.071,-5.95 -1.607,-8.925 -0.169,-0.939 -0.338,-1.878 -0.507,-2.816 -0.048,-0.267 -0.287,-0.88 -0.207,-1.149 0.065,-0.218 0.545,-0.568 0.694,-0.779 0.174,-0.244 0.323,-0.505 0.456,-0.774 0.187,-0.378 0.336,-0.773 0.464,-1.175 0.628,-1.97 0.78,-4.097 0.863,-6.151 0.197,-4.854 -0.04,-9.732 -0.148,-14.585 -0.113,-5.051 -0.232,-10.1 -0.416,-15.149 -0.166,-4.554 -0.377,-9.113 -0.683,-13.66 -0.346,-5.137 -0.716,-10.271 -1.197,-15.397 -0.287,-3.066 -0.523,-6.377 -3.143,-8.393 -0.512,-0.394 -1.118,-0.552 -1.232,-1.182 -0.176,-0.971 -0.131,-2.038 -0.194,-3.022 -0.223,-3.47 -0.446,-6.94 -0.669,-10.41 -0.309,-4.814 -0.635,-9.627 -0.969,-14.439 -0.041,-0.591 -0.105,-1.185 -0.123,-1.777 -0.016,-0.489 -0.088,-0.431 0.393,-0.662 0.792,-0.38 1.593,-0.73 2.329,-1.213 0.699,-0.459 1.323,-1.016 1.857,-1.659 2.531,-3.044 3.705,-7.297 4.586,-11.08 1.016,-4.361 1.456,-8.814 1.638,-13.281 0.188,-4.6 0.067,-9.208 -0.087,-13.806 -0.166,-4.964 -0.374,-9.925 -0.584,-14.887 -0.216,-5.116 -0.421,-10.23 -0.721,-15.342 -0.279,-4.763 -0.653,-9.526 -1.128,-14.273 -0.058,-0.583 -0.122,-1.166 -0.183,-1.75 -0.017,-0.163 -0.177,-0.755 -0.095,-0.906 0.047,-0.088 0.245,-0.115 0.336,-0.179 0.559,-0.395 1.193,-0.69 1.753,-1.095 1.799,-1.299 3.398,-2.851 5.096,-4.274 1.208,-1.012 3.296,-2.116 3.791,-3.74 0.268,-0.881 -0.056,-1.81 -0.486,-2.583 -1.623,-2.918 -4.899,-4.9 -7.62,-6.653 -4.051,-2.61 -8.158,-5.171 -12.335,-7.575 -3.91,-2.25 -7.967,-4.242 -12.208,-5.791 -0.457,-0.167 -1.264,-0.281 -1.544,-0.637 -0.25,-0.318 -0.341,-0.985 -0.506,-1.367 -0.18,-0.417 -0.384,-0.824 -0.624,-1.211 -0.962,-1.551 -2.359,-2.788 -3.393,-4.292 -2.28,-3.318 -3.217,-7.434 -4.228,-11.272 -1.271,-4.822 -2.425,-9.669 -4.301,-14.301 -0.814,-2.01 -1.726,-3.977 -2.697,-5.916 -0.394,-0.787 -0.788,-1.574 -1.182,-2.361 -0.256,-0.511 -0.871,-1.304 -0.94,-1.877 -0.049,-0.402 0.698,-1.001 0.955,-1.474 0.888,-1.638 1.405,-3.518 1.911,-5.301 0.629,-2.215 1.163,-4.468 1.502,-6.747 0.231,-1.551 0.436,-3.195 0.213,-4.761 -0.211,-1.483 -1.095,-2.118 -2.556,-1.786 z"
   id="path282"
   inkscape:connector-curvature="0"
   style="fill:none;stroke:#0000ff;stroke-width:3.5;stroke-linecap:round;stroke-linejoin:round;stroke-miterlimit:10" />
	</g></g>
</svg>