<?xml version="1.0" encoding="UTF-8" standalone="no"?>
<!-- Generator: Adobe Illustrator 23.0.3, SVG Export Plug-In . SVG Version: 6.00 Build 0)  -->

<svg
   xmlns:ns="&amp;ns_sfw;"
   xmlns:dc="http://purl.org/dc/elements/1.1/"
   xmlns:cc="http://creativecommons.org/ns#"
   xmlns:rdf="http://www.w3.org/1999/02/22-rdf-syntax-ns#"
   xmlns:svg="http://www.w3.org/2000/svg"
   xmlns="http://www.w3.org/2000/svg"
   xmlns:sodipodi="http://sodipodi.sourceforge.net/DTD/sodipodi-0.dtd"
   xmlns:inkscape="http://www.inkscape.org/namespaces/inkscape"
   version="1.1"
   x="0px"
   y="0px"
   viewBox="0 0 750 725"
   style="enable-background:new 0 0 750 725;"
   xml:space="preserve"
   id="svg132"
   sodipodi:docname="Cersei-Lannister-Height.svg"
   inkscape:version="0.92.4 (5da689c313, 2019-01-14)"><defs
   id="defs136">
	
	
	
	
	
	
	
	
	
	
	
	
	
	
	
	
	
	
	
	
	
	
	
	
	
	
	
	

		
	
		
	
		
	
		
	
		
	
		
	
		
	
		
	
		
	
		
	
		
	
		
	
		
	
		
	
		
	
		
	
		
	
		
	
		
	
		
	
		
	
		
	
		
	
		
	
		
	
		
	
		
	
		
	
	
	
</defs><sodipodi:namedview
   pagecolor="#ffffff"
   bordercolor="#666666"
   borderopacity="1"
   objecttolerance="10"
   gridtolerance="10"
   guidetolerance="10"
   inkscape:pageopacity="0"
   inkscape:pageshadow="2"
   inkscape:window-width="1920"
   inkscape:window-height="1018"
   id="namedview134"
   showgrid="false"
   inkscape:zoom="0.4603509"
   inkscape:cx="242.60821"
   inkscape:cy="377.2932"
   inkscape:window-x="-8"
   inkscape:window-y="-8"
   inkscape:window-maximized="1"
   inkscape:current-layer="svg132" />
<style
   type="text/css"
   id="style2">
	.st0{fill:#FFFFFF;}
	.st1{fill:#C346FF;}
	.st2{font-family:'Rubik-Regular';}
	.st3{font-size:20px;}
	.st4{fill:none;stroke:#000000;stroke-width:3.25;stroke-linecap:round;stroke-linejoin:round;}
	.st5{fill:none;stroke:#000000;stroke-width:3.25;stroke-linecap:round;stroke-linejoin:round;stroke-dasharray:4.0081,7.0141;}
	.st6{fill:none;stroke:#C346FF;stroke-width:3.25;stroke-linecap:round;stroke-linejoin:round;}
	.st7{fill:none;stroke:#C346FF;stroke-width:3.25;stroke-linecap:round;stroke-linejoin:round;stroke-dasharray:4.0081,7.0141;}
	.st8{fill:none;stroke:#C346FF;stroke-width:3.25;stroke-linecap:round;stroke-linejoin:round;stroke-dasharray:3.8608,6.7564;}
	.st9{fill:none;stroke:#C346FF;stroke-width:3.25;stroke-linecap:round;stroke-linejoin:round;stroke-dasharray:4.0373,7.0652;}
	.st10{fill:none;stroke:#C346FF;stroke-width:3.25;stroke-linecap:round;stroke-linejoin:round;stroke-dasharray:3.8299,6.7023;}
	.st11{fill:none;stroke:#C346FF;stroke-width:3.25;stroke-linecap:round;stroke-linejoin:round;stroke-dasharray:4.0059,7.0103;}
	.st12{fill:none;stroke:#C346FF;stroke-width:3.25;stroke-linecap:round;stroke-linejoin:round;stroke-dasharray:4.6985,8.2225;}
	.st13{fill:none;stroke:#C346FF;stroke-width:3.25;stroke-linecap:round;stroke-linejoin:round;stroke-dasharray:3.7843,6.6226;}
	.st14{fill:none;stroke:#C346FF;stroke-width:3.25;stroke-linecap:round;stroke-linejoin:round;stroke-dasharray:4.0711,7.1244;}
	.st15{fill:none;stroke:#C346FF;stroke-width:3.25;stroke-linecap:round;stroke-linejoin:round;stroke-dasharray:3.9175,6.8557;}
	.st16{fill:none;stroke:#C346FF;stroke-width:3.25;stroke-linecap:round;stroke-linejoin:round;stroke-dasharray:3.9677,6.9435;}
	.st17{fill:none;stroke:#C346FF;stroke-width:3.25;stroke-linecap:round;stroke-linejoin:round;stroke-dasharray:3.99,6.9825;}
	.st18{fill:none;stroke:#C346FF;stroke-width:3.25;stroke-linecap:round;stroke-linejoin:round;stroke-dasharray:4.8487,8.4853;}
	.st19{fill:none;stroke:#C346FF;stroke-width:3.25;stroke-linecap:round;stroke-linejoin:round;stroke-dasharray:3.911,6.8443;}
	.st20{fill:none;stroke:#C346FF;stroke-width:3.25;stroke-linecap:round;stroke-linejoin:round;stroke-dasharray:3.9082,6.8394;}
	.st21{fill:none;stroke:#C346FF;stroke-width:3.25;stroke-linecap:round;stroke-linejoin:round;stroke-dasharray:3.8757,6.7825;}
	.st22{fill:none;stroke:#C346FF;stroke-width:3.25;stroke-linecap:round;stroke-linejoin:round;stroke-dasharray:4.1148,7.201;}
	.st23{fill:none;stroke:#C346FF;stroke-width:3.25;stroke-linecap:round;stroke-linejoin:round;stroke-dasharray:4.0223,7.039;}
	.st24{fill:none;stroke:#C346FF;stroke-width:3.25;stroke-linecap:round;stroke-linejoin:round;stroke-dasharray:4.0042,7.0074;}
	.st25{fill:none;stroke:#000000;stroke-width:3.25;stroke-linecap:round;stroke-linejoin:round;stroke-dasharray:4.0362,7.0633;}
	.st26{fill:none;stroke:#C346FF;stroke-width:3.25;stroke-linecap:round;stroke-linejoin:round;stroke-dasharray:4.0362,7.0633;}
	.st27{fill:none;stroke:#C346FF;stroke-width:3.25;stroke-linecap:round;stroke-linejoin:round;stroke-dasharray:3.7919,6.6358;}
	.st28{fill:none;stroke:#C346FF;stroke-width:3.25;stroke-linecap:round;stroke-linejoin:round;stroke-dasharray:4.029,7.0508;}
	.st29{fill:none;stroke:#C346FF;stroke-width:3.25;stroke-linecap:round;stroke-linejoin:round;stroke-dasharray:4.013,7.0227;}
	.st30{fill:none;stroke:#C346FF;stroke-width:3.25;stroke-linecap:round;stroke-linejoin:round;stroke-dasharray:4.0164,7.0288;}
	.st31{fill:none;stroke:#C346FF;stroke-width:3.25;stroke-linecap:round;stroke-linejoin:round;stroke-dasharray:3.8996,6.8243;}
	.st32{fill:none;stroke:#C346FF;stroke-width:3.25;stroke-linecap:round;stroke-linejoin:round;stroke-dasharray:4.1149,7.201;}
	.st33{fill:none;stroke:#C346FF;stroke-width:3.25;stroke-linecap:round;stroke-linejoin:round;stroke-dasharray:3.5562,6.2234;}
	.st34{fill:none;stroke:#C346FF;stroke-width:3.25;stroke-linecap:round;stroke-linejoin:round;stroke-dasharray:3.998,6.9964;}
	.st35{fill:none;stroke:#C346FF;stroke-width:3.25;stroke-linecap:round;stroke-linejoin:round;stroke-dasharray:3.6971,6.47;}
	.st36{fill:none;stroke:#C346FF;stroke-width:3.25;stroke-linecap:round;stroke-linejoin:round;stroke-dasharray:4.1003,7.1756;}
	.st37{fill:none;stroke:#C346FF;stroke-width:3.25;stroke-linecap:round;stroke-linejoin:round;stroke-dasharray:3.6503,6.388;}
	.st38{fill:none;stroke:#C346FF;stroke-width:3.25;stroke-linecap:round;stroke-linejoin:round;stroke-dasharray:3.8454,6.7295;}
	.st39{fill:none;stroke:#C346FF;stroke-width:3.25;stroke-linecap:round;stroke-linejoin:round;stroke-dasharray:3.9566,6.924;}
	.st40{fill:none;stroke:#C346FF;stroke-width:3.25;stroke-linecap:round;stroke-linejoin:round;stroke-dasharray:3.9517,6.9155;}
	.st41{fill:none;stroke:#C346FF;stroke-width:3.25;stroke-linecap:round;stroke-linejoin:round;stroke-dasharray:4.0927,7.1622;}
	.st42{fill:none;stroke:#C346FF;stroke-width:3.25;stroke-linecap:round;stroke-linejoin:round;stroke-dasharray:3.555,6.2212;}
	.st43{fill:none;stroke:#C346FF;stroke-width:3.25;stroke-linecap:round;stroke-linejoin:round;stroke-dasharray:3.975,6.9562;}
	.st44{fill:none;stroke:#C346FF;stroke-width:3.25;stroke-linecap:round;stroke-linejoin:round;stroke-dasharray:4.0137,7.0239;}
	.st45{fill:none;stroke:#C346FF;stroke-width:3.25;stroke-linecap:round;stroke-linejoin:round;stroke-dasharray:3.8218,6.6881;}
	.st46{fill:none;stroke:#C346FF;stroke-width:3.25;stroke-linecap:round;stroke-linejoin:round;stroke-dasharray:3.8918,6.8106;}
	.st47{fill:none;stroke:#C346FF;stroke-width:3.25;stroke-linecap:round;stroke-linejoin:round;stroke-dasharray:3.7511,6.5644;}
	.st48{fill:none;stroke:#C346FF;stroke-width:3.25;stroke-linecap:round;stroke-linejoin:round;stroke-dasharray:4.071,7.1243;}
	.st49{fill:none;stroke:#C346FF;stroke-width:3.25;stroke-linecap:round;stroke-linejoin:round;stroke-dasharray:4.0058,7.0102;}
	.st50{fill:none;stroke:#000000;stroke-width:3.25;stroke-linecap:round;stroke-linejoin:round;stroke-dasharray:3.9662,6.9409;}
	.st51{fill:none;stroke:#C346FF;stroke-width:3.25;stroke-linecap:round;stroke-linejoin:round;stroke-dasharray:3.9662,6.9409;}
	.st52{fill:none;stroke:#C346FF;stroke-width:3.25;stroke-linecap:round;stroke-linejoin:round;stroke-dasharray:3.9779,6.9613;}
	.st53{fill:none;stroke:#C346FF;stroke-width:3.25;stroke-linecap:round;stroke-linejoin:round;stroke-dasharray:4.0381,7.0666;}
	.st54{fill:none;stroke:#C346FF;stroke-width:3.25;stroke-linecap:round;stroke-linejoin:round;stroke-dasharray:3.9985,6.9974;}
	.st55{fill:none;stroke:#C346FF;stroke-width:3.25;stroke-linecap:round;stroke-linejoin:round;stroke-dasharray:4.015,7.0262;}
	.st56{fill:none;stroke:#C346FF;stroke-width:3.25;stroke-linecap:round;stroke-linejoin:round;stroke-dasharray:3.8736,6.7788;}
	.st57{fill:none;stroke:#C346FF;stroke-width:3.25;stroke-linecap:round;stroke-linejoin:round;stroke-dasharray:4.1513,7.2648;}
	.st58{fill:none;stroke:#C346FF;stroke-width:3.25;stroke-linecap:round;stroke-linejoin:round;stroke-dasharray:4.0878,7.1536;}
	.st59{fill:none;stroke:#C346FF;stroke-width:3.25;stroke-linecap:round;stroke-linejoin:round;stroke-dasharray:3.8729,6.7776;}
	.st60{fill:none;stroke:#C346FF;stroke-width:3.25;stroke-linecap:round;stroke-linejoin:round;stroke-dasharray:4.2591,7.4535;}
	.st61{fill:none;stroke:#C346FF;stroke-width:3.25;stroke-linecap:round;stroke-linejoin:round;stroke-dasharray:4.2012,7.3521;}
	.st62{fill:none;stroke:#C346FF;stroke-width:3.25;stroke-linecap:round;stroke-linejoin:round;stroke-dasharray:4.694,8.2145;}
	.st63{fill:none;stroke:#C346FF;stroke-width:3.25;stroke-linecap:round;stroke-linejoin:round;stroke-dasharray:4.0054,7.0095;}
	.st64{fill:none;stroke:#C346FF;stroke-width:3.25;stroke-linecap:round;stroke-linejoin:round;stroke-dasharray:4.0102,7.0179;}
	.st65{fill:none;stroke:#C346FF;stroke-width:3.25;stroke-linecap:round;stroke-linejoin:round;stroke-dasharray:3.4794,6.089;}
	.st66{fill:none;stroke:#C346FF;stroke-width:3.25;stroke-linecap:round;stroke-linejoin:round;stroke-dasharray:3.9884,6.9796;}
	.st67{fill:none;stroke:#000000;stroke-width:3.25;stroke-linecap:round;stroke-linejoin:round;stroke-dasharray:4.0369,7.0646;}
	.st68{fill:none;stroke:#C346FF;stroke-width:3.25;stroke-linecap:round;stroke-linejoin:round;stroke-dasharray:4.0369,7.0646;}
	.st69{fill:none;stroke:#C346FF;stroke-width:3.25;stroke-linecap:round;stroke-linejoin:round;stroke-dasharray:3.9791,6.9634;}
	.st70{fill:none;stroke:#C346FF;stroke-width:3.25;stroke-linecap:round;stroke-linejoin:round;stroke-dasharray:3.9434,6.901;}
	.st71{fill:none;stroke:#C346FF;stroke-width:3.25;stroke-linecap:round;stroke-linejoin:round;stroke-dasharray:3.8002,6.6504;}
	.st72{fill:none;stroke:#C346FF;stroke-width:3.25;stroke-linecap:round;stroke-linejoin:round;stroke-dasharray:4.0686,7.1201;}
	.st73{fill:none;stroke:#C346FF;stroke-width:3.25;stroke-linecap:round;stroke-linejoin:round;stroke-dasharray:4.0092,7.0161;}
	.st74{fill:none;stroke:#C346FF;stroke-width:3.25;stroke-linecap:round;stroke-linejoin:round;stroke-dasharray:4.1001,7.1752;}
	.st75{fill:none;stroke:#C346FF;stroke-width:3.25;stroke-linecap:round;stroke-linejoin:round;stroke-dasharray:4.1805,7.3159;}
	.st76{fill:none;stroke:#C346FF;stroke-width:3.25;stroke-linecap:round;stroke-linejoin:round;stroke-dasharray:4.1225,7.2143;}
	.st77{fill:none;stroke:#C346FF;stroke-width:3.25;stroke-linecap:round;stroke-linejoin:round;stroke-dasharray:4.5985,8.0473;}
	.st78{fill:none;stroke:#C346FF;stroke-width:3.25;stroke-linecap:round;stroke-linejoin:round;stroke-dasharray:4.068,7.119;}
	.st79{fill:none;stroke:#C346FF;stroke-width:3.25;stroke-linecap:round;stroke-linejoin:round;stroke-dasharray:4.028,7.049;}
	.st80{fill:none;stroke:#C346FF;stroke-width:3.25;stroke-linecap:round;stroke-linejoin:round;stroke-dasharray:3.4167,5.9793;}
	.st81{fill:none;stroke:#C346FF;stroke-width:3.25;stroke-linecap:round;stroke-linejoin:round;stroke-dasharray:4.0476,7.0834;}
	.st82{fill:none;stroke:#C346FF;stroke-width:3.25;stroke-linecap:round;stroke-linejoin:round;stroke-dasharray:3.9053,6.8342;}
	.st83{fill:none;stroke:#C346FF;stroke-width:3.25;stroke-linecap:round;stroke-linejoin:round;stroke-dasharray:3.9914,6.985;}
	.st84{fill:none;stroke:#C346FF;stroke-width:3.25;stroke-linecap:round;stroke-linejoin:round;stroke-dasharray:4.0775,7.1357;}
	.st85{fill:none;stroke:#C346FF;stroke-width:3.25;stroke-linecap:round;stroke-linejoin:round;stroke-dasharray:3.9894,6.9815;}
	.st86{fill:none;stroke:#C346FF;stroke-width:3.25;stroke-linecap:round;stroke-linejoin:round;stroke-dasharray:4.0144,7.0252;}
	.st87{fill:none;stroke:#C346FF;stroke-width:3.25;stroke-linecap:round;stroke-linejoin:round;stroke-dasharray:3.9932,6.9881;}
	.st88{fill:none;stroke:#C346FF;stroke-width:3.25;stroke-linecap:round;stroke-linejoin:round;stroke-dasharray:3.9986,6.9975;}
	.st89{fill:none;stroke:#C346FF;stroke-width:3.25;stroke-linecap:round;stroke-linejoin:round;stroke-dasharray:3.9732,6.9532;}
	.st90{fill:none;stroke:#C346FF;stroke-width:3.25;stroke-linecap:round;stroke-linejoin:round;stroke-dasharray:4.0057,7.0099;}
	.st91{fill:none;stroke:#C346FF;stroke-width:3.25;stroke-linecap:round;stroke-linejoin:round;stroke-dasharray:3.9983,6.997;}
	.st92{fill:none;stroke:#C346FF;stroke-width:3.25;stroke-linecap:round;stroke-linejoin:round;stroke-dasharray:4.01,7.0176;}
	.st93{fill:none;stroke:#C346FF;stroke-width:3.25;stroke-linecap:round;stroke-linejoin:round;stroke-dasharray:3.9989,6.9981;}
	.st94{fill:none;stroke:#C346FF;stroke-width:3.25;stroke-linecap:round;stroke-linejoin:round;stroke-dasharray:4.0043,7.0076;}
	.st95{fill:none;stroke:#C346FF;stroke-width:2.75;stroke-linecap:round;stroke-linejoin:round;}
	.st96{fill:none;stroke:#C346FF;stroke-width:2.75;stroke-linecap:round;stroke-linejoin:round;stroke-dasharray:3.827,6.6973;}
	.st97{fill:none;stroke:#C346FF;stroke-width:2.75;stroke-linecap:round;stroke-linejoin:round;stroke-dasharray:3.4553,6.0468;}
	.st98{fill:none;stroke:#C346FF;stroke-width:2.75;stroke-linecap:round;stroke-linejoin:round;stroke-dasharray:3.7378,6.5411;}
	.st99{fill:none;stroke:#C346FF;stroke-width:2.75;stroke-linecap:round;stroke-linejoin:round;stroke-dasharray:4.2102,7.3678;}
	.st100{fill:none;stroke:#C346FF;stroke-width:2.75;stroke-linecap:round;stroke-linejoin:round;stroke-dasharray:3.7142,6.4998;}
	.st101{fill:none;stroke:#C346FF;stroke-width:2.75;stroke-linecap:round;stroke-linejoin:round;stroke-dasharray:3.4961,6.1182;}
	.st102{fill:none;stroke:#C346FF;stroke-width:2.75;stroke-linecap:round;stroke-linejoin:round;stroke-dasharray:4.5312,7.9295;}
	.st103{fill:none;stroke:#000000;stroke-width:1.75;stroke-linecap:round;stroke-linejoin:round;stroke-miterlimit:10;}
	.st104{fill:none;stroke:#C346FF;stroke-width:1.75;stroke-linecap:round;stroke-linejoin:round;stroke-miterlimit:10;}
	.st105{fill:none;stroke:#000000;stroke-width:2.75;stroke-linecap:round;stroke-linejoin:round;stroke-miterlimit:10;}
	.st106{fill:none;stroke:#C346FF;stroke-width:2.75;stroke-linecap:round;stroke-linejoin:round;stroke-miterlimit:10;}
	.st107{fill:none;stroke:#000000;stroke-width:3.5;stroke-linecap:round;stroke-linejoin:round;stroke-miterlimit:10;}
	.st108{fill:none;stroke:#C346FF;stroke-width:3.5;stroke-linecap:round;stroke-linejoin:round;stroke-miterlimit:10;}
</style>
<metadata
   id="metadata4">
	<ns:sfw>
		<ns:slices />
		<ns:sliceSourceBounds
   bottomLeftOrigin="true"
   height="4152"
   width="7622.8"
   x="-1939.8"
   y="2598" />
	</ns:sfw>
<rdf:RDF><cc:Work
     rdf:about=""><dc:format>image/svg+xml</dc:format><dc:type
       rdf:resource="http://purl.org/dc/dcmitype/StillImage" /></cc:Work></rdf:RDF></metadata>


<g
   id="N-TEXT">
</g>


<g
   id="AG-DETAILS">
	<g
   id="g37">
	</g>
</g>

<g
   id="g1049"
   transform="matrix(1.558894,0,0,1.558894,-67.656033,-375.69946)"><path
     style="fill:none;stroke:#c346ff;stroke-width:2.75;stroke-linecap:round;stroke-linejoin:round;stroke-miterlimit:10"
     inkscape:connector-curvature="0"
     id="path76"
     d="m 236.8,159.8 c -1.3,0.7 -1.9,2.4 -2.2,3.7 -0.7,2.5 -1,5.1 -0.8,7.7 0.3,3.9 2.3,6.7 5.4,9 2.5,1.8 5.4,3.1 8.2,4.3 2.7,1.1 5.6,1.9 8.2,3.3 4.2,2.3 6.2,6.9 10.3,9.2 4.4,2.5 10.1,2.3 14.9,1.4 1.8,-0.3 4.3,-0.7 5.6,-2.1 0.7,-0.7 0.5,-1.5 0.3,-2.3 -0.4,-1.7 -0.7,-3.4 -1,-5.1 -1,-5.2 -2.2,-10.9 -6.1,-14.8 -1.8,-1.8 -4,-3.1 -6.2,-4.3 -2.7,-1.4 -5.6,-2.7 -8.5,-3.8 -2.8,-1 -5.8,-1.8 -8.7,-2.1 -2.9,-0.4 -5.9,-0.3 -8.8,-0.8 -1.9,-0.3 -3.5,-1.1 -5.1,-2.1 -1,-0.6 -2.1,-1.2 -3.3,-1.4 -0.8,-0.1 -1.6,-0.1 -2.2,0.2 z"
     class="st106" /><path
     style="fill:none;stroke:#c346ff;stroke-width:2.75;stroke-linecap:round;stroke-linejoin:round;stroke-miterlimit:10"
     inkscape:connector-curvature="0"
     id="path79"
     d="m 194.5,166.1 c 0.6,0.8 0.3,2.3 0.1,3.2 -0.5,2.1 -1.3,4.1 -2.4,5.9 -2,3.5 -4.7,6.3 -8.1,8.3 -4.1,2.5 -8.9,3.8 -13,6.5 -1.9,1.2 -3.5,2.7 -4.9,4.4 -1.5,1.8 -2.7,3.9 -4,5.8 -1.2,1.7 -2.8,3.7 -5,4 -1.4,0.2 -2.4,-0.5 -2.6,-2 -0.3,-2.2 0,-4.5 0,-6.7 0.1,-4.4 0.8,-8.8 3.1,-12.5 2.3,-3.7 5.8,-6.7 9.4,-9.1 3.9,-2.6 8.1,-4.7 12.7,-5.8 2.4,-0.6 4.8,-0.8 7.2,-1.2 2,-0.3 3.9,-1.1 5.9,-1.4 0.3,0 0.5,-0.1 0.8,0 0.2,0.2 0.7,0.6 0.8,0.6 z"
     class="st106" /><path
     style="fill:none;stroke:#c346ff;stroke-width:2.75;stroke-linecap:round;stroke-linejoin:round;stroke-miterlimit:10"
     inkscape:connector-curvature="0"
     id="path82"
     d="m 213.4,85.5 c -1,-5 2,-10.1 6.8,-11.8 4.8,-1.7 10.3,0.4 12.7,4.9 1.3,2.5 1.6,5.4 0.8,8.1 2.5,0 4.3,0.8 6.3,2.2 1,0.7 2.2,0.9 3.3,1.5 1,0.6 1.6,1.6 2.2,2.6 0.8,1.3 1.6,2.5 2.6,3.8 0.9,1.2 0.7,2.7 0.8,4.2 0.1,1.2 0.6,2.3 0.7,3.5 0.1,0.9 -0.1,1.8 -0.4,2.7 -0.3,0.9 -0.6,1.9 -1.2,2.7 -1.1,1.4 -1.9,0.2 -2,-1.1 -0.1,-1.3 0.1,-2.6 -0.1,-3.8 -0.2,-1.3 -0.8,-2.4 -1.4,-3.6 -0.8,-1.4 -1.6,-2.9 -2.8,-4 -1.2,-1.1 -2.7,-1 -4.2,-1.4 -2.1,-0.5 -3.5,-2.2 -5.5,-2.8 -1.1,-0.3 -2.3,0 -3.4,-0.1 -1.2,-0.1 -2.2,-0.3 -3.4,-0.3 -1.5,0 -2.7,0.1 -4.1,-0.3 -1.1,-0.3 -2.3,-0.4 -3.5,-0.3 -1,0 -2,0.2 -2.9,0.6 -1.1,0.5 -2,1.1 -3.3,1.1 -1.7,0 -3.3,-0.3 -5,-0.1 -1.5,0.2 -2.3,1 -3.4,1.9 -1.8,1.5 -4.3,1.8 -6.2,3.2 -1.6,1.1 -2.2,3.1 -3.7,4.2 -1.1,0.8 -2.3,1.4 -3.4,2.3 -0.8,0.6 -1.4,1.4 -1.9,2.3 -0.5,0.8 -0.9,1.6 -1.4,2.4 -0.4,0.6 -0.8,0.9 -1.1,0.1 -0.5,-1.2 -0.5,-2.8 -0.5,-4 0.1,-1.6 0.6,-3 1.6,-4.2 0.9,-1.1 2.1,-2 2.9,-3.2 0.7,-1.1 0.7,-2.4 1.8,-3.2 1.1,-1 2.6,-1.5 3.9,-2.2 1.8,-0.9 3.4,-2.2 5.1,-3.1 1.4,-0.7 3,-1 4.5,-1.4 1.8,-0.5 3.5,-1.4 5.2,-2.1 0.9,-0.9 2.2,-1.1 3.6,-1.3 z"
     class="st106" /><path
     style="fill:none;stroke:#c346ff;stroke-width:2.75;stroke-linecap:round;stroke-linejoin:round;stroke-miterlimit:10"
     inkscape:connector-curvature="0"
     id="path85"
     d="m 234.1,82.8 c 2,0.9 4,2.1 5.7,3.5 1.3,1.1 2,2.3 2.8,3.8"
     class="st106" /><path
     style="fill:none;stroke:#c346ff;stroke-width:2.75;stroke-linecap:round;stroke-linejoin:round;stroke-miterlimit:10"
     inkscape:connector-curvature="0"
     id="path88"
     d="m 193.9,93.3 c 3.7,-4.9 8.1,-8.5 14,-10.3 1.8,-0.5 3.6,-0.9 5.4,-1.3"
     class="st106" /><path
     style="fill:none;stroke:#c346ff;stroke-width:2.75;stroke-linecap:round;stroke-linejoin:round;stroke-miterlimit:10"
     inkscape:connector-curvature="0"
     id="path91"
     d="m 246.4,110.3 c -0.2,4.1 -0.3,8.3 -0.7,12.4 -0.3,3.5 -0.8,6.8 -2.7,9.7 -1,1.5 -2,3.1 -3.2,4.3 -1.4,1.4 -1,-0.8 -0.8,-1.7 0.6,-2.7 2,-5.3 2,-8.1 0,-1.8 -0.5,-3.5 -0.6,-5.3 -0.2,-1.8 0,-3.6 -0.2,-5.3 -0.2,-2 -1.5,-3.4 -2.1,-5.3 -0.3,-1.1 -0.3,-2.8 -1.3,-3.5 -0.9,-0.6 -2.3,-0.3 -3.3,-0.2 -1.2,0.1 -2.4,0.2 -3.6,0.1 -1.2,-0.2 -2.4,-0.5 -3.6,-0.4 -3.2,0.1 -6.2,1.8 -9,3.1 -2,0.9 -4.4,1.9 -6.6,1.4 -1.9,-0.5 -3.9,-2.4 -5.4,-0.4 -0.9,1.1 -1.4,2.6 -2,3.9 -0.6,1.2 -1.2,2.5 -1.5,3.8 -0.3,1.2 -0.2,2.5 -0.3,3.7 -0.1,1.2 -0.6,2.1 -1.1,3.2 -1,2 -1.1,4 -0.9,6.3 0.3,4.2 1,8.3 1.6,12.5 0.3,1.9 0.5,3.8 0.6,5.8 0,0.7 0.2,2.8 -0.7,3.1 -0.9,0.4 -1.9,-1.3 -2.3,-1.8 -1,-1.5 -1.8,-3.2 -2.6,-4.9 -1.8,-3.8 -3.6,-7.6 -5.3,-11.4 -1.6,-3.6 -3.4,-7.3 -4.2,-11.1 -0.6,-3 0.1,-5.9 0.1,-8.9 0,-1.9 -0.1,-3.8 -0.3,-5.6"
     class="st106" /><path
     style="fill:none;stroke:#c346ff;stroke-width:2.75;stroke-linecap:round;stroke-linejoin:round;stroke-miterlimit:10"
     inkscape:connector-curvature="0"
     id="path94"
     d="m 238.8,136.8 c -0.6,2.1 -1.4,4.1 -1.9,6.2 -0.4,1.7 -0.6,3.6 -1.2,5.3 -1,2.7 -3.2,4.7 -5.6,6.2 -2.9,1.8 -6.3,2.8 -9.8,2.7 -3.7,-0.1 -7.3,-1.3 -10.5,-3.2 -3.2,-1.9 -6,-4.5 -8.1,-7.7 -0.3,-0.4 -0.6,-0.9 -0.8,-1.3"
     class="st106" /><path
     style="fill:none;stroke:#c346ff;stroke-width:2.75;stroke-linecap:round;stroke-linejoin:round;stroke-miterlimit:10"
     inkscape:connector-curvature="0"
     id="path97"
     d="m 236.8,159.8 c 0.7,-2.4 0.7,-5.2 -0.5,-7.6 -0.4,-0.9 -1.1,-1.3 -1.9,-1.7"
     class="st106" /><path
     style="fill:none;stroke:#c346ff;stroke-width:2.75;stroke-linecap:round;stroke-linejoin:round;stroke-miterlimit:10"
     inkscape:connector-curvature="0"
     id="path100"
     d="m 220.2,157.2 c -1.9,-0.4 -3.9,-0.1 -5.7,0.5 -1.1,0.4 -2,0.8 -2.6,1.8 -0.7,1.2 -1.1,2.7 -1.6,4 -0.3,0.7 -0.8,2.2 -1.3,0.8 -0.3,-1.1 -0.5,-2.2 -1,-3.3 -0.9,-2 -2.5,-2.4 -4.2,-3.4 -1,-0.6 -1.4,-1.5 -1.8,-2.6 -0.4,-1.1 -0.7,-2.2 -0.7,-3.4"
     class="st106" /><path
     style="fill:none;stroke:#c346ff;stroke-width:2.75;stroke-linecap:round;stroke-linejoin:round;stroke-miterlimit:10"
     inkscape:connector-curvature="0"
     id="path103"
     d="m 201.7,153.8 c -1,0.6 -2.3,0.6 -3.3,1.2 -0.9,0.6 -1.2,1.6 -1.3,2.6 -0.1,1.3 0.2,2.6 0.4,3.9 0.1,0.9 0.3,1.9 0,2.8 -0.5,1.1 -1.8,1.6 -3,1.8"
     class="st106" /><path
     style="fill:none;stroke:#c346ff;stroke-width:2.75;stroke-linecap:round;stroke-linejoin:round;stroke-miterlimit:10"
     inkscape:connector-curvature="0"
     id="path106"
     d="m 285,197.2 c 1.5,4.4 3,8.9 4.4,13.3 1.3,4.2 2.6,8.3 3.8,12.5 1.2,3.9 2.3,7.9 3.4,11.8 1.2,4.4 2.4,8.8 3.4,13.2 1,4.3 2,8.6 2.6,13 0.4,3.1 0.7,6.4 -0.2,9.5 -1.1,3.7 -3.6,6.9 -5.7,10 -2.4,3.5 -4.8,7 -7.4,10.4 -2.6,3.4 -5.3,6.8 -8.2,9.9 -2.9,3.2 -6,6.3 -9.2,9.3 -0.7,0.7 -1.5,1.4 -2.2,2.1"
     class="st106" /><path
     style="fill:none;stroke:#c346ff;stroke-width:2.75;stroke-linecap:round;stroke-linejoin:round;stroke-miterlimit:10"
     inkscape:connector-curvature="0"
     id="path109"
     d="m 178.3,299.2 c -2.7,-1.6 -5.2,-3.2 -7.3,-5.7 -2,-2.3 -3.8,-4.9 -5.5,-7.5 -2.1,-3.1 -4.3,-6.3 -6.3,-9.5 -1.4,-2.2 -2.5,-4.6 -3,-7.2 -0.6,-3.1 -0.6,-6.3 -0.5,-9.5 0,-4 0.1,-7.9 0.1,-11.9 0.1,-7 0.4,-14 0.7,-21 0.3,-7 0.9,-13.9 1.5,-20.9 0.1,-0.7 0.1,-1.4 0.2,-2.2"
     class="st106" /><path
     style="fill:none;stroke:#c346ff;stroke-width:2.75;stroke-linecap:round;stroke-linejoin:round;stroke-miterlimit:10"
     inkscape:connector-curvature="0"
     id="path112"
     d="m 167.3,212.4 c -0.2,4.7 0.1,9.5 0.9,14.2 0.8,4.5 2.1,8.9 3.9,13.1 0.9,2.2 2,4.4 3.2,6.6 1.1,2 2.5,3.8 3.7,5.8 1.8,3.2 1.5,6.2 1,9.7 -0.3,1.9 -0.6,3.9 -0.3,5.9 0.2,1.4 0.7,2.7 1.3,4 0.9,1.8 1.9,3.6 2.4,5.6 0.4,1.8 0.5,3.7 0.3,5.6 -0.4,4.3 -1.5,8.7 -3.1,12.7 -1.4,3.5 -4.4,5.7 -6.2,8.9 -1.9,3.4 -1.9,7.3 -1.9,11.1 0,4.6 0.1,9.1 -1,13.5 -1.2,4.7 -3.2,9.2 -4.9,13.7 -1.7,4.6 -3.1,9.3 -4.5,14.1 -1.5,5.3 -2.9,10.7 -4.4,16 -1.3,4.8 -2.6,9.7 -3.9,14.5 -1.2,4.6 -2.4,9.2 -3.5,13.8 -1.2,5 -2.3,10.1 -3.4,15.2 -1,4.9 -1.9,9.9 -2.7,14.8 -0.7,4.7 -1.4,9.4 -2,14.1 -0.4,3.4 -0.8,6.7 -1.3,10.1 -0.9,7 -1.8,13.9 -2.6,20.9 -0.9,7.1 -1.8,14.1 -2.7,21.2 -0.5,3.6 -0.9,7.3 -1.4,10.9 -0.6,4.6 -1.2,9.3 -1.7,13.9 -0.5,5.1 -1,10.2 -1.4,15.4 -0.3,4.2 -0.6,8.3 -0.9,12.5 -0.2,4.4 -0.5,8.9 -0.7,13.3 -0.4,7.4 -0.8,14.8 -1.2,22.2 -0.3,5.8 -0.6,11.5 -0.9,17.3 -0.2,3.3 -0.4,6.7 -0.6,10 -0.3,5.3 -0.6,10.6 -1.1,15.9 -0.4,4.9 -0.8,9.8 -1.7,14.6 -0.8,4.4 -1.8,8.9 -1.2,13.4 0.3,2.2 0.9,4.4 2.7,5.9 2.4,2 5.9,2.3 8.9,2.6 4.8,0.5 9.6,0.9 14.4,1.5 5.3,0.7 10.6,1.4 16,2 5.1,0.5 10.3,0.9 15.4,1.2 4.7,0.3 9.3,0.4 14,0.5 5.7,0.1 11.3,0.2 17,0.2 5.1,0.1 10.2,0 15.4,0 3.7,0 7.4,0 11.2,-0.1 7.1,-0.1 14.2,-0.2 21.3,-0.3 3,0 5.9,-0.1 8.9,-0.2 7,-0.2 13.9,-0.4 20.9,-0.6 3.8,-0.1 7.7,-0.2 11.5,-0.3 5.7,-0.2 11.4,-0.5 17.1,-0.8 4.9,-0.2 9.8,-0.6 14.7,-1 4.8,-0.4 9.7,-1 14.4,-2 4.7,-1 9.3,-2.3 13.8,-3.9 4.5,-1.5 9.2,-3.2 13.3,-5.7 1.3,-0.8 2.9,-1.8 3.6,-3.2 0.6,-1.1 0.3,-2.3 -0.2,-3.5 -1.8,-4.7 -3.5,-9.5 -4.8,-14.4 -1.3,-5 -2.5,-10 -3.8,-15.1 -1.2,-4.7 -2.5,-9.3 -4,-13.9 -1.6,-5 -3.3,-9.9 -5.1,-14.9 -1.2,-3.3 -2.3,-6.5 -3.5,-9.8 -2.4,-6.5 -4.7,-12.9 -7.1,-19.4 -2.2,-5.9 -4.4,-11.9 -6.5,-17.8 -1.2,-3.3 -2.4,-6.6 -3.5,-9.9 -1.6,-4.8 -3.2,-9.6 -4.7,-14.4 -1.4,-4.9 -2.8,-9.8 -4,-14.7 -1.3,-5.5 -2.6,-11 -3.8,-16.4 -1,-4.4 -2.1,-8.8 -3.4,-13.2 -1.4,-4.9 -3,-9.8 -4.6,-14.6 -1.3,-3.7 -2.6,-7.4 -3.9,-11.1 -2.3,-6.5 -4.7,-13 -7,-19.5 -1.5,-4 -2.9,-8.1 -4.3,-12.2 -1.7,-4.9 -3.3,-9.9 -4.8,-14.9 -1.5,-4.8 -2.9,-9.7 -4.3,-14.5 -1.5,-4.9 -2.9,-9.9 -4.4,-14.8 -1.4,-4.4 -2.8,-8.7 -4.5,-12.9 -1.9,-4.9 -4,-9.9 -5.7,-14.9 -1.7,-5 -2.8,-10.1 -4,-15.2 -1.1,-4.5 -2.4,-9 -3.9,-13.3 -1.7,-4.7 -3.7,-9.3 -6,-13.8 -2.1,-4.1 -4.4,-8.2 -7.4,-11.7 -2.5,-2.9 -4.5,-5.8 -5.2,-9.6 -0.8,-4.2 0.6,-8 2.1,-11.9 1.2,-2.9 2.5,-5.9 1.8,-9.1 -0.4,-1.8 -1.3,-3.4 -1.9,-5.2 -0.4,-1.4 -0.4,-2.8 0.7,-3.8 0.9,-0.9 1.9,-1.5 2.3,-2.8 0.6,-1.6 0.6,-3.5 0.8,-5.2 0.6,-4.6 1.4,-9.3 2.1,-13.9"
     class="st106" /><path
     style="fill:none;stroke:#c346ff;stroke-width:2.75;stroke-linecap:round;stroke-linejoin:round;stroke-miterlimit:10"
     inkscape:connector-curvature="0"
     id="path115"
     d="m 261.1,230.3 c 0.7,2.9 1.3,5.8 2.4,8.6 1.1,2.8 2.5,5.4 3.9,8 1.4,2.5 2.5,5.2 4.1,7.6 0.4,0.5 0.7,1 1.2,1.4 0.7,0.6 1.8,1.2 2.2,2 0.6,1.4 -0.9,2.8 -0.7,4.3 0.2,1.6 2.4,2.2 2.4,3.8 0,1.4 -1.7,2.7 -2.6,3.6 -1.9,1.7 -3.2,3.6 -4.4,5.9 -3,5.3 -5.5,10.9 -8.6,16.1 -0.4,0.7 -0.8,1.3 -1.2,2"
     class="st106" /><path
     style="fill:none;stroke:#c346ff;stroke-width:2.75;stroke-linecap:round;stroke-linejoin:round;stroke-miterlimit:10"
     inkscape:connector-curvature="0"
     id="path118"
     d="m 254.5,187.3 c -1.1,0.7 -2,1.9 -2.8,2.9 -1.3,1.7 -2.6,3.5 -4,5.1 -2.7,3.3 -5.7,6.3 -9,9 -3.4,2.7 -7,5.2 -10.7,7.4 -3.6,2.2 -7.4,4.3 -11.1,6.3 -3.8,2 -7.7,3.8 -11.9,4.5 -3.7,0.7 -7.6,0.5 -11.3,-0.2 -3.7,-0.6 -7.4,-1.7 -10.6,-3.5 -3.3,-1.8 -6.2,-4.5 -8.3,-7.6 -1.6,-2.4 -2.2,-5 -2.4,-7.9 -0.2,-4.3 0.2,-8.6 0.8,-12.9 0.1,-0.5 0.2,-1.2 0,-1.7"
     class="st106" /><path
     style="fill:none;stroke:#c346ff;stroke-width:2.75;stroke-linecap:round;stroke-linejoin:round;stroke-miterlimit:10"
     inkscape:connector-curvature="0"
     id="path121"
     d="m 169.7,191.1 c -0.4,1 -0.5,2.2 -0.7,3.3 -0.3,1.5 -0.6,3.1 -0.9,4.6 -0.6,2.7 -1.4,5.3 -1.7,8 -0.2,1.4 -0.3,3.8 0.5,5 0.9,1.3 1.7,-2.1 1.8,-2.8 0.2,-1.5 0.3,-3.1 0.6,-4.6 0.1,-0.8 0.3,-1.5 0.4,-2.2 0.1,-0.4 0.2,-1.1 0.4,-1.4 0.2,1.4 -0.1,3 -0.1,4.5 0,0.9 0.1,1.8 0.3,2.7 0.6,2.4 2,4.7 3.4,6.8 3.4,5.1 9,7.7 14.7,9.4 6.3,1.9 12.8,2.7 19.2,0.8 3.3,-1 6.4,-2.4 9.5,-3.8 3.3,-1.5 6.5,-3 9.6,-4.8 5.9,-3.3 11.7,-7.2 16.7,-11.8 2.4,-2.2 4.5,-4.6 6.5,-7.2 0.4,-0.5 1.6,-2.7 2.5,-2 0.5,0.4 0.7,1.4 0.9,2.1 0.3,1.3 0.4,2.7 0.6,4 0.2,1.6 0.6,3.1 1,4.7 0.8,3.5 1.8,6.9 2.4,10.5 0.5,3.3 0.8,6.6 1.6,9.8 0.2,1 0.5,2.1 1.2,2.9 0.7,0.9 1.8,0.8 2.1,-0.4 0.2,-0.9 -0.1,-2 -0.3,-2.9 -0.4,-1.6 -0.7,-3.2 -1,-4.8 -0.3,-1.8 -0.5,-3.5 -0.9,-5.3 -0.4,-1.6 -0.9,-3.2 -1.2,-4.8 -1.5,-6.7 -1.7,-13.5 -2.1,-20.2 -0.1,-1 -0.1,-2 -0.4,-2.9"
     class="st106" /><g
     id="POLYLINE_2_">
		<path
   class="st108"
   d="m 178.3,299.2 c -2.3,2.8 -4.7,5.3 -5.4,9 -0.9,4.7 -0.3,9.5 -0.5,14.2 -0.2,4.3 -1.4,8.4 -2.8,12.4 -1.7,4.6 -3.5,9.2 -5,14 -1.3,4.3 -2.6,8.5 -3.8,12.9 -1.6,5.8 -3.1,11.5 -4.7,17.3 -1.2,4.4 -2.3,8.8 -3.5,13.2 -1.3,5.1 -2.6,10.1 -3.7,15.2 -1.1,5.1 -2.2,10.2 -3.2,15.4 -0.9,5.1 -1.7,10.1 -2.4,15.2 -0.5,3.2 -0.9,6.5 -1.3,9.7 -0.7,5.5 -1.4,11 -2.1,16.5 -0.9,7.4 -1.9,14.9 -2.8,22.3 -0.7,5.9 -1.5,11.8 -2.2,17.7 -0.4,3.4 -0.8,6.7 -1.3,10.1 -0.6,4.8 -1.1,9.5 -1.5,14.3 -0.5,5.3 -0.9,10.6 -1.2,15.8 -0.2,3.2 -0.4,6.5 -0.6,9.7 -0.4,6.5 -0.7,12.9 -1.1,19.4 -0.4,7.2 -0.8,14.4 -1.2,21.6 -0.2,3.3 -0.3,6.6 -0.5,9.9 -0.3,5.8 -0.7,11.7 -1.1,17.5 -0.3,4.4 -0.6,8.8 -1.1,13.2 -0.5,4.8 -1.6,9.5 -2.2,14.2 -0.4,3.4 -0.6,7.3 1,10.4 0.8,1.7 2.3,2.8 4,3.4 4.3,1.6 9.2,1.4 13.7,1.9 5.4,0.6 10.8,1.4 16.3,2.1 4.6,0.6 9.2,1.1 13.8,1.4 5,0.4 10,0.7 15,0.8 4.8,0.2 9.7,0.3 14.5,0.4 5,0 10,0.1 15,0.1 4.9,0 9.7,0 14.6,0 6,-0.1 12.1,-0.1 18.1,-0.2 5.1,-0.1 10.2,-0.1 15.3,-0.2 4.6,-0.1 9.1,-0.2 13.7,-0.4 6.2,-0.2 12.5,-0.3 18.7,-0.5 4.8,-0.1 9.5,-0.4 14.3,-0.6 4.5,-0.2 9.1,-0.4 13.6,-0.7 5,-0.3 10.1,-0.7 15.1,-1.4 4.8,-0.6 9.5,-1.6 14.1,-2.9 4.8,-1.4 9.5,-2.9 14.1,-4.9 2.1,-0.9 4.2,-1.9 6.2,-3.1 1.3,-0.8 2.9,-1.9 3.5,-3.3 0.5,-1.2 0,-2.4 -0.4,-3.6 -0.9,-2.4 -1.8,-4.8 -2.6,-7.2 -1.6,-4.8 -2.8,-9.7 -4,-14.6 -1.2,-4.9 -2.4,-9.8 -3.8,-14.6 -1.5,-5 -3.1,-10 -4.8,-15 -1.3,-3.9 -2.7,-7.7 -4.1,-11.5 -1.7,-4.7 -3.5,-9.5 -5.2,-14.2 -2.5,-6.9 -5.1,-13.8 -7.6,-20.8 -1.2,-3.4 -2.5,-6.7 -3.7,-10.1 -1.8,-5.1 -3.5,-10.2 -5.2,-15.3 -1.5,-4.7 -2.9,-9.4 -4.2,-14.2 -1.2,-4.4 -2.2,-8.8 -3.2,-13.2 -1.2,-5.3 -2.4,-10.6 -3.7,-15.8 -1.3,-5 -2.7,-10 -4.3,-15 -1.6,-4.9 -3.3,-9.8 -5,-14.6 -1.5,-4.4 -3.1,-8.7 -4.7,-13.1 -2.1,-5.8 -4.2,-11.6 -6.3,-17.4 -1.5,-4.2 -2.9,-8.5 -4.3,-12.8 -1.3,-4 -2.5,-8 -3.7,-12 -1.9,-6.3 -3.7,-12.6 -5.6,-18.9 -1.3,-4.3 -2.6,-8.5 -4.1,-12.7 -1.8,-5 -3.8,-9.9 -5.7,-14.8 -1.6,-4.1 -2.9,-8.2 -4,-12.4 -1.2,-5.1 -2.4,-10.2 -3.9,-15.2 -0.7,-2.4 -1.5,-4.8 -2.4,-7.2 -0.4,-1.1 -0.8,-2.2 -1.3,-3.3 -0.3,-0.8 -0.2,-0.8 0.5,-1.3 0.5,-0.4 1,-0.9 1.5,-1.3 3.6,-3.3 7,-6.8 10.3,-10.5 3.3,-3.8 6.4,-7.7 9.4,-11.8 2.9,-3.9 5.7,-8 8.3,-12.1 1.9,-3.1 3.2,-6 3.2,-9.7 0,-4.7 -1.1,-9.5 -2.1,-14.1 -1,-4.7 -2.2,-9.3 -3.5,-14 -1.3,-4.9 -2.7,-9.7 -4.1,-14.6 -1.5,-4.9 -2.9,-9.8 -4.5,-14.6 -0.8,-2.5 -1.6,-5 -2.5,-7.5 -0.3,-0.9 -0.6,-1.7 -0.9,-2.6 -0.1,-0.3 -0.7,-1.3 -0.6,-1.7 0.1,-0.4 1.3,-0.7 1.6,-1.2 0.4,-0.5 0.2,-1.2 0.1,-1.8 -0.2,-1.3 -0.5,-2.5 -0.8,-3.8 -0.4,-2.3 -0.9,-4.6 -1.5,-6.9 -1.1,-4.2 -2.9,-8 -6.4,-10.8 -3.4,-2.8 -7.7,-4.7 -11.8,-6.3 -4.5,-1.7 -9,-2.7 -13.8,-3 -2.1,-0.2 -4.4,-0.2 -6.4,-0.7 -1.5,-0.4 -2.8,-1.2 -4.1,-2 -1.5,-0.9 -3.5,-1.8 -5.2,-1 0.2,-0.1 0.4,-1.6 0.4,-1.9 0.1,-0.6 0.1,-1.2 0,-1.7 -0.1,-1.3 -0.3,-2.7 -0.9,-3.9 -0.4,-0.9 -1.1,-1.3 -1.9,-1.7 2.1,-2.8 2.1,-6.5 3.1,-9.7 0.4,-1.4 0.9,-2.7 1.3,-4.1 0.1,0.9 0.9,0 1.2,-0.3 0.6,-0.7 1.2,-1.5 1.7,-2.2 1,-1.5 2.1,-2.9 2.7,-4.6 1.4,-3.6 1.3,-7.8 1.5,-11.6 0.1,-2.6 0.3,-5.2 0.4,-7.7 2,1.1 3.1,-5.3 2.9,-6.4 -0.1,-0.8 -0.5,-1.5 -0.6,-2.3 -0.1,-1 0,-2 -0.1,-2.9 -0.2,-1.7 -1.5,-2.7 -2.3,-4 -0.9,-1.4 -1.6,-3.3 -3.1,-4.2 -0.4,-0.2 -0.5,-0.2 -0.8,-0.6 -0.3,-0.4 -0.5,-0.9 -0.8,-1.4 -0.4,-0.7 -0.9,-1.3 -1.5,-1.8 -0.9,-0.8 -1.9,-1.5 -2.9,-2.2 -0.6,-0.4 -1.2,-0.7 -1.9,-1.1 -0.3,-0.1 -0.5,-0.2 -0.8,-0.4 -0.4,-0.2 -0.3,-0.2 -0.5,-0.6 -0.3,-1 -0.3,-1.9 -0.7,-2.9 -0.4,-0.9 -0.8,-1.7 -1.4,-2.4 -2.1,-2.7 -5.4,-4.2 -8.8,-4.1 -3.5,0.2 -6.8,2.1 -8.5,5.1 -0.5,0.9 -0.9,1.8 -1.1,2.8 0,0.2 -0.1,0.5 -0.2,0.7 -0.2,0.2 -0.8,0.2 -1,0.2 -0.7,0.2 -1.5,0.3 -2.2,0.5 -2.7,0.7 -5.4,1.6 -7.9,3.1 -2,1.2 -3.7,2.6 -5.3,4.3 -0.8,0.9 -1.6,1.7 -2.3,2.7 -0.5,0.6 -0.8,0.9 -1.5,1.3 -0.5,0.3 -1,0.5 -1.5,0.8 -0.9,0.5 -1.6,1.1 -2,2 -0.3,0.7 -0.4,1.4 -0.9,2 -1,1.4 -2.4,2.4 -3.3,3.8 -1.3,2.1 -1.4,5 -0.7,7.3 0.4,1.2 0.9,0.6 1.4,-0.2 0.3,3.6 0.3,7 0,10.6 -0.3,2.7 0.5,5.3 1.4,7.8 1.3,3.5 2.9,6.9 4.5,10.4 1.6,3.6 3.2,7.2 5,10.7 0.6,1.2 1.3,2.5 2.2,3.6 0.3,0.4 1,1.1 1.5,0.7 0.4,-0.3 0.5,-1 0.5,-1.4 0,0.5 0.1,0.9 0.2,1.4 0,0.1 0.2,0.5 0.2,0.6 -0.1,0.1 -0.6,0.2 -0.8,0.3 -1.1,0.4 -2.5,0.5 -3.2,1.5 -1.3,1.9 -0.3,4.9 -0.1,6.9 0.1,1 0,2 -0.7,2.7 -0.5,0.4 -1.1,0.7 -1.7,0.9 -0.6,0.2 -0.6,0 -1.1,-0.2 -0.8,-0.3 -1.9,0.1 -2.7,0.3 -1.6,0.4 -3.2,0.8 -4.8,1.1 -3.5,0.5 -6.9,1 -10.2,2.2 -3.2,1.1 -6.2,2.7 -9,4.6 -5,3.3 -9.8,7.8 -11.6,13.7 -1.1,3.6 -1.1,7.3 -1.1,11 0,1.6 -0.7,5.3 1.7,5.7 0.6,0.1 1.3,0 1.9,-0.2 -0.6,7.3 -1.2,14.5 -1.6,21.8 -0.4,7 -0.6,14.1 -0.7,21.1 -0.1,3.7 -0.1,7.4 -0.1,11.1 0,3 -0.1,6.1 0.2,9.1 0.6,6.2 4.4,11.1 7.8,16.1 3.5,5.3 7,11.2 12.5,14.6 0.9,0.6 1.6,1 2.3,1.4 z"
   id="path128"
   inkscape:connector-curvature="0"
   style="fill:none;stroke:#0000ff;stroke-width:3.5;stroke-linecap:round;stroke-linejoin:round;stroke-miterlimit:10" />
	</g></g>
</svg>