<?xml version="1.0" encoding="UTF-8" standalone="no"?>
<!-- Generator: Adobe Illustrator 23.0.3, SVG Export Plug-In . SVG Version: 6.00 Build 0)  -->

<svg
   xmlns:ns="&amp;ns_sfw;"
   xmlns:dc="http://purl.org/dc/elements/1.1/"
   xmlns:cc="http://creativecommons.org/ns#"
   xmlns:rdf="http://www.w3.org/1999/02/22-rdf-syntax-ns#"
   xmlns:svg="http://www.w3.org/2000/svg"
   xmlns="http://www.w3.org/2000/svg"
   xmlns:sodipodi="http://sodipodi.sourceforge.net/DTD/sodipodi-0.dtd"
   xmlns:inkscape="http://www.inkscape.org/namespaces/inkscape"
   version="1.1"
   x="0px"
   y="0px"
   viewBox="0 0 793.7008 1122.5197"
   enable-background="new 0 0 750 700"
   xml:space="preserve"
   id="svg241"
   sodipodi:docname="Daenerys-Targaryen-Standing .svg"
   width="210mm"
   height="297mm"
   inkscape:version="0.92.4 (5da689c313, 2019-01-14)"><defs
   id="defs245">
	
	

	
	
	
	
	
	
	
	
	
	
	
	
	
	
	
	
	
	
	
	
	
	
	
	
	
	
	
	
	
	
	
	
	
	
	
	
	
	
	
	
	
	
	
	
	
	
	
	
	
	
	
	
	
	
	
	
</defs><sodipodi:namedview
   pagecolor="#ffffff"
   bordercolor="#666666"
   borderopacity="1"
   objecttolerance="10"
   gridtolerance="10"
   guidetolerance="10"
   inkscape:pageopacity="0"
   inkscape:pageshadow="2"
   inkscape:window-width="1920"
   inkscape:window-height="1018"
   id="namedview243"
   showgrid="false"
   units="mm"
   inkscape:zoom="0.476792"
   inkscape:cx="629.07716"
   inkscape:cy="68.960157"
   inkscape:window-x="-8"
   inkscape:window-y="-8"
   inkscape:window-maximized="1"
   inkscape:current-layer="svg241" />
<metadata
   id="metadata2">
	<ns:sfw>
		<ns:slices />
		<ns:sliceSourceBounds
   bottomLeftOrigin="true"
   height="3850"
   width="9389.062"
   x="-3544.062"
   y="1000" />
	</ns:sfw>
<rdf:RDF><cc:Work
     rdf:about=""><dc:format>image/svg+xml</dc:format><dc:type
       rdf:resource="http://purl.org/dc/dcmitype/StillImage" /><dc:title></dc:title></cc:Work></rdf:RDF></metadata>

<g
   id="N-DIMENSIONS"
   transform="translate(-204.49169,351.20976)">
	<g
   id="g27">
		<path
   d="m 108.794,77.646 c -0.733,-0.36 -1.293,-0.83 -1.68,-1.41 -0.387,-0.58 -0.594,-1.203 -0.62,-1.87 v -0.04 c 0,-0.106 0.04,-0.193 0.12,-0.26 0.08,-0.067 0.173,-0.1 0.28,-0.1 h 0.979 c 0.28,0 0.46,0.146 0.54,0.439 0.2,0.72 0.57,1.257 1.11,1.61 0.54,0.353 1.163,0.529 1.87,0.529 0.906,0 1.66,-0.276 2.26,-0.829 0.6,-0.554 0.9,-1.317 0.9,-2.29 0,-0.894 -0.301,-1.604 -0.9,-2.131 -0.6,-0.526 -1.354,-0.79 -2.26,-0.79 -0.48,0 -0.867,0.061 -1.16,0.181 -0.294,0.12 -0.594,0.293 -0.9,0.52 -0.173,0.134 -0.316,0.23 -0.43,0.29 -0.113,0.061 -0.237,0.09 -0.37,0.09 h -0.96 c -0.12,0 -0.227,-0.043 -0.32,-0.13 -0.093,-0.086 -0.133,-0.189 -0.12,-0.31 l 0.62,-6.66 c 0.04,-0.333 0.207,-0.5 0.5,-0.5 h 6.92 c 0.146,0 0.261,0.04 0.341,0.12 0.079,0.08 0.119,0.193 0.119,0.34 v 0.74 c 0,0.133 -0.043,0.24 -0.13,0.319 -0.087,0.08 -0.196,0.12 -0.33,0.12 h -5.76 l -0.359,4.021 c 0.64,-0.453 1.5,-0.68 2.579,-0.68 0.894,0 1.707,0.177 2.44,0.529 0.733,0.354 1.316,0.87 1.75,1.55 0.434,0.681 0.65,1.487 0.65,2.421 0,0.986 -0.217,1.836 -0.65,2.55 -0.434,0.713 -1.033,1.253 -1.8,1.62 -0.767,0.366 -1.644,0.55 -2.63,0.55 -0.998,0.001 -1.866,-0.18 -2.599,-0.539 z"
   id="path7"
   inkscape:connector-curvature="0"
   style="fill:#c346ff" />
		<path
   d="m 118.634,67.476 c -0.053,-0.073 -0.073,-0.177 -0.06,-0.311 l 0.439,-2.8 c 0.054,-0.387 0.24,-0.58 0.561,-0.58 h 1.28 c 0.093,0 0.17,0.033 0.229,0.101 0.061,0.066 0.09,0.146 0.09,0.239 0,0.134 -0.02,0.24 -0.06,0.32 l -1.04,2.7 c -0.067,0.146 -0.141,0.257 -0.22,0.33 -0.08,0.073 -0.2,0.109 -0.36,0.109 h -0.62 c -0.105,10e-4 -0.185,-0.035 -0.239,-0.108 z"
   id="path9"
   inkscape:connector-curvature="0"
   style="fill:#c346ff" />
		<path
   d="m 123.064,77.855 c -0.087,-0.087 -0.13,-0.196 -0.13,-0.33 v -0.6 c 0,-0.307 0.166,-0.601 0.5,-0.881 l 4.359,-4.34 c 0.986,-0.84 1.667,-1.526 2.04,-2.06 0.373,-0.534 0.561,-1.101 0.561,-1.7 0,-0.786 -0.221,-1.403 -0.66,-1.85 -0.44,-0.447 -1.08,-0.67 -1.92,-0.67 -0.801,0 -1.434,0.233 -1.9,0.699 -0.467,0.467 -0.753,1.094 -0.86,1.88 -0.026,0.147 -0.093,0.261 -0.199,0.341 -0.107,0.08 -0.214,0.12 -0.32,0.12 h -0.96 c -0.12,0 -0.22,-0.04 -0.3,-0.12 -0.08,-0.08 -0.12,-0.174 -0.12,-0.28 0.026,-0.707 0.217,-1.39 0.569,-2.05 0.354,-0.66 0.877,-1.2 1.57,-1.62 0.693,-0.42 1.533,-0.63 2.521,-0.63 1.493,0 2.616,0.39 3.37,1.17 0.753,0.78 1.13,1.77 1.13,2.97 0,0.84 -0.204,1.597 -0.61,2.271 -0.407,0.673 -1.043,1.383 -1.91,2.13 l -3.939,4 h 6.3 c 0.146,0 0.26,0.04 0.34,0.12 0.08,0.079 0.12,0.193 0.12,0.34 v 0.76 c 0,0.134 -0.044,0.243 -0.13,0.33 -0.087,0.087 -0.197,0.13 -0.33,0.13 h -8.76 c -0.135,0 -0.246,-0.043 -0.332,-0.13 z"
   id="path11"
   inkscape:connector-curvature="0"
   style="fill:#c346ff" />
		<path
   d="m 134.844,67.466 c -0.06,-0.08 -0.077,-0.181 -0.05,-0.301 l 0.439,-2.8 c 0.054,-0.387 0.24,-0.58 0.561,-0.58 h 1.28 c 0.093,0 0.17,0.033 0.229,0.101 0.061,0.066 0.09,0.146 0.09,0.239 0,0.134 -0.02,0.24 -0.06,0.32 l -1.04,2.7 c -0.067,0.146 -0.141,0.257 -0.22,0.33 -0.08,0.073 -0.2,0.109 -0.36,0.109 h -0.62 c -0.106,10e-4 -0.19,-0.039 -0.249,-0.118 z m 3.139,0 c -0.06,-0.08 -0.076,-0.181 -0.05,-0.301 l 0.44,-2.8 c 0.053,-0.387 0.24,-0.58 0.56,-0.58 h 1.28 c 0.093,0 0.17,0.033 0.229,0.101 0.061,0.066 0.091,0.146 0.091,0.239 0,0.134 -0.021,0.24 -0.061,0.32 l -1.04,2.7 c -0.066,0.146 -0.14,0.257 -0.22,0.33 -0.08,0.073 -0.2,0.109 -0.36,0.109 h -0.62 c -0.105,10e-4 -0.188,-0.039 -0.249,-0.118 z"
   id="path13"
   inkscape:connector-curvature="0"
   style="fill:#c346ff" />
		<path
   d="m 147.854,82.016 c -0.08,-0.087 -0.12,-0.197 -0.12,-0.33 v -21.16 c 0,-0.133 0.04,-0.243 0.12,-0.33 0.08,-0.087 0.187,-0.13 0.32,-0.13 h 0.739 c 0.134,0 0.243,0.043 0.33,0.13 0.087,0.087 0.13,0.197 0.13,0.33 v 21.16 c 0,0.133 -0.043,0.243 -0.13,0.33 -0.087,0.086 -0.196,0.13 -0.33,0.13 h -0.739 c -0.134,0 -0.24,-0.044 -0.32,-0.13 z"
   id="path15"
   inkscape:connector-curvature="0"
   style="fill:#c346ff" />
		<path
   d="m 160.973,77.855 c -0.08,-0.087 -0.12,-0.196 -0.12,-0.33 v -11.28 l -3.36,2.58 c -0.093,0.08 -0.193,0.12 -0.3,0.12 -0.12,0 -0.233,-0.066 -0.34,-0.2 l -0.48,-0.62 c -0.066,-0.093 -0.1,-0.187 -0.1,-0.279 0,-0.146 0.066,-0.267 0.2,-0.36 l 4.34,-3.36 c 0.146,-0.093 0.32,-0.14 0.52,-0.14 h 0.94 c 0.133,0 0.243,0.043 0.33,0.13 0.087,0.087 0.13,0.197 0.13,0.33 v 13.08 c 0,0.134 -0.043,0.243 -0.13,0.33 -0.087,0.087 -0.197,0.13 -0.33,0.13 h -0.98 c -0.134,-0.001 -0.24,-0.044 -0.32,-0.131 z"
   id="path17"
   inkscape:connector-curvature="0"
   style="fill:#c346ff" />
		<path
   d="m 165.763,77.855 c -0.087,-0.087 -0.13,-0.196 -0.13,-0.33 v -1.38 c 0,-0.133 0.043,-0.247 0.13,-0.34 0.086,-0.094 0.196,-0.141 0.33,-0.141 h 1.38 c 0.133,0 0.243,0.047 0.33,0.141 0.086,0.093 0.13,0.207 0.13,0.34 v 1.38 c 0,0.134 -0.044,0.243 -0.13,0.33 -0.087,0.087 -0.197,0.13 -0.33,0.13 h -1.38 c -0.134,0 -0.244,-0.043 -0.33,-0.13 z"
   id="path19"
   inkscape:connector-curvature="0"
   style="fill:#c346ff" />
		<path
   d="m 172.492,77.646 c -0.733,-0.36 -1.293,-0.83 -1.68,-1.41 -0.387,-0.58 -0.594,-1.203 -0.62,-1.87 v -0.04 c 0,-0.106 0.04,-0.193 0.12,-0.26 0.08,-0.067 0.173,-0.1 0.28,-0.1 h 0.979 c 0.28,0 0.46,0.146 0.54,0.439 0.2,0.72 0.57,1.257 1.11,1.61 0.54,0.353 1.163,0.529 1.87,0.529 0.906,0 1.66,-0.276 2.26,-0.829 0.6,-0.554 0.9,-1.317 0.9,-2.29 0,-0.894 -0.301,-1.604 -0.9,-2.131 -0.6,-0.526 -1.354,-0.79 -2.26,-0.79 -0.48,0 -0.867,0.061 -1.16,0.181 -0.294,0.12 -0.594,0.293 -0.9,0.52 -0.173,0.134 -0.316,0.23 -0.43,0.29 -0.113,0.061 -0.237,0.09 -0.37,0.09 h -0.96 c -0.12,0 -0.227,-0.043 -0.32,-0.13 -0.093,-0.086 -0.133,-0.189 -0.12,-0.31 l 0.62,-6.66 c 0.04,-0.333 0.207,-0.5 0.5,-0.5 h 6.92 c 0.146,0 0.261,0.04 0.341,0.12 0.079,0.08 0.119,0.193 0.119,0.34 v 0.74 c 0,0.133 -0.043,0.24 -0.13,0.319 -0.087,0.08 -0.196,0.12 -0.33,0.12 h -5.76 l -0.359,4.021 c 0.64,-0.453 1.5,-0.68 2.579,-0.68 0.894,0 1.707,0.177 2.44,0.529 0.733,0.354 1.316,0.87 1.75,1.55 0.434,0.681 0.65,1.487 0.65,2.421 0,0.986 -0.217,1.836 -0.65,2.55 -0.434,0.713 -1.033,1.253 -1.8,1.62 -0.767,0.366 -1.644,0.55 -2.63,0.55 -0.998,0.001 -1.865,-0.18 -2.599,-0.539 z"
   id="path21"
   inkscape:connector-curvature="0"
   style="fill:#c346ff" />
		<path
   d="m 183.822,77.855 c -0.073,-0.087 -0.11,-0.19 -0.11,-0.311 l 0.04,-0.18 5,-11.7 h -6.6 c -0.134,0 -0.243,-0.043 -0.33,-0.13 -0.087,-0.086 -0.13,-0.196 -0.13,-0.33 v -0.739 c 0,-0.147 0.04,-0.264 0.12,-0.351 0.08,-0.087 0.193,-0.13 0.34,-0.13 h 8.16 c 0.146,0 0.26,0.043 0.34,0.13 0.08,0.087 0.12,0.203 0.12,0.351 v 0.68 c 0,0.24 -0.054,0.5 -0.16,0.78 l -4.94,11.56 c -0.066,0.146 -0.14,0.267 -0.22,0.36 -0.08,0.093 -0.193,0.14 -0.34,0.14 h -1 c -0.12,0 -0.216,-0.043 -0.29,-0.13 z"
   id="path23"
   inkscape:connector-curvature="0"
   style="fill:#c346ff" />
		<path
   d="m 197.862,77.855 c -0.087,-0.087 -0.13,-0.196 -0.13,-0.33 v -9.48 c 0,-0.133 0.043,-0.243 0.13,-0.329 0.087,-0.087 0.196,-0.131 0.33,-0.131 h 0.84 c 0.134,0 0.24,0.044 0.32,0.131 0.08,0.086 0.12,0.196 0.12,0.329 v 0.681 c 0.72,-0.894 1.693,-1.34 2.92,-1.34 1.467,0 2.507,0.613 3.12,1.84 0.319,-0.561 0.776,-1.007 1.37,-1.34 0.593,-0.334 1.256,-0.5 1.989,-0.5 1.094,0 1.987,0.373 2.681,1.119 0.692,0.747 1.04,1.827 1.04,3.24 v 5.78 c 0,0.134 -0.044,0.243 -0.13,0.33 -0.087,0.087 -0.197,0.13 -0.33,0.13 h -0.86 c -0.134,0 -0.243,-0.043 -0.33,-0.13 -0.087,-0.087 -0.13,-0.196 -0.13,-0.33 v -5.6 c 0,-1.067 -0.22,-1.83 -0.66,-2.29 -0.439,-0.46 -1.02,-0.69 -1.74,-0.69 -0.64,0 -1.189,0.237 -1.649,0.71 -0.46,0.474 -0.69,1.23 -0.69,2.271 v 5.6 c 0,0.134 -0.043,0.243 -0.13,0.33 -0.087,0.087 -0.197,0.13 -0.33,0.13 h -0.88 c -0.134,0 -0.243,-0.043 -0.33,-0.13 -0.087,-0.087 -0.13,-0.196 -0.13,-0.33 v -5.6 c 0,-1.054 -0.23,-1.813 -0.69,-2.28 -0.46,-0.467 -1.029,-0.7 -1.71,-0.7 -0.64,0 -1.189,0.233 -1.649,0.7 -0.46,0.467 -0.69,1.22 -0.69,2.26 v 5.62 c 0,0.134 -0.043,0.243 -0.13,0.33 -0.087,0.087 -0.197,0.13 -0.33,0.13 h -0.88 c -0.135,-0.001 -0.245,-0.044 -0.332,-0.131 z"
   id="path25"
   inkscape:connector-curvature="0"
   style="fill:#c346ff" />
	</g>
</g>
<g
   id="N-TEXT"
   transform="translate(0,422.51968)">
</g>




<g
   id="g1245"
   transform="matrix(1.576088,0,0,1.576088,17.780181,102.38339)"><g
     id="AG-DETAILS">
	<g
   id="POLYLINE_1079_">
		
			<path
   id="path55"
   d="m 212.45,308.062 c 3.179,-1.872 6.135,-3.84 9.081,-6.061 2.417,-1.822 4.914,-3.831 7.755,-4.957 4.391,-1.74 9.224,0.816 13.194,2.59 3.707,1.656 7.269,3.562 10.711,5.715"
   stroke-miterlimit="10"
   inkscape:connector-curvature="0"
   style="fill:none;stroke:#c346ff;stroke-width:1.75;stroke-linecap:round;stroke-linejoin:round;stroke-miterlimit:10" />
	</g>
	<g
   id="POLYLINE_1078_">
		
			<path
   id="path58"
   d="m 226.648,211.861 c 0.871,5.809 1.773,11.606 2.35,17.454 0.545,5.523 0.981,11.058 1.349,16.595 0.25,3.756 0.499,7.513 0.749,11.269"
   stroke-miterlimit="10"
   inkscape:connector-curvature="0"
   style="fill:none;stroke:#c346ff;stroke-width:1.75;stroke-linecap:round;stroke-linejoin:round;stroke-miterlimit:10" />
	</g>
	<g
   id="POLYLINE_1077_">
		
			<path
   id="path61"
   d="m 231.565,265.278 c 0.407,8.125 0.944,16.267 0.937,24.405 -0.002,2.247 -0.073,4.494 -0.114,6.741"
   stroke-miterlimit="10"
   inkscape:connector-curvature="0"
   style="fill:none;stroke:#c346ff;stroke-width:1.75;stroke-linecap:round;stroke-linejoin:round;stroke-miterlimit:10" />
	</g>
</g><g
     id="POLYLINE_746_">
		
			<path
   stroke-miterlimit="10"
   d="m 157.755,207.22 c -2.68,6.73 -4.731,13.486 -5.739,20.675 -1.021,7.285 -1.415,14.685 -1.345,22.039 0.076,8.021 0.787,16.005 1.388,23.999 0.236,3.145 0.423,6.296 0.382,9.452 -0.046,3.595 -0.325,7.177 -0.091,10.771 0.225,3.463 0.694,6.943 0.467,10.418 -0.224,3.437 -0.947,6.807 -1.006,10.26 -0.054,3.17 0.156,6.348 0.293,9.513 0.222,5.153 0.444,10.307 0.666,15.46 0.289,6.699 0.553,13.408 1.23,20.082 0.765,7.546 1.78,15.01 1.691,22.612 -0.044,3.778 -0.267,7.549 -0.549,11.316 -0.271,3.623 -0.775,7.23 -0.994,10.856 -0.111,1.835 -0.391,5.53 2.319,5.511 1.645,-0.012 3.235,-1.199 4.425,-2.19 2.169,-1.805 4.082,-4.112 5.316,-6.658 1.253,-2.587 1.374,-5.411 1.991,-8.175 0.261,-1.167 1.015,-4.379 2.591,-4.652 0.881,-0.153 1.553,0.957 1.975,1.588 0.775,1.156 1.398,2.495 2.406,3.48 0.926,0.905 1.713,0.69 2.364,-0.388 0.711,-1.177 1.122,-2.542 1.632,-3.81 0.216,-0.538 0.982,-2.843 1.843,-2.292 0.798,0.511 0.997,2.708 1.149,3.467 0.32,1.6 0.467,3.247 0.858,4.831 0.105,0.425 0.195,0.996 0.627,0.515 0.235,-0.262 0.349,-0.849 0.443,-1.184 0.743,-2.661 0.767,-5.527 0.008,-8.185 -0.833,-2.916 -2.825,-5.001 -4.252,-7.603 -1.355,-2.471 -2.15,-5.001 -2.212,-7.82 -0.161,-7.347 -0.301,-14.677 -0.625,-22.02 -0.383,-8.658 -0.817,-17.314 -1.225,-25.971 -0.139,-2.941 -0.259,-5.886 -0.154,-8.83 0.133,-3.729 0.728,-7.416 1.166,-11.116 0.839,-7.085 0.159,-14.187 -0.173,-21.282 -0.357,-7.647 -0.41,-15.282 0.043,-22.926 0.206,-3.472 0.524,-6.933 0.884,-10.392"
   id="path131"
   inkscape:connector-curvature="0"
   style="fill:none;stroke:#c346ff;stroke-width:2.75;stroke-linecap:round;stroke-linejoin:round;stroke-miterlimit:10" />
	</g><g
     id="POLYLINE_747_">
		
			<path
   stroke-miterlimit="10"
   d="m 176.578,339.13 c 1.102,-3.955 2.3,-7.886 3.922,-11.663 1.611,-3.751 3.761,-7.175 5.768,-10.717 1.356,-2.393 2.696,-4.951 2.795,-7.757 0.055,-1.55 -0.252,-3.087 -0.197,-4.635 0.041,-1.173 0.413,-2.28 0.646,-3.422 0.438,-2.145 -0.246,-4.04 -1.094,-6.009 -1.612,-3.742 -2.986,-7.467 -4.005,-11.419 -2.049,-7.95 -3.561,-16.082 -4.999,-24.162 -1.539,-8.646 -2.922,-17.289 -3.956,-26.01 -0.112,-0.94 -0.223,-1.88 -0.335,-2.82"
   id="path134"
   inkscape:connector-curvature="0"
   style="fill:none;stroke:#c346ff;stroke-width:2.75;stroke-linecap:round;stroke-linejoin:round;stroke-miterlimit:10" />
	</g><g
     id="POLYLINE_748_">
		
			<path
   stroke-miterlimit="10"
   d="m 161.698,407.282 c 1.246,3.086 3.365,5.502 6.27,7.134 1.803,1.013 3.757,1.608 5.721,2.223 1.804,0.566 3.538,1.388 5.36,1.883 1.235,0.335 2.343,0.323 3.15,-0.806 0.807,-1.128 1.154,-2.427 2.559,-2.964 1.463,-0.558 2.516,-0.743 2.799,-2.491 0.257,-1.589 0.024,-3.258 -0.119,-4.846 -0.335,-3.732 -1.126,-7.102 -3.243,-10.248 -0.239,-0.355 -0.488,-0.702 -0.746,-1.042"
   id="path137"
   inkscape:connector-curvature="0"
   style="fill:none;stroke:#c346ff;stroke-width:2.75;stroke-linecap:round;stroke-linejoin:round;stroke-miterlimit:10" />
	</g><g
     id="POLYLINE_749_">
		
			<path
   stroke-miterlimit="10"
   d="m 172.904,195.735 c -5.382,-0.609 -10.757,-0.829 -16.168,-0.604 -0.417,0.017 -1.922,0.241 -2.151,-0.242 -0.224,-0.472 0.921,-1.221 1.241,-1.462 1.911,-1.435 4.098,-2.591 6.281,-3.55 4.486,-1.971 9.33,-2.44 14.144,-3.005 2.831,-0.332 5.67,-0.628 8.491,-1.044 2.418,-0.357 4.877,-0.974 7.328,-1.026 0.618,-0.013 1.647,-0.052 1.864,0.683 0.211,0.714 -0.45,1.614 -0.837,2.158 -0.954,1.343 -2.914,2.527 -3.143,4.249 -0.05,0.373 -0.01,0.758 0.017,1.131"
   id="path140"
   inkscape:connector-curvature="0"
   style="fill:none;stroke:#c346ff;stroke-width:2.75;stroke-linecap:round;stroke-linejoin:round;stroke-miterlimit:10" />
	</g><g
     id="POLYLINE_750_">
		
			<path
   stroke-miterlimit="10"
   d="m 150.602,197.876 c 1.275,-1.083 2.549,-2.163 3.958,-3.07"
   id="path143"
   inkscape:connector-curvature="0"
   style="fill:none;stroke:#c346ff;stroke-width:2.75;stroke-linecap:round;stroke-linejoin:round;stroke-miterlimit:10" />
	</g><g
     id="POLYLINE_751_">
		
			<path
   stroke-miterlimit="10"
   d="m 198.451,577.748 c -2.919,0.662 -5.771,1.318 -8.382,2.843 -2.61,1.524 -5.02,3.352 -7.82,4.537 -5.419,2.293 -11.475,2.025 -17.189,2.92 -2.911,0.456 -5.398,1.636 -8.047,2.858 -2.623,1.21 -5.379,2.358 -8.178,3.095 -1.797,0.473 -3.259,0.163 -3.965,-1.721 -0.553,-1.479 -0.541,-3.135 -0.449,-4.686 0.192,-3.217 0.803,-6.415 1.252,-9.602 0.412,-2.925 0.64,-5.874 0.745,-8.826 0.027,-0.763 0.045,-1.527 0.068,-2.291"
   id="path146"
   inkscape:connector-curvature="0"
   style="fill:none;stroke:#c346ff;stroke-width:2.75;stroke-linecap:round;stroke-linejoin:round;stroke-miterlimit:10" />
	</g><g
     id="POLYLINE_752_">
		
			<path
   stroke-miterlimit="10"
   d="m 147.381,524.483 c 0.206,-5.712 0.412,-11.423 0.618,-17.135 0.162,-4.496 0.292,-8.995 0.378,-13.494 0.096,-5.054 0.128,-10.109 0.107,-15.164 -0.019,-4.509 -0.046,-9.022 -0.196,-13.528 -0.134,-4.029 -0.32,-8.056 -0.48,-12.084 -0.29,-7.312 -0.581,-14.623 -0.871,-21.935 -0.253,-6.376 -0.506,-12.752 -0.76,-19.128 -0.093,-2.35 -0.19,-4.698 -0.252,-7.049 -0.178,-6.786 -0.356,-13.571 -0.534,-20.357 -0.088,-3.351 -0.19,-6.701 -0.229,-10.053 -0.079,-6.811 -0.158,-13.623 -0.236,-20.434 -0.041,-3.548 -0.117,-7.097 -0.105,-10.645 0.022,-6.42 0.044,-12.841 0.065,-19.261 0.014,-4.166 -0.015,-8.334 0.055,-12.5 0.086,-5.118 0.127,-10.238 0.271,-15.355 0.149,-5.301 0.267,-10.603 0.481,-15.901 0.223,-5.527 0.473,-11.051 0.774,-16.575 0.273,-5.005 0.637,-10.004 1.007,-15.002 0.398,-5.372 0.903,-10.736 1.374,-16.102 0.423,-4.815 0.916,-9.622 1.398,-14.432 0.227,-2.265 0.454,-4.531 0.681,-6.796"
   id="path149"
   inkscape:connector-curvature="0"
   style="fill:none;stroke:#c346ff;stroke-width:2.75;stroke-linecap:round;stroke-linejoin:round;stroke-miterlimit:10" />
	</g><g
     id="POLYLINE_753_">
		
			<path
   stroke-miterlimit="10"
   d="m 227.187,209.871 c 0.019,-2.711 0.049,-5.42 0.358,-8.117 0.317,-2.777 0.845,-5.525 1.234,-8.291 0.688,-4.896 0.109,-10.29 2.214,-14.882 0.556,-1.213 1.287,-2.365 2.234,-3.311 1.14,-1.138 2.62,-1.848 3.794,-2.946 1.153,-1.079 1.865,-2.464 2.54,-3.873 0.415,-0.866 0.778,-1.892 1.384,-2.658 0.773,-0.976 1.275,0.074 1.525,0.873 0.679,2.167 0.5,4.56 0.531,6.797 0.033,2.432 0.385,4.684 1.3,6.944 0.256,0.632 0.54,1.252 0.819,1.874"
   id="path152"
   inkscape:connector-curvature="0"
   style="fill:none;stroke:#c346ff;stroke-width:2.75;stroke-linecap:round;stroke-linejoin:round;stroke-miterlimit:10" />
	</g><g
     id="POLYLINE_754_">
		
			<path
   stroke-miterlimit="10"
   d="m 196.876,186.327 c 0.773,-2.455 1.031,-5.022 1.066,-7.586 0.04,-2.834 -0.278,-5.714 0.056,-8.537 0.115,-0.969 0.734,-4.153 2.242,-3.645 0.825,0.278 1.178,2.202 1.433,2.859 0.487,1.255 1.11,2.459 1.872,3.569 1.157,1.686 2.609,3.04 4.286,4.195 1.818,1.252 3.935,2.272 5.475,3.887 0.885,0.928 1.392,2.072 1.823,3.265 0.936,2.592 2.031,5.07 3.247,7.543 2.627,5.342 5.034,10.641 6.705,16.371 0.236,0.808 0.471,1.615 0.707,2.423"
   id="path155"
   inkscape:connector-curvature="0"
   style="fill:none;stroke:#c346ff;stroke-width:2.75;stroke-linecap:round;stroke-linejoin:round;stroke-miterlimit:10" />
	</g><g
     id="POLYLINE_755_">
		
			<path
   stroke-miterlimit="10"
   d="m 272.363,261.242 c 0.24,3.771 0.491,7.539 0.631,11.315 0.138,3.696 0.1,7.398 0.344,11.089 0.263,3.978 0.779,7.93 1.254,11.887 0.188,1.568 0.383,3.135 0.522,4.708 0.116,1.305 0.191,2.63 0.556,3.896 0.601,2.087 1.701,3.885 1.866,6.088 0.108,1.446 0.069,2.892 0.357,4.319 0.275,1.362 0.741,2.677 1.242,3.97 2.691,6.953 4.197,14.241 5.666,21.534 0.726,3.606 1.289,7.251 2.106,10.838 0.754,3.308 1.805,6.516 2.035,9.921 0.227,3.359 0.272,6.932 -0.29,10.261 -0.582,3.451 -2.469,6.434 -3.661,9.681 -0.861,2.346 -1.586,4.903 -1.555,7.423 0.007,0.557 -0.007,2.304 0.602,2.568 0.703,0.304 1.433,-2.257 1.588,-2.67 1.107,-2.954 2.15,-6.169 4.089,-8.705 0.66,-0.863 1.631,-1.867 2.794,-1.313 0.785,0.374 1.339,1.221 1.776,1.943 1.642,2.71 2.317,5.871 3.82,8.644 0.618,1.14 1.385,2.018 2.426,0.79 0.688,-0.812 1.182,-1.78 1.941,-2.535 3.06,-3.042 6.033,2.496 6.022,5.258 -0.006,1.438 -0.348,2.841 -0.619,4.245 -0.164,0.852 -0.618,2.413 0.396,2.893 1.062,0.503 2.735,-0.238 3.686,-0.729 2.971,-1.535 3.354,-4.423 3.04,-7.514 -0.375,-3.688 -1.368,-7.334 -2.176,-10.943 -0.797,-3.561 -1.615,-7.118 -2.184,-10.724 -1.144,-7.253 -1.131,-14.657 -1.694,-21.967 -0.617,-8.015 -1.414,-16.01 -2.228,-24.006 -0.637,-6.263 -1.424,-12.51 -2.245,-18.751 -1.133,-8.607 -2.323,-17.208 -3.398,-25.822 -0.857,-6.866 -1.454,-13.75 -1.968,-20.648 -0.605,-8.122 -1.104,-16.259 -1.998,-24.357 -0.804,-7.276 -2.006,-14.52 -3.452,-21.694 -0.741,-3.678 -1.545,-7.341 -2.339,-11.008"
   id="path158"
   inkscape:connector-curvature="0"
   style="fill:none;stroke:#c346ff;stroke-width:2.75;stroke-linecap:round;stroke-linejoin:round;stroke-miterlimit:10" />
	</g><g
     id="POLYLINE_756_">
		
			<path
   stroke-miterlimit="10"
   d="m 284.586,390.465 c -0.428,2.148 -0.561,4.335 -0.582,6.522 -0.02,2.081 -0.114,4.214 0.185,6.281 0.174,1.207 0.499,2.687 1.839,3.049 1.09,0.295 2.265,0.005 3.378,0.155 2.235,0.3 3.962,1.131 6.218,0.491 1.949,-0.553 4.145,-1.654 5.474,-3.228 0.748,-0.886 1.013,-2.052 1.674,-2.998 1.033,-1.479 2.432,-2.747 3.87,-3.822 0.423,-0.317 0.859,-0.617 1.31,-0.893"
   id="path161"
   inkscape:connector-curvature="0"
   style="fill:none;stroke:#c346ff;stroke-width:2.75;stroke-linecap:round;stroke-linejoin:round;stroke-miterlimit:10" />
	</g><g
     id="POLYLINE_757_">
		
			<path
   stroke-miterlimit="10"
   d="m 182.668,203.172 c -1.121,-0.913 -2.284,-2.782 -0.907,-3.946 0.769,-0.65 2.079,-1.319 3.092,-1.145 1.633,0.28 3.423,3.943 1.814,5.135 -0.958,0.709 -3.071,0.691 -3.999,-0.044 z"
   id="path164"
   inkscape:connector-curvature="0"
   style="fill:none;stroke:#c346ff;stroke-width:2.75;stroke-linecap:round;stroke-linejoin:round;stroke-miterlimit:10" />
	</g><g
     id="POLYLINE_758_">
		
			<path
   stroke-miterlimit="10"
   d="m 181.27,201.243 c -1.643,0.346 -3.162,1.176 -4.614,1.985 -0.712,0.396 -3.123,2.18 -4.053,1.365 -0.533,-0.468 -0.358,-1.49 -0.065,-2.033 0.371,-0.688 1.093,-1.103 1.765,-1.451 0.834,-0.433 1.731,-0.765 2.536,-1.254 0.949,-0.577 0.029,-0.552 -0.609,-0.504 -1.551,0.116 -3.766,0.767 -5.27,0.011 -0.535,-0.269 -1.518,-1.019 -1.37,-1.726 0.159,-0.759 1.693,-1.13 2.275,-1.386 2.37,-1.04 4.014,-3.565 6.864,-2.991 1.579,0.318 2.623,1.393 3.852,2.341 0.501,0.387 1.085,0.81 1.706,0.436 0.726,-0.437 1.134,-1.391 1.775,-1.953 1.45,-1.272 4.305,-1.561 5.921,-0.395 1.071,0.773 1.592,2.063 2.703,2.847 1.529,1.079 3.32,1.88 4.664,3.208 0.478,0.473 1.027,1.23 0.211,1.683 -0.732,0.406 -1.569,-0.117 -2.169,-0.52 -1.23,-0.827 -2.409,-1.864 -3.91,-2.163 -1.189,-0.237 -0.651,0.569 -0.12,1.137 0.782,0.837 1.671,1.579 2.522,2.342 0.566,0.507 1.638,1.233 1.885,1.986 0.298,0.908 -1.081,0.708 -1.613,0.603 -2.877,-0.562 -4.578,-3.735 -7.585,-3.851 -0.472,-0.018 -0.944,0.054 -1.405,0.148"
   id="path167"
   inkscape:connector-curvature="0"
   style="fill:none;stroke:#c346ff;stroke-width:2.75;stroke-linecap:round;stroke-linejoin:round;stroke-miterlimit:10" />
	</g><g
     id="POLYLINE_759_">
		
			<path
   stroke-miterlimit="10"
   d="m 196.395,143.044 c -0.233,3.169 0.375,6.334 1.17,9.388 0.836,3.213 1.792,6.423 3.244,9.419 2.534,5.228 6.738,9.543 11.919,12.187 5.414,2.763 11.291,2.788 16.79,0.205 2.289,-1.075 4.484,-2.484 6.148,-4.411 1.84,-2.131 3.022,-4.763 4.041,-7.362 1.284,-3.275 2.302,-6.658 3.19,-10.06 0.854,-3.275 1.693,-6.629 1.873,-10.021 0.357,-6.753 -2.225,-13.613 -4.811,-19.736 -1.753,-4.152 -3.814,-9.506 -8.487,-11.088 -2.107,-0.714 -4.406,-0.761 -6.583,-0.381 -3.122,0.545 -6.194,0.129 -9.336,0.348 -1.914,0.133 -3.782,0.59 -5.389,1.674 -2.152,1.451 -3.616,3.743 -4.861,5.97 -1.715,3.068 -3.061,6.32 -4.385,9.569 -1.334,3.271 -2.763,6.546 -3.716,9.953 -0.4,1.42 -0.696,2.872 -0.807,4.346 z"
   id="path170"
   inkscape:connector-curvature="0"
   style="fill:none;stroke:#c346ff;stroke-width:2.75;stroke-linecap:round;stroke-linejoin:round;stroke-miterlimit:10" />
	</g><g
     id="POLYLINE_760_">
		
			<path
   stroke-miterlimit="10"
   d="m 149.408,226.653 c -1.281,3.326 -2.915,5.944 -6.179,7.586 -1.79,0.901 -3.756,1.572 -5.737,1.888 -1.128,0.18 -3.528,0.376 -2.453,-1.419 1.667,-2.784 5.067,-4.029 6.784,-6.759 0.693,-1.101 0.909,-2.355 0.995,-3.633 0.163,-2.424 -0.047,-4.859 0.267,-7.275 0.587,-4.517 2.978,-8.635 5.717,-12.188 0.357,-0.463 0.723,-0.919 1.096,-1.369"
   id="path173"
   inkscape:connector-curvature="0"
   style="fill:none;stroke:#c346ff;stroke-width:2.75;stroke-linecap:round;stroke-linejoin:round;stroke-miterlimit:10" />
	</g><g
     id="POLYLINE_761_">
		
			<path
   stroke-miterlimit="10"
   d="m 158.884,191.493 c 1.452,-2.89 3.135,-6.034 6.146,-7.554 2.916,-1.473 6.561,-1.367 9.159,-3.5 2.685,-2.203 3.365,-6.201 4.48,-9.283 0.529,-1.462 1.143,-2.96 2.283,-4.06 1.079,-1.041 2.523,-1.596 3.602,-2.628 1.099,-1.052 1.406,-2.551 1.593,-4.002 0.288,-2.228 0.241,-4.52 0.825,-6.703 0.505,-1.887 1.532,-3.542 2.488,-5.225 0.914,-1.608 1.635,-3.238 2.074,-5.039 0.579,-2.376 0.786,-4.821 0.958,-7.254 0.161,-2.269 0.301,-4.493 1.174,-6.621 0.954,-2.324 2.315,-4.461 3.372,-6.738 1.042,-2.245 1.724,-4.576 2.095,-7.023 0.391,-2.575 0.469,-5.178 0.683,-7.77 0.121,-1.472 0.345,-2.963 0.974,-4.313 1.406,-3.012 4.568,-5.023 7.532,-6.258 4.424,-1.844 9.307,-1.977 14.02,-1.563 4.859,0.427 10.183,1.027 14.697,2.978 2.051,0.887 3.882,2.195 4.845,4.261 1.783,3.824 1.155,8.412 1.967,12.477 0.399,2 1.023,3.946 1.882,5.796 1.039,2.24 2.375,4.337 3.31,6.627 1.511,3.698 0.539,7.623 1.536,11.403 0.554,2.101 1.486,4.119 1.676,6.305 0.167,1.919 -0.277,3.83 -0.564,5.715 -0.243,1.601 -0.375,3.201 -0.005,4.793 0.443,1.905 1.377,3.659 1.79,5.573 0.735,3.409 -0.927,6.553 -1.842,9.76 -0.374,1.31 -0.614,2.633 -0.107,3.946 0.506,1.31 1.452,2.397 1.988,3.696 0.595,1.443 0.807,3.036 0.883,4.584"
   id="path176"
   inkscape:connector-curvature="0"
   style="fill:none;stroke:#c346ff;stroke-width:2.75;stroke-linecap:round;stroke-linejoin:round;stroke-miterlimit:10" />
	</g><g
     id="POLYLINE_762_">
		
			<path
   stroke-miterlimit="10"
   d="m 201.329,168.481 c -0.026,-2.146 -0.17,-4.269 -0.408,-6.402"
   id="path179"
   inkscape:connector-curvature="0"
   style="fill:none;stroke:#c346ff;stroke-width:2.75;stroke-linecap:round;stroke-linejoin:round;stroke-miterlimit:10" />
	</g><g
     id="POLYLINE_763_">
		
			<line
   stroke-miterlimit="10"
   x1="239.89999"
   y1="167.74001"
   x2="239.73399"
   y2="162.399"
   id="line182"
   style="fill:none;stroke:#c346ff;stroke-width:2.75;stroke-linecap:round;stroke-linejoin:round;stroke-miterlimit:10" />
	</g><g
     id="POLYLINE_764_">
		
			<path
   stroke-miterlimit="10"
   d="m 184.486,203.68 c -0.735,2.092 -0.721,3.941 -0.219,6.127 0.234,1.018 0.551,2.043 1.044,2.969 0.699,1.313 1.761,1.868 3.018,2.534 1.811,0.959 2.477,2.927 3.995,4.201 1.293,1.084 3.172,1.385 4.216,2.775 1.203,1.602 0.819,4.393 2.711,5.457 0.937,0.527 2.294,0.415 3.062,1.22 0.764,0.801 0.618,2.132 1.166,3.066 1.048,1.788 3.638,1.848 4.485,3.843 0.459,1.081 0.465,2.32 1.505,3.055 0.811,0.574 1.821,0.789 2.674,1.29 0.837,0.492 1.351,1.252 1.787,2.096 0.694,1.344 1.378,2.277 2.501,3.291 1.004,0.907 1.429,1.931 1.918,3.16 0.5,1.258 1.203,2.022 2.241,2.867 1.771,1.441 1.274,3.932 3.193,5.268 1.508,1.05 3.203,1.572 3.862,3.438 0.626,1.773 0.816,3.039 2.508,4.102 1.681,1.057 3.073,1.755 3.741,3.721 0.305,0.896 0.491,1.904 1.107,2.658 0.901,1.104 2.361,1.507 3.166,2.726 1.135,1.719 1.494,3.799 2.809,5.437 0.748,0.931 1.679,1.7 2.798,2.137 1.69,0.66 3.683,0.602 4.411,2.566 0.672,1.811 0.719,3.415 2.433,4.6 0.869,0.601 1.871,1.002 2.707,1.651 1.021,0.793 1.139,2.048 1.97,2.959 0.853,0.935 2.434,1.187 3.643,1.04 2.401,-0.293 2.186,-2.343 1.037,-3.891 -0.852,-1.148 -1.893,-2.147 -2.691,-3.336 -0.582,-0.867 -0.941,-1.831 -1.349,-2.787 -0.761,-1.782 -1.951,-2.43 -3.599,-3.351 -1.726,-0.965 -2.721,-2.32 -3.653,-4.049 -0.999,-1.855 -1.862,-3.596 -3.641,-4.791 -0.931,-0.626 -1.986,-1.131 -2.599,-2.115 -0.622,-0.997 -0.798,-2.224 -1.55,-3.148 -1.129,-1.389 -3.112,-1.737 -4.178,-3.203 -0.994,-1.368 -1.128,-3.201 -2.479,-4.331 -1.604,-1.343 -4.239,-1.603 -5.105,-3.726 -0.723,-1.771 -0.256,-3.732 -2.254,-4.703 -1.016,-0.493 -2.158,-0.737 -2.799,-1.756 -0.529,-0.841 -0.686,-1.87 -1.007,-2.794 -0.799,-2.297 -3.376,-2.919 -4.245,-5.158 -0.453,-1.168 -0.812,-2.312 -1.449,-3.397 -0.926,-1.577 -2.104,-3.046 -3.457,-4.278 -1.539,-1.401 -3.819,-2.048 -4.961,-3.842 -1.129,-1.773 -1.446,-3.711 -3.219,-5.003 -1.09,-0.794 -2.028,-1.344 -2.422,-2.709 -0.29,-1.002 -0.396,-2.032 -0.978,-2.924 -0.974,-1.493 -2.613,-2.408 -3.607,-3.893 -0.6,-0.898 -0.975,-1.925 -1.568,-2.826 -0.728,-1.106 -1.83,-1.552 -2.901,-2.242 -1.699,-1.095 -2.022,-3.053 -3.254,-4.532 -1.004,-1.206 -2.51,-1.86 -3.966,-2.336"
   id="path185"
   inkscape:connector-curvature="0"
   style="fill:none;stroke:#c346ff;stroke-width:2.75;stroke-linecap:round;stroke-linejoin:round;stroke-miterlimit:10" />
	</g><g
     id="POLYLINE_767_">
		
			<path
   stroke-miterlimit="10"
   d="m 193.682,186.671 c 1.247,-0.172 2.594,-0.48 3.862,-0.311 1.675,0.223 2.395,1.938 3.243,3.188 2.15,3.17 5.304,5.62 8.376,7.846 3.472,2.516 7.214,4.596 10.789,6.955 2.279,1.504 4.209,3.157 5.469,5.599 0.115,0.224 0.808,2.016 1.257,1.898 0.32,-0.084 0.401,-1.204 0.44,-1.465 0.31,-2.083 0.416,-4.197 1.039,-6.221 0.631,-2.05 1.799,-3.77 3.341,-5.248 2.772,-2.657 6.145,-4.687 8.438,-7.823 1.127,-1.542 1.992,-3.258 2.713,-5.022 0.569,-1.394 1.013,-3.443 2.706,-3.851 1.292,-0.311 2.793,0.07 4.042,0.365 2.114,0.499 4.194,1.13 6.316,1.599 3.794,0.839 7.677,1.23 11.554,1.427 4.888,0.249 9.78,0.461 14.665,0.771 2.144,0.136 4.286,0.325 6.422,0.556 1.815,0.196 3.752,0.296 5.523,0.755 1.199,0.311 1.304,1.214 1.133,2.295 -0.303,1.911 -0.986,3.801 -1.559,5.645 -1.204,3.877 -2.859,7.509 -5.567,10.572 -2.882,3.259 -6.378,5.909 -9.268,9.16 -2.697,3.034 -4.526,6.624 -5.809,10.456 -1.432,4.277 -2.328,8.73 -3.346,13.118 -0.945,4.074 -1.893,8.149 -3.287,12.098 -1.481,4.197 -3.603,8.078 -5.724,11.975 -2.069,3.804 -4.025,7.626 -5.446,11.728 -0.715,2.063 -1.306,4.16 -1.847,6.275"
   id="path188"
   inkscape:connector-curvature="0"
   style="fill:none;stroke:#c346ff;stroke-width:2.75;stroke-linecap:round;stroke-linejoin:round;stroke-miterlimit:10" />
	</g><g
     id="POLYLINE_768_">
		
			<path
   stroke-miterlimit="10"
   d="m 267.407,293.887 c 0.624,0.569 0.428,1.503 0.412,2.251 -0.017,0.754 0.125,1.591 -0.133,2.321 -0.642,1.816 -2.658,1.56 -3.737,0.381 -1.429,-1.561 -2.584,-4.935 0.375,-5.468 0.445,-0.08 0.906,-0.095 1.356,-0.058 0.213,0.018 0.427,0.046 0.636,0.093 0.303,0.069 0.851,0.48 1.091,0.48 z"
   id="path191"
   inkscape:connector-curvature="0"
   style="fill:none;stroke:#c346ff;stroke-width:2.75;stroke-linecap:round;stroke-linejoin:round;stroke-miterlimit:10" />
	</g><g
     id="POLYLINE_769_">
		
			<path
   stroke-miterlimit="10"
   d="m 257.133,293.836 c -0.419,1.846 -0.558,4.113 0.356,5.852 1.102,2.098 3.152,1.405 4.359,-0.138 0.492,-0.629 0.872,-1.343 1.174,-2.08"
   id="path194"
   inkscape:connector-curvature="0"
   style="fill:none;stroke:#c346ff;stroke-width:2.75;stroke-linecap:round;stroke-linejoin:round;stroke-miterlimit:10" />
	</g><g
     id="POLYLINE_770_">
		
			<path
   stroke-miterlimit="10"
   d="m 263.902,293.468 c 0.059,-1.298 -0.066,-2.748 -0.74,-3.89 -0.931,-1.577 -2.556,-1.456 -3.766,-0.26"
   id="path197"
   inkscape:connector-curvature="0"
   style="fill:none;stroke:#c346ff;stroke-width:2.75;stroke-linecap:round;stroke-linejoin:round;stroke-miterlimit:10" />
	</g><g
     id="POLYLINE_771_">
		
			<path
   stroke-miterlimit="10"
   d="m 255.574,293.16 c -0.542,2.154 -0.679,4.632 0.168,6.737 1.187,2.951 4.362,3.678 6.681,1.504 0.715,-0.671 1.275,-1.49 1.719,-2.36"
   id="path200"
   inkscape:connector-curvature="0"
   style="fill:none;stroke:#c346ff;stroke-width:2.75;stroke-linecap:round;stroke-linejoin:round;stroke-miterlimit:10" />
	</g><g
     id="POLYLINE_772_">
		
			<path
   stroke-miterlimit="10"
   d="m 265.587,293.308 c 0.08,-2.956 -1.373,-7.648 -5.302,-6.469 -0.746,0.224 -1.412,0.672 -1.975,1.203"
   id="path203"
   inkscape:connector-curvature="0"
   style="fill:none;stroke:#c346ff;stroke-width:2.75;stroke-linecap:round;stroke-linejoin:round;stroke-miterlimit:10" />
	</g><g
     id="POLYLINE_773_">
		
			<path
   stroke-miterlimit="10"
   d="m 279.47,225.078 c -0.551,4.674 -1.221,9.324 -1.19,14.04 0.029,4.35 0.203,8.734 -1.35,12.877 -1.635,4.365 -4.341,8.24 -6.064,12.573 -1.613,4.056 -2.327,8.398 -2.804,12.717 -0.54,4.89 -0.858,9.807 -1.356,14.703 -0.05,0.495 -0.092,0.99 -0.131,1.486"
   id="path206"
   inkscape:connector-curvature="0"
   style="fill:none;stroke:#c346ff;stroke-width:2.75;stroke-linecap:round;stroke-linejoin:round;stroke-miterlimit:10" />
	</g><g
     id="POLYLINE_774_">
		
			<path
   stroke-miterlimit="10"
   d="m 266.872,299.484 c 0.833,4.172 2.828,8.114 4.831,11.83 2.316,4.296 4.963,8.398 7.42,12.612 1.37,2.349 2.606,4.766 3.772,7.222"
   id="path209"
   inkscape:connector-curvature="0"
   style="fill:none;stroke:#c346ff;stroke-width:2.75;stroke-linecap:round;stroke-linejoin:round;stroke-miterlimit:10" />
	</g><g
     id="POLYLINE_775_">
		
			<path
   stroke-miterlimit="10"
   d="m 192.211,139.505 c -1.123,-0.947 -2.191,-1.954 -2.735,-3.351 -0.697,-1.791 -0.754,-3.817 -1.026,-5.696 -0.507,-3.5 -2.175,-7.256 -0.108,-10.54 1.075,-1.708 2.524,-3.146 3.39,-4.988 0.942,-2.001 1.357,-4.209 1.844,-6.351 0.568,-2.499 1.19,-5.418 3.389,-7.033 1.648,-1.21 3.904,-1.522 5.896,-1.348 0.259,0.023 0.517,0.055 0.773,0.097"
   id="path212"
   inkscape:connector-curvature="0"
   style="fill:none;stroke:#c346ff;stroke-width:2.75;stroke-linecap:round;stroke-linejoin:round;stroke-miterlimit:10" />
	</g><g
     id="POLYLINE_776_">
		
			<path
   stroke-miterlimit="10"
   d="m 241.833,103.09 c 1.441,0.244 2.971,0.486 3.749,1.888 0.796,1.433 0.912,3.179 1.416,4.718 0.329,1.005 0.813,1.899 1.496,2.707 0.946,1.117 2.21,2.059 2.838,3.417 1.246,2.694 -0.394,5.845 0.728,8.612 0.944,2.327 2.979,4.052 2.565,6.768 -0.37,2.424 -1.905,4.698 -3.562,6.44 -0.237,0.25 -0.483,0.491 -0.738,0.723"
   id="path215"
   inkscape:connector-curvature="0"
   style="fill:none;stroke:#c346ff;stroke-width:2.75;stroke-linecap:round;stroke-linejoin:round;stroke-miterlimit:10" />
	</g><g
     id="POLYLINE_777_">
		
			<path
   stroke-miterlimit="10"
   d="m 251.653,288.917 c -0.475,3.825 -0.64,7.642 0.139,11.441 0.743,3.622 2.103,7.111 3.486,10.529 3.392,8.385 7.008,16.689 9.847,25.284 2.684,8.124 4.56,16.479 5.761,24.947 1.193,8.413 1.793,16.924 1.948,25.418 0.163,8.954 -0.003,17.897 -0.404,26.843 -0.358,7.975 -0.823,15.957 -1.457,23.915 -0.793,9.958 -1.623,19.912 -2.435,29.868 -0.665,8.157 -1.415,16.311 -1.989,24.475 -0.631,8.979 -1.316,17.959 -1.469,26.963 -0.149,8.799 0.286,17.641 -0.36,26.424 -0.317,4.308 -1.11,8.578 -1.331,12.891 -0.096,1.876 -0.286,5.082 2.485,4.493 1.7,-0.361 3.359,-1.154 4.976,-1.76 1.989,-0.745 3.973,-1.496 5.995,-2.148 3.587,-1.157 7.241,-2.072 11.037,-1.883 2.479,0.123 5.105,0.872 7.531,0.029 2.632,-0.915 4.514,-3.209 6.846,-4.644 3.137,-1.931 6.81,-2.862 10.025,-4.687 3.259,-1.849 6.514,-3.93 10.286,-4.504 3.545,-0.539 7.202,-0.007 10.678,-1.029 1.945,-0.572 3.735,-1.505 5.537,-2.414 1.193,-0.601 2.057,-1.109 1.916,-2.598 -0.106,-1.124 -0.466,-2.234 -0.752,-3.322 -0.743,-2.83 -1.486,-5.66 -2.228,-8.491 -1.095,-4.171 -2.175,-8.342 -3.226,-12.525 -2.104,-8.377 -4.081,-16.785 -5.894,-25.23 -2.082,-9.697 -4.066,-19.417 -6.098,-29.125 -1.694,-8.089 -3.694,-16.114 -5.668,-24.138 -2.061,-8.378 -4.408,-16.692 -6.994,-24.922 -1.214,-3.865 -2.604,-7.672 -4.002,-11.473"
   id="path218"
   inkscape:connector-curvature="0"
   style="fill:none;stroke:#c346ff;stroke-width:2.75;stroke-linecap:round;stroke-linejoin:round;stroke-miterlimit:10" />
	</g><g
     id="POLYLINE_778_">
		
			<path
   stroke-miterlimit="10"
   d="m 204.382,572.427 c 2.888,0.492 5.843,0.479 8.761,0.37 1.859,-0.069 3.999,0.039 5.753,-0.722 0.812,-0.353 1.317,-0.987 1.961,-1.561 0.744,-0.664 1.516,-0.746 2.474,-0.74 1.31,0.007 2.395,-0.062 3.551,-0.733 1.632,-0.947 2.87,-2.368 4.867,-2.397 0.986,-0.014 1.961,0.156 2.95,0.11 0.996,-0.046 1.983,-0.212 2.951,-0.444 2.825,-0.676 5.472,-1.908 8.235,-2.78 2.116,-0.668 3.928,-0.808 6.11,-0.722 3.497,0.137 5.853,-2.887 9.18,-3.523 0.721,-0.138 1.453,-0.209 2.18,-0.297"
   id="path221"
   inkscape:connector-curvature="0"
   style="fill:none;stroke:#c346ff;stroke-width:2.75;stroke-linecap:round;stroke-linejoin:round;stroke-miterlimit:10" />
	</g><g
     id="POLYLINE_779_">
		
			<path
   stroke-miterlimit="10"
   d="m 198.494,573.153 c -0.349,4.089 0.374,7.96 1.428,11.911 1.155,4.33 3.081,8.283 4.636,12.465 0.746,2.008 1.235,4.081 0.71,6.198 -0.591,2.381 -2,4.505 -0.187,6.674 0.517,0.618 1.255,1.222 1.524,2.007 0.246,0.719 -0.043,1.444 -0.294,2.12 -0.435,1.168 -0.659,2.221 -0.394,3.464 0.255,1.197 0.899,2.161 1.373,3.269 0.625,1.46 -0.119,2.633 -0.685,3.978 -0.955,2.271 0.043,4.306 -0.096,6.637 -0.083,1.386 -0.572,2.706 -0.74,4.08 -0.189,1.548 0.159,3.054 0.362,4.583 0.19,1.43 0.203,2.889 1.039,4.128 0.45,0.666 1.06,1.216 1.72,1.667 2.199,1.501 4.941,1.9 7.539,2.049 2.081,0.12 4.162,0.062 6.243,0.015 2.326,-0.052 4.675,-0.026 6.995,-0.22 1.98,-0.165 4.291,-0.539 5.554,-2.26 1.254,-1.708 1.338,-4.135 1.277,-6.156 -0.133,-4.372 -1.741,-8.467 -2.079,-12.796 -0.299,-3.821 0.567,-7.886 -0.347,-11.638 -0.359,-1.472 -1.286,-2.444 -2.065,-3.69 -0.713,-1.141 -0.775,-2.356 -0.72,-3.663 0.058,-1.4 0.303,-2.923 -0.091,-4.301 -0.366,-1.279 -1.56,-2.247 -1.665,-3.598 -0.197,-2.528 2.192,-4.526 2.291,-7.004 0.062,-1.562 -1.385,-2.469 -2.219,-3.599 -0.791,-1.072 -1.081,-2.366 -1.208,-3.667 -0.221,-2.252 0.101,-4.497 0.081,-6.75 -0.016,-1.706 -0.486,-3.35 -0.634,-5.044 -0.162,-1.857 -0.145,-3.738 -0.009,-5.596"
   id="path224"
   inkscape:connector-curvature="0"
   style="fill:none;stroke:#c346ff;stroke-width:2.75;stroke-linecap:round;stroke-linejoin:round;stroke-miterlimit:10" />
	</g><g
     id="POLYLINE_780_">
		
			<path
   stroke-miterlimit="10"
   d="m 152.851,222.891 c -0.998,-5.347 -1.949,-10.739 -2.621,-16.138 -0.29,-2.327 -0.594,-4.747 -0.357,-7.093 0.053,-0.522 0.122,-1.833 0.864,-1.77 0.57,0.048 1.241,1.169 1.532,1.577 1.598,2.242 3.007,4.599 4.704,6.773 1.574,2.016 3.276,3.932 5.065,5.76 3.772,3.856 7.996,7.173 12.092,10.668 3.766,3.213 7.276,6.729 9.721,11.071 2.646,4.698 4.222,9.889 6.048,14.934 1.748,4.829 3.823,9.576 6.541,13.944 2.766,4.444 5.973,8.553 8.331,13.248 2.383,4.745 4.261,9.761 5.847,14.824 1.364,4.355 2.947,9.178 2.763,13.798 -0.043,1.074 -0.266,2.069 -0.692,3.053 -0.954,2.2 -1.776,4.281 -2.292,6.637 -1.135,5.19 -1.705,10.521 -2.172,15.807 -0.476,5.392 -0.799,10.798 -0.936,16.209 -0.125,4.935 -0.107,9.87 0.042,14.804 0.186,6.119 0.421,12.239 0.536,18.36 0.104,5.539 -0.044,11.045 -0.39,16.574 -0.341,5.451 -0.859,10.891 -1.179,16.344 -0.332,5.657 -0.453,11.319 -0.527,16.985 -0.04,3.088 0.001,6.178 0.015,9.266 0.031,7.099 0.062,14.198 0.093,21.298 0.036,8.137 0.071,16.274 0.107,24.41 0.025,5.655 0.049,11.31 0.074,16.965 0.016,3.586 -0.018,7.171 -0.04,10.757 -0.032,5.347 -0.064,10.693 -0.157,16.039 -0.091,5.218 -0.162,10.436 -0.331,15.652 -0.202,6.23 -0.458,12.461 -0.607,18.693 -0.063,2.657 0.123,5.331 0.01,7.983 -0.055,1.296 -0.368,2.45 -1.809,2.757 -1.386,0.295 -2.932,0.117 -4.336,0.096 -3.839,-0.059 -7.678,-0.117 -11.517,-0.176 -5.055,-0.077 -10.112,-0.174 -15.159,-0.495 -5.257,-0.334 -10.51,-0.98 -15.631,-2.237 -4.471,-1.098 -9.514,-2.47 -13.261,-5.27 -1.068,-0.798 -2.051,-1.848 -2.231,-3.222 -0.241,-1.837 0.701,-3.842 1.212,-5.54 1.522,-5.054 2.295,-10.343 3.041,-15.558 0.638,-4.463 1.16,-8.946 1.737,-13.418 1.012,-7.832 2.024,-15.664 3.036,-23.495 0.538,-4.165 1.082,-8.324 1.682,-12.481 0.626,-4.336 1.311,-8.659 1.998,-12.986 1.239,-7.803 2.477,-15.607 3.716,-23.41 0.715,-4.507 1.427,-9.012 2.094,-13.526 0.727,-4.915 1.355,-9.847 1.78,-14.798 0.485,-5.653 0.949,-11.304 1.571,-16.944"
   id="path227"
   inkscape:connector-curvature="0"
   style="fill:none;stroke:#c346ff;stroke-width:2.75;stroke-linecap:round;stroke-linejoin:round;stroke-miterlimit:10" />
	</g><g
     id="POLYLINE_781_">
		
			<path
   stroke-miterlimit="10"
   d="m 244.838,563.878 c -0.058,0.975 -0.006,1.931 0.269,2.872 0.413,1.409 1.241,2.77 1.233,4.277 -0.008,1.456 -0.631,2.845 -0.748,4.298 -0.104,1.294 -0.044,2.648 0.314,3.903 0.351,1.231 1.204,2.284 1.373,3.567 0.169,1.286 -0.248,2.498 -0.493,3.743 -0.523,2.663 1.67,5.112 0.871,7.684 -0.416,1.34 -1.285,2.511 -1.092,3.973 0.164,1.247 0.642,2.473 0.231,3.729 -0.384,1.172 -1.094,2.007 -1.088,3.304 0.007,1.758 0.543,3.487 0.78,5.219 0.541,3.957 -0.678,7.873 0.121,11.826 0.363,1.795 0.769,3.442 0.758,5.285 -0.013,2.283 -0.275,4.559 0.039,6.833 0.304,2.204 0.8,4.363 1.009,6.582 0.144,1.533 0.209,3.185 0.865,4.61 1.298,2.82 5.147,2.807 7.761,2.879 2.599,0.072 5.203,0.143 7.804,0.151 2.068,0.006 4.191,-0.03 6.209,-0.534 1.663,-0.415 3.161,-1.222 4.023,-2.757 1.26,-2.245 1.083,-5.113 0.688,-7.554 -0.689,-4.252 -2.836,-8.186 -3.223,-12.482 -0.218,-2.421 0.114,-4.847 0.09,-7.271 -0.024,-2.441 -0.366,-4.874 -0.291,-7.317 0.057,-1.839 0.555,-3.648 0.544,-5.486 -0.008,-1.29 -0.728,-2.279 -0.978,-3.5 -0.294,-1.44 0.523,-2.858 0.736,-4.253 0.237,-1.555 -0.147,-3.117 -0.128,-4.675 0.015,-1.227 0.267,-2.351 0.81,-3.455 0.679,-1.382 1.058,-2.556 1.027,-4.11 -0.028,-1.402 -0.149,-2.783 0.12,-4.169 0.302,-1.557 1.055,-2.979 1.525,-4.486 0.616,-1.975 0.997,-4.007 1.105,-6.072 0.103,-1.962 0.442,-3.711 0.79,-5.64 0.416,-2.302 0.681,-4.629 0.927,-6.954"
   id="path230"
   inkscape:connector-curvature="0"
   style="fill:none;stroke:#c346ff;stroke-width:2.75;stroke-linecap:round;stroke-linejoin:round;stroke-miterlimit:10" />
	</g><g
     id="POLYLINE_1_">
		
			<path
   stroke-miterlimit="10"
   d="m 241.833,103.09 c -1.189,-2.459 -3.623,-3.796 -6.113,-4.663 -4.763,-1.657 -10.14,-2.325 -15.158,-2.595 -4.721,-0.254 -9.526,0.208 -13.78,2.407 -0.61,0.316 -1.205,0.662 -1.778,1.042 -0.419,0.278 -1.005,0.909 -1.467,0.996 -0.465,0.087 -1.137,-0.123 -1.626,-0.122 -1.093,0 -2.2,0.154 -3.234,0.513 -2.072,0.719 -3.349,2.319 -4.11,4.324 -1.513,3.985 -1.501,8.392 -4.046,11.966 -1.12,1.572 -2.641,3.06 -3.074,5.01 -0.347,1.562 -0.029,3.22 0.285,4.755 0.548,2.68 0.773,5.424 1.357,8.088 0.278,1.27 0.77,2.368 1.657,3.341 0.234,0.257 0.486,0.497 0.744,0.731 0.164,0.148 0.639,0.427 0.721,0.62 0.068,0.158 -0.081,0.673 -0.104,0.845 -0.146,1.1 -0.335,2.197 -0.604,3.274 -0.516,2.069 -1.444,3.87 -2.498,5.709 -0.913,1.592 -1.778,3.188 -2.169,4.997 -0.488,2.258 -0.406,4.591 -0.797,6.862 -0.25,1.451 -0.736,2.722 -1.936,3.659 -1.313,1.025 -2.84,1.669 -3.854,3.043 -2.357,3.197 -2.457,7.562 -4.618,10.893 -1.498,2.308 -3.918,3.11 -6.477,3.791 -1.639,0.436 -3.339,0.828 -4.794,1.736 -1.318,0.823 -2.375,1.996 -3.254,3.264 -0.638,0.921 -1.188,1.9 -1.704,2.893 -0.385,0.74 -0.585,1.048 -1.309,1.475 -0.517,0.305 -1.027,0.621 -1.525,0.956 -0.69,0.464 -1.396,0.951 -1.909,1.613 -0.312,0.404 -0.645,0.644 -1.098,0.97 -0.463,0.333 -0.913,0.683 -1.355,1.043 -0.797,0.647 -1.947,1.237 -2.201,2.267 -0.2,0.812 -0.201,1.691 -0.198,2.522 0.002,0.595 0.094,1.21 0.066,1.802 -0.029,0.613 -0.494,0.992 -0.879,1.485 -0.76,0.974 -1.483,1.978 -2.151,3.018 -1.326,2.064 -2.462,4.277 -3.164,6.635 -0.705,2.367 -0.783,4.775 -0.8,7.228 -0.011,1.689 0.074,3.479 -0.435,5.115 -0.426,1.368 -1.36,2.411 -2.414,3.339 -1.592,1.402 -3.415,2.63 -4.699,4.348 -0.293,0.392 -0.849,1.101 -0.523,1.599 0.351,0.535 1.467,0.385 2.005,0.332 3.567,-0.346 7.707,-1.956 10.056,-4.763 1.178,-1.408 1.884,-3.104 2.538,-4.801 -0.701,7.642 -1.375,15.28 -1.973,22.931 -0.537,6.865 -0.966,13.738 -1.296,20.616 -0.377,7.856 -0.63,15.712 -0.852,23.573 -0.181,6.434 -0.336,12.877 -0.361,19.314 -0.034,8.971 -0.061,17.943 -0.091,26.915 -0.021,6.111 0.071,12.219 0.142,18.33 0.078,6.752 0.081,13.509 0.258,20.259 0.238,9.098 0.477,18.196 0.715,27.295 0.132,5.025 0.383,10.048 0.582,15.07 0.419,10.541 0.837,21.082 1.256,31.623 0.229,5.767 0.484,11.529 0.593,17.299 0.144,7.662 0.103,15.317 0.008,22.98 -0.087,7.001 -0.373,14.002 -0.625,20.999 -0.128,3.555 -0.074,7.172 -0.394,10.716 -0.32,3.538 -0.879,7.076 -1.368,10.596 -1.003,7.226 -1.818,14.589 -3.958,21.588 -0.606,1.981 -1.733,4.429 -0.563,6.423 0.443,0.755 1.112,1.356 1.81,1.869 0.597,0.439 1.235,0.82 1.886,1.171 0.325,0.176 0.806,0.31 1.081,0.549 0.366,0.318 0.206,0.805 0.19,1.335 -0.097,3.309 -0.315,6.612 -0.777,9.891 -0.498,3.538 -1.252,7.133 -1.294,10.719 -0.017,1.448 0.085,3.142 0.897,4.406 1.402,2.182 4.56,0.621 6.405,-0.041 3.27,-1.174 6.309,-2.88 9.561,-4.07 3.331,-1.218 6.986,-1.335 10.479,-1.69 2.985,-0.303 6.009,-0.64 8.875,-1.57 3.259,-1.057 6.017,-3.029 8.902,-4.812 2.784,-1.721 5.794,-2.469 8.953,-3.186 0.511,4.469 1.735,8.949 3.36,13.136 1.322,3.406 3.576,6.973 3.689,10.717 0.027,0.913 -0.123,1.798 -0.384,2.671 -0.397,1.325 -1.166,2.803 -0.996,4.239 0.147,1.24 1.168,2.053 1.902,2.963 1.241,1.538 0.214,2.703 -0.142,4.355 -0.253,1.174 0.005,2.397 0.453,3.491 0.502,1.227 1.484,2.339 1.152,3.742 -0.324,1.368 -1.244,2.523 -1.378,3.949 -0.126,1.347 0.342,2.654 0.406,3.991 0.058,1.23 -0.233,2.388 -0.495,3.584 -0.315,1.438 -0.361,2.768 -0.151,4.226 0.397,2.749 0.338,5.525 2.74,7.321 2.209,1.652 5.071,2.088 7.751,2.247 2.33,0.138 4.663,0.056 6.994,0.004 2.321,-0.052 4.682,-0.004 6.992,-0.27 1.966,-0.226 4.076,-0.768 5.143,-2.602 1.396,-2.398 1.13,-5.667 0.812,-8.287 -0.279,-2.302 -0.854,-4.533 -1.346,-6.794 -0.468,-2.153 -0.64,-4.304 -0.622,-6.504 0.028,-3.469 0.822,-7.94 -1.362,-10.969 -0.874,-1.212 -1.621,-2.217 -1.693,-3.759 -0.074,-1.6 0.267,-3.211 0.06,-4.807 -0.189,-1.459 -1.273,-2.386 -1.695,-3.734 -0.324,-1.038 0.086,-2.154 0.487,-3.11 0.583,-1.389 1.582,-2.839 1.687,-4.388 0.114,-1.686 -1.498,-2.618 -2.343,-3.865 -2.126,-3.133 -0.795,-7.519 -1.023,-11.005 -0.128,-1.956 -0.633,-3.847 -0.699,-5.819 -0.032,-0.964 -0.027,-1.931 0.014,-2.895 0.022,-0.51 -0.039,-0.958 0.289,-1.315 0.321,-0.348 0.879,-0.638 1.29,-0.892 1.156,-0.713 2.324,-0.762 3.651,-0.66 1.83,0.141 3.603,-0.104 5.37,-0.586 2.204,-0.601 4.322,-1.482 6.472,-2.247 -0.173,0 0.106,2.235 0.166,2.489 0.313,1.317 1.024,2.516 1.264,3.853 0.226,1.261 -0.213,2.441 -0.468,3.662 -0.274,1.317 -0.324,2.689 -0.155,4.024 0.264,2.081 1.785,3.782 1.661,5.902 -0.064,1.093 -0.46,2.12 -0.599,3.2 -0.179,1.394 0.299,2.73 0.7,4.044 0.31,1.015 0.587,1.978 0.291,3.035 -0.339,1.209 -1.173,2.307 -1.173,3.599 0,1.059 0.441,2.071 0.434,3.138 -0.009,1.304 -0.902,2.185 -1.165,3.408 -0.212,0.987 -0.032,2.054 0.137,3.03 0.319,1.844 0.727,3.666 0.741,5.546 0.013,1.836 -0.349,3.651 -0.386,5.487 -0.035,1.754 0.186,3.441 0.589,5.143 0.844,3.564 0.05,7.122 0.499,10.714 0.244,1.951 0.722,3.864 0.941,5.82 0.178,1.584 0.201,3.219 0.653,4.759 0.702,2.392 2.659,3.205 4.922,3.51 2.007,0.271 4.057,0.238 6.078,0.279 2.211,0.046 4.429,0.138 6.641,0.071 2.289,-0.07 4.972,-0.203 6.931,-1.562 1.208,-0.838 1.907,-2.159 2.231,-3.567 0.705,-3.055 0.007,-6.387 -0.845,-9.337 -1.102,-3.812 -2.551,-7.286 -2.45,-11.318 0.053,-2.099 0.218,-4.184 0.107,-6.284 -0.117,-2.212 -0.366,-4.441 -0.199,-6.657 0.118,-1.559 0.515,-3.108 0.501,-4.676 -0.01,-1.083 -0.467,-1.942 -0.819,-2.942 -0.492,-1.399 0.076,-2.66 0.417,-4.028 0.305,-1.224 0.232,-2.403 0.122,-3.651 -0.104,-1.182 -0.164,-2.385 0.091,-3.553 0.284,-1.302 1.14,-2.363 1.474,-3.643 0.584,-2.234 -0.156,-4.597 0.421,-6.861 0.391,-1.538 1.13,-2.967 1.568,-4.495 0.507,-1.764 0.833,-3.565 0.935,-5.398 0.211,-3.79 1.14,-7.472 1.566,-11.249 0.042,-0.372 -0.033,-1.248 0.184,-1.483 0.189,-0.205 1.119,-0.311 1.393,-0.381 0.948,-0.245 1.905,-0.461 2.871,-0.622 1.757,-0.293 3.535,-0.359 5.311,-0.234 2.4,0.169 4.903,0.81 7.23,-0.09 2.753,-1.065 4.706,-3.535 7.274,-4.943 1.746,-0.958 3.66,-1.58 5.485,-2.365 1.789,-0.769 3.473,-1.705 5.162,-2.669 3.18,-1.815 6.326,-3.523 10.025,-3.898 3.732,-0.378 7.411,0 10.987,-1.351 1.735,-0.656 3.511,-1.482 5.104,-2.431 1.092,-0.65 1.129,-1.597 0.926,-2.739 -0.278,-1.56 -0.764,-3.099 -1.165,-4.629 -0.806,-3.072 -1.612,-6.143 -2.418,-9.215 -1.103,-4.202 -2.163,-8.413 -3.222,-12.627 -0.999,-3.978 -1.958,-7.969 -2.877,-11.966 -0.86,-3.741 -1.694,-7.493 -2.481,-11.25 -1.097,-5.239 -2.194,-10.478 -3.291,-15.717 -0.984,-4.702 -1.945,-9.409 -2.954,-14.106 -0.833,-3.882 -1.736,-7.757 -2.652,-11.62 -1.016,-4.286 -2.06,-8.571 -3.163,-12.836 -1.194,-4.619 -2.432,-9.224 -3.723,-13.816 -1.18,-4.196 -2.481,-8.356 -3.859,-12.491 -0.612,-1.836 -1.248,-3.666 -1.916,-5.483 -0.252,-0.685 -0.504,-1.37 -0.756,-2.055 -0.194,-0.529 -0.378,-0.637 -0.036,-1.018 0.469,-0.524 1.252,-0.947 1.853,-1.314 -0.159,0.797 -0.657,2.345 -0.012,3.043 0.492,0.532 1.434,0.369 2.065,0.227 1.068,-0.241 2.139,-0.724 3.011,-1.388 2.932,-2.234 2.142,-6.516 1.573,-9.643 -1.275,-7.013 -3.342,-13.866 -4.248,-20.95 -0.908,-7.101 -0.966,-14.309 -1.515,-21.445 -0.577,-7.498 -1.348,-14.978 -2.109,-22.459 -0.595,-5.853 -1.317,-11.694 -2.084,-17.527 -1.165,-8.85 -2.329,-17.7 -3.494,-26.551 -0.765,-5.815 -1.327,-11.664 -1.763,-17.512 -0.598,-8.025 -1.097,-16.063 -1.859,-24.075 -0.661,-6.946 -1.664,-13.861 -2.925,-20.722 -0.633,-3.444 -1.322,-6.876 -2.064,-10.298 -0.275,-1.268 -0.549,-2.536 -0.824,-3.804 -0.124,-0.572 -0.45,-1.354 -0.325,-1.918 0.135,-0.61 0.593,-1.275 0.832,-1.86 0.284,-0.698 0.544,-1.405 0.788,-2.118 0.578,-1.692 1.072,-3.416 1.558,-5.137 0.244,-0.864 0.535,-1.791 0.531,-2.701 -0.004,-1.049 -0.644,-1.392 -1.582,-1.573 -1.673,-0.322 -3.393,-0.487 -5.085,-0.671 -7.204,-0.782 -14.452,-0.923 -21.681,-1.361 -3.304,-0.2 -6.611,-0.508 -9.86,-1.156 -0.6,-0.12 -2.235,-0.238 -2.488,-0.705 -0.231,-0.428 -0.116,-1.386 -0.197,-1.895 -0.145,-0.906 -0.364,-1.806 -0.727,-2.651 -0.749,-1.744 -2.257,-3.204 -2.244,-5.207 0.016,-2.433 1.317,-4.793 1.958,-7.093 0.457,-1.64 0.661,-3.243 0.311,-4.917 -0.486,-2.326 -1.769,-4.438 -2.005,-6.822 -0.253,-2.559 0.593,-5.07 0.771,-7.605 0.179,-2.554 -0.725,-4.835 -1.455,-7.242 -0.132,-0.436 -0.582,-1.387 -0.468,-1.862 0.08,-0.337 0.766,-0.819 1.021,-1.103 0.744,-0.828 1.409,-1.732 1.965,-2.696 0.731,-1.269 1.356,-2.728 1.372,-4.219 0.023,-2.256 -1.708,-3.853 -2.56,-5.8 -0.925,-2.114 -0.324,-4.395 -0.374,-6.613 -0.058,-2.581 -1.699,-3.746 -3.248,-5.569 -1.467,-1.727 -1.753,-3.815 -2.358,-5.938 -0.251,-0.882 -0.569,-1.809 -1.308,-2.404 -0.838,-0.677 -1.98,-0.816 -3.008,-0.991 z"
   id="path237"
   inkscape:connector-curvature="0"
   style="fill:none;stroke:#0000ff;stroke-width:3.5;stroke-linecap:round;stroke-linejoin:round;stroke-miterlimit:10" />
	</g></g>
</svg>