<?xml version="1.0" encoding="UTF-8" standalone="no"?>
<!-- Generator: Adobe Illustrator 23.0.3, SVG Export Plug-In . SVG Version: 6.00 Build 0)  -->

<svg
   xmlns:ns="&amp;ns_sfw;"
   xmlns:dc="http://purl.org/dc/elements/1.1/"
   xmlns:cc="http://creativecommons.org/ns#"
   xmlns:rdf="http://www.w3.org/1999/02/22-rdf-syntax-ns#"
   xmlns:svg="http://www.w3.org/2000/svg"
   xmlns="http://www.w3.org/2000/svg"
   xmlns:sodipodi="http://sodipodi.sourceforge.net/DTD/sodipodi-0.dtd"
   xmlns:inkscape="http://www.inkscape.org/namespaces/inkscape"
   version="1.1"
   x="0px"
   y="0px"
   viewBox="0 0 1000 725"
   enable-background="new 0 0 1000 725"
   xml:space="preserve"
   id="svg361"
   sodipodi:docname="Jon-Snow.svg"
   inkscape:version="0.92.4 (5da689c313, 2019-01-14)"><defs
   id="defs365">
	
	
	
	
	
	
	
	
	
	
	
	
	
	
	
	
	
	
	
	
	
	
	
	
	
	
	
	
	
	
	
	
	
	
	
	
	
	
	
	
	
	
	
	
	
	
	
	
	
	
	
	
	
	
	
	
	
	
	
	
	
	
	
	
	
	
	
	
	
	
	
	
	
	
	
	
	
	
	
	
	
	
	
	
	
	
	
	
	
	
	
	
	
	
	
	
	
	
	
	
	
	
	
	
	
	
	

	
	
	
	
	
</defs><sodipodi:namedview
   pagecolor="#ffffff"
   bordercolor="#666666"
   borderopacity="1"
   objecttolerance="10"
   gridtolerance="10"
   guidetolerance="10"
   inkscape:pageopacity="0"
   inkscape:pageshadow="2"
   inkscape:window-width="1920"
   inkscape:window-height="1018"
   id="namedview363"
   showgrid="false"
   inkscape:zoom="0.32551724"
   inkscape:cx="-412.82437"
   inkscape:cy="125.57335"
   inkscape:window-x="-8"
   inkscape:window-y="-8"
   inkscape:window-maximized="1"
   inkscape:current-layer="svg361" />
<metadata
   id="metadata2">
	<ns:sfw>
		<ns:slices />
		<ns:sliceSourceBounds
   bottomLeftOrigin="true"
   height="3850"
   width="9389.062"
   x="-3544.062"
   y="1000" />
	</ns:sfw>
<rdf:RDF><cc:Work
     rdf:about=""><dc:format>image/svg+xml</dc:format><dc:type
       rdf:resource="http://purl.org/dc/dcmitype/StillImage" /></cc:Work></rdf:RDF></metadata>
<g
   id="FILL-BACKGROUND">
	<rect
   fill="#FFFFFF"
   width="1000"
   height="725"
   id="rect4" />
</g>
<g
   id="N-DIMENSIONS">
</g>
<g
   id="N-TEXT">
</g>

<g
   id="AG-GUIDES">
</g>
<g
   id="AG-DETAILS">
</g>

<g
   id="g1464"
   transform="matrix(1.5235628,0,0,1.5235628,-323.37557,-350.34356)"><g
     id="POLYLINE_580_">
		
			<path
   stroke-miterlimit="10"
   d="m 735.166,238.019 c -0.77,-0.589 -0.006,-2.216 0.366,-2.876 0.555,-0.983 1.406,-1.729 2.368,-2.298 1.88,-1.112 4.116,-1.745 6.222,-2.265 2.234,-0.551 4.559,-0.821 6.845,-0.457 1.166,0.186 2.332,0.515 3.379,1.068 0.891,0.47 2.891,1.899 2.248,3.127 -0.605,1.156 -4.16,-0.186 -4.862,-0.35 -1.807,-0.422 -3.659,-0.711 -5.515,-0.493 -1.615,0.19 -3.118,0.763 -4.553,1.51 -1.82,0.947 -3.561,2.404 -5.535,3.011 -0.302,0.092 -0.67,0.201 -0.963,0.023 z"
   id="path23"
   inkscape:connector-curvature="0"
   style="fill:none;stroke:#c346ff;stroke-width:2.75;stroke-linecap:round;stroke-linejoin:round;stroke-miterlimit:10" />
	</g><g
     id="POLYLINE_657_">
		
			<path
   stroke-miterlimit="10"
   d="m 685.56,461.973 c 1.647,-6.164 3.257,-12.338 4.941,-18.492 1.52,-5.555 3.041,-11.173 5.119,-16.551 2.087,-5.403 5.363,-10.143 8.703,-14.835 3.506,-4.925 7.211,-9.736 10.346,-14.914 2.811,-4.642 5.223,-9.605 6.416,-14.927 0.132,-0.587 0.244,-1.177 0.349,-1.77"
   id="path254"
   inkscape:connector-curvature="0"
   style="fill:none;stroke:#c346ff;stroke-width:2.75;stroke-linecap:round;stroke-linejoin:round;stroke-miterlimit:10" />
	</g><g
     id="POLYLINE_658_">
		
			<path
   stroke-miterlimit="10"
   d="m 727.353,391.045 c -1.587,4.208 -2.916,8.219 -5.695,11.832 -3.096,4.026 -6.688,7.687 -10.091,11.448 -2.962,3.273 -5.815,6.662 -8.427,10.223 -2.687,3.663 -5.054,7.536 -7.139,11.571 -2.155,4.172 -4.034,8.486 -5.746,12.856 -1.559,3.981 -3.021,8.007 -4.372,12.064 -1.935,5.814 -3.87,11.629 -5.805,17.443 -1.102,3.312 -2.266,6.602 -3.456,9.884 -2.102,5.797 -4.204,11.595 -6.306,17.392 -0.604,1.667 -1.176,3.348 -1.685,5.046 -0.361,1.204 -1.071,2.949 -0.65,4.234 0.403,1.232 2.061,1.378 3.148,1.511 1.841,0.226 3.728,0.348 5.579,0.174 1.836,-0.173 3.763,-0.664 5.103,-2.01 2.038,-2.047 2.584,-5.291 3.109,-7.994 0.908,-4.679 1.799,-9.304 3.27,-13.849 1.405,-4.34 3.153,-8.566 5.199,-12.643 2.028,-4.04 4.353,-7.92 6.893,-11.657 2.389,-3.515 4.918,-6.941 7.529,-10.294 3.303,-4.241 6.632,-8.463 9.91,-12.722 2.89,-3.755 5.72,-7.583 8.216,-11.614 2.256,-3.643 4.257,-7.488 5.508,-11.601 0.562,-1.848 0.964,-3.743 1.176,-5.664"
   id="path257"
   inkscape:connector-curvature="0"
   style="fill:none;stroke:#c346ff;stroke-width:2.75;stroke-linecap:round;stroke-linejoin:round;stroke-miterlimit:10" />
	</g><g
     id="POLYLINE_659_">
		
			<path
   stroke-miterlimit="10"
   d="m 727.353,391.045 c 1.276,2.965 2.561,5.908 3.343,9.05 0.739,2.97 1.117,6.025 1.405,9.068 0.65,6.883 0.788,13.809 0.883,20.718 0.071,5.121 0.018,10.244 0.007,15.366 -0.02,9.994 -0.041,19.988 -0.061,29.983 -0.013,6.308 -0.047,12.616 -0.039,18.924 0.008,5.974 0.038,11.957 0.165,17.93 0.152,7.181 0.261,14.366 0.585,21.542 0.309,6.833 0.61,13.737 1.683,20.501 0.322,2.029 0.619,4.338 1.674,6.149 0.838,1.437 2.313,1.967 3.823,2.442 2.244,0.705 4.552,1.189 6.846,1.7 4.422,0.984 8.843,1.969 13.264,2.953 6.593,1.468 13.198,3.18 19.869,4.276 1.57,0.258 4.082,0.884 5.57,-0.106 1.654,-1.1 1.166,-4.156 1.044,-5.773 -0.258,-3.41 -0.607,-6.801 -0.753,-10.219 -0.15,-3.511 -0.155,-7.026 -0.171,-10.539 -0.034,-7.414 0.122,-14.833 0.19,-22.246 0.052,-5.744 0.051,-11.468 -0.032,-17.211 -0.11,-7.627 -0.29,-15.256 -0.26,-22.885 0.026,-6.717 0.363,-13.423 0.952,-20.113 0.613,-6.955 1.488,-13.883 2.441,-20.798 0.904,-6.558 1.918,-13.107 2.955,-19.645 1.214,-7.658 2.5,-15.305 3.75,-22.957 0.449,-2.749 0.974,-5.486 1.465,-8.227"
   id="path260"
   inkscape:connector-curvature="0"
   style="fill:none;stroke:#c346ff;stroke-width:2.75;stroke-linecap:round;stroke-linejoin:round;stroke-miterlimit:10" />
	</g><g
     id="POLYLINE_660_">
		
			<path
   stroke-miterlimit="10"
   d="m 721.582,370.291 c -0.872,-6.089 -2.716,-11.973 -3.4,-18.091 -0.186,-1.662 -0.315,-3.329 -0.395,-5"
   id="path263"
   inkscape:connector-curvature="0"
   style="fill:none;stroke:#c346ff;stroke-width:2.75;stroke-linecap:round;stroke-linejoin:round;stroke-miterlimit:10" />
	</g><g
     id="POLYLINE_661_">
		
			<path
   stroke-miterlimit="10"
   d="m 721.425,380.474 c -1.311,-1.895 -0.943,-4.6 -0.721,-6.737 0.088,-0.849 0.129,-2.744 0.851,-3.416 0.824,-0.767 2.473,1.645 3.044,2.157 2.611,2.344 5.929,3.934 9.142,5.266 3.569,1.479 7.281,2.611 11.047,3.462 7.813,1.764 15.908,2.269 23.898,1.93 7.531,-0.319 15.421,-1.28 22.414,-4.248 3.609,-1.532 6.799,-3.718 9.964,-6.001 3.245,-2.34 6.615,-4.458 10.162,-6.318 0.378,-0.198 0.826,-0.477 1.241,-0.224 0.431,0.263 0.598,1.005 0.749,1.453 0.561,1.669 1.214,3.4 1.535,5.138 0.163,0.887 0.146,1.813 -0.552,2.493 -0.75,0.73 -1.874,1.243 -2.743,1.835 -0.506,0.344 -1.007,0.696 -1.51,1.044 -6.814,4.713 -13.593,10.253 -21.45,13.149 -7.072,2.607 -14.781,3.073 -22.255,3.003 -8.126,-0.076 -16.31,-0.777 -24.289,-2.344 -3.667,-0.72 -7.441,-1.554 -10.829,-3.179 -2.92,-1.4 -4.837,-3.637 -7.152,-5.823 -0.88,-0.832 -1.85,-1.637 -2.546,-2.64 z"
   id="path266"
   inkscape:connector-curvature="0"
   style="fill:none;stroke:#c346ff;stroke-width:2.75;stroke-linecap:round;stroke-linejoin:round;stroke-miterlimit:10" />
	</g><g
     id="POLYLINE_662_">
		
			<path
   stroke-miterlimit="10"
   d="m 811.792,366.302 c -0.391,-1.795 -0.718,-3.62 -0.467,-5.456 0.255,-1.861 0.858,-3.587 0.718,-5.484 -0.202,-2.737 -1.058,-5.394 -1.567,-8.08 -0.476,-2.51 -0.513,-5.028 -0.47,-7.575 0.113,-6.717 -0.361,-13.423 -0.683,-20.129 -0.259,-5.379 -0.306,-10.798 0.834,-16.089 1.199,-5.564 3.119,-10.923 3.281,-16.668 0.166,-5.894 -0.884,-11.778 -2.151,-17.511 -1.24,-5.611 -2.576,-11.351 -5.065,-16.561 -2.457,-5.142 -6.376,-9.068 -10.138,-13.256 -1.82,-2.027 -3.154,-4.437 -5.001,-6.428 -1.421,-1.532 -3.195,-2.634 -5.05,-3.568 -2.596,-1.307 -5.339,-2.332 -8.11,-3.197 -2.515,-0.785 -5.14,-1.545 -7.783,-1.7 -1.18,-0.07 -2.358,0.029 -3.536,0.1"
   id="path269"
   inkscape:connector-curvature="0"
   style="fill:none;stroke:#c346ff;stroke-width:2.75;stroke-linecap:round;stroke-linejoin:round;stroke-miterlimit:10" />
	</g><g
     id="POLYLINE_663_">
		
			<path
   stroke-miterlimit="10"
   d="m 797.951,390.925 c 3.048,5.464 6.065,10.942 8.918,16.511 2.784,5.434 5.414,10.941 7.912,16.512 2.5,5.575 4.768,11.257 6.842,17.003 2.135,5.916 4.037,11.913 6,17.888 1.855,5.646 3.667,11.309 5.692,16.897 2.126,5.867 4.502,11.634 7.048,17.331 2.397,5.364 4.964,10.663 7.639,15.893 2.886,5.643 5.797,11.278 8.82,16.849 2.911,5.363 5.815,10.798 9.356,15.78 1.06,1.492 2.536,3.909 4.404,4.532 1.754,0.585 2.862,-2.365 3.482,-3.435 1.436,-2.477 3.113,-4.814 4.404,-7.375 0.734,-1.454 1.398,-3.024 1.411,-4.679 0.013,-1.568 -0.566,-3.046 -1.181,-4.462 -1.258,-2.893 -2.55,-5.772 -3.93,-8.608 -2.774,-5.697 -6.175,-11.026 -9.496,-16.413 -3.015,-4.892 -5.903,-9.866 -8.311,-15.09 -2.483,-5.387 -4.439,-11.003 -6.246,-16.646 -2.108,-6.584 -4.115,-13.201 -6.164,-19.803 -1.656,-5.336 -3.479,-10.626 -5.48,-15.842 -2.103,-5.481 -4.412,-10.888 -6.847,-16.229 -2.755,-6.045 -5.592,-12.049 -8.424,-18.059 -2.5,-5.305 -5.186,-10.579 -7.259,-16.072 -0.986,-2.614 -1.647,-5.294 -2.295,-8.008"
   id="path272"
   inkscape:connector-curvature="0"
   style="fill:none;stroke:#c346ff;stroke-width:2.75;stroke-linecap:round;stroke-linejoin:round;stroke-miterlimit:10" />
	</g><g
     id="POLYLINE_664_">
		
			<path
   stroke-miterlimit="10"
   d="m 733.362,525.979 c -0.878,0.828 -1.37,2.168 -1.859,3.237 -0.754,1.649 -1.466,3.32 -2.3,4.931 -1.51,2.916 -3.52,5.515 -6.106,7.555 -5.078,4.005 -11.775,5.776 -18.013,6.992 -3.426,0.668 -6.909,1.119 -10.4,1.237 -1.743,0.059 -3.486,-0.096 -5.227,-0.033 -0.679,0.025 -1.533,0.064 -2.014,0.612 -1.301,1.48 0.489,5.057 1.034,6.412 1.505,3.737 3.295,7.36 4.973,11.02 3.003,6.55 5.257,13.312 6.998,20.3 1.99,7.99 3.6,16.074 5.33,24.122 0.745,3.469 1.492,6.938 2.236,10.407 0.47,2.191 1.284,4.622 0.902,6.895 -0.761,4.522 -5.622,7.324 -9.38,9.043 -6.798,3.109 -14.165,4.266 -21.366,6.039 -5.562,1.37 -11.696,3.467 -14.35,9.016 -1.236,2.583 -1.415,5.596 -0.065,8.164 1.452,2.762 4.239,4.225 7.222,4.794 3.051,0.582 6.217,0.505 9.305,0.379 4.018,-0.164 8.037,-0.377 12.059,-0.397 7.757,-0.039 15.511,0.301 23.266,0.383 7.47,0.079 15.013,0.057 22.429,-0.951 3.785,-0.514 9.284,-1.082 10.876,-5.228 0.981,-2.555 0.983,-5.512 0.975,-8.209 -0.011,-3.869 -0.334,-7.728 -0.63,-11.583 -0.577,-7.503 -1.143,-14.968 -1.504,-22.484 -0.363,-7.553 -1.805,-14.88 -2.882,-22.346 -0.51,-3.539 -0.858,-7.075 -0.925,-10.651 -0.075,-3.966 -0.096,-7.922 -0.504,-11.871 -0.371,-3.589 -0.938,-7.15 -1.495,-10.714"
   id="path275"
   inkscape:connector-curvature="0"
   style="fill:none;stroke:#c346ff;stroke-width:2.75;stroke-linecap:round;stroke-linejoin:round;stroke-miterlimit:10" />
	</g><g
     id="POLYLINE_665_">
		
			<path
   stroke-miterlimit="10"
   d="m 689.367,549.921 c -0.974,-1.657 -1.86,-3.336 -2.314,-5.216 -0.58,-2.403 -0.729,-4.936 -1.015,-7.383 -0.649,-5.557 -1.468,-11.088 -2.251,-16.628 -0.345,-2.438 -0.729,-4.875 -0.95,-7.329"
   id="path278"
   inkscape:connector-curvature="0"
   style="fill:none;stroke:#c346ff;stroke-width:2.75;stroke-linecap:round;stroke-linejoin:round;stroke-miterlimit:10" />
	</g><g
     id="POLYLINE_666_">
		
			<path
   stroke-miterlimit="10"
   d="m 852.723,518.107 c -1.549,2.859 -2.494,5.955 -4.371,8.648 -1.746,2.505 -4.037,4.51 -6.583,6.173 -5.374,3.511 -11.719,6.175 -18.009,7.474 -1.358,0.281 -2.731,0.461 -4.118,0.503 -1.309,0.04 -2.634,-0.109 -3.938,0.024 -1.97,0.2 -3.018,1.5 -2.346,3.394 0.914,2.577 2.892,4.882 4.437,7.095 2.023,2.898 4.014,5.811 5.933,8.78 3.709,5.738 7.283,11.578 10.705,17.492 3.674,6.349 7.381,12.683 10.739,19.207 1.581,3.072 3.118,6.186 4.358,9.415 1.081,2.814 1.418,5.865 2.553,8.643 0.928,2.273 2.71,4.044 3.779,6.234 0.757,1.552 0.661,3.334 1.408,4.894 0.995,2.076 2.55,3.863 3.199,6.103 0.41,1.416 0.51,2.9 0.703,4.355 0.223,1.685 0.601,3.344 0.944,5.008 0.597,2.889 1.147,5.794 0.897,8.757 -0.258,3.046 -1.199,6.004 -1.287,9.067 -0.05,1.732 0.164,3.629 1.323,5.004 1.3,1.543 3.442,2.195 5.35,2.562 3.112,0.599 6.296,0.473 9.445,0.386 3.617,-0.1 7.232,-0.095 10.85,-0.161 3.297,-0.059 9.62,0.002 10.089,-4.498 0.193,-1.854 -0.388,-3.766 -1.02,-5.484 -1.186,-3.223 -2.946,-6.158 -4.644,-9.128 -1.586,-2.774 -2.998,-5.632 -3.984,-8.678 -1.09,-3.369 -1.638,-6.888 -2.378,-10.343 -0.642,-2.996 -1.676,-5.571 -3.062,-8.289 -0.812,-1.592 -1.057,-2.989 -1.017,-4.773 0.056,-2.489 -0.189,-4.531 -1.177,-6.833 -1.297,-3.022 -2.899,-5.888 -4.039,-8.98 -2.287,-6.204 -3.643,-12.73 -5.165,-19.151 -1.699,-7.17 -3.342,-14.358 -5.185,-21.492 -1.832,-7.092 -3.877,-14.118 -5.936,-21.147 -0.939,-3.205 -1.881,-6.406 -2.762,-9.628"
   id="path281"
   inkscape:connector-curvature="0"
   style="fill:none;stroke:#c346ff;stroke-width:2.75;stroke-linecap:round;stroke-linejoin:round;stroke-miterlimit:10" />
	</g><g
     id="POLYLINE_667_">
		
			<path
   stroke-miterlimit="10"
   d="m 814.894,541.07 c -1.483,-0.946 -2.841,-2.235 -3.404,-3.938 -0.318,-0.959 -0.515,-1.861 -1.121,-2.689 -0.738,-1.009 -1.73,-1.812 -2.426,-2.854 -0.617,-0.922 -0.87,-1.971 -1.107,-3.04"
   id="path284"
   inkscape:connector-curvature="0"
   style="fill:none;stroke:#c346ff;stroke-width:2.75;stroke-linecap:round;stroke-linejoin:round;stroke-miterlimit:10" />
	</g><g
     id="POLYLINE_668_">
		
			<path
   stroke-miterlimit="10"
   d="m 786.628,530.033 c 5.05,0.784 10.106,1.376 15.136,0.129 5.467,-1.355 10.537,-3.957 16.019,-5.287 2.501,-0.606 5.05,-0.904 7.61,-1.128 2.4,-0.209 5.06,-0.18 7.388,-0.893 1.353,-0.414 1.677,-1.223 1.243,-2.518 -0.842,-2.509 -1.872,-4.917 -2.598,-7.473 -1.503,-5.289 -2.708,-10.657 -3.983,-16.004 -1.462,-6.129 -2.876,-12.271 -4.387,-18.388 -1.242,-5.029 -2.595,-10.026 -3.941,-15.028 -2.056,-7.642 -4.113,-15.284 -6.169,-22.926 -1.246,-4.63 -2.481,-9.27 -3.531,-13.948 -1.35,-6.016 -2.401,-12.061 -3.389,-18.145 -0.207,-1.274 -0.414,-2.547 -0.62,-3.821"
   id="path287"
   inkscape:connector-curvature="0"
   style="fill:none;stroke:#c346ff;stroke-width:2.75;stroke-linecap:round;stroke-linejoin:round;stroke-miterlimit:10" />
	</g><g
     id="POLYLINE_669_">
		
			<path
   stroke-miterlimit="10"
   d="m 770.315,211.769 c 1.121,0.248 2.543,0.608 2.766,1.919 0.187,1.103 -0.233,2.228 -0.09,3.34 0.308,2.39 3.306,3.112 3.844,5.479 0.256,1.127 0.119,2.318 -0.07,3.443"
   id="path290"
   inkscape:connector-curvature="0"
   style="fill:none;stroke:#c346ff;stroke-width:2.75;stroke-linecap:round;stroke-linejoin:round;stroke-miterlimit:10" />
	</g><g
     id="POLYLINE_670_">
		
			<path
   stroke-miterlimit="10"
   d="m 726.621,164.681 c 3.526,-4.662 7.051,-9.325 10.577,-13.987 2.328,-3.079 4.639,-6.171 6.996,-9.228 3.916,-5.081 7.832,-10.163 11.748,-15.244 4.251,-5.516 8.503,-11.032 12.754,-16.549 1.39,-1.803 2.794,-3.592 4.209,-5.376 4.051,-5.108 8.102,-10.216 12.153,-15.324 4.836,-6.098 9.673,-12.197 14.509,-18.295 2.599,-3.277 5.192,-6.558 7.796,-9.831 3.032,-3.81 6.058,-7.62 9.362,-11.2 3.684,-3.992 7.591,-7.748 11.617,-11.393 0.901,-0.816 1.82,-1.613 2.732,-2.416 -1.779,4.497 -3.767,8.898 -6.036,13.171 -2.281,4.297 -4.785,8.479 -7.443,12.553 -2.275,3.487 -4.594,6.951 -7,10.349 -1.437,2.03 -2.895,4.046 -4.342,6.068 -3.048,4.26 -6.096,8.519 -9.144,12.779 -4.035,5.639 -8.07,11.278 -12.105,16.918 -4.352,6.082 -8.704,12.164 -13.056,18.246 -4.053,5.664 -8.105,11.327 -12.158,16.991 -3.121,4.361 -6.242,8.723 -9.362,13.084 -1.559,2.179 -3.118,4.358 -4.677,6.536 -0.068,0.095 -0.136,0.191 -0.205,0.286"
   id="path293"
   inkscape:connector-curvature="0"
   style="fill:none;stroke:#c346ff;stroke-width:2.75;stroke-linecap:round;stroke-linejoin:round;stroke-miterlimit:10" />
	</g><g
     id="POLYLINE_671_">
		
			<path
   stroke-miterlimit="10"
   d="m 681.142,257.704 c 4.177,-6.411 8.34,-12.831 12.531,-19.233 4.047,-6.183 8.226,-12.284 12.339,-18.423 1.907,-2.846 3.814,-5.692 5.721,-8.538"
   id="path296"
   inkscape:connector-curvature="0"
   style="fill:none;stroke:#c346ff;stroke-width:2.75;stroke-linecap:round;stroke-linejoin:round;stroke-miterlimit:10" />
	</g><g
     id="POLYLINE_672_">
		
			<path
   stroke-miterlimit="10"
   d="m 667.236,245.784 c 2.409,-3.345 4.819,-6.69 7.228,-10.035 3.806,-5.284 7.612,-10.568 11.418,-15.852 1.418,-1.969 2.839,-3.934 4.274,-5.89 3.702,-5.044 7.405,-10.089 11.107,-15.133 2.882,-3.926 5.763,-7.852 8.645,-11.778 0.051,-0.069 0.102,-0.138 0.152,-0.207"
   id="path299"
   inkscape:connector-curvature="0"
   style="fill:none;stroke:#c346ff;stroke-width:2.75;stroke-linecap:round;stroke-linejoin:round;stroke-miterlimit:10" />
	</g><g
     id="POLYLINE_673_">
		
			<line
   stroke-miterlimit="10"
   x1="676.776"
   y1="260.63699"
   x2="677.58099"
   y2="259.535"
   id="line302"
   style="fill:none;stroke:#c346ff;stroke-width:2.75;stroke-linecap:round;stroke-linejoin:round;stroke-miterlimit:10" />
	</g><g
     id="POLYLINE_674_">
		
			<line
   stroke-miterlimit="10"
   x1="663.24799"
   y1="255.716"
   x2="666.63098"
   y2="251.12601"
   id="line305"
   style="fill:none;stroke:#c346ff;stroke-width:2.75;stroke-linecap:round;stroke-linejoin:round;stroke-miterlimit:10" />
	</g><g
     id="POLYLINE_675_">
		
			<path
   stroke-miterlimit="10"
   d="m 667.236,245.784 c -3.983,-2.766 -7.489,-7.089 -9.605,-11.437 -0.984,-2.021 -1.382,-4.279 -2.378,-6.282 -0.294,-0.59 -0.736,-1.291 -1.499,-1.113 -0.785,0.183 -1.1,1.064 -1.184,1.77 -0.201,1.673 0.362,3.456 0.888,5.015 0.818,2.425 1.92,4.762 3.203,6.974 1.346,2.32 2.913,4.55 4.804,6.46 1.886,1.905 4.121,3.337 6.413,4.698 2.486,1.476 4.92,2.988 7.078,4.93 1.909,1.718 3.343,3.886 5.284,5.562 3.669,3.168 8.743,4.968 13.377,6.146 2.027,0.515 4.261,1.037 6.369,0.79 1.44,-0.168 2.852,-1.202 2.096,-2.817 -0.725,-1.546 -3.546,-1.243 -4.887,-1.452 -2.618,-0.409 -5.187,-1.206 -7.672,-2.108 -3.307,-1.201 -6.729,-2.512 -8.635,-5.621 -1.103,-1.8 -2.032,-3.674 -3.582,-5.146 -2.003,-1.902 -4.501,-3.169 -6.898,-4.491 -1.077,-0.594 -2.158,-1.177 -3.172,-1.878 z"
   id="path308"
   inkscape:connector-curvature="0"
   style="fill:none;stroke:#c346ff;stroke-width:2.75;stroke-linecap:round;stroke-linejoin:round;stroke-miterlimit:10" />
	</g><g
     id="POLYLINE_676_">
		
			<path
   stroke-miterlimit="10"
   d="m 712.322,305.494 c -0.37,-4.712 -0.457,-9.457 -0.16,-14.177 0.296,-4.69 1.134,-9.301 2.205,-13.871 1.238,-5.283 2.667,-10.522 4.028,-15.774 1.094,-4.219 1.903,-8.471 2.752,-12.743 0.831,-4.182 2.252,-8 4.436,-11.67 0.294,-0.494 0.6,-0.981 0.908,-1.467"
   id="path311"
   inkscape:connector-curvature="0"
   style="fill:none;stroke:#c346ff;stroke-width:2.75;stroke-linecap:round;stroke-linejoin:round;stroke-miterlimit:10" />
	</g><g
     id="POLYLINE_677_">
		
			<path
   stroke-miterlimit="10"
   d="m 641.155,276.133 c -0.579,-2.262 -0.834,-4.075 0.965,-5.869 2.122,-2.116 4.989,-3.451 6.556,-6.096 1.679,-2.836 2.252,-6.147 4.341,-8.78 1.484,-1.871 3.291,-2.771 5.623,-1.925 1.661,0.602 3.152,1.591 4.756,2.321 1.432,0.651 2.931,1.009 4.481,1.254 3.024,0.478 5.765,0.868 8.162,2.92 2.675,2.291 4.45,5.465 5.942,8.604 0.76,1.598 1.418,3.416 2.523,4.821 0.751,0.955 1.787,1.55 2.875,2.048 4.083,1.866 8.556,2.828 12.8,4.244 2.218,0.74 4.363,1.636 6.509,2.558 1.565,0.673 3.258,1.132 4.784,1.876 0.505,0.246 0.946,0.577 1.375,0.937"
   id="path314"
   inkscape:connector-curvature="0"
   style="fill:none;stroke:#c346ff;stroke-width:2.75;stroke-linecap:round;stroke-linejoin:round;stroke-miterlimit:10" />
	</g><g
     id="POLYLINE_678_">
		
			<path
   stroke-miterlimit="10"
   d="m 646.569,277.673 c 1.285,-0.421 2.546,-0.881 3.412,-1.979 0.715,-0.906 1.177,-1.99 1.98,-2.832 2.067,-2.167 5.564,-2.164 8.139,-3.423 2.319,-1.134 3.928,-4.047 6.791,-3.7 2.328,0.282 4.656,2.083 4.326,4.61 -0.187,1.432 -0.908,2.78 -1.586,4.027 -1.08,1.989 -2.165,4.013 -3.541,5.818 -0.325,0.426 -0.667,0.838 -1.027,1.235"
   id="path317"
   inkscape:connector-curvature="0"
   style="fill:none;stroke:#c346ff;stroke-width:2.75;stroke-linecap:round;stroke-linejoin:round;stroke-miterlimit:10" />
	</g><g
     id="POLYLINE_679_">
		
			<path
   stroke-miterlimit="10"
   d="m 692.919,344.412 c 2.462,2.314 5.179,3.935 8.461,4.796 3.625,0.951 7.454,1.146 11.166,0.673 7.004,-0.892 13.233,-4.045 19.023,-7.941 7.455,-5.016 14.939,-9.909 22.542,-14.696 6.673,-4.201 13.421,-8.325 19.724,-13.075 6.345,-4.782 12.04,-10.293 16.896,-16.589 0.598,-0.775 1.181,-1.561 1.759,-2.35"
   id="path320"
   inkscape:connector-curvature="0"
   style="fill:none;stroke:#c346ff;stroke-width:2.75;stroke-linecap:round;stroke-linejoin:round;stroke-miterlimit:10" />
	</g><g
     id="POLYLINE_680_">
		
			<path
   stroke-miterlimit="10"
   d="m 708.616,309.474 c 0.867,-0.487 1.601,-0.906 2.209,-1.717 0.953,-1.271 1.664,-2.708 2.74,-3.889 1.961,-2.152 4.949,-2.653 7.432,-3.969 2.969,-1.574 5.169,-4.242 8.081,-5.887 1.996,-1.128 4.154,-1.371 5.619,-3.269 2.145,-2.778 3.197,-6.45 4.586,-9.622 1.639,-3.742 3.396,-7.435 5.569,-10.901 2.041,-3.255 4.445,-6.304 7.33,-8.855 2.703,-2.39 5.806,-4.298 9.162,-5.622 3.415,-1.348 7.044,-2.12 10.681,-2.556 4.25,-0.509 8.576,-0.55 12.833,-0.108 3.62,0.376 7.256,1.08 10.625,2.492 2.781,1.166 5.318,2.843 7.415,5.016 2.52,2.611 4.381,5.821 5.724,9.176 1.534,3.833 2.418,7.943 2.574,12.069 0.16,4.233 -0.559,8.43 -1.674,12.501 -1.164,4.251 -2.744,8.372 -4.149,12.547 -1.234,3.667 -2.186,7.566 -4.242,10.889 -2.091,3.381 -5.453,5.694 -9.185,6.952 -3.679,1.239 -7.622,1.402 -11.397,0.524 -3.198,-0.744 -6.234,-2.142 -8.973,-3.941 -1.313,-0.863 -2.561,-1.823 -3.733,-2.868"
   id="path323"
   inkscape:connector-curvature="0"
   style="fill:none;stroke:#c346ff;stroke-width:2.75;stroke-linecap:round;stroke-linejoin:round;stroke-miterlimit:10" />
	</g><g
     id="POLYLINE_681_">
		
			<path
   stroke-miterlimit="10"
   d="m 624.969,307.409 c -1.002,-0.98 -2.029,-2.102 -2.474,-3.463 -0.566,-1.727 0.248,-3.381 0.966,-4.927 0.968,-2.083 1.603,-3.992 1.801,-6.285 0.171,-1.979 0.149,-4.091 1.062,-5.908 0.932,-1.854 2.558,-3.242 3.715,-4.946 0.948,-1.397 1.811,-2.821 3.219,-3.798 2.765,-1.918 6.533,-2.435 9.758,-1.617 2.687,0.682 5.169,1.987 7.882,2.596 2.984,0.67 6.067,0.757 9.087,1.192 3.003,0.432 5.85,1.233 8.467,2.804 2.785,1.672 5.22,3.866 7.728,5.913 4.922,4.017 10.592,6.565 16.242,9.368 2.54,1.26 5.033,2.629 7.487,4.048 1.775,1.027 3.546,2.061 5.319,3.091 0.803,0.467 1.623,0.923 2.342,1.516 1.402,1.155 1.425,2.331 0.233,3.621 -1.889,2.043 -4.126,3.664 -5.863,5.869 -3.356,4.257 -4.982,9.369 -5.987,14.625 -0.654,3.418 -1.187,6.884 -2.03,10.263 -0.319,1.279 -0.952,4.635 -2.781,4.56 -1.633,-0.067 -3.231,-2.22 -4.19,-3.258 -2.107,-2.279 -4.199,-4.516 -6.538,-6.562 -4.781,-4.183 -9.965,-7.883 -14.783,-12.024 -4.866,-4.182 -9.334,-8.813 -14.257,-12.928 -4.129,-3.452 -8.519,-6.318 -14.01,-6.732 -2.656,-0.2 -5.551,-0.192 -8.161,0.387 -1.013,0.225 -1.971,0.594 -2.798,1.231 -0.787,0.607 -1.433,1.376 -2.12,2.088 -0.961,0.996 -2.041,1.873 -2.96,2.909 -0.931,1.048 -1.672,2.264 -1.869,3.673 -0.342,2.438 0.605,5.172 2.258,6.971 1.925,2.094 4.818,2.089 7.226,0.788 3.945,-2.132 4.394,-6.857 6.297,-10.505 1.324,-2.539 2.983,-4.884 4.661,-7.198"
   id="path326"
   inkscape:connector-curvature="0"
   style="fill:none;stroke:#c346ff;stroke-width:2.75;stroke-linecap:round;stroke-linejoin:round;stroke-miterlimit:10" />
	</g><g
     id="POLYLINE_682_">
		
			<path
   stroke-miterlimit="10"
   d="m 713.332,208.734 c -1.132,0.61 -1.709,1.111 -1.625,2.481 0.081,1.32 0.513,2.625 0.921,3.872 0.947,2.895 1.927,6.18 3.776,8.648 0.781,1.042 1.789,1.593 2.93,2.15"
   id="path329"
   inkscape:connector-curvature="0"
   style="fill:none;stroke:#c346ff;stroke-width:2.75;stroke-linecap:round;stroke-linejoin:round;stroke-miterlimit:10" />
	</g><g
     id="POLYLINE_683_">
		
			<path
   stroke-miterlimit="10"
   d="m 765.606,197.327 c 0.794,-1.429 2.317,-2.52 3.763,-1.187 1.252,1.154 1.223,3.161 1.179,4.723 -0.081,2.865 -0.422,5.683 -0.31,8.555 0.072,1.835 0.44,4.226 -0.619,5.886 -0.718,1.126 -2,1.749 -3.17,2.286"
   id="path332"
   inkscape:connector-curvature="0"
   style="fill:none;stroke:#c346ff;stroke-width:2.75;stroke-linecap:round;stroke-linejoin:round;stroke-miterlimit:10" />
	</g><g
     id="POLYLINE_684_">
		
			<path
   stroke-miterlimit="10"
   d="m 742.567,241.926 c -1.063,-0.91 1.734,-1.838 2.316,-1.997 1.145,-0.311 2.365,-0.496 3.554,-0.455 1.009,0.035 2.83,0.591 1.561,1.808 -0.85,0.815 -2.365,0.989 -3.48,1.092 -1.146,0.106 -2.958,0.277 -3.951,-0.448 z"
   id="path335"
   inkscape:connector-curvature="0"
   style="fill:none;stroke:#c346ff;stroke-width:2.75;stroke-linecap:round;stroke-linejoin:round;stroke-miterlimit:10" />
	</g><g
     id="POLYLINE_685_">
		
			<path
   stroke-miterlimit="10"
   d="m 721.102,229.737 c -1.079,-1.626 -1.705,-3.473 -2.193,-5.349 -0.677,-2.601 -1.279,-5.225 -2.084,-7.79 -0.641,-2.04 -1.463,-3.996 -2.45,-5.893 -0.866,-1.665 -1.734,-3.208 -2.185,-5.036 -1.145,-4.643 -1.768,-9.592 -2.029,-14.362 -0.135,-2.466 -0.159,-4.959 -0.027,-7.426 0.088,-1.636 0.216,-3.369 0.805,-4.915 0.303,-0.797 0.773,-1.479 1.332,-2.117 1.456,-1.664 2.629,-3.432 3.944,-5.204 0.708,-0.954 1.504,-1.89 2.569,-2.456 1.086,-0.577 2.325,-0.715 3.457,-1.165 0.784,-0.312 1.421,-0.82 2.043,-1.381 1.489,-1.341 2.903,-2.469 4.76,-3.276 1.571,-0.683 3.268,-1.167 4.986,-1.259 2.077,-0.112 4.11,0.426 6.179,0.473 1.637,0.037 3.317,-0.227 4.933,0.135 1.245,0.279 2.271,1.008 3.218,1.833 1.791,1.56 3.396,3.085 5.504,4.217 1.525,0.819 3.48,1.44 4.652,2.791 1.199,1.382 1.679,3.437 2.346,5.084 0.653,1.612 1.521,2.827 2.489,4.248 0.926,1.361 0.83,2.914 1.044,4.488 0.292,2.154 1.124,4.193 1.459,6.34 0.249,1.594 0.085,3.16 -0.129,4.75 -0.306,2.276 -0.392,4.448 -0.165,6.739 0.542,5.462 0.766,10.89 0.959,16.377 0.149,4.226 0.287,8.382 -1.292,12.381 -0.928,2.349 -1.941,4.663 -2.864,7.015 -0.79,2.013 -1.637,4.026 -2.793,5.861 -1.559,2.476 -3.753,4.494 -6.515,5.533 -3.64,1.369 -7.971,1.198 -11.672,0.186 -3.064,-0.838 -5.313,-2.594 -7.305,-5.048 -1.541,-1.898 -2.916,-3.925 -4.388,-5.876 -1.468,-1.945 -3.088,-3.724 -4.768,-5.484 -1.339,-1.406 -2.739,-2.791 -3.82,-4.414 z"
   id="path338"
   inkscape:connector-curvature="0"
   style="fill:none;stroke:#c346ff;stroke-width:2.75;stroke-linecap:round;stroke-linejoin:round;stroke-miterlimit:10" />
	</g><g
     id="POLYLINE_686_">
		
			<path
   stroke-miterlimit="10"
   d="m 735.105,190.953 c -0.646,0.886 -0.933,2.176 -2.186,2.314 -1.424,0.157 -2.922,-0.406 -4.327,-0.549 -2.25,-0.229 -4.16,0.469 -6.094,1.581 -1.325,0.761 -2.936,1.414 -4.088,2.431 -0.835,0.737 -1.209,1.769 -1.44,2.831 -0.766,3.526 -0.413,7.399 -0.041,10.952 0.414,3.957 1.312,7.84 3.146,11.392 1.815,3.515 4.304,6.581 6.862,9.573 2.717,3.178 5.161,6.583 7.899,9.736 1.363,1.569 3.005,3.397 5.093,3.978 2.321,0.646 4.603,-0.615 6.859,-0.956 2.449,-0.371 5.026,0.144 7.393,-0.734 1.321,-0.491 2.429,-1.369 3.115,-2.61 0.617,-1.117 0.926,-2.386 1.212,-3.619 0.459,-1.984 0.917,-3.951 1.555,-5.887 1.264,-3.84 2.877,-7.565 3.846,-11.498 0.836,-3.396 1.008,-6.724 0.391,-10.174 -0.346,-1.932 -0.772,-3.853 -1.191,-5.771 -0.367,-1.682 -0.606,-3.529 -1.284,-5.127 -0.886,-2.089 -3.311,-2.677 -4.509,-4.544 -1.318,-2.054 -2.193,-4.233 -4.212,-5.728 -1.323,-0.979 -2.754,-1.319 -4.373,-1.092 -1.164,0.164 -2.289,0.437 -3.47,0.386 -1.333,-0.058 -2.653,-0.35 -3.992,-0.251 -1.651,0.122 -3.242,0.844 -4.563,1.82 -0.598,0.44 -1.158,0.947 -1.601,1.546 z"
   id="path341"
   inkscape:connector-curvature="0"
   style="fill:none;stroke:#c346ff;stroke-width:2.75;stroke-linecap:round;stroke-linejoin:round;stroke-miterlimit:10" />
	</g><g
     style="stroke:#0000ff"
     id="POLYLINE_689_">
		
			<path
   stroke-miterlimit="10"
   d="m 745.547,162.82 c 1.071,-1.497 2.142,-2.994 3.214,-4.491 2.807,-3.923 5.615,-7.847 8.422,-11.77 3.884,-5.428 7.768,-10.856 11.652,-16.284 4.337,-6.062 8.675,-12.123 13.012,-18.185 4.158,-5.811 8.317,-11.623 12.475,-17.434 3.359,-4.694 6.718,-9.388 10.077,-14.082 1.895,-2.649 3.79,-5.297 5.685,-7.946 1.861,-2.601 3.655,-5.251 5.434,-7.908 2.692,-4.023 5.287,-8.118 7.67,-12.332 2.415,-4.271 4.607,-8.664 6.519,-13.183 0.472,-1.116 0.922,-2.239 1.368,-3.366 -4.355,3.837 -8.623,7.761 -12.626,11.967 -3.342,3.511 -6.43,7.221 -9.457,11.002 -4.952,6.185 -9.905,12.37 -14.857,18.556 -2.527,3.156 -5.024,6.335 -7.526,9.511 -4.842,6.15 -9.685,12.299 -14.527,18.449 -2.18,2.768 -4.321,5.566 -6.472,8.356 -5.127,6.653 -10.254,13.305 -15.382,19.958 -2.511,3.258 -5.046,6.499 -7.527,9.78 -4.516,5.973 -9.033,11.945 -13.549,17.918 -0.725,0.959 -1.45,1.918 -2.175,2.877 -0.378,0.5 -0.821,0.785 -1.307,1.188 -1.038,0.861 -1.942,1.96 -3.194,2.527 -1.201,0.544 -2.558,0.65 -3.727,1.282 -1.377,0.744 -2.33,2.105 -3.191,3.366 -0.688,1.007 -1.333,2.053 -2.124,2.985 -0.578,0.682 -1.239,1.298 -1.758,2.029 -0.57,0.804 -0.898,1.711 -1.108,2.67 -0.276,1.262 -0.382,2.559 -0.446,3.847 -0.041,0.82 0.187,2.155 -0.13,2.878 -0.271,0.618 -0.901,1.228 -1.298,1.769 -0.883,1.203 -1.766,2.406 -2.648,3.608 -4.836,6.589 -9.672,13.178 -14.508,19.767 -2.15,2.93 -4.284,5.869 -6.408,8.817 -4.777,6.632 -9.554,13.264 -14.331,19.897 -0.814,1.13 -1.628,2.26 -2.442,3.39 -0.169,0.234 -0.805,1.467 -1.102,1.53 -0.461,0.098 -1.979,-1.526 -2.308,-1.832 -0.913,-0.847 -1.763,-1.76 -2.583,-2.697 -1.688,-1.93 -3.237,-4.009 -4.429,-6.285 -1.109,-2.118 -1.595,-4.437 -2.555,-6.608 -0.243,-0.549 -0.582,-1.313 -1.251,-1.409 -0.737,-0.105 -1.259,0.603 -1.447,1.224 -0.458,1.515 0.1,3.4 0.537,4.836 1.486,4.884 4.142,9.704 7.583,13.48 1.697,1.862 3.699,3.329 5.83,4.656 -0.719,0.976 -1.439,1.952 -2.158,2.927 -0.277,0.376 -0.71,1.292 -1.121,1.52 -0.312,0.173 -0.681,-0.134 -1.054,-0.325 -1.395,-0.716 -2.784,-1.593 -4.316,-1.995 -2.105,-0.553 -3.742,0.572 -5.008,2.188 -2.016,2.574 -2.619,5.767 -4.201,8.558 -1.456,2.567 -4.111,3.948 -6.24,5.874 -1.541,1.395 -2.134,2.912 -1.704,4.942 0.094,0.443 0.214,0.88 0.326,1.318 -3.669,-0.346 -7.697,0.954 -9.925,3.987 -0.907,1.236 -1.691,2.519 -2.688,3.689 -0.763,0.896 -1.556,1.783 -2.117,2.825 -1.159,2.152 -0.973,4.703 -1.26,7.058 -0.329,2.697 -1.729,4.836 -2.566,7.37 -0.52,1.575 -0.26,3.031 0.668,4.392 0.255,0.373 0.541,0.725 0.841,1.062 0.19,0.214 0.465,0.42 0.622,0.658 0.198,0.299 0.206,0.099 0.129,0.353 -0.052,0.171 -0.357,0.381 -0.49,0.519 -1.078,1.127 -2.315,2.104 -3.312,3.308 -0.989,1.194 -1.632,2.583 -1.662,4.148 -0.052,2.684 1.269,5.965 3.728,7.323 3.462,1.912 7.691,-0.846 9.254,-3.966 0.759,-1.516 1.216,-3.163 1.854,-4.729 0.567,-1.39 1.271,-2.714 2.041,-4.001 0.92,-1.538 1.937,-3.018 2.984,-4.472 0.326,-0.453 0.418,-0.82 0.921,-0.824 0.335,-0.003 0.742,0.176 1.063,0.267 0.67,0.19 1.329,0.419 1.973,0.685 3.022,1.249 5.67,3.296 8.16,5.378 3.195,2.671 6.194,5.577 9.247,8.407 5.406,5.011 11.186,9.492 16.914,14.122 2.744,2.218 5.367,4.573 7.754,7.174 1.212,1.32 2.385,2.725 3.74,3.903 0.553,0.481 1.24,1.067 1.996,1.155 0.961,0.112 1.528,-0.742 1.894,-1.509 2.29,2.152 4.804,3.74 7.836,4.623 3.473,1.012 7.174,1.295 10.77,0.957 2.154,-0.202 4.268,-0.638 6.348,-1.226 0.213,2.88 0.525,5.758 1.076,8.594 0.527,2.712 1.276,5.375 1.821,8.084 0.323,1.607 0.579,3.224 0.811,4.846"
   id="path351"
   inkscape:connector-curvature="0"
   style="fill:none;stroke:#0000ff;stroke-width:3.5;stroke-linecap:round;stroke-linejoin:round;stroke-miterlimit:10" />
	</g><g
     id="POLYLINE_690_">
		
			<path
   stroke-miterlimit="10"
   d="m 721.433,380.485 c -0.934,5.279 -3.039,10.246 -5.693,14.882 -3.125,5.459 -6.934,10.488 -10.598,15.588 -3.22,4.482 -6.548,9.017 -8.758,14.104 -2.463,5.671 -3.994,11.746 -5.674,17.679 -1.749,6.176 -3.325,12.405 -4.981,18.606 -0.491,1.838 -1.175,3.63 -1.779,5.432 -1.389,4.141 -2.779,8.282 -4.168,12.423 -1.73,5.155 -3.555,10.261 -5.409,15.374 -2.098,5.786 -4.564,11.591 -6.116,17.561 -0.371,1.428 -0.859,3.296 0.862,3.992 1.847,0.746 4.273,0.709 6.23,0.671 2.397,-0.046 5.07,-0.47 6.729,-2.371 0.286,-0.328 0.537,-0.687 0.759,-1.061 0.511,5.656 1.51,11.286 2.305,16.906 0.642,4.535 0.87,9.167 1.744,13.66 0.423,2.175 1.355,4.075 2.47,5.972 -0.626,0.024 -1.397,0.079 -1.861,0.551 -0.537,0.546 -0.475,1.434 -0.375,2.133 0.355,2.474 1.545,4.891 2.556,7.15 2.671,5.968 5.619,11.808 7.737,18.007 1.95,5.707 3.412,11.606 4.684,17.497 1.73,8.013 3.445,16.029 5.167,24.043 0.5,2.326 1.057,4.652 1.481,6.993 0.253,1.399 0.401,2.797 -0.016,4.177 -1.175,3.896 -5.189,6.352 -8.624,7.989 -5.767,2.748 -12.051,4.096 -18.252,5.465 -5.223,1.153 -11.157,2.266 -15.208,6.05 -2.504,2.339 -4.265,5.797 -3.761,9.288 0.268,1.858 1.173,3.585 2.534,4.876 2.885,2.734 7.221,3.014 10.983,3.05 6.654,0.065 13.298,-0.524 19.958,-0.461 6.611,0.063 13.221,0.312 19.832,0.382 6.492,0.069 13.007,-0.011 19.471,-0.673 2.88,-0.295 5.83,-0.68 8.586,-1.598 1.347,-0.449 2.709,-1.067 3.651,-2.166 0.878,-1.025 1.28,-2.353 1.532,-3.655 0.539,-2.784 0.5,-5.687 0.414,-8.509 -0.211,-6.953 -0.962,-13.904 -1.535,-20.833 -0.51,-6.169 -0.435,-12.37 -1.148,-18.525 -0.76,-6.563 -2.263,-13.024 -2.893,-19.603 -0.607,-6.331 -0.229,-12.698 -0.966,-19.025 -0.369,-3.165 -0.867,-6.31 -1.358,-9.457 5.661,1.529 11.459,2.506 17.175,3.801 6.455,1.462 12.88,3.12 19.379,4.381 2.082,0.404 4.391,1.001 6.528,0.742 1.72,-0.209 2.342,-1.434 2.461,-3.032 0.208,-2.784 -0.314,-5.649 -0.537,-8.418 -0.246,-3.067 -0.351,-6.139 -0.41,-9.214 -0.129,-6.768 0.016,-13.539 0.076,-20.307 0.003,-0.323 0.006,-0.646 0.009,-0.968 5.36,0.832 10.644,1.383 15.951,-0.085 1.44,-0.398 2.851,-0.893 4.256,-1.399 0,2.329 2.026,4 3.327,5.628 1.141,1.428 1.156,3.318 2.291,4.747 0.674,0.849 1.529,1.564 2.44,2.145 -4.63,1.3 1.258,7.992 2.511,9.787 3.659,5.241 7.152,10.573 10.522,16.005 3.376,5.442 6.594,10.976 9.801,16.518 2.92,5.046 5.784,10.141 8.381,15.362 1.328,2.67 2.619,5.371 3.649,8.173 0.934,2.543 1.265,5.265 2.227,7.788 0.787,2.065 2.256,3.742 3.391,5.612 0.891,1.468 0.983,2.928 1.431,4.552 0.566,2.053 2.055,3.73 2.99,5.613 0.823,1.657 1.05,3.434 1.275,5.254 0.663,5.354 2.544,10.491 1.785,15.944 -0.512,3.683 -2.408,8.706 -0.177,12.198 2.267,3.549 8.207,3.537 11.833,3.525 2.898,-0.01 5.795,-0.165 8.694,-0.19 3.131,-0.027 6.311,0.084 9.427,-0.299 2.87,-0.353 6.066,-1.288 6.177,-4.692 0.059,-1.8 -0.508,-3.611 -1.137,-5.274 -1.019,-2.692 -2.431,-5.174 -3.855,-7.665 -1.471,-2.572 -2.905,-5.144 -3.978,-7.914 -0.999,-2.581 -1.625,-5.249 -2.183,-7.953 -0.602,-2.92 -1.068,-5.942 -2.091,-8.754 -0.722,-1.985 -2.067,-3.726 -2.647,-5.757 -0.512,-1.794 -0.112,-3.697 -0.252,-5.529 -0.146,-1.912 -0.892,-3.697 -1.702,-5.414 -1.238,-2.629 -2.558,-5.2 -3.556,-7.933 -1.034,-2.832 -1.849,-5.736 -2.614,-8.651 -1.718,-6.55 -3.168,-13.175 -4.729,-19.763 -1.264,-5.335 -2.542,-10.67 -3.964,-15.966 -1.721,-6.411 -3.611,-12.774 -5.477,-19.144 -0.757,-2.583 -1.505,-5.165 -2.215,-7.762 1.984,3.546 3.972,7.087 6.177,10.502 1.442,2.233 3.05,5.018 5.322,6.524 0.95,0.629 1.76,0.537 2.483,-0.348 0.928,-1.136 1.532,-2.546 2.3,-3.791 1.769,-2.867 3.99,-5.797 4.902,-9.09 0.453,-1.634 0.285,-3.236 -0.276,-4.819 -1.262,-3.565 -3.023,-7.048 -4.691,-10.439 -3.518,-7.153 -8.024,-13.727 -12.053,-20.589 -3.889,-6.624 -7.151,-13.525 -9.68,-20.781 -2.894,-8.302 -5.382,-16.744 -7.987,-25.14 -2.172,-7.001 -4.566,-13.932 -7.309,-20.732 -2.75,-6.817 -5.776,-13.525 -8.909,-20.174 -3.758,-7.976 -7.764,-15.878 -11.174,-24.012 -0.705,-1.682 -1.364,-3.385 -1.904,-5.129 -0.258,-0.835 -0.492,-1.678 -0.701,-2.526 -0.198,-0.802 -0.813,-2.19 -0.57,-2.956 0.171,-0.537 0.504,-0.819 0.508,-1.426 0.002,-0.319 -0.056,-0.642 -0.117,-0.955 -0.34,-1.748 -0.978,-3.486 -1.555,-5.165 -0.143,-0.415 -0.292,-1.055 -0.671,-1.317 -0.188,-0.13 -0.407,-0.042 -0.553,-0.124 -0.27,-0.152 -0.303,-0.58 -0.379,-0.971 -0.228,-1.177 -0.4,-2.382 -0.335,-3.584 0.123,-2.287 1.001,-4.38 0.769,-6.699 -0.346,-3.471 -1.577,-6.791 -1.899,-10.269 -0.345,-3.73 -0.016,-7.512 -0.128,-11.254 -0.232,-7.779 -1.178,-15.616 -0.712,-23.403 0.447,-7.464 3.582,-14.396 4.098,-21.837 0.516,-7.449 -1.1,-14.991 -2.837,-22.189 -1.683,-6.97 -3.727,-13.882 -8.242,-19.589 -2.369,-2.994 -5.189,-5.594 -7.571,-8.573 -1.873,-2.343 -3.284,-4.933 -5.782,-6.693 -2.767,-1.95 -6.062,-3.219 -9.242,-4.315 -0.439,-0.151 -0.88,-0.299 -1.322,-0.44 -0.311,-0.1 -1.197,-0.221 -1.451,-0.445 -0.27,-0.238 0.021,-1.307 0.039,-1.779 0.024,-0.614 -0.004,-1.239 -0.158,-1.837 -0.496,-1.934 -2.414,-2.61 -3.405,-4.195 -1.027,-1.643 0.575,-4.104 -0.806,-5.469 -0.368,-0.364 -0.879,-0.56 -1.364,-0.713 -0.172,-0.054 -0.374,-0.075 -0.538,-0.148 -0.42,-0.186 -0.374,-0.15 -0.387,-0.651 -0.052,-1.889 -0.162,-3.763 -0.059,-5.653 0.102,-1.868 0.34,-3.737 0.309,-5.611 -0.016,-0.972 -0.085,-2.02 -0.526,-2.905 -0.44,-0.881 -1.379,-1.691 -2.428,-1.506 -0.917,0.161 -1.57,1.031 -1.995,1.798 0.197,-1.437 0.445,-2.883 0.381,-4.339 -0.062,-1.413 -0.429,-2.787 -0.792,-4.147 -0.456,-1.708 -0.794,-3.343 -0.967,-5.102 -0.104,-1.058 -0.276,-1.976 -0.89,-2.871 -0.7,-1.021 -1.434,-1.923 -1.962,-3.049 -0.746,-1.59 -1.249,-3.283 -2,-4.87 -1.205,-2.542 -3.903,-3.247 -6.194,-4.562 -1.801,-1.034 -3.22,-2.436 -4.771,-3.796 -0.845,-0.741 -1.771,-1.446 -2.863,-1.771"
   id="path354"
   inkscape:connector-curvature="0"
   style="fill:none;stroke:#0000ff;stroke-width:3.5;stroke-linecap:round;stroke-linejoin:round;stroke-miterlimit:10" />
	</g><g
     id="POLYLINE_691_">
		
			<path
   stroke-miterlimit="10"
   d="m 726.491,235.793 c -1.61,2.537 -3.053,5.189 -4.037,8.036 -1.05,3.039 -1.506,6.242 -2.113,9.387 -1.365,7.073 -3.428,14 -5.192,20.978 -0.906,3.585 -1.709,7.201 -2.304,10.851 -0.753,-0.631 -1.532,-1.036 -2.453,-1.365 -1.727,-0.618 -3.399,-1.315 -5.085,-2.04 -3.518,-1.513 -7.152,-2.603 -10.809,-3.721 -2.832,-0.865 -5.971,-1.618 -8.499,-3.214 -2.239,-1.413 -3.107,-4.255 -4.197,-6.52 -0.764,-1.586 -1.601,-3.143 -2.597,-4.598 -0.494,-0.721 -1.025,-1.419 -1.603,-2.075 -0.176,-0.2 -0.617,-0.512 -0.704,-0.754 -0.128,-0.358 0.419,-0.859 0.685,-1.222 2.165,2.546 4.464,4.385 7.486,5.867 3.268,1.603 6.8,2.809 10.371,3.519 1.608,0.32 6.068,1.339 6.756,-1.032 0.894,-3.083 -4.291,-2.706 -5.923,-3.025 -3.682,-0.719 -7.378,-1.967 -10.749,-3.612 -1.079,-0.526 -2.154,-1.117 -3.042,-1.936 -0.372,-0.342 -1.345,-1.199 -1.307,-1.661 0.031,-0.384 0.699,-1.073 0.901,-1.383 0.62,-0.952 1.241,-1.904 1.861,-2.856 1.711,-2.625 3.421,-5.251 5.131,-7.876 1.753,-2.691 3.481,-5.399 5.269,-8.067 5.634,-8.408 11.268,-16.815 16.901,-25.223 0.165,-0.247 0.331,-0.494 0.496,-0.741 0.231,2.007 1.003,3.96 1.685,5.847 0.716,1.981 1.46,4.025 2.597,5.809 0.668,1.048 1.526,1.819 2.632,2.382 0.706,0.359 0.719,0.488 0.983,1.214 0.164,0.452 0.345,0.899 0.551,1.334 0.276,0.585 0.593,1.149 0.953,1.686 1.489,2.226 3.528,4.07 5.356,6.011 z"
   id="path357"
   inkscape:connector-curvature="0"
   style="fill:none;stroke:#c346ff;stroke-width:3.5;stroke-linecap:round;stroke-linejoin:round;stroke-miterlimit:10" />
	</g></g>
</svg>