<?xml version="1.0" encoding="UTF-8" standalone="no"?>
<!-- Generator: Adobe Illustrator 23.0.3, SVG Export Plug-In . SVG Version: 6.00 Build 0)  -->

<svg
   xmlns:ns="&amp;ns_sfw;"
   xmlns:dc="http://purl.org/dc/elements/1.1/"
   xmlns:cc="http://creativecommons.org/ns#"
   xmlns:rdf="http://www.w3.org/1999/02/22-rdf-syntax-ns#"
   xmlns:svg="http://www.w3.org/2000/svg"
   xmlns="http://www.w3.org/2000/svg"
   xmlns:sodipodi="http://sodipodi.sourceforge.net/DTD/sodipodi-0.dtd"
   xmlns:inkscape="http://www.inkscape.org/namespaces/inkscape"
   version="1.1"
   x="0px"
   y="0px"
   viewBox="0 0 1000 725"
   enable-background="new 0 0 1000 725"
   xml:space="preserve"
   id="svg306"
   sodipodi:docname="Night-King-Standing.svg"
   inkscape:version="0.92.4 (5da689c313, 2019-01-14)"><defs
   id="defs310">
	
	
	
	
	
	
	
	
	
	
	
	
	
	
	
	
	
	
	
	
	
	
	
	
	
	
	
	
	
	
	
	
	
	
	
	
	
	
	
	
	
	
	
	
	
	
	
	
	
	
	
	
	
	
	
	
	
	
	
	
	
	
	
	
	
	
	
	
	

	
	

	
	
	
	
	
	
	
	
	
</defs><sodipodi:namedview
   pagecolor="#ffffff"
   bordercolor="#666666"
   borderopacity="1"
   objecttolerance="10"
   gridtolerance="10"
   guidetolerance="10"
   inkscape:pageopacity="0"
   inkscape:pageshadow="2"
   inkscape:window-width="1920"
   inkscape:window-height="1018"
   id="namedview308"
   showgrid="false"
   inkscape:zoom="0.32551724"
   inkscape:cx="1016.6288"
   inkscape:cy="343.24657"
   inkscape:window-x="-8"
   inkscape:window-y="-8"
   inkscape:window-maximized="1"
   inkscape:current-layer="svg306" />
<metadata
   id="metadata2">
	<ns:sfw>
		<ns:slices />
		<ns:sliceSourceBounds
   bottomLeftOrigin="true"
   height="3850"
   width="9389.062"
   x="-3544.062"
   y="1000" />
	</ns:sfw>
<rdf:RDF><cc:Work
     rdf:about=""><dc:format>image/svg+xml</dc:format><dc:type
       rdf:resource="http://purl.org/dc/dcmitype/StillImage" /><dc:title></dc:title></cc:Work></rdf:RDF></metadata>


<g
   id="N-TEXT">
</g>




<g
   id="g1361"
   transform="matrix(1.8520074,0,0,1.8520074,-346.35677,-551.1313)"><g
     id="POLYLINE_340_">
		
			<path
   stroke-miterlimit="10"
   d="m 623.141,261.156 c 2.514,-3.033 5.106,-5.979 8.036,-8.622 2.928,-2.642 6.121,-4.979 9.418,-7.137 6.794,-4.447 14.133,-8.34 21.911,-10.748 6.415,-1.986 12.876,-2.855 19.402,-0.935 3.829,1.126 7.51,2.738 11.128,4.407 3.682,1.698 7.326,3.484 10.842,5.508 3.214,1.851 6.362,3.923 9.071,6.47 2.796,2.629 4.987,5.776 6.802,9.143 0.467,0.866 0.909,1.743 1.346,2.624"
   id="path57"
   inkscape:connector-curvature="0"
   style="fill:none;stroke:#c346ff;stroke-width:1.75;stroke-linecap:round;stroke-linejoin:round;stroke-miterlimit:10" />
	</g><g
     id="POLYLINE_341_">
		
			<path
   stroke-miterlimit="10"
   d="m 621.732,256.031 c 2.382,-3.452 4.825,-6.844 7.678,-9.928 2.81,-3.037 5.918,-5.793 9.1,-8.432 3.429,-2.844 6.974,-5.544 10.581,-8.157 3.327,-2.409 6.718,-4.81 10.343,-6.754 3.51,-1.882 7.248,-3.138 11.241,-3.343"
   id="path60"
   inkscape:connector-curvature="0"
   style="fill:none;stroke:#c346ff;stroke-width:1.75;stroke-linecap:round;stroke-linejoin:round;stroke-miterlimit:10" />
	</g><g
     id="POLYLINE_342_">
		<g
   id="g65">
			
				<path
   stroke-miterlimit="10"
   d="m 673.832,219.452 c 7.565,0.533 14.13,4.23 20.442,8.14 6.817,4.223 13.453,8.913 19.559,14.118 3.4,2.898 6.6,6.058 9.071,9.8"
   id="path63"
   inkscape:connector-curvature="0"
   style="fill:none;stroke:#c346ff;stroke-width:1.75;stroke-linecap:round;stroke-linejoin:round;stroke-miterlimit:10" />
		</g>
	</g><g
     id="POLYLINE_358_">
		
			<path
   stroke-miterlimit="10"
   d="m 617.832,214.6 c 5.676,-1.932 11.425,-3.629 17.227,-5.141 5.936,-1.547 11.914,-2.996 17.927,-4.213 3.346,-0.678 6.707,-1.245 10.094,-1.671"
   id="path68"
   inkscape:connector-curvature="0"
   style="fill:none;stroke:#c346ff;stroke-width:1.75;stroke-linecap:round;stroke-linejoin:round;stroke-miterlimit:10" />
	</g><g
     id="POLYLINE_359_">
		
			<path
   stroke-miterlimit="10"
   d="m 681.297,203.115 c 5.937,0.393 11.842,1.127 17.69,2.229 5.76,1.086 11.44,2.545 17.004,4.386 3.089,1.022 6.127,2.182 9.142,3.402"
   id="path71"
   inkscape:connector-curvature="0"
   style="fill:none;stroke:#c346ff;stroke-width:1.75;stroke-linecap:round;stroke-linejoin:round;stroke-miterlimit:10" />
	</g><g
     id="POLYLINE_326_">
		
			<path
   stroke-miterlimit="10"
   d="m 680.707,201.724 c 1.739,-1.68 2.894,-3.928 3.139,-6.342 0.232,-2.286 -0.367,-4.602 -1.633,-6.515 -1.367,-2.066 -3.448,-3.599 -5.784,-4.4 -3.656,-1.254 -7.861,-0.694 -11.007,1.569 -1.895,1.363 -3.35,3.319 -4.014,5.565 -0.666,2.253 -0.494,4.698 0.466,6.842 0.49,1.094 1.186,1.964 1.93,2.887 0.221,0.275 0.247,0.215 0.186,0.533 -0.054,0.287 -0.338,0.642 -0.478,0.898 -0.204,0.373 -0.421,0.742 -0.576,1.139 -0.26,0.666 -0.322,1.337 -0.148,2.031 0.523,2.089 2.196,3.939 3.427,5.635 1.557,2.146 2.917,4.319 3.988,6.75 0.32,0.725 0.618,1.46 0.924,2.191 0.188,0.45 0.344,1.192 0.701,1.562 0.693,0.72 1.295,-1.106 1.529,-1.599 1.307,-2.751 2.516,-5.542 4.167,-8.111 1.698,-2.644 4.671,-5.819 3.764,-9.275 -0.125,-0.479 -0.321,-0.938 -0.581,-1.36 z"
   id="path87"
   inkscape:connector-curvature="0"
   style="fill:none;stroke:#c346ff;stroke-width:2.75;stroke-linecap:round;stroke-linejoin:round;stroke-miterlimit:10" />
	</g><g
     id="POLYLINE_327_">
		
			<path
   stroke-miterlimit="10"
   d="m 661.228,196.474 c -3.305,0.56 -6.6,1.103 -9.843,1.963 -3.248,0.862 -6.448,1.927 -9.618,3.038 -3.556,1.246 -7.091,2.555 -10.636,3.832 -1.971,0.71 -4.041,1.677 -6.149,1.891 -1.306,0.133 -2.581,-0.152 -3.798,-0.615 -2.861,-1.086 -5.454,-2.88 -7.994,-4.554 -5.483,-3.613 -10.754,-7.494 -16.641,-10.43 -0.676,-0.337 -1.775,-0.783 -1.582,-1.71 0.182,-0.87 1.186,-1.559 1.882,-2.025 2.355,-1.577 5.225,-2.398 7.897,-3.254 6.765,-2.168 13.579,-4.198 20.377,-6.257 2.855,-0.865 5.725,-1.694 8.603,-2.481 1.722,-0.471 3.447,-0.933 5.185,-1.339 1.457,-0.341 2.955,-0.557 4.389,-0.986 1.726,-0.517 2.602,-1.686 3.054,-3.396 0.76,-2.87 0.659,-5.9 1.081,-8.823 0.116,-0.799 0.232,-1.828 0.7,-2.523 0.579,-0.859 1.445,-0.478 2.122,0.062 1.974,1.574 3.2,4.241 4.483,6.339 1.696,2.772 3.505,5.452 5.582,7.957 1.653,1.994 3.469,4.164 5.733,5.487 2.652,1.55 6.598,1.619 9.354,0.271 4.208,-2.058 6.325,-6.992 8.176,-10.995 1.303,-2.817 2.52,-5.758 4.371,-8.273 0.837,-1.137 2.295,-2.977 3.244,-0.901 0.886,1.938 0.909,4.293 0.949,6.381 0.033,1.743 0.01,3.499 0.148,5.238 0.064,0.799 0.127,1.702 0.501,2.428 0.413,0.802 1.22,1.089 2.034,1.339 1.858,0.571 3.732,1.094 5.597,1.64 2.692,0.789 5.391,1.547 8.092,2.304 7.006,1.963 14.165,3.676 21.025,6.124 2.521,0.899 5.231,1.898 7.339,3.593 0.49,0.394 1.165,0.951 1.23,1.619 0.076,0.776 -0.751,1.246 -1.328,1.589 -1.249,0.741 -2.577,1.337 -3.801,2.123 -1.279,0.821 -2.447,1.804 -3.572,2.821 -2.411,2.18 -4.655,4.651 -7.377,6.457 -2.909,1.931 -5.894,1.868 -9.223,1.014 -6.67,-1.711 -13.223,-3.854 -19.905,-5.531 -3.031,-0.761 -6.081,-1.288 -9.167,-1.769"
   id="path90"
   inkscape:connector-curvature="0"
   style="fill:none;stroke:#c346ff;stroke-width:2.75;stroke-linecap:round;stroke-linejoin:round;stroke-miterlimit:10" />
	</g><g
     id="POLYLINE_328_">
		
			<path
   stroke-miterlimit="10"
   d="m 626.023,289.5 c -0.816,-0.279 -0.645,-2.218 -0.643,-2.83 0.005,-2.233 -0.046,-4.469 -0.018,-6.702 0.041,-3.194 0.488,-6.337 2.159,-9.116 1.768,-2.94 4.525,-5.12 7.503,-6.746 3.591,-1.961 7.529,-3.266 11.473,-4.306 4.024,-1.06 8.13,-1.823 12.252,-2.378 4.269,-0.575 8.572,-0.967 12.878,-1.107 4.256,-0.139 8.514,-0.117 12.762,0.198 4.12,0.305 8.243,0.856 12.245,1.9 3.906,1.019 7.665,2.555 11.097,4.688 3.158,1.963 6.18,4.368 8.585,7.218 1.558,1.846 2.434,3.692 2.852,6.069 0.337,1.913 0.681,3.856 0.78,5.799 0.041,0.82 0.205,2.467 -0.619,2.976 -0.738,0.456 -1.968,-0.261 -2.625,-0.591 -1.872,-0.94 -3.709,-1.938 -5.608,-2.825 -3.857,-1.802 -7.844,-3.357 -11.941,-4.52 -4.005,-1.137 -8.108,-1.91 -12.239,-2.414 -4.326,-0.528 -8.673,-0.789 -13.028,-0.901 -4.301,-0.111 -8.614,-0.059 -12.905,0.264 -4.102,0.308 -8.202,0.865 -12.195,1.871 -3.665,0.923 -7.264,2.232 -10.523,4.167 -3.614,2.146 -6.581,5.062 -9.732,7.801 -0.541,0.469 -1.674,1.658 -2.51,1.485 z"
   id="path93"
   inkscape:connector-curvature="0"
   style="fill:none;stroke:#c346ff;stroke-width:2.75;stroke-linecap:round;stroke-linejoin:round;stroke-miterlimit:10" />
	</g><g
     id="POLYLINE_329_">
		<g
   id="g98">
			
				<path
   stroke-miterlimit="10"
   d="m 626.633,289.402 c -0.68,1.321 -1.248,2.727 -1.53,4.19 -0.312,1.617 -0.135,3.258 -0.107,4.892 0.038,2.224 -0.355,4.399 -0.693,6.588 -0.189,1.227 -0.706,2.99 -0.261,4.222 0.445,1.231 2.262,0.471 3.175,0.402 1.577,-0.12 1.673,0.816 1.89,2.132 0.532,3.218 4.907,-2.061 5.723,0.515 0.162,0.511 0.106,1.337 0.605,1.675 0.416,0.281 1.05,0.072 1.488,-0.049 0.972,-0.27 2.956,-1.355 3.91,-0.508 0.892,0.791 0.422,2.442 1.308,3.189 0.782,0.66 2.392,-0.498 3.113,-0.761 1.779,-0.65 1.482,0.917 2.423,1.888 0.887,0.915 2.344,-0.399 3.376,-0.322 1.367,0.103 0.81,2.516 2.165,2.426 1.231,-0.081 2.28,-1.361 3.437,-1.759 2.65,-0.912 2.593,4.123 5.37,2.212 1.415,-0.974 2.402,-2.43 3.659,-3.577 1.127,-1.028 2.791,-0.599 4.207,-0.626 2.409,-0.046 4.845,-0.229 7.255,-0.134 1.728,0.069 2.754,1.357 3.942,2.466 0.829,0.774 2.224,2.278 3.492,2.22 1.424,-0.065 1.592,-2.132 2.837,-2.523 1,-0.314 2.203,0.721 3.056,1.052 1.686,0.655 1.761,-0.942 2.971,-1.62 1.014,-0.568 2.17,0.861 2.998,1.249 1.443,0.675 1.549,-1.365 2.172,-2.184 0.849,-1.115 2.169,0.522 3.085,0.786 1.411,0.407 1.618,-1.667 2.414,-2.367 0.882,-0.777 2.058,0.636 2.717,1.118 0.325,0.238 0.756,0.581 1.186,0.488 0.586,-0.126 0.909,-1.001 1.16,-1.464 0.51,-0.941 1.068,-1.833 2.275,-1.687 1.141,0.138 2.209,1.008 3.364,0.958 1.236,-0.054 1.268,-1.904 1.589,-2.772 0.507,-1.369 1.598,-1.478 2.862,-1.818 1.214,-0.326 1.416,-1.127 1.29,-2.289 -0.168,-1.55 -0.596,-3.046 -0.556,-4.616 0.053,-2.088 0.608,-4.127 0.748,-6.208 0.127,-1.89 -0.057,-3.792 -0.414,-5.648 -0.386,-2.009 -0.982,-3.983 -1.79,-5.863"
   id="path96"
   inkscape:connector-curvature="0"
   style="fill:none;stroke:#c346ff;stroke-width:2.75;stroke-linecap:round;stroke-linejoin:round;stroke-miterlimit:10" />
		</g>
	</g><g
     id="POLYLINE_330_">
		
			<path
   stroke-miterlimit="10"
   d="m 637.47,313.801 c -0.65,5.689 -1.301,11.378 -1.951,17.066 -0.575,5.026 -1.239,10.051 -1.713,15.087 -0.518,5.496 -1.052,10.99 -1.524,16.489 -0.394,4.59 -0.811,9.178 -1.154,13.772 -0.509,6.818 -1.019,13.635 -1.528,20.453 -0.535,7.159 -1.07,14.318 -1.605,21.477 -0.326,4.361 -0.72,8.716 -1.091,13.074 -0.163,1.915 -0.349,3.892 -0.123,5.81 0.161,1.365 0.659,2.405 1.955,3.012 1.563,0.732 3.382,0.987 5.068,1.251 2.691,0.422 5.407,0.679 8.121,0.915 4.258,0.369 8.527,0.601 12.792,0.866 7.898,0.492 15.796,0.983 23.694,1.475 2.656,0.165 5.312,0.331 7.969,0.496 1.615,0.101 3.245,0.238 4.862,0.111 1.066,-0.083 2.152,-0.302 3.024,-0.958 1.161,-0.873 1.691,-2.295 2.015,-3.66 0.995,-4.187 0.875,-8.692 1.01,-12.978 0.233,-7.404 0.466,-14.809 0.699,-22.213 0.093,-2.957 0.19,-5.915 0.288,-8.872 0.245,-7.405 0.491,-14.81 0.736,-22.215 0.237,-7.151 0.474,-14.303 0.711,-21.454 0.138,-4.156 0.202,-8.309 0.261,-12.468 0.073,-5.205 0.012,-10.412 -0.035,-15.617 -0.025,-2.764 -0.05,-5.528 -0.075,-8.293"
   id="path101"
   inkscape:connector-curvature="0"
   style="fill:none;stroke:#c346ff;stroke-width:2.75;stroke-linecap:round;stroke-linejoin:round;stroke-miterlimit:10" />
	</g><g
     id="POLYLINE_331_">
		
			<path
   stroke-miterlimit="10"
   d="m 625.131,309.978 c -1.123,7.326 -2.247,14.653 -3.371,21.979 -0.87,5.674 -1.65,11.356 -2.24,17.067 -0.676,6.554 -1.113,13.124 -1.508,19.7 -0.254,4.232 -0.441,8.464 -0.631,12.7 -0.399,8.905 -0.799,17.811 -1.198,26.716 -0.392,8.731 -0.783,17.462 -1.175,26.193 -0.169,3.776 -0.331,7.549 -0.566,11.321 -0.374,6.017 -0.691,12.04 -1.143,18.051 -0.616,8.187 -1.233,16.374 -1.849,24.56 -0.458,6.082 -0.95,12.162 -1.373,18.247 -0.174,2.506 -0.405,5.091 0.048,7.58 0.368,2.025 1.22,3.942 2.289,5.689 3.02,4.935 7.606,7.748 13.108,9.267 6.544,1.806 13.366,2.857 20.016,4.192 5.83,1.17 11.727,2.299 17.674,2.632 3.095,0.174 6.192,0.075 9.282,-0.145 3.174,-0.226 6.378,-0.403 9.529,-0.852 3.043,-0.434 6.893,-1.114 7.017,-4.875 0.081,-2.455 -0.618,-4.945 -1.158,-7.32 -0.773,-3.398 -1.574,-6.791 -2.21,-10.218 -1.198,-6.455 -1.943,-12.983 -2.66,-19.505 -0.633,-5.765 -1.122,-11.547 -1.593,-17.327 -0.553,-6.783 -1.18,-13.563 -1.628,-20.353 -0.235,-3.566 -0.471,-7.131 -0.706,-10.697"
   id="path104"
   inkscape:connector-curvature="0"
   style="fill:none;stroke:#c346ff;stroke-width:2.75;stroke-linecap:round;stroke-linejoin:round;stroke-miterlimit:10" />
	</g><g
     id="POLYLINE_332_">
		
			<path
   stroke-miterlimit="10"
   d="m 683.978,534.537 c 0.544,1.463 1.462,2.894 2.409,4.122 0.827,1.072 1.953,1.457 3.25,1.591 4.406,0.456 9.083,-0.671 13.394,-1.445 4.866,-0.874 9.699,-1.92 14.517,-3.02 5.008,-1.144 10.007,-2.334 14.973,-3.652 4.141,-1.099 8.757,-2.193 12.337,-4.651 1.591,-1.092 2.674,-2.568 3.035,-4.482 0.718,-3.807 -0.354,-7.953 -1.057,-11.693 -0.983,-5.235 -1.984,-10.46 -2.761,-15.731 -0.747,-5.071 -1.333,-10.162 -1.851,-15.261 -0.511,-5.03 -0.846,-10.076 -1.176,-15.12 -0.294,-4.491 -0.515,-8.995 -0.679,-13.493 -0.161,-4.413 -0.342,-8.825 -0.456,-13.239 -0.175,-6.769 -0.35,-13.537 -0.526,-20.306 -0.115,-4.439 -0.196,-8.879 -0.398,-13.316 -0.227,-5.014 -0.558,-10.018 -1.064,-15.012 -0.485,-4.791 -1.186,-9.562 -2.021,-14.304 -0.889,-5.052 -1.951,-10.072 -3.059,-15.08 -1.027,-4.642 -2.139,-9.266 -3.247,-13.89 -1.19,-4.968 -2.359,-9.942 -3.647,-14.885 -1.27,-4.872 -2.601,-9.731 -4.108,-14.536 -0.765,-2.439 -1.543,-4.872 -2.33,-7.304"
   id="path107"
   inkscape:connector-curvature="0"
   style="fill:none;stroke:#c346ff;stroke-width:2.75;stroke-linecap:round;stroke-linejoin:round;stroke-miterlimit:10" />
	</g><g
     id="POLYLINE_333_">
		
			<path
   stroke-miterlimit="10"
   d="m 579.036,208.707 c 3.287,-1.449 6.271,-2.595 9.413,-0.331 2.468,1.778 4.16,4.559 5.545,7.205 1.654,3.161 2.923,6.52 3.994,9.918 1.066,3.383 2.143,6.963 2.448,10.512 0.139,1.615 -0.057,3.139 -1.535,4.087 -0.868,0.557 -1.859,0.915 -2.808,1.308 -2.423,1.003 -4.845,2.006 -7.268,3.009 -3.426,1.418 -6.854,2.826 -10.324,4.134 -3.524,1.328 -7.152,2.671 -10.873,3.327 -2.054,0.362 -4.211,0.431 -6.093,-0.594 -2.555,-1.39 -4.342,-4.068 -6.2,-6.212 -2.074,-2.394 -4.321,-4.495 -7.225,-5.834 -3.347,-1.543 -7.006,-2.266 -10.503,-3.379 -3.188,-1.015 -6.428,-2.208 -9.227,-4.079 -1.44,-0.962 -3.128,-2.306 -3.715,-4.02 -0.887,-2.59 2.638,-3.292 4.443,-3.652 3.825,-0.762 7.738,-1.052 11.591,-1.652 3.738,-0.582 7.447,-1.347 11.082,-2.402 7.909,-2.295 15.334,-5.911 22.805,-9.316 1.483,-0.676 2.966,-1.353 4.45,-2.029 z"
   id="path110"
   inkscape:connector-curvature="0"
   style="fill:none;stroke:#c346ff;stroke-width:2.75;stroke-linecap:round;stroke-linejoin:round;stroke-miterlimit:10" />
	</g><g
     id="POLYLINE_334_">
		
			<path
   stroke-miterlimit="10"
   d="m 586.67,207.392 c 2.389,-4.53 5.593,-8.391 9.628,-11.552 1.157,-0.906 2.365,-1.748 3.624,-2.505"
   id="path113"
   inkscape:connector-curvature="0"
   style="fill:none;stroke:#c346ff;stroke-width:2.75;stroke-linecap:round;stroke-linejoin:round;stroke-miterlimit:10" />
	</g><g
     id="POLYLINE_335_">
		
			<path
   stroke-miterlimit="10"
   d="m 524.587,227.502 c -3.086,0.04 -6.147,0.066 -9.182,-0.573 -3.425,-0.722 -6.731,-1.92 -10.141,-2.709 -3.268,-0.757 -6.558,-0.981 -9.903,-1.051 -3.436,-0.072 -6.918,-0.03 -10.294,-0.763 -3.436,-0.746 -6.643,-2.204 -9.961,-3.322 -3.104,-1.046 -6.386,-1.754 -9.646,-2.081 -2.118,-0.212 -3.374,0.794 -4.568,2.43 -2.053,2.812 -3.819,5.91 -5.583,8.907 -1.441,2.448 -3.111,5.1 -3.695,7.917 -0.321,1.55 0.16,2.727 1.466,3.601 2.609,1.745 5.759,2.909 8.691,3.981 3.216,1.175 6.516,2.125 9.878,2.783 7.301,1.43 14.793,1.67 22.2,2.124 7.001,0.429 13.983,1.012 20.944,1.892 7.222,0.913 14.387,2.405 21.646,2.995 6.868,0.559 13.788,0.1 20.578,-1.023 1.745,-0.289 3.478,-0.631 5.209,-0.998"
   id="path116"
   inkscape:connector-curvature="0"
   style="fill:none;stroke:#c346ff;stroke-width:2.75;stroke-linecap:round;stroke-linejoin:round;stroke-miterlimit:10" />
	</g><g
     id="POLYLINE_336_">
		
			<path
   stroke-miterlimit="10"
   d="m 451.498,237.541 c -6.088,-0.858 -12.013,-2.344 -17.784,-4.472 -5.858,-2.16 -11.556,-4.963 -16.227,-9.169 -2.135,-1.922 -4.067,-4.078 -5.743,-6.41 -1.308,-1.819 -2.657,-3.811 -3.24,-6.003 -0.292,-1.098 -0.483,-2.66 0.388,-3.552 0.998,-1.021 2.903,-0.48 4.081,-0.089 2.679,0.889 4.747,2.72 7.095,4.203 2.284,1.443 4.855,2.43 7.484,3.033 2.56,0.587 5.254,0.825 7.865,0.46 1.624,-0.227 3.409,-0.689 4.632,-1.85 2.854,-2.709 0.415,-6.22 -1.139,-8.818 -1.604,-2.681 -3.152,-6.946 0.864,-8.419 1.411,-0.518 3.169,-0.535 4.342,0.519 1.635,1.471 2.078,3.97 3.164,5.806 1.078,1.822 2.561,3.347 4.044,4.84 2.491,2.508 4.952,5.05 7.481,7.519 1.039,1.014 2.092,2.01 3.172,2.981"
   id="path119"
   inkscape:connector-curvature="0"
   style="fill:none;stroke:#c346ff;stroke-width:2.75;stroke-linecap:round;stroke-linejoin:round;stroke-miterlimit:10" />
	</g><g
     id="POLYLINE_337_">
		
			<path
   stroke-miterlimit="10"
   d="m 626.818,272.173 c -1.648,-4.405 -3.103,-8.878 -4.358,-13.41 -1.187,-4.287 -2.173,-8.627 -2.946,-13.008 -0.795,-4.503 -1.507,-9.06 -1.82,-13.625 -0.299,-4.371 0.247,-8.693 0.262,-13.06 0.015,-4.395 -0.372,-8.799 -0.965,-13.151 -0.073,-0.536 -0.152,-1.071 -0.231,-1.606"
   id="path122"
   inkscape:connector-curvature="0"
   style="fill:none;stroke:#c346ff;stroke-width:2.75;stroke-linecap:round;stroke-linejoin:round;stroke-miterlimit:10" />
	</g><g
     id="POLYLINE_338_">
		
			<path
   stroke-miterlimit="10"
   d="m 600.47,236.536 c 4.768,-2.75 9.368,-5.854 13.633,-9.338 1.247,-1.018 2.451,-2.082 3.655,-3.15"
   id="path125"
   inkscape:connector-curvature="0"
   style="fill:none;stroke:#c346ff;stroke-width:2.75;stroke-linecap:round;stroke-linejoin:round;stroke-miterlimit:10" />
	</g><g
     id="POLYLINE_339_">
		
			<path
   stroke-miterlimit="10"
   d="m 717.908,272.537 c 1.524,-4.527 2.935,-9.078 3.863,-13.77 0.946,-4.783 1.451,-9.642 1.851,-14.497 0.369,-4.47 0.599,-8.957 0.78,-13.439 0.215,-5.343 0.359,-10.69 0.638,-16.03 0.252,-4.801 0.732,-9.577 1.351,-14.344 0.083,-0.638 0.166,-1.277 0.249,-1.915"
   id="path128"
   inkscape:connector-curvature="0"
   style="fill:none;stroke:#c346ff;stroke-width:2.75;stroke-linecap:round;stroke-linejoin:round;stroke-miterlimit:10" />
	</g><g
     id="POLYLINE_343_">
		
			<path
   stroke-miterlimit="10"
   d="m 766.645,212.192 c -3.287,-1.449 -6.271,-2.595 -9.413,-0.331 -2.468,1.778 -4.16,4.559 -5.545,7.205 -1.654,3.161 -2.923,6.52 -3.994,9.918 -1.066,3.383 -2.143,6.963 -2.448,10.512 -0.139,1.615 0.057,3.139 1.535,4.087 0.868,0.557 1.859,0.915 2.808,1.308 2.423,1.003 4.845,2.006 7.268,3.009 3.426,1.418 6.854,2.826 10.324,4.134 3.524,1.328 7.152,2.671 10.873,3.327 2.054,0.362 4.211,0.431 6.093,-0.594 2.555,-1.39 4.342,-4.068 6.2,-6.212 2.074,-2.394 4.321,-4.495 7.225,-5.834 3.347,-1.543 7.006,-2.266 10.503,-3.379 3.188,-1.015 6.428,-2.208 9.227,-4.079 1.44,-0.962 3.128,-2.306 3.715,-4.02 0.887,-2.59 -2.638,-3.292 -4.443,-3.652 -3.825,-0.762 -7.738,-1.052 -11.591,-1.652 -3.738,-0.582 -7.447,-1.347 -11.082,-2.402 -7.909,-2.295 -15.334,-5.911 -22.805,-9.316 -1.483,-0.676 -2.967,-1.353 -4.45,-2.029 z"
   id="path131"
   inkscape:connector-curvature="0"
   style="fill:none;stroke:#c346ff;stroke-width:2.75;stroke-linecap:round;stroke-linejoin:round;stroke-miterlimit:10" />
	</g><g
     id="POLYLINE_344_">
		
			<path
   stroke-miterlimit="10"
   d="m 821.094,230.988 c 3.086,0.04 6.147,0.066 9.182,-0.573 3.425,-0.722 6.731,-1.92 10.141,-2.709 3.268,-0.757 6.558,-0.981 9.903,-1.051 3.436,-0.072 6.918,-0.03 10.294,-0.763 3.436,-0.746 6.643,-2.204 9.961,-3.322 3.104,-1.046 6.386,-1.754 9.646,-2.081 2.118,-0.212 3.374,0.794 4.568,2.43 2.053,2.812 3.819,5.91 5.583,8.907 1.441,2.448 3.111,5.1 3.695,7.917 0.321,1.55 -0.16,2.727 -1.466,3.601 -2.609,1.745 -5.759,2.909 -8.691,3.981 -3.216,1.175 -6.516,2.125 -9.878,2.783 -7.301,1.43 -14.793,1.67 -22.2,2.124 -7.001,0.429 -13.983,1.012 -20.944,1.892 -7.222,0.913 -14.387,2.405 -21.646,2.995 -6.868,0.559 -13.788,0.1 -20.578,-1.023 -1.745,-0.289 -3.478,-0.631 -5.209,-0.998"
   id="path134"
   inkscape:connector-curvature="0"
   style="fill:none;stroke:#c346ff;stroke-width:2.75;stroke-linecap:round;stroke-linejoin:round;stroke-miterlimit:10" />
	</g><g
     id="POLYLINE_345_">
		
			<path
   stroke-miterlimit="10"
   d="m 894.182,241.026 c 6.088,-0.858 12.013,-2.344 17.784,-4.472 5.858,-2.16 11.556,-4.963 16.227,-9.169 2.135,-1.922 4.067,-4.078 5.743,-6.41 1.308,-1.819 2.657,-3.811 3.24,-6.003 0.292,-1.098 0.484,-2.66 -0.388,-3.552 -0.998,-1.021 -2.903,-0.48 -4.081,-0.089 -2.679,0.889 -4.747,2.72 -7.095,4.203 -2.284,1.443 -4.855,2.43 -7.484,3.033 -2.56,0.587 -5.254,0.825 -7.865,0.46 -1.624,-0.227 -3.409,-0.689 -4.631,-1.85 -2.854,-2.709 -0.415,-6.22 1.139,-8.818 1.604,-2.681 3.152,-6.946 -0.864,-8.419 -1.411,-0.518 -3.169,-0.535 -4.342,0.519 -1.635,1.471 -2.078,3.97 -3.164,5.806 -1.078,1.822 -2.561,3.347 -4.044,4.84 -2.491,2.508 -4.952,5.05 -7.481,7.519 -1.039,1.014 -2.092,2.01 -3.172,2.981"
   id="path137"
   inkscape:connector-curvature="0"
   style="fill:none;stroke:#c346ff;stroke-width:2.75;stroke-linecap:round;stroke-linejoin:round;stroke-miterlimit:10" />
	</g><g
     id="POLYLINE_346_">
		
			<path
   stroke-miterlimit="10"
   d="m 759.01,210.877 c -1.737,-3.292 -3.969,-6.168 -6.542,-8.852 -2.815,-2.935 -5.971,-5.546 -9.423,-7.699 -2.014,-1.256 -4.117,-2.34 -6.286,-3.302"
   id="path140"
   inkscape:connector-curvature="0"
   style="fill:none;stroke:#c346ff;stroke-width:2.75;stroke-linecap:round;stroke-linejoin:round;stroke-miterlimit:10" />
	</g><g
     id="POLYLINE_347_">
		
			<path
   stroke-miterlimit="10"
   d="m 745.212,239.982 c -5.726,-3.303 -11.168,-7.115 -16.594,-10.883 -1.368,-0.95 -2.717,-1.928 -4.035,-2.945"
   id="path143"
   inkscape:connector-curvature="0"
   style="fill:none;stroke:#c346ff;stroke-width:2.75;stroke-linecap:round;stroke-linejoin:round;stroke-miterlimit:10" />
	</g><g
     id="POLYLINE_348_">
		
			<path
   stroke-miterlimit="10"
   d="m 650.678,159.243 c -0.306,-4.286 -0.733,-8.555 -1.26,-12.82"
   id="path146"
   inkscape:connector-curvature="0"
   style="fill:none;stroke:#c346ff;stroke-width:2.75;stroke-linecap:round;stroke-linejoin:round;stroke-miterlimit:10" />
	</g><g
     id="POLYLINE_349_">
		
			<path
   stroke-miterlimit="10"
   d="m 689.485,157.98 c -0.116,-3.616 10e-4,-7.219 0.373,-10.817"
   id="path149"
   inkscape:connector-curvature="0"
   style="fill:none;stroke:#c346ff;stroke-width:2.75;stroke-linecap:round;stroke-linejoin:round;stroke-miterlimit:10" />
	</g><g
     id="POLYLINE_350_">
		
			<path
   stroke-miterlimit="10"
   d="m 649.307,108.179 c -1.118,-3.885 -1.478,-7.865 -1.271,-11.898 0.032,-0.626 0.06,-1.267 0.181,-1.883 0.106,-0.543 0.253,-0.959 0.619,-0.289 0.563,1.029 0.829,2.194 1.446,3.206 0.815,1.336 1.946,2.423 3.121,3.438"
   id="path152"
   inkscape:connector-curvature="0"
   style="fill:none;stroke:#c346ff;stroke-width:2.75;stroke-linecap:round;stroke-linejoin:round;stroke-miterlimit:10" />
	</g><g
     id="POLYLINE_351_">
		
			<path
   stroke-miterlimit="10"
   d="m 660.472,97.449 c -0.448,-2.033 -0.318,-4.217 0.139,-6.243 0.165,-0.73 0.476,-1.674 1.113,-0.667 0.633,1.002 0.943,2.186 1.526,3.219 0.506,0.897 1.213,1.585 1.903,2.34"
   id="path155"
   inkscape:connector-curvature="0"
   style="fill:none;stroke:#c346ff;stroke-width:2.75;stroke-linecap:round;stroke-linejoin:round;stroke-miterlimit:10" />
	</g><g
     id="POLYLINE_352_">
		
			<path
   stroke-miterlimit="10"
   d="m 673.93,96.279 c 0.776,-1.06 1.582,-2.085 2.172,-3.264 0.348,-0.695 0.636,-1.418 0.959,-2.124 0.178,-0.388 0.385,-1.021 0.729,-1.301 0.768,-0.625 1.019,1.076 1.118,1.607 0.218,1.167 0.31,2.375 0.259,3.561 -0.054,1.247 -0.313,2.463 -0.736,3.636"
   id="path158"
   inkscape:connector-curvature="0"
   style="fill:none;stroke:#c346ff;stroke-width:2.75;stroke-linecap:round;stroke-linejoin:round;stroke-miterlimit:10" />
	</g><g
     id="POLYLINE_353_">
		
			<path
   stroke-miterlimit="10"
   d="m 681.806,102.445 c 0.985,-1.404 1.942,-2.83 2.637,-4.405 0.648,-1.469 0.747,-3.078 1.335,-4.544 0.292,-0.729 0.554,-0.307 0.781,0.236 0.217,0.519 0.359,1.075 0.496,1.619 0.396,1.572 0.668,3.184 0.798,4.8 0.175,2.17 0.043,4.343 -0.376,6.479"
   id="path161"
   inkscape:connector-curvature="0"
   style="fill:none;stroke:#c346ff;stroke-width:2.75;stroke-linecap:round;stroke-linejoin:round;stroke-miterlimit:10" />
	</g><g
     id="POLYLINE_354_">
		
			<path
   stroke-miterlimit="10"
   d="m 651.15,98.528 c 2.611,-2.361 5.809,-4.177 9.162,-5.242"
   id="path164"
   inkscape:connector-curvature="0"
   style="fill:none;stroke:#c346ff;stroke-width:2.75;stroke-linecap:round;stroke-linejoin:round;stroke-miterlimit:10" />
	</g><g
     id="POLYLINE_355_">
		
			<path
   stroke-miterlimit="10"
   d="m 662.724,92.687 c 4.293,-0.762 8.55,0.243 12.581,1.703"
   id="path167"
   inkscape:connector-curvature="0"
   style="fill:none;stroke:#c346ff;stroke-width:2.75;stroke-linecap:round;stroke-linejoin:round;stroke-miterlimit:10" />
	</g><g
     id="POLYLINE_356_">
		
			<path
   stroke-miterlimit="10"
   d="m 679.058,95.939 c 1.75,0.81 3.47,1.684 5.082,2.748"
   id="path170"
   inkscape:connector-curvature="0"
   style="fill:none;stroke:#c346ff;stroke-width:2.75;stroke-linecap:round;stroke-linejoin:round;stroke-miterlimit:10" />
	</g><g
     id="POLYLINE_357_">
		
			<path
   stroke-miterlimit="10"
   d="m 687.932,102.057 c 1.475,1.948 2.088,4.338 2.607,6.687 0.771,3.497 1.408,7.041 1.814,10.599 0.199,1.749 0.284,3.481 0.257,5.24 -0.006,0.382 -0.105,1.067 0.125,1.409 0.324,0.481 0.937,0.207 1.407,0.125 2.532,-0.442 2.106,3.281 2.01,4.843 -0.207,3.365 -0.501,6.958 -1.629,10.158 -0.34,0.964 -0.807,1.934 -1.775,2.399 -0.922,0.443 -1.978,0.305 -2.334,1.439 -0.296,0.941 -0.398,1.884 -0.789,2.8 -0.514,1.204 -1.205,2.334 -1.955,3.403 -1.957,2.79 -4.431,5.271 -7.325,7.086 -5.265,3.302 -11.426,3.52 -17.258,1.636 -2.786,-0.9 -5.468,-2.236 -7.656,-4.204 -2.128,-1.914 -3.55,-4.349 -4.815,-6.886 -0.409,-0.819 -0.795,-1.656 -1.245,-2.454 -0.185,-0.328 -0.395,-0.786 -0.723,-0.992 -0.677,-0.425 -1.691,0.093 -2.467,-0.029 -2.439,-0.385 -3.272,-4.62 -3.767,-6.488 -0.66,-2.492 -1.414,-5.248 -1.178,-7.853 0.073,-0.802 0.205,-1.788 0.712,-2.443 0.746,-0.965 1.654,-0.258 2.622,-0.319 1.099,-0.069 0.475,-1.801 0.335,-2.468 -0.298,-1.415 -0.497,-2.802 -0.536,-4.249 -0.096,-3.53 0.056,-7.009 -0.444,-10.519 -0.261,-1.829 -0.608,-3.644 -0.899,-5.468 -0.087,-0.542 -0.288,-1.243 -0.208,-1.801 0.091,-0.632 0.325,-0.318 0.607,0.082 0.753,1.071 1.267,2.328 2.126,3.325 1.045,1.213 1.283,-0.535 1.472,-1.384 0.262,-1.175 0.589,-2.326 1.132,-3.405"
   id="path173"
   inkscape:connector-curvature="0"
   style="fill:none;stroke:#c346ff;stroke-width:2.75;stroke-linecap:round;stroke-linejoin:round;stroke-miterlimit:10" />
	</g><g
     id="POLYLINE_360_">
		
			<path
   stroke-miterlimit="10"
   d="m 630.02,530.117 c -10e-4,6.145 -0.003,12.29 -0.004,18.435 -10e-4,5.679 0.043,11.359 -0.011,17.038 -0.056,5.843 0.148,11.861 -1.051,17.613 -0.621,2.982 -1.819,6.212 -0.288,9.12 1.876,3.565 6.331,2.377 9.579,2.197 5.517,-0.306 11.003,0.83 16.527,0.535 2.784,-0.148 5.577,-0.503 8.291,-1.146 1.648,-0.39 3.109,-0.847 3.656,-2.618 0.575,-1.865 0.499,-3.955 0.473,-5.882 -0.045,-3.314 -0.235,-6.63 -0.36,-9.941 -0.228,-6.033 -0.259,-12.069 -0.317,-18.106 -0.06,-6.307 -0.004,-12.617 10e-4,-18.925 0.001,-0.824 0.001,-1.647 0.002,-2.471"
   id="path176"
   inkscape:connector-curvature="0"
   style="fill:none;stroke:#c346ff;stroke-width:2.75;stroke-linecap:round;stroke-linejoin:round;stroke-miterlimit:10" />
	</g><g
     id="POLYLINE_361_">
		
			<path
   stroke-miterlimit="10"
   d="m 690.244,540.296 c -0.346,5.01 -0.691,10.019 -1.037,15.029 -0.476,6.901 -0.952,13.801 -1.428,20.701 -0.11,1.601 -0.229,3.201 -0.372,4.799 -0.213,2.378 -0.668,4.769 -0.783,7.15 -0.146,3.027 2.658,3.752 5.129,4.19 5.003,0.888 10.052,0.471 15.085,0.178 2.574,-0.15 5.122,0.001 7.69,0.176 2.113,0.144 4.31,0.375 6.415,0.026 1.086,-0.18 2.172,-0.573 2.615,-1.68 0.656,-1.643 0.18,-3.847 0.072,-5.524 -0.333,-5.191 -0.446,-10.403 -0.466,-15.604 -0.021,-5.33 0.068,-10.659 0.289,-15.985 0.221,-5.343 0.451,-10.725 1.23,-16.021 0.184,-1.255 0.395,-2.507 0.594,-3.759"
   id="path179"
   inkscape:connector-curvature="0"
   style="fill:none;stroke:#c346ff;stroke-width:2.75;stroke-linecap:round;stroke-linejoin:round;stroke-miterlimit:10" />
	</g><g
     id="POLYLINE_362_">
		
			<path
   stroke-miterlimit="10"
   d="m 631.36,594.598 c -0.264,5.693 -0.357,11.366 -0.512,17.06 -0.14,5.131 -1.2,9.834 -4.284,14.034 -1.577,2.147 -3.109,4.143 -4.125,6.631 -0.824,2.017 -1.446,4.162 -1.681,6.332 -0.283,2.611 0.012,5.366 3.068,5.93 2.443,0.451 5.097,0.282 7.566,0.294 2.971,0.013 5.942,-0.019 8.913,-0.028 5.496,-0.017 11.114,0.242 16.582,-0.39 2.914,-0.337 6.37,-0.987 8.321,-3.416 2.055,-2.558 2.109,-6.258 2.011,-9.369 -0.181,-5.774 -1.079,-11.522 -1.693,-17.259 -0.58,-5.422 -0.864,-10.873 -1.03,-16.322 -0.046,-1.511 -0.078,-3.023 -0.117,-4.534"
   id="path182"
   inkscape:connector-curvature="0"
   style="fill:none;stroke:#c346ff;stroke-width:2.75;stroke-linecap:round;stroke-linejoin:round;stroke-miterlimit:10" />
	</g><g
     id="POLYLINE_363_">
		
			<path
   stroke-miterlimit="10"
   d="m 688.509,591.237 c 0.154,7.117 0.309,14.234 0.463,21.352 0.143,6.593 0.199,13.194 0.469,19.783 0.159,3.88 -0.315,9.262 3.813,11.278 2.111,1.031 4.571,1.264 6.884,1.378 3.324,0.164 6.664,0.008 9.989,-0.076 6.755,-0.171 13.536,0.192 20.281,-0.17 3.814,-0.205 8.809,-0.498 11.557,-3.585 2.009,-2.256 2.758,-5.972 2.105,-8.881 -0.363,-1.616 -1.426,-2.83 -2.652,-3.882 -2.184,-1.875 -4.682,-3.404 -7.084,-4.981 -3.025,-1.986 -6.166,-3.864 -9.068,-6.031 -1.49,-1.112 -2.968,-2.418 -3.742,-4.149 -0.821,-1.836 -0.769,-3.952 -0.665,-5.916 0.162,-3.062 0.283,-6.083 0.178,-9.149 -0.065,-1.882 -0.129,-3.764 -0.194,-5.646"
   id="path185"
   inkscape:connector-curvature="0"
   style="fill:none;stroke:#c346ff;stroke-width:2.75;stroke-linecap:round;stroke-linejoin:round;stroke-miterlimit:10" />
	</g><g
     id="POLYLINE_364_">
		<g
   id="g299">
			
				<path
   stroke-miterlimit="10"
   d="m 679.058,95.939 c 0.178,-1.246 0.144,-2.516 -0.005,-3.764 -0.062,-0.519 -0.171,-2.458 -0.795,-2.728 -0.753,-0.325 -1.725,2.647 -1.889,3.005 -0.178,0.389 -0.657,1.798 -1.065,1.938 -0.182,0.063 -0.917,-0.331 -1.147,-0.41 -0.383,-0.131 -0.768,-0.256 -1.154,-0.375 -2.993,-0.918 -6.142,-1.436 -9.271,-1.068 -0.206,0.024 -0.834,0.237 -1.008,0.149 -0.241,-0.122 -0.458,-1.047 -0.591,-1.335 -0.14,-0.304 -0.491,-1.326 -0.904,-1.334 -0.746,-0.014 -0.757,2.479 -0.881,2.904 -0.093,0.317 0.002,0.255 -0.28,0.444 -0.165,0.11 -0.463,0.157 -0.653,0.226 -0.463,0.168 -0.921,0.351 -1.373,0.547 -0.871,0.379 -1.721,0.807 -2.546,1.277 -1.55,0.883 -3.023,1.915 -4.347,3.112 0,-0.281 -0.809,-1.107 -0.977,-1.396 -0.294,-0.507 -0.531,-1.041 -0.753,-1.583 -0.049,-0.12 -0.575,-1.902 -0.92,-1.863 -0.255,0.028 -0.308,0.848 -0.335,1.05 -0.257,1.869 -0.221,3.815 -0.141,5.695 0.03,0.707 0.22,1.504 -0.002,2.163 -0.217,0.644 -0.516,1.25 -0.702,1.909 -0.148,0.522 -0.423,3.49 -1.393,2.995 -0.337,-0.172 -0.622,-0.693 -0.83,-1 -0.535,-0.79 -0.983,-1.636 -1.499,-2.438 -0.207,-0.322 -0.565,-1.091 -0.779,-0.494 -0.176,0.49 0.129,1.471 0.205,1.942 0.324,2.031 0.715,4.052 0.984,6.092 0.489,3.711 0.138,7.42 0.42,11.135 0.113,1.493 0.59,2.92 0.736,4.402 0.145,1.476 -0.899,0.938 -1.915,0.865 -2.153,-0.153 -2.128,3.275 -2.012,4.731 0.268,3.345 1.133,7.056 2.534,10.109 0.446,0.972 1.072,2.136 2.185,2.429 0.858,0.226 2.013,-0.406 2.74,0.112 0.435,0.31 0.674,0.921 0.767,1.41 0.195,1.025 0.264,2.091 0.376,3.13 0.225,2.077 0.439,4.154 0.606,6.237 0.083,1.028 0.158,2.056 0.232,3.084 -0.471,-0.464 -1.284,-1.192 -2.017,-0.916 -0.648,0.244 -0.855,1.159 -0.999,1.761 -0.646,2.699 -0.541,5.546 -0.955,8.284 -0.262,1.734 -0.65,3.873 -2.355,4.768 -1.926,1.011 -4.372,1.119 -6.46,1.639 -5.821,1.449 -11.561,3.204 -17.295,4.958 -6.359,1.944 -12.84,3.696 -19.095,5.964 -1.946,0.706 -4.089,1.488 -5.635,2.926 -0.561,0.521 -1.294,1.35 -0.691,2.096 0.641,0.794 2.054,1.196 2.916,1.627 0.62,0.31 1.23,0.64 1.831,0.985 -5.021,3.023 -9.358,7.269 -12.309,12.342 -0.24,0.412 -0.695,1.605 -1.078,1.665 -0.205,0.032 -0.636,-0.197 -0.854,-0.241 -0.536,-0.108 -1.083,-0.133 -1.627,-0.083 -1.893,0.174 -3.693,1.088 -5.397,1.862 -6.55,2.973 -13.03,6.161 -19.75,8.739 -6.094,2.337 -12.337,3.948 -18.789,4.926 -3.287,0.499 -6.602,0.815 -9.882,1.358 -1.565,0.259 -4.955,0.595 -5.629,2.423 -0.139,0.376 -0.121,0.793 -0.02,1.177 -3.347,0.044 -6.63,0.034 -9.907,-0.735 -3.523,-0.827 -6.941,-2.054 -10.49,-2.782 -7.077,-1.452 -14.427,-0.087 -21.401,-2.173 -3.595,-1.075 -7.007,-2.679 -10.652,-3.6 -1.704,-0.43 -3.432,-0.762 -5.17,-1.014 -1.069,-0.155 -2.313,-0.432 -3.386,-0.121 -0.527,0.152 -0.86,0.47 -1.301,0.754 -0.074,0.048 -0.227,0.289 -0.304,0.289 -0.183,0.001 -0.923,-0.836 -1.078,-0.979 -1.072,-0.993 -2.117,-2.013 -3.147,-3.05 -2.854,-2.873 -5.882,-5.643 -8.545,-8.698 -0.786,-0.901 -1.512,-1.859 -2.096,-2.904 -0.743,-1.331 -1.204,-2.799 -1.951,-4.126 -1.056,-1.876 -2.847,-2.612 -4.908,-2.058 -2.186,0.587 -3.35,2.33 -3.007,4.556 0.347,2.254 1.789,4.125 2.896,6.05 0.751,1.305 1.404,2.741 1.192,4.283 -0.298,2.165 -2.121,3.395 -4.076,3.965 -5.696,1.659 -12.673,-0.145 -17.521,-3.323 -2.502,-1.64 -4.779,-3.593 -7.771,-4.274 -1.835,-0.418 -3.614,-0.052 -3.691,2.154 -0.064,1.836 0.853,3.633 1.753,5.164 1.723,2.929 3.914,5.613 6.346,7.98 5.386,5.24 12.23,8.481 19.268,10.894 3.468,1.189 7.007,2.198 10.603,2.922 0.871,0.176 1.746,0.333 2.623,0.477 0.537,0.088 2.367,0.112 2.635,0.455 0.217,0.277 0.208,0.886 0.448,1.229 0.257,0.368 0.609,0.659 0.973,0.916 2.638,1.861 5.972,3.042 8.984,4.137 3.416,1.241 6.926,2.219 10.501,2.876 7.931,1.459 16.087,1.651 24.117,2.144 7.113,0.436 14.232,1.118 21.288,2.126 7.638,1.092 15.273,2.659 23.01,2.826 3.612,0.078 7.233,-0.121 10.823,-0.516 1.918,-0.211 3.828,-0.476 5.73,-0.797 0.93,-0.157 1.858,-0.327 2.784,-0.51 0.715,-0.141 1.561,-0.472 2.256,-0.352 0.573,0.099 1.108,0.328 1.698,0.392 1.045,0.113 2.106,0.023 3.141,-0.14 3.637,-0.571 7.185,-1.886 10.625,-3.157 3.158,-1.166 6.278,-2.435 9.388,-3.723 2.486,-1.029 4.973,-2.059 7.459,-3.088 1.234,-0.511 2.528,-0.97 3.706,-1.604 0.684,-0.368 1.334,-0.827 1.685,-1.543 0.349,-0.712 0.127,-1.427 0.355,-2.109 0.167,-0.5 1.219,-0.889 1.723,-1.195 0.842,-0.51 1.68,-1.026 2.508,-1.558 1.542,-0.99 3.061,-2.018 4.552,-3.083 2.967,-2.121 5.771,-4.41 8.499,-6.829 -0.284,4.685 -0.081,9.25 0.549,13.901 0.666,4.913 1.479,9.81 2.589,14.644 1.104,4.806 2.458,9.561 4.022,14.237 0.427,1.277 0.87,2.549 1.332,3.814 0.172,0.47 0.578,1.122 0.537,1.594 -0.024,0.282 -0.287,0.665 -0.389,0.936 -0.583,1.563 -0.853,3.216 -0.966,4.875 -0.159,2.33 -0.029,4.669 -0.04,7.001 -0.004,0.736 -0.458,3.802 0.492,4.383 0.231,0.141 0.516,0.08 0.748,-0.033 -1.156,2.242 -1.781,4.517 -1.705,7.041 0.057,1.903 0.094,3.75 -0.168,5.642 -0.256,1.848 -0.657,3.691 -0.792,5.555 -0.068,0.943 -0.157,2.396 1.163,2.339 -0.771,5.027 -1.542,10.054 -2.313,15.081 -0.717,4.679 -1.472,9.353 -2.111,14.043 -0.661,4.845 -1.187,9.706 -1.633,14.575 -0.434,4.746 -0.729,9.502 -1.014,14.258 -0.172,2.867 -0.331,5.731 -0.459,8.601 -0.24,5.358 -0.481,10.715 -0.721,16.073 -0.324,7.228 -0.648,14.456 -0.973,21.684 -0.286,6.386 -0.573,12.772 -0.859,19.158 -0.132,2.937 -0.24,5.877 -0.395,8.813 -0.275,5.202 -0.646,10.401 -0.97,15.601 -0.182,2.923 -0.384,5.841 -0.604,8.762 -0.491,6.521 -0.982,13.043 -1.473,19.564 -0.449,5.969 -0.899,11.938 -1.348,17.907 -0.229,3.037 -0.626,6.153 -0.255,9.189 0.389,3.184 1.945,6.167 3.919,8.653 2.39,3.009 5.489,5.061 9.098,6.333 2.055,0.724 4.176,1.228 6.301,1.692 0.783,0.171 0.7,0.1 0.699,0.82 0,0.847 0,1.694 -10e-4,2.54 -0.001,6.605 -0.003,13.211 -0.004,19.816 -10e-4,4.067 0.031,8.135 -0.008,12.202 -0.048,4.941 0.031,9.923 -0.561,14.839 -0.264,2.19 -0.833,4.295 -1.265,6.453 -0.227,1.133 -0.374,2.29 -0.217,3.442 0.11,0.808 0.351,1.606 0.742,2.323 0.227,0.415 0.503,0.806 0.837,1.143 0.272,0.274 0.579,0.513 0.919,0.699 0.197,0.108 0.578,0.168 0.735,0.309 0.443,0.399 0.06,2.261 0.03,2.904 -0.073,1.576 -0.147,3.152 -0.22,4.729 -0.106,2.29 -0.107,4.582 -0.122,6.875 -0.028,4.212 -0.154,8.455 -1.854,12.377 -1.748,4.031 -5.064,7.028 -6.692,11.133 -1.091,2.751 -2.073,6.049 -1.555,9.03 0.491,2.825 3.053,3.117 5.493,3.202 5.124,0.177 10.265,0.062 15.391,0.046 4.515,-0.014 9.066,0.105 13.571,-0.232 2.959,-0.221 6.338,-0.597 8.791,-2.438 1.562,-1.172 2.4,-2.945 2.808,-4.816 0.881,-4.038 0.298,-8.442 -0.135,-12.501 -0.529,-4.973 -1.199,-9.931 -1.594,-14.917 -0.385,-4.863 -0.561,-9.739 -0.687,-14.615 -0.009,-0.339 -0.238,-1.475 -0.045,-1.755 0.076,-0.111 0.565,-0.212 0.696,-0.274 0.721,-0.341 1.215,-0.879 1.511,-1.618 0.485,-1.209 0.542,-2.601 0.589,-3.882 0.182,-4.951 -0.276,-9.943 -0.438,-14.89 -0.163,-4.98 -0.167,-9.966 -0.214,-14.948 -0.046,-4.83 -0.013,-9.661 -0.009,-14.49 10e-4,-1.584 0.003,-3.167 0.004,-4.751 0,-0.562 10e-4,-1.125 10e-4,-1.687 0,-0.212 -0.099,-0.727 10e-4,-0.918 0.179,-0.343 1.976,-0.173 2.447,-0.189 1.128,-0.04 2.253,-0.109 3.378,-0.193 2.546,-0.188 5.098,-0.349 7.638,-0.61 1.111,-0.114 2.221,-0.25 3.32,-0.451 0.555,-0.102 0.599,-0.196 0.841,0.28 0.127,0.249 0.235,0.507 0.367,0.755 0.684,1.285 1.565,3.064 2.844,3.882 0.842,0.538 1.914,0.658 2.888,0.711 -0.288,4.175 -0.576,8.35 -0.864,12.525 -0.464,6.72 -0.927,13.439 -1.391,20.159 -0.251,3.635 -0.489,7.271 -0.879,10.895 -0.167,1.556 -0.578,3.165 -0.492,4.737 0.034,0.613 0.188,1.208 0.584,1.69 0.32,0.389 0.853,0.523 1.162,0.865 0.203,0.225 0.152,0.432 0.16,0.795 0.018,0.82 0.036,1.639 0.053,2.459 0.061,2.828 0.123,5.657 0.184,8.485 0.148,6.822 0.296,13.644 0.444,20.465 0.081,3.752 0.159,7.499 0.34,11.248 0.132,2.744 0.071,6.339 2.443,8.244 2.265,1.819 5.595,2.051 8.362,2.175 4.633,0.207 9.283,-0.124 13.916,-0.187 4.867,-0.066 9.736,0.137 14.601,-0.004 3.67,-0.107 7.865,-0.266 11.154,-2.106 1.393,-0.779 2.47,-1.956 3.161,-3.392 1.045,-2.173 1.483,-5.131 0.773,-7.464 -0.837,-2.75 -3.758,-4.486 -5.978,-5.995 -4.03,-2.74 -8.223,-5.256 -12.19,-8.086 -2.184,-1.558 -4.223,-3.405 -4.765,-6.145 -0.305,-1.542 -0.233,-3.139 -0.141,-4.698 0.135,-2.297 0.244,-4.577 0.209,-6.879 -0.017,-1.108 -0.066,-2.215 -0.104,-3.322 -0.03,-0.86 -0.059,-1.72 -0.089,-2.581 -0.01,-0.298 -0.223,-1.313 -0.054,-1.57 0.135,-0.204 1.132,-0.295 1.434,-0.432 0.62,-0.282 1.068,-0.74 1.306,-1.382 0.521,-1.407 0.193,-3.153 0.1,-4.594 -0.147,-2.282 -0.263,-4.565 -0.34,-6.85 -0.165,-4.878 -0.222,-9.763 -0.172,-14.643 0.048,-4.75 0.189,-9.499 0.43,-14.243 0.235,-4.637 0.529,-9.28 1.258,-13.869 0.115,-0.724 0.112,-1.633 0.368,-2.319 0.147,-0.394 0.116,-0.319 0.592,-0.438 1.512,-0.379 3.025,-0.758 4.537,-1.137 2.132,-0.534 4.257,-1.112 6.358,-1.759 3.165,-0.975 6.874,-2.037 9.319,-4.406 1.446,-1.401 1.966,-3.263 2.034,-5.231 0.155,-4.45 -1.043,-8.995 -1.859,-13.34 -0.884,-4.706 -1.714,-9.412 -2.381,-14.154 -0.653,-4.643 -1.203,-9.299 -1.651,-13.966 -0.478,-4.987 -0.839,-9.985 -1.15,-14.986 -0.267,-4.28 -0.49,-8.571 -0.646,-12.857 -0.155,-4.234 -0.336,-8.468 -0.445,-12.704 -0.161,-6.217 -0.322,-12.435 -0.483,-18.652 -0.113,-4.374 -0.182,-8.752 -0.341,-13.125 -0.176,-4.837 -0.463,-9.672 -0.882,-14.495 -0.398,-4.593 -0.962,-9.171 -1.694,-13.723 -0.782,-4.866 -1.729,-9.699 -2.741,-14.522 -0.926,-4.416 -1.958,-8.813 -2.993,-13.205 -1.101,-4.668 -2.188,-9.344 -3.359,-13.995 -1.252,-4.975 -2.535,-9.938 -3.936,-14.874 -1.227,-4.324 -2.61,-8.601 -3.993,-12.877 1.137,-0.33 1.15,-1.351 1.027,-2.351 -0.183,-1.494 -0.576,-2.941 -0.541,-4.456 0.046,-1.987 0.557,-3.928 0.723,-5.904 0.15,-1.78 0.024,-3.57 -0.271,-5.329 -0.374,-2.235 -1.012,-4.434 -1.908,-6.515 2.623,0.365 1.01,-6.514 0.831,-7.63 -0.238,-1.482 -0.457,-2.989 -1.086,-4.366 -0.088,-0.192 -0.281,-0.433 -0.32,-0.632 -0.087,-0.447 0.264,-1.083 0.414,-1.531 0.347,-1.038 0.69,-2.078 1.014,-3.123 1.297,-4.181 2.325,-8.43 2.995,-12.757 0.704,-4.548 1.122,-9.142 1.437,-13.731 0.332,-4.851 0.511,-9.709 0.72,-14.567 0.011,-0.261 0.022,-0.522 0.034,-0.783 2.911,2.245 5.97,4.299 9.012,6.359 3.299,2.233 6.597,4.47 10.011,6.527 0.513,0.309 1.45,0.644 1.599,1.168 0.077,0.272 0.003,0.652 0.039,0.94 0.116,0.939 0.515,1.701 1.284,2.264 0.713,0.523 1.563,0.856 2.372,1.194 2.06,0.86 4.125,1.708 6.187,2.562 6.919,2.865 13.898,6.047 21.198,7.818 2.024,0.491 4.238,0.922 6.302,0.396 0.261,-0.067 0.555,-0.234 0.817,-0.265 0.773,-0.09 1.996,0.388 2.774,0.537 1.86,0.355 3.731,0.658 5.609,0.907 7.289,0.967 14.569,1.018 21.862,0.084 7.815,-1.001 15.559,-2.405 23.399,-3.233 7.607,-0.804 15.235,-1.168 22.866,-1.677 7.693,-0.513 15.289,-1.411 22.617,-3.921 3.319,-1.137 6.751,-2.435 9.755,-4.27 0.699,-0.427 1.409,-0.945 1.723,-1.732 0.066,-0.166 0.069,-0.521 0.162,-0.653 0.206,-0.291 0.878,-0.252 1.291,-0.311 0.884,-0.128 1.765,-0.273 2.644,-0.432 7.259,-1.314 14.535,-3.658 21.121,-6.991 6.429,-3.254 11.947,-8.026 15.844,-14.115 1.081,-1.689 2.231,-3.631 2.331,-5.695 0.041,-0.839 -0.095,-1.839 -0.82,-2.374 -0.708,-0.522 -1.724,-0.414 -2.54,-0.261 -2.879,0.538 -5.169,2.333 -7.518,3.952 -2.707,1.866 -5.778,3.108 -8.996,3.768 -3.69,0.756 -12.184,1.479 -13.15,-3.831 -0.703,-3.864 3.4,-6.746 4.036,-10.387 0.387,-2.214 -0.674,-4.019 -2.87,-4.657 -2.026,-0.589 -3.875,0.053 -4.959,1.911 -0.767,1.315 -1.222,2.787 -1.951,4.123 -0.572,1.049 -1.288,2.011 -2.067,2.914 -2.65,3.074 -5.696,5.845 -8.554,8.721 -1.058,1.065 -2.13,2.115 -3.231,3.135 -0.206,0.191 -0.684,0.793 -0.959,0.872 -0.264,0.076 -0.168,-0.022 -0.423,-0.182 -0.428,-0.268 -0.753,-0.587 -1.258,-0.742 -1.066,-0.326 -2.31,-0.053 -3.376,0.101 -1.756,0.253 -3.502,0.587 -5.223,1.022 -3.707,0.937 -7.173,2.577 -10.834,3.655 -3.229,0.95 -6.517,1.179 -9.866,1.25 -3.859,0.081 -7.703,0.102 -11.498,0.899 -3.626,0.761 -7.119,2.038 -10.734,2.841 -3.146,0.699 -6.311,0.687 -9.517,0.646 0.636,-2.404 -2.83,-3.056 -4.477,-3.387 -3.635,-0.729 -7.356,-1.012 -11.02,-1.566 -7.201,-1.089 -14.089,-3.011 -20.842,-5.728 -3.354,-1.349 -6.625,-2.88 -9.913,-4.379 -3.482,-1.587 -6.938,-3.358 -10.52,-4.718 -1.415,-0.537 -2.901,-0.935 -4.412,-0.605 -0.391,0.085 -0.73,0.307 -0.987,0.105 -0.454,-0.355 -0.807,-1.471 -1.116,-1.978 -0.76,-1.247 -1.617,-2.431 -2.539,-3.563 -4.405,-5.407 -9.923,-9.945 -16.173,-13.056 -0.77,-0.383 -1.55,-0.741 -2.335,-1.09 1.286,-0.749 1.786,-1.653 0.588,-2.822 -1.341,-1.309 -3.194,-2.133 -4.888,-2.861 -4.545,-1.954 -9.382,-3.181 -14.135,-4.512 -5.82,-1.631 -11.653,-3.221 -17.454,-4.921 -1.821,-0.534 -3.643,-1.068 -5.464,-1.601 -0.655,-0.192 -1.395,-0.348 -1.96,-0.75 -1.243,-0.886 -1.162,-3.008 -1.212,-4.349 -0.1,-2.649 0.044,-5.336 -0.373,-7.964 -0.131,-0.828 -0.431,-3.166 -1.489,-3.494 -0.303,-0.094 -0.612,0.029 -0.859,0.209 0.14,-0.099 -0.078,-2.203 -0.078,-2.482 -0.002,-0.776 0.007,-1.552 0.026,-2.328 0.041,-1.658 0.132,-3.313 0.291,-4.963 0.099,-1.031 0.353,-2.087 0.624,-3.091 0.299,-1.107 1.058,-1.097 2.024,-1.442 2.09,-0.746 2.509,-3.601 2.876,-5.486 0.59,-3.027 1.04,-6.277 0.928,-9.368 -0.028,-0.761 -0.077,-1.764 -0.618,-2.363 -0.756,-0.837 -1.586,0.047 -2.456,-0.172 -0.895,-0.226 -0.502,-2.219 -0.502,-2.844 0,-1.611 -0.165,-3.223 -0.366,-4.82 -0.402,-3.201 -0.974,-6.386 -1.654,-9.539 -0.491,-2.275 -1.04,-4.617 -2.365,-6.57 -0.366,-0.539 -0.31,-0.97 -0.344,-1.629 -0.043,-0.831 -0.13,-1.659 -0.251,-2.482 -0.205,-1.39 -0.469,-2.797 -0.908,-4.134 -0.231,-0.702 -0.659,-1.782 -1.034,-0.514 -0.357,1.208 -0.533,2.447 -0.985,3.629 -0.173,0.451 -0.368,0.892 -0.582,1.325 -1.602,-1.073 -3.321,-1.947 -5.072,-2.757 z"
   id="path297"
   inkscape:connector-curvature="0"
   style="fill:none;stroke:#0000ff;stroke-width:3.5;stroke-linecap:round;stroke-linejoin:round;stroke-miterlimit:10" />
		</g>
	</g></g>
</svg>