<?xml version="1.0" encoding="UTF-8" standalone="no"?>
<!-- Generator: Adobe Illustrator 23.0.3, SVG Export Plug-In . SVG Version: 6.00 Build 0)  -->

<svg
   xmlns:ns="&amp;ns_sfw;"
   xmlns:dc="http://purl.org/dc/elements/1.1/"
   xmlns:cc="http://creativecommons.org/ns#"
   xmlns:rdf="http://www.w3.org/1999/02/22-rdf-syntax-ns#"
   xmlns:svg="http://www.w3.org/2000/svg"
   xmlns="http://www.w3.org/2000/svg"
   xmlns:sodipodi="http://sodipodi.sourceforge.net/DTD/sodipodi-0.dtd"
   xmlns:inkscape="http://www.inkscape.org/namespaces/inkscape"
   version="1.1"
   x="0px"
   y="0px"
   viewBox="0 0 1122.5197 793.70079"
   xml:space="preserve"
   id="svg180"
   sodipodi:docname="Tyrion-Lannister.svg"
   width="297mm"
   height="210mm"
   inkscape:version="0.92.4 (5da689c313, 2019-01-14)"><defs
   id="defs184">
	
	

	
	
	
	
	
	
	
	
	
	
	
	
	
	
	
	
	
	
	
	
	
	
	
	
	
	
	
	
	
	
	
	
	
	
	
	
	
	
	
	
	
	

	

		
		
	</defs><sodipodi:namedview
   pagecolor="#ffffff"
   bordercolor="#666666"
   borderopacity="1"
   objecttolerance="10"
   gridtolerance="10"
   guidetolerance="10"
   inkscape:pageopacity="0"
   inkscape:pageshadow="2"
   inkscape:window-width="1920"
   inkscape:window-height="1018"
   id="namedview182"
   showgrid="false"
   units="mm"
   inkscape:zoom="0.67428571"
   inkscape:cx="471.52164"
   inkscape:cy="396.95758"
   inkscape:window-x="-8"
   inkscape:window-y="-8"
   inkscape:window-maximized="1"
   inkscape:current-layer="svg180" />
<style
   type="text/css"
   id="style2">
	.st0{fill:#FFFFFF;}
	.st1{fill:#C346FF;}
	.st2{font-family:'Rubik-Regular';}
	.st3{font-size:20px;}
	.st4{fill:none;stroke:#000000;stroke-width:3.25;stroke-linecap:round;stroke-linejoin:round;}
	.st5{fill:none;stroke:#000000;stroke-width:3.25;stroke-linecap:round;stroke-linejoin:round;stroke-dasharray:4.0081,7.0141;}
	.st6{fill:none;stroke:#C346FF;stroke-width:3.25;stroke-linecap:round;stroke-linejoin:round;}
	.st7{fill:none;stroke:#C346FF;stroke-width:3.25;stroke-linecap:round;stroke-linejoin:round;stroke-dasharray:4.0081,7.0141;}
	.st8{fill:none;stroke:#C346FF;stroke-width:3.25;stroke-linecap:round;stroke-linejoin:round;stroke-dasharray:3.8608,6.7564;}
	.st9{fill:none;stroke:#C346FF;stroke-width:3.25;stroke-linecap:round;stroke-linejoin:round;stroke-dasharray:4.0373,7.0652;}
	.st10{fill:none;stroke:#C346FF;stroke-width:3.25;stroke-linecap:round;stroke-linejoin:round;stroke-dasharray:3.8299,6.7023;}
	.st11{fill:none;stroke:#C346FF;stroke-width:3.25;stroke-linecap:round;stroke-linejoin:round;stroke-dasharray:4.0059,7.0103;}
	.st12{fill:none;stroke:#C346FF;stroke-width:3.25;stroke-linecap:round;stroke-linejoin:round;stroke-dasharray:4.6985,8.2225;}
	.st13{fill:none;stroke:#C346FF;stroke-width:3.25;stroke-linecap:round;stroke-linejoin:round;stroke-dasharray:3.7843,6.6226;}
	.st14{fill:none;stroke:#C346FF;stroke-width:3.25;stroke-linecap:round;stroke-linejoin:round;stroke-dasharray:4.0711,7.1244;}
	.st15{fill:none;stroke:#C346FF;stroke-width:3.25;stroke-linecap:round;stroke-linejoin:round;stroke-dasharray:3.9175,6.8557;}
	.st16{fill:none;stroke:#C346FF;stroke-width:3.25;stroke-linecap:round;stroke-linejoin:round;stroke-dasharray:3.9677,6.9435;}
	.st17{fill:none;stroke:#C346FF;stroke-width:3.25;stroke-linecap:round;stroke-linejoin:round;stroke-dasharray:3.99,6.9825;}
	.st18{fill:none;stroke:#C346FF;stroke-width:3.25;stroke-linecap:round;stroke-linejoin:round;stroke-dasharray:4.8487,8.4853;}
	.st19{fill:none;stroke:#C346FF;stroke-width:3.25;stroke-linecap:round;stroke-linejoin:round;stroke-dasharray:3.911,6.8443;}
	.st20{fill:none;stroke:#C346FF;stroke-width:3.25;stroke-linecap:round;stroke-linejoin:round;stroke-dasharray:3.9082,6.8394;}
	.st21{fill:none;stroke:#C346FF;stroke-width:3.25;stroke-linecap:round;stroke-linejoin:round;stroke-dasharray:3.8757,6.7825;}
	.st22{fill:none;stroke:#C346FF;stroke-width:3.25;stroke-linecap:round;stroke-linejoin:round;stroke-dasharray:4.1148,7.201;}
	.st23{fill:none;stroke:#C346FF;stroke-width:3.25;stroke-linecap:round;stroke-linejoin:round;stroke-dasharray:4.0223,7.039;}
	.st24{fill:none;stroke:#C346FF;stroke-width:3.25;stroke-linecap:round;stroke-linejoin:round;stroke-dasharray:4.0042,7.0074;}
	.st25{fill:none;stroke:#000000;stroke-width:3.25;stroke-linecap:round;stroke-linejoin:round;stroke-dasharray:4.0362,7.0633;}
	.st26{fill:none;stroke:#C346FF;stroke-width:3.25;stroke-linecap:round;stroke-linejoin:round;stroke-dasharray:4.0362,7.0633;}
	.st27{fill:none;stroke:#C346FF;stroke-width:3.25;stroke-linecap:round;stroke-linejoin:round;stroke-dasharray:3.7919,6.6358;}
	.st28{fill:none;stroke:#C346FF;stroke-width:3.25;stroke-linecap:round;stroke-linejoin:round;stroke-dasharray:4.029,7.0508;}
	.st29{fill:none;stroke:#C346FF;stroke-width:3.25;stroke-linecap:round;stroke-linejoin:round;stroke-dasharray:4.013,7.0227;}
	.st30{fill:none;stroke:#C346FF;stroke-width:3.25;stroke-linecap:round;stroke-linejoin:round;stroke-dasharray:4.0164,7.0288;}
	.st31{fill:none;stroke:#C346FF;stroke-width:3.25;stroke-linecap:round;stroke-linejoin:round;stroke-dasharray:3.8996,6.8243;}
	.st32{fill:none;stroke:#C346FF;stroke-width:3.25;stroke-linecap:round;stroke-linejoin:round;stroke-dasharray:4.1149,7.201;}
	.st33{fill:none;stroke:#C346FF;stroke-width:3.25;stroke-linecap:round;stroke-linejoin:round;stroke-dasharray:3.5562,6.2234;}
	.st34{fill:none;stroke:#C346FF;stroke-width:3.25;stroke-linecap:round;stroke-linejoin:round;stroke-dasharray:3.998,6.9964;}
	.st35{fill:none;stroke:#C346FF;stroke-width:3.25;stroke-linecap:round;stroke-linejoin:round;stroke-dasharray:3.6971,6.47;}
	.st36{fill:none;stroke:#C346FF;stroke-width:3.25;stroke-linecap:round;stroke-linejoin:round;stroke-dasharray:4.1003,7.1756;}
	.st37{fill:none;stroke:#C346FF;stroke-width:3.25;stroke-linecap:round;stroke-linejoin:round;stroke-dasharray:3.6503,6.388;}
	.st38{fill:none;stroke:#C346FF;stroke-width:3.25;stroke-linecap:round;stroke-linejoin:round;stroke-dasharray:3.8454,6.7295;}
	.st39{fill:none;stroke:#C346FF;stroke-width:3.25;stroke-linecap:round;stroke-linejoin:round;stroke-dasharray:3.9566,6.924;}
	.st40{fill:none;stroke:#C346FF;stroke-width:3.25;stroke-linecap:round;stroke-linejoin:round;stroke-dasharray:3.9517,6.9155;}
	.st41{fill:none;stroke:#C346FF;stroke-width:3.25;stroke-linecap:round;stroke-linejoin:round;stroke-dasharray:4.0927,7.1622;}
	.st42{fill:none;stroke:#C346FF;stroke-width:3.25;stroke-linecap:round;stroke-linejoin:round;stroke-dasharray:3.555,6.2212;}
	.st43{fill:none;stroke:#C346FF;stroke-width:3.25;stroke-linecap:round;stroke-linejoin:round;stroke-dasharray:3.975,6.9562;}
	.st44{fill:none;stroke:#C346FF;stroke-width:3.25;stroke-linecap:round;stroke-linejoin:round;stroke-dasharray:4.0137,7.0239;}
	.st45{fill:none;stroke:#C346FF;stroke-width:3.25;stroke-linecap:round;stroke-linejoin:round;stroke-dasharray:3.8218,6.6881;}
	.st46{fill:none;stroke:#C346FF;stroke-width:3.25;stroke-linecap:round;stroke-linejoin:round;stroke-dasharray:3.8918,6.8106;}
	.st47{fill:none;stroke:#C346FF;stroke-width:3.25;stroke-linecap:round;stroke-linejoin:round;stroke-dasharray:3.7511,6.5644;}
	.st48{fill:none;stroke:#C346FF;stroke-width:3.25;stroke-linecap:round;stroke-linejoin:round;stroke-dasharray:4.071,7.1243;}
	.st49{fill:none;stroke:#C346FF;stroke-width:3.25;stroke-linecap:round;stroke-linejoin:round;stroke-dasharray:4.0058,7.0102;}
	.st50{fill:none;stroke:#000000;stroke-width:3.25;stroke-linecap:round;stroke-linejoin:round;stroke-dasharray:3.9662,6.9409;}
	.st51{fill:none;stroke:#C346FF;stroke-width:3.25;stroke-linecap:round;stroke-linejoin:round;stroke-dasharray:3.9662,6.9409;}
	.st52{fill:none;stroke:#C346FF;stroke-width:3.25;stroke-linecap:round;stroke-linejoin:round;stroke-dasharray:3.9779,6.9613;}
	.st53{fill:none;stroke:#C346FF;stroke-width:3.25;stroke-linecap:round;stroke-linejoin:round;stroke-dasharray:4.0381,7.0666;}
	.st54{fill:none;stroke:#C346FF;stroke-width:3.25;stroke-linecap:round;stroke-linejoin:round;stroke-dasharray:3.9985,6.9974;}
	.st55{fill:none;stroke:#C346FF;stroke-width:3.25;stroke-linecap:round;stroke-linejoin:round;stroke-dasharray:4.015,7.0262;}
	.st56{fill:none;stroke:#C346FF;stroke-width:3.25;stroke-linecap:round;stroke-linejoin:round;stroke-dasharray:3.8736,6.7788;}
	.st57{fill:none;stroke:#C346FF;stroke-width:3.25;stroke-linecap:round;stroke-linejoin:round;stroke-dasharray:4.1513,7.2648;}
	.st58{fill:none;stroke:#C346FF;stroke-width:3.25;stroke-linecap:round;stroke-linejoin:round;stroke-dasharray:4.0878,7.1536;}
	.st59{fill:none;stroke:#C346FF;stroke-width:3.25;stroke-linecap:round;stroke-linejoin:round;stroke-dasharray:3.8729,6.7776;}
	.st60{fill:none;stroke:#C346FF;stroke-width:3.25;stroke-linecap:round;stroke-linejoin:round;stroke-dasharray:4.2591,7.4535;}
	.st61{fill:none;stroke:#C346FF;stroke-width:3.25;stroke-linecap:round;stroke-linejoin:round;stroke-dasharray:4.2012,7.3521;}
	.st62{fill:none;stroke:#C346FF;stroke-width:3.25;stroke-linecap:round;stroke-linejoin:round;stroke-dasharray:4.694,8.2145;}
	.st63{fill:none;stroke:#C346FF;stroke-width:3.25;stroke-linecap:round;stroke-linejoin:round;stroke-dasharray:4.0054,7.0095;}
	.st64{fill:none;stroke:#C346FF;stroke-width:3.25;stroke-linecap:round;stroke-linejoin:round;stroke-dasharray:4.0102,7.0179;}
	.st65{fill:none;stroke:#C346FF;stroke-width:3.25;stroke-linecap:round;stroke-linejoin:round;stroke-dasharray:3.4794,6.089;}
	.st66{fill:none;stroke:#C346FF;stroke-width:3.25;stroke-linecap:round;stroke-linejoin:round;stroke-dasharray:3.9884,6.9796;}
	.st67{fill:none;stroke:#000000;stroke-width:3.25;stroke-linecap:round;stroke-linejoin:round;stroke-dasharray:4.0369,7.0646;}
	.st68{fill:none;stroke:#C346FF;stroke-width:3.25;stroke-linecap:round;stroke-linejoin:round;stroke-dasharray:4.0369,7.0646;}
	.st69{fill:none;stroke:#C346FF;stroke-width:3.25;stroke-linecap:round;stroke-linejoin:round;stroke-dasharray:3.9791,6.9634;}
	.st70{fill:none;stroke:#C346FF;stroke-width:3.25;stroke-linecap:round;stroke-linejoin:round;stroke-dasharray:3.9434,6.901;}
	.st71{fill:none;stroke:#C346FF;stroke-width:3.25;stroke-linecap:round;stroke-linejoin:round;stroke-dasharray:3.8002,6.6504;}
	.st72{fill:none;stroke:#C346FF;stroke-width:3.25;stroke-linecap:round;stroke-linejoin:round;stroke-dasharray:4.0686,7.1201;}
	.st73{fill:none;stroke:#C346FF;stroke-width:3.25;stroke-linecap:round;stroke-linejoin:round;stroke-dasharray:4.0092,7.0161;}
	.st74{fill:none;stroke:#C346FF;stroke-width:3.25;stroke-linecap:round;stroke-linejoin:round;stroke-dasharray:4.1001,7.1752;}
	.st75{fill:none;stroke:#C346FF;stroke-width:3.25;stroke-linecap:round;stroke-linejoin:round;stroke-dasharray:4.1805,7.3159;}
	.st76{fill:none;stroke:#C346FF;stroke-width:3.25;stroke-linecap:round;stroke-linejoin:round;stroke-dasharray:4.1225,7.2143;}
	.st77{fill:none;stroke:#C346FF;stroke-width:3.25;stroke-linecap:round;stroke-linejoin:round;stroke-dasharray:4.5985,8.0473;}
	.st78{fill:none;stroke:#C346FF;stroke-width:3.25;stroke-linecap:round;stroke-linejoin:round;stroke-dasharray:4.068,7.119;}
	.st79{fill:none;stroke:#C346FF;stroke-width:3.25;stroke-linecap:round;stroke-linejoin:round;stroke-dasharray:4.028,7.049;}
	.st80{fill:none;stroke:#C346FF;stroke-width:3.25;stroke-linecap:round;stroke-linejoin:round;stroke-dasharray:3.4167,5.9793;}
	.st81{fill:none;stroke:#C346FF;stroke-width:3.25;stroke-linecap:round;stroke-linejoin:round;stroke-dasharray:4.0476,7.0834;}
	.st82{fill:none;stroke:#C346FF;stroke-width:3.25;stroke-linecap:round;stroke-linejoin:round;stroke-dasharray:3.9053,6.8342;}
	.st83{fill:none;stroke:#C346FF;stroke-width:3.25;stroke-linecap:round;stroke-linejoin:round;stroke-dasharray:3.9914,6.985;}
	.st84{fill:none;stroke:#C346FF;stroke-width:3.25;stroke-linecap:round;stroke-linejoin:round;stroke-dasharray:4.0775,7.1357;}
	.st85{fill:none;stroke:#C346FF;stroke-width:3.25;stroke-linecap:round;stroke-linejoin:round;stroke-dasharray:3.9894,6.9815;}
	.st86{fill:none;stroke:#C346FF;stroke-width:3.25;stroke-linecap:round;stroke-linejoin:round;stroke-dasharray:4.0144,7.0252;}
	.st87{fill:none;stroke:#C346FF;stroke-width:3.25;stroke-linecap:round;stroke-linejoin:round;stroke-dasharray:3.9932,6.9881;}
	.st88{fill:none;stroke:#C346FF;stroke-width:3.25;stroke-linecap:round;stroke-linejoin:round;stroke-dasharray:3.9986,6.9975;}
	.st89{fill:none;stroke:#C346FF;stroke-width:3.25;stroke-linecap:round;stroke-linejoin:round;stroke-dasharray:3.9732,6.9532;}
	.st90{fill:none;stroke:#C346FF;stroke-width:3.25;stroke-linecap:round;stroke-linejoin:round;stroke-dasharray:4.0057,7.0099;}
	.st91{fill:none;stroke:#C346FF;stroke-width:3.25;stroke-linecap:round;stroke-linejoin:round;stroke-dasharray:3.9983,6.997;}
	.st92{fill:none;stroke:#C346FF;stroke-width:3.25;stroke-linecap:round;stroke-linejoin:round;stroke-dasharray:4.01,7.0176;}
	.st93{fill:none;stroke:#C346FF;stroke-width:3.25;stroke-linecap:round;stroke-linejoin:round;stroke-dasharray:3.9989,6.9981;}
	.st94{fill:none;stroke:#C346FF;stroke-width:3.25;stroke-linecap:round;stroke-linejoin:round;stroke-dasharray:4.0043,7.0076;}
	.st95{fill:none;stroke:#C346FF;stroke-width:2.75;stroke-linecap:round;stroke-linejoin:round;}
	.st96{fill:none;stroke:#C346FF;stroke-width:2.75;stroke-linecap:round;stroke-linejoin:round;stroke-dasharray:3.827,6.6973;}
	.st97{fill:none;stroke:#C346FF;stroke-width:2.75;stroke-linecap:round;stroke-linejoin:round;stroke-dasharray:3.4553,6.0468;}
	.st98{fill:none;stroke:#C346FF;stroke-width:2.75;stroke-linecap:round;stroke-linejoin:round;stroke-dasharray:3.7378,6.5411;}
	.st99{fill:none;stroke:#C346FF;stroke-width:2.75;stroke-linecap:round;stroke-linejoin:round;stroke-dasharray:4.2102,7.3678;}
	.st100{fill:none;stroke:#C346FF;stroke-width:2.75;stroke-linecap:round;stroke-linejoin:round;stroke-dasharray:3.7142,6.4998;}
	.st101{fill:none;stroke:#C346FF;stroke-width:2.75;stroke-linecap:round;stroke-linejoin:round;stroke-dasharray:3.4961,6.1182;}
	.st102{fill:none;stroke:#C346FF;stroke-width:2.75;stroke-linecap:round;stroke-linejoin:round;stroke-dasharray:4.5312,7.9295;}
	.st103{fill:none;stroke:#000000;stroke-width:1.75;stroke-linecap:round;stroke-linejoin:round;stroke-miterlimit:10;}
	.st104{fill:none;stroke:#C346FF;stroke-width:1.75;stroke-linecap:round;stroke-linejoin:round;stroke-miterlimit:10;}
	.st105{fill:none;stroke:#000000;stroke-width:2.75;stroke-linecap:round;stroke-linejoin:round;stroke-miterlimit:10;}
	.st106{fill:none;stroke:#C346FF;stroke-width:2.75;stroke-linecap:round;stroke-linejoin:round;stroke-miterlimit:10;}
	.st107{fill:none;stroke:#000000;stroke-width:3.5;stroke-linecap:round;stroke-linejoin:round;stroke-miterlimit:10;}
	.st108{fill:none;stroke:#C346FF;stroke-width:3.5;stroke-linecap:round;stroke-linejoin:round;stroke-miterlimit:10;}
</style>
<metadata
   id="metadata4">
	<ns:sfw>
		<ns:slices />
		<ns:sliceSourceBounds
   bottomLeftOrigin="true"
   height="4152"
   width="7622.8"
   x="-1939.8"
   y="2598" />
	</ns:sfw>
<rdf:RDF><cc:Work
     rdf:about=""><dc:format>image/svg+xml</dc:format><dc:type
       rdf:resource="http://purl.org/dc/dcmitype/StillImage" /><dc:title></dc:title></cc:Work></rdf:RDF></metadata>


<g
   id="N-TEXT"
   transform="translate(0,93.700787)">
</g>




<g
   id="AG-DIAGRAM"
   transform="matrix(0.48976048,0,0,1.361471,206.62691,-101.24833)">
	<g
   id="POLYLINE_422_">
		<g
   id="g21">
			<g
   id="g19">
				<line
   class="st6"
   x1="72.400002"
   y1="641.40002"
   x2="74.400002"
   y2="641.40002"
   id="line13"
   style="fill:none;stroke:#c346ff;stroke-width:3.25;stroke-linecap:round;stroke-linejoin:round" />
				<line
   class="st90"
   x1="81.400002"
   y1="641.40002"
   x2="661.70001"
   y2="641.40002"
   id="line15"
   style="fill:none;stroke:#c346ff;stroke-width:3.25;stroke-linecap:round;stroke-linejoin:round;stroke-dasharray:4.0057, 7.0099" />
				<line
   class="st6"
   x1="665.20001"
   y1="641.40002"
   x2="667.20001"
   y2="641.40002"
   id="line17"
   style="fill:none;stroke:#c346ff;stroke-width:3.25;stroke-linecap:round;stroke-linejoin:round" />
			</g>
		</g>
	</g>
</g><g
   id="POLYLINE_1801_"
   transform="matrix(1.361471,0,0,1.361471,-374.97836,-101.24833)">
			<path
   class="st104"
   d="m 501.4,206.3 c -0.1,6.3 1.6,12.4 5.1,17.6 3,4.4 7.2,7.4 12.5,8.2 6.5,1 13.4,-0.4 19.5,-2.6 6.4,-2.3 12.3,-6 17.5,-10.5 5.1,-4.4 9.7,-9.5 13.4,-15.2 0.5,-0.7 0.9,-1.4 1.3,-2.1"
   id="path37"
   inkscape:connector-curvature="0"
   style="fill:none;stroke:#c346ff;stroke-width:1.75;stroke-linecap:round;stroke-linejoin:round;stroke-miterlimit:10" />
		</g><g
   id="POLYLINE_533_"
   transform="matrix(1.361471,0,0,1.361471,-374.97836,-101.24833)">
		<path
   style="fill:none;stroke:#c346ff;stroke-width:2.75;stroke-linecap:round;stroke-linejoin:round;stroke-miterlimit:10"
   inkscape:connector-curvature="0"
   id="path46"
   d="m 533.9,451.7 c -0.2,5.4 -0.2,11 1.3,16.3 1.4,5 4.1,9.6 5.4,14.7 1.4,5.2 1.6,10.7 2.4,16 0.4,2.7 0.8,5.4 1.7,7.9 0.8,2.4 1.9,4.6 3.2,6.8 1.3,2.1 2.7,4.3 3.4,6.6 0.6,2 0.7,4.1 0.7,6.2 -0.1,4.9 -0.5,9.7 1.2,14.4 1.7,4.5 5.1,8.2 8.8,11.1 2.2,1.7 4.6,3.2 7.2,4.3 2.2,0.9 4.5,1.4 6.8,1.7 2.7,0.4 5.3,0.8 7.8,1.5 2.6,0.7 5.2,1.6 7.8,2.3 5.3,1.3 10.5,1 15.8,-0.1 4,-0.8 8.2,-1.3 11.5,-3.8 3.4,-2.5 6.6,-6.2 7.9,-10.3 1.4,-4 0.4,-8.3 -0.8,-12.2 -1.6,-5.3 -3.8,-10.4 -5,-15.8 -1.1,-4.8 -0.5,-9.3 0.1,-14.1 0.7,-5.8 1,-11.6 1.3,-17.4 0.3,-5.1 0.7,-10.2 1.4,-15.3 0.8,-5.3 1.4,-10.6 1.2,-16 -0.2,-5.4 -0.7,-10.8 -1.5,-16.1 -0.8,-5.3 -1.9,-10.6 -3.3,-15.7 -0.7,-2.5 -1.5,-4.9 -2.4,-7.3"
   class="st106" />
	</g><g
   id="POLYLINE_534_"
   transform="matrix(1.361471,0,0,1.361471,-374.97836,-101.24833)">
		<path
   style="fill:none;stroke:#c346ff;stroke-width:2.75;stroke-linecap:round;stroke-linejoin:round;stroke-miterlimit:10"
   inkscape:connector-curvature="0"
   id="path49"
   d="m 555.7,395.4 c -3,-0.1 -5.4,-2.9 -4.8,-5.9 0.3,-1.4 1.2,-2.7 2.5,-3.4 1.2,-0.7 2.5,-0.6 3.8,-0.6 1.9,0 3.9,0 5.8,0.1 1.3,0 2.6,0.5 3.5,1.4 2.2,2.1 1.9,5.9 -0.6,7.6 -1.3,0.9 -2.7,0.9 -4.1,0.9 -2.1,0 -4.1,-0.1 -6.1,-0.1 z"
   class="st106" />
	</g><g
   id="POLYLINE_535_"
   transform="matrix(1.361471,0,0,1.361471,-374.97836,-101.24833)">
		<path
   style="fill:none;stroke:#c346ff;stroke-width:2.75;stroke-linecap:round;stroke-linejoin:round;stroke-miterlimit:10"
   inkscape:connector-curvature="0"
   id="path52"
   d="m 555.6,397.8 c -1.7,0 -3.3,-0.6 -4.6,-1.7 -1.3,-1.1 -2.2,-2.6 -2.5,-4.3 -0.3,-1.6 -0.1,-3.3 0.7,-4.7 0.8,-1.5 2.1,-2.8 3.7,-3.4 0.8,-0.3 1.6,-0.5 2.4,-0.5 2.2,-0.1 4.5,0 6.7,0.1 1.9,0 3.6,0.2 5.2,1.3 1.4,1 2.4,2.4 2.9,4 0.4,1.6 0.3,3.3 -0.3,4.8 -0.7,1.6 -1.9,2.9 -3.4,3.7 -2.2,1.1 -4.8,0.8 -7.2,0.8 -1.2,-0.1 -2.4,-0.1 -3.6,-0.1 z"
   class="st106" />
	</g><g
   id="POLYLINE_536_"
   transform="matrix(1.361471,0,0,1.361471,-374.97836,-101.24833)">
		<path
   style="fill:none;stroke:#c346ff;stroke-width:2.75;stroke-linecap:round;stroke-linejoin:round;stroke-miterlimit:10"
   inkscape:connector-curvature="0"
   id="path55"
   d="m 550.5,395.6 c -2.6,0.3 -5.2,0.6 -7.8,0.6 -2.6,0 -5.1,-0.2 -7.7,-0.4 -5.2,-0.4 -10.3,-1.2 -15.4,-2.1 -5.3,-0.9 -10.6,-2.1 -15.7,-3.6 -4.8,-1.4 -9.4,-3.3 -13.7,-5.7 -1.7,-1 -3.7,-2 -5,-3.5 -1,-1.2 -1.2,-2.8 -1.2,-4.3 -0.1,-1.4 0,-3 0.4,-4.4 0.2,-0.7 0.6,-1.6 1.5,-1.4 0.6,0.1 1.2,0.5 1.7,0.8 2.1,1.4 4.1,2.9 6.4,4 2.2,1.1 4.5,2.1 6.8,2.9 5,1.9 10.1,3.5 15.2,4.7 4.9,1.2 9.8,2 14.8,2.4 5.3,0.4 10.7,0.4 16,0.1 1.2,-0.1 2.4,-0.2 3.7,-0.3"
   class="st106" />
	</g><g
   id="POLYLINE_537_"
   transform="matrix(1.361471,0,0,1.361471,-374.97836,-101.24833)">
		<path
   style="fill:none;stroke:#c346ff;stroke-width:2.75;stroke-linecap:round;stroke-linejoin:round;stroke-miterlimit:10"
   inkscape:connector-curvature="0"
   id="path58"
   d="m 566.9,384.3 c 7.2,-2.9 14.1,-6.5 20.7,-10.6 1.8,-1.2 3.6,-2.4 5.4,-3.6"
   class="st106" />
	</g><g
   id="POLYLINE_538_"
   transform="matrix(1.361471,0,0,1.361471,-374.97836,-101.24833)">
		<path
   style="fill:none;stroke:#c346ff;stroke-width:2.75;stroke-linecap:round;stroke-linejoin:round;stroke-miterlimit:10"
   inkscape:connector-curvature="0"
   id="path61"
   d="m 569.8,393.4 c 5.7,-1.5 11.2,-3.8 16.3,-6.7 1.5,-0.9 2.9,-1.8 4.3,-2.8"
   class="st106" />
	</g><g
   id="POLYLINE_539_"
   transform="matrix(1.361471,0,0,1.361471,-374.97836,-101.24833)">
		<path
   style="fill:none;stroke:#c346ff;stroke-width:2.75;stroke-linecap:round;stroke-linejoin:round;stroke-miterlimit:10"
   inkscape:connector-curvature="0"
   id="path64"
   d="m 485.8,370.7 c -1.3,-7.5 -2.5,-14.9 -3,-22.4 -0.5,-7.5 -0.7,-15 -4,-22 -3.2,-6.8 -7.8,-13.1 -12.1,-19.3 -5.1,-7.3 -10.4,-14.6 -15.6,-21.9 -4,-5.7 -8.2,-11.3 -11.9,-17.2 -1.6,-2.6 -3.1,-5.5 -3.6,-8.5 -0.4,-2.6 0,-5.3 1.1,-7.7 2.6,-6 8.5,-10.2 13.8,-13.6 6.7,-4.3 13.8,-7.9 20.7,-11.8 6.8,-3.8 13,-8.4 19.5,-12.8 5,-3.4 11.5,-5.9 14.5,-11.5 0.6,-1.2 0.8,-2.4 0.9,-3.7"
   class="st106" />
	</g><g
   id="POLYLINE_540_"
   transform="matrix(1.361471,0,0,1.361471,-374.97836,-101.24833)">
		<path
   style="fill:none;stroke:#c346ff;stroke-width:2.75;stroke-linecap:round;stroke-linejoin:round;stroke-miterlimit:10"
   inkscape:connector-curvature="0"
   id="path67"
   d="m 437.4,264.6 c 0.5,4.7 1,9.4 1,14.1 0,4.4 -0.5,8.7 -1,13 -0.6,4.4 -1.2,8.9 -1.4,13.4 -0.1,4.3 0.1,8.6 0.6,12.9 0.5,4.6 1,9.3 1.7,13.9 0.7,4.4 1.5,8.8 2.6,13.1 1.1,4.3 2.8,8.5 3.8,12.8 0.5,2.1 0.7,4.2 0.7,6.4 0,2.2 -0.3,4.4 -0.2,6.6 0,1.1 0.1,2.1 0.5,3.1 0.5,1.3 1.3,2.3 1.8,3.5 0.8,1.8 0.1,3.6 0.5,5.4 0.3,1.6 1.5,2.9 2.4,4.2 0.8,1.1 1.5,2.3 1.9,3.7 0.6,2.2 0.3,7.7 3.9,7 2.7,-0.5 4.3,-3.4 5.9,-5.4 1.8,-2.3 3.8,-4.2 6.5,-5.3 3.6,-1.4 7.6,-1.3 11.2,-2.8 1.9,-0.8 2.9,-2.3 2.8,-4.4 -0.1,-3.5 -1.9,-6.7 -3.4,-9.7 -0.5,-1.1 -1,-2.2 -1.2,-3.4 -0.2,-1.5 0,-3 0.1,-4.5 0.3,-3.8 -1.1,-7.4 -1,-11.2 0,-2.3 0.2,-4.5 0.4,-6.8 0.1,-2.2 0.3,-4.4 1,-6.6 0.6,-1.9 1.5,-3.6 2.5,-5.3"
   class="st106" />
	</g><g
   id="POLYLINE_541_"
   transform="matrix(1.361471,0,0,1.361471,-374.97836,-101.24833)">
		<path
   style="fill:none;stroke:#c346ff;stroke-width:2.75;stroke-linecap:round;stroke-linejoin:round;stroke-miterlimit:10"
   inkscape:connector-curvature="0"
   id="path70"
   d="m 455.8,397.6 c 0.3,4 1,7.9 1.9,11.7 0.8,3.8 2,7.5 3.9,10.9 3.1,5.4 8.4,9.7 14.2,11.9 2.1,0.8 4.8,1.5 6.9,0.5 2.8,-1.2 3.1,-5.3 4,-7.8 1.1,-3 3,-5.8 3.7,-9 0.6,-3.1 -0.1,-6.4 -0.9,-9.5 -1,-3.9 -1.9,-7.8 -2.7,-11.8 -0.7,-3.4 -1.9,-6.6 -3.5,-9.7 -0.4,-0.8 -0.9,-1.6 -1.4,-2.4"
   class="st106" />
	</g><g
   id="POLYLINE_542_"
   transform="matrix(1.361471,0,0,1.361471,-374.97836,-101.24833)">
		<path
   style="fill:none;stroke:#c346ff;stroke-width:2.75;stroke-linecap:round;stroke-linejoin:round;stroke-miterlimit:10"
   inkscape:connector-curvature="0"
   id="path73"
   d="m 483.3,385.2 c 0.2,-1.6 0.7,-3.2 1.6,-4.6"
   class="st106" />
	</g><g
   id="POLYLINE_543_"
   transform="matrix(1.361471,0,0,1.361471,-374.97836,-101.24833)">
		<path
   style="fill:none;stroke:#c346ff;stroke-width:2.75;stroke-linecap:round;stroke-linejoin:round;stroke-miterlimit:10"
   inkscape:connector-curvature="0"
   id="path76"
   d="m 555.9,545.4 c -0.8,2.4 -1.9,4.7 -3.5,6.6 -1.4,1.6 -3.2,2.5 -5.2,3.2 -3.3,1 -6.7,1.5 -10,2.3 -3.1,0.8 -6.2,1.8 -9.3,2.8 -3.8,1.3 -7.5,2.6 -11.3,3.8 -3.3,1 -6.6,2.1 -10,2.4 -2.5,0.3 -5.2,0.1 -7.5,-0.9 -2.7,-1.2 -4.9,-3.5 -6.7,-5.8 -4.3,-5.9 -5.6,-12.7 -6.9,-19.6 -0.6,-3.2 -1.4,-6.4 -2.7,-9.4 -1.3,-3.3 -2.9,-6.6 -3.9,-10.1 -2,-6.9 -1.7,-14.6 -2.1,-21.7 -0.3,-6.4 -1.3,-12.7 -2.3,-18.9 -1.2,-7.6 -2.6,-15.1 -3.2,-22.8 -0.5,-7.1 -0.1,-14.2 0.7,-21.2 0.2,-1.8 0.5,-3.6 0.7,-5.4"
   class="st106" />
	</g><g
   id="POLYLINE_544_"
   transform="matrix(1.361471,0,0,1.361471,-374.97836,-101.24833)">
		<path
   style="fill:none;stroke:#c346ff;stroke-width:2.75;stroke-linecap:round;stroke-linejoin:round;stroke-miterlimit:10"
   inkscape:connector-curvature="0"
   id="path79"
   d="m 638.4,263.7 c -0.5,-1.6 -1.2,-4.3 -3.1,-4.6 -1.4,-0.2 -3,0.6 -4.1,1.3 -4.5,2.6 -8.3,6.7 -11,11 -3.2,5.1 -5.2,10.9 -8,16.2 -2.8,5.2 -6.3,10.1 -8.6,15.6 -1,2.3 -1.5,4.8 -1.6,7.3 0,2.8 0.5,5.5 1,8.2 0.4,2.3 0.7,4.6 0.5,6.9 -0.2,2.8 -1.1,5.5 -1.7,8.3 -1.3,5.9 -2,11.9 -3.2,17.8 -0.6,2.8 -1.2,5.6 -2.1,8.3 -0.9,2.9 -2.1,5.7 -3.1,8.6 -0.9,2.8 -1.4,5.8 -2,8.7 -0.4,1.8 -1.3,3.7 -1.3,5.6 -0.1,2 2,2.8 3.5,3.4 2.8,1 5.8,1.6 8.6,2.4 4.6,1.3 9.1,2.9 12.8,5.9 1.1,0.9 2.2,1.8 3.3,2.7 0.8,0.7 1.7,1.4 2.7,1.8 1.9,0.6 3.1,-1.3 3.7,-2.9 2,-4.9 1.2,-10.2 1.7,-15.3 0.1,-1.3 0.4,-2.6 1,-3.7 1,-1.8 2.8,-3.1 4.2,-4.5 3.9,-3.8 6.8,-8.6 9.1,-13.4 2.6,-5.3 4.5,-11 5.9,-16.7 1.4,-5.7 2.4,-11.5 2.8,-17.4 0.4,-5.9 0.1,-11.9 -0.7,-17.8 -0.8,-5.9 -2.1,-11.8 -3.4,-17.6 -1.4,-6 -3.1,-11.9 -4.8,-17.8 -0.4,-3 -1.3,-5.7 -2.1,-8.3 z"
   class="st106" />
	</g><g
   id="POLYLINE_545_"
   transform="matrix(1.361471,0,0,1.361471,-374.97836,-101.24833)">
		<path
   style="fill:none;stroke:#c346ff;stroke-width:2.75;stroke-linecap:round;stroke-linejoin:round;stroke-miterlimit:10"
   inkscape:connector-curvature="0"
   id="path82"
   d="m 591.7,385.1 c -1.6,4.2 -3.3,8.4 -4.9,12.6 -1.3,3.4 -2.8,6.9 -3.7,10.5 -0.6,2.2 -1,4.4 -0.4,6.6 0.4,1.3 1,2.4 1.6,3.6 1,1.8 2,3.7 3,5.5 1.3,2.5 2.6,6.3 5.6,7.4 2,0.8 4.4,0.2 6.3,-0.6 3.4,-1.3 6.3,-3.4 9.1,-5.7 1.7,-1.4 3.4,-2.9 5.2,-4.1 1.1,-0.8 2.3,-1.4 3.3,-2.3 1.9,-1.7 2.2,-4.3 2.4,-6.7 0.3,-3.9 0.4,-7.8 0.2,-11.7 0,-0.9 -0.1,-1.8 -0.2,-2.7"
   class="st106" />
	</g><g
   id="POLYLINE_546_"
   transform="matrix(1.361471,0,0,1.361471,-374.97836,-101.24833)">
		<path
   style="fill:none;stroke:#c346ff;stroke-width:2.75;stroke-linecap:round;stroke-linejoin:round;stroke-miterlimit:10"
   inkscape:connector-curvature="0"
   id="path85"
   d="m 641,272.1 c 1.6,-3.7 2.5,-7.6 2.9,-11.6 0.3,-3.4 0.5,-7 -0.8,-10.2 -1.1,-3 -3.5,-5.1 -6,-6.9 -3.6,-2.8 -7.6,-5.2 -11.4,-7.5 -3.4,-2.1 -6.9,-4.1 -10.4,-6.1 -4.3,-2.5 -8.7,-5 -13,-7.5 -3.9,-2.2 -7.8,-4.3 -11.8,-6.4 -4.1,-2.1 -8.4,-4 -12.3,-6.6 -2.7,-1.8 -5.1,-4.1 -7,-6.7 -2.3,-3.3 -4,-7.1 -5.2,-10.9 -0.3,-1 -0.5,-1.9 -0.8,-2.9"
   class="st106" />
	</g><g
   id="POLYLINE_547_"
   transform="matrix(1.361471,0,0,1.361471,-374.97836,-101.24833)">
		<path
   style="fill:none;stroke:#c346ff;stroke-width:2.75;stroke-linecap:round;stroke-linejoin:round;stroke-miterlimit:10"
   inkscape:connector-curvature="0"
   id="path88"
   d="m 497,160.7 c 1,1.9 2,3.8 2.8,5.8 0.8,1.9 1.3,4 2.2,5.9 1,2.3 2.6,3.7 4.8,5.1 1.6,1 3.2,2.2 4.9,3.1 1,0.5 2.1,0.8 3.2,0.3 1.4,-0.7 2.5,-2.2 3.5,-3.4 1,-1.1 2,-2.2 3.2,-3 2.7,-1.9 6,-2.6 9.1,-3.2 3.4,-0.6 6.9,-0.9 10.3,-0.1 2.5,0.6 4.8,1.7 6.8,3.3 1.7,1.4 3.7,5.3 6.3,3.5 1.6,-1 2.6,-2.9 3.2,-4.6 1.5,-3.7 2.1,-7.8 2.8,-11.6 0.2,-0.9 0.4,-1.9 0.5,-2.9"
   class="st106" />
	</g><g
   id="POLYLINE_548_"
   transform="matrix(1.361471,0,0,1.361471,-374.97836,-101.24833)">
		<path
   style="fill:none;stroke:#c346ff;stroke-width:2.75;stroke-linecap:round;stroke-linejoin:round;stroke-miterlimit:10"
   inkscape:connector-curvature="0"
   id="path91"
   d="m 506.2,198.2 c 2.7,4 6.1,7 10.3,9.3 4,2.3 8.5,3.9 13.1,4.3 4.7,0.4 9.5,-0.6 13.8,-2.6 4,-1.9 7.6,-4.6 10.6,-7.8 3.5,-3.7 6.4,-8 8.8,-12.5 0.3,-0.5 0.6,-1.1 0.8,-1.6"
   class="st106" />
	</g><g
   id="POLYLINE_549_"
   transform="matrix(1.361471,0,0,1.361471,-374.97836,-101.24833)">
		<path
   style="fill:none;stroke:#c346ff;stroke-width:2.75;stroke-linecap:round;stroke-linejoin:round;stroke-miterlimit:10"
   inkscape:connector-curvature="0"
   id="path94"
   d="m 506.2,198.2 c -1.3,-2.5 -2.6,-4.9 -3.6,-7.5 -1.1,-2.9 -2.1,-5.8 -3.2,-8.7 -1.6,-4.4 -4.1,-9.2 -4.2,-14 0,-2 0.6,-3.8 1.3,-5.6 0.8,-2.3 1,-4.5 1.4,-6.8 0.4,-2.1 1.1,-3.8 3.3,-4.6 1.9,-0.6 4.3,-0.6 5.9,-2 2.9,-2.4 1.5,-6.7 2.8,-9.8 0.7,-1.8 2.3,-2.3 4.1,-2.3 2.5,0.1 4.9,0.6 7.3,0.8 3,0.2 6.7,0.1 9.2,-1.8 2.9,-2.2 2.9,-6.3 4.7,-9.2 2.1,-3.4 6.7,-3.5 10,-4.8 1.5,-0.6 3.1,-1.5 4.8,-1 1.6,0.5 2.9,1.9 3.9,3.3 2.7,4.1 2.6,9.3 2.7,14 0.2,5.8 0.9,11.4 2.7,16.9 0.9,2.8 2,5.4 3.2,8.1 0.9,2 1.7,4.1 2.1,6.3 0.3,1.9 0.1,3.9 -0.2,5.8 -0.4,2.7 -0.9,5.5 -1,8.3 0,1.7 -0.2,4 1.5,4.9 1.1,0.6 2.3,1.1 3.5,1.1 2,0.1 3.7,-1.2 4.6,-3 1,-2.2 0,-4.3 -0.8,-6.4 -0.7,-1.9 -0.7,-3.5 0.5,-5.2 1.2,-1.7 2.7,-3.1 2.8,-5.3 0.1,-1.6 -0.6,-3.4 0.1,-5 0.7,-1.6 2.4,-2.4 3.4,-3.8 1.1,-1.6 0.5,-3.4 0.4,-5.1 -0.1,-1.4 0.3,-2.3 0.9,-3.5 1.5,-3.3 -0.4,-6.9 -1.4,-10.1 -0.6,-1.7 -1.2,-3.6 -1.1,-5.4 0,-1.5 0.7,-2.8 0.9,-4.3 0.3,-2 -1.1,-3.7 -2.1,-5.3 -1.3,-2.1 -2.5,-4.1 -3.4,-6.4 -0.9,-2.5 -1.5,-5.1 -2.7,-7.5 -0.9,-1.7 -2.1,-3.1 -3.5,-4.4 -1.5,-1.4 -3,-2.7 -4,-4.4 -1,-1.8 -1.6,-3.8 -2.7,-5.5 -2.2,-3.5 -6.7,-4.7 -10.1,-6.7 -1.3,-0.8 -2.6,-1.6 -4.1,-1.8 -2.1,-0.3 -4.2,0.4 -6.2,0.7 -4.5,0.6 -8.9,-1.5 -13.5,-0.9 -5.3,0.7 -9.9,4 -15.1,5.4 -5.1,1.4 -10.5,1.1 -15.3,3.3 -4.1,1.9 -6.8,5.1 -9.2,8.8 -1.4,2.3 -2.7,4.7 -4.5,6.7 -1.6,1.9 -3.7,3.3 -5.7,4.8 -2.3,1.8 -4.5,4.2 -4.8,7.2 -0.4,3.3 2.4,5.7 2.4,8.9 0,4.6 -2.3,8.8 -1.2,13.4 0.8,3.5 2.9,6.7 1.8,10.4 -0.6,2 -1.4,3.9 -1.4,6 -0.1,1.7 0.2,3.5 0.9,5 1.4,3.4 4.7,4 7.7,5.4 1.7,0.8 2.5,2 3.1,3.7 0.6,1.6 1.3,2.8 2.5,4 2.1,2.1 4.2,3.9 4.5,7 0.4,3.3 -1.3,9 3,10.2 1.8,0.5 3.8,0.3 5.6,0.9 1.4,0.5 2.2,1.7 3.2,2.8"
   class="st106" />
	</g><g
   id="POLYLINE_550_"
   transform="matrix(1.361471,0,0,1.361471,-374.97836,-101.24833)">
		<path
   style="fill:none;stroke:#c346ff;stroke-width:2.75;stroke-linecap:round;stroke-linejoin:round;stroke-miterlimit:10"
   inkscape:connector-curvature="0"
   id="path97"
   d="m 588,244.2 c 0,-4.3 -2.8,-8.3 -6.9,-9.7 -4.1,-1.5 -8.7,-0.2 -11.5,3.2 -2.7,3.3 -3.1,8.2 -0.9,11.9 2.2,3.7 6.6,5.7 10.9,4.8 4.2,-0.8 7.6,-4.3 8.2,-8.6 0.2,-0.5 0.2,-1 0.2,-1.6 z"
   class="st106" />
	</g><g
   id="POLYLINE_551_"
   transform="matrix(1.361471,0,0,1.361471,-374.97836,-101.24833)">
		<path
   style="fill:none;stroke:#c346ff;stroke-width:2.75;stroke-linecap:round;stroke-linejoin:round;stroke-miterlimit:10"
   inkscape:connector-curvature="0"
   id="path100"
   d="m 573.5,253.7 c -4.5,7.1 -8.9,14.2 -13.4,21.4 -0.4,0.6 -0.8,1.2 -1.2,1.8 -0.1,0.1 -0.3,0.7 -0.5,0.7 0,0 -0.9,-0.5 -0.9,-0.5 0,-0.1 0.1,-0.2 0.1,-0.2 0.1,-0.5 0.5,-1 0.8,-1.4 2.3,-4.3 4.6,-8.5 6.9,-12.8 1.9,-3.5 3.8,-6.9 5.7,-10.4"
   class="st106" />
	</g><g
   id="POLYLINE_552_"
   transform="matrix(1.361471,0,0,1.361471,-374.97836,-101.24833)">
		<path
   style="fill:none;stroke:#c346ff;stroke-width:2.75;stroke-linecap:round;stroke-linejoin:round;stroke-miterlimit:10"
   inkscape:connector-curvature="0"
   id="path103"
   d="m 505.3,566.7 c 1.6,5 3.1,9.8 5.6,14.4 2.1,4 5,8.4 4.9,13.1 0,1.9 -0.6,3.8 -0.2,5.7 0.3,1.6 1.8,2.6 2.2,4.1 0.4,1.6 -2,2.8 -2.7,4.1 -0.7,1.3 -0.6,2.9 -1,4.3 -1.1,3.5 -6.3,4.5 -9.3,5.3 -4.6,1.3 -9.9,2.3 -13.7,5.6 -2.2,1.9 -3.3,4.5 -3.5,7.3 -0.2,2.6 0.2,5.6 2.1,7.6 2.4,2.5 6.4,2.8 9.6,3 4.3,0.3 8.7,0.2 13.1,0.2 7.9,0 15.7,0 23.6,-0.1 4.4,0 8.8,0.1 13.2,-0.3 3.5,-0.3 8,-0.6 10.7,-3.1 2.1,-1.9 2.4,-4.8 2.4,-7.4 -0.1,-5.6 -1,-11.2 -1.2,-16.9 -0.1,-1.9 -0.2,-3.9 -0.8,-5.8 -0.7,-2.2 -1.8,-4.2 -2.9,-6.2 -0.8,-1.5 -1.5,-3 -1.7,-4.6 -0.3,-1.9 0,-3.8 -0.4,-5.7 -0.8,-4 -3.6,-7.5 -3.6,-11.6 0,-1.9 0.8,-3.6 1.4,-5.3 0.5,-1.6 0.6,-3.1 0.3,-4.7 -0.4,-2 -1.3,-3.9 -1.5,-5.9 -0.2,-1.8 0.2,-3.6 0.6,-5.4 0.4,-2.3 0.4,-4.6 0.5,-6.9"
   class="st106" />
	</g><g
   id="POLYLINE_553_"
   transform="matrix(1.361471,0,0,1.361471,-374.97836,-101.24833)">
		<path
   style="fill:none;stroke:#c346ff;stroke-width:2.75;stroke-linecap:round;stroke-linejoin:round;stroke-miterlimit:10"
   inkscape:connector-curvature="0"
   id="path106"
   d="m 569.3,556 c 1,4 1.7,8.2 2.6,12.2 0.8,3.5 0.5,6.8 -0.2,10.3 -0.7,4 -1.6,7.9 -1.5,12 0,2.9 0.6,5.9 -0.2,8.7 -0.7,2.5 -1.8,4.5 -1.6,7.1 0.1,1.8 0.6,3.6 0.8,5.4 0.2,1.6 0.2,3.2 0,4.8 -0.4,3.9 -1.2,7.7 -1,11.6 0.1,2 0.4,3.9 0.7,5.8 0.2,1.3 0.4,2.6 0.9,3.8 0.8,1.8 2.5,2.5 4.3,2.9 3.7,0.7 7.7,0.5 11.5,0.5 4.2,0.1 8.4,0.3 12.6,0 3.2,-0.2 6.4,-0.9 9,-2.8 3.6,-2.7 4.1,-6.7 3.6,-10.9 -0.9,-7.5 -4.3,-14.7 -3.8,-22.4 0.2,-3.5 1.7,-6.8 2.6,-10.2 1.1,-4 1.5,-8.2 2.1,-12.3 0.5,-3.5 1,-7 2.2,-10.3 1.3,-3.6 3.3,-6.9 4.7,-10.5 0.7,-1.8 1.2,-3.6 1.8,-5.4"
   class="st106" />
	</g><g
   id="POLYLINE_645_"
   transform="matrix(1.361471,0,0,1.361471,-374.97836,-101.24833)">
		<path
   style="fill:none;stroke:#0000ff;stroke-width:3.5;stroke-linecap:round;stroke-linejoin:round;stroke-miterlimit:10"
   inkscape:connector-curvature="0"
   id="path176"
   d="m 569.3,556 c 0.9,3.4 1.4,6.8 2.2,10.2 0.7,3.1 1.2,6 0.8,9.2 -0.5,3.4 -1.3,6.8 -1.7,10.2 -0.4,3.3 -0.2,6.4 -0.1,9.7 0.1,2.4 -0.6,4.3 -1.4,6.6 -0.7,1.9 -0.8,3.6 -0.5,5.6 0.4,3 1,5.7 0.7,8.8 -0.3,3.4 -1.1,6.7 -1.1,10 0,3.3 0.5,6.6 1.2,9.8 0.4,1.7 0.9,3.2 2.6,4 1.9,0.9 4.3,1 6.4,1.1 3.9,0.2 7.8,0.1 11.8,0.2 5.6,0.1 12.1,0.6 16.9,-2.7 2.5,-1.7 3.9,-4.3 4.1,-7.3 0.2,-3.1 -0.5,-6.2 -1.2,-9.2 -0.9,-3.6 -1.8,-7.2 -2.4,-10.8 -0.4,-2.6 -0.6,-5.3 -0.2,-7.9 0.5,-3.2 1.8,-6.1 2.6,-9.2 1.6,-6.5 1.6,-13.3 3.4,-19.7 0.8,-3.1 2.2,-5.9 3.6,-8.7 0.7,-1.5 1.4,-2.9 2,-4.5 0.3,-0.7 0.5,-1.5 0.7,-2.2 0.2,-0.8 0.4,-1.9 0.8,-2.6 0.3,-0.5 1,-1 1.5,-1.4 0.5,-0.5 1,-1 1.4,-1.6 0.9,-1.1 1.7,-2.2 2.4,-3.4 1.2,-2 1.9,-4.3 1.9,-6.6 0.1,-2.8 -0.7,-5.6 -1.5,-8.3 -1.1,-3.4 -2.3,-6.8 -3.4,-10.2 -1,-3 -1.9,-6.1 -2.2,-9.2 -0.3,-3.1 0.2,-6.3 0.6,-9.4 0.9,-7.3 1.2,-14.7 1.7,-22.1 0.2,-3 0.4,-6 0.8,-9 0.4,-3.4 1.1,-6.9 1.4,-10.3 0.6,-6.6 0.1,-13.3 -0.7,-19.8 -0.8,-6.8 -2.1,-13.6 -3.9,-20.2 -0.5,-1.7 -1,-3.3 -1.5,-5 -0.2,-0.7 -0.8,-1.6 -0.8,-2.4 0,-0.5 0.4,-1.1 0.5,-1.6 0.8,-2.7 0.8,-5.6 0.9,-8.4 0.1,-3.3 0.1,-6.5 -0.2,-9.8 1.1,0.8 2.5,1.8 3.8,1 1.1,-0.7 1.7,-2.1 2.2,-3.2 1.5,-4.1 1.2,-8.7 1.4,-13 0.1,-2.3 0.4,-4.6 1.8,-6.5 1.3,-1.6 2.9,-2.9 4.3,-4.3 1.5,-1.5 2.8,-3.3 4,-5 2.6,-3.8 4.7,-8 6.4,-12.2 1.8,-4.4 3.2,-9 4.2,-13.6 1.1,-4.6 1.9,-9.2 2.3,-13.9 0.4,-4.8 0.4,-9.5 0,-14.3 -0.4,-4.8 -1.2,-9.6 -2.1,-14.3 -1,-4.8 -2.1,-9.6 -3.4,-14.4 -0.6,-2.4 -1.3,-4.9 -2,-7.3 -0.3,-1.1 -0.6,-2.3 -1,-3.4 -0.2,-0.6 -0.3,-0.9 -0.1,-1.5 0.2,-0.5 0.4,-0.9 0.5,-1.4 1.5,-3.9 2.2,-8.2 2.4,-12.4 0.1,-3.4 -0.1,-6.9 -2,-9.8 -2.1,-3.3 -5.7,-5.5 -8.9,-7.7 -4.1,-2.7 -8.3,-5.2 -12.5,-7.7 -4.5,-2.6 -9,-5.2 -13.5,-7.8 -3.9,-2.3 -7.9,-4.5 -11.9,-6.6 -4.4,-2.4 -8.9,-4.5 -13.3,-6.9 -3.3,-1.8 -6.4,-3.8 -8.9,-6.6 -2.6,-3 -4.6,-6.5 -6,-10.2 -0.8,-1.9 -1.4,-3.9 -1.8,-5.9 1.1,0.5 2.2,1 3.4,1 2.2,0 4.1,-1.8 4.6,-3.8 0.6,-2.2 -0.7,-4.3 -1.4,-6.4 -0.7,-2.2 0.3,-3.7 1.6,-5.4 1.2,-1.5 2.1,-2.9 2,-4.9 -0.1,-1.9 -0.6,-3.7 0.7,-5.3 1.1,-1.4 3,-2.3 3.3,-4.2 0.3,-1.6 -0.3,-3.1 -0.2,-4.7 0.1,-1.3 0.9,-2.3 1.2,-3.6 0.4,-1.3 0.2,-2.6 -0.1,-3.9 -0.9,-3.9 -3.4,-8 -2.5,-12.1 0.4,-1.9 1.2,-3.3 0.4,-5.2 -0.9,-2.2 -2.5,-4 -3.6,-6 -2.3,-4.2 -2.6,-9.4 -5.7,-13.2 -1.4,-1.7 -3.3,-3.1 -4.7,-4.8 -1.3,-1.6 -2.1,-3.4 -2.9,-5.3 -0.7,-1.5 -1.5,-3 -2.8,-4 -1.7,-1.4 -3.7,-2.2 -5.6,-3.1 -1.9,-1 -3.6,-2.4 -5.6,-3.1 -1.6,-0.6 -3.2,-0.4 -4.8,-0.1 -2.2,0.4 -4.3,0.7 -6.5,0.4 -2.6,-0.3 -5.2,-1 -7.9,-1 -5.5,0 -10.3,3.4 -15.4,5.1 -5.1,1.7 -10.8,1.4 -15.8,3.4 -4.3,1.7 -7.3,4.9 -9.8,8.8 -1.4,2.3 -2.7,4.7 -4.4,6.8 -1.6,2 -3.7,3.4 -5.7,5 -2.5,1.9 -4.8,4.3 -5.2,7.5 -0.4,3.3 2.5,5.7 2.4,9 0,2.5 -0.9,5 -1.3,7.5 -0.4,2.2 -0.3,4.2 0.2,6.4 0.6,2.2 1.7,4.3 2,6.6 0.2,1.5 -0.2,3 -0.7,4.4 -1.1,3.4 -1.6,7.1 0.1,10.3 0.7,1.3 1.7,2.3 3,2.9 1.9,1 4.2,1.3 5.8,2.6 1.4,1.1 1.7,3 2.5,4.5 0.9,1.7 2.4,2.8 3.7,4.1 2.3,2.3 2.8,4.6 2.8,7.8 0,1.8 -0.2,3.7 0.4,5.4 0.8,2.2 3.3,2.4 5.3,2.6 1.6,0.2 3.1,0.3 4.3,1.4 0.3,0.2 0.5,0.5 0.8,0.8 0.2,0.2 0.5,0.5 0.6,0.8 0.2,0.3 0.2,0.3 0,0.6 -0.7,1 -1.8,1.8 -2.7,2.6 -2.3,1.9 -4.8,3.3 -7.3,4.8 -2.2,1.3 -4.4,2.8 -6.5,4.3 -4.9,3.5 -9.9,6.9 -15.1,9.8 -5.4,3.1 -10.9,6 -16.3,9.1 -4.8,2.8 -9.7,5.9 -13.8,9.8 -3.1,3 -5.7,6.7 -6.3,11 -0.3,2 0,4 0.6,6 0.3,1.1 1,2.2 1.3,3.3 0.3,1.5 0.4,3.1 0.5,4.7 0.5,5.9 0.6,11.8 0,17.7 -0.6,5.7 -1.7,11.4 -1.9,17.1 -0.2,5.5 0.2,11 0.8,16.5 0.7,6.1 1.5,12.1 2.6,18.1 1.1,5.7 3,11.1 4.6,16.7 0.8,2.7 1.3,5.4 1.3,8.2 0,2.6 -0.4,5.3 -0.2,8 0.1,1.3 0.5,2.5 1.2,3.6 0.7,1.3 1.5,2.4 1.5,3.9 0,1.4 -0.3,2.7 0.2,4.1 0.7,2 2.3,3.5 3.3,5.4 0.9,1.7 1.1,3.5 1.4,5.3 0.3,1.7 0.8,3.9 3,3.6 0.3,4.3 1.1,8.5 2.1,12.7 1,4.1 2.4,8.2 4.8,11.8 2,2.9 4.7,5.4 7.7,7.3 0.5,0.3 1,0.6 1.5,0.9 0.5,0.3 0.8,0.3 0.8,0.9 -0.1,1.2 -0.3,2.3 -0.4,3.5 -0.3,2.3 -0.5,4.5 -0.7,6.8 -0.4,4.5 -0.5,8.9 -0.3,13.4 0.2,4.4 0.7,8.8 1.4,13.2 0.7,4.5 1.5,9 2.2,13.6 0.7,4.3 1.3,8.7 1.7,13 0.4,4.8 0.6,9.6 0.8,14.4 0.2,3.8 0.5,7.7 1.5,11.4 1.2,4.3 3.3,8.2 4.8,12.4 1.5,4.1 2,8.4 2.9,12.6 0.8,4.1 2,8 4.1,11.7 1.9,3.2 4.4,6.4 7.7,8.3 1,0.5 2.1,0.9 3.2,1.2 0.6,0.1 1.1,0.2 1.7,0.2 0.3,0 0.6,0 0.9,0 0.3,0 1,-0.2 1.3,0 0.2,0.1 0.4,1 0.5,1.3 0.2,0.7 0.5,1.5 0.7,2.2 0.3,0.9 0.6,1.9 0.9,2.8 0.7,1.9 1.4,3.8 2.3,5.6 1.9,3.9 4.4,7.6 5.6,11.7 0.4,1.3 0.6,2.6 0.5,3.9 0,1.6 -0.4,3.2 -0.3,4.7 0.1,1.2 0.5,2.2 1.2,3.2 0.4,0.6 1.1,1.3 1.1,2.1 0,0.7 -0.4,1.2 -0.9,1.6 -1,1 -1.9,1.8 -2.3,3.2 -0.3,1.2 -0.3,2.4 -0.7,3.5 -1.1,2.8 -4.9,3.8 -7.5,4.5 -4,1.2 -8.1,2 -11.8,3.8 -2.2,1 -4.3,2.5 -5.6,4.6 -1.4,2.3 -1.8,5.2 -1.5,7.8 0.2,2 0.9,3.9 2.4,5.2 2,1.8 4.9,2.2 7.5,2.5 3.5,0.4 7,0.3 10.5,0.3 5.4,0 10.8,0 16.3,0 5.7,0 11.4,0 17,0 3.3,0 6.6,-0.1 9.9,-0.4 2.8,-0.3 5.9,-0.8 8.2,-2.6 1.5,-1.1 2.3,-2.8 2.6,-4.7 0.3,-1.8 0.2,-3.7 0.1,-5.6 -0.2,-2.5 -0.4,-5 -0.7,-7.5 -0.3,-3.8 -0.1,-7.7 -0.9,-11.4 -0.7,-3.5 -2.9,-6.3 -4.2,-9.5 -1.1,-2.6 -0.6,-5.4 -1.1,-8.1 -0.7,-3.7 -3,-6.9 -3.5,-10.6 -0.4,-2.7 0.9,-4.8 1.5,-7.4 0.8,-3.1 -0.9,-6 -1.4,-9 -0.5,-3 0.7,-5.9 0.9,-8.8 0.1,-1 0.1,-2 0.1,-3 0,-0.5 -0.1,-0.9 0.1,-1.3 0.2,-0.4 0.5,-0.7 0.8,-1.1 1,-1.5 1.7,-3.2 2.3,-4.9 2.6,3.6 6.2,6.6 10,8.9 0.7,-0.1 1.8,0.5 3,1 z"
   class="st108" />
	</g>
</svg>