<?xml version="1.0" encoding="UTF-8" standalone="no"?>
<!-- Created with Inkscape (http://www.inkscape.org/) -->

<svg
   xmlns:dc="http://purl.org/dc/elements/1.1/"
   xmlns:cc="http://creativecommons.org/ns#"
   xmlns:rdf="http://www.w3.org/1999/02/22-rdf-syntax-ns#"
   xmlns:svg="http://www.w3.org/2000/svg"
   xmlns="http://www.w3.org/2000/svg"
   xmlns:sodipodi="http://sodipodi.sourceforge.net/DTD/sodipodi-0.dtd"
   xmlns:inkscape="http://www.inkscape.org/namespaces/inkscape"
   width="320"
   height="200"
   viewBox="0 0 320 200"
   id="svg3624"
   version="1.1"
   inkscape:version="0.91 r13725"
   sodipodi:docname="Green-Fablab.svg"
   inkscape:export-filename="/Users/fabio/Dropbox/Site/Innovation on the Web/assets/img/work/proj-3/Green-Fablab.png"
   inkscape:export-xdpi="300"
   inkscape:export-ydpi="300">
  <defs
     id="defs3626">
    <clipPath
       clipPathUnits="userSpaceOnUse"
       id="clipPath5195">
      <path
         style="fill:none;stroke:#000000;stroke-width:1px;stroke-linecap:butt;stroke-linejoin:miter;stroke-opacity:1"
         d="m 279.73364,807.54626 45.89678,16.65579 9.64285,1.78571 23.21429,16.96429 33.56354,49.96216 -0.7064,9.14499 0.26786,15.44642 c -0.71509,3.42262 -0.054,6.84524 0.0893,10.26786 l 2.85714,29.64286 -115.17857,-11.25 z"
         id="path5197"
         inkscape:connector-curvature="0"
         sodipodi:nodetypes="ccccccccccc" />
    </clipPath>
    <clipPath
       clipPathUnits="userSpaceOnUse"
       id="clipPath5739">
      <path
         style="fill:none;stroke:#000000;stroke-width:1px;stroke-linecap:butt;stroke-linejoin:miter;stroke-opacity:1"
         d="m 279.73364,807.54626 45.89678,16.65579 9.64285,1.78571 23.21429,16.96429 33.56354,49.96216 -0.7064,9.14499 0.26786,15.44642 c -0.71509,3.42262 -0.054,6.84524 0.0893,10.26786 l 2.85714,29.64286 -115.17857,-11.25 z"
         id="path5741"
         inkscape:connector-curvature="0"
         sodipodi:nodetypes="ccccccccccc" />
    </clipPath>
    <clipPath
       clipPathUnits="userSpaceOnUse"
       id="clipPath5743">
      <path
         style="fill:none;stroke:#000000;stroke-width:1px;stroke-linecap:butt;stroke-linejoin:miter;stroke-opacity:1"
         d="m 279.73364,807.54626 45.89678,16.65579 9.64285,1.78571 23.21429,16.96429 33.56354,49.96216 -0.7064,9.14499 0.26786,15.44642 c -0.71509,3.42262 -0.054,6.84524 0.0893,10.26786 l 2.85714,29.64286 -115.17857,-11.25 z"
         id="path5745"
         inkscape:connector-curvature="0"
         sodipodi:nodetypes="ccccccccccc" />
    </clipPath>
  </defs>
  <sodipodi:namedview
     id="base"
     pagecolor="#ffffff"
     bordercolor="#666666"
     borderopacity="1.0"
     inkscape:pageopacity="0.0"
     inkscape:pageshadow="2"
     inkscape:zoom="1.4"
     inkscape:cx="200.66424"
     inkscape:cy="92.2567"
     inkscape:document-units="px"
     inkscape:current-layer="layer1"
     showgrid="false"
     units="px"
     inkscape:window-width="1436"
     inkscape:window-height="855"
     inkscape:window-x="0"
     inkscape:window-y="1"
     inkscape:window-maximized="1" />
  <metadata
     id="metadata3629">
    <rdf:RDF>
      <cc:Work
         rdf:about="">
        <dc:format>image/svg+xml</dc:format>
        <dc:type
           rdf:resource="http://purl.org/dc/dcmitype/StillImage" />
        <dc:title></dc:title>
      </cc:Work>
    </rdf:RDF>
  </metadata>
  <g
     inkscape:label="Capa 1"
     inkscape:groupmode="layer"
     id="layer1"
     transform="translate(0,-852.36218)">
    <g
       transform="matrix(0.65863823,0,0,0.65863823,-126.40054,421.77118)"
       clip-path="url(#clipPath5195)"
       id="g3326"
       inkscape:export-filename="/home/fabbiocrux/Dropbox/Fabio_Cruz/Autres documents/Poster Inauguration FabLab/Figuras/concepto.png"
       inkscape:export-xdpi="90"
       inkscape:export-ydpi="90">
      <path
         inkscape:connector-curvature="0"
         id="path3328"
         d="m 419.33695,953.37002 c -2.12875,-2.60584 -9.15796,-10.71996 -15.62046,-18.03137 -6.4625,-7.3114 -11.75,-13.96788 -11.75,-14.79218 0,-1.37685 3.81883,-5.85738 24.87789,-29.18854 8.92585,-9.88888 11.12211,-10.53065 11.12211,-3.25 l 0,5 12,0 c 6.6,0 12,-0.30051 12,-0.66781 0,-1.03913 -8.34684,-16.23691 -18.63722,-33.93432 -5.14953,-8.85617 -9.36278,-16.96043 -9.36278,-18.00946 0,-2.21933 -1.15639,-1.44785 23.2017,-15.47876 10.41672,-6.00031 19.77386,-10.90965 20.79364,-10.90965 1.33098,0 4.14899,3.95887 9.98724,14.03051 16.35787,28.21917 21.37731,41.56622 19.19209,51.03312 -1.24488,5.3931 -27.53587,52.00028 -32.56304,57.72591 -1.60725,1.83056 -4.70008,4.23526 -6.87297,5.34379 -4.90215,2.50089 -15.59022,4.82627 -22.28866,4.84931 -6.1704,0.0212 -7.45,1.17498 -7.45,6.71736 0,3.86195 -0.24241,4.3 -2.37954,4.3 -1.62662,0 -3.6042,-1.49914 -6.25,-4.73791 z m -74.87046,-6.23218 c -14.46879,-1.29894 -22.52364,-4.12765 -27.58791,-9.68833 -3.12767,-3.43424 -30.68238,-51.04658 -32.52134,-56.19428 -0.71663,-2.00601 -1.32272,-4.79026 -1.34686,-6.1872 -0.073,-4.22445 2.73023,-13.54356 6.65993,-22.14034 l 3.71591,-8.12911 -2.40558,-1.59533 c -5.86968,-3.89263 -6.62719,-4.85867 -5.01415,-6.39449 0.825,-0.78551 11.99328,-3.5441 24.81839,-6.1302 18.4544,-3.72121 23.61992,-4.45175 24.76397,-3.50228 0.79507,0.65985 4.64712,11.15191 8.56011,23.31569 3.91299,12.16378 7.25201,22.36245 7.42005,22.66371 0.16803,0.30126 -0.0913,1.18983 -0.57634,1.97461 -0.74175,1.20018 -1.62781,1.06445 -5.57736,-0.8544 -2.58254,-1.25469 -5.03383,-1.91827 -5.44731,-1.47461 -1.36161,1.46097 -9.96151,17.94642 -9.96151,19.09557 0,0.80005 8.35369,1.20915 28.95147,1.4178 22.10516,0.22393 29.25855,0.6007 30.25,1.59328 1.62347,1.62531 1.90343,49.51584 0.29853,51.06571 -1.36603,1.3192 -33.89853,2.16085 -45,1.1642 z m -8.91254,-121.8357 c -10.9519,-6.43181 -20.34763,-12.39932 -20.8794,-13.26113 -0.73084,-1.18442 1.03271,-5.05994 7.22447,-15.87625 11.44953,-20.00107 16.65022,-27.69883 23.03702,-34.09803 9.16802,-9.18583 8.01591,-8.9588 45.4637,-8.9588 26.14019,0 33.31659,0.28646 36.0777,1.44013 4.71546,1.97024 12.81105,9.73773 18.30161,17.55987 2.50939,3.575 4.713,6.69737 4.89692,6.93861 0.18392,0.24123 2.37888,-0.55468 4.8777,-1.7687 4.99714,-2.4278 6.44242,-2.16873 6.35475,1.13911 -0.10218,3.8553 -14.55351,45.04339 -16.15942,46.05637 -1.08231,0.68271 -8.25382,-0.44731 -23.91421,-3.76815 -27.50323,-5.83216 -25.8683,-5.352 -25.8683,-7.59724 0,-1.02587 0.7875,-2.12798 1.75,-2.44914 0.9625,-0.32115 2.8345,-1.42022 4.16,-2.44237 l 2.40999,-1.85847 -5.87972,-9.6351 c -3.23385,-5.29931 -6.34335,-9.49746 -6.91,-9.32923 -0.88389,0.26241 -11.48232,17.5172 -26.03027,42.3786 -3.12153,5.33447 -4.54904,6.87836 -6.5,7.02993 -1.6259,0.12631 -9.46222,-3.89455 -22.41254,-11.5 z"
         style="fill:#cee7aa" />
      <path
         inkscape:connector-curvature="0"
         id="path3330"
         d="m 420.58798,953.55727 c -19.10987,-21.59475 -27.62149,-31.75443 -27.62149,-32.9697 0,-1.86423 31.04303,-36.47964 32.71487,-36.47964 0.7962,0 1.28513,1.30048 1.28513,3.41821 0,6.60557 -0.0492,6.58179 13.60699,6.58179 10.53738,0 12.39301,-0.23254 12.39301,-1.55302 0,-0.85416 -6.3,-12.48296 -14,-25.84179 -7.7,-13.35883 -14,-24.97987 -14,-25.82454 0,-0.84467 0.5625,-1.98635 1.25,-2.53708 2.95314,-2.36562 39.85824,-23.24357 41.0867,-23.24357 1.95566,0 3.74183,2.37984 9.38179,12.5 13.91178,24.96284 19.29684,38.02674 19.25777,46.71845 -0.0327,7.2774 -2.47534,12.7015 -17.34177,38.50899 -14.09479,24.46797 -17.27612,28.24039 -25.93936,30.75886 -4.44196,1.29131 -18.97442,3.4767 -23.31508,3.50611 -0.61597,0.004 -1.3526,2.07172 -1.63696,4.59455 -0.81398,7.22161 -2.08493,7.55398 -7.1216,1.86238 z m -79.21756,-7.46941 c -10.94668,-1.15469 -17.5774,-3.45796 -22.21268,-7.71587 -2.79985,-2.57191 -8.43707,-11.36076 -17.79886,-27.74974 -7.53566,-13.19212 -14.52184,-25.79212 -15.52484,-28 -3.26148,-7.17944 -1.9743,-15.00508 4.91515,-29.88251 l 3.64361,-7.86819 -2.09459,-1.63181 c -1.15202,-0.89749 -2.90324,-2.11054 -3.89158,-2.69565 -4.34367,-2.5715 -0.75615,-3.98775 22.48918,-8.87806 17.09495,-3.59641 23.45029,-4.57849 24.27727,-3.75151 1.99358,1.99358 15.80506,45.58176 14.77087,46.61595 -0.60954,0.60954 -2.41202,0.13948 -4.9631,-1.29431 -2.20327,-1.23831 -4.42106,-1.99491 -4.92843,-1.68133 -1.40145,0.86613 -11.08593,19.20106 -11.08593,20.98817 0,1.38384 3.34751,1.56493 28.92857,1.56493 24.96537,0 29.14386,0.21529 30.5,1.57143 2.35228,2.35228 2.35228,47.50486 0,49.85714 -1.32946,1.32947 -4.5245,1.55052 -20.75,1.43565 -10.54821,-0.0747 -22.3718,-0.47261 -26.27464,-0.88429 z M 337.0013,825.22343 c -11.25585,-6.51787 -20.87549,-12.50115 -21.37698,-13.29618 -0.65035,-1.03101 1.04193,-4.86834 5.90172,-13.38241 14.50813,-25.41745 24.46208,-38.1409 32.92017,-42.07958 4.9237,-2.29282 5.62208,-2.33798 36.3024,-2.34756 24.81663,-0.008 31.98639,0.28449 34.68961,1.41397 4.73737,1.9794 11.86845,8.75814 18.2268,17.32626 5.57992,7.51914 6.96973,8.22625 11.30147,5.75 3.38149,-1.93303 5.01453,-1.85018 4.9274,0.25 -0.0399,0.9625 -3.31322,11.425 -7.27398,23.25 -6.22403,18.58205 -7.4953,21.54229 -9.3669,21.81162 -2.82319,0.40627 -45.48144,-8.72413 -46.78652,-10.01399 -0.66391,-0.65616 -0.17801,-1.54445 1.44572,-2.64298 7.11623,-4.81448 7.09093,-3.79581 0.36557,-14.72305 -3.33372,-5.41655 -6.55596,-10.01316 -7.16054,-10.21469 -1.32372,-0.44123 -8.63893,10.8341 -20.62023,31.78309 -8.61685,15.06633 -11.20555,19.01804 -12.43551,18.98309 -0.32725,-0.009 -9.80434,-5.34971 -21.0602,-11.86759 z"
         style="fill:#b2cf94" />
      <path
         inkscape:connector-curvature="0"
         id="path3332"
         d="m 412.885,943.99659 c -6.28018,-7.24112 -13.1378,-15.12457 -15.23916,-17.51879 -2.26386,-2.57938 -3.68999,-5.14434 -3.5,-6.29492 0.43313,-2.62297 30.88935,-36.40972 31.89718,-35.38529 0.43846,0.44569 0.93812,2.83534 1.11034,5.31034 l 0.31313,4.5 12.21735,-0.0173 c 7.74614,-0.011 12.63204,-0.43204 13.35048,-1.15048 0.84417,-0.84417 0.50396,-2.24229 -1.33411,-5.48265 -1.35697,-2.39223 -7.98376,-13.95545 -14.72618,-25.69603 -11.93498,-20.78236 -12.20939,-21.39416 -10.38325,-23.14914 3.25215,-3.12543 40.23864,-23.99418 41.59996,-23.47179 1.24989,0.47963 15.94811,25.55704 21.13275,36.0557 7.0226,14.22045 8.29928,24.31231 4.19176,33.13471 -2.52156,5.41598 -18.46031,33.3829 -26.20869,45.98708 -3.93885,6.40728 -5.1231,7.54745 -10.63621,10.24037 -4.68042,2.28618 -8.65949,3.3025 -16.20386,4.13871 -5.5,0.60961 -10.675,1.44716 -11.5,1.86121 -0.84129,0.42223 -1.71957,2.65023 -2,5.07359 -0.275,2.37642 -0.98667,4.48043 -1.58149,4.67558 -0.59481,0.19515 -6.21981,-5.56974 -12.5,-12.81085 z m -77.44891,0.66248 c -8.13284,-1.48816 -13.88934,-4.18029 -17.55418,-8.20956 -2.21466,-2.43487 -26.23126,-43.1849 -31.39756,-53.27363 -2.85268,-5.57069 -1.71903,-15.66921 2.92963,-26.09713 5.434,-12.18962 5.50497,-13.21905 1.09904,-15.94206 -2.0018,-1.23719 -3.4873,-2.70645 -3.3011,-3.26504 0.42949,-1.28849 44.93589,-10.29185 46.98631,-9.50504 1.59162,0.61077 16.37767,44.46524 15.34138,45.50154 -0.304,0.304 -2.33312,-0.25012 -4.50915,-1.23137 -2.17603,-0.98126 -4.54312,-1.55592 -5.26019,-1.27704 -1.87683,0.72992 -12.46487,21.41667 -11.47172,22.41326 0.45763,0.45921 14.18263,1.05993 30.5,1.33493 l 29.66794,0.5 0,25 0,25 -23,0.16878 c -15.1472,0.11116 -25.40036,-0.27044 -30.0304,-1.11764 z m 1.04164,-120.37606 c -11.65343,-6.80656 -20.12302,-12.37761 -20.31075,-13.3598 -0.32361,-1.69319 12.87967,-25.5522 19.81974,-35.81528 6.23457,-9.21977 13.08821,-16.14142 18.45949,-18.64267 4.91598,-2.28922 5.65395,-2.33788 35.52028,-2.34198 18.1885,-0.003 32.02153,0.41834 34.26938,1.04258 4.7728,1.32543 14.86837,10.72525 20.23062,18.83637 4.29658,6.49916 5.69343,7.09127 10.66456,4.5206 1.68588,-0.8718 3.42089,-1.2093 3.85556,-0.75 1.04395,1.1031 -13.35248,44.30047 -15.13762,45.42136 -0.76037,0.47745 -2.0575,0.66581 -2.8825,0.41858 -0.825,-0.24722 -10.275,-2.28631 -21,-4.5313 -26.60873,-5.56982 -25.6908,-5.14741 -19.5,-8.97354 1.925,-1.18972 3.49164,-2.91392 3.48143,-3.83156 -0.0235,-2.11291 -11.08095,-20.36828 -12.65505,-20.89298 -1.55287,-0.51763 -6.94776,7.56476 -18.83951,28.22454 -11.36956,19.75256 -13.20107,22.52675 -14.80496,22.42508 -0.65005,-0.0412 -10.17685,-5.3287 -21.17067,-11.75 z"
         style="fill:#abe158" />
      <path
         inkscape:connector-curvature="0"
         id="path3334"
         d="m 412.885,943.99659 c -6.28018,-7.24112 -13.1378,-15.12457 -15.23916,-17.51879 -2.21459,-2.52323 -3.68586,-5.14779 -3.5,-6.24354 0.43464,-2.56246 30.93991,-36.41049 31.91813,-35.41571 0.42694,0.43416 0.91717,2.81438 1.08939,5.28938 l 0.31313,4.5 11.5,0.29021 c 12.43898,0.31392 16.00007,-0.14442 15.99987,-2.05926 -8e-5,-0.67702 -2.23064,-4.7122 -4.95681,-8.96706 -2.72617,-4.25486 -9.52947,-15.66043 -15.11844,-25.34571 -9.11236,-15.79107 -10.00407,-17.7673 -8.63482,-19.13655 2.70527,-2.70527 40.89001,-24.14986 42.14457,-23.66844 1.38875,0.53291 15.75588,27.2883 20.48851,38.15501 1.74098,3.99751 3.891,10.20846 4.77782,13.80211 1.66008,6.7271 1.6609,6.71727 -1.59582,19.0035 -0.76645,2.89148 -14.95642,28.18107 -24.76481,44.13624 -3.93885,6.40728 -5.1231,7.54745 -10.63621,10.24037 -4.68042,2.28618 -8.65949,3.3025 -16.20386,4.13871 -5.5,0.60961 -10.675,1.44716 -11.5,1.86121 -0.84129,0.42223 -1.71957,2.65023 -2,5.07359 -0.275,2.37642 -0.98667,4.48043 -1.58149,4.67558 -0.59481,0.19515 -6.21981,-5.56974 -12.5,-12.81085 z m -77.44891,0.66248 c -8.13284,-1.48816 -13.88934,-4.18029 -17.55418,-8.20956 -2.18844,-2.40605 -26.22572,-43.16934 -31.27774,-53.04192 -3.32909,-6.50566 -1.51952,-17.62701 4.96243,-30.49846 1.85633,-3.68617 3.11106,-7.39031 2.78829,-8.23143 -0.32276,-0.84111 -2.15014,-2.49546 -4.06082,-3.67633 -1.91069,-1.18087 -3.10354,-2.47867 -2.65078,-2.88399 0.78365,-0.70154 12.8059,-3.53138 34.9044,-8.21592 5.54467,-1.17538 10.77728,-1.86994 11.62804,-1.54348 1.61236,0.61872 16.41314,44.46091 15.36388,45.51017 -0.304,0.304 -2.33312,-0.25012 -4.50915,-1.23137 -2.17603,-0.98126 -4.54312,-1.55228 -5.26019,-1.26894 -1.91348,0.75606 -12.08611,20.56197 -11.43391,22.26158 0.46494,1.2116 5.42995,1.49199 30.34301,1.71357 l 29.78712,0.26494 0,25 0,25 -23,0.16878 c -15.1472,0.11116 -25.40036,-0.27044 -30.0304,-1.11764 z m 1.5304,-120.06737 c -10.725,-6.24685 -19.91464,-12.00882 -20.42143,-12.80439 -1.82008,-2.8572 18.18996,-35.34501 28.35399,-46.03483 9.92535,-10.4388 8.60362,-10.14455 45.56744,-10.14455 30.85726,0 32.14372,0.077 36.02462,2.15534 4.41196,2.36278 10.71987,8.73872 17.32214,17.50894 2.34525,3.11535 4.87567,5.89896 5.62315,6.1858 0.74748,0.28683 3.05434,-0.34279 5.12636,-1.39916 2.07202,-1.05638 3.90897,-1.77901 4.08212,-1.60586 0.9139,0.9139 -12.54944,42.38313 -14.34202,44.17572 -0.85092,0.85091 -2.2872,1.31929 -3.19174,1.04083 -0.90455,-0.27845 -10.41963,-2.34308 -21.14463,-4.58807 -26.58284,-5.56441 -25.71803,-5.17231 -19.5,-8.84104 1.94877,-1.1498 3.49,-2.85561 3.47745,-3.84878 -0.028,-2.2147 -11.04274,-20.52543 -12.65092,-21.03069 -1.55721,-0.48924 -6.97332,7.63133 -18.83966,28.24697 -11.37321,19.75889 -13.20185,22.52821 -14.80496,22.42083 -0.65005,-0.0435 -9.95691,-5.19022 -20.68191,-11.43706 z"
         style="fill:#9fe334" />
      <path
         inkscape:connector-curvature="0"
         id="path3336"
         d="m 412.885,943.99659 c -6.28018,-7.24112 -13.1378,-15.12457 -15.23916,-17.51879 -2.21459,-2.52323 -3.68586,-5.14779 -3.5,-6.24354 0.43464,-2.56246 30.93991,-36.41049 31.91813,-35.41571 0.42694,0.43416 0.91717,2.81438 1.08939,5.28938 l 0.31313,4.5 21.5,-0.11245 c 23.21921,-0.12145 30.45104,-1.08078 38.39084,-5.09269 6.05369,-3.05887 6.33043,-3.86723 -5.99565,17.51354 -17.78302,30.84635 -17.69497,30.7246 -24.69133,34.14202 -4.68042,2.28618 -8.65949,3.3025 -16.20386,4.13871 -5.5,0.60961 -10.675,1.44716 -11.5,1.86121 -0.84129,0.42223 -1.71957,2.65023 -2,5.07359 -0.275,2.37642 -0.98667,4.48043 -1.58149,4.67558 -0.59481,0.19515 -6.21981,-5.56974 -12.5,-12.81085 z m -77.44891,0.66248 c -8.13284,-1.48816 -13.88934,-4.18029 -17.55418,-8.20956 -2.18844,-2.40605 -26.22572,-43.16934 -31.27774,-53.04192 -3.32909,-6.50566 -1.51952,-17.62701 4.96243,-30.49846 1.85633,-3.68617 3.11106,-7.39031 2.78829,-8.23143 -0.32276,-0.84111 -2.14087,-2.48974 -4.04022,-3.6636 -1.89936,-1.17387 -3.25547,-2.33221 -3.01359,-2.57409 1.58608,-1.58608 44.79819,-10.87884 46.87739,-10.08098 1.60984,0.61775 16.40882,44.46143 15.36114,45.50912 -0.304,0.304 -2.33312,-0.25012 -4.50915,-1.23137 -2.17603,-0.98126 -4.54312,-1.55228 -5.26019,-1.26894 -1.91348,0.75606 -12.08611,20.56197 -11.43391,22.26158 0.46494,1.2116 5.42995,1.49199 30.34301,1.71357 l 29.78712,0.26494 0,25 0,25 -23,0.16878 c -15.1472,0.11116 -25.40036,-0.27044 -30.0304,-1.11764 z m 3.93493,-9.55114 c -1.97568,-2.75 -3.80301,-5 -4.06075,-5 -0.25773,0 0.756,2.25 2.25274,5 1.49673,2.75 3.32407,5 4.06075,5 0.81884,0 -0.0567,-1.94325 -2.25274,-5 z m -3.91008,1.99387 c -1.98964,-2.19852 -3.08052,-1.96353 -2.14937,0.463 0.32568,0.84872 1.35102,1.54313 2.27852,1.54313 1.53891,0 1.52762,-0.17542 -0.12915,-2.00613 z m -5.9314,-2.53798 c -3.11374,-4.75218 -7.56305,-12.54102 -7.56305,-13.23968 0,-0.38267 1.17053,0.56659 2.60119,2.10949 1.43065,1.54289 2.86089,2.54556 3.1783,2.22814 0.91168,-0.91167 -5.04486,-12.63163 -6.22245,-12.24316 -1.54,0.50804 -1.87411,13.50963 -0.43637,16.98065 1.21189,2.92575 6.13124,6.69778 8.74434,6.70493 1.07386,0.003 1.00946,-0.5389 -0.30196,-2.54037 z m 1.1434,-13.60861 c -2.43778,-4.041 -5.15099,-8.69728 -6.02935,-10.34728 -1.09484,-2.05664 -1.60961,-2.44297 -1.63706,-1.22856 -0.022,0.97429 1.0176,3.44929 2.31028,5.5 1.29268,2.05071 3.82557,6.10817 5.62865,9.01658 1.80307,2.90841 3.47665,5.08969 3.71906,4.84728 0.24241,-0.2424 -1.5538,-3.74701 -3.99158,-7.78802 z m 119.19137,-38.22655 c -1.3188,-1.3212 -7.51409,-11.26902 -13.7673,-22.10626 -10.19833,-17.67438 -11.21211,-19.86146 -9.84163,-21.23193 2.90909,-2.90909 40.93907,-24.13229 42.30415,-23.60846 1.28426,0.49281 11.48164,20.30396 12.83714,24.93959 0.81148,2.77515 -5.85191,12.88633 -8.49225,12.88633 -1.32358,0 -4.18013,3.98815 -10.02764,14 -11.3144,19.37201 -10.13588,18.00255 -13.01247,15.12073 z M 336.96649,824.5917 c -10.725,-6.24685 -19.91117,-12.00331 -20.41371,-12.79215 -0.64861,-1.01812 0.91788,-4.69291 5.39917,-12.66575 11.20393,-19.93338 21.31043,-32.69832 29.92234,-37.79319 5.69535,-3.3694 14.77002,-3.62677 20.66981,-0.58621 4.45087,2.29383 14.20192,13.3204 18.56726,20.99599 1.70311,2.9946 3.8499,5.39051 5.1399,5.73635 1.21838,0.32663 14.26856,0.60002 29.00041,0.60753 22.98822,0.0117 27.13459,-0.21528 29.25,-1.60135 1.51376,-0.99185 2.46482,-1.18478 2.46482,-0.5 0,0.61326 -0.47656,1.11501 -1.05902,1.11501 -0.58246,0 -0.78898,0.43692 -0.45895,0.97093 0.84042,1.35983 -9.25743,32.66161 -11.14566,34.54985 -0.85092,0.85091 -2.2872,1.31928 -3.19174,1.04083 -0.90455,-0.27845 -10.41963,-2.34308 -21.14463,-4.58807 -26.58284,-5.56441 -25.71803,-5.17231 -19.5,-8.84104 1.94877,-1.1498 3.49,-2.85561 3.47745,-3.84878 -0.028,-2.2147 -11.04274,-20.52543 -12.65092,-21.03069 -1.55721,-0.48924 -6.97332,7.63133 -18.83966,28.24697 -11.37321,19.75889 -13.20185,22.52821 -14.80496,22.42083 -0.65005,-0.0435 -9.95691,-5.19022 -20.68191,-11.43706 z"
         style="fill:#8ab55e" />
      <path
         inkscape:connector-curvature="0"
         id="path3338"
         d="m 414.70428,944.85793 c -5.30164,-6.1875 -12.13963,-14.09684 -15.19554,-17.57632 -3.63781,-4.14203 -5.29484,-6.7899 -4.79923,-7.66896 1.3444,-2.38453 29.63701,-33.50472 30.46048,-33.50472 0.43808,0 0.7965,1.7449 0.7965,3.87756 0,6.53116 0.28216,6.59072 24.7476,5.22337 23.15297,-1.29399 29.56623,-2.24137 35.5024,-5.24446 2.32044,-1.17391 3.75,-1.46822 3.75,-0.77205 0,2.17372 -25.30826,44.97965 -28.35398,47.9574 -3.94525,3.85722 -13.62285,6.88892 -24.47898,7.66853 -9.59563,0.6891 -11.16704,1.72494 -11.16704,7.36108 0,2.16071 -0.36515,3.92857 -0.81144,3.92857 -0.44629,0 -5.14914,-5.0625 -10.45077,-11.25 z m -75.73779,-0.39942 c -1.375,-0.20738 -5.31025,-1.09546 -8.745,-1.97351 -9.75217,-2.49302 -12.0877,-5.3154 -29.27467,-35.37707 l -15.15068,-26.5 0.40664,-7.5 c 0.3222,-5.94244 1.19106,-9.26524 4.18375,-16 5.44901,-12.26246 5.49873,-12.80166 1.4828,-16.0793 -1.86453,-1.52175 -3.16793,-2.94169 -2.89645,-3.15542 1.08416,-0.85351 43.57847,-9.38198 44.74591,-8.98035 1.18842,0.40884 15.65255,43.14355 14.86804,43.92806 -0.205,0.205 -1.96254,-0.3854 -3.90564,-1.312 -1.9431,-0.9266 -4.20844,-1.4255 -5.03407,-1.10868 -1.66973,0.64074 -12.68063,20.54872 -12.68063,22.9269 0,2.28709 6.23861,2.78079 35.13957,2.78079 l 25.86043,0 0,24.5 0,24.5 -23.25,-0.13618 c -12.7875,-0.0749 -24.375,-0.30586 -25.75,-0.51324 z m 0.40453,-9.35058 c -1.97568,-2.75 -3.80301,-5 -4.06075,-5 -0.25773,0 0.756,2.25 2.25274,5 1.49673,2.75 3.32407,5 4.06075,5 0.81884,0 -0.0567,-1.94325 -2.25274,-5 z m -3.91008,1.99387 c -1.98964,-2.19852 -3.08052,-1.96353 -2.14937,0.463 0.32568,0.84872 1.35102,1.54313 2.27852,1.54313 1.53891,0 1.52762,-0.17542 -0.12915,-2.00613 z m -5.9314,-2.53798 c -3.11374,-4.75218 -7.56305,-12.54102 -7.56305,-13.23968 0,-0.38267 1.17053,0.56659 2.60119,2.10949 1.43065,1.54289 2.86089,2.54556 3.1783,2.22814 0.91168,-0.91167 -5.04486,-12.63163 -6.22245,-12.24316 -1.54,0.50804 -1.87411,13.50963 -0.43637,16.98065 1.21189,2.92575 6.13124,6.69778 8.74434,6.70493 1.07386,0.003 1.00946,-0.5389 -0.30196,-2.54037 z m 1.1434,-13.60861 c -2.43778,-4.041 -5.15099,-8.69728 -6.02935,-10.34728 -1.09484,-2.05664 -1.60961,-2.44297 -1.63706,-1.22856 -0.022,0.97429 1.0176,3.44929 2.31028,5.5 1.29268,2.05071 3.82557,6.10817 5.62865,9.01658 1.80307,2.90841 3.47665,5.08969 3.71906,4.84728 0.24241,-0.2424 -1.5538,-3.74701 -3.99158,-7.78802 z m 120.05919,-37.59674 c -0.84992,-0.9628 -6.83865,-10.89071 -13.30828,-22.06203 -10.04211,-17.34004 -11.55774,-20.5109 -10.36016,-21.67461 1.78006,-1.72971 39.47243,-23.5139 40.68523,-23.5139 1.03003,0 10.46814,16.68256 12.80778,22.63871 1.54981,3.94542 1.54749,3.95568 -2.12498,9.40551 -2.23607,3.31824 -4.40163,5.45578 -5.5273,5.45578 -1.32358,0 -4.18013,3.98815 -10.02764,14 -11.07287,18.95848 -10.25227,17.89424 -12.14465,15.75054 z M 336.96649,823.63088 c -10.725,-6.25961 -19.64258,-12.07285 -19.81684,-12.91834 -0.17426,-0.84547 3.14436,-7.51489 7.37471,-14.82092 18.34725,-31.68665 28.08357,-39.98409 43.13108,-36.75698 6.29864,1.35082 10.61039,4.91424 18.30959,15.13184 5.99521,7.95625 6.06842,8.13041 4.1635,9.90512 -2.46482,2.29633 -9.11641,12.91781 -21.2162,33.87875 -5.25479,9.10308 -10.20479,16.64343 -11,16.75634 -0.79521,0.1129 -10.22084,-4.91621 -20.94584,-11.17581 z m 83.18955,-5.3583 c -11.72075,-2.56556 -21.21731,-5.11465 -21.10347,-5.66465 0.11383,-0.55 1.49103,-1.78089 3.06045,-2.7353 1.56941,-0.95442 2.85347,-2.45091 2.85347,-3.32553 0,-0.87462 -1.73874,-4.59374 -3.86386,-8.2647 -2.12513,-3.67096 -4.33119,-7.57447 -4.90236,-8.67447 -1.02851,-1.98076 -0.76375,-1.99717 27.51921,-1.70535 18.90476,0.19506 28.91081,-0.0585 29.60236,-0.75 2.1761,-2.1761 2.48632,-0.87199 1.00034,4.20535 -4.22441,14.43406 -9.72993,30.331 -10.7308,30.98469 -1.37443,0.89767 1.69465,1.43068 -23.43534,-4.07004 z"
         style="fill:#6bad16" />
      <path
         inkscape:connector-curvature="0"
         id="path3340"
         d="m 417.28348,947.25875 c -3.40065,-4.25303 -9.8438,-11.86203 -14.31811,-16.90889 -5.76004,-6.49711 -7.89625,-9.59231 -7.31699,-10.60171 1.4243,-2.48193 28.81035,-32.55749 28.98622,-31.83287 0.0925,0.38096 0.4422,2.3367 0.7772,4.3461 0.335,2.0094 1.24091,3.8959 2.01314,4.19223 0.77222,0.29633 11.44748,0.12395 23.7228,-0.38307 19.88879,-0.82149 29.30411,-2.01355 35.06875,-4.43998 0.9625,-0.40514 1.75,-0.33508 1.75,0.15568 0,2.2144 -24.45801,43.11431 -27.2298,45.53504 -4.24354,3.70607 -10.44137,5.64117 -22.2702,6.95325 -5.5,0.61007 -10.5625,1.55226 -11.25,2.09375 -0.6875,0.5415 -1.25,2.72944 -1.25,4.86209 0,2.46642 -0.45491,3.85638 -1.25,3.81936 -0.6875,-0.032 -4.03235,-3.53795 -7.43301,-7.79098 z m -62.31699,-3.13814 c -1.56663,-0.50967 -1.86868,-0.85054 -0.80902,-0.913 2.85749,-0.16844 3.03203,-1.9289 0.62064,-6.26014 -1.67494,-3.00845 -1.96734,-4.26966 -1.06162,-4.57912 1.90657,-0.65142 1.55932,-1.89974 -2.39008,-8.59216 -6.76845,-11.46938 -13.35992,-23.96086 -13.35992,-25.31832 0,-1.09728 4.68243,-1.34994 25.0181,-1.34994 l 25.0181,0 -0.2681,23.75 -0.2681,23.75 -15,0.163 c -8.25,0.0896 -16.125,-0.20299 -17.5,-0.65032 z m -22.65625,-1.0541 c -9.47544,-1.87464 -15.14141,-6.65493 -19.25068,-16.24145 -1.12707,-2.62935 -7.1717,-13.65385 -13.43251,-24.49889 -6.2608,-10.84503 -11.71278,-20.84324 -12.1155,-22.21824 -0.67522,-2.3054 3.62219,4.81058 18.26321,30.24166 3.08462,5.35792 5.87386,9.40792 6.19831,9 0.32445,-0.40791 1.41775,-3.21666 2.42956,-6.24166 1.01181,-3.025 3.1276,-8.58462 4.70176,-12.35471 1.57415,-3.77009 2.8621,-7.46882 2.8621,-8.21941 0,-0.75058 -2.3625,-5.45725 -5.25,-10.45927 -2.8875,-5.00201 -6.75882,-11.87828 -8.60293,-15.28059 -1.84411,-3.40231 -5.10661,-9.02451 -7.25,-12.49377 -2.14339,-3.46927 -3.89707,-7.37463 -3.89707,-8.67857 0,-2.46719 -2.34169,-5.51368 -4.23809,-5.51368 -2.31931,0 0.24065,-1.14296 6.85353,-3.05995 12.15746,-3.52429 33.68535,-8.0407 34.45192,-7.22778 0.92453,0.98042 13.97669,41.57701 13.51562,42.03808 -0.18445,0.18446 -1.97494,-0.44649 -3.97886,-1.40209 -3.17393,-1.51354 -3.82437,-1.55129 -5.04703,-0.29286 -2.1363,2.19881 -12.55709,22.38199 -12.55709,24.32082 0,0.9369 -0.8533,3.37607 -1.89623,5.42038 -3.40209,6.66864 -6.10377,16.41998 -6.10377,22.0307 0,10.63657 5.73644,16.36118 20.18892,20.14729 6.97802,1.82804 7.10608,1.9128 2.81108,1.86078 -2.475,-0.03 -6.37031,-0.42453 -8.65625,-0.87679 z m 112.36673,-70.6717 c -3.8694,-6.20579 -17.71048,-30.83142 -17.71048,-31.50995 0,-1.19408 40.01894,-23.88326 41.02662,-23.26048 1.38618,0.85671 5.97338,10.05299 5.97338,11.97526 0,0.85701 -4.57641,9.53447 -10.16981,19.28324 -5.5934,9.74878 -11.2545,19.6333 -12.58022,21.96561 -1.32572,2.33231 -2.80819,4.4864 -3.29437,4.78688 -0.48617,0.30047 -1.94648,-1.15778 -3.24512,-3.24056 z M 337.96649,823.52325 c -10.175,-5.84597 -19.01271,-11.14346 -19.63935,-11.77218 -2.12667,-2.13375 15.1476,-31.33926 25.02796,-42.31462 12.07013,-13.4078 26.80227,-12.45005 39.29719,2.55474 8.44419,10.1404 8.38188,9.52653 1.95159,19.22939 -3.05716,4.61304 -10.02313,16.03735 -15.47993,25.38735 -5.4568,9.35 -10.53706,17.12248 -11.28946,17.27218 -0.7524,0.1497 -9.693,-4.51088 -19.868,-10.35686 z m 82.333,-5.75339 c -10.54185,-2.28906 -19.4605,-4.45559 -19.81923,-4.8145 -0.35873,-0.35891 0.72892,-1.46843 2.417,-2.4656 3.37066,-1.9911 3.90231,-4.69631 1.53743,-7.82296 -3.30134,-4.36476 -2.78577,-4.47399 22.53259,-4.77424 18.87043,-0.22379 24.00063,-0.0135 24,0.98386 -4.3e-4,0.69766 -1.59833,6.21016 -3.55088,12.25 -3.12377,9.66279 -3.81426,10.97093 -5.75,10.89344 -1.20995,-0.0484 -10.82506,-1.96095 -21.36691,-4.25 z"
         style="fill:#4c8e04" />
      <path
         inkscape:connector-curvature="0"
         id="path3342"
         d="m 419.96649,949.58224 c -2.475,-3.2332 -4.85425,-6.45255 -5.28721,-7.15412 -0.87386,-1.416 0.29501,-3.96016 7.26836,-15.82019 2.58707,-4.4 7.26715,-12.55975 10.40017,-18.13277 6.50907,-11.57835 6.11958,-11.36217 20.49368,-11.37482 8.2964,-0.007 21.21815,-1.16885 28.77599,-2.58671 l 3.60959,-0.67717 -1.9752,2.88574 c -2.25479,3.2942 -5.92684,9.52967 -16.25105,27.59576 -3.99487,6.99052 -8.24748,13.35483 -9.45024,14.14292 -4.0984,2.68537 -12.0204,4.7752 -20.32249,5.36108 -4.55849,0.3217 -9.03084,1.12797 -9.93856,1.7917 -0.90771,0.66374 -1.91423,3.15087 -2.23671,5.52696 l -0.58633,4.32015 -4.5,-5.87853 z m -92.29304,-8.00733 c -9.50528,-3.48855 -14.3162,-10.27504 -13.42249,-18.93432 0.28822,-2.79258 1.20781,-6.64236 2.04352,-8.55504 l 1.51948,-3.47762 -0.55504,6.14331 c -0.30527,3.37883 -0.24876,7.77595 0.12559,9.77138 0.95834,5.10842 6.06062,10.45629 13.08198,13.71168 4.32313,2.00439 5.30131,2.77498 3.5,2.75728 -1.375,-0.0135 -4.20687,-0.65101 -6.29304,-1.41667 z m 3.04304,-142.16993 c -2.6125,-0.22365 -4.75,-0.84694 -4.75,-1.38509 0,-1.65244 5.05815,-11.08846 9.33362,-17.41196 4.9938,-7.38591 13.21776,-16.21665 16.85309,-18.09655 4.14486,-2.14339 14.37867,-1.79226 19.46025,0.66769 3.96586,1.91984 11.0044,9.13547 16.13968,16.54575 l 2.15998,3.11689 -5.9063,8.4651 -5.90629,8.46511 -21.31702,0.0198 c -11.72435,0.0109 -23.45451,-0.16314 -26.06701,-0.38678 z"
         style="fill:#427901" />
      <path
         inkscape:connector-curvature="0"
         id="path3344"
         d="m 327.11165,941.03798 c -1.29516,-0.51874 -3.66785,-1.87811 -5.27264,-3.02082 -3.3822,-2.40834 -7.36783,-9.48508 -5.86508,-10.41383 0.54591,-0.33739 0.99256,0.0536 0.99256,0.86886 0,2.26313 4.94393,7.64423 9.92612,10.80384 4.4948,2.85052 4.57644,3.5072 0.21904,1.76195 z m 16.425,-150.81653 c -0.366,-0.59219 -2.63432,-0.77482 -5.46281,-0.43983 -3.01174,0.3567 -5.0909,0.16194 -5.50996,-0.51612 -1.61922,-2.61995 11.57631,-21.2477 17.75767,-25.06799 4.34396,-2.68472 16.08033,-2.92587 21.32284,-0.43814 3.07726,1.46026 13.97715,13.09806 16.37571,17.48434 0.64451,1.17861 0.0923,2.74323 -1.97597,5.59835 l -2.87047,3.96257 -19.50557,0.21475 c -12.32249,0.13568 -19.73605,-0.15817 -20.13144,-0.79793 z"
         style="fill:#385e00" />
    </g>
    <g
       transform="matrix(-0.35924991,0.55203605,-0.55203605,-0.35924991,775.04837,1018.2931)"
       id="g3346"
       clip-path="url(#clipPath5195)"
       inkscape:export-filename="/home/fabbiocrux/Dropbox/Fabio_Cruz/Autres documents/Poster Inauguration FabLab/Figuras/concepto.png"
       inkscape:export-xdpi="90"
       inkscape:export-ydpi="90">
      <path
         style="fill:#cee7aa"
         d="m 419.33695,953.37002 c -2.12875,-2.60584 -9.15796,-10.71996 -15.62046,-18.03137 -6.4625,-7.3114 -11.75,-13.96788 -11.75,-14.79218 0,-1.37685 3.81883,-5.85738 24.87789,-29.18854 8.92585,-9.88888 11.12211,-10.53065 11.12211,-3.25 l 0,5 12,0 c 6.6,0 12,-0.30051 12,-0.66781 0,-1.03913 -8.34684,-16.23691 -18.63722,-33.93432 -5.14953,-8.85617 -9.36278,-16.96043 -9.36278,-18.00946 0,-2.21933 -1.15639,-1.44785 23.2017,-15.47876 10.41672,-6.00031 19.77386,-10.90965 20.79364,-10.90965 1.33098,0 4.14899,3.95887 9.98724,14.03051 16.35787,28.21917 21.37731,41.56622 19.19209,51.03312 -1.24488,5.3931 -27.53587,52.00028 -32.56304,57.72591 -1.60725,1.83056 -4.70008,4.23526 -6.87297,5.34379 -4.90215,2.50089 -15.59022,4.82627 -22.28866,4.84931 -6.1704,0.0212 -7.45,1.17498 -7.45,6.71736 0,3.86195 -0.24241,4.3 -2.37954,4.3 -1.62662,0 -3.6042,-1.49914 -6.25,-4.73791 z m -74.87046,-6.23218 c -14.46879,-1.29894 -22.52364,-4.12765 -27.58791,-9.68833 -3.12767,-3.43424 -30.68238,-51.04658 -32.52134,-56.19428 -0.71663,-2.00601 -1.32272,-4.79026 -1.34686,-6.1872 -0.073,-4.22445 2.73023,-13.54356 6.65993,-22.14034 l 3.71591,-8.12911 -2.40558,-1.59533 c -5.86968,-3.89263 -6.62719,-4.85867 -5.01415,-6.39449 0.825,-0.78551 11.99328,-3.5441 24.81839,-6.1302 18.4544,-3.72121 23.61992,-4.45175 24.76397,-3.50228 0.79507,0.65985 4.64712,11.15191 8.56011,23.31569 3.91299,12.16378 7.25201,22.36245 7.42005,22.66371 0.16803,0.30126 -0.0913,1.18983 -0.57634,1.97461 -0.74175,1.20018 -1.62781,1.06445 -5.57736,-0.8544 -2.58254,-1.25469 -5.03383,-1.91827 -5.44731,-1.47461 -1.36161,1.46097 -9.96151,17.94642 -9.96151,19.09557 0,0.80005 8.35369,1.20915 28.95147,1.4178 22.10516,0.22393 29.25855,0.6007 30.25,1.59328 1.62347,1.62531 1.90343,49.51584 0.29853,51.06571 -1.36603,1.3192 -33.89853,2.16085 -45,1.1642 z m -8.91254,-121.8357 c -10.9519,-6.43181 -20.34763,-12.39932 -20.8794,-13.26113 -0.73084,-1.18442 1.03271,-5.05994 7.22447,-15.87625 11.44953,-20.00107 16.65022,-27.69883 23.03702,-34.09803 9.16802,-9.18583 8.01591,-8.9588 45.4637,-8.9588 26.14019,0 33.31659,0.28646 36.0777,1.44013 4.71546,1.97024 12.81105,9.73773 18.30161,17.55987 2.50939,3.575 4.713,6.69737 4.89692,6.93861 0.18392,0.24123 2.37888,-0.55468 4.8777,-1.7687 4.99714,-2.4278 6.44242,-2.16873 6.35475,1.13911 -0.10218,3.8553 -14.55351,45.04339 -16.15942,46.05637 -1.08231,0.68271 -8.25382,-0.44731 -23.91421,-3.76815 -27.50323,-5.83216 -25.8683,-5.352 -25.8683,-7.59724 0,-1.02587 0.7875,-2.12798 1.75,-2.44914 0.9625,-0.32115 2.8345,-1.42022 4.16,-2.44237 l 2.40999,-1.85847 -5.87972,-9.6351 c -3.23385,-5.29931 -6.34335,-9.49746 -6.91,-9.32923 -0.88389,0.26241 -11.48232,17.5172 -26.03027,42.3786 -3.12153,5.33447 -4.54904,6.87836 -6.5,7.02993 -1.6259,0.12631 -9.46222,-3.89455 -22.41254,-11.5 z"
         id="path3348"
         inkscape:connector-curvature="0" />
      <path
         style="fill:#b2cf94"
         d="m 420.58798,953.55727 c -19.10987,-21.59475 -27.62149,-31.75443 -27.62149,-32.9697 0,-1.86423 31.04303,-36.47964 32.71487,-36.47964 0.7962,0 1.28513,1.30048 1.28513,3.41821 0,6.60557 -0.0492,6.58179 13.60699,6.58179 10.53738,0 12.39301,-0.23254 12.39301,-1.55302 0,-0.85416 -6.3,-12.48296 -14,-25.84179 -7.7,-13.35883 -14,-24.97987 -14,-25.82454 0,-0.84467 0.5625,-1.98635 1.25,-2.53708 2.95314,-2.36562 39.85824,-23.24357 41.0867,-23.24357 1.95566,0 3.74183,2.37984 9.38179,12.5 13.91178,24.96284 19.29684,38.02674 19.25777,46.71845 -0.0327,7.2774 -2.47534,12.7015 -17.34177,38.50899 -14.09479,24.46797 -17.27612,28.24039 -25.93936,30.75886 -4.44196,1.29131 -18.97442,3.4767 -23.31508,3.50611 -0.61597,0.004 -1.3526,2.07172 -1.63696,4.59455 -0.81398,7.22161 -2.08493,7.55398 -7.1216,1.86238 z m -79.21756,-7.46941 c -10.94668,-1.15469 -17.5774,-3.45796 -22.21268,-7.71587 -2.79985,-2.57191 -8.43707,-11.36076 -17.79886,-27.74974 -7.53566,-13.19212 -14.52184,-25.79212 -15.52484,-28 -3.26148,-7.17944 -1.9743,-15.00508 4.91515,-29.88251 l 3.64361,-7.86819 -2.09459,-1.63181 c -1.15202,-0.89749 -2.90324,-2.11054 -3.89158,-2.69565 -4.34367,-2.5715 -0.75615,-3.98775 22.48918,-8.87806 17.09495,-3.59641 23.45029,-4.57849 24.27727,-3.75151 1.99358,1.99358 15.80506,45.58176 14.77087,46.61595 -0.60954,0.60954 -2.41202,0.13948 -4.9631,-1.29431 -2.20327,-1.23831 -4.42106,-1.99491 -4.92843,-1.68133 -1.40145,0.86613 -11.08593,19.20106 -11.08593,20.98817 0,1.38384 3.34751,1.56493 28.92857,1.56493 24.96537,0 29.14386,0.21529 30.5,1.57143 2.35228,2.35228 2.35228,47.50486 0,49.85714 -1.32946,1.32947 -4.5245,1.55052 -20.75,1.43565 -10.54821,-0.0747 -22.3718,-0.47261 -26.27464,-0.88429 z M 337.0013,825.22343 c -11.25585,-6.51787 -20.87549,-12.50115 -21.37698,-13.29618 -0.65035,-1.03101 1.04193,-4.86834 5.90172,-13.38241 14.50813,-25.41745 24.46208,-38.1409 32.92017,-42.07958 4.9237,-2.29282 5.62208,-2.33798 36.3024,-2.34756 24.81663,-0.008 31.98639,0.28449 34.68961,1.41397 4.73737,1.9794 11.86845,8.75814 18.2268,17.32626 5.57992,7.51914 6.96973,8.22625 11.30147,5.75 3.38149,-1.93303 5.01453,-1.85018 4.9274,0.25 -0.0399,0.9625 -3.31322,11.425 -7.27398,23.25 -6.22403,18.58205 -7.4953,21.54229 -9.3669,21.81162 -2.82319,0.40627 -45.48144,-8.72413 -46.78652,-10.01399 -0.66391,-0.65616 -0.17801,-1.54445 1.44572,-2.64298 7.11623,-4.81448 7.09093,-3.79581 0.36557,-14.72305 -3.33372,-5.41655 -6.55596,-10.01316 -7.16054,-10.21469 -1.32372,-0.44123 -8.63893,10.8341 -20.62023,31.78309 -8.61685,15.06633 -11.20555,19.01804 -12.43551,18.98309 -0.32725,-0.009 -9.80434,-5.34971 -21.0602,-11.86759 z"
         id="path3350"
         inkscape:connector-curvature="0" />
      <path
         style="fill:#abe158"
         d="m 412.885,943.99659 c -6.28018,-7.24112 -13.1378,-15.12457 -15.23916,-17.51879 -2.26386,-2.57938 -3.68999,-5.14434 -3.5,-6.29492 0.43313,-2.62297 30.88935,-36.40972 31.89718,-35.38529 0.43846,0.44569 0.93812,2.83534 1.11034,5.31034 l 0.31313,4.5 12.21735,-0.0173 c 7.74614,-0.011 12.63204,-0.43204 13.35048,-1.15048 0.84417,-0.84417 0.50396,-2.24229 -1.33411,-5.48265 -1.35697,-2.39223 -7.98376,-13.95545 -14.72618,-25.69603 -11.93498,-20.78236 -12.20939,-21.39416 -10.38325,-23.14914 3.25215,-3.12543 40.23864,-23.99418 41.59996,-23.47179 1.24989,0.47963 15.94811,25.55704 21.13275,36.0557 7.0226,14.22045 8.29928,24.31231 4.19176,33.13471 -2.52156,5.41598 -18.46031,33.3829 -26.20869,45.98708 -3.93885,6.40728 -5.1231,7.54745 -10.63621,10.24037 -4.68042,2.28618 -8.65949,3.3025 -16.20386,4.13871 -5.5,0.60961 -10.675,1.44716 -11.5,1.86121 -0.84129,0.42223 -1.71957,2.65023 -2,5.07359 -0.275,2.37642 -0.98667,4.48043 -1.58149,4.67558 -0.59481,0.19515 -6.21981,-5.56974 -12.5,-12.81085 z m -77.44891,0.66248 c -8.13284,-1.48816 -13.88934,-4.18029 -17.55418,-8.20956 -2.21466,-2.43487 -26.23126,-43.1849 -31.39756,-53.27363 -2.85268,-5.57069 -1.71903,-15.66921 2.92963,-26.09713 5.434,-12.18962 5.50497,-13.21905 1.09904,-15.94206 -2.0018,-1.23719 -3.4873,-2.70645 -3.3011,-3.26504 0.42949,-1.28849 44.93589,-10.29185 46.98631,-9.50504 1.59162,0.61077 16.37767,44.46524 15.34138,45.50154 -0.304,0.304 -2.33312,-0.25012 -4.50915,-1.23137 -2.17603,-0.98126 -4.54312,-1.55592 -5.26019,-1.27704 -1.87683,0.72992 -12.46487,21.41667 -11.47172,22.41326 0.45763,0.45921 14.18263,1.05993 30.5,1.33493 l 29.66794,0.5 0,25 0,25 -23,0.16878 c -15.1472,0.11116 -25.40036,-0.27044 -30.0304,-1.11764 z m 1.04164,-120.37606 c -11.65343,-6.80656 -20.12302,-12.37761 -20.31075,-13.3598 -0.32361,-1.69319 12.87967,-25.5522 19.81974,-35.81528 6.23457,-9.21977 13.08821,-16.14142 18.45949,-18.64267 4.91598,-2.28922 5.65395,-2.33788 35.52028,-2.34198 18.1885,-0.003 32.02153,0.41834 34.26938,1.04258 4.7728,1.32543 14.86837,10.72525 20.23062,18.83637 4.29658,6.49916 5.69343,7.09127 10.66456,4.5206 1.68588,-0.8718 3.42089,-1.2093 3.85556,-0.75 1.04395,1.1031 -13.35248,44.30047 -15.13762,45.42136 -0.76037,0.47745 -2.0575,0.66581 -2.8825,0.41858 -0.825,-0.24722 -10.275,-2.28631 -21,-4.5313 -26.60873,-5.56982 -25.6908,-5.14741 -19.5,-8.97354 1.925,-1.18972 3.49164,-2.91392 3.48143,-3.83156 -0.0235,-2.11291 -11.08095,-20.36828 -12.65505,-20.89298 -1.55287,-0.51763 -6.94776,7.56476 -18.83951,28.22454 -11.36956,19.75256 -13.20107,22.52675 -14.80496,22.42508 -0.65005,-0.0412 -10.17685,-5.3287 -21.17067,-11.75 z"
         id="path3352"
         inkscape:connector-curvature="0" />
      <path
         style="fill:#9fe334"
         d="m 412.885,943.99659 c -6.28018,-7.24112 -13.1378,-15.12457 -15.23916,-17.51879 -2.21459,-2.52323 -3.68586,-5.14779 -3.5,-6.24354 0.43464,-2.56246 30.93991,-36.41049 31.91813,-35.41571 0.42694,0.43416 0.91717,2.81438 1.08939,5.28938 l 0.31313,4.5 11.5,0.29021 c 12.43898,0.31392 16.00007,-0.14442 15.99987,-2.05926 -8e-5,-0.67702 -2.23064,-4.7122 -4.95681,-8.96706 -2.72617,-4.25486 -9.52947,-15.66043 -15.11844,-25.34571 -9.11236,-15.79107 -10.00407,-17.7673 -8.63482,-19.13655 2.70527,-2.70527 40.89001,-24.14986 42.14457,-23.66844 1.38875,0.53291 15.75588,27.2883 20.48851,38.15501 1.74098,3.99751 3.891,10.20846 4.77782,13.80211 1.66008,6.7271 1.6609,6.71727 -1.59582,19.0035 -0.76645,2.89148 -14.95642,28.18107 -24.76481,44.13624 -3.93885,6.40728 -5.1231,7.54745 -10.63621,10.24037 -4.68042,2.28618 -8.65949,3.3025 -16.20386,4.13871 -5.5,0.60961 -10.675,1.44716 -11.5,1.86121 -0.84129,0.42223 -1.71957,2.65023 -2,5.07359 -0.275,2.37642 -0.98667,4.48043 -1.58149,4.67558 -0.59481,0.19515 -6.21981,-5.56974 -12.5,-12.81085 z m -77.44891,0.66248 c -8.13284,-1.48816 -13.88934,-4.18029 -17.55418,-8.20956 -2.18844,-2.40605 -26.22572,-43.16934 -31.27774,-53.04192 -3.32909,-6.50566 -1.51952,-17.62701 4.96243,-30.49846 1.85633,-3.68617 3.11106,-7.39031 2.78829,-8.23143 -0.32276,-0.84111 -2.15014,-2.49546 -4.06082,-3.67633 -1.91069,-1.18087 -3.10354,-2.47867 -2.65078,-2.88399 0.78365,-0.70154 12.8059,-3.53138 34.9044,-8.21592 5.54467,-1.17538 10.77728,-1.86994 11.62804,-1.54348 1.61236,0.61872 16.41314,44.46091 15.36388,45.51017 -0.304,0.304 -2.33312,-0.25012 -4.50915,-1.23137 -2.17603,-0.98126 -4.54312,-1.55228 -5.26019,-1.26894 -1.91348,0.75606 -12.08611,20.56197 -11.43391,22.26158 0.46494,1.2116 5.42995,1.49199 30.34301,1.71357 l 29.78712,0.26494 0,25 0,25 -23,0.16878 c -15.1472,0.11116 -25.40036,-0.27044 -30.0304,-1.11764 z m 1.5304,-120.06737 c -10.725,-6.24685 -19.91464,-12.00882 -20.42143,-12.80439 -1.82008,-2.8572 18.18996,-35.34501 28.35399,-46.03483 9.92535,-10.4388 8.60362,-10.14455 45.56744,-10.14455 30.85726,0 32.14372,0.077 36.02462,2.15534 4.41196,2.36278 10.71987,8.73872 17.32214,17.50894 2.34525,3.11535 4.87567,5.89896 5.62315,6.1858 0.74748,0.28683 3.05434,-0.34279 5.12636,-1.39916 2.07202,-1.05638 3.90897,-1.77901 4.08212,-1.60586 0.9139,0.9139 -12.54944,42.38313 -14.34202,44.17572 -0.85092,0.85091 -2.2872,1.31929 -3.19174,1.04083 -0.90455,-0.27845 -10.41963,-2.34308 -21.14463,-4.58807 -26.58284,-5.56441 -25.71803,-5.17231 -19.5,-8.84104 1.94877,-1.1498 3.49,-2.85561 3.47745,-3.84878 -0.028,-2.2147 -11.04274,-20.52543 -12.65092,-21.03069 -1.55721,-0.48924 -6.97332,7.63133 -18.83966,28.24697 -11.37321,19.75889 -13.20185,22.52821 -14.80496,22.42083 -0.65005,-0.0435 -9.95691,-5.19022 -20.68191,-11.43706 z"
         id="path3354"
         inkscape:connector-curvature="0" />
      <path
         style="fill:#8ab55e"
         d="m 412.885,943.99659 c -6.28018,-7.24112 -13.1378,-15.12457 -15.23916,-17.51879 -2.21459,-2.52323 -3.68586,-5.14779 -3.5,-6.24354 0.43464,-2.56246 30.93991,-36.41049 31.91813,-35.41571 0.42694,0.43416 0.91717,2.81438 1.08939,5.28938 l 0.31313,4.5 21.5,-0.11245 c 23.21921,-0.12145 30.45104,-1.08078 38.39084,-5.09269 6.05369,-3.05887 6.33043,-3.86723 -5.99565,17.51354 -17.78302,30.84635 -17.69497,30.7246 -24.69133,34.14202 -4.68042,2.28618 -8.65949,3.3025 -16.20386,4.13871 -5.5,0.60961 -10.675,1.44716 -11.5,1.86121 -0.84129,0.42223 -1.71957,2.65023 -2,5.07359 -0.275,2.37642 -0.98667,4.48043 -1.58149,4.67558 -0.59481,0.19515 -6.21981,-5.56974 -12.5,-12.81085 z m -77.44891,0.66248 c -8.13284,-1.48816 -13.88934,-4.18029 -17.55418,-8.20956 -2.18844,-2.40605 -26.22572,-43.16934 -31.27774,-53.04192 -3.32909,-6.50566 -1.51952,-17.62701 4.96243,-30.49846 1.85633,-3.68617 3.11106,-7.39031 2.78829,-8.23143 -0.32276,-0.84111 -2.14087,-2.48974 -4.04022,-3.6636 -1.89936,-1.17387 -3.25547,-2.33221 -3.01359,-2.57409 1.58608,-1.58608 44.79819,-10.87884 46.87739,-10.08098 1.60984,0.61775 16.40882,44.46143 15.36114,45.50912 -0.304,0.304 -2.33312,-0.25012 -4.50915,-1.23137 -2.17603,-0.98126 -4.54312,-1.55228 -5.26019,-1.26894 -1.91348,0.75606 -12.08611,20.56197 -11.43391,22.26158 0.46494,1.2116 5.42995,1.49199 30.34301,1.71357 l 29.78712,0.26494 0,25 0,25 -23,0.16878 c -15.1472,0.11116 -25.40036,-0.27044 -30.0304,-1.11764 z m 3.93493,-9.55114 c -1.97568,-2.75 -3.80301,-5 -4.06075,-5 -0.25773,0 0.756,2.25 2.25274,5 1.49673,2.75 3.32407,5 4.06075,5 0.81884,0 -0.0567,-1.94325 -2.25274,-5 z m -3.91008,1.99387 c -1.98964,-2.19852 -3.08052,-1.96353 -2.14937,0.463 0.32568,0.84872 1.35102,1.54313 2.27852,1.54313 1.53891,0 1.52762,-0.17542 -0.12915,-2.00613 z m -5.9314,-2.53798 c -3.11374,-4.75218 -7.56305,-12.54102 -7.56305,-13.23968 0,-0.38267 1.17053,0.56659 2.60119,2.10949 1.43065,1.54289 2.86089,2.54556 3.1783,2.22814 0.91168,-0.91167 -5.04486,-12.63163 -6.22245,-12.24316 -1.54,0.50804 -1.87411,13.50963 -0.43637,16.98065 1.21189,2.92575 6.13124,6.69778 8.74434,6.70493 1.07386,0.003 1.00946,-0.5389 -0.30196,-2.54037 z m 1.1434,-13.60861 c -2.43778,-4.041 -5.15099,-8.69728 -6.02935,-10.34728 -1.09484,-2.05664 -1.60961,-2.44297 -1.63706,-1.22856 -0.022,0.97429 1.0176,3.44929 2.31028,5.5 1.29268,2.05071 3.82557,6.10817 5.62865,9.01658 1.80307,2.90841 3.47665,5.08969 3.71906,4.84728 0.24241,-0.2424 -1.5538,-3.74701 -3.99158,-7.78802 z m 119.19137,-38.22655 c -1.3188,-1.3212 -7.51409,-11.26902 -13.7673,-22.10626 -10.19833,-17.67438 -11.21211,-19.86146 -9.84163,-21.23193 2.90909,-2.90909 40.93907,-24.13229 42.30415,-23.60846 1.28426,0.49281 11.48164,20.30396 12.83714,24.93959 0.81148,2.77515 -5.85191,12.88633 -8.49225,12.88633 -1.32358,0 -4.18013,3.98815 -10.02764,14 -11.3144,19.37201 -10.13588,18.00255 -13.01247,15.12073 z M 336.96649,824.5917 c -10.725,-6.24685 -19.91117,-12.00331 -20.41371,-12.79215 -0.64861,-1.01812 0.91788,-4.69291 5.39917,-12.66575 11.20393,-19.93338 21.31043,-32.69832 29.92234,-37.79319 5.69535,-3.3694 14.77002,-3.62677 20.66981,-0.58621 4.45087,2.29383 14.20192,13.3204 18.56726,20.99599 1.70311,2.9946 3.8499,5.39051 5.1399,5.73635 1.21838,0.32663 14.26856,0.60002 29.00041,0.60753 22.98822,0.0117 27.13459,-0.21528 29.25,-1.60135 1.51376,-0.99185 2.46482,-1.18478 2.46482,-0.5 0,0.61326 -0.47656,1.11501 -1.05902,1.11501 -0.58246,0 -0.78898,0.43692 -0.45895,0.97093 0.84042,1.35983 -9.25743,32.66161 -11.14566,34.54985 -0.85092,0.85091 -2.2872,1.31928 -3.19174,1.04083 -0.90455,-0.27845 -10.41963,-2.34308 -21.14463,-4.58807 -26.58284,-5.56441 -25.71803,-5.17231 -19.5,-8.84104 1.94877,-1.1498 3.49,-2.85561 3.47745,-3.84878 -0.028,-2.2147 -11.04274,-20.52543 -12.65092,-21.03069 -1.55721,-0.48924 -6.97332,7.63133 -18.83966,28.24697 -11.37321,19.75889 -13.20185,22.52821 -14.80496,22.42083 -0.65005,-0.0435 -9.95691,-5.19022 -20.68191,-11.43706 z"
         id="path3356"
         inkscape:connector-curvature="0" />
      <path
         style="fill:#6bad16"
         d="m 414.70428,944.85793 c -5.30164,-6.1875 -12.13963,-14.09684 -15.19554,-17.57632 -3.63781,-4.14203 -5.29484,-6.7899 -4.79923,-7.66896 1.3444,-2.38453 29.63701,-33.50472 30.46048,-33.50472 0.43808,0 0.7965,1.7449 0.7965,3.87756 0,6.53116 0.28216,6.59072 24.7476,5.22337 23.15297,-1.29399 29.56623,-2.24137 35.5024,-5.24446 2.32044,-1.17391 3.75,-1.46822 3.75,-0.77205 0,2.17372 -25.30826,44.97965 -28.35398,47.9574 -3.94525,3.85722 -13.62285,6.88892 -24.47898,7.66853 -9.59563,0.6891 -11.16704,1.72494 -11.16704,7.36108 0,2.16071 -0.36515,3.92857 -0.81144,3.92857 -0.44629,0 -5.14914,-5.0625 -10.45077,-11.25 z m -75.73779,-0.39942 c -1.375,-0.20738 -5.31025,-1.09546 -8.745,-1.97351 -9.75217,-2.49302 -12.0877,-5.3154 -29.27467,-35.37707 l -15.15068,-26.5 0.40664,-7.5 c 0.3222,-5.94244 1.19106,-9.26524 4.18375,-16 5.44901,-12.26246 5.49873,-12.80166 1.4828,-16.0793 -1.86453,-1.52175 -3.16793,-2.94169 -2.89645,-3.15542 1.08416,-0.85351 43.57847,-9.38198 44.74591,-8.98035 1.18842,0.40884 15.65255,43.14355 14.86804,43.92806 -0.205,0.205 -1.96254,-0.3854 -3.90564,-1.312 -1.9431,-0.9266 -4.20844,-1.4255 -5.03407,-1.10868 -1.66973,0.64074 -12.68063,20.54872 -12.68063,22.9269 0,2.28709 6.23861,2.78079 35.13957,2.78079 l 25.86043,0 0,24.5 0,24.5 -23.25,-0.13618 c -12.7875,-0.0749 -24.375,-0.30586 -25.75,-0.51324 z m 0.40453,-9.35058 c -1.97568,-2.75 -3.80301,-5 -4.06075,-5 -0.25773,0 0.756,2.25 2.25274,5 1.49673,2.75 3.32407,5 4.06075,5 0.81884,0 -0.0567,-1.94325 -2.25274,-5 z m -3.91008,1.99387 c -1.98964,-2.19852 -3.08052,-1.96353 -2.14937,0.463 0.32568,0.84872 1.35102,1.54313 2.27852,1.54313 1.53891,0 1.52762,-0.17542 -0.12915,-2.00613 z m -5.9314,-2.53798 c -3.11374,-4.75218 -7.56305,-12.54102 -7.56305,-13.23968 0,-0.38267 1.17053,0.56659 2.60119,2.10949 1.43065,1.54289 2.86089,2.54556 3.1783,2.22814 0.91168,-0.91167 -5.04486,-12.63163 -6.22245,-12.24316 -1.54,0.50804 -1.87411,13.50963 -0.43637,16.98065 1.21189,2.92575 6.13124,6.69778 8.74434,6.70493 1.07386,0.003 1.00946,-0.5389 -0.30196,-2.54037 z m 1.1434,-13.60861 c -2.43778,-4.041 -5.15099,-8.69728 -6.02935,-10.34728 -1.09484,-2.05664 -1.60961,-2.44297 -1.63706,-1.22856 -0.022,0.97429 1.0176,3.44929 2.31028,5.5 1.29268,2.05071 3.82557,6.10817 5.62865,9.01658 1.80307,2.90841 3.47665,5.08969 3.71906,4.84728 0.24241,-0.2424 -1.5538,-3.74701 -3.99158,-7.78802 z m 120.05919,-37.59674 c -0.84992,-0.9628 -6.83865,-10.89071 -13.30828,-22.06203 -10.04211,-17.34004 -11.55774,-20.5109 -10.36016,-21.67461 1.78006,-1.72971 39.47243,-23.5139 40.68523,-23.5139 1.03003,0 10.46814,16.68256 12.80778,22.63871 1.54981,3.94542 1.54749,3.95568 -2.12498,9.40551 -2.23607,3.31824 -4.40163,5.45578 -5.5273,5.45578 -1.32358,0 -4.18013,3.98815 -10.02764,14 -11.07287,18.95848 -10.25227,17.89424 -12.14465,15.75054 z M 336.96649,823.63088 c -10.725,-6.25961 -19.64258,-12.07285 -19.81684,-12.91834 -0.17426,-0.84547 3.14436,-7.51489 7.37471,-14.82092 18.34725,-31.68665 28.08357,-39.98409 43.13108,-36.75698 6.29864,1.35082 10.61039,4.91424 18.30959,15.13184 5.99521,7.95625 6.06842,8.13041 4.1635,9.90512 -2.46482,2.29633 -9.11641,12.91781 -21.2162,33.87875 -5.25479,9.10308 -10.20479,16.64343 -11,16.75634 -0.79521,0.1129 -10.22084,-4.91621 -20.94584,-11.17581 z m 83.18955,-5.3583 c -11.72075,-2.56556 -21.21731,-5.11465 -21.10347,-5.66465 0.11383,-0.55 1.49103,-1.78089 3.06045,-2.7353 1.56941,-0.95442 2.85347,-2.45091 2.85347,-3.32553 0,-0.87462 -1.73874,-4.59374 -3.86386,-8.2647 -2.12513,-3.67096 -4.33119,-7.57447 -4.90236,-8.67447 -1.02851,-1.98076 -0.76375,-1.99717 27.51921,-1.70535 18.90476,0.19506 28.91081,-0.0585 29.60236,-0.75 2.1761,-2.1761 2.48632,-0.87199 1.00034,4.20535 -4.22441,14.43406 -9.72993,30.331 -10.7308,30.98469 -1.37443,0.89767 1.69465,1.43068 -23.43534,-4.07004 z"
         id="path3358"
         inkscape:connector-curvature="0" />
      <path
         style="fill:#4c8e04"
         d="m 417.28348,947.25875 c -3.40065,-4.25303 -9.8438,-11.86203 -14.31811,-16.90889 -5.76004,-6.49711 -7.89625,-9.59231 -7.31699,-10.60171 1.4243,-2.48193 28.81035,-32.55749 28.98622,-31.83287 0.0925,0.38096 0.4422,2.3367 0.7772,4.3461 0.335,2.0094 1.24091,3.8959 2.01314,4.19223 0.77222,0.29633 11.44748,0.12395 23.7228,-0.38307 19.88879,-0.82149 29.30411,-2.01355 35.06875,-4.43998 0.9625,-0.40514 1.75,-0.33508 1.75,0.15568 0,2.2144 -24.45801,43.11431 -27.2298,45.53504 -4.24354,3.70607 -10.44137,5.64117 -22.2702,6.95325 -5.5,0.61007 -10.5625,1.55226 -11.25,2.09375 -0.6875,0.5415 -1.25,2.72944 -1.25,4.86209 0,2.46642 -0.45491,3.85638 -1.25,3.81936 -0.6875,-0.032 -4.03235,-3.53795 -7.43301,-7.79098 z m -62.31699,-3.13814 c -1.56663,-0.50967 -1.86868,-0.85054 -0.80902,-0.913 2.85749,-0.16844 3.03203,-1.9289 0.62064,-6.26014 -1.67494,-3.00845 -1.96734,-4.26966 -1.06162,-4.57912 1.90657,-0.65142 1.55932,-1.89974 -2.39008,-8.59216 -6.76845,-11.46938 -13.35992,-23.96086 -13.35992,-25.31832 0,-1.09728 4.68243,-1.34994 25.0181,-1.34994 l 25.0181,0 -0.2681,23.75 -0.2681,23.75 -15,0.163 c -8.25,0.0896 -16.125,-0.20299 -17.5,-0.65032 z m -22.65625,-1.0541 c -9.47544,-1.87464 -15.14141,-6.65493 -19.25068,-16.24145 -1.12707,-2.62935 -7.1717,-13.65385 -13.43251,-24.49889 -6.2608,-10.84503 -11.71278,-20.84324 -12.1155,-22.21824 -0.67522,-2.3054 3.62219,4.81058 18.26321,30.24166 3.08462,5.35792 5.87386,9.40792 6.19831,9 0.32445,-0.40791 1.41775,-3.21666 2.42956,-6.24166 1.01181,-3.025 3.1276,-8.58462 4.70176,-12.35471 1.57415,-3.77009 2.8621,-7.46882 2.8621,-8.21941 0,-0.75058 -2.3625,-5.45725 -5.25,-10.45927 -2.8875,-5.00201 -6.75882,-11.87828 -8.60293,-15.28059 -1.84411,-3.40231 -5.10661,-9.02451 -7.25,-12.49377 -2.14339,-3.46927 -3.89707,-7.37463 -3.89707,-8.67857 0,-2.46719 -2.34169,-5.51368 -4.23809,-5.51368 -2.31931,0 0.24065,-1.14296 6.85353,-3.05995 12.15746,-3.52429 33.68535,-8.0407 34.45192,-7.22778 0.92453,0.98042 13.97669,41.57701 13.51562,42.03808 -0.18445,0.18446 -1.97494,-0.44649 -3.97886,-1.40209 -3.17393,-1.51354 -3.82437,-1.55129 -5.04703,-0.29286 -2.1363,2.19881 -12.55709,22.38199 -12.55709,24.32082 0,0.9369 -0.8533,3.37607 -1.89623,5.42038 -3.40209,6.66864 -6.10377,16.41998 -6.10377,22.0307 0,10.63657 5.73644,16.36118 20.18892,20.14729 6.97802,1.82804 7.10608,1.9128 2.81108,1.86078 -2.475,-0.03 -6.37031,-0.42453 -8.65625,-0.87679 z m 112.36673,-70.6717 c -3.8694,-6.20579 -17.71048,-30.83142 -17.71048,-31.50995 0,-1.19408 40.01894,-23.88326 41.02662,-23.26048 1.38618,0.85671 5.97338,10.05299 5.97338,11.97526 0,0.85701 -4.57641,9.53447 -10.16981,19.28324 -5.5934,9.74878 -11.2545,19.6333 -12.58022,21.96561 -1.32572,2.33231 -2.80819,4.4864 -3.29437,4.78688 -0.48617,0.30047 -1.94648,-1.15778 -3.24512,-3.24056 z M 337.96649,823.52325 c -10.175,-5.84597 -19.01271,-11.14346 -19.63935,-11.77218 -2.12667,-2.13375 15.1476,-31.33926 25.02796,-42.31462 12.07013,-13.4078 26.80227,-12.45005 39.29719,2.55474 8.44419,10.1404 8.38188,9.52653 1.95159,19.22939 -3.05716,4.61304 -10.02313,16.03735 -15.47993,25.38735 -5.4568,9.35 -10.53706,17.12248 -11.28946,17.27218 -0.7524,0.1497 -9.693,-4.51088 -19.868,-10.35686 z m 82.333,-5.75339 c -10.54185,-2.28906 -19.4605,-4.45559 -19.81923,-4.8145 -0.35873,-0.35891 0.72892,-1.46843 2.417,-2.4656 3.37066,-1.9911 3.90231,-4.69631 1.53743,-7.82296 -3.30134,-4.36476 -2.78577,-4.47399 22.53259,-4.77424 18.87043,-0.22379 24.00063,-0.0135 24,0.98386 -4.3e-4,0.69766 -1.59833,6.21016 -3.55088,12.25 -3.12377,9.66279 -3.81426,10.97093 -5.75,10.89344 -1.20995,-0.0484 -10.82506,-1.96095 -21.36691,-4.25 z"
         id="path3360"
         inkscape:connector-curvature="0" />
      <path
         style="fill:#427901"
         d="m 419.96649,949.58224 c -2.475,-3.2332 -4.85425,-6.45255 -5.28721,-7.15412 -0.87386,-1.416 0.29501,-3.96016 7.26836,-15.82019 2.58707,-4.4 7.26715,-12.55975 10.40017,-18.13277 6.50907,-11.57835 6.11958,-11.36217 20.49368,-11.37482 8.2964,-0.007 21.21815,-1.16885 28.77599,-2.58671 l 3.60959,-0.67717 -1.9752,2.88574 c -2.25479,3.2942 -5.92684,9.52967 -16.25105,27.59576 -3.99487,6.99052 -8.24748,13.35483 -9.45024,14.14292 -4.0984,2.68537 -12.0204,4.7752 -20.32249,5.36108 -4.55849,0.3217 -9.03084,1.12797 -9.93856,1.7917 -0.90771,0.66374 -1.91423,3.15087 -2.23671,5.52696 l -0.58633,4.32015 -4.5,-5.87853 z m -92.29304,-8.00733 c -9.50528,-3.48855 -14.3162,-10.27504 -13.42249,-18.93432 0.28822,-2.79258 1.20781,-6.64236 2.04352,-8.55504 l 1.51948,-3.47762 -0.55504,6.14331 c -0.30527,3.37883 -0.24876,7.77595 0.12559,9.77138 0.95834,5.10842 6.06062,10.45629 13.08198,13.71168 4.32313,2.00439 5.30131,2.77498 3.5,2.75728 -1.375,-0.0135 -4.20687,-0.65101 -6.29304,-1.41667 z m 3.04304,-142.16993 c -2.6125,-0.22365 -4.75,-0.84694 -4.75,-1.38509 0,-1.65244 5.05815,-11.08846 9.33362,-17.41196 4.9938,-7.38591 13.21776,-16.21665 16.85309,-18.09655 4.14486,-2.14339 14.37867,-1.79226 19.46025,0.66769 3.96586,1.91984 11.0044,9.13547 16.13968,16.54575 l 2.15998,3.11689 -5.9063,8.4651 -5.90629,8.46511 -21.31702,0.0198 c -11.72435,0.0109 -23.45451,-0.16314 -26.06701,-0.38678 z"
         id="path3362"
         inkscape:connector-curvature="0" />
      <path
         style="fill:#385e00"
         d="m 327.11165,941.03798 c -1.29516,-0.51874 -3.66785,-1.87811 -5.27264,-3.02082 -3.3822,-2.40834 -7.36783,-9.48508 -5.86508,-10.41383 0.54591,-0.33739 0.99256,0.0536 0.99256,0.86886 0,2.26313 4.94393,7.64423 9.92612,10.80384 4.4948,2.85052 4.57644,3.5072 0.21904,1.76195 z m 16.425,-150.81653 c -0.366,-0.59219 -2.63432,-0.77482 -5.46281,-0.43983 -3.01174,0.3567 -5.0909,0.16194 -5.50996,-0.51612 -1.61922,-2.61995 11.57631,-21.2477 17.75767,-25.06799 4.34396,-2.68472 16.08033,-2.92587 21.32284,-0.43814 3.07726,1.46026 13.97715,13.09806 16.37571,17.48434 0.64451,1.17861 0.0923,2.74323 -1.97597,5.59835 l -2.87047,3.96257 -19.50557,0.21475 c -12.32249,0.13568 -19.73605,-0.15817 -20.13144,-0.79793 z"
         id="path3364"
         inkscape:connector-curvature="0" />
    </g>
    <g
       clip-path="url(#clipPath5195)"
       id="g3366"
       transform="matrix(-0.4051521,-0.51928424,0.51928424,-0.4051521,-98.614951,1539.863)"
       inkscape:export-filename="/home/fabbiocrux/Dropbox/Fabio_Cruz/Autres documents/Poster Inauguration FabLab/Figuras/concepto.png"
       inkscape:export-xdpi="90"
       inkscape:export-ydpi="90">
      <path
         inkscape:connector-curvature="0"
         id="path3368"
         d="m 419.33695,953.37002 c -2.12875,-2.60584 -9.15796,-10.71996 -15.62046,-18.03137 -6.4625,-7.3114 -11.75,-13.96788 -11.75,-14.79218 0,-1.37685 3.81883,-5.85738 24.87789,-29.18854 8.92585,-9.88888 11.12211,-10.53065 11.12211,-3.25 l 0,5 12,0 c 6.6,0 12,-0.30051 12,-0.66781 0,-1.03913 -8.34684,-16.23691 -18.63722,-33.93432 -5.14953,-8.85617 -9.36278,-16.96043 -9.36278,-18.00946 0,-2.21933 -1.15639,-1.44785 23.2017,-15.47876 10.41672,-6.00031 19.77386,-10.90965 20.79364,-10.90965 1.33098,0 4.14899,3.95887 9.98724,14.03051 16.35787,28.21917 21.37731,41.56622 19.19209,51.03312 -1.24488,5.3931 -27.53587,52.00028 -32.56304,57.72591 -1.60725,1.83056 -4.70008,4.23526 -6.87297,5.34379 -4.90215,2.50089 -15.59022,4.82627 -22.28866,4.84931 -6.1704,0.0212 -7.45,1.17498 -7.45,6.71736 0,3.86195 -0.24241,4.3 -2.37954,4.3 -1.62662,0 -3.6042,-1.49914 -6.25,-4.73791 z m -74.87046,-6.23218 c -14.46879,-1.29894 -22.52364,-4.12765 -27.58791,-9.68833 -3.12767,-3.43424 -30.68238,-51.04658 -32.52134,-56.19428 -0.71663,-2.00601 -1.32272,-4.79026 -1.34686,-6.1872 -0.073,-4.22445 2.73023,-13.54356 6.65993,-22.14034 l 3.71591,-8.12911 -2.40558,-1.59533 c -5.86968,-3.89263 -6.62719,-4.85867 -5.01415,-6.39449 0.825,-0.78551 11.99328,-3.5441 24.81839,-6.1302 18.4544,-3.72121 23.61992,-4.45175 24.76397,-3.50228 0.79507,0.65985 4.64712,11.15191 8.56011,23.31569 3.91299,12.16378 7.25201,22.36245 7.42005,22.66371 0.16803,0.30126 -0.0913,1.18983 -0.57634,1.97461 -0.74175,1.20018 -1.62781,1.06445 -5.57736,-0.8544 -2.58254,-1.25469 -5.03383,-1.91827 -5.44731,-1.47461 -1.36161,1.46097 -9.96151,17.94642 -9.96151,19.09557 0,0.80005 8.35369,1.20915 28.95147,1.4178 22.10516,0.22393 29.25855,0.6007 30.25,1.59328 1.62347,1.62531 1.90343,49.51584 0.29853,51.06571 -1.36603,1.3192 -33.89853,2.16085 -45,1.1642 z m -8.91254,-121.8357 c -10.9519,-6.43181 -20.34763,-12.39932 -20.8794,-13.26113 -0.73084,-1.18442 1.03271,-5.05994 7.22447,-15.87625 11.44953,-20.00107 16.65022,-27.69883 23.03702,-34.09803 9.16802,-9.18583 8.01591,-8.9588 45.4637,-8.9588 26.14019,0 33.31659,0.28646 36.0777,1.44013 4.71546,1.97024 12.81105,9.73773 18.30161,17.55987 2.50939,3.575 4.713,6.69737 4.89692,6.93861 0.18392,0.24123 2.37888,-0.55468 4.8777,-1.7687 4.99714,-2.4278 6.44242,-2.16873 6.35475,1.13911 -0.10218,3.8553 -14.55351,45.04339 -16.15942,46.05637 -1.08231,0.68271 -8.25382,-0.44731 -23.91421,-3.76815 -27.50323,-5.83216 -25.8683,-5.352 -25.8683,-7.59724 0,-1.02587 0.7875,-2.12798 1.75,-2.44914 0.9625,-0.32115 2.8345,-1.42022 4.16,-2.44237 l 2.40999,-1.85847 -5.87972,-9.6351 c -3.23385,-5.29931 -6.34335,-9.49746 -6.91,-9.32923 -0.88389,0.26241 -11.48232,17.5172 -26.03027,42.3786 -3.12153,5.33447 -4.54904,6.87836 -6.5,7.02993 -1.6259,0.12631 -9.46222,-3.89455 -22.41254,-11.5 z"
         style="fill:#cee7aa" />
      <path
         inkscape:connector-curvature="0"
         id="path3370"
         d="m 420.58798,953.55727 c -19.10987,-21.59475 -27.62149,-31.75443 -27.62149,-32.9697 0,-1.86423 31.04303,-36.47964 32.71487,-36.47964 0.7962,0 1.28513,1.30048 1.28513,3.41821 0,6.60557 -0.0492,6.58179 13.60699,6.58179 10.53738,0 12.39301,-0.23254 12.39301,-1.55302 0,-0.85416 -6.3,-12.48296 -14,-25.84179 -7.7,-13.35883 -14,-24.97987 -14,-25.82454 0,-0.84467 0.5625,-1.98635 1.25,-2.53708 2.95314,-2.36562 39.85824,-23.24357 41.0867,-23.24357 1.95566,0 3.74183,2.37984 9.38179,12.5 13.91178,24.96284 19.29684,38.02674 19.25777,46.71845 -0.0327,7.2774 -2.47534,12.7015 -17.34177,38.50899 -14.09479,24.46797 -17.27612,28.24039 -25.93936,30.75886 -4.44196,1.29131 -18.97442,3.4767 -23.31508,3.50611 -0.61597,0.004 -1.3526,2.07172 -1.63696,4.59455 -0.81398,7.22161 -2.08493,7.55398 -7.1216,1.86238 z m -79.21756,-7.46941 c -10.94668,-1.15469 -17.5774,-3.45796 -22.21268,-7.71587 -2.79985,-2.57191 -8.43707,-11.36076 -17.79886,-27.74974 -7.53566,-13.19212 -14.52184,-25.79212 -15.52484,-28 -3.26148,-7.17944 -1.9743,-15.00508 4.91515,-29.88251 l 3.64361,-7.86819 -2.09459,-1.63181 c -1.15202,-0.89749 -2.90324,-2.11054 -3.89158,-2.69565 -4.34367,-2.5715 -0.75615,-3.98775 22.48918,-8.87806 17.09495,-3.59641 23.45029,-4.57849 24.27727,-3.75151 1.99358,1.99358 15.80506,45.58176 14.77087,46.61595 -0.60954,0.60954 -2.41202,0.13948 -4.9631,-1.29431 -2.20327,-1.23831 -4.42106,-1.99491 -4.92843,-1.68133 -1.40145,0.86613 -11.08593,19.20106 -11.08593,20.98817 0,1.38384 3.34751,1.56493 28.92857,1.56493 24.96537,0 29.14386,0.21529 30.5,1.57143 2.35228,2.35228 2.35228,47.50486 0,49.85714 -1.32946,1.32947 -4.5245,1.55052 -20.75,1.43565 -10.54821,-0.0747 -22.3718,-0.47261 -26.27464,-0.88429 z M 337.0013,825.22343 c -11.25585,-6.51787 -20.87549,-12.50115 -21.37698,-13.29618 -0.65035,-1.03101 1.04193,-4.86834 5.90172,-13.38241 14.50813,-25.41745 24.46208,-38.1409 32.92017,-42.07958 4.9237,-2.29282 5.62208,-2.33798 36.3024,-2.34756 24.81663,-0.008 31.98639,0.28449 34.68961,1.41397 4.73737,1.9794 11.86845,8.75814 18.2268,17.32626 5.57992,7.51914 6.96973,8.22625 11.30147,5.75 3.38149,-1.93303 5.01453,-1.85018 4.9274,0.25 -0.0399,0.9625 -3.31322,11.425 -7.27398,23.25 -6.22403,18.58205 -7.4953,21.54229 -9.3669,21.81162 -2.82319,0.40627 -45.48144,-8.72413 -46.78652,-10.01399 -0.66391,-0.65616 -0.17801,-1.54445 1.44572,-2.64298 7.11623,-4.81448 7.09093,-3.79581 0.36557,-14.72305 -3.33372,-5.41655 -6.55596,-10.01316 -7.16054,-10.21469 -1.32372,-0.44123 -8.63893,10.8341 -20.62023,31.78309 -8.61685,15.06633 -11.20555,19.01804 -12.43551,18.98309 -0.32725,-0.009 -9.80434,-5.34971 -21.0602,-11.86759 z"
         style="fill:#b2cf94" />
      <path
         inkscape:connector-curvature="0"
         id="path3372"
         d="m 412.885,943.99659 c -6.28018,-7.24112 -13.1378,-15.12457 -15.23916,-17.51879 -2.26386,-2.57938 -3.68999,-5.14434 -3.5,-6.29492 0.43313,-2.62297 30.88935,-36.40972 31.89718,-35.38529 0.43846,0.44569 0.93812,2.83534 1.11034,5.31034 l 0.31313,4.5 12.21735,-0.0173 c 7.74614,-0.011 12.63204,-0.43204 13.35048,-1.15048 0.84417,-0.84417 0.50396,-2.24229 -1.33411,-5.48265 -1.35697,-2.39223 -7.98376,-13.95545 -14.72618,-25.69603 -11.93498,-20.78236 -12.20939,-21.39416 -10.38325,-23.14914 3.25215,-3.12543 40.23864,-23.99418 41.59996,-23.47179 1.24989,0.47963 15.94811,25.55704 21.13275,36.0557 7.0226,14.22045 8.29928,24.31231 4.19176,33.13471 -2.52156,5.41598 -18.46031,33.3829 -26.20869,45.98708 -3.93885,6.40728 -5.1231,7.54745 -10.63621,10.24037 -4.68042,2.28618 -8.65949,3.3025 -16.20386,4.13871 -5.5,0.60961 -10.675,1.44716 -11.5,1.86121 -0.84129,0.42223 -1.71957,2.65023 -2,5.07359 -0.275,2.37642 -0.98667,4.48043 -1.58149,4.67558 -0.59481,0.19515 -6.21981,-5.56974 -12.5,-12.81085 z m -77.44891,0.66248 c -8.13284,-1.48816 -13.88934,-4.18029 -17.55418,-8.20956 -2.21466,-2.43487 -26.23126,-43.1849 -31.39756,-53.27363 -2.85268,-5.57069 -1.71903,-15.66921 2.92963,-26.09713 5.434,-12.18962 5.50497,-13.21905 1.09904,-15.94206 -2.0018,-1.23719 -3.4873,-2.70645 -3.3011,-3.26504 0.42949,-1.28849 44.93589,-10.29185 46.98631,-9.50504 1.59162,0.61077 16.37767,44.46524 15.34138,45.50154 -0.304,0.304 -2.33312,-0.25012 -4.50915,-1.23137 -2.17603,-0.98126 -4.54312,-1.55592 -5.26019,-1.27704 -1.87683,0.72992 -12.46487,21.41667 -11.47172,22.41326 0.45763,0.45921 14.18263,1.05993 30.5,1.33493 l 29.66794,0.5 0,25 0,25 -23,0.16878 c -15.1472,0.11116 -25.40036,-0.27044 -30.0304,-1.11764 z m 1.04164,-120.37606 c -11.65343,-6.80656 -20.12302,-12.37761 -20.31075,-13.3598 -0.32361,-1.69319 12.87967,-25.5522 19.81974,-35.81528 6.23457,-9.21977 13.08821,-16.14142 18.45949,-18.64267 4.91598,-2.28922 5.65395,-2.33788 35.52028,-2.34198 18.1885,-0.003 32.02153,0.41834 34.26938,1.04258 4.7728,1.32543 14.86837,10.72525 20.23062,18.83637 4.29658,6.49916 5.69343,7.09127 10.66456,4.5206 1.68588,-0.8718 3.42089,-1.2093 3.85556,-0.75 1.04395,1.1031 -13.35248,44.30047 -15.13762,45.42136 -0.76037,0.47745 -2.0575,0.66581 -2.8825,0.41858 -0.825,-0.24722 -10.275,-2.28631 -21,-4.5313 -26.60873,-5.56982 -25.6908,-5.14741 -19.5,-8.97354 1.925,-1.18972 3.49164,-2.91392 3.48143,-3.83156 -0.0235,-2.11291 -11.08095,-20.36828 -12.65505,-20.89298 -1.55287,-0.51763 -6.94776,7.56476 -18.83951,28.22454 -11.36956,19.75256 -13.20107,22.52675 -14.80496,22.42508 -0.65005,-0.0412 -10.17685,-5.3287 -21.17067,-11.75 z"
         style="fill:#abe158" />
      <path
         inkscape:connector-curvature="0"
         id="path3374"
         d="m 412.885,943.99659 c -6.28018,-7.24112 -13.1378,-15.12457 -15.23916,-17.51879 -2.21459,-2.52323 -3.68586,-5.14779 -3.5,-6.24354 0.43464,-2.56246 30.93991,-36.41049 31.91813,-35.41571 0.42694,0.43416 0.91717,2.81438 1.08939,5.28938 l 0.31313,4.5 11.5,0.29021 c 12.43898,0.31392 16.00007,-0.14442 15.99987,-2.05926 -8e-5,-0.67702 -2.23064,-4.7122 -4.95681,-8.96706 -2.72617,-4.25486 -9.52947,-15.66043 -15.11844,-25.34571 -9.11236,-15.79107 -10.00407,-17.7673 -8.63482,-19.13655 2.70527,-2.70527 40.89001,-24.14986 42.14457,-23.66844 1.38875,0.53291 15.75588,27.2883 20.48851,38.15501 1.74098,3.99751 3.891,10.20846 4.77782,13.80211 1.66008,6.7271 1.6609,6.71727 -1.59582,19.0035 -0.76645,2.89148 -14.95642,28.18107 -24.76481,44.13624 -3.93885,6.40728 -5.1231,7.54745 -10.63621,10.24037 -4.68042,2.28618 -8.65949,3.3025 -16.20386,4.13871 -5.5,0.60961 -10.675,1.44716 -11.5,1.86121 -0.84129,0.42223 -1.71957,2.65023 -2,5.07359 -0.275,2.37642 -0.98667,4.48043 -1.58149,4.67558 -0.59481,0.19515 -6.21981,-5.56974 -12.5,-12.81085 z m -77.44891,0.66248 c -8.13284,-1.48816 -13.88934,-4.18029 -17.55418,-8.20956 -2.18844,-2.40605 -26.22572,-43.16934 -31.27774,-53.04192 -3.32909,-6.50566 -1.51952,-17.62701 4.96243,-30.49846 1.85633,-3.68617 3.11106,-7.39031 2.78829,-8.23143 -0.32276,-0.84111 -2.15014,-2.49546 -4.06082,-3.67633 -1.91069,-1.18087 -3.10354,-2.47867 -2.65078,-2.88399 0.78365,-0.70154 12.8059,-3.53138 34.9044,-8.21592 5.54467,-1.17538 10.77728,-1.86994 11.62804,-1.54348 1.61236,0.61872 16.41314,44.46091 15.36388,45.51017 -0.304,0.304 -2.33312,-0.25012 -4.50915,-1.23137 -2.17603,-0.98126 -4.54312,-1.55228 -5.26019,-1.26894 -1.91348,0.75606 -12.08611,20.56197 -11.43391,22.26158 0.46494,1.2116 5.42995,1.49199 30.34301,1.71357 l 29.78712,0.26494 0,25 0,25 -23,0.16878 c -15.1472,0.11116 -25.40036,-0.27044 -30.0304,-1.11764 z m 1.5304,-120.06737 c -10.725,-6.24685 -19.91464,-12.00882 -20.42143,-12.80439 -1.82008,-2.8572 18.18996,-35.34501 28.35399,-46.03483 9.92535,-10.4388 8.60362,-10.14455 45.56744,-10.14455 30.85726,0 32.14372,0.077 36.02462,2.15534 4.41196,2.36278 10.71987,8.73872 17.32214,17.50894 2.34525,3.11535 4.87567,5.89896 5.62315,6.1858 0.74748,0.28683 3.05434,-0.34279 5.12636,-1.39916 2.07202,-1.05638 3.90897,-1.77901 4.08212,-1.60586 0.9139,0.9139 -12.54944,42.38313 -14.34202,44.17572 -0.85092,0.85091 -2.2872,1.31929 -3.19174,1.04083 -0.90455,-0.27845 -10.41963,-2.34308 -21.14463,-4.58807 -26.58284,-5.56441 -25.71803,-5.17231 -19.5,-8.84104 1.94877,-1.1498 3.49,-2.85561 3.47745,-3.84878 -0.028,-2.2147 -11.04274,-20.52543 -12.65092,-21.03069 -1.55721,-0.48924 -6.97332,7.63133 -18.83966,28.24697 -11.37321,19.75889 -13.20185,22.52821 -14.80496,22.42083 -0.65005,-0.0435 -9.95691,-5.19022 -20.68191,-11.43706 z"
         style="fill:#9fe334" />
      <path
         inkscape:connector-curvature="0"
         id="path3376"
         d="m 412.885,943.99659 c -6.28018,-7.24112 -13.1378,-15.12457 -15.23916,-17.51879 -2.21459,-2.52323 -3.68586,-5.14779 -3.5,-6.24354 0.43464,-2.56246 30.93991,-36.41049 31.91813,-35.41571 0.42694,0.43416 0.91717,2.81438 1.08939,5.28938 l 0.31313,4.5 21.5,-0.11245 c 23.21921,-0.12145 30.45104,-1.08078 38.39084,-5.09269 6.05369,-3.05887 6.33043,-3.86723 -5.99565,17.51354 -17.78302,30.84635 -17.69497,30.7246 -24.69133,34.14202 -4.68042,2.28618 -8.65949,3.3025 -16.20386,4.13871 -5.5,0.60961 -10.675,1.44716 -11.5,1.86121 -0.84129,0.42223 -1.71957,2.65023 -2,5.07359 -0.275,2.37642 -0.98667,4.48043 -1.58149,4.67558 -0.59481,0.19515 -6.21981,-5.56974 -12.5,-12.81085 z m -77.44891,0.66248 c -8.13284,-1.48816 -13.88934,-4.18029 -17.55418,-8.20956 -2.18844,-2.40605 -26.22572,-43.16934 -31.27774,-53.04192 -3.32909,-6.50566 -1.51952,-17.62701 4.96243,-30.49846 1.85633,-3.68617 3.11106,-7.39031 2.78829,-8.23143 -0.32276,-0.84111 -2.14087,-2.48974 -4.04022,-3.6636 -1.89936,-1.17387 -3.25547,-2.33221 -3.01359,-2.57409 1.58608,-1.58608 44.79819,-10.87884 46.87739,-10.08098 1.60984,0.61775 16.40882,44.46143 15.36114,45.50912 -0.304,0.304 -2.33312,-0.25012 -4.50915,-1.23137 -2.17603,-0.98126 -4.54312,-1.55228 -5.26019,-1.26894 -1.91348,0.75606 -12.08611,20.56197 -11.43391,22.26158 0.46494,1.2116 5.42995,1.49199 30.34301,1.71357 l 29.78712,0.26494 0,25 0,25 -23,0.16878 c -15.1472,0.11116 -25.40036,-0.27044 -30.0304,-1.11764 z m 3.93493,-9.55114 c -1.97568,-2.75 -3.80301,-5 -4.06075,-5 -0.25773,0 0.756,2.25 2.25274,5 1.49673,2.75 3.32407,5 4.06075,5 0.81884,0 -0.0567,-1.94325 -2.25274,-5 z m -3.91008,1.99387 c -1.98964,-2.19852 -3.08052,-1.96353 -2.14937,0.463 0.32568,0.84872 1.35102,1.54313 2.27852,1.54313 1.53891,0 1.52762,-0.17542 -0.12915,-2.00613 z m -5.9314,-2.53798 c -3.11374,-4.75218 -7.56305,-12.54102 -7.56305,-13.23968 0,-0.38267 1.17053,0.56659 2.60119,2.10949 1.43065,1.54289 2.86089,2.54556 3.1783,2.22814 0.91168,-0.91167 -5.04486,-12.63163 -6.22245,-12.24316 -1.54,0.50804 -1.87411,13.50963 -0.43637,16.98065 1.21189,2.92575 6.13124,6.69778 8.74434,6.70493 1.07386,0.003 1.00946,-0.5389 -0.30196,-2.54037 z m 1.1434,-13.60861 c -2.43778,-4.041 -5.15099,-8.69728 -6.02935,-10.34728 -1.09484,-2.05664 -1.60961,-2.44297 -1.63706,-1.22856 -0.022,0.97429 1.0176,3.44929 2.31028,5.5 1.29268,2.05071 3.82557,6.10817 5.62865,9.01658 1.80307,2.90841 3.47665,5.08969 3.71906,4.84728 0.24241,-0.2424 -1.5538,-3.74701 -3.99158,-7.78802 z m 119.19137,-38.22655 c -1.3188,-1.3212 -7.51409,-11.26902 -13.7673,-22.10626 -10.19833,-17.67438 -11.21211,-19.86146 -9.84163,-21.23193 2.90909,-2.90909 40.93907,-24.13229 42.30415,-23.60846 1.28426,0.49281 11.48164,20.30396 12.83714,24.93959 0.81148,2.77515 -5.85191,12.88633 -8.49225,12.88633 -1.32358,0 -4.18013,3.98815 -10.02764,14 -11.3144,19.37201 -10.13588,18.00255 -13.01247,15.12073 z M 336.96649,824.5917 c -10.725,-6.24685 -19.91117,-12.00331 -20.41371,-12.79215 -0.64861,-1.01812 0.91788,-4.69291 5.39917,-12.66575 11.20393,-19.93338 21.31043,-32.69832 29.92234,-37.79319 5.69535,-3.3694 14.77002,-3.62677 20.66981,-0.58621 4.45087,2.29383 14.20192,13.3204 18.56726,20.99599 1.70311,2.9946 3.8499,5.39051 5.1399,5.73635 1.21838,0.32663 14.26856,0.60002 29.00041,0.60753 22.98822,0.0117 27.13459,-0.21528 29.25,-1.60135 1.51376,-0.99185 2.46482,-1.18478 2.46482,-0.5 0,0.61326 -0.47656,1.11501 -1.05902,1.11501 -0.58246,0 -0.78898,0.43692 -0.45895,0.97093 0.84042,1.35983 -9.25743,32.66161 -11.14566,34.54985 -0.85092,0.85091 -2.2872,1.31928 -3.19174,1.04083 -0.90455,-0.27845 -10.41963,-2.34308 -21.14463,-4.58807 -26.58284,-5.56441 -25.71803,-5.17231 -19.5,-8.84104 1.94877,-1.1498 3.49,-2.85561 3.47745,-3.84878 -0.028,-2.2147 -11.04274,-20.52543 -12.65092,-21.03069 -1.55721,-0.48924 -6.97332,7.63133 -18.83966,28.24697 -11.37321,19.75889 -13.20185,22.52821 -14.80496,22.42083 -0.65005,-0.0435 -9.95691,-5.19022 -20.68191,-11.43706 z"
         style="fill:#8ab55e" />
      <path
         inkscape:connector-curvature="0"
         id="path3378"
         d="m 414.70428,944.85793 c -5.30164,-6.1875 -12.13963,-14.09684 -15.19554,-17.57632 -3.63781,-4.14203 -5.29484,-6.7899 -4.79923,-7.66896 1.3444,-2.38453 29.63701,-33.50472 30.46048,-33.50472 0.43808,0 0.7965,1.7449 0.7965,3.87756 0,6.53116 0.28216,6.59072 24.7476,5.22337 23.15297,-1.29399 29.56623,-2.24137 35.5024,-5.24446 2.32044,-1.17391 3.75,-1.46822 3.75,-0.77205 0,2.17372 -25.30826,44.97965 -28.35398,47.9574 -3.94525,3.85722 -13.62285,6.88892 -24.47898,7.66853 -9.59563,0.6891 -11.16704,1.72494 -11.16704,7.36108 0,2.16071 -0.36515,3.92857 -0.81144,3.92857 -0.44629,0 -5.14914,-5.0625 -10.45077,-11.25 z m -75.73779,-0.39942 c -1.375,-0.20738 -5.31025,-1.09546 -8.745,-1.97351 -9.75217,-2.49302 -12.0877,-5.3154 -29.27467,-35.37707 l -15.15068,-26.5 0.40664,-7.5 c 0.3222,-5.94244 1.19106,-9.26524 4.18375,-16 5.44901,-12.26246 5.49873,-12.80166 1.4828,-16.0793 -1.86453,-1.52175 -3.16793,-2.94169 -2.89645,-3.15542 1.08416,-0.85351 43.57847,-9.38198 44.74591,-8.98035 1.18842,0.40884 15.65255,43.14355 14.86804,43.92806 -0.205,0.205 -1.96254,-0.3854 -3.90564,-1.312 -1.9431,-0.9266 -4.20844,-1.4255 -5.03407,-1.10868 -1.66973,0.64074 -12.68063,20.54872 -12.68063,22.9269 0,2.28709 6.23861,2.78079 35.13957,2.78079 l 25.86043,0 0,24.5 0,24.5 -23.25,-0.13618 c -12.7875,-0.0749 -24.375,-0.30586 -25.75,-0.51324 z m 0.40453,-9.35058 c -1.97568,-2.75 -3.80301,-5 -4.06075,-5 -0.25773,0 0.756,2.25 2.25274,5 1.49673,2.75 3.32407,5 4.06075,5 0.81884,0 -0.0567,-1.94325 -2.25274,-5 z m -3.91008,1.99387 c -1.98964,-2.19852 -3.08052,-1.96353 -2.14937,0.463 0.32568,0.84872 1.35102,1.54313 2.27852,1.54313 1.53891,0 1.52762,-0.17542 -0.12915,-2.00613 z m -5.9314,-2.53798 c -3.11374,-4.75218 -7.56305,-12.54102 -7.56305,-13.23968 0,-0.38267 1.17053,0.56659 2.60119,2.10949 1.43065,1.54289 2.86089,2.54556 3.1783,2.22814 0.91168,-0.91167 -5.04486,-12.63163 -6.22245,-12.24316 -1.54,0.50804 -1.87411,13.50963 -0.43637,16.98065 1.21189,2.92575 6.13124,6.69778 8.74434,6.70493 1.07386,0.003 1.00946,-0.5389 -0.30196,-2.54037 z m 1.1434,-13.60861 c -2.43778,-4.041 -5.15099,-8.69728 -6.02935,-10.34728 -1.09484,-2.05664 -1.60961,-2.44297 -1.63706,-1.22856 -0.022,0.97429 1.0176,3.44929 2.31028,5.5 1.29268,2.05071 3.82557,6.10817 5.62865,9.01658 1.80307,2.90841 3.47665,5.08969 3.71906,4.84728 0.24241,-0.2424 -1.5538,-3.74701 -3.99158,-7.78802 z m 120.05919,-37.59674 c -0.84992,-0.9628 -6.83865,-10.89071 -13.30828,-22.06203 -10.04211,-17.34004 -11.55774,-20.5109 -10.36016,-21.67461 1.78006,-1.72971 39.47243,-23.5139 40.68523,-23.5139 1.03003,0 10.46814,16.68256 12.80778,22.63871 1.54981,3.94542 1.54749,3.95568 -2.12498,9.40551 -2.23607,3.31824 -4.40163,5.45578 -5.5273,5.45578 -1.32358,0 -4.18013,3.98815 -10.02764,14 -11.07287,18.95848 -10.25227,17.89424 -12.14465,15.75054 z M 336.96649,823.63088 c -10.725,-6.25961 -19.64258,-12.07285 -19.81684,-12.91834 -0.17426,-0.84547 3.14436,-7.51489 7.37471,-14.82092 18.34725,-31.68665 28.08357,-39.98409 43.13108,-36.75698 6.29864,1.35082 10.61039,4.91424 18.30959,15.13184 5.99521,7.95625 6.06842,8.13041 4.1635,9.90512 -2.46482,2.29633 -9.11641,12.91781 -21.2162,33.87875 -5.25479,9.10308 -10.20479,16.64343 -11,16.75634 -0.79521,0.1129 -10.22084,-4.91621 -20.94584,-11.17581 z m 83.18955,-5.3583 c -11.72075,-2.56556 -21.21731,-5.11465 -21.10347,-5.66465 0.11383,-0.55 1.49103,-1.78089 3.06045,-2.7353 1.56941,-0.95442 2.85347,-2.45091 2.85347,-3.32553 0,-0.87462 -1.73874,-4.59374 -3.86386,-8.2647 -2.12513,-3.67096 -4.33119,-7.57447 -4.90236,-8.67447 -1.02851,-1.98076 -0.76375,-1.99717 27.51921,-1.70535 18.90476,0.19506 28.91081,-0.0585 29.60236,-0.75 2.1761,-2.1761 2.48632,-0.87199 1.00034,4.20535 -4.22441,14.43406 -9.72993,30.331 -10.7308,30.98469 -1.37443,0.89767 1.69465,1.43068 -23.43534,-4.07004 z"
         style="fill:#6bad16" />
      <path
         inkscape:connector-curvature="0"
         id="path3380"
         d="m 417.28348,947.25875 c -3.40065,-4.25303 -9.8438,-11.86203 -14.31811,-16.90889 -5.76004,-6.49711 -7.89625,-9.59231 -7.31699,-10.60171 1.4243,-2.48193 28.81035,-32.55749 28.98622,-31.83287 0.0925,0.38096 0.4422,2.3367 0.7772,4.3461 0.335,2.0094 1.24091,3.8959 2.01314,4.19223 0.77222,0.29633 11.44748,0.12395 23.7228,-0.38307 19.88879,-0.82149 29.30411,-2.01355 35.06875,-4.43998 0.9625,-0.40514 1.75,-0.33508 1.75,0.15568 0,2.2144 -24.45801,43.11431 -27.2298,45.53504 -4.24354,3.70607 -10.44137,5.64117 -22.2702,6.95325 -5.5,0.61007 -10.5625,1.55226 -11.25,2.09375 -0.6875,0.5415 -1.25,2.72944 -1.25,4.86209 0,2.46642 -0.45491,3.85638 -1.25,3.81936 -0.6875,-0.032 -4.03235,-3.53795 -7.43301,-7.79098 z m -62.31699,-3.13814 c -1.56663,-0.50967 -1.86868,-0.85054 -0.80902,-0.913 2.85749,-0.16844 3.03203,-1.9289 0.62064,-6.26014 -1.67494,-3.00845 -1.96734,-4.26966 -1.06162,-4.57912 1.90657,-0.65142 1.55932,-1.89974 -2.39008,-8.59216 -6.76845,-11.46938 -13.35992,-23.96086 -13.35992,-25.31832 0,-1.09728 4.68243,-1.34994 25.0181,-1.34994 l 25.0181,0 -0.2681,23.75 -0.2681,23.75 -15,0.163 c -8.25,0.0896 -16.125,-0.20299 -17.5,-0.65032 z m -22.65625,-1.0541 c -9.47544,-1.87464 -15.14141,-6.65493 -19.25068,-16.24145 -1.12707,-2.62935 -7.1717,-13.65385 -13.43251,-24.49889 -6.2608,-10.84503 -11.71278,-20.84324 -12.1155,-22.21824 -0.67522,-2.3054 3.62219,4.81058 18.26321,30.24166 3.08462,5.35792 5.87386,9.40792 6.19831,9 0.32445,-0.40791 1.41775,-3.21666 2.42956,-6.24166 1.01181,-3.025 3.1276,-8.58462 4.70176,-12.35471 1.57415,-3.77009 2.8621,-7.46882 2.8621,-8.21941 0,-0.75058 -2.3625,-5.45725 -5.25,-10.45927 -2.8875,-5.00201 -6.75882,-11.87828 -8.60293,-15.28059 -1.84411,-3.40231 -5.10661,-9.02451 -7.25,-12.49377 -2.14339,-3.46927 -3.89707,-7.37463 -3.89707,-8.67857 0,-2.46719 -2.34169,-5.51368 -4.23809,-5.51368 -2.31931,0 0.24065,-1.14296 6.85353,-3.05995 12.15746,-3.52429 33.68535,-8.0407 34.45192,-7.22778 0.92453,0.98042 13.97669,41.57701 13.51562,42.03808 -0.18445,0.18446 -1.97494,-0.44649 -3.97886,-1.40209 -3.17393,-1.51354 -3.82437,-1.55129 -5.04703,-0.29286 -2.1363,2.19881 -12.55709,22.38199 -12.55709,24.32082 0,0.9369 -0.8533,3.37607 -1.89623,5.42038 -3.40209,6.66864 -6.10377,16.41998 -6.10377,22.0307 0,10.63657 5.73644,16.36118 20.18892,20.14729 6.97802,1.82804 7.10608,1.9128 2.81108,1.86078 -2.475,-0.03 -6.37031,-0.42453 -8.65625,-0.87679 z m 112.36673,-70.6717 c -3.8694,-6.20579 -17.71048,-30.83142 -17.71048,-31.50995 0,-1.19408 40.01894,-23.88326 41.02662,-23.26048 1.38618,0.85671 5.97338,10.05299 5.97338,11.97526 0,0.85701 -4.57641,9.53447 -10.16981,19.28324 -5.5934,9.74878 -11.2545,19.6333 -12.58022,21.96561 -1.32572,2.33231 -2.80819,4.4864 -3.29437,4.78688 -0.48617,0.30047 -1.94648,-1.15778 -3.24512,-3.24056 z M 337.96649,823.52325 c -10.175,-5.84597 -19.01271,-11.14346 -19.63935,-11.77218 -2.12667,-2.13375 15.1476,-31.33926 25.02796,-42.31462 12.07013,-13.4078 26.80227,-12.45005 39.29719,2.55474 8.44419,10.1404 8.38188,9.52653 1.95159,19.22939 -3.05716,4.61304 -10.02313,16.03735 -15.47993,25.38735 -5.4568,9.35 -10.53706,17.12248 -11.28946,17.27218 -0.7524,0.1497 -9.693,-4.51088 -19.868,-10.35686 z m 82.333,-5.75339 c -10.54185,-2.28906 -19.4605,-4.45559 -19.81923,-4.8145 -0.35873,-0.35891 0.72892,-1.46843 2.417,-2.4656 3.37066,-1.9911 3.90231,-4.69631 1.53743,-7.82296 -3.30134,-4.36476 -2.78577,-4.47399 22.53259,-4.77424 18.87043,-0.22379 24.00063,-0.0135 24,0.98386 -4.3e-4,0.69766 -1.59833,6.21016 -3.55088,12.25 -3.12377,9.66279 -3.81426,10.97093 -5.75,10.89344 -1.20995,-0.0484 -10.82506,-1.96095 -21.36691,-4.25 z"
         style="fill:#4c8e04" />
      <path
         inkscape:connector-curvature="0"
         id="path3382"
         d="m 419.96649,949.58224 c -2.475,-3.2332 -4.85425,-6.45255 -5.28721,-7.15412 -0.87386,-1.416 0.29501,-3.96016 7.26836,-15.82019 2.58707,-4.4 7.26715,-12.55975 10.40017,-18.13277 6.50907,-11.57835 6.11958,-11.36217 20.49368,-11.37482 8.2964,-0.007 21.21815,-1.16885 28.77599,-2.58671 l 3.60959,-0.67717 -1.9752,2.88574 c -2.25479,3.2942 -5.92684,9.52967 -16.25105,27.59576 -3.99487,6.99052 -8.24748,13.35483 -9.45024,14.14292 -4.0984,2.68537 -12.0204,4.7752 -20.32249,5.36108 -4.55849,0.3217 -9.03084,1.12797 -9.93856,1.7917 -0.90771,0.66374 -1.91423,3.15087 -2.23671,5.52696 l -0.58633,4.32015 -4.5,-5.87853 z m -92.29304,-8.00733 c -9.50528,-3.48855 -14.3162,-10.27504 -13.42249,-18.93432 0.28822,-2.79258 1.20781,-6.64236 2.04352,-8.55504 l 1.51948,-3.47762 -0.55504,6.14331 c -0.30527,3.37883 -0.24876,7.77595 0.12559,9.77138 0.95834,5.10842 6.06062,10.45629 13.08198,13.71168 4.32313,2.00439 5.30131,2.77498 3.5,2.75728 -1.375,-0.0135 -4.20687,-0.65101 -6.29304,-1.41667 z m 3.04304,-142.16993 c -2.6125,-0.22365 -4.75,-0.84694 -4.75,-1.38509 0,-1.65244 5.05815,-11.08846 9.33362,-17.41196 4.9938,-7.38591 13.21776,-16.21665 16.85309,-18.09655 4.14486,-2.14339 14.37867,-1.79226 19.46025,0.66769 3.96586,1.91984 11.0044,9.13547 16.13968,16.54575 l 2.15998,3.11689 -5.9063,8.4651 -5.90629,8.46511 -21.31702,0.0198 c -11.72435,0.0109 -23.45451,-0.16314 -26.06701,-0.38678 z"
         style="fill:#427901" />
      <path
         inkscape:connector-curvature="0"
         id="path3384"
         d="m 327.11165,941.03798 c -1.29516,-0.51874 -3.66785,-1.87811 -5.27264,-3.02082 -3.3822,-2.40834 -7.36783,-9.48508 -5.86508,-10.41383 0.54591,-0.33739 0.99256,0.0536 0.99256,0.86886 0,2.26313 4.94393,7.64423 9.92612,10.80384 4.4948,2.85052 4.57644,3.5072 0.21904,1.76195 z m 16.425,-150.81653 c -0.366,-0.59219 -2.63432,-0.77482 -5.46281,-0.43983 -3.01174,0.3567 -5.0909,0.16194 -5.50996,-0.51612 -1.61922,-2.61995 11.57631,-21.2477 17.75767,-25.06799 4.34396,-2.68472 16.08033,-2.92587 21.32284,-0.43814 3.07726,1.46026 13.97715,13.09806 16.37571,17.48434 0.64451,1.17861 0.0923,2.74323 -1.97597,5.59835 l -2.87047,3.96257 -19.50557,0.21475 c -12.32249,0.13568 -19.73605,-0.15817 -20.13144,-0.79793 z"
         style="fill:#385e00" />
    </g>
    <g
       transform="matrix(1.4925372,0,0,1.4925372,-419.04044,433.35539)"
       id="g3606">
      <g
         id="g3608">
        <circle
           r="32.237774"
           cy="351.75458"
           cx="387.95712"
           id="circle3610"
           style="opacity:1;fill:#ffffff;fill-opacity:1;stroke:#ffffff;stroke-width:2.52445245;stroke-miterlimit:4;stroke-dasharray:none;stroke-dashoffset:0;stroke-opacity:1" />
        <g
           id="g3612"
           transform="matrix(0.12251412,0,0,0.12251412,454.39932,340.46479)">
          <g
             transform="translate(-844.58259,-188.52516)"
             id="g3614">
            <path
               d="m 236.824,493.146 0,-65.203 c 2.34,-0.895 4.623,-1.963 6.815,-3.257 31.087,-18.327 34.355,-70.395 7.293,-116.288 -27.059,-45.895 -74.196,-68.24 -105.282,-49.912 -31.087,18.329 -34.354,70.394 -7.297,116.288 4.366,7.403 9.258,14.182 14.517,20.287 l 0,48.439 -67.002,-38.344 0,-240.154 -23.485,-15.503 c -21.394,38.979 -33.561,83.741 -33.561,131.343 0,147.904 117.359,268.317 264.08,273.177 l 0.025,-28.178 -56.103,-32.695 z"
               id="path3616"
               inkscape:connector-curvature="0"
               style="fill:#0e9a48" />
            <path
               d="m 159.006,111.537 40.952,24.27 c -0.807,6.729 -0.833,14.137 -0.807,16.684 0.375,36.085 49.245,63.517 102.52,62.965 53.275,-0.552 91.219,-32.827 90.95,-64.58 -0.304,-36.084 -35.004,-64.336 -88.259,-65.924 -18.029,-0.538 -35.408,3.062 -43.322,4.574 L 231.172,70.42 302.209,29.889 511.621,151.614 535.638,138.431 C 512.533,100.441 479.811,67.564 438.557,43.812 310.379,-29.985 147.468,11.642 70.052,136.37 l 23.821,15.042 65.133,-39.875 z"
               id="path3618"
               inkscape:connector-curvature="0"
               style="fill:#cb2026" />
            <path
               d="m 518.687,243.843 -44.532,23.277 c -1.614,-0.27 -11.499,-9.522 -13.723,-10.764 -31.526,-17.563 -77.938,5.659 -103.867,52.201 -25.93,46.54 -23.719,99.753 7.805,117.32 31.527,17.562 78.47,-3.509 104.403,-50.049 4.182,-7.508 9.767,-24.938 12.378,-32.559 l 37.938,-21.932 -0.225,83.273 -208.851,121.97 0.101,27.481 c 44.448,-1.233 89.223,-13.354 130.301,-37.406 C 568.045,441.919 612.652,279.8 542.709,150.734 l -24.022,13.191 0,79.918 z"
               id="path3620"
               inkscape:connector-curvature="0"
               style="fill:#35469d" />
          </g>
          <path
             d="M -459.49759,355.24988"
             id="path3622"
             inkscape:connector-curvature="0"
             style="fill:none;stroke:#010101" />
        </g>
      </g>
    </g>
  </g>
</svg>
