<?xml version="1.0" encoding="UTF-8" standalone="no"?>
<!-- Created with Inkscape (http://www.inkscape.org/) -->

<svg
   version="1.1"
   id="svg1"
   width="760.50134"
   height="377.95334"
   viewBox="0 0 760.50134 377.95334"
   sodipodi:docname="Lorraine INP ENSGSI (couleur, CMJN).ai"
   xmlns:inkscape="http://www.inkscape.org/namespaces/inkscape"
   xmlns:sodipodi="http://sodipodi.sourceforge.net/DTD/sodipodi-0.dtd"
   xmlns="http://www.w3.org/2000/svg"
   xmlns:svg="http://www.w3.org/2000/svg">
  <defs
     id="defs1">
    <clipPath
       clipPathUnits="userSpaceOnUse"
       id="clipPath2">
      <path
         d="M 0,283.465 H 570.376 V 0 H 0 Z"
         transform="translate(-212.15011,-172.32931)"
         id="path2" />
    </clipPath>
    <clipPath
       clipPathUnits="userSpaceOnUse"
       id="clipPath4">
      <path
         d="M 0,283.465 H 570.376 V 0 H 0 Z"
         transform="translate(-36.350001,-79.125702)"
         id="path4" />
    </clipPath>
    <clipPath
       clipPathUnits="userSpaceOnUse"
       id="clipPath6">
      <path
         d="M 0,283.465 H 570.376 V 0 H 0 Z"
         transform="translate(-36.374901,-183.3728)"
         id="path6" />
    </clipPath>
    <clipPath
       clipPathUnits="userSpaceOnUse"
       id="clipPath8">
      <path
         d="M 0,283.465 H 570.376 V 0 H 0 Z"
         transform="translate(-132.6924,-138.3466)"
         id="path8" />
    </clipPath>
    <clipPath
       clipPathUnits="userSpaceOnUse"
       id="clipPath10">
      <path
         d="M 0,283.465 H 570.376 V 0 H 0 Z"
         transform="translate(-93.789205,-113.344)"
         id="path10" />
    </clipPath>
    <clipPath
       clipPathUnits="userSpaceOnUse"
       id="clipPath12">
      <path
         d="M 0,283.465 H 570.376 V 0 H 0 Z"
         transform="translate(-246.77511,-188.2775)"
         id="path12" />
    </clipPath>
    <clipPath
       clipPathUnits="userSpaceOnUse"
       id="clipPath14">
      <path
         d="M 0,283.465 H 570.376 V 0 H 0 Z"
         transform="translate(-223.58901,-203.88221)"
         id="path14" />
    </clipPath>
    <clipPath
       clipPathUnits="userSpaceOnUse"
       id="clipPath16">
      <path
         d="M 0,283.465 H 570.376 V 0 H 0 Z"
         id="path16" />
    </clipPath>
    <clipPath
       clipPathUnits="userSpaceOnUse"
       id="clipPath18">
      <path
         d="M 0,283.465 H 570.376 V 0 H 0 Z"
         transform="translate(-175.5301,-191.8856)"
         id="path18" />
    </clipPath>
    <clipPath
       clipPathUnits="userSpaceOnUse"
       id="clipPath20">
      <path
         d="M 0,283.465 H 570.376 V 0 H 0 Z"
         transform="translate(-150.60921,-195.69091)"
         id="path20" />
    </clipPath>
    <clipPath
       clipPathUnits="userSpaceOnUse"
       id="clipPath22">
      <path
         d="M 0,283.465 H 570.376 V 0 H 0 Z"
         transform="translate(-127.35831,-195.8968)"
         id="path22" />
    </clipPath>
    <clipPath
       clipPathUnits="userSpaceOnUse"
       id="clipPath24">
      <path
         d="M 0,283.465 H 570.376 V 0 H 0 Z"
         transform="translate(-102.8929,-189.6194)"
         id="path24" />
    </clipPath>
    <clipPath
       clipPathUnits="userSpaceOnUse"
       id="clipPath26">
      <path
         d="M 0,283.465 H 570.376 V 0 H 0 Z"
         transform="translate(-75.585399,-203.80361)"
         id="path26" />
    </clipPath>
    <clipPath
       clipPathUnits="userSpaceOnUse"
       id="clipPath29">
      <path
         d="M 0,283.465 H 570.376 V 0 H 0 Z"
         transform="translate(-325.79501,-141.4349)"
         id="path29" />
    </clipPath>
    <clipPath
       clipPathUnits="userSpaceOnUse"
       id="clipPath31">
      <path
         d="M 0,283.465 H 570.376 V 0 H 0 Z"
         transform="translate(-375.69211,-141.5822)"
         id="path31" />
    </clipPath>
    <clipPath
       clipPathUnits="userSpaceOnUse"
       id="clipPath33">
      <path
         d="M 0,283.465 H 570.376 V 0 H 0 Z"
         transform="translate(-449.58241,-147.3788)"
         id="path33" />
    </clipPath>
    <clipPath
       clipPathUnits="userSpaceOnUse"
       id="clipPath35">
      <path
         d="M 0,283.465 H 570.376 V 0 H 0 Z"
         transform="translate(-475.48311,-141.5822)"
         id="path35" />
    </clipPath>
    <clipPath
       clipPathUnits="userSpaceOnUse"
       id="clipPath37">
      <path
         d="M 0,283.465 H 570.376 V 0 H 0 Z"
         id="path37" />
    </clipPath>
    <clipPath
       clipPathUnits="userSpaceOnUse"
       id="clipPath39">
      <path
         d="M 0,283.465 H 570.376 V 0 H 0 Z"
         transform="translate(-306.37961,-31.811103)"
         id="path39" />
    </clipPath>
    <clipPath
       clipPathUnits="userSpaceOnUse"
       id="clipPath41">
      <path
         d="M 0,283.465 H 570.376 V 0 H 0 Z"
         transform="translate(-318.28741,-42.614501)"
         id="path41" />
    </clipPath>
    <clipPath
       clipPathUnits="userSpaceOnUse"
       id="clipPath43">
      <path
         d="M 0,283.465 H 570.376 V 0 H 0 Z"
         transform="translate(-362.52521,-31.811103)"
         id="path43" />
    </clipPath>
    <clipPath
       clipPathUnits="userSpaceOnUse"
       id="clipPath45">
      <path
         d="M 0,283.465 H 570.376 V 0 H 0 Z"
         transform="translate(-390.87921,-41.088401)"
         id="path45" />
    </clipPath>
    <clipPath
       clipPathUnits="userSpaceOnUse"
       id="clipPath47">
      <path
         d="M 0,283.465 H 570.376 V 0 H 0 Z"
         transform="translate(-405.05611,-46.369601)"
         id="path47" />
    </clipPath>
    <clipPath
       clipPathUnits="userSpaceOnUse"
       id="clipPath48">
      <path
         d="M 0,240.211 H 561.015 V 42.8983 H 0 Z"
         transform="translate(-247.22031,-155.2504)"
         id="path48" />
    </clipPath>
    <clipPath
       clipPathUnits="userSpaceOnUse"
       id="clipPath49">
      <path
         d="M 0,240.211 H 561.015 V 42.8983 H 0 Z"
         transform="translate(-524.77111,-155.2504)"
         id="path49" />
    </clipPath>
    <clipPath
       clipPathUnits="userSpaceOnUse"
       id="clipPath50">
      <path
         d="M 0,240.211 H 561.015 V 42.8983 H 0 Z"
         transform="translate(0,-155.2504)"
         id="path50" />
    </clipPath>
    <clipPath
       clipPathUnits="userSpaceOnUse"
       id="clipPath51">
      <path
         d="M 0,240.211 H 561.015 V 42.8983 H 0 Z"
         transform="translate(-127.02201,-203.96701)"
         id="path51" />
    </clipPath>
    <clipPath
       clipPathUnits="userSpaceOnUse"
       id="clipPath52">
      <path
         d="M 0,240.211 H 561.015 V 42.8983 H 0 Z"
         transform="translate(-127.02201,-42.898301)"
         id="path52" />
    </clipPath>
    <clipPath
       clipPathUnits="userSpaceOnUse"
       id="clipPath58">
      <path
         d="M 0,283.465 H 570.376 V 0 H 0 Z"
         transform="matrix(1.3333333,0,0,-1.3333333,0,377.95333)"
         id="path58" />
    </clipPath>
  </defs>
  <sodipodi:namedview
     id="namedview1"
     pagecolor="#ffffff"
     bordercolor="#000000"
     borderopacity="0.25"
     inkscape:showpageshadow="2"
     inkscape:pageopacity="0.0"
     inkscape:pagecheckerboard="0"
     inkscape:deskcolor="#d1d1d1">
    <inkscape:page
       x="0"
       y="0"
       inkscape:label="1"
       id="page1"
       width="760.50134"
       height="377.95334"
       margin="41.879333 43.952 105.412 48.466667"
       bleed="0" />
  </sodipodi:namedview>
  <g
     id="layer-MC0"
     inkscape:groupmode="layer"
     inkscape:label="Logo">
    <path
       id="path1"
       d="m 0,0 h -23.663 c -7.89,0 -14.286,-6.396 -14.286,-14.286 v -78.917 h 18.193 v 76.287 h 20.04 c 12.081,0 16.203,-6.252 16.203,-14.638 0,-8.528 -4.122,-14.783 -16.203,-14.783 h -12.64 V -63.109 H 0 c 24.162,0 34.964,13.362 34.964,31.555 C 34.964,-13.361 24.162,0 0,0"
       style="fill:#222a42;fill-opacity:1;fill-rule:nonzero;stroke:none"
       transform="matrix(1.3333333,0,0,-1.3333333,282.8668,148.18093)"
       clip-path="url(#clipPath2)" />
    <path
       id="path3"
       d="M 0,0 H 16.913 L 16.912,93.437 H 10e-4 Z"
       style="fill:#222a42;fill-opacity:1;fill-rule:nonzero;stroke:none"
       transform="matrix(1.3333333,0,0,-1.3333333,48.466667,272.4524)"
       clip-path="url(#clipPath4)" />
    <path
       id="path5"
       d="m 0,0 h 16.913 l -0.001,20.422 v 0 C 7.572,20.422 0,12.851 0,3.51 Z"
       style="fill:#59268b;fill-opacity:1;fill-rule:nonzero;stroke:none"
       transform="matrix(1.3333333,0,0,-1.3333333,48.499867,133.45627)"
       clip-path="url(#clipPath6)" />
    <path
       id="path7"
       d="m 0,0 -44.985,32.49 -10e-4,-0.015 c -1.778,1.098 -3.866,1.742 -6.109,1.742 -6.438,0 -11.658,-5.219 -11.658,-11.658 V -59.22 H -45.75 V 11.224 L 0,-21.86 Z"
       style="fill:#222a42;fill-opacity:1;fill-rule:nonzero;stroke:none"
       transform="matrix(1.3333333,0,0,-1.3333333,176.9232,193.4912)"
       clip-path="url(#clipPath8)" />
    <path
       id="path9"
       d="m 0,0 44.985,-32.49 10e-4,0.015 c 1.778,-1.098 3.866,-1.742 6.109,-1.742 6.438,0 11.657,5.219 11.657,11.658 V 59.22 H 45.75 V -11.224 L 0,21.86 Z"
       style="fill:#59268b;fill-opacity:1;fill-rule:nonzero;stroke:none"
       transform="matrix(1.3333333,0,0,-1.3333333,125.05227,226.828)"
       clip-path="url(#clipPath10)" />
    <path
       id="path11"
       d="m 0,0 h -0.06 v 0.022 h -9.075 v 3.155 h 8.109 v 0.089 h 0.054 v 4.62 h -8.163 v 2.739 h 8.579 V 10.79 H -0.5 v 4.815 h -14.033 v -0.079 h -0.056 V -4.906 H -0.06 V -4.87 H 0 Z"
       style="fill:#222a42;fill-opacity:1;fill-rule:nonzero;stroke:none"
       transform="matrix(1.3333333,0,0,-1.3333333,329.03347,126.91667)"
       clip-path="url(#clipPath12)" />
    <path
       id="path13"
       d="m 0,0 h -5.43 l 0.102,-11.779 -7.192,11.7 h -0.079 L -12.647,0 h -6.051 v -20.475 h 0.096 v -0.036 h 5.485 l -0.102,11.726 7.196,-11.69 h 0.013 l 0.022,-0.036 h 6.053 v 20.432 l -0.065,0 z"
       style="fill:#222a42;fill-opacity:1;fill-rule:nonzero;stroke:none"
       transform="matrix(1.3333333,0,0,-1.3333333,298.11867,106.1104)"
       clip-path="url(#clipPath14)" />
    <path
       id="path15"
       d="m 190.808,183.371 h 5.646 v 20.433 h -5.646 z"
       style="fill:#222a42;fill-opacity:1;fill-rule:nonzero;stroke:none"
       transform="matrix(1.3333333,0,0,-1.3333333,0,377.95333)"
       clip-path="url(#clipPath16)" />
    <path
       id="path17"
       d="m 0,0 h -3.623 l 1.832,4.945 z m -4.292,11.918 -8.572,-20.433 h 6.12 l 1.435,3.835 H 1.632 L 3.149,-8.515 H 9.372 L 0.886,11.918 Z"
       style="fill:#222a42;fill-opacity:1;fill-rule:nonzero;stroke:none"
       transform="matrix(1.3333333,0,0,-1.3333333,234.04013,122.10587)"
       clip-path="url(#clipPath18)" />
    <path
       id="path19"
       d="m 0,0 c -0.016,-0.006 -0.035,-0.01 -0.051,-0.015 -0.158,-0.047 -0.322,-0.087 -0.495,-0.114 -0.389,-0.062 -0.771,-0.093 -1.136,-0.093 h -1.822 v 3.627 h 2.06 C 1.251,3.405 1.251,2.103 1.251,1.676 1.251,0.911 0.884,0.377 0.171,0.068 0.114,0.046 0.06,0.019 0,0 m 3.031,-3.73 c 0.997,0.395 1.805,0.97 2.422,1.682 0.084,0.092 0.176,0.178 0.254,0.276 0.777,0.975 1.172,2.191 1.172,3.613 0,1.194 -0.233,2.215 -0.691,3.033 C 5.73,5.687 5.111,6.352 4.346,6.848 3.595,7.335 2.737,7.686 1.795,7.89 0.874,8.09 -0.085,8.191 -1.054,8.191 H -8.96 V 8.113 H -9.012 V -12.32 h 5.535 v 7.752 h 0.882 l 4.222,-7.752 h 6.587 l -0.022,0.036 h 0.061 z"
       style="fill:#222a42;fill-opacity:1;fill-rule:nonzero;stroke:none"
       transform="matrix(1.3333333,0,0,-1.3333333,200.81227,117.03213)"
       clip-path="url(#clipPath20)" />
    <path
       id="path21"
       d="m 0,0 c -0.03,-0.018 -0.067,-0.033 -0.099,-0.05 -0.28,-0.132 -0.593,-0.231 -0.937,-0.285 -0.389,-0.062 -0.771,-0.093 -1.137,-0.093 h -1.776 v 3.627 h 2.06 C 0.807,3.199 0.807,1.897 0.807,1.47 0.807,0.861 0.572,0.4 0.12,0.08 0.079,0.054 0.043,0.023 0,0 m 7.763,-12.49 -5.212,8.537 c 1.466,0.573 2.543,1.523 3.174,2.747 0.001,0.002 0.002,0.004 0.003,0.006 0.105,0.203 0.191,0.417 0.27,0.635 0.036,0.095 0.079,0.185 0.109,0.283 0.019,0.06 0.027,0.125 0.044,0.187 C 6.3,0.443 6.388,1.016 6.388,1.635 6.388,2.829 6.156,3.85 5.697,4.668 5.24,5.481 4.621,6.146 3.856,6.642 3.105,7.129 2.246,7.48 1.305,7.684 c -0.921,0.2 -1.88,0.301 -2.85,0.301 H -9.45 V 7.907 h -0.006 v -20.433 h 5.535 v 7.753 h 0.882 l 4.221,-7.753 H 7.77 l -0.023,0.036 z"
       style="fill:#222a42;fill-opacity:1;fill-rule:nonzero;stroke:none"
       transform="matrix(1.3333333,0,0,-1.3333333,169.81107,116.7576)"
       clip-path="url(#clipPath22)" />
    <path
       id="path23"
       d="m 0,0 c 0,0 -0.001,-0.001 -0.001,-0.001 -0.334,-0.359 -0.733,-0.645 -1.16,-0.893 -0.738,-0.421 -1.591,-0.674 -2.55,-0.674 -3.017,0 -5.123,2.31 -5.123,5.619 0,3.243 2.106,5.509 5.123,5.509 3.032,0 5.149,-2.266 5.149,-5.509 C 1.438,2.408 0.914,1.013 0.017,0.023 0.011,0.016 0.006,0.007 0,0 m 6.533,8.53 c -0.558,1.317 -1.342,2.452 -2.332,3.374 -0.989,0.921 -2.179,1.641 -3.54,2.141 -2.708,0.99 -6.132,0.989 -8.82,-10e-4 -1.351,-0.499 -2.536,-1.219 -3.524,-2.14 -0.991,-0.922 -1.775,-2.057 -2.333,-3.374 -0.556,-1.311 -0.837,-2.798 -0.837,-4.421 0,-1.603 0.281,-3.089 0.836,-4.419 0.557,-1.333 1.34,-2.491 2.329,-3.443 0.989,-0.949 2.175,-1.694 3.525,-2.21 0.177,-0.068 0.363,-0.12 0.545,-0.179 1.201,-0.403 2.509,-0.63 3.907,-0.63 6.534,0 11.098,4.45 11.098,10.823 0,0.785 -0.071,1.54 -0.209,2.261 C 7.038,7.095 6.826,7.839 6.533,8.53"
       style="fill:#222a42;fill-opacity:1;fill-rule:nonzero;stroke:none"
       transform="matrix(1.3333333,0,0,-1.3333333,137.19053,125.12747)"
       clip-path="url(#clipPath24)" />
    <path
       id="path25"
       d="M 0,0 H -5.646 V -20.433 H 7.56 v 5.012 H 0 Z"
       style="fill:#222a42;fill-opacity:1;fill-rule:nonzero;stroke:none"
       transform="matrix(1.3333333,0,0,-1.3333333,100.78053,106.2152)"
       clip-path="url(#clipPath26)" />
  </g>
  <g
     id="layer-MC1"
     inkscape:groupmode="layer"
     inkscape:label="Ecole">
    <path
       id="path27"
       d="M 0,0 H -31.701 V 102.726 H 0 V 93.041 H -21.135 V 56.499 h 19.08 v -9.686 h -19.08 V 9.686 L 0,9.686 Z"
       style="fill:#59268b;fill-opacity:1;fill-rule:nonzero;stroke:none"
       transform="matrix(1.3333333,0,0,-1.3333333,419.52907,271.16213)" />
    <path
       id="path28"
       d="m 0,0 c 0,5.479 1.714,9.833 5.137,13.061 3.424,3.229 7.778,4.843 13.063,4.843 5.378,0 9.806,-1.614 13.28,-4.843 C 34.95,9.833 36.691,5.479 36.691,0 V -61.342 H 26.125 V 0 c 0,2.445 -0.736,4.426 -2.202,5.944 C 22.454,7.46 20.546,8.218 18.2,8.218 15.947,8.218 14.113,7.46 12.694,5.944 11.275,4.426 10.569,2.445 10.569,0 V -61.342 H 0 Z"
       style="fill:#59268b;fill-opacity:1;fill-rule:nonzero;stroke:none"
       transform="matrix(1.3333333,0,0,-1.3333333,434.39333,189.37347)"
       clip-path="url(#clipPath29)" />
    <path
       id="path30"
       d="m 0,0 c 0,5.38 1.737,9.686 5.211,12.914 3.471,3.229 7.848,4.842 13.133,4.842 5.284,0 9.659,-1.613 13.132,-4.842 C 34.95,9.686 36.687,5.38 36.687,0 V -8.218 H 26.122 V 0 c 0,2.445 -0.71,4.403 -2.129,5.87 -1.419,1.468 -3.3,2.201 -5.649,2.201 -2.35,0 -4.234,-0.733 -5.65,-2.201 C 11.275,4.403 10.566,2.445 10.566,0 v -5.87 c 0,-2.348 0.903,-4.453 2.714,-6.311 1.811,-1.859 3.986,-3.547 6.53,-5.062 2.543,-1.517 5.087,-3.132 7.634,-4.842 2.54,-1.714 4.719,-3.963 6.529,-6.751 1.807,-2.789 2.714,-6.042 2.714,-9.759 v -6.31 c 0,-5.481 -1.737,-9.833 -5.211,-13.061 -3.473,-3.23 -7.848,-4.843 -13.132,-4.843 -5.285,0 -9.662,1.613 -13.133,4.843 C 1.737,-54.738 0,-50.386 0,-44.905 v 8.218 h 10.566 v -8.218 c 0,-2.447 0.709,-4.428 2.128,-5.944 1.416,-1.518 3.3,-2.274 5.65,-2.274 2.349,0 4.23,0.756 5.649,2.274 1.419,1.516 2.129,3.497 2.129,5.944 v 6.31 c 0,2.443 -0.907,4.622 -2.715,6.529 -1.814,1.908 -3.989,3.62 -6.533,5.138 -2.543,1.514 -5.087,3.104 -7.63,4.769 -2.544,1.662 -4.719,3.889 -6.53,6.677 C 0.904,-12.694 0,-9.49 0,-5.87 Z"
       style="fill:#59268b;fill-opacity:1;fill-rule:nonzero;stroke:none"
       transform="matrix(1.3333333,0,0,-1.3333333,500.9228,189.17707)"
       clip-path="url(#clipPath31)" />
    <path
       id="path32"
       d="m 0,0 c -1.419,1.516 -3.303,2.274 -5.649,2.274 -2.35,0 -4.234,-0.758 -5.653,-2.274 -1.419,-1.518 -2.125,-3.499 -2.125,-5.944 v -44.905 c 0,-2.447 0.706,-4.428 2.125,-5.944 1.419,-1.518 3.303,-2.274 5.653,-2.274 2.346,0 4.23,0.756 5.649,2.274 1.416,1.516 2.129,3.497 2.129,5.944 V -5.944 C 2.129,-3.499 1.416,-1.518 0,0 m -23.996,-78.586 c 0,2.84 0.783,5.283 2.349,7.338 l 9.686,-2.2 c -0.978,-1.271 -1.466,-2.738 -1.466,-4.403 0,-2.445 0.706,-4.329 2.125,-5.651 1.419,-1.321 3.303,-1.98 5.653,-1.98 2.346,0 4.23,0.685 5.649,2.053 1.416,1.373 2.129,3.23 2.129,5.578 v 14.968 c -1.861,-3.914 -5.285,-5.87 -10.275,-5.87 -4.501,0 -8.267,1.637 -11.299,4.916 -3.035,3.277 -4.551,7.606 -4.551,12.988 v 44.905 c 0,5.479 1.737,9.833 5.211,13.061 3.47,3.23 7.851,4.843 13.136,4.843 5.281,0 9.658,-1.613 13.132,-4.843 3.471,-3.228 5.211,-7.582 5.211,-13.061 v -71.907 c 0,-5.38 -1.69,-9.612 -5.063,-12.695 -3.377,-3.082 -7.755,-4.621 -13.136,-4.621 -5.479,0 -9.93,1.492 -13.354,4.474 -3.424,2.986 -5.137,7.022 -5.137,12.107"
       style="fill:#59268b;fill-opacity:1;fill-rule:nonzero;stroke:none"
       transform="matrix(1.3333333,0,0,-1.3333333,599.4432,181.44827)"
       clip-path="url(#clipPath33)" />
    <path
       id="path34"
       d="m 0,0 c 0,5.38 1.737,9.686 5.211,12.914 3.471,3.229 7.848,4.842 13.133,4.842 5.284,0 9.659,-1.613 13.133,-4.842 C 34.95,9.686 36.687,5.38 36.687,0 V -8.218 H 26.122 V 0 c 0,2.445 -0.71,4.403 -2.129,5.87 -1.419,1.468 -3.3,2.201 -5.649,2.201 -2.35,0 -4.234,-0.733 -5.65,-2.201 C 11.275,4.403 10.566,2.445 10.566,0 v -5.87 c 0,-2.348 0.903,-4.453 2.714,-6.311 1.811,-1.859 3.986,-3.547 6.53,-5.062 2.543,-1.517 5.087,-3.132 7.634,-4.842 2.54,-1.714 4.719,-3.963 6.529,-6.751 1.807,-2.789 2.714,-6.042 2.714,-9.759 v -6.31 c 0,-5.481 -1.737,-9.833 -5.21,-13.061 -3.474,-3.23 -7.849,-4.843 -13.133,-4.843 -5.285,0 -9.662,1.613 -13.133,4.843 C 1.737,-54.738 0,-50.386 0,-44.905 v 8.218 h 10.566 v -8.218 c 0,-2.447 0.709,-4.428 2.128,-5.944 1.416,-1.518 3.3,-2.274 5.65,-2.274 2.349,0 4.23,0.756 5.649,2.274 1.419,1.516 2.129,3.497 2.129,5.944 v 6.31 c 0,2.443 -0.907,4.622 -2.715,6.529 -1.814,1.908 -3.989,3.62 -6.533,5.138 -2.543,1.514 -5.087,3.104 -7.63,4.769 -2.544,1.662 -4.719,3.889 -6.53,6.677 C 0.904,-12.694 0,-9.49 0,-5.87 Z"
       style="fill:#59268b;fill-opacity:1;fill-rule:nonzero;stroke:none"
       transform="matrix(1.3333333,0,0,-1.3333333,633.97747,189.17707)"
       clip-path="url(#clipPath35)" />
    <path
       id="path36"
       d="m 525.672,157.871 h 10.566 V 80.093 h -10.566 z m -1.175,19.666 c 0,1.857 0.589,3.375 1.763,4.548 1.172,1.175 2.738,1.762 4.696,1.762 1.955,0 3.521,-0.587 4.696,-1.762 1.174,-1.173 1.76,-2.691 1.76,-4.548 0,-1.958 -0.586,-3.523 -1.76,-4.696 -1.175,-1.175 -2.741,-1.762 -4.696,-1.762 -1.958,0 -3.524,0.587 -4.696,1.762 -1.174,1.173 -1.763,2.738 -1.763,4.696"
       style="fill:#59268b;fill-opacity:1;fill-rule:nonzero;stroke:none"
       transform="matrix(1.3333333,0,0,-1.3333333,0,377.95333)"
       clip-path="url(#clipPath37)" />
    <path
       id="path38"
       d="M 0,0 H -3.876 L -18.595,22.531 V 0 h -3.875 v 29.237 h 3.875 l 14.76,-22.63 v 22.63 H 0 Z"
       style="fill:#59268b;fill-opacity:1;fill-rule:nonzero;stroke:none"
       transform="matrix(1.3333333,0,0,-1.3333333,408.50613,335.53853)"
       clip-path="url(#clipPath39)" />
    <path
       id="path40"
       d="M 0,0 H 9.94 L 4.96,13.675 Z m 11.085,-3.153 h -12.25 l -2.751,-7.65 H -7.892 L 3.273,18.434 h 3.374 l 11.185,-29.237 h -3.956 z"
       style="fill:#59268b;fill-opacity:1;fill-rule:nonzero;stroke:none"
       transform="matrix(1.3333333,0,0,-1.3333333,424.3832,321.134)"
       clip-path="url(#clipPath41)" />
    <path
       id="path42"
       d="M 0,0 H -3.876 L -18.595,22.531 V 0 h -3.875 v 29.237 h 3.875 l 14.76,-22.63 v 22.63 H 0 Z"
       style="fill:#59268b;fill-opacity:1;fill-rule:nonzero;stroke:none"
       transform="matrix(1.3333333,0,0,-1.3333333,483.36693,335.53853)"
       clip-path="url(#clipPath43)" />
    <path
       id="path44"
       d="m 0,0 c -0.361,-3.092 -1.503,-5.479 -3.424,-7.159 -1.921,-1.68 -4.474,-2.52 -7.661,-2.52 -3.453,0 -6.221,1.238 -8.303,3.715 -2.082,2.477 -3.122,5.79 -3.122,9.94 v 2.811 c 0,2.718 0.485,5.107 1.455,7.169 0.971,2.062 2.346,3.645 4.127,4.749 1.78,1.105 3.842,1.657 6.185,1.657 3.106,0 5.596,-0.867 7.47,-2.601 1.874,-1.733 2.965,-4.133 3.273,-7.199 h -3.876 c -0.334,2.336 -1.061,4.03 -2.178,5.078 -1.118,1.047 -2.681,1.569 -4.689,1.569 -2.463,0 -4.395,-0.91 -5.793,-2.734 -1.399,-1.821 -2.099,-4.415 -2.099,-7.778 V 3.866 c 0,-3.177 0.663,-5.703 1.988,-7.578 1.325,-1.877 3.18,-2.814 5.562,-2.814 2.142,0 3.786,0.485 4.93,1.456 1.145,0.97 1.905,2.66 2.279,5.07 z"
       style="fill:#59268b;fill-opacity:1;fill-rule:nonzero;stroke:none"
       transform="matrix(1.3333333,0,0,-1.3333333,521.17227,323.1688)"
       clip-path="url(#clipPath45)" />
    <path
       id="path46"
       d="m 0,0 7.631,14.679 h 4.377 L 1.928,-3.655 v -10.904 h -3.856 v 10.904 l -10.08,18.334 h 4.417 z"
       style="fill:#59268b;fill-opacity:1;fill-rule:nonzero;stroke:none"
       transform="matrix(1.3333333,0,0,-1.3333333,540.0748,316.1272)"
       clip-path="url(#clipPath47)" />
  </g>
  <g
     id="layer-MC3"
     inkscape:groupmode="layer"
     inkscape:label="Marges de sécurité"
     style="display:none">
    <g
       opacity="0.100006"
       id="g57"
       clip-path="url(#clipPath58)">
      <path
         d="m 0,0 h 20.041 c 12.081,0 16.203,-6.252 16.203,-14.638 0,-8.528 -4.122,-14.783 -16.203,-14.783 H 0 Z"
         style="fill:#231f20;fill-opacity:1;fill-rule:nonzero;stroke:none"
         transform="matrix(1.3333333,0,0,-1.3333333,329.62707,170.9528)"
         clip-path="url(#clipPath48)"
         id="path53" />
      <path
         d="m 0,0 h 20.041 c 12.081,0 16.203,-6.252 16.203,-14.638 0,-8.528 -4.122,-14.783 -16.203,-14.783 H 0 Z"
         style="fill:#231f20;fill-opacity:1;fill-rule:nonzero;stroke:none"
         transform="matrix(1.3333333,0,0,-1.3333333,699.6948,170.9528)"
         clip-path="url(#clipPath49)"
         id="path54" />
      <path
         d="m 0,0 h 20.041 c 12.081,0 16.203,-6.252 16.203,-14.638 0,-8.528 -4.122,-14.783 -16.203,-14.783 H 0 Z"
         style="fill:#231f20;fill-opacity:1;fill-rule:nonzero;stroke:none"
         transform="matrix(1.3333333,0,0,-1.3333333,0,170.9528)"
         clip-path="url(#clipPath50)"
         id="path55" />
      <path
         d="m 0,0 v 20.041 c 0,12.081 6.252,16.203 14.638,16.203 8.528,0 14.783,-4.122 14.783,-16.203 V 0 Z"
         style="fill:#231f20;fill-opacity:1;fill-rule:nonzero;stroke:none"
         transform="matrix(1.3333333,0,0,-1.3333333,169.36267,105.99733)"
         clip-path="url(#clipPath51)"
         id="path56" />
      <path
         d="m 0,0 v 20.041 c 0,12.081 6.252,16.203 14.638,16.203 8.528,0 14.783,-4.122 14.783,-16.203 V 0 Z"
         style="fill:#231f20;fill-opacity:1;fill-rule:nonzero;stroke:none"
         transform="matrix(1.3333333,0,0,-1.3333333,169.36267,320.7556)"
         clip-path="url(#clipPath52)"
         id="path57" />
    </g>
  </g>
</svg>
