<?xml version="1.0" encoding="utf-8"?>
<svg version="1.1" id="mines_nancy" xmlns="http://www.w3.org/2000/svg" xmlns:xlink="http://www.w3.org/1999/xlink" x="0px" y="0px"
	 viewBox="0 0 119.1 78" style="enable-background:new 0 0 119.1 78;" xml:space="preserve">
<style type="text/css">
	.st0{fill:#FFFFFF;}
	.none{fill:none;}
</style>
<g>
	<polygon class="none" points="77.8,51.6 75.8,56.4 79.8,56.4 	"/>
	<path class="none" d="M49.4,70.6h-1.1v2.2h1.1c0.9,0,1.2-0.5,1.2-1.2C50.7,71.1,50.3,70.6,49.4,70.6z"/>
	<polygon class="none" points="37.3,74 39.4,74 38.4,71.3 	"/>
	<path class="st0" d="M50.4,41.8c0.2,0,0.3-0.1,0.4-0.2c0.2-0.2,0.3-0.5,0.2-0.8L37.4,13.3C37.3,13.2,37.2,13,37,13
		c-0.2,0-0.4,0-0.5,0.1l-13.5,9.2c-0.2,0.1-0.3,0.3-0.3,0.5c0,0.2,0.1,0.4,0.3,0.5l27.1,18.4C50.2,41.8,50.3,41.8,50.4,41.8z"/>
	<path class="st0" d="M34.7,60.9v-7.1c0-2.4-1.3-4.3-4-4.3c-1.7,0-3,0.9-3.6,1.7v-1.4h-3.2v11.2h3.4v-7.2c0.4-0.7,1.3-1.3,2.2-1.3
		c1.1,0,1.9,0.7,1.9,1.9v6.6H34.7z"/>
	<rect x="17.4" y="49.7" class="st0" width="3.4" height="11.2"/>
	<polygon class="st0" points="45.8,52.6 45.8,49.7 37.7,49.7 37.7,60.9 46,60.9 46,58 40.9,58 40.9,56.7 45,56.7 45,53.9 40.9,53.9 
		40.9,52.6 	"/>
	<polygon class="st0" points="9.9,49.7 7.5,55.8 5.3,49.7 2.5,49.7 0,60.9 3.3,60.9 4.3,56 6.3,60.9 8.6,60.9 10.5,56 11.6,60.9 
		15.2,60.9 12.7,49.7 	"/>
	<path class="st0" d="M62.3,53.2c0.3-0.7,1.4-2.3,3.7-2.3c1.8,0,2.8,1,2.8,3.1v6.9h1.4v-6.7c0-3-1.5-4.5-4.1-4.5
		c-2.1,0-3.3,1.2-3.9,1.8v-1.6h-1.4v11h1.4V53.2z"/>
	<path class="st0" d="M62.9,37.1c0,0,0.1,0,0.1,0c0.2,0,0.5-0.1,0.6-0.4L76.8,9.9c0.1-0.3,0-0.6-0.2-0.8l-13.3-9
		c-0.2-0.1-0.5-0.1-0.7,0c-0.2,0.1-0.3,0.3-0.3,0.6v35.9C62.4,36.8,62.6,37.1,62.9,37.1z"/>
	<path class="st0" d="M53,52.2c0.9,0,2,0.4,3.2,1l1.2-2.7c-1-0.6-2.4-1.1-4.2-1.1c-2.8,0-4.5,1.3-4.5,3.3c0,1.7,0.8,2.6,2.7,3.5
		c2,0.9,2.8,1.2,2.8,1.6c0,0.4-0.4,0.5-1,0.5c-0.9,0-2.3-0.5-3.7-1.2l-1.1,2.7c1.5,0.8,3.1,1.3,4.7,1.3c2.8,0,4.5-1.2,4.5-3.3
		c0-1.8-1.2-2.8-3.1-3.6c-1.7-0.7-2.5-1-2.5-1.5C52,52.3,52.4,52.2,53,52.2z"/>
	<path class="st0" d="M55.4,36.8c0.1,0.2,0.3,0.4,0.6,0.4c0,0,0.1,0,0.1,0c0.3-0.1,0.5-0.3,0.5-0.6V0.6c0-0.2-0.1-0.5-0.3-0.6
		c-0.2-0.1-0.5-0.1-0.7,0l-13.3,9c-0.3,0.2-0.4,0.5-0.2,0.8L55.4,36.8z"/>
	<path class="st0" d="M103,59.9c-2.7,0-4.1-2.2-4.1-4.5c0-2.4,1.5-4.5,4.1-4.5c1.3,0,2.3,0.5,2.9,0.9l0.6-1.1c-0.7-0.5-1.7-1-3.5-1
		c-3.2,0-5.6,2.4-5.6,5.7c0,3.1,2.2,5.7,5.6,5.7c1.7,0,3.1-0.6,3.6-1.1l-0.7-1C105.3,59.4,104.5,59.9,103,59.9z"/>
	<path class="st0" d="M90.6,49.6c-2.1,0-3.3,1.2-3.9,1.8v-1.6h-1.4v11h1.4v-7.7c0.3-0.7,1.4-2.3,3.7-2.3c1.8,0,2.8,1,2.8,3.1v6.9
		h1.4v-6.7C94.7,51.2,93.2,49.6,90.6,49.6z"/>
	<path class="st0" d="M82.5,13.1C82.4,13,82.2,12.9,82,13c-0.2,0-0.3,0.2-0.4,0.3L68,40.9c-0.1,0.3-0.1,0.6,0.2,0.8
		c0.1,0.1,0.3,0.2,0.4,0.2c0.1,0,0.2,0,0.4-0.1L96,23.3c0.2-0.1,0.3-0.3,0.3-0.5c0-0.2-0.1-0.4-0.3-0.5L82.5,13.1z"/>
	<path class="st0" d="M78.5,49.9h-1.4l-4.7,11h1.5l1.3-3.2h5l1.3,3.2h1.6L78.5,49.9z M75.8,56.4l2-4.8l2,4.8H75.8z"/>
	<polygon class="st0" points="117.5,49.9 113.6,58 109.8,49.9 108.1,49.9 112.9,59.5 109.5,66.2 111,66.2 119.1,49.9 	"/>
	<path class="st0" d="M40.1,68.2H37L32.8,78h3.1l0.6-1.5h3.7l0.7,1.5h3.3L40.1,68.2z M37.3,74l1.1-2.7l1,2.7H37.3z"/>
	<polygon class="st0" points="54.4,70.7 57.4,70.7 57.4,78 60.4,78 60.4,70.7 63.3,70.7 63.3,68.2 54.4,68.2 	"/>
	<polygon class="st0" points="67.2,74.4 70.9,74.4 70.9,71.8 67.2,71.8 67.2,70.7 71.6,70.7 71.6,68.2 64.4,68.2 64.4,78 71.7,78 
		71.7,75.5 67.2,75.5 	"/>
	<polygon class="st0" points="81.6,68.2 79.5,73.5 77.5,68.2 75,68.2 72.9,78 75.8,78 76.6,73.8 78.4,78 80.5,78 82.2,73.7 83.1,78 
		86.3,78 84.1,68.2 	"/>
	<path class="st0" d="M52,74.4c0.9-0.4,1.8-1.2,1.8-2.8c0-1.9-1.4-3.4-4.1-3.4h-4.3V78h3v-3h0.8l1.9,3h3.4L52,74.4z M49.4,72.8h-1.1
		v-2.2h1.1c0.9,0,1.2,0.5,1.2,1C50.7,72.2,50.3,72.8,49.4,72.8z"/>
</g>
</svg>
