  0
SECTION
  2
HEADER
  9
$ACADVER
  1
AC1014
  9
$HANDSEED
  5
FFFF
  9
$MEASUREMENT
 70
     1
  0
ENDSEC
  0
SECTION
  2
TABLES
  0
TABLE
  2
VPORT
  5
8
330
0
100
AcDbSymbolTable
 70
     4
  0
VPORT
  5
2E
330
8
100
AcDbSymbolTableRecord
100
AcDbViewportTableRecord
  2
*ACTIVE
 70
     0
 10
0.0
 20
0.0
 11
1.0
 21
1.0
 12
210.0
 22
148.5
 13
0.0
 23
0.0
 14
10.0
 24
10.0
 15
10.0
 25
10.0
 16
0.0
 26
0.0
 36
1.0
 17
0.0
 27
0.0
 37
0.0
 40
341.0
 41
1.24
 42
50.0
 43
0.0
 44
0.0
 50
0.0
 51
0.0
 71
     0
 72
   100
 73
     1
 74
     3
 75
     0
 76
     0
 77
     0
 78
     0
  0
ENDTAB
  0
TABLE
  2
LTYPE
  5
5
330
0
100
AcDbSymbolTable
 70
     1
  0
LTYPE
  5
14
330
5
100
AcDbSymbolTableRecord
100
AcDbLinetypeTableRecord
  2
BYBLOCK
 70
     0
  3

 72
    65
 73
     0
 40
0.0
  0
LTYPE
  5
15
330
5
100
AcDbSymbolTableRecord
100
AcDbLinetypeTableRecord
  2
BYLAYER
 70
     0
  3

 72
    65
 73
     0
 40
0.0
  0
LTYPE
  5
16
330
5
100
AcDbSymbolTableRecord
100
AcDbLinetypeTableRecord
  2
CONTINUOUS
 70
     0
  3
Solid line
 72
    65
 73
     0
 40
0.0
  0
ENDTAB
  0
TABLE
  2
LAYER
  5
2
100
AcDbSymbolTable
 70
1
  0
LAYER
  5
50
100
AcDbSymbolTableRecord
100
AcDbLayerTableRecord
  2
0
 70
0
  6
CONTINUOUS
  0
ENDTAB
  0
TABLE
  2
STYLE
  5
3
330
0
100
AcDbSymbolTable
 70
     1
  0
STYLE
  5
11
330
3
100
AcDbSymbolTableRecord
100
AcDbTextStyleTableRecord
  2
STANDARD
 70
     0
 40
0.0
 41
1.0
 50
0.0
 71
     0
 42
2.5
  3
txt
  4

  0
ENDTAB
  0
TABLE
  2
VIEW
  5
6
330
0
100
AcDbSymbolTable
 70
     0
  0
ENDTAB
  0
TABLE
  2
UCS
  5
7
330
0
100
AcDbSymbolTable
 70
     0
  0
ENDTAB
  0
TABLE
  2
APPID
  5
9
330
0
100
AcDbSymbolTable
 70
     2
  0
APPID
  5
12
330
9
100
AcDbSymbolTableRecord
100
AcDbRegAppTableRecord
  2
ACAD
 70
     0
  0
ENDTAB
  0
TABLE
  2
DIMSTYLE
  5
A
330
0
100
AcDbSymbolTable
 70
     1
  0
DIMSTYLE
105
27
330
A
100
AcDbSymbolTableRecord
100
AcDbDimStyleTableRecord
  2
ISO-25
 70
     0
  3

  4

  5

  6

  7

 40
1.0
 41
2.5
 42
0.625
 43
3.75
 44
1.25
 45
0.0
 46
0.0
 47
0.0
 48
0.0
140
2.5
141
2.5
142
0.0
143
0.03937007874016
144
1.0
145
0.0
146
1.0
147
0.625
 71
     0
 72
     0
 73
     0
 74
     0
 75
     0
 76
     0
 77
     1
 78
     8
170
     0
171
     3
172
     1
173
     0
174
     0
175
     0
176
     0
177
     0
178
     0
270
     2
271
     2
272
     2
273
     2
274
     3
340
11
275
     0
280
     0
281
     0
282
     0
283
     0
284
     8
285
     0
286
     0
287
     3
288
     0
  0
ENDTAB
  0
TABLE
  2
BLOCK_RECORD
  5
1
330
0
100
AcDbSymbolTable
 70
     1
  0
BLOCK_RECORD
  5
1F
330
1
100
AcDbSymbolTableRecord
100
AcDbBlockTableRecord
  2
*MODEL_SPACE
  0
BLOCK_RECORD
  5
1B
330
1
100
AcDbSymbolTableRecord
100
AcDbBlockTableRecord
  2
*PAPER_SPACE
  0
ENDTAB
  0
ENDSEC
  0
SECTION
  2
BLOCKS
  0
BLOCK
  5
20
330
1F
100
AcDbEntity
  8
0
100
AcDbBlockBegin
  2
*MODEL_SPACE
 70
     0
 10
0.0
 20
0.0
 30
0.0
  3
*MODEL_SPACE
  1

  0
ENDBLK
  5
21
330
1F
100
AcDbEntity
  8
0
100
AcDbBlockEnd
  0
BLOCK
  5
1C
330
1B
100
AcDbEntity
 67
     1
  8
0
100
AcDbBlockBegin
  2
*PAPER_SPACE
  1

  0
ENDBLK
  5
1D
330
1B
100
AcDbEntity
 67
     1
  8
0
100
AcDbBlockEnd
  0
ENDSEC
  0
SECTION
  2
ENTITIES
  0
SPLINE
  5
100
100
AcDbEntity
  8
0
 62
6
100
AcDbSpline
 70
8
 71
3
 72
8
 73
4
 74
0
 40
0
 40
0
 40
0
 40
0
 40
1
 40
1
 40
1
 40
1
 10
79.769247
 20
225.316044
 30
0.0
 10
79.233052
 20
225.027324
 30
0.0
 10
78.985578
 20
224.326147
 30
0.0
 10
78.861840
 20
223.789952
 30
0.0
  0
SPLINE
  5
101
100
AcDbEntity
  8
0
 62
6
100
AcDbSpline
 70
8
 71
3
 72
8
 73
4
 74
0
 40
0
 40
0
 40
0
 40
0
 40
1
 40
1
 40
1
 40
1
 10
78.861840
 20
223.789952
 30
0.0
 10
78.573120
 20
222.758809
 30
0.0
 10
78.449383
 20
221.686419
 30
0.0
 10
78.531875
 20
220.614030
 30
0.0
  0
SPLINE
  5
102
100
AcDbEntity
  8
0
 62
6
100
AcDbSpline
 70
8
 71
3
 72
8
 73
4
 74
0
 40
0
 40
0
 40
0
 40
0
 40
1
 40
1
 40
1
 40
1
 10
78.531875
 20
220.614030
 30
0.0
 10
78.655612
 20
219.005446
 30
0.0
 10
79.480527
 20
217.850566
 30
0.0
 10
80.759144
 20
216.901914
 30
0.0
  0
SPLINE
  5
103
100
AcDbEntity
  8
0
 62
6
100
AcDbSpline
 70
8
 71
3
 72
8
 73
4
 74
0
 40
0
 40
0
 40
0
 40
0
 40
1
 40
1
 40
1
 40
1
 10
80.759144
 20
216.901914
 30
0.0
 10
81.790288
 20
216.159491
 30
0.0
 10
82.986414
 20
215.623296
 30
0.0
 10
84.141295
 20
215.128347
 30
0.0
  0
SPLINE
  5
104
100
AcDbEntity
  8
0
 62
6
100
AcDbSpline
 70
8
 71
3
 72
8
 73
4
 74
0
 40
0
 40
0
 40
0
 40
0
 40
1
 40
1
 40
1
 40
1
 10
84.141295
 20
215.128347
 30
0.0
 10
85.254930
 20
214.674644
 30
0.0
 10
86.451056
 20
214.344678
 30
0.0
 10
87.523445
 20
213.767238
 30
0.0
  0
SPLINE
  5
105
100
AcDbEntity
  8
0
 62
6
100
AcDbSpline
 70
8
 71
3
 72
8
 73
4
 74
0
 40
0
 40
0
 40
0
 40
0
 40
1
 40
1
 40
1
 40
1
 10
87.523445
 20
213.767238
 30
0.0
 10
89.255766
 20
212.818586
 30
0.0
 10
90.080681
 20
210.921282
 30
0.0
 10
91.771756
 20
209.972630
 30
0.0
  0
SPLINE
  5
106
100
AcDbEntity
  8
0
 62
6
100
AcDbSpline
 70
8
 71
3
 72
8
 73
4
 74
0
 40
0
 40
0
 40
0
 40
0
 40
1
 40
1
 40
1
 40
1
 10
91.771756
 20
209.972630
 30
0.0
 10
93.586569
 20
208.941487
 30
0.0
 10
95.937576
 20
209.023978
 30
0.0
 10
97.917371
 20
209.395190
 30
0.0
  0
SPLINE
  5
107
100
AcDbEntity
  8
0
 62
6
100
AcDbSpline
 70
8
 71
3
 72
8
 73
4
 74
0
 40
0
 40
0
 40
0
 40
0
 40
1
 40
1
 40
1
 40
1
 10
97.917371
 20
209.395190
 30
0.0
 10
98.659794
 20
209.518927
 30
0.0
 10
99.690938
 20
209.683910
 30
0.0
 10
100.227132
 20
210.261350
 30
0.0
  0
SPLINE
  5
108
100
AcDbEntity
  8
0
 62
6
100
AcDbSpline
 70
8
 71
3
 72
8
 73
4
 74
0
 40
0
 40
0
 40
0
 40
0
 40
1
 40
1
 40
1
 40
1
 10
100.227132
 20
210.261350
 30
0.0
 10
100.515852
 20
210.550070
 30
0.0
 10
100.433361
 20
210.880036
 30
0.0
 10
100.350869
 20
211.210002
 30
0.0
  0
SPLINE
  5
109
100
AcDbEntity
  8
0
 62
6
100
AcDbSpline
 70
8
 71
3
 72
8
 73
4
 74
0
 40
0
 40
0
 40
0
 40
0
 40
1
 40
1
 40
1
 40
1
 10
100.350869
 20
211.210002
 30
0.0
 10
100.185887
 20
211.911180
 30
0.0
 10
100.062149
 20
212.612357
 30
0.0
 10
99.938412
 20
213.313535
 30
0.0
  0
SPLINE
  5
10a
100
AcDbEntity
  8
0
 62
6
100
AcDbSpline
 70
8
 71
3
 72
8
 73
4
 74
0
 40
0
 40
0
 40
0
 40
0
 40
1
 40
1
 40
1
 40
1
 10
99.938412
 20
213.313535
 30
0.0
 10
99.525955
 20
215.458313
 30
0.0
 10
99.031006
 20
217.809320
 30
0.0
 10
97.422422
 20
219.417904
 30
0.0
  0
SPLINE
  5
10b
100
AcDbEntity
  8
0
 62
6
100
AcDbSpline
 70
8
 71
3
 72
8
 73
4
 74
0
 40
0
 40
0
 40
0
 40
0
 40
1
 40
1
 40
1
 40
1
 10
97.422422
 20
219.417904
 30
0.0
 10
96.679999
 20
220.160327
 30
0.0
 10
95.772593
 20
220.696522
 30
0.0
 10
94.865186
 20
221.191471
 30
0.0
  0
SPLINE
  5
10c
100
AcDbEntity
  8
0
 62
6
100
AcDbSpline
 70
8
 71
3
 72
8
 73
4
 74
0
 40
0
 40
0
 40
0
 40
0
 40
1
 40
1
 40
1
 40
1
 10
94.865186
 20
221.191471
 30
0.0
 10
93.751552
 20
221.768911
 30
0.0
 10
92.555425
 20
222.305105
 30
0.0
 10
91.359299
 20
222.758809
 30
0.0
  0
SPLINE
  5
10d
100
AcDbEntity
  8
0
 62
6
100
AcDbSpline
 70
8
 71
3
 72
8
 73
4
 74
0
 40
0
 40
0
 40
0
 40
0
 40
1
 40
1
 40
1
 40
1
 10
91.359299
 20
222.758809
 30
0.0
 10
90.204418
 20
223.171266
 30
0.0
 10
88.967046
 20
223.501232
 30
0.0
 10
87.770920
 20
223.624969
 30
0.0
  0
SPLINE
  5
10e
100
AcDbEntity
  8
0
 62
6
100
AcDbSpline
 70
8
 71
3
 72
8
 73
4
 74
0
 40
0
 40
0
 40
0
 40
0
 40
1
 40
1
 40
1
 40
1
 10
87.770920
 20
223.624969
 30
0.0
 10
86.574793
 20
223.789952
 30
0.0
 10
85.337421
 20
223.748706
 30
0.0
 10
84.141295
 20
223.954935
 30
0.0
  0
SPLINE
  5
10f
100
AcDbEntity
  8
0
 62
6
100
AcDbSpline
 70
8
 71
3
 72
8
 73
4
 74
0
 40
0
 40
0
 40
0
 40
0
 40
1
 40
1
 40
1
 40
1
 10
84.141295
 20
223.954935
 30
0.0
 10
83.357626
 20
224.078672
 30
0.0
 10
82.697694
 20
224.408638
 30
0.0
 10
82.037762
 20
224.821095
 30
0.0
  0
SPLINE
  5
110
100
AcDbEntity
  8
0
 62
6
100
AcDbSpline
 70
8
 71
3
 72
8
 73
4
 74
0
 40
0
 40
0
 40
0
 40
0
 40
1
 40
1
 40
1
 40
1
 10
82.037762
 20
224.821095
 30
0.0
 10
81.625305
 20
225.068570
 30
0.0
 10
81.171602
 20
225.316044
 30
0.0
 10
80.676653
 20
225.398536
 30
0.0
  0
SPLINE
  5
111
100
AcDbEntity
  8
0
 62
6
100
AcDbSpline
 70
8
 71
3
 72
8
 73
4
 74
0
 40
0
 40
0
 40
0
 40
0
 40
1
 40
1
 40
1
 40
1
 10
80.676653
 20
225.398536
 30
0.0
 10
80.346687
 20
225.439781
 30
0.0
 10
80.016721
 20
225.439781
 30
0.0
 10
79.769247
 20
225.316044
 30
0.0
  0
SPLINE
  5
112
100
AcDbEntity
  8
0
 62
6
100
AcDbSpline
 70
8
 71
3
 72
8
 73
4
 74
0
 40
0
 40
0
 40
0
 40
0
 40
1
 40
1
 40
1
 40
1
 10
62.322300
 20
222.717563
 30
0.0
 10
62.569774
 20
222.387597
 30
0.0
 10
62.446037
 20
221.768911
 30
0.0
 10
62.363546
 20
221.397699
 30
0.0
  0
SPLINE
  5
113
100
AcDbEntity
  8
0
 62
6
100
AcDbSpline
 70
8
 71
3
 72
8
 73
4
 74
0
 40
0
 40
0
 40
0
 40
0
 40
1
 40
1
 40
1
 40
1
 10
62.363546
 20
221.397699
 30
0.0
 10
62.157317
 20
220.531539
 30
0.0
 10
61.827351
 20
219.706624
 30
0.0
 10
61.373648
 20
218.964201
 30
0.0
  0
SPLINE
  5
114
100
AcDbEntity
  8
0
 62
6
100
AcDbSpline
 70
8
 71
3
 72
8
 73
4
 74
0
 40
0
 40
0
 40
0
 40
0
 40
1
 40
1
 40
1
 40
1
 10
61.373648
 20
218.964201
 30
0.0
 10
60.548733
 20
217.520600
 30
0.0
 10
59.435098
 20
216.365719
 30
0.0
 10
58.032743
 20
215.540805
 30
0.0
  0
SPLINE
  5
115
100
AcDbEntity
  8
0
 62
6
100
AcDbSpline
 70
8
 71
3
 72
8
 73
4
 74
0
 40
0
 40
0
 40
0
 40
0
 40
1
 40
1
 40
1
 40
1
 10
58.032743
 20
215.540805
 30
0.0
 10
56.341668
 20
214.509661
 30
0.0
 10
54.361873
 20
213.973467
 30
0.0
 10
52.670797
 20
212.859832
 30
0.0
  0
SPLINE
  5
116
100
AcDbEntity
  8
0
 62
6
100
AcDbSpline
 70
8
 71
3
 72
8
 73
4
 74
0
 40
0
 40
0
 40
0
 40
0
 40
1
 40
1
 40
1
 40
1
 10
52.670797
 20
212.859832
 30
0.0
 10
51.887128
 20
212.364883
 30
0.0
 10
51.227197
 20
211.746197
 30
0.0
 10
50.649756
 20
211.045019
 30
0.0
  0
SPLINE
  5
117
100
AcDbEntity
  8
0
 62
6
100
AcDbSpline
 70
8
 71
3
 72
8
 73
4
 74
0
 40
0
 40
0
 40
0
 40
0
 40
1
 40
1
 40
1
 40
1
 10
50.649756
 20
211.045019
 30
0.0
 10
50.031070
 20
210.302596
 30
0.0
 10
49.536121
 20
209.436435
 30
0.0
 10
48.999927
 20
208.652766
 30
0.0
  0
SPLINE
  5
118
100
AcDbEntity
  8
0
 62
6
100
AcDbSpline
 70
8
 71
3
 72
8
 73
4
 74
0
 40
0
 40
0
 40
0
 40
0
 40
1
 40
1
 40
1
 40
1
 10
48.999927
 20
208.652766
 30
0.0
 10
48.504978
 20
207.951589
 30
0.0
 10
47.845046
 20
207.126674
 30
0.0
 10
46.937640
 20
207.002937
 30
0.0
  0
SPLINE
  5
119
100
AcDbEntity
  8
0
 62
6
100
AcDbSpline
 70
8
 71
3
 72
8
 73
4
 74
0
 40
0
 40
0
 40
0
 40
0
 40
1
 40
1
 40
1
 40
1
 10
46.937640
 20
207.002937
 30
0.0
 10
46.360200
 20
206.920446
 30
0.0
 10
45.947742
 20
207.209166
 30
0.0
 10
45.865251
 20
207.827852
 30
0.0
  0
SPLINE
  5
11a
100
AcDbEntity
  8
0
 62
6
100
AcDbSpline
 70
8
 71
3
 72
8
 73
4
 74
0
 40
0
 40
0
 40
0
 40
0
 40
1
 40
1
 40
1
 40
1
 10
45.865251
 20
207.827852
 30
0.0
 10
45.741514
 20
208.735258
 30
0.0
 10
45.865251
 20
209.683910
 30
0.0
 10
45.865251
 20
210.591316
 30
0.0
  0
SPLINE
  5
11b
100
AcDbEntity
  8
0
 62
6
100
AcDbSpline
 70
8
 71
3
 72
8
 73
4
 74
0
 40
0
 40
0
 40
0
 40
0
 40
1
 40
1
 40
1
 40
1
 10
45.865251
 20
210.591316
 30
0.0
 10
45.906497
 20
212.406129
 30
0.0
 10
46.195217
 20
214.220941
 30
0.0
 10
47.143869
 20
215.747033
 30
0.0
  0
SPLINE
  5
11c
100
AcDbEntity
  8
0
 62
6
100
AcDbSpline
 70
8
 71
3
 72
8
 73
4
 74
0
 40
0
 40
0
 40
0
 40
0
 40
1
 40
1
 40
1
 40
1
 10
47.143869
 20
215.747033
 30
0.0
 10
48.092521
 20
217.273126
 30
0.0
 10
49.536121
 20
218.510498
 30
0.0
 10
51.020968
 20
219.500395
 30
0.0
  0
SPLINE
  5
11d
100
AcDbEntity
  8
0
 62
6
100
AcDbSpline
 70
8
 71
3
 72
8
 73
4
 74
0
 40
0
 40
0
 40
0
 40
0
 40
1
 40
1
 40
1
 40
1
 10
51.020968
 20
219.500395
 30
0.0
 10
52.629552
 20
220.572785
 30
0.0
 10
54.361873
 20
221.438945
 30
0.0
 10
56.259177
 20
221.892648
 30
0.0
  0
SPLINE
  5
11e
100
AcDbEntity
  8
0
 62
6
100
AcDbSpline
 70
8
 71
3
 72
8
 73
4
 74
0
 40
0
 40
0
 40
0
 40
0
 40
1
 40
1
 40
1
 40
1
 10
56.259177
 20
221.892648
 30
0.0
 10
57.249074
 20
222.140123
 30
0.0
 10
58.238972
 20
222.222614
 30
0.0
 10
59.228870
 20
222.387597
 30
0.0
  0
SPLINE
  5
11f
100
AcDbEntity
  8
0
 62
6
100
AcDbSpline
 70
8
 71
3
 72
8
 73
4
 74
0
 40
0
 40
0
 40
0
 40
0
 40
1
 40
1
 40
1
 40
1
 10
59.228870
 20
222.387597
 30
0.0
 10
60.053784
 20
222.511334
 30
0.0
 10
60.837453
 20
222.841300
 30
0.0
 10
61.662368
 20
222.965037
 30
0.0
  0
SPLINE
  5
120
100
AcDbEntity
  8
0
 62
6
100
AcDbSpline
 70
8
 71
3
 72
8
 73
4
 74
0
 40
0
 40
0
 40
0
 40
0
 40
1
 40
1
 40
1
 40
1
 10
61.662368
 20
222.965037
 30
0.0
 10
61.786105
 20
222.965037
 30
0.0
 10
61.868597
 20
223.006283
 30
0.0
 10
61.992334
 20
222.965037
 30
0.0
  0
SPLINE
  5
121
100
AcDbEntity
  8
0
 62
6
100
AcDbSpline
 70
8
 71
3
 72
8
 73
4
 74
0
 40
0
 40
0
 40
0
 40
0
 40
1
 40
1
 40
1
 40
1
 10
61.992334
 20
222.965037
 30
0.0
 10
62.074825
 20
222.882546
 30
0.0
 10
62.281054
 20
222.717563
 30
0.0
 10
62.322300
 20
222.717563
 30
0.0
  0
LWPOLYLINE
  5
122
100
AcDbEntity
  8
0
 62
6
100
AcDbPolyline
 90
1
 70
1
 10
79.769247
 20
225.316044
 30
0.0
  0
SPLINE
  5
123
100
AcDbEntity
  8
0
 62
6
100
AcDbSpline
 70
8
 71
3
 72
8
 73
4
 74
0
 40
0
 40
0
 40
0
 40
0
 40
1
 40
1
 40
1
 40
1
 10
70.117744
 20
255.961627
 30
0.0
 10
69.705287
 20
258.023914
 30
0.0
 10
70.942659
 20
260.127446
 30
0.0
 10
72.922454
 20
260.828624
 30
0.0
  0
SPLINE
  5
124
100
AcDbEntity
  8
0
 62
6
100
AcDbSpline
 70
8
 71
3
 72
8
 73
4
 74
0
 40
0
 40
0
 40
0
 40
0
 40
1
 40
1
 40
1
 40
1
 10
72.922454
 20
260.828624
 30
0.0
 10
74.902250
 20
261.529801
 30
0.0
 10
77.170765
 20
260.663641
 30
0.0
 10
78.160663
 20
258.807583
 30
0.0
  0
SPLINE
  5
125
100
AcDbEntity
  8
0
 62
6
100
AcDbSpline
 70
8
 71
3
 72
8
 73
4
 74
0
 40
0
 40
0
 40
0
 40
0
 40
1
 40
1
 40
1
 40
1
 10
78.160663
 20
258.807583
 30
0.0
 10
78.696858
 20
257.776439
 30
0.0
 10
78.820595
 20
256.580313
 30
0.0
 10
78.490629
 20
255.466678
 30
0.0
  0
SPLINE
  5
126
100
AcDbEntity
  8
0
 62
6
100
AcDbSpline
 70
8
 71
3
 72
8
 73
4
 74
0
 40
0
 40
0
 40
0
 40
0
 40
1
 40
1
 40
1
 40
1
 10
78.490629
 20
255.466678
 30
0.0
 10
79.521772
 20
255.466678
 30
0.0
 10
80.264196
 20
255.136712
 30
0.0
 10
81.089110
 20
254.559272
 30
0.0
  0
SPLINE
  5
127
100
AcDbEntity
  8
0
 62
6
100
AcDbSpline
 70
8
 71
3
 72
8
 73
4
 74
0
 40
0
 40
0
 40
0
 40
0
 40
1
 40
1
 40
1
 40
1
 10
81.089110
 20
254.559272
 30
0.0
 10
81.501568
 20
254.270552
 30
0.0
 10
81.996516
 20
254.188060
 30
0.0
 10
82.450220
 20
253.940586
 30
0.0
  0
SPLINE
  5
128
100
AcDbEntity
  8
0
 62
6
100
AcDbSpline
 70
8
 71
3
 72
8
 73
4
 74
0
 40
0
 40
0
 40
0
 40
0
 40
1
 40
1
 40
1
 40
1
 10
82.450220
 20
253.940586
 30
0.0
 10
82.862677
 20
253.693111
 30
0.0
 10
83.110151
 20
253.280654
 30
0.0
 10
83.357626
 20
252.868197
 30
0.0
  0
SPLINE
  5
129
100
AcDbEntity
  8
0
 62
6
100
AcDbSpline
 70
8
 71
3
 72
8
 73
4
 74
0
 40
0
 40
0
 40
0
 40
0
 40
1
 40
1
 40
1
 40
1
 10
83.357626
 20
252.868197
 30
0.0
 10
83.687592
 20
252.332002
 30
0.0
 10
84.017558
 20
251.837053
 30
0.0
 10
84.430015
 20
251.300859
 30
0.0
  0
SPLINE
  5
12a
100
AcDbEntity
  8
0
 62
6
100
AcDbSpline
 70
8
 71
3
 72
8
 73
4
 74
0
 40
0
 40
0
 40
0
 40
0
 40
1
 40
1
 40
1
 40
1
 10
84.430015
 20
251.300859
 30
0.0
 10
84.801227
 20
250.805910
 30
0.0
 10
84.718735
 20
250.187224
 30
0.0
 10
84.759981
 20
249.568538
 30
0.0
  0
SPLINE
  5
12b
100
AcDbEntity
  8
0
 62
6
100
AcDbSpline
 70
8
 71
3
 72
8
 73
4
 74
0
 40
0
 40
0
 40
0
 40
0
 40
1
 40
1
 40
1
 40
1
 10
84.759981
 20
249.568538
 30
0.0
 10
84.801227
 20
249.073589
 30
0.0
 10
85.007455
 20
248.619886
 30
0.0
 10
85.048701
 20
248.124937
 30
0.0
  0
SPLINE
  5
12c
100
AcDbEntity
  8
0
 62
6
100
AcDbSpline
 70
8
 71
3
 72
8
 73
4
 74
0
 40
0
 40
0
 40
0
 40
0
 40
1
 40
1
 40
1
 40
1
 10
85.048701
 20
248.124937
 30
0.0
 10
85.089947
 20
247.753725
 30
0.0
 10
85.007455
 20
247.382514
 30
0.0
 10
84.883718
 20
247.011302
 30
0.0
  0
SPLINE
  5
12d
100
AcDbEntity
  8
0
 62
6
100
AcDbSpline
 70
8
 71
3
 72
8
 73
4
 74
0
 40
0
 40
0
 40
0
 40
0
 40
1
 40
1
 40
1
 40
1
 10
84.883718
 20
247.011302
 30
0.0
 10
84.759981
 20
246.640090
 30
0.0
 10
84.636244
 20
246.227633
 30
0.0
 10
84.388769
 20
245.897667
 30
0.0
  0
SPLINE
  5
12e
100
AcDbEntity
  8
0
 62
6
100
AcDbSpline
 70
8
 71
3
 72
8
 73
4
 74
0
 40
0
 40
0
 40
0
 40
0
 40
1
 40
1
 40
1
 40
1
 10
84.388769
 20
245.897667
 30
0.0
 10
83.935066
 20
245.320227
 30
0.0
 10
83.605100
 20
245.815176
 30
0.0
 10
83.563854
 20
246.351370
 30
0.0
  0
SPLINE
  5
12f
100
AcDbEntity
  8
0
 62
6
100
AcDbSpline
 70
8
 71
3
 72
8
 73
4
 74
0
 40
0
 40
0
 40
0
 40
0
 40
1
 40
1
 40
1
 40
1
 10
83.563854
 20
246.351370
 30
0.0
 10
83.522609
 20
246.887565
 30
0.0
 10
83.605100
 20
247.423759
 30
0.0
 10
83.522609
 20
247.918708
 30
0.0
  0
SPLINE
  5
130
100
AcDbEntity
  8
0
 62
6
100
AcDbSpline
 70
8
 71
3
 72
8
 73
4
 74
0
 40
0
 40
0
 40
0
 40
0
 40
1
 40
1
 40
1
 40
1
 10
83.522609
 20
247.918708
 30
0.0
 10
83.440117
 20
248.454903
 30
0.0
 10
83.192643
 20
248.908606
 30
0.0
 10
82.945168
 20
249.403555
 30
0.0
  0
SPLINE
  5
131
100
AcDbEntity
  8
0
 62
6
100
AcDbSpline
 70
8
 71
3
 72
8
 73
4
 74
0
 40
0
 40
0
 40
0
 40
0
 40
1
 40
1
 40
1
 40
1
 10
82.945168
 20
249.403555
 30
0.0
 10
82.615203
 20
249.980995
 30
0.0
 10
82.285237
 20
250.599681
 30
0.0
 10
81.790288
 20
251.053384
 30
0.0
  0
SPLINE
  5
132
100
AcDbEntity
  8
0
 62
6
100
AcDbSpline
 70
8
 71
3
 72
8
 73
4
 74
0
 40
0
 40
0
 40
0
 40
0
 40
1
 40
1
 40
1
 40
1
 10
81.790288
 20
251.053384
 30
0.0
 10
81.295339
 20
251.507087
 30
0.0
 10
80.676653
 20
251.465842
 30
0.0
 10
80.057967
 20
251.630825
 30
0.0
  0
SPLINE
  5
133
100
AcDbEntity
  8
0
 62
6
100
AcDbSpline
 70
8
 71
3
 72
8
 73
4
 74
0
 40
0
 40
0
 40
0
 40
0
 40
1
 40
1
 40
1
 40
1
 10
80.057967
 20
251.630825
 30
0.0
 10
79.191806
 20
251.837053
 30
0.0
 10
78.614366
 20
252.538231
 30
0.0
 10
77.789451
 20
252.785705
 30
0.0
  0
SPLINE
  5
134
100
AcDbEntity
  8
0
 62
6
100
AcDbSpline
 70
8
 71
3
 72
8
 73
4
 74
0
 40
0
 40
0
 40
0
 40
0
 40
1
 40
1
 40
1
 40
1
 10
77.789451
 20
252.785705
 30
0.0
 10
77.335748
 20
252.909442
 30
0.0
 10
76.840799
 20
252.785705
 30
0.0
 10
76.387096
 20
252.826951
 30
0.0
  0
SPLINE
  5
135
100
AcDbEntity
  8
0
 62
6
100
AcDbSpline
 70
8
 71
3
 72
8
 73
4
 74
0
 40
0
 40
0
 40
0
 40
0
 40
1
 40
1
 40
1
 40
1
 10
76.387096
 20
252.826951
 30
0.0
 10
75.892147
 20
252.868197
 30
0.0
 10
75.479690
 20
252.950688
 30
0.0
 10
74.984741
 20
252.950688
 30
0.0
  0
SPLINE
  5
136
100
AcDbEntity
  8
0
 62
6
100
AcDbSpline
 70
8
 71
3
 72
8
 73
4
 74
0
 40
0
 40
0
 40
0
 40
0
 40
1
 40
1
 40
1
 40
1
 10
74.984741
 20
252.950688
 30
0.0
 10
74.366055
 20
252.950688
 30
0.0
 10
73.871106
 20
252.909442
 30
0.0
 10
73.293666
 20
253.074425
 30
0.0
  0
SPLINE
  5
137
100
AcDbEntity
  8
0
 62
6
100
AcDbSpline
 70
8
 71
3
 72
8
 73
4
 74
0
 40
0
 40
0
 40
0
 40
0
 40
1
 40
1
 40
1
 40
1
 10
73.293666
 20
253.074425
 30
0.0
 10
72.839963
 20
253.198163
 30
0.0
 10
72.345014
 20
253.239408
 30
0.0
 10
71.850065
 20
253.198163
 30
0.0
  0
SPLINE
  5
138
100
AcDbEntity
  8
0
 62
6
100
AcDbSpline
 70
8
 71
3
 72
8
 73
4
 74
0
 40
0
 40
0
 40
0
 40
0
 40
1
 40
1
 40
1
 40
1
 10
71.850065
 20
253.198163
 30
0.0
 10
71.437608
 20
253.198163
 30
0.0
 10
71.025150
 20
253.115671
 30
0.0
 10
70.653939
 20
252.950688
 30
0.0
  0
SPLINE
  5
139
100
AcDbEntity
  8
0
 62
6
100
AcDbSpline
 70
8
 71
3
 72
8
 73
4
 74
0
 40
0
 40
0
 40
0
 40
0
 40
1
 40
1
 40
1
 40
1
 10
70.653939
 20
252.950688
 30
0.0
 10
70.200236
 20
252.744459
 30
0.0
 10
69.829024
 20
252.496985
 30
0.0
 10
69.292829
 20
252.496985
 30
0.0
  0
SPLINE
  5
13a
100
AcDbEntity
  8
0
 62
6
100
AcDbSpline
 70
8
 71
3
 72
8
 73
4
 74
0
 40
0
 40
0
 40
0
 40
0
 40
1
 40
1
 40
1
 40
1
 10
69.292829
 20
252.496985
 30
0.0
 10
68.591652
 20
252.496985
 30
0.0
 10
67.931720
 20
252.620722
 30
0.0
 10
67.230543
 20
252.538231
 30
0.0
  0
SPLINE
  5
13b
100
AcDbEntity
  8
0
 62
6
100
AcDbSpline
 70
8
 71
3
 72
8
 73
4
 74
0
 40
0
 40
0
 40
0
 40
0
 40
1
 40
1
 40
1
 40
1
 10
67.230543
 20
252.538231
 30
0.0
 10
66.611857
 20
252.455739
 30
0.0
 10
66.281891
 20
252.125773
 30
0.0
 10
65.828188
 20
251.754562
 30
0.0
  0
SPLINE
  5
13c
100
AcDbEntity
  8
0
 62
6
100
AcDbSpline
 70
8
 71
3
 72
8
 73
4
 74
0
 40
0
 40
0
 40
0
 40
0
 40
1
 40
1
 40
1
 40
1
 10
65.828188
 20
251.754562
 30
0.0
 10
65.085764
 20
251.135876
 30
0.0
 10
64.054621
 20
251.012138
 30
0.0
 10
63.270952
 20
250.434698
 30
0.0
  0
SPLINE
  5
13d
100
AcDbEntity
  8
0
 62
6
100
AcDbSpline
 70
8
 71
3
 72
8
 73
4
 74
0
 40
0
 40
0
 40
0
 40
0
 40
1
 40
1
 40
1
 40
1
 10
63.270952
 20
250.434698
 30
0.0
 10
62.611020
 20
249.980995
 30
0.0
 10
62.363546
 20
249.156080
 30
0.0
 10
61.744860
 20
248.702377
 30
0.0
  0
SPLINE
  5
13e
100
AcDbEntity
  8
0
 62
6
100
AcDbSpline
 70
8
 71
3
 72
8
 73
4
 74
0
 40
0
 40
0
 40
0
 40
0
 40
1
 40
1
 40
1
 40
1
 10
61.744860
 20
248.702377
 30
0.0
 10
61.291156
 20
248.372411
 30
0.0
 10
60.796208
 20
248.124937
 30
0.0
 10
60.342505
 20
247.753725
 30
0.0
  0
SPLINE
  5
13f
100
AcDbEntity
  8
0
 62
6
100
AcDbSpline
 70
8
 71
3
 72
8
 73
4
 74
0
 40
0
 40
0
 40
0
 40
0
 40
1
 40
1
 40
1
 40
1
 10
60.342505
 20
247.753725
 30
0.0
 10
60.012539
 20
247.506251
 30
0.0
 10
59.765064
 20
247.176285
 30
0.0
 10
59.558836
 20
246.805073
 30
0.0
  0
SPLINE
  5
140
100
AcDbEntity
  8
0
 62
6
100
AcDbSpline
 70
8
 71
3
 72
8
 73
4
 74
0
 40
0
 40
0
 40
0
 40
0
 40
1
 40
1
 40
1
 40
1
 10
59.558836
 20
246.805073
 30
0.0
 10
59.352607
 20
246.475107
 30
0.0
 10
59.187624
 20
246.145141
 30
0.0
 10
58.981395
 20
245.815176
 30
0.0
  0
SPLINE
  5
141
100
AcDbEntity
  8
0
 62
6
100
AcDbSpline
 70
8
 71
3
 72
8
 73
4
 74
0
 40
0
 40
0
 40
0
 40
0
 40
1
 40
1
 40
1
 40
1
 10
58.981395
 20
245.815176
 30
0.0
 10
58.816412
 20
245.567701
 30
0.0
 10
58.651429
 20
245.443964
 30
0.0
 10
58.527692
 20
245.773930
 30
0.0
  0
SPLINE
  5
142
100
AcDbEntity
  8
0
 62
6
100
AcDbSpline
 70
8
 71
3
 72
8
 73
4
 74
0
 40
0
 40
0
 40
0
 40
0
 40
1
 40
1
 40
1
 40
1
 10
58.527692
 20
245.773930
 30
0.0
 10
58.321463
 20
246.268879
 30
0.0
 10
58.321463
 20
246.928810
 30
0.0
 10
58.321463
 20
247.423759
 30
0.0
  0
SPLINE
  5
143
100
AcDbEntity
  8
0
 62
6
100
AcDbSpline
 70
8
 71
3
 72
8
 73
4
 74
0
 40
0
 40
0
 40
0
 40
0
 40
1
 40
1
 40
1
 40
1
 10
58.321463
 20
247.423759
 30
0.0
 10
58.362709
 20
248.083691
 30
0.0
 10
58.568938
 20
248.661131
 30
0.0
 10
58.981395
 20
249.156080
 30
0.0
  0
SPLINE
  5
144
100
AcDbEntity
  8
0
 62
6
100
AcDbSpline
 70
8
 71
3
 72
8
 73
4
 74
0
 40
0
 40
0
 40
0
 40
0
 40
1
 40
1
 40
1
 40
1
 10
58.981395
 20
249.156080
 30
0.0
 10
59.352607
 20
249.609783
 30
0.0
 10
59.847556
 20
249.980995
 30
0.0
 10
60.177522
 20
250.475944
 30
0.0
  0
SPLINE
  5
145
100
AcDbEntity
  8
0
 62
6
100
AcDbSpline
 70
8
 71
3
 72
8
 73
4
 74
0
 40
0
 40
0
 40
0
 40
0
 40
1
 40
1
 40
1
 40
1
 10
60.177522
 20
250.475944
 30
0.0
 10
60.466242
 20
250.929647
 30
0.0
 10
60.466242
 20
251.465842
 30
0.0
 10
60.919945
 20
251.795807
 30
0.0
  0
SPLINE
  5
146
100
AcDbEntity
  8
0
 62
6
100
AcDbSpline
 70
8
 71
3
 72
8
 73
4
 74
0
 40
0
 40
0
 40
0
 40
0
 40
1
 40
1
 40
1
 40
1
 10
60.919945
 20
251.795807
 30
0.0
 10
61.373648
 20
252.208265
 30
0.0
 10
61.992334
 20
252.414494
 30
0.0
 10
62.528529
 20
252.703214
 30
0.0
  0
SPLINE
  5
147
100
AcDbEntity
  8
0
 62
6
100
AcDbSpline
 70
8
 71
3
 72
8
 73
4
 74
0
 40
0
 40
0
 40
0
 40
0
 40
1
 40
1
 40
1
 40
1
 10
62.528529
 20
252.703214
 30
0.0
 10
63.270952
 20
253.074425
 30
0.0
 10
63.930884
 20
253.610620
 30
0.0
 10
64.632061
 20
253.981832
 30
0.0
  0
SPLINE
  5
148
100
AcDbEntity
  8
0
 62
6
100
AcDbSpline
 70
8
 71
3
 72
8
 73
4
 74
0
 40
0
 40
0
 40
0
 40
0
 40
1
 40
1
 40
1
 40
1
 10
64.632061
 20
253.981832
 30
0.0
 10
65.209501
 20
254.270552
 30
0.0
 10
65.869433
 20
254.394289
 30
0.0
 10
66.488119
 20
254.559272
 30
0.0
  0
SPLINE
  5
149
100
AcDbEntity
  8
0
 62
6
100
AcDbSpline
 70
8
 71
3
 72
8
 73
4
 74
0
 40
0
 40
0
 40
0
 40
0
 40
1
 40
1
 40
1
 40
1
 10
66.488119
 20
254.559272
 30
0.0
 10
67.230543
 20
254.765501
 30
0.0
 10
67.931720
 20
255.136712
 30
0.0
 10
68.632898
 20
255.425432
 30
0.0
  0
SPLINE
  5
14a
100
AcDbEntity
  8
0
 62
6
100
AcDbSpline
 70
8
 71
3
 72
8
 73
4
 74
0
 40
0
 40
0
 40
0
 40
0
 40
1
 40
1
 40
1
 40
1
 10
68.632898
 20
255.425432
 30
0.0
 10
69.004109
 20
255.796644
 30
0.0
 10
69.540304
 20
255.879135
 30
0.0
 10
70.117744
 20
255.961627
 30
0.0
  0
LWPOLYLINE
  5
14b
100
AcDbEntity
  8
0
 62
6
100
AcDbPolyline
 90
1
 70
1
 10
62.322300
 20
222.717563
 30
0.0
  0
SPLINE
  5
14c
100
AcDbEntity
  8
0
 62
6
100
AcDbSpline
 70
8
 71
3
 72
8
 73
4
 74
0
 40
0
 40
0
 40
0
 40
0
 40
1
 40
1
 40
1
 40
1
 10
78.655612
 20
257.075262
 30
0.0
 10
79.480527
 20
256.704050
 30
0.0
 10
80.305441
 20
256.209101
 30
0.0
 10
81.006619
 20
255.631661
 30
0.0
  0
SPLINE
  5
14d
100
AcDbEntity
  8
0
 62
6
100
AcDbSpline
 70
8
 71
3
 72
8
 73
4
 74
0
 40
0
 40
0
 40
0
 40
0
 40
1
 40
1
 40
1
 40
1
 10
81.006619
 20
255.631661
 30
0.0
 10
81.542813
 20
255.177958
 30
0.0
 10
81.831534
 20
254.683009
 30
0.0
 10
82.161499
 20
254.064323
 30
0.0
  0
SPLINE
  5
14e
100
AcDbEntity
  8
0
 62
6
100
AcDbSpline
 70
8
 71
3
 72
8
 73
4
 74
0
 40
0
 40
0
 40
0
 40
0
 40
1
 40
1
 40
1
 40
1
 10
62.074825
 20
252.744459
 30
0.0
 10
63.600918
 20
254.765501
 30
0.0
 10
65.415730
 20
256.250347
 30
0.0
 10
67.849229
 20
256.992770
 30
0.0
  0
SPLINE
  5
14f
100
AcDbEntity
  8
0
 62
6
100
AcDbSpline
 70
8
 71
3
 72
8
 73
4
 74
0
 40
0
 40
0
 40
0
 40
0
 40
1
 40
1
 40
1
 40
1
 10
67.849229
 20
256.992770
 30
0.0
 10
68.591652
 20
257.198999
 30
0.0
 10
69.334075
 20
257.363982
 30
0.0
 10
70.076498
 20
257.528965
 30
0.0
  0
SPLINE
  5
150
100
AcDbEntity
  8
0
 62
6
100
AcDbSpline
 70
8
 71
3
 72
8
 73
4
 74
0
 40
0
 40
0
 40
0
 40
0
 40
1
 40
1
 40
1
 40
1
 10
83.728837
 20
245.732684
 30
0.0
 10
83.646346
 20
244.041609
 30
0.0
 10
83.605100
 20
242.309288
 30
0.0
 10
83.440117
 20
240.618213
 30
0.0
  0
SPLINE
  5
151
100
AcDbEntity
  8
0
 62
6
100
AcDbSpline
 70
8
 71
3
 72
8
 73
4
 74
0
 40
0
 40
0
 40
0
 40
0
 40
1
 40
1
 40
1
 40
1
 10
83.440117
 20
240.618213
 30
0.0
 10
83.316380
 20
239.174612
 30
0.0
 10
83.110151
 20
237.813503
 30
0.0
 10
82.326482
 20
236.617376
 30
0.0
  0
SPLINE
  5
152
100
AcDbEntity
  8
0
 62
6
100
AcDbSpline
 70
8
 71
3
 72
8
 73
4
 74
0
 40
0
 40
0
 40
0
 40
0
 40
1
 40
1
 40
1
 40
1
 10
82.326482
 20
236.617376
 30
0.0
 10
81.914025
 20
235.998690
 30
0.0
 10
81.501568
 20
235.338758
 30
0.0
 10
81.006619
 20
234.843810
 30
0.0
  0
SPLINE
  5
153
100
AcDbEntity
  8
0
 62
6
100
AcDbSpline
 70
8
 71
3
 72
8
 73
4
 74
0
 40
0
 40
0
 40
0
 40
0
 40
1
 40
1
 40
1
 40
1
 10
81.006619
 20
234.843810
 30
0.0
 10
80.429178
 20
234.266369
 30
0.0
 10
80.594161
 20
235.173775
 30
0.0
 10
80.676653
 20
235.544987
 30
0.0
  0
SPLINE
  5
154
100
AcDbEntity
  8
0
 62
6
100
AcDbSpline
 70
8
 71
3
 72
8
 73
4
 74
0
 40
0
 40
0
 40
0
 40
0
 40
1
 40
1
 40
1
 40
1
 10
80.676653
 20
235.544987
 30
0.0
 10
80.924127
 20
236.658622
 30
0.0
 10
81.501568
 20
237.731011
 30
0.0
 10
81.501568
 20
238.885892
 30
0.0
  0
SPLINE
  5
155
100
AcDbEntity
  8
0
 62
6
100
AcDbSpline
 70
8
 71
3
 72
8
 73
4
 74
0
 40
0
 40
0
 40
0
 40
0
 40
1
 40
1
 40
1
 40
1
 10
81.501568
 20
238.885892
 30
0.0
 10
81.501568
 20
239.628315
 30
0.0
 10
81.295339
 20
240.329493
 30
0.0
 10
81.254093
 20
241.071916
 30
0.0
  0
SPLINE
  5
156
100
AcDbEntity
  8
0
 62
6
100
AcDbSpline
 70
8
 71
3
 72
8
 73
4
 74
0
 40
0
 40
0
 40
0
 40
0
 40
1
 40
1
 40
1
 40
1
 10
81.254093
 20
241.071916
 30
0.0
 10
81.171602
 20
241.814339
 30
0.0
 10
81.254093
 20
242.556762
 30
0.0
 10
81.171602
 20
243.257940
 30
0.0
  0
SPLINE
  5
157
100
AcDbEntity
  8
0
 62
6
100
AcDbSpline
 70
8
 71
3
 72
8
 73
4
 74
0
 40
0
 40
0
 40
0
 40
0
 40
1
 40
1
 40
1
 40
1
 10
81.171602
 20
243.257940
 30
0.0
 10
81.089110
 20
244.082855
 30
0.0
 10
80.552916
 20
244.660295
 30
0.0
 10
80.305441
 20
245.443964
 30
0.0
  0
SPLINE
  5
158
100
AcDbEntity
  8
0
 62
6
100
AcDbSpline
 70
8
 71
3
 72
8
 73
4
 74
0
 40
0
 40
0
 40
0
 40
0
 40
1
 40
1
 40
1
 40
1
 10
80.305441
 20
245.443964
 30
0.0
 10
80.181704
 20
245.897667
 30
0.0
 10
80.181704
 20
246.598845
 30
0.0
 10
79.769247
 20
246.887565
 30
0.0
  0
SPLINE
  5
159
100
AcDbEntity
  8
0
 62
6
100
AcDbSpline
 70
8
 71
3
 72
8
 73
4
 74
0
 40
0
 40
0
 40
0
 40
0
 40
1
 40
1
 40
1
 40
1
 10
79.769247
 20
246.887565
 30
0.0
 10
79.398035
 20
247.135039
 30
0.0
 10
78.820595
 20
247.011302
 30
0.0
 10
78.408137
 20
246.970056
 30
0.0
  0
SPLINE
  5
15a
100
AcDbEntity
  8
0
 62
6
100
AcDbSpline
 70
8
 71
3
 72
8
 73
4
 74
0
 40
0
 40
0
 40
0
 40
0
 40
1
 40
1
 40
1
 40
1
 10
78.408137
 20
246.970056
 30
0.0
 10
77.913189
 20
246.928810
 30
0.0
 10
77.418240
 20
246.887565
 30
0.0
 10
76.923291
 20
246.928810
 30
0.0
  0
SPLINE
  5
15b
100
AcDbEntity
  8
0
 62
6
100
AcDbSpline
 70
8
 71
3
 72
8
 73
4
 74
0
 40
0
 40
0
 40
0
 40
0
 40
1
 40
1
 40
1
 40
1
 10
76.923291
 20
246.928810
 30
0.0
 10
76.428342
 20
247.011302
 30
0.0
 10
75.933393
 20
247.135039
 30
0.0
 10
75.438444
 20
247.093793
 30
0.0
  0
SPLINE
  5
15c
100
AcDbEntity
  8
0
 62
6
100
AcDbSpline
 70
8
 71
3
 72
8
 73
4
 74
0
 40
0
 40
0
 40
0
 40
0
 40
1
 40
1
 40
1
 40
1
 10
75.438444
 20
247.093793
 30
0.0
 10
74.118581
 20
247.052548
 30
0.0
 10
72.881209
 20
246.351370
 30
0.0
 10
71.726328
 20
245.815176
 30
0.0
  0
SPLINE
  5
15d
100
AcDbEntity
  8
0
 62
6
100
AcDbSpline
 70
8
 71
3
 72
8
 73
4
 74
0
 40
0
 40
0
 40
0
 40
0
 40
1
 40
1
 40
1
 40
1
 10
71.726328
 20
245.815176
 30
0.0
 10
70.901413
 20
245.443964
 30
0.0
 10
69.911516
 20
245.031507
 30
0.0
 10
69.004109
 20
245.237735
 30
0.0
  0
SPLINE
  5
15e
100
AcDbEntity
  8
0
 62
6
100
AcDbSpline
 70
8
 71
3
 72
8
 73
4
 74
0
 40
0
 40
0
 40
0
 40
0
 40
1
 40
1
 40
1
 40
1
 10
69.004109
 20
245.237735
 30
0.0
 10
68.220440
 20
245.443964
 30
0.0
 10
67.395526
 20
246.227633
 30
0.0
 10
66.776840
 20
245.402718
 30
0.0
  0
SPLINE
  5
15f
100
AcDbEntity
  8
0
 62
6
100
AcDbSpline
 70
8
 71
3
 72
8
 73
4
 74
0
 40
0
 40
0
 40
0
 40
0
 40
1
 40
1
 40
1
 40
1
 10
66.776840
 20
245.402718
 30
0.0
 10
66.405628
 20
244.949015
 30
0.0
 10
66.199399
 20
244.330329
 30
0.0
 10
65.951925
 20
243.794134
 30
0.0
  0
SPLINE
  5
160
100
AcDbEntity
  8
0
 62
6
100
AcDbSpline
 70
8
 71
3
 72
8
 73
4
 74
0
 40
0
 40
0
 40
0
 40
0
 40
1
 40
1
 40
1
 40
1
 10
65.951925
 20
243.794134
 30
0.0
 10
65.704450
 20
243.299186
 30
0.0
 10
65.456976
 20
242.762991
 30
0.0
 10
65.333239
 20
242.226796
 30
0.0
  0
SPLINE
  5
161
100
AcDbEntity
  8
0
 62
6
100
AcDbSpline
 70
8
 71
3
 72
8
 73
4
 74
0
 40
0
 40
0
 40
0
 40
0
 40
1
 40
1
 40
1
 40
1
 10
65.333239
 20
242.226796
 30
0.0
 10
65.209501
 20
241.731848
 30
0.0
 10
65.250747
 20
241.195653
 30
0.0
 10
65.209501
 20
240.700704
 30
0.0
  0
SPLINE
  5
162
100
AcDbEntity
  8
0
 62
6
100
AcDbSpline
 70
8
 71
3
 72
8
 73
4
 74
0
 40
0
 40
0
 40
0
 40
0
 40
1
 40
1
 40
1
 40
1
 10
65.209501
 20
240.700704
 30
0.0
 10
65.168256
 20
240.205755
 30
0.0
 10
64.962027
 20
239.834544
 30
0.0
 10
64.755798
 20
239.380841
 30
0.0
  0
SPLINE
  5
163
100
AcDbEntity
  8
0
 62
6
100
AcDbSpline
 70
8
 71
3
 72
8
 73
4
 74
0
 40
0
 40
0
 40
0
 40
0
 40
1
 40
1
 40
1
 40
1
 10
64.755798
 20
239.380841
 30
0.0
 10
64.343341
 20
238.555926
 30
0.0
 10
64.302095
 20
237.731011
 30
0.0
 10
64.384587
 20
236.782359
 30
0.0
  0
SPLINE
  5
164
100
AcDbEntity
  8
0
 62
6
100
AcDbSpline
 70
8
 71
3
 72
8
 73
4
 74
0
 40
0
 40
0
 40
0
 40
0
 40
1
 40
1
 40
1
 40
1
 10
64.384587
 20
236.782359
 30
0.0
 10
64.508324
 20
235.050038
 30
0.0
 10
64.797044
 20
233.358963
 30
0.0
 10
65.044519
 20
231.626642
 30
0.0
  0
SPLINE
  5
165
100
AcDbEntity
  8
0
 62
6
100
AcDbSpline
 70
8
 71
3
 72
8
 73
4
 74
0
 40
0
 40
0
 40
0
 40
0
 40
1
 40
1
 40
1
 40
1
 10
65.044519
 20
231.626642
 30
0.0
 10
65.168256
 20
230.842973
 30
0.0
 10
65.250747
 20
230.059304
 30
0.0
 10
65.291993
 20
229.234389
 30
0.0
  0
SPLINE
  5
166
100
AcDbEntity
  8
0
 62
6
100
AcDbSpline
 70
8
 71
3
 72
8
 73
4
 74
0
 40
0
 40
0
 40
0
 40
0
 40
1
 40
1
 40
1
 40
1
 10
65.291993
 20
229.234389
 30
0.0
 10
65.291993
 20
228.945669
 30
0.0
 10
65.374484
 20
228.079509
 30
0.0
 10
65.003273
 20
227.955771
 30
0.0
  0
SPLINE
  5
167
100
AcDbEntity
  8
0
 62
6
100
AcDbSpline
 70
8
 71
3
 72
8
 73
4
 74
0
 40
0
 40
0
 40
0
 40
0
 40
1
 40
1
 40
1
 40
1
 10
65.003273
 20
227.955771
 30
0.0
 10
64.632061
 20
227.790788
 30
0.0
 10
64.219604
 20
228.491966
 30
0.0
 10
64.054621
 20
228.698195
 30
0.0
  0
SPLINE
  5
168
100
AcDbEntity
  8
0
 62
6
100
AcDbSpline
 70
8
 71
3
 72
8
 73
4
 74
0
 40
0
 40
0
 40
0
 40
0
 40
1
 40
1
 40
1
 40
1
 10
64.054621
 20
228.698195
 30
0.0
 10
63.642163
 20
229.316881
 30
0.0
 10
63.312198
 20
230.018058
 30
0.0
 10
62.982232
 20
230.719236
 30
0.0
  0
SPLINE
  5
169
100
AcDbEntity
  8
0
 62
6
100
AcDbSpline
 70
8
 71
3
 72
8
 73
4
 74
0
 40
0
 40
0
 40
0
 40
0
 40
1
 40
1
 40
1
 40
1
 10
62.982232
 20
230.719236
 30
0.0
 10
62.239808
 20
232.286574
 30
0.0
 10
61.497385
 20
233.853912
 30
0.0
 10
60.796208
 20
235.421250
 30
0.0
  0
SPLINE
  5
16a
100
AcDbEntity
  8
0
 62
6
100
AcDbSpline
 70
8
 71
3
 72
8
 73
4
 74
0
 40
0
 40
0
 40
0
 40
0
 40
1
 40
1
 40
1
 40
1
 10
60.796208
 20
235.421250
 30
0.0
 10
60.136276
 20
236.906096
 30
0.0
 10
59.393853
 20
238.432189
 30
0.0
 10
59.063887
 20
239.999527
 30
0.0
  0
SPLINE
  5
16b
100
AcDbEntity
  8
0
 62
6
100
AcDbSpline
 70
8
 71
3
 72
8
 73
4
 74
0
 40
0
 40
0
 40
0
 40
0
 40
1
 40
1
 40
1
 40
1
 10
59.063887
 20
239.999527
 30
0.0
 10
58.816412
 20
241.236899
 30
0.0
 10
59.105132
 20
242.433025
 30
0.0
 10
59.105132
 20
243.670397
 30
0.0
  0
SPLINE
  5
16c
100
AcDbEntity
  8
0
 62
6
100
AcDbSpline
 70
8
 71
3
 72
8
 73
4
 74
0
 40
0
 40
0
 40
0
 40
0
 40
1
 40
1
 40
1
 40
1
 10
59.105132
 20
243.670397
 30
0.0
 10
59.105132
 20
244.454066
 30
0.0
 10
59.063887
 20
245.237735
 30
0.0
 10
58.981395
 20
245.980159
 30
0.0
  0
SPLINE
  5
16d
100
AcDbEntity
  8
0
 62
6
100
AcDbSpline
 70
8
 71
3
 72
8
 73
4
 74
0
 40
0
 40
0
 40
0
 40
0
 40
1
 40
1
 40
1
 40
1
 10
80.594161
 20
234.802564
 30
0.0
 10
80.346687
 20
233.936403
 30
0.0
 10
80.016721
 20
233.111489
 30
0.0
 10
79.810492
 20
232.245328
 30
0.0
  0
SPLINE
  5
16e
100
AcDbEntity
  8
0
 62
6
100
AcDbSpline
 70
8
 71
3
 72
8
 73
4
 74
0
 40
0
 40
0
 40
0
 40
0
 40
1
 40
1
 40
1
 40
1
 10
79.810492
 20
232.245328
 30
0.0
 10
79.645509
 20
231.544151
 30
0.0
 10
79.563018
 20
230.760482
 30
0.0
 10
79.315544
 20
230.059304
 30
0.0
  0
SPLINE
  5
16f
100
AcDbEntity
  8
0
 62
6
100
AcDbSpline
 70
8
 71
3
 72
8
 73
4
 74
0
 40
0
 40
0
 40
0
 40
0
 40
1
 40
1
 40
1
 40
1
 10
79.315544
 20
230.059304
 30
0.0
 10
78.903086
 20
228.945669
 30
0.0
 10
77.995680
 20
228.120754
 30
0.0
 10
77.005782
 20
227.502068
 30
0.0
  0
SPLINE
  5
170
100
AcDbEntity
  8
0
 62
6
100
AcDbSpline
 70
8
 71
3
 72
8
 73
4
 74
0
 40
0
 40
0
 40
0
 40
0
 40
1
 40
1
 40
1
 40
1
 10
77.005782
 20
227.502068
 30
0.0
 10
75.809656
 20
226.759645
 30
0.0
 10
74.407301
 20
226.347188
 30
0.0
 10
72.963700
 20
226.388433
 30
0.0
  0
SPLINE
  5
171
100
AcDbEntity
  8
0
 62
6
100
AcDbSpline
 70
8
 71
3
 72
8
 73
4
 74
0
 40
0
 40
0
 40
0
 40
0
 40
1
 40
1
 40
1
 40
1
 10
72.963700
 20
226.388433
 30
0.0
 10
71.437608
 20
226.429679
 30
0.0
 10
69.952761
 20
226.924628
 30
0.0
 10
68.632898
 20
227.708297
 30
0.0
  0
SPLINE
  5
172
100
AcDbEntity
  8
0
 62
6
100
AcDbSpline
 70
8
 71
3
 72
8
 73
4
 74
0
 40
0
 40
0
 40
0
 40
0
 40
1
 40
1
 40
1
 40
1
 10
68.632898
 20
227.708297
 30
0.0
 10
67.313034
 20
228.491966
 30
0.0
 10
66.158153
 20
229.564355
 30
0.0
 10
65.291993
 20
230.884219
 30
0.0
  0
SPLINE
  5
173
100
AcDbEntity
  8
0
 62
6
100
AcDbSpline
 70
8
 71
3
 72
8
 73
4
 74
0
 40
0
 40
0
 40
0
 40
0
 40
1
 40
1
 40
1
 40
1
 10
65.291993
 20
230.884219
 30
0.0
 10
65.168256
 20
231.049202
 30
0.0
 10
65.044519
 20
231.255430
 30
0.0
 10
64.962027
 20
231.420413
 30
0.0
  0
SPLINE
  5
174
100
AcDbEntity
  8
0
 62
6
100
AcDbSpline
 70
8
 71
3
 72
8
 73
4
 74
0
 40
0
 40
0
 40
0
 40
0
 40
1
 40
1
 40
1
 40
1
 10
79.769247
 20
225.316044
 30
0.0
 10
80.057967
 20
226.305942
 30
0.0
 10
80.057967
 20
227.460823
 30
0.0
 10
79.563018
 20
228.450720
 30
0.0
  0
SPLINE
  5
175
100
AcDbEntity
  8
0
 62
6
100
AcDbSpline
 70
8
 71
3
 72
8
 73
4
 74
0
 40
0
 40
0
 40
0
 40
0
 40
1
 40
1
 40
1
 40
1
 10
79.563018
 20
228.450720
 30
0.0
 10
79.398035
 20
228.821932
 30
0.0
 10
79.109315
 20
228.986915
 30
0.0
 10
78.779349
 20
229.151898
 30
0.0
  0
SPLINE
  5
176
100
AcDbEntity
  8
0
 62
6
100
AcDbSpline
 70
8
 71
3
 72
8
 73
4
 74
0
 40
0
 40
0
 40
0
 40
0
 40
1
 40
1
 40
1
 40
1
 10
72.922454
 20
226.388433
 30
0.0
 10
72.138785
 20
226.553416
 30
0.0
 10
71.313871
 20
226.429679
 30
0.0
 10
70.571447
 20
226.182205
 30
0.0
  0
SPLINE
  5
177
100
AcDbEntity
  8
0
 62
6
100
AcDbSpline
 70
8
 71
3
 72
8
 73
4
 74
0
 40
0
 40
0
 40
0
 40
0
 40
1
 40
1
 40
1
 40
1
 10
70.571447
 20
226.182205
 30
0.0
 10
70.117744
 20
226.017222
 30
0.0
 10
69.746533
 20
225.852239
 30
0.0
 10
69.499058
 20
225.439781
 30
0.0
  0
SPLINE
  5
178
100
AcDbEntity
  8
0
 62
6
100
AcDbSpline
 70
8
 71
3
 72
8
 73
4
 74
0
 40
0
 40
0
 40
0
 40
0
 40
1
 40
1
 40
1
 40
1
 10
69.499058
 20
225.439781
 30
0.0
 10
69.210338
 20
224.944833
 30
0.0
 10
69.045355
 20
224.326147
 30
0.0
 10
68.839126
 20
223.789952
 30
0.0
  0
SPLINE
  5
179
100
AcDbEntity
  8
0
 62
6
100
AcDbSpline
 70
8
 71
3
 72
8
 73
4
 74
0
 40
0
 40
0
 40
0
 40
0
 40
1
 40
1
 40
1
 40
1
 10
68.839126
 20
223.789952
 30
0.0
 10
68.715389
 20
223.501232
 30
0.0
 10
68.509160
 20
222.882546
 30
0.0
 10
68.302932
 20
223.459986
 30
0.0
  0
SPLINE
  5
17a
100
AcDbEntity
  8
0
 62
6
100
AcDbSpline
 70
8
 71
3
 72
8
 73
4
 74
0
 40
0
 40
0
 40
0
 40
0
 40
1
 40
1
 40
1
 40
1
 10
68.302932
 20
223.459986
 30
0.0
 10
68.179195
 20
223.913689
 30
0.0
 10
68.096703
 20
224.367392
 30
0.0
 10
67.890474
 20
224.821095
 30
0.0
  0
SPLINE
  5
17b
100
AcDbEntity
  8
0
 62
6
100
AcDbSpline
 70
8
 71
3
 72
8
 73
4
 74
0
 40
0
 40
0
 40
0
 40
0
 40
1
 40
1
 40
1
 40
1
 10
67.890474
 20
224.821095
 30
0.0
 10
67.519263
 20
225.646010
 30
0.0
 10
66.859331
 20
225.810993
 30
0.0
 10
66.158153
 20
226.223450
 30
0.0
  0
SPLINE
  5
17c
100
AcDbEntity
  8
0
 62
6
100
AcDbSpline
 70
8
 71
3
 72
8
 73
4
 74
0
 40
0
 40
0
 40
0
 40
0
 40
1
 40
1
 40
1
 40
1
 10
66.158153
 20
226.223450
 30
0.0
 10
65.745696
 20
226.470925
 30
0.0
 10
65.580713
 20
226.842137
 30
0.0
 10
65.415730
 20
227.295840
 30
0.0
  0
SPLINE
  5
17d
100
AcDbEntity
  8
0
 62
6
100
AcDbSpline
 70
8
 71
3
 72
8
 73
4
 74
0
 40
0
 40
0
 40
0
 40
0
 40
1
 40
1
 40
1
 40
1
 10
65.415730
 20
227.295840
 30
0.0
 10
65.250747
 20
227.749543
 30
0.0
 10
65.127010
 20
228.203246
 30
0.0
 10
65.127010
 20
228.698195
 30
0.0
  0
SPLINE
  5
17e
100
AcDbEntity
  8
0
 62
6
100
AcDbSpline
 70
8
 71
3
 72
8
 73
4
 74
0
 40
0
 40
0
 40
0
 40
0
 40
1
 40
1
 40
1
 40
1
 10
65.291993
 20
227.790788
 30
0.0
 10
64.879536
 20
227.543314
 30
0.0
 10
64.343341
 20
227.543314
 30
0.0
 10
63.930884
 20
227.295840
 30
0.0
  0
SPLINE
  5
17f
100
AcDbEntity
  8
0
 62
6
100
AcDbSpline
 70
8
 71
3
 72
8
 73
4
 74
0
 40
0
 40
0
 40
0
 40
0
 40
1
 40
1
 40
1
 40
1
 10
63.930884
 20
227.295840
 30
0.0
 10
63.559672
 20
227.048365
 30
0.0
 10
63.435935
 20
226.635908
 30
0.0
 10
63.394689
 20
226.223450
 30
0.0
  0
SPLINE
  5
180
100
AcDbEntity
  8
0
 62
6
100
AcDbSpline
 70
8
 71
3
 72
8
 73
4
 74
0
 40
0
 40
0
 40
0
 40
0
 40
1
 40
1
 40
1
 40
1
 10
63.394689
 20
226.223450
 30
0.0
 10
63.353443
 20
225.687256
 30
0.0
 10
63.477181
 20
225.151061
 30
0.0
 10
63.559672
 20
224.614867
 30
0.0
  0
SPLINE
  5
181
100
AcDbEntity
  8
0
 62
6
100
AcDbSpline
 70
8
 71
3
 72
8
 73
4
 74
0
 40
0
 40
0
 40
0
 40
0
 40
1
 40
1
 40
1
 40
1
 10
63.559672
 20
224.614867
 30
0.0
 10
63.600918
 20
224.243655
 30
0.0
 10
63.683409
 20
223.831198
 30
0.0
 10
63.559672
 20
223.459986
 30
0.0
  0
SPLINE
  5
182
100
AcDbEntity
  8
0
 62
6
100
AcDbSpline
 70
8
 71
3
 72
8
 73
4
 74
0
 40
0
 40
0
 40
0
 40
0
 40
1
 40
1
 40
1
 40
1
 10
63.559672
 20
223.459986
 30
0.0
 10
63.353443
 20
223.006283
 30
0.0
 10
62.817249
 20
222.800054
 30
0.0
 10
62.322300
 20
222.717563
 30
0.0
  0
SPLINE
  5
183
100
AcDbEntity
  8
0
 62
6
100
AcDbSpline
 70
8
 71
3
 72
8
 73
4
 74
0
 40
0
 40
0
 40
0
 40
0
 40
1
 40
1
 40
1
 40
1
 10
99.649692
 20
209.890139
 30
0.0
 10
100.268378
 20
208.075326
 30
0.0
 10
100.887064
 20
206.219268
 30
0.0
 10
101.464504
 20
204.404456
 30
0.0
  0
SPLINE
  5
184
100
AcDbEntity
  8
0
 62
6
100
AcDbSpline
 70
8
 71
3
 72
8
 73
4
 74
0
 40
0
 40
0
 40
0
 40
0
 40
1
 40
1
 40
1
 40
1
 10
101.464504
 20
204.404456
 30
0.0
 10
102.000699
 20
202.672135
 30
0.0
 10
102.536894
 20
200.981059
 30
0.0
 10
103.031842
 20
199.248738
 30
0.0
  0
SPLINE
  5
185
100
AcDbEntity
  8
0
 62
6
100
AcDbSpline
 70
8
 71
3
 72
8
 73
4
 74
0
 40
0
 40
0
 40
0
 40
0
 40
1
 40
1
 40
1
 40
1
 10
103.031842
 20
199.248738
 30
0.0
 10
103.526791
 20
197.640155
 30
0.0
 10
103.980494
 20
195.990325
 30
0.0
 10
104.434197
 20
194.381741
 30
0.0
  0
SPLINE
  5
186
100
AcDbEntity
  8
0
 62
6
100
AcDbSpline
 70
8
 71
3
 72
8
 73
4
 74
0
 40
0
 40
0
 40
0
 40
0
 40
1
 40
1
 40
1
 40
1
 10
104.434197
 20
194.381741
 30
0.0
 10
104.929146
 20
192.566929
 30
0.0
 10
105.424095
 20
190.752117
 30
0.0
 10
105.836553
 20
188.937304
 30
0.0
  0
SPLINE
  5
187
100
AcDbEntity
  8
0
 62
6
100
AcDbSpline
 70
8
 71
3
 72
8
 73
4
 74
0
 40
0
 40
0
 40
0
 40
0
 40
1
 40
1
 40
1
 40
1
 10
105.836553
 20
188.937304
 30
0.0
 10
106.249010
 20
187.163737
 30
0.0
 10
106.661467
 20
185.390171
 30
0.0
 10
106.908942
 20
183.575358
 30
0.0
  0
SPLINE
  5
188
100
AcDbEntity
  8
0
 62
6
100
AcDbSpline
 70
8
 71
3
 72
8
 73
4
 74
0
 40
0
 40
0
 40
0
 40
0
 40
1
 40
1
 40
1
 40
1
 10
106.908942
 20
183.575358
 30
0.0
 10
107.073925
 20
182.296740
 30
0.0
 10
107.197662
 20
180.935631
 30
0.0
 10
106.826450
 20
179.657013
 30
0.0
  0
SPLINE
  5
189
100
AcDbEntity
  8
0
 62
6
100
AcDbSpline
 70
8
 71
3
 72
8
 73
4
 74
0
 40
0
 40
0
 40
0
 40
0
 40
1
 40
1
 40
1
 40
1
 10
106.826450
 20
179.657013
 30
0.0
 10
106.372747
 20
178.130921
 30
0.0
 10
105.341604
 20
176.811057
 30
0.0
 10
104.475443
 20
175.532440
 30
0.0
  0
SPLINE
  5
18a
100
AcDbEntity
  8
0
 62
6
100
AcDbSpline
 70
8
 71
3
 72
8
 73
4
 74
0
 40
0
 40
0
 40
0
 40
0
 40
1
 40
1
 40
1
 40
1
 10
104.475443
 20
175.532440
 30
0.0
 10
103.485546
 20
174.088839
 30
0.0
 10
102.495648
 20
172.645238
 30
0.0
 10
101.423259
 20
171.242883
 30
0.0
  0
SPLINE
  5
18b
100
AcDbEntity
  8
0
 62
6
100
AcDbSpline
 70
8
 71
3
 72
8
 73
4
 74
0
 40
0
 40
0
 40
0
 40
0
 40
1
 40
1
 40
1
 40
1
 10
101.423259
 20
171.242883
 30
0.0
 10
100.350869
 20
169.840528
 30
0.0
 10
99.237235
 20
168.438173
 30
0.0
 10
98.041108
 20
167.159555
 30
0.0
  0
SPLINE
  5
18c
100
AcDbEntity
  8
0
 62
6
100
AcDbSpline
 70
8
 71
3
 72
8
 73
4
 74
0
 40
0
 40
0
 40
0
 40
0
 40
1
 40
1
 40
1
 40
1
 10
98.041108
 20
167.159555
 30
0.0
 10
96.844982
 20
165.839691
 30
0.0
 10
95.566364
 20
164.561074
 30
0.0
 10
94.246500
 20
163.323701
 30
0.0
  0
SPLINE
  5
18d
100
AcDbEntity
  8
0
 62
6
100
AcDbSpline
 70
8
 71
3
 72
8
 73
4
 74
0
 40
0
 40
0
 40
0
 40
0
 40
1
 40
1
 40
1
 40
1
 10
94.246500
 20
163.323701
 30
0.0
 10
93.957780
 20
163.034981
 30
0.0
 10
93.627814
 20
162.746261
 30
0.0
 10
93.339094
 20
162.457541
 30
0.0
  0
SPLINE
  5
18e
100
AcDbEntity
  8
0
 62
6
100
AcDbSpline
 70
8
 71
3
 72
8
 73
4
 74
0
 40
0
 40
0
 40
0
 40
0
 40
1
 40
1
 40
1
 40
1
 10
55.640490
 20
167.819487
 30
0.0
 10
54.526856
 20
168.479419
 30
0.0
 10
53.495712
 20
169.139350
 30
0.0
 10
52.629552
 20
170.170494
 30
0.0
  0
SPLINE
  5
18f
100
AcDbEntity
  8
0
 62
6
100
AcDbSpline
 70
8
 71
3
 72
8
 73
4
 74
0
 40
0
 40
0
 40
0
 40
0
 40
1
 40
1
 40
1
 40
1
 10
52.629552
 20
170.170494
 30
0.0
 10
51.804637
 20
171.119146
 30
0.0
 10
51.062214
 20
172.191535
 30
0.0
 10
50.361036
 20
173.263924
 30
0.0
  0
SPLINE
  5
190
100
AcDbEntity
  8
0
 62
6
100
AcDbSpline
 70
8
 71
3
 72
8
 73
4
 74
0
 40
0
 40
0
 40
0
 40
0
 40
1
 40
1
 40
1
 40
1
 10
50.361036
 20
173.263924
 30
0.0
 10
49.494876
 20
174.542542
 30
0.0
 10
48.587469
 20
175.862406
 30
0.0
 10
47.762555
 20
177.182269
 30
0.0
  0
SPLINE
  5
191
100
AcDbEntity
  8
0
 62
6
100
AcDbSpline
 70
8
 71
3
 72
8
 73
4
 74
0
 40
0
 40
0
 40
0
 40
0
 40
1
 40
1
 40
1
 40
1
 10
47.762555
 20
177.182269
 30
0.0
 10
47.185114
 20
178.089675
 30
0.0
 10
46.731411
 20
179.079573
 30
0.0
 10
46.525183
 20
180.151962
 30
0.0
  0
SPLINE
  5
192
100
AcDbEntity
  8
0
 62
6
100
AcDbSpline
 70
8
 71
3
 72
8
 73
4
 74
0
 40
0
 40
0
 40
0
 40
0
 40
1
 40
1
 40
1
 40
1
 10
46.525183
 20
180.151962
 30
0.0
 10
46.277708
 20
181.430580
 30
0.0
 10
46.277708
 20
182.750444
 30
0.0
 10
46.318954
 20
184.070307
 30
0.0
  0
SPLINE
  5
193
100
AcDbEntity
  8
0
 62
6
100
AcDbSpline
 70
8
 71
3
 72
8
 73
4
 74
0
 40
0
 40
0
 40
0
 40
0
 40
1
 40
1
 40
1
 40
1
 10
46.318954
 20
184.070307
 30
0.0
 10
46.318954
 20
185.720137
 30
0.0
 10
46.360200
 20
187.328720
 30
0.0
 10
46.360200
 20
188.978550
 30
0.0
  0
SPLINE
  5
194
100
AcDbEntity
  8
0
 62
6
100
AcDbSpline
 70
8
 71
3
 72
8
 73
4
 74
0
 40
0
 40
0
 40
0
 40
0
 40
1
 40
1
 40
1
 40
1
 10
46.360200
 20
188.978550
 30
0.0
 10
46.401445
 20
191.865751
 30
0.0
 10
46.525183
 20
194.752953
 30
0.0
 10
46.648920
 20
197.640155
 30
0.0
  0
SPLINE
  5
195
100
AcDbEntity
  8
0
 62
6
100
AcDbSpline
 70
8
 71
3
 72
8
 73
4
 74
0
 40
0
 40
0
 40
0
 40
0
 40
1
 40
1
 40
1
 40
1
 10
46.648920
 20
197.640155
 30
0.0
 10
46.772657
 20
200.527356
 30
0.0
 10
47.020131
 20
203.373312
 30
0.0
 10
47.267606
 20
206.260514
 30
0.0
  0
SPLINE
  5
196
100
AcDbEntity
  8
0
 62
6
100
AcDbSpline
 70
8
 71
3
 72
8
 73
4
 74
0
 40
0
 40
0
 40
0
 40
0
 40
1
 40
1
 40
1
 40
1
 10
47.267606
 20
206.260514
 30
0.0
 10
47.308852
 20
206.549234
 30
0.0
 10
47.308852
 20
206.837954
 30
0.0
 10
47.350097
 20
207.167920
 30
0.0
  0
SPLINE
  5
197
100
AcDbEntity
  8
0
 62
6
100
AcDbSpline
 70
8
 71
3
 72
8
 73
4
 74
0
 40
0
 40
0
 40
0
 40
0
 40
1
 40
1
 40
1
 40
1
 10
51.103459
 20
203.620787
 30
0.0
 10
51.020968
 20
201.682237
 30
0.0
 10
51.144705
 20
199.702442
 30
0.0
 10
51.474671
 20
197.763892
 30
0.0
  0
SPLINE
  5
198
100
AcDbEntity
  8
0
 62
6
100
AcDbSpline
 70
8
 71
3
 72
8
 73
4
 74
0
 40
0
 40
0
 40
0
 40
0
 40
1
 40
1
 40
1
 40
1
 10
51.474671
 20
197.763892
 30
0.0
 10
51.804637
 20
195.907834
 30
0.0
 10
52.340832
 20
194.093021
 30
0.0
 10
53.083255
 20
192.360700
 30
0.0
  0
SPLINE
  5
199
100
AcDbEntity
  8
0
 62
6
100
AcDbSpline
 70
8
 71
3
 72
8
 73
4
 74
0
 40
0
 40
0
 40
0
 40
0
 40
1
 40
1
 40
1
 40
1
 10
53.083255
 20
192.360700
 30
0.0
 10
53.454466
 20
191.453294
 30
0.0
 10
53.908170
 20
190.545888
 30
0.0
 10
54.403118
 20
189.638482
 30
0.0
  0
SPLINE
  5
19a
100
AcDbEntity
  8
0
 62
6
100
AcDbSpline
 70
8
 71
3
 72
8
 73
4
 74
0
 40
0
 40
0
 40
0
 40
0
 40
1
 40
1
 40
1
 40
1
 10
54.403118
 20
189.638482
 30
0.0
 10
54.856821
 20
188.813567
 30
0.0
 10
55.434262
 20
188.071144
 30
0.0
 10
55.929211
 20
187.246229
 30
0.0
  0
SPLINE
  5
19b
100
AcDbEntity
  8
0
 62
6
100
AcDbSpline
 70
8
 71
3
 72
8
 73
4
 74
0
 40
0
 40
0
 40
0
 40
0
 40
1
 40
1
 40
1
 40
1
 10
55.929211
 20
187.246229
 30
0.0
 10
56.671634
 20
185.926365
 30
0.0
 10
56.547897
 20
184.688993
 30
0.0
 10
56.341668
 20
183.245392
 30
0.0
  0
SPLINE
  5
19c
100
AcDbEntity
  8
0
 62
6
100
AcDbSpline
 70
8
 71
3
 72
8
 73
4
 74
0
 40
0
 40
0
 40
0
 40
0
 40
1
 40
1
 40
1
 40
1
 10
56.341668
 20
183.245392
 30
0.0
 10
56.217931
 20
182.461723
 30
0.0
 10
56.094194
 20
181.636809
 30
0.0
 10
56.217931
 20
180.811894
 30
0.0
  0
SPLINE
  5
19d
100
AcDbEntity
  8
0
 62
6
100
AcDbSpline
 70
8
 71
3
 72
8
 73
4
 74
0
 40
0
 40
0
 40
0
 40
0
 40
1
 40
1
 40
1
 40
1
 10
56.217931
 20
180.811894
 30
0.0
 10
56.300422
 20
180.234454
 30
0.0
 10
56.506651
 20
179.698259
 30
0.0
 10
56.754125
 20
179.162064
 30
0.0
  0
SPLINE
  5
19e
100
AcDbEntity
  8
0
 62
6
100
AcDbSpline
 70
8
 71
3
 72
8
 73
4
 74
0
 40
0
 40
0
 40
0
 40
0
 40
1
 40
1
 40
1
 40
1
 10
56.754125
 20
179.162064
 30
0.0
 10
57.125337
 20
178.419641
 30
0.0
 10
57.537794
 20
177.677218
 30
0.0
 10
57.744023
 20
176.852303
 30
0.0
  0
SPLINE
  5
19f
100
AcDbEntity
  8
0
 62
6
100
AcDbSpline
 70
8
 71
3
 72
8
 73
4
 74
0
 40
0
 40
0
 40
0
 40
0
 40
1
 40
1
 40
1
 40
1
 10
57.744023
 20
176.852303
 30
0.0
 10
57.909006
 20
176.109880
 30
0.0
 10
57.950252
 20
175.326211
 30
0.0
 10
57.867760
 20
174.542542
 30
0.0
  0
SPLINE
  5
1a0
100
AcDbEntity
  8
0
 62
6
100
AcDbSpline
 70
8
 71
3
 72
8
 73
4
 74
0
 40
0
 40
0
 40
0
 40
0
 40
1
 40
1
 40
1
 40
1
 10
57.867760
 20
174.542542
 30
0.0
 10
57.702777
 20
172.768975
 30
0.0
 10
57.249074
 20
170.954163
 30
0.0
 10
56.589142
 20
169.304333
 30
0.0
  0
SPLINE
  5
1a1
100
AcDbEntity
  8
0
 62
6
100
AcDbSpline
 70
8
 71
3
 72
8
 73
4
 74
0
 40
0
 40
0
 40
0
 40
0
 40
1
 40
1
 40
1
 40
1
 10
56.589142
 20
169.304333
 30
0.0
 10
56.011702
 20
167.860733
 30
0.0
 10
54.774330
 20
166.953326
 30
0.0
 10
54.031907
 20
165.633463
 30
0.0
  0
SPLINE
  5
1a2
100
AcDbEntity
  8
0
 62
6
100
AcDbSpline
 70
8
 71
3
 72
8
 73
4
 74
0
 40
0
 40
0
 40
0
 40
0
 40
1
 40
1
 40
1
 40
1
 10
54.031907
 20
165.633463
 30
0.0
 10
53.248238
 20
164.231108
 30
0.0
 10
53.248238
 20
162.622524
 30
0.0
 10
53.248238
 20
161.055186
 30
0.0
  0
SPLINE
  5
1a3
100
AcDbEntity
  8
0
 62
6
100
AcDbSpline
 70
8
 71
3
 72
8
 73
4
 74
0
 40
0
 40
0
 40
0
 40
0
 40
1
 40
1
 40
1
 40
1
 10
53.248238
 20
161.055186
 30
0.0
 10
53.248238
 20
159.157882
 30
0.0
 10
53.289483
 20
157.301824
 30
0.0
 10
52.835780
 20
155.487011
 30
0.0
  0
SPLINE
  5
1a4
100
AcDbEntity
  8
0
 62
6
100
AcDbSpline
 70
8
 71
3
 72
8
 73
4
 74
0
 40
0
 40
0
 40
0
 40
0
 40
1
 40
1
 40
1
 40
1
 10
52.835780
 20
155.487011
 30
0.0
 10
52.340832
 20
153.548462
 30
0.0
 10
51.515917
 20
151.692404
 30
0.0
 10
50.814739
 20
149.836345
 30
0.0
  0
SPLINE
  5
1a5
100
AcDbEntity
  8
0
 62
6
100
AcDbSpline
 70
8
 71
3
 72
8
 73
4
 74
0
 40
0
 40
0
 40
0
 40
0
 40
1
 40
1
 40
1
 40
1
 10
50.814739
 20
149.836345
 30
0.0
 10
50.113562
 20
147.939041
 30
0.0
 10
49.536121
 20
146.000492
 30
0.0
 10
48.958681
 20
144.020696
 30
0.0
  0
SPLINE
  5
1a6
100
AcDbEntity
  8
0
 62
6
100
AcDbSpline
 70
8
 71
3
 72
8
 73
4
 74
0
 40
0
 40
0
 40
0
 40
0
 40
1
 40
1
 40
1
 40
1
 10
48.958681
 20
144.020696
 30
0.0
 10
48.339995
 20
141.834672
 30
0.0
 10
47.762555
 20
139.607403
 30
0.0
 10
47.143869
 20
137.421379
 30
0.0
  0
SPLINE
  5
1a7
100
AcDbEntity
  8
0
 62
6
100
AcDbSpline
 70
8
 71
3
 72
8
 73
4
 74
0
 40
0
 40
0
 40
0
 40
0
 40
1
 40
1
 40
1
 40
1
 10
47.143869
 20
137.421379
 30
0.0
 10
46.607674
 20
135.441583
 30
0.0
 10
46.071479
 20
133.420542
 30
0.0
 10
45.535285
 20
131.440747
 30
0.0
  0
SPLINE
  5
1a8
100
AcDbEntity
  8
0
 62
6
100
AcDbSpline
 70
8
 71
3
 72
8
 73
4
 74
0
 40
0
 40
0
 40
0
 40
0
 40
1
 40
1
 40
1
 40
1
 10
45.535285
 20
131.440747
 30
0.0
 10
45.040336
 20
129.543443
 30
0.0
 10
44.545387
 20
127.646139
 30
0.0
 10
44.091684
 20
125.748835
 30
0.0
  0
SPLINE
  5
1a9
100
AcDbEntity
  8
0
 62
6
100
AcDbSpline
 70
8
 71
3
 72
8
 73
4
 74
0
 40
0
 40
0
 40
0
 40
0
 40
1
 40
1
 40
1
 40
1
 10
44.091684
 20
125.748835
 30
0.0
 10
43.596735
 20
123.686548
 30
0.0
 10
43.143032
 20
121.583016
 30
0.0
 10
42.689329
 20
119.479483
 30
0.0
  0
SPLINE
  5
1aa
100
AcDbEntity
  8
0
 62
6
100
AcDbSpline
 70
8
 71
3
 72
8
 73
4
 74
0
 40
0
 40
0
 40
0
 40
0
 40
1
 40
1
 40
1
 40
1
 10
42.689329
 20
119.479483
 30
0.0
 10
42.276872
 20
117.458442
 30
0.0
 10
41.905660
 20
115.396155
 30
0.0
 10
41.575694
 20
113.375114
 30
0.0
  0
SPLINE
  5
1ab
100
AcDbEntity
  8
0
 62
6
100
AcDbSpline
 70
8
 71
3
 72
8
 73
4
 74
0
 40
0
 40
0
 40
0
 40
0
 40
1
 40
1
 40
1
 40
1
 10
41.575694
 20
113.375114
 30
0.0
 10
41.286974
 20
111.436564
 30
0.0
 10
40.998254
 20
109.498015
 30
0.0
 10
40.750779
 20
107.559465
 30
0.0
  0
SPLINE
  5
1ac
100
AcDbEntity
  8
0
 62
6
100
AcDbSpline
 70
8
 71
3
 72
8
 73
4
 74
0
 40
0
 40
0
 40
0
 40
0
 40
1
 40
1
 40
1
 40
1
 10
40.750779
 20
107.559465
 30
0.0
 10
40.585796
 20
106.157110
 30
0.0
 10
40.420814
 20
104.796001
 30
0.0
 10
40.214585
 20
103.393645
 30
0.0
  0
SPLINE
  5
1ad
100
AcDbEntity
  8
0
 62
6
100
AcDbSpline
 70
8
 71
3
 72
8
 73
4
 74
0
 40
0
 40
0
 40
0
 40
0
 40
1
 40
1
 40
1
 40
1
 10
40.214585
 20
103.393645
 30
0.0
 10
39.843373
 20
100.506444
 30
0.0
 10
39.472162
 20
97.660488
 30
0.0
 10
39.142196
 20
94.773286
 30
0.0
  0
SPLINE
  5
1ae
100
AcDbEntity
  8
0
 62
6
100
AcDbSpline
 70
8
 71
3
 72
8
 73
4
 74
0
 40
0
 40
0
 40
0
 40
0
 40
1
 40
1
 40
1
 40
1
 10
39.142196
 20
94.773286
 30
0.0
 10
38.770984
 20
91.844839
 30
0.0
 10
38.399772
 20
88.957637
 30
0.0
 10
38.028561
 20
86.029190
 30
0.0
  0
SPLINE
  5
1af
100
AcDbEntity
  8
0
 62
6
100
AcDbSpline
 70
8
 71
3
 72
8
 73
4
 74
0
 40
0
 40
0
 40
0
 40
0
 40
1
 40
1
 40
1
 40
1
 10
38.028561
 20
86.029190
 30
0.0
 10
37.822332
 20
84.544344
 30
0.0
 10
37.657349
 20
83.018251
 30
0.0
 10
37.451120
 20
81.533405
 30
0.0
  0
SPLINE
  5
1b0
100
AcDbEntity
  8
0
 62
6
100
AcDbSpline
 70
8
 71
3
 72
8
 73
4
 74
0
 40
0
 40
0
 40
0
 40
0
 40
1
 40
1
 40
1
 40
1
 10
37.451120
 20
81.533405
 30
0.0
 10
37.203646
 20
79.636101
 30
0.0
 10
36.956172
 20
77.697551
 30
0.0
 10
36.749943
 20
75.800247
 30
0.0
  0
SPLINE
  5
1b1
100
AcDbEntity
  8
0
 62
6
100
AcDbSpline
 70
8
 71
3
 72
8
 73
4
 74
0
 40
0
 40
0
 40
0
 40
0
 40
1
 40
1
 40
1
 40
1
 10
36.749943
 20
75.800247
 30
0.0
 10
36.543714
 20
73.696715
 30
0.0
 10
36.337486
 20
71.593182
 30
0.0
 10
36.172503
 20
69.448404
 30
0.0
  0
SPLINE
  5
1b2
100
AcDbEntity
  8
0
 62
6
100
AcDbSpline
 70
8
 71
3
 72
8
 73
4
 74
0
 40
0
 40
0
 40
0
 40
0
 40
1
 40
1
 40
1
 40
1
 10
36.172503
 20
69.448404
 30
0.0
 10
36.048765
 20
67.716083
 30
0.0
 10
35.925028
 20
66.025008
 30
0.0
 10
35.801291
 20
64.292687
 30
0.0
  0
SPLINE
  5
1b3
100
AcDbEntity
  8
0
 62
6
100
AcDbSpline
 70
8
 71
3
 72
8
 73
4
 74
0
 40
0
 40
0
 40
0
 40
0
 40
1
 40
1
 40
1
 40
1
 10
35.801291
 20
64.292687
 30
0.0
 10
35.718799
 20
62.477874
 30
0.0
 10
35.595062
 20
60.621816
 30
0.0
 10
35.512571
 20
58.807004
 30
0.0
  0
SPLINE
  5
1b4
100
AcDbEntity
  8
0
 62
6
100
AcDbSpline
 70
8
 71
3
 72
8
 73
4
 74
0
 40
0
 40
0
 40
0
 40
0
 40
1
 40
1
 40
1
 40
1
 10
35.512571
 20
58.807004
 30
0.0
 10
35.347588
 20
55.754819
 30
0.0
 10
35.182605
 20
52.702635
 30
0.0
 10
35.017622
 20
49.650450
 30
0.0
  0
SPLINE
  5
1b5
100
AcDbEntity
  8
0
 62
6
100
AcDbSpline
 70
8
 71
3
 72
8
 73
4
 74
0
 40
0
 40
0
 40
0
 40
0
 40
1
 40
1
 40
1
 40
1
 10
35.017622
 20
49.650450
 30
0.0
 10
34.893885
 20
47.258197
 30
0.0
 10
34.770148
 20
44.907190
 30
0.0
 10
34.646410
 20
42.514938
 30
0.0
  0
SPLINE
  5
1b6
100
AcDbEntity
  8
0
 62
6
100
AcDbSpline
 70
8
 71
3
 72
8
 73
4
 74
0
 40
0
 40
0
 40
0
 40
0
 40
1
 40
1
 40
1
 40
1
 10
34.646410
 20
42.514938
 30
0.0
 10
34.563919
 20
41.153828
 30
0.0
 10
34.481427
 20
39.751473
 30
0.0
 10
34.398936
 20
38.390364
 30
0.0
  0
SPLINE
  5
1b7
100
AcDbEntity
  8
0
 62
6
100
AcDbSpline
 70
8
 71
3
 72
8
 73
4
 74
0
 40
0
 40
0
 40
0
 40
0
 40
1
 40
1
 40
1
 40
1
 10
34.398936
 20
38.390364
 30
0.0
 10
34.275199
 20
36.204340
 30
0.0
 10
34.151461
 20
34.018316
 30
0.0
 10
33.945233
 20
31.832292
 30
0.0
  0
SPLINE
  5
1b8
100
AcDbEntity
  8
0
 62
6
100
AcDbSpline
 70
8
 71
3
 72
8
 73
4
 74
0
 40
0
 40
0
 40
0
 40
0
 40
1
 40
1
 40
1
 40
1
 10
33.945233
 20
31.832292
 30
0.0
 10
33.780250
 20
29.811250
 30
0.0
 10
33.615267
 20
27.790209
 30
0.0
 10
33.244055
 20
25.810414
 30
0.0
  0
SPLINE
  5
1b9
100
AcDbEntity
  8
0
 62
6
100
AcDbSpline
 70
8
 71
3
 72
8
 73
4
 74
0
 40
0
 40
0
 40
0
 40
0
 40
1
 40
1
 40
1
 40
1
 10
33.244055
 20
25.810414
 30
0.0
 10
32.914089
 20
23.995602
 30
0.0
 10
32.501632
 20
22.139543
 30
0.0
 10
32.749106
 20
20.283485
 30
0.0
  0
SPLINE
  5
1ba
100
AcDbEntity
  8
0
 62
6
100
AcDbSpline
 70
8
 71
3
 72
8
 73
4
 74
0
 40
0
 40
0
 40
0
 40
0
 40
1
 40
1
 40
1
 40
1
 10
32.749106
 20
20.283485
 30
0.0
 10
32.872844
 20
19.376079
 30
0.0
 10
33.120318
 20
18.468673
 30
0.0
 10
33.862741
 20
17.849987
 30
0.0
  0
SPLINE
  5
1bb
100
AcDbEntity
  8
0
 62
6
100
AcDbSpline
 70
8
 71
3
 72
8
 73
4
 74
0
 40
0
 40
0
 40
0
 40
0
 40
1
 40
1
 40
1
 40
1
 10
33.862741
 20
17.849987
 30
0.0
 10
34.852639
 20
17.025072
 30
0.0
 10
36.296240
 20
16.901335
 30
0.0
 10
37.533612
 20
16.777598
 30
0.0
  0
SPLINE
  5
1bc
100
AcDbEntity
  8
0
 62
6
100
AcDbSpline
 70
8
 71
3
 72
8
 73
4
 74
0
 40
0
 40
0
 40
0
 40
0
 40
1
 40
1
 40
1
 40
1
 10
37.533612
 20
16.777598
 30
0.0
 10
39.513407
 20
16.571369
 30
0.0
 10
41.493203
 20
16.406386
 30
0.0
 10
43.472998
 20
16.158912
 30
0.0
  0
SPLINE
  5
1bd
100
AcDbEntity
  8
0
 62
6
100
AcDbSpline
 70
8
 71
3
 72
8
 73
4
 74
0
 40
0
 40
0
 40
0
 40
0
 40
1
 40
1
 40
1
 40
1
 10
43.472998
 20
16.158912
 30
0.0
 10
45.659022
 20
15.870191
 30
0.0
 10
47.845046
 20
15.581471
 30
0.0
 10
50.072316
 20
15.333997
 30
0.0
  0
SPLINE
  5
1be
100
AcDbEntity
  8
0
 62
6
100
AcDbSpline
 70
8
 71
3
 72
8
 73
4
 74
0
 40
0
 40
0
 40
0
 40
0
 40
1
 40
1
 40
1
 40
1
 10
50.072316
 20
15.333997
 30
0.0
 10
52.175849
 20
15.127768
 30
0.0
 10
54.320627
 20
14.962785
 30
0.0
 10
56.424159
 20
14.839048
 30
0.0
  0
SPLINE
  5
1bf
100
AcDbEntity
  8
0
 62
6
100
AcDbSpline
 70
8
 71
3
 72
8
 73
4
 74
0
 40
0
 40
0
 40
0
 40
0
 40
1
 40
1
 40
1
 40
1
 10
56.424159
 20
14.839048
 30
0.0
 10
58.362709
 20
14.715311
 30
0.0
 10
60.260013
 20
14.674065
 30
0.0
 10
62.198563
 20
14.632819
 30
0.0
  0
SPLINE
  5
1c0
100
AcDbEntity
  8
0
 62
6
100
AcDbSpline
 70
8
 71
3
 72
8
 73
4
 74
0
 40
0
 40
0
 40
0
 40
0
 40
1
 40
1
 40
1
 40
1
 10
62.198563
 20
14.632819
 30
0.0
 10
64.549570
 20
14.591574
 30
0.0
 10
66.859331
 20
14.550328
 30
0.0
 10
69.210338
 20
14.550328
 30
0.0
  0
SPLINE
  5
1c1
100
AcDbEntity
  8
0
 62
6
100
AcDbSpline
 70
8
 71
3
 72
8
 73
4
 74
0
 40
0
 40
0
 40
0
 40
0
 40
1
 40
1
 40
1
 40
1
 10
69.210338
 20
14.550328
 30
0.0
 10
71.313871
 20
14.509082
 30
0.0
 10
73.417403
 20
14.550328
 30
0.0
 10
75.562181
 20
14.550328
 30
0.0
  0
SPLINE
  5
1c2
100
AcDbEntity
  8
0
 62
6
100
AcDbSpline
 70
8
 71
3
 72
8
 73
4
 74
0
 40
0
 40
0
 40
0
 40
0
 40
1
 40
1
 40
1
 40
1
 10
75.562181
 20
14.550328
 30
0.0
 10
77.088274
 20
14.550328
 30
0.0
 10
78.614366
 20
14.550328
 30
0.0
 10
80.181704
 20
14.591574
 30
0.0
  0
SPLINE
  5
1c3
100
AcDbEntity
  8
0
 62
6
100
AcDbSpline
 70
8
 71
3
 72
8
 73
4
 74
0
 40
0
 40
0
 40
0
 40
0
 40
1
 40
1
 40
1
 40
1
 10
80.181704
 20
14.591574
 30
0.0
 10
83.110151
 20
14.632819
 30
0.0
 10
86.038599
 20
14.674065
 30
0.0
 10
88.967046
 20
14.715311
 30
0.0
  0
SPLINE
  5
1c4
100
AcDbEntity
  8
0
 62
6
100
AcDbSpline
 70
8
 71
3
 72
8
 73
4
 74
0
 40
0
 40
0
 40
0
 40
0
 40
1
 40
1
 40
1
 40
1
 10
88.967046
 20
14.715311
 30
0.0
 10
90.204418
 20
14.715311
 30
0.0
 10
91.400545
 20
14.756556
 30
0.0
 10
92.637917
 20
14.797802
 30
0.0
  0
SPLINE
  5
1c5
100
AcDbEntity
  8
0
 62
6
100
AcDbSpline
 70
8
 71
3
 72
8
 73
4
 74
0
 40
0
 40
0
 40
0
 40
0
 40
1
 40
1
 40
1
 40
1
 10
92.637917
 20
14.797802
 30
0.0
 10
95.525118
 20
14.880294
 30
0.0
 10
98.371074
 20
14.962785
 30
0.0
 10
101.258276
 20
15.045277
 30
0.0
  0
SPLINE
  5
1c6
100
AcDbEntity
  8
0
 62
6
100
AcDbSpline
 70
8
 71
3
 72
8
 73
4
 74
0
 40
0
 40
0
 40
0
 40
0
 40
1
 40
1
 40
1
 40
1
 10
101.258276
 20
15.045277
 30
0.0
 10
102.825614
 20
15.086522
 30
0.0
 10
104.434197
 20
15.127768
 30
0.0
 10
106.001535
 20
15.169014
 30
0.0
  0
SPLINE
  5
1c7
100
AcDbEntity
  8
0
 62
6
100
AcDbSpline
 70
8
 71
3
 72
8
 73
4
 74
0
 40
0
 40
0
 40
0
 40
0
 40
1
 40
1
 40
1
 40
1
 10
106.001535
 20
15.169014
 30
0.0
 10
108.352542
 20
15.251505
 30
0.0
 10
110.703549
 20
15.375243
 30
0.0
 10
113.054557
 20
15.498980
 30
0.0
  0
SPLINE
  5
1c8
100
AcDbEntity
  8
0
 62
6
100
AcDbSpline
 70
8
 71
3
 72
8
 73
4
 74
0
 40
0
 40
0
 40
0
 40
0
 40
1
 40
1
 40
1
 40
1
 10
113.054557
 20
15.498980
 30
0.0
 10
115.075598
 20
15.581471
 30
0.0
 10
117.096639
 20
15.746454
 30
0.0
 10
119.117680
 20
15.911437
 30
0.0
  0
SPLINE
  5
1c9
100
AcDbEntity
  8
0
 62
6
100
AcDbSpline
 70
8
 71
3
 72
8
 73
4
 74
0
 40
0
 40
0
 40
0
 40
0
 40
1
 40
1
 40
1
 40
1
 10
119.117680
 20
15.911437
 30
0.0
 10
121.097475
 20
16.076420
 30
0.0
 10
123.118516
 20
16.323894
 30
0.0
 10
125.057066
 20
16.736352
 30
0.0
  0
SPLINE
  5
1ca
100
AcDbEntity
  8
0
 62
6
100
AcDbSpline
 70
8
 71
3
 72
8
 73
4
 74
0
 40
0
 40
0
 40
0
 40
0
 40
1
 40
1
 40
1
 40
1
 10
125.057066
 20
16.736352
 30
0.0
 10
126.995616
 20
17.148809
 30
0.0
 10
128.892920
 20
17.685004
 30
0.0
 10
130.748978
 20
18.344936
 30
0.0
  0
SPLINE
  5
1cb
100
AcDbEntity
  8
0
 62
6
100
AcDbSpline
 70
8
 71
3
 72
8
 73
4
 74
0
 40
0
 40
0
 40
0
 40
0
 40
1
 40
1
 40
1
 40
1
 10
130.748978
 20
18.344936
 30
0.0
 10
132.605036
 20
18.963622
 30
0.0
 10
134.543586
 20
19.664799
 30
0.0
 10
136.234661
 20
20.695943
 30
0.0
  0
SPLINE
  5
1cc
100
AcDbEntity
  8
0
 62
6
100
AcDbSpline
 70
8
 71
3
 72
8
 73
4
 74
0
 40
0
 40
0
 40
0
 40
0
 40
1
 40
1
 40
1
 40
1
 10
136.234661
 20
20.695943
 30
0.0
 10
136.770855
 20
21.025908
 30
0.0
 10
137.430787
 20
21.438366
 30
0.0
 10
137.719507
 20
22.015806
 30
0.0
  0
SPLINE
  5
1cd
100
AcDbEntity
  8
0
 62
6
100
AcDbSpline
 70
8
 71
3
 72
8
 73
4
 74
0
 40
0
 40
0
 40
0
 40
0
 40
1
 40
1
 40
1
 40
1
 10
137.719507
 20
22.015806
 30
0.0
 10
137.966982
 20
22.469509
 30
0.0
 10
137.843244
 20
22.964458
 30
0.0
 10
137.637016
 20
23.459407
 30
0.0
  0
SPLINE
  5
1ce
100
AcDbEntity
  8
0
 62
6
100
AcDbSpline
 70
8
 71
3
 72
8
 73
4
 74
0
 40
0
 40
0
 40
0
 40
0
 40
1
 40
1
 40
1
 40
1
 10
137.637016
 20
23.459407
 30
0.0
 10
136.894593
 20
25.397957
 30
0.0
 10
136.193415
 20
27.377752
 30
0.0
 10
135.657220
 20
29.398793
 30
0.0
  0
SPLINE
  5
1cf
100
AcDbEntity
  8
0
 62
6
100
AcDbSpline
 70
8
 71
3
 72
8
 73
4
 74
0
 40
0
 40
0
 40
0
 40
0
 40
1
 40
1
 40
1
 40
1
 10
135.657220
 20
29.398793
 30
0.0
 10
135.121026
 20
31.461080
 30
0.0
 10
134.626077
 20
33.523367
 30
0.0
 10
134.089882
 20
35.626899
 30
0.0
  0
SPLINE
  5
1d0
100
AcDbEntity
  8
0
 62
6
100
AcDbSpline
 70
8
 71
3
 72
8
 73
4
 74
0
 40
0
 40
0
 40
0
 40
0
 40
1
 40
1
 40
1
 40
1
 10
134.089882
 20
35.626899
 30
0.0
 10
133.594934
 20
37.565449
 30
0.0
 10
133.058739
 20
39.462753
 30
0.0
 10
132.440053
 20
41.360057
 30
0.0
  0
SPLINE
  5
1d1
100
AcDbEntity
  8
0
 62
6
100
AcDbSpline
 70
8
 71
3
 72
8
 73
4
 74
0
 40
0
 40
0
 40
0
 40
0
 40
1
 40
1
 40
1
 40
1
 10
132.440053
 20
41.360057
 30
0.0
 10
131.780121
 20
43.422344
 30
0.0
 10
131.078944
 20
45.443385
 30
0.0
 10
130.336520
 20
47.505672
 30
0.0
  0
SPLINE
  5
1d2
100
AcDbEntity
  8
0
 62
6
100
AcDbSpline
 70
8
 71
3
 72
8
 73
4
 74
0
 40
0
 40
0
 40
0
 40
0
 40
1
 40
1
 40
1
 40
1
 10
130.336520
 20
47.505672
 30
0.0
 10
129.841572
 20
48.866781
 30
0.0
 10
129.387868
 20
50.186645
 30
0.0
 10
128.892920
 20
51.547754
 30
0.0
  0
SPLINE
  5
1d3
100
AcDbEntity
  8
0
 62
6
100
AcDbSpline
 70
8
 71
3
 72
8
 73
4
 74
0
 40
0
 40
0
 40
0
 40
0
 40
1
 40
1
 40
1
 40
1
 10
128.892920
 20
51.547754
 30
0.0
 10
127.903022
 20
54.228727
 30
0.0
 10
126.954370
 20
56.868454
 30
0.0
 10
125.964472
 20
59.549427
 30
0.0
  0
SPLINE
  5
1d4
100
AcDbEntity
  8
0
 62
6
100
AcDbSpline
 70
8
 71
3
 72
8
 73
4
 74
0
 40
0
 40
0
 40
0
 40
0
 40
1
 40
1
 40
1
 40
1
 10
125.964472
 20
59.549427
 30
0.0
 10
125.057066
 20
61.982925
 30
0.0
 10
124.149660
 20
64.457670
 30
0.0
 10
123.283499
 20
66.891168
 30
0.0
  0
SPLINE
  5
1d5
100
AcDbEntity
  8
0
 62
6
100
AcDbSpline
 70
8
 71
3
 72
8
 73
4
 74
0
 40
0
 40
0
 40
0
 40
0
 40
1
 40
1
 40
1
 40
1
 10
123.283499
 20
66.891168
 30
0.0
 10
122.788550
 20
68.252277
 30
0.0
 10
122.293602
 20
69.613387
 30
0.0
 10
121.839899
 20
70.974496
 30
0.0
  0
SPLINE
  5
1d6
100
AcDbEntity
  8
0
 62
6
100
AcDbSpline
 70
8
 71
3
 72
8
 73
4
 74
0
 40
0
 40
0
 40
0
 40
0
 40
1
 40
1
 40
1
 40
1
 10
121.839899
 20
70.974496
 30
0.0
 10
121.179967
 20
72.954291
 30
0.0
 10
120.520035
 20
74.934087
 30
0.0
 10
119.901349
 20
76.913882
 30
0.0
  0
SPLINE
  5
1d7
100
AcDbEntity
  8
0
 62
6
100
AcDbSpline
 70
8
 71
3
 72
8
 73
4
 74
0
 40
0
 40
0
 40
0
 40
0
 40
1
 40
1
 40
1
 40
1
 10
119.901349
 20
76.913882
 30
0.0
 10
119.323909
 20
78.934923
 30
0.0
 10
118.746468
 20
80.955964
 30
0.0
 10
118.251519
 20
82.977006
 30
0.0
  0
SPLINE
  5
1d8
100
AcDbEntity
  8
0
 62
6
100
AcDbSpline
 70
8
 71
3
 72
8
 73
4
 74
0
 40
0
 40
0
 40
0
 40
0
 40
1
 40
1
 40
1
 40
1
 10
118.251519
 20
82.977006
 30
0.0
 10
117.715325
 20
85.245521
 30
0.0
 10
117.179130
 20
87.514037
 30
0.0
 10
116.684181
 20
89.741306
 30
0.0
  0
SPLINE
  5
1d9
100
AcDbEntity
  8
0
 62
6
100
AcDbSpline
 70
8
 71
3
 72
8
 73
4
 74
0
 40
0
 40
0
 40
0
 40
0
 40
1
 40
1
 40
1
 40
1
 10
116.684181
 20
89.741306
 30
0.0
 10
116.271724
 20
91.556119
 30
0.0
 10
115.818021
 20
93.370931
 30
0.0
 10
115.281826
 20
95.185744
 30
0.0
  0
SPLINE
  5
1da
100
AcDbEntity
  8
0
 62
6
100
AcDbSpline
 70
8
 71
3
 72
8
 73
4
 74
0
 40
0
 40
0
 40
0
 40
0
 40
1
 40
1
 40
1
 40
1
 10
115.281826
 20
95.185744
 30
0.0
 10
114.704386
 20
97.206785
 30
0.0
 10
114.044454
 20
99.227826
 30
0.0
 10
113.384522
 20
101.207621
 30
0.0
  0
SPLINE
  5
1db
100
AcDbEntity
  8
0
 62
6
100
AcDbSpline
 70
8
 71
3
 72
8
 73
4
 74
0
 40
0
 40
0
 40
0
 40
0
 40
1
 40
1
 40
1
 40
1
 10
113.384522
 20
101.207621
 30
0.0
 10
112.848328
 20
102.733714
 30
0.0
 10
112.312133
 20
104.259806
 30
0.0
 10
111.775939
 20
105.785898
 30
0.0
  0
SPLINE
  5
1dc
100
AcDbEntity
  8
0
 62
6
100
AcDbSpline
 70
8
 71
3
 72
8
 73
4
 74
0
 40
0
 40
0
 40
0
 40
0
 40
1
 40
1
 40
1
 40
1
 10
111.775939
 20
105.785898
 30
0.0
 10
110.827287
 20
108.466871
 30
0.0
 10
109.837389
 20
111.147844
 30
0.0
 10
108.888737
 20
113.828817
 30
0.0
  0
SPLINE
  5
1dd
100
AcDbEntity
  8
0
 62
6
100
AcDbSpline
 70
8
 71
3
 72
8
 73
4
 74
0
 40
0
 40
0
 40
0
 40
0
 40
1
 40
1
 40
1
 40
1
 10
108.888737
 20
113.828817
 30
0.0
 10
108.270051
 20
115.478646
 30
0.0
 10
107.692611
 20
117.169722
 30
0.0
 10
107.115170
 20
118.860797
 30
0.0
  0
SPLINE
  5
1de
100
AcDbEntity
  8
0
 62
6
100
AcDbSpline
 70
8
 71
3
 72
8
 73
4
 74
0
 40
0
 40
0
 40
0
 40
0
 40
1
 40
1
 40
1
 40
1
 10
107.115170
 20
118.860797
 30
0.0
 10
106.413993
 20
120.881838
 30
0.0
 10
105.754061
 20
122.944125
 30
0.0
 10
105.135375
 20
125.006412
 30
0.0
  0
SPLINE
  5
1df
100
AcDbEntity
  8
0
 62
6
100
AcDbSpline
 70
8
 71
3
 72
8
 73
4
 74
0
 40
0
 40
0
 40
0
 40
0
 40
1
 40
1
 40
1
 40
1
 10
105.135375
 20
125.006412
 30
0.0
 10
104.516689
 20
126.986207
 30
0.0
 10
103.939249
 20
129.007248
 30
0.0
 10
103.361808
 20
130.987044
 30
0.0
  0
SPLINE
  5
1e0
100
AcDbEntity
  8
0
 62
6
100
AcDbSpline
 70
8
 71
3
 72
8
 73
4
 74
0
 40
0
 40
0
 40
0
 40
0
 40
1
 40
1
 40
1
 40
1
 10
103.361808
 20
130.987044
 30
0.0
 10
102.743122
 20
133.008085
 30
0.0
 10
102.165682
 20
135.070372
 30
0.0
 10
101.546996
 20
137.091413
 30
0.0
  0
SPLINE
  5
1e1
100
AcDbEntity
  8
0
 62
6
100
AcDbSpline
 70
8
 71
3
 72
8
 73
4
 74
0
 40
0
 40
0
 40
0
 40
0
 40
1
 40
1
 40
1
 40
1
 10
101.546996
 20
137.091413
 30
0.0
 10
100.969556
 20
138.906225
 30
0.0
 10
100.392115
 20
140.679792
 30
0.0
 10
99.690938
 20
142.412113
 30
0.0
  0
SPLINE
  5
1e2
100
AcDbEntity
  8
0
 62
6
100
AcDbSpline
 70
8
 71
3
 72
8
 73
4
 74
0
 40
0
 40
0
 40
0
 40
0
 40
1
 40
1
 40
1
 40
1
 10
99.690938
 20
142.412113
 30
0.0
 10
98.907269
 20
144.433154
 30
0.0
 10
98.041108
 20
146.495441
 30
0.0
 10
97.339931
 20
148.557728
 30
0.0
  0
SPLINE
  5
1e3
100
AcDbEntity
  8
0
 62
6
100
AcDbSpline
 70
8
 71
3
 72
8
 73
4
 74
0
 40
0
 40
0
 40
0
 40
0
 40
1
 40
1
 40
1
 40
1
 10
97.339931
 20
148.557728
 30
0.0
 10
96.638753
 20
150.620014
 30
0.0
 10
96.185050
 20
152.723547
 30
0.0
 10
95.690101
 20
154.827080
 30
0.0
  0
SPLINE
  5
1e4
100
AcDbEntity
  8
0
 62
6
100
AcDbSpline
 70
8
 71
3
 72
8
 73
4
 74
0
 40
0
 40
0
 40
0
 40
0
 40
1
 40
1
 40
1
 40
1
 10
95.690101
 20
154.827080
 30
0.0
 10
95.236398
 20
156.683138
 30
0.0
 10
94.700204
 20
158.539196
 30
0.0
 10
94.081517
 20
160.312763
 30
0.0
  0
SPLINE
  5
1e5
100
AcDbEntity
  8
0
 62
6
100
AcDbSpline
 70
8
 71
3
 72
8
 73
4
 74
0
 40
0
 40
0
 40
0
 40
0
 40
1
 40
1
 40
1
 40
1
 10
94.081517
 20
160.312763
 30
0.0
 10
93.380340
 20
162.251312
 30
0.0
 10
92.555425
 20
164.148616
 30
0.0
 10
91.606773
 20
166.004674
 30
0.0
  0
SPLINE
  5
1e6
100
AcDbEntity
  8
0
 62
6
100
AcDbSpline
 70
8
 71
3
 72
8
 73
4
 74
0
 40
0
 40
0
 40
0
 40
0
 40
1
 40
1
 40
1
 40
1
 10
91.606773
 20
166.004674
 30
0.0
 10
90.740613
 20
167.695750
 30
0.0
 10
89.791961
 20
169.386825
 30
0.0
 10
88.554589
 20
170.830426
 30
0.0
  0
SPLINE
  5
1e7
100
AcDbEntity
  8
0
 62
6
100
AcDbSpline
 70
8
 71
3
 72
8
 73
4
 74
0
 40
0
 40
0
 40
0
 40
0
 40
1
 40
1
 40
1
 40
1
 10
88.554589
 20
170.830426
 30
0.0
 10
87.523445
 20
172.026552
 30
0.0
 10
86.698531
 20
173.222678
 30
0.0
 10
86.409810
 20
174.790016
 30
0.0
  0
SPLINE
  5
1e8
100
AcDbEntity
  8
0
 62
6
100
AcDbSpline
 70
8
 71
3
 72
8
 73
4
 74
0
 40
0
 40
0
 40
0
 40
0
 40
1
 40
1
 40
1
 40
1
 10
86.409810
 20
174.790016
 30
0.0
 10
86.079844
 20
176.522337
 30
0.0
 10
86.657285
 20
178.089675
 30
0.0
 10
87.275971
 20
179.698259
 30
0.0
  0
SPLINE
  5
1e9
100
AcDbEntity
  8
0
 62
6
100
AcDbSpline
 70
8
 71
3
 72
8
 73
4
 74
0
 40
0
 40
0
 40
0
 40
0
 40
1
 40
1
 40
1
 40
1
 10
87.275971
 20
179.698259
 30
0.0
 10
87.770920
 20
180.894385
 30
0.0
 10
88.307114
 20
182.131758
 30
0.0
 10
88.018394
 20
183.451621
 30
0.0
  0
SPLINE
  5
1ea
100
AcDbEntity
  8
0
 62
6
100
AcDbSpline
 70
8
 71
3
 72
8
 73
4
 74
0
 40
0
 40
0
 40
0
 40
0
 40
1
 40
1
 40
1
 40
1
 10
88.018394
 20
183.451621
 30
0.0
 10
87.853411
 20
184.194044
 30
0.0
 10
87.482200
 20
184.853976
 30
0.0
 10
87.234725
 20
185.596399
 30
0.0
  0
SPLINE
  5
1eb
100
AcDbEntity
  8
0
 62
6
100
AcDbSpline
 70
8
 71
3
 72
8
 73
4
 74
0
 40
0
 40
0
 40
0
 40
0
 40
1
 40
1
 40
1
 40
1
 10
87.234725
 20
185.596399
 30
0.0
 10
87.069742
 20
186.173840
 30
0.0
 10
87.069742
 20
186.751280
 30
0.0
 10
87.523445
 20
187.163737
 30
0.0
  0
SPLINE
  5
1ec
100
AcDbEntity
  8
0
 62
6
100
AcDbSpline
 70
8
 71
3
 72
8
 73
4
 74
0
 40
0
 40
0
 40
0
 40
0
 40
1
 40
1
 40
1
 40
1
 10
87.523445
 20
187.163737
 30
0.0
 10
87.894657
 20
187.534949
 30
0.0
 10
88.307114
 20
187.782424
 30
0.0
 10
88.472097
 20
188.318618
 30
0.0
  0
SPLINE
  5
1ed
100
AcDbEntity
  8
0
 62
6
100
AcDbSpline
 70
8
 71
3
 72
8
 73
4
 74
0
 40
0
 40
0
 40
0
 40
0
 40
1
 40
1
 40
1
 40
1
 10
88.472097
 20
188.318618
 30
0.0
 10
88.719572
 20
188.978550
 30
0.0
 10
88.719572
 20
189.762219
 30
0.0
 10
88.802063
 20
190.463396
 30
0.0
  0
SPLINE
  5
1ee
100
AcDbEntity
  8
0
 62
6
100
AcDbSpline
 70
8
 71
3
 72
8
 73
4
 74
0
 40
0
 40
0
 40
0
 40
0
 40
1
 40
1
 40
1
 40
1
 10
88.802063
 20
190.463396
 30
0.0
 10
89.049538
 20
192.360700
 30
0.0
 10
89.379503
 20
194.299250
 30
0.0
 10
89.668224
 20
196.196554
 30
0.0
  0
SPLINE
  5
1ef
100
AcDbEntity
  8
0
 62
6
100
AcDbSpline
 70
8
 71
3
 72
8
 73
4
 74
0
 40
0
 40
0
 40
0
 40
0
 40
1
 40
1
 40
1
 40
1
 10
89.791961
 20
196.237800
 30
0.0
 10
90.080681
 20
195.041673
 30
0.0
 10
90.328155
 20
193.845547
 30
0.0
 10
90.781858
 20
192.690666
 30
0.0
  0
SPLINE
  5
1f0
100
AcDbEntity
  8
0
 62
6
100
AcDbSpline
 70
8
 71
3
 72
8
 73
4
 74
0
 40
0
 40
0
 40
0
 40
0
 40
1
 40
1
 40
1
 40
1
 10
90.781858
 20
192.690666
 30
0.0
 10
91.235562
 20
191.535786
 30
0.0
 10
91.813002
 20
190.463396
 30
0.0
 10
92.390442
 20
189.391007
 30
0.0
  0
SPLINE
  5
1f1
100
AcDbEntity
  8
0
 62
6
100
AcDbSpline
 70
8
 71
3
 72
8
 73
4
 74
0
 40
0
 40
0
 40
0
 40
0
 40
1
 40
1
 40
1
 40
1
 10
92.390442
 20
189.391007
 30
0.0
 10
92.967883
 20
188.359864
 30
0.0
 10
93.421586
 20
187.246229
 30
0.0
 10
94.081517
 20
186.256331
 30
0.0
  0
SPLINE
  5
1f2
100
AcDbEntity
  8
0
 62
6
100
AcDbSpline
 70
8
 71
3
 72
8
 73
4
 74
0
 40
0
 40
0
 40
0
 40
0
 40
1
 40
1
 40
1
 40
1
 10
94.081517
 20
186.256331
 30
0.0
 10
94.246500
 20
186.050103
 30
0.0
 10
94.370238
 20
185.843874
 30
0.0
 10
94.576466
 20
185.678891
 30
0.0
  0
SPLINE
  5
1f3
100
AcDbEntity
  8
0
 62
6
100
AcDbSpline
 70
8
 71
3
 72
8
 73
4
 74
0
 40
0
 40
0
 40
0
 40
0
 40
1
 40
1
 40
1
 40
1
 10
94.576466
 20
185.678891
 30
0.0
 10
94.865186
 20
185.431417
 30
0.0
 10
95.318890
 20
185.183942
 30
0.0
 10
95.483873
 20
184.853976
 30
0.0
  0
SPLINE
  5
1f4
100
AcDbEntity
  8
0
 62
6
100
AcDbSpline
 70
8
 71
3
 72
8
 73
4
 74
0
 40
0
 40
0
 40
0
 40
0
 40
1
 40
1
 40
1
 40
1
 10
95.483873
 20
184.853976
 30
0.0
 10
95.731347
 20
184.276536
 30
0.0
 10
95.112661
 20
183.699096
 30
0.0
 10
95.195152
 20
183.080409
 30
0.0
  0
SPLINE
  5
1f5
100
AcDbEntity
  8
0
 62
6
100
AcDbSpline
 70
8
 71
3
 72
8
 73
4
 74
0
 40
0
 40
0
 40
0
 40
0
 40
1
 40
1
 40
1
 40
1
 10
95.195152
 20
183.080409
 30
0.0
 10
95.277644
 20
182.420478
 30
0.0
 10
96.185050
 20
182.173003
 30
0.0
 10
96.185050
 20
181.513071
 30
0.0
  0
SPLINE
  5
1f6
100
AcDbEntity
  8
0
 62
6
100
AcDbSpline
 70
8
 71
3
 72
8
 73
4
 74
0
 40
0
 40
0
 40
0
 40
0
 40
1
 40
1
 40
1
 40
1
 10
96.185050
 20
181.513071
 30
0.0
 10
96.185050
 20
180.935631
 30
0.0
 10
95.483873
 20
180.399437
 30
0.0
 10
95.112661
 20
180.028225
 30
0.0
  0
SPLINE
  5
1f7
100
AcDbEntity
  8
0
 62
6
100
AcDbSpline
 70
8
 71
3
 72
8
 73
4
 74
0
 40
0
 40
0
 40
0
 40
0
 40
1
 40
1
 40
1
 40
1
 10
95.112661
 20
180.028225
 30
0.0
 10
94.328992
 20
179.327047
 30
0.0
 10
93.792797
 20
178.543378
 30
0.0
 10
93.297848
 20
177.594726
 30
0.0
  0
SPLINE
  5
1f8
100
AcDbEntity
  8
0
 62
6
100
AcDbSpline
 70
8
 71
3
 72
8
 73
4
 74
0
 40
0
 40
0
 40
0
 40
0
 40
1
 40
1
 40
1
 40
1
 10
93.297848
 20
177.594726
 30
0.0
 10
92.060476
 20
175.408702
 30
0.0
 10
91.029333
 20
173.098941
 30
0.0
 10
89.750715
 20
170.954163
 30
0.0
  0
SPLINE
  5
1f9
100
AcDbEntity
  8
0
 62
6
100
AcDbSpline
 70
8
 71
3
 72
8
 73
4
 74
0
 40
0
 40
0
 40
0
 40
0
 40
1
 40
1
 40
1
 40
1
 10
89.750715
 20
170.954163
 30
0.0
 10
89.585732
 20
170.665443
 30
0.0
 10
89.420749
 20
170.417968
 30
0.0
 10
89.255766
 20
170.129248
 30
0.0
  0
SPLINE
  5
1fa
100
AcDbEntity
  8
0
 62
6
100
AcDbSpline
 70
8
 71
3
 72
8
 73
4
 74
0
 40
0
 40
0
 40
0
 40
0
 40
1
 40
1
 40
1
 40
1
 10
87.069742
 20
213.973467
 30
0.0
 10
86.616039
 20
213.684746
 30
0.0
 10
86.244827
 20
213.189798
 30
0.0
 10
85.914862
 20
212.777340
 30
0.0
  0
SPLINE
  5
1fb
100
AcDbEntity
  8
0
 62
6
100
AcDbSpline
 70
8
 71
3
 72
8
 73
4
 74
0
 40
0
 40
0
 40
0
 40
0
 40
1
 40
1
 40
1
 40
1
 10
85.914862
 20
212.777340
 30
0.0
 10
85.378667
 20
212.076163
 30
0.0
 10
84.842472
 20
211.333739
 30
0.0
 10
84.265032
 20
210.673808
 30
0.0
  0
SPLINE
  5
1fc
100
AcDbEntity
  8
0
 62
6
100
AcDbSpline
 70
8
 71
3
 72
8
 73
4
 74
0
 40
0
 40
0
 40
0
 40
0
 40
1
 40
1
 40
1
 40
1
 10
84.265032
 20
210.673808
 30
0.0
 10
83.151397
 20
209.312698
 30
0.0
 10
81.914025
 20
208.075326
 30
0.0
 10
80.552916
 20
206.961691
 30
0.0
  0
SPLINE
  5
1fd
100
AcDbEntity
  8
0
 62
6
100
AcDbSpline
 70
8
 71
3
 72
8
 73
4
 74
0
 40
0
 40
0
 40
0
 40
0
 40
1
 40
1
 40
1
 40
1
 10
80.552916
 20
206.961691
 30
0.0
 10
79.150561
 20
205.848056
 30
0.0
 10
77.665714
 20
204.816913
 30
0.0
 10
76.139622
 20
203.909507
 30
0.0
  0
SPLINE
  5
1fe
100
AcDbEntity
  8
0
 62
6
100
AcDbSpline
 70
8
 71
3
 72
8
 73
4
 74
0
 40
0
 40
0
 40
0
 40
0
 40
1
 40
1
 40
1
 40
1
 10
76.139622
 20
203.909507
 30
0.0
 10
74.654775
 20
203.002101
 30
0.0
 10
73.087437
 20
202.135940
 30
0.0
 10
71.561345
 20
201.311025
 30
0.0
  0
SPLINE
  5
1ff
100
AcDbEntity
  8
0
 62
6
100
AcDbSpline
 70
8
 71
3
 72
8
 73
4
 74
0
 40
0
 40
0
 40
0
 40
0
 40
1
 40
1
 40
1
 40
1
 10
71.561345
 20
201.311025
 30
0.0
 10
69.994007
 20
200.486111
 30
0.0
 10
68.385423
 20
199.743687
 30
0.0
 10
66.653102
 20
199.454967
 30
0.0
  0
SPLINE
  5
200
100
AcDbEntity
  8
0
 62
6
100
AcDbSpline
 70
8
 71
3
 72
8
 73
4
 74
0
 40
0
 40
0
 40
0
 40
0
 40
1
 40
1
 40
1
 40
1
 10
66.653102
 20
199.454967
 30
0.0
 10
65.127010
 20
199.166247
 30
0.0
 10
63.518426
 20
199.248738
 30
0.0
 10
61.992334
 20
199.537459
 30
0.0
  0
SPLINE
  5
201
100
AcDbEntity
  8
0
 62
6
100
AcDbSpline
 70
8
 71
3
 72
8
 73
4
 74
0
 40
0
 40
0
 40
0
 40
0
 40
1
 40
1
 40
1
 40
1
 10
61.992334
 20
199.537459
 30
0.0
 10
60.466242
 20
199.784933
 30
0.0
 10
58.940149
 20
200.238636
 30
0.0
 10
57.620286
 20
200.981059
 30
0.0
  0
SPLINE
  5
202
100
AcDbEntity
  8
0
 62
6
100
AcDbSpline
 70
8
 71
3
 72
8
 73
4
 74
0
 40
0
 40
0
 40
0
 40
0
 40
1
 40
1
 40
1
 40
1
 10
57.620286
 20
200.981059
 30
0.0
 10
56.259177
 20
201.723483
 30
0.0
 10
55.063050
 20
202.837118
 30
0.0
 10
54.196890
 20
204.115735
 30
0.0
  0
SPLINE
  5
203
100
AcDbEntity
  8
0
 62
6
100
AcDbSpline
 70
8
 71
3
 72
8
 73
4
 74
0
 40
0
 40
0
 40
0
 40
0
 40
1
 40
1
 40
1
 40
1
 10
54.196890
 20
204.115735
 30
0.0
 10
53.536958
 20
205.105633
 30
0.0
 10
53.289483
 20
206.178022
 30
0.0
 10
53.206992
 20
207.374149
 30
0.0
  0
SPLINE
  5
204
100
AcDbEntity
  8
0
 62
6
100
AcDbSpline
 70
8
 71
3
 72
8
 73
4
 74
0
 40
0
 40
0
 40
0
 40
0
 40
1
 40
1
 40
1
 40
1
 10
53.206992
 20
207.374149
 30
0.0
 10
53.124501
 20
209.147715
 30
0.0
 10
53.289483
 20
210.921282
 30
0.0
 10
53.536958
 20
212.694849
 30
0.0
  0
SPLINE
  5
205
100
AcDbEntity
  8
0
 62
6
100
AcDbSpline
 70
8
 71
3
 72
8
 73
4
 74
0
 40
0
 40
0
 40
0
 40
0
 40
1
 40
1
 40
1
 40
1
 10
53.536958
 20
212.694849
 30
0.0
 10
53.578204
 20
212.901077
 30
0.0
 10
53.619449
 20
213.189798
 30
0.0
 10
53.536958
 20
213.396026
 30
0.0
  0
SPLINE
  5
206
100
AcDbEntity
  8
0
 62
6
100
AcDbSpline
 70
8
 71
3
 72
8
 73
4
 74
0
 40
0
 40
0
 40
0
 40
0
 40
1
 40
1
 40
1
 40
1
 10
52.093357
 20
212.406129
 30
0.0
 10
51.928374
 20
211.993671
 30
0.0
 10
51.887128
 20
211.498722
 30
0.0
 10
51.804637
 20
211.045019
 30
0.0
  0
SPLINE
  5
207
100
AcDbEntity
  8
0
 62
6
100
AcDbSpline
 70
8
 71
3
 72
8
 73
4
 74
0
 40
0
 40
0
 40
0
 40
0
 40
1
 40
1
 40
1
 40
1
 10
51.804637
 20
211.045019
 30
0.0
 10
51.680900
 20
210.426333
 30
0.0
 10
51.557163
 20
209.766401
 30
0.0
 10
51.433425
 20
209.147715
 30
0.0
  0
SPLINE
  5
208
100
AcDbEntity
  8
0
 62
6
100
AcDbSpline
 70
8
 71
3
 72
8
 73
4
 74
0
 40
0
 40
0
 40
0
 40
0
 40
1
 40
1
 40
1
 40
1
 10
51.433425
 20
209.147715
 30
0.0
 10
51.185951
 20
208.034080
 30
0.0
 10
50.855985
 20
206.961691
 30
0.0
 10
50.732248
 20
205.848056
 30
0.0
  0
SPLINE
  5
209
100
AcDbEntity
  8
0
 62
6
100
AcDbSpline
 70
8
 71
3
 72
8
 73
4
 74
0
 40
0
 40
0
 40
0
 40
0
 40
1
 40
1
 40
1
 40
1
 10
50.732248
 20
205.848056
 30
0.0
 10
50.649756
 20
205.270616
 30
0.0
 10
50.608511
 20
204.280718
 30
0.0
 10
50.938476
 20
203.785770
 30
0.0
  0
SPLINE
  5
20a
100
AcDbEntity
  8
0
 62
6
100
AcDbSpline
 70
8
 71
3
 72
8
 73
4
 74
0
 40
0
 40
0
 40
0
 40
0
 40
1
 40
1
 40
1
 40
1
 10
50.938476
 20
203.785770
 30
0.0
 10
51.309688
 20
203.249575
 30
0.0
 10
51.639654
 20
204.651930
 30
0.0
 10
51.680900
 20
204.940650
 30
0.0
  0
SPLINE
  5
20b
100
AcDbEntity
  8
0
 62
6
100
AcDbSpline
 70
8
 71
3
 72
8
 73
4
 74
0
 40
0
 40
0
 40
0
 40
0
 40
1
 40
1
 40
1
 40
1
 10
51.680900
 20
204.940650
 30
0.0
 10
51.763391
 20
205.559336
 30
0.0
 10
51.804637
 20
206.219268
 30
0.0
 10
51.928374
 20
206.837954
 30
0.0
  0
SPLINE
  5
20c
100
AcDbEntity
  8
0
 62
6
100
AcDbSpline
 70
8
 71
3
 72
8
 73
4
 74
0
 40
0
 40
0
 40
0
 40
0
 40
1
 40
1
 40
1
 40
1
 10
51.928374
 20
206.837954
 30
0.0
 10
51.969620
 20
207.167920
 30
0.0
 10
52.052111
 20
207.456640
 30
0.0
 10
52.093357
 20
207.745360
 30
0.0
  0
SPLINE
  5
20d
100
AcDbEntity
  8
0
 62
6
100
AcDbSpline
 70
8
 71
3
 72
8
 73
4
 74
0
 40
0
 40
0
 40
0
 40
0
 40
1
 40
1
 40
1
 40
1
 10
52.093357
 20
207.745360
 30
0.0
 10
52.134603
 20
207.910343
 30
0.0
 10
52.175849
 20
208.199063
 30
0.0
 10
52.258340
 20
208.322801
 30
0.0
  0
SPLINE
  5
20e
100
AcDbEntity
  8
0
 62
6
100
AcDbSpline
 70
8
 71
3
 72
8
 73
4
 74
0
 40
0
 40
0
 40
0
 40
0
 40
1
 40
1
 40
1
 40
1
 10
52.258340
 20
208.322801
 30
0.0
 10
52.340832
 20
207.745360
 30
0.0
 10
52.217094
 20
207.085428
 30
0.0
 10
52.217094
 20
206.466742
 30
0.0
  0
SPLINE
  5
20f
100
AcDbEntity
  8
0
 62
6
100
AcDbSpline
 70
8
 71
3
 72
8
 73
4
 74
0
 40
0
 40
0
 40
0
 40
0
 40
1
 40
1
 40
1
 40
1
 10
52.217094
 20
206.466742
 30
0.0
 10
52.217094
 20
206.095531
 30
0.0
 10
52.258340
 20
205.724319
 30
0.0
 10
52.340832
 20
205.353108
 30
0.0
  0
SPLINE
  5
210
100
AcDbEntity
  8
0
 62
6
100
AcDbSpline
 70
8
 71
3
 72
8
 73
4
 74
0
 40
0
 40
0
 40
0
 40
0
 40
1
 40
1
 40
1
 40
1
 10
52.340832
 20
205.353108
 30
0.0
 10
52.588306
 20
204.363210
 30
0.0
 10
53.165746
 20
203.414558
 30
0.0
 10
53.743187
 20
202.548397
 30
0.0
  0
SPLINE
  5
211
100
AcDbEntity
  8
0
 62
6
100
AcDbSpline
 70
8
 71
3
 72
8
 73
4
 74
0
 40
0
 40
0
 40
0
 40
0
 40
1
 40
1
 40
1
 40
1
 10
53.743187
 20
202.548397
 30
0.0
 10
55.145542
 20
200.444865
 30
0.0
 10
57.455303
 20
199.372476
 30
0.0
 10
59.806310
 20
198.671298
 30
0.0
  0
SPLINE
  5
212
100
AcDbEntity
  8
0
 62
6
100
AcDbSpline
 70
8
 71
3
 72
8
 73
4
 74
0
 40
0
 40
0
 40
0
 40
0
 40
1
 40
1
 40
1
 40
1
 10
59.806310
 20
198.671298
 30
0.0
 10
62.404791
 20
197.887629
 30
0.0
 10
65.085764
 20
197.557663
 30
0.0
 10
67.725491
 20
198.341332
 30
0.0
  0
SPLINE
  5
213
100
AcDbEntity
  8
0
 62
6
100
AcDbSpline
 70
8
 71
3
 72
8
 73
4
 74
0
 40
0
 40
0
 40
0
 40
0
 40
1
 40
1
 40
1
 40
1
 10
67.725491
 20
198.341332
 30
0.0
 10
69.086601
 20
198.753790
 30
0.0
 10
70.365219
 20
199.331230
 30
0.0
 10
71.643836
 20
199.908670
 30
0.0
  0
SPLINE
  5
214
100
AcDbEntity
  8
0
 62
6
100
AcDbSpline
 70
8
 71
3
 72
8
 73
4
 74
0
 40
0
 40
0
 40
0
 40
0
 40
1
 40
1
 40
1
 40
1
 10
71.643836
 20
199.908670
 30
0.0
 10
73.004946
 20
200.527356
 30
0.0
 10
74.324809
 20
201.146042
 30
0.0
 10
75.603427
 20
201.888466
 30
0.0
  0
SPLINE
  5
215
100
AcDbEntity
  8
0
 62
6
100
AcDbSpline
 70
8
 71
3
 72
8
 73
4
 74
0
 40
0
 40
0
 40
0
 40
0
 40
1
 40
1
 40
1
 40
1
 10
75.603427
 20
201.888466
 30
0.0
 10
78.036926
 20
203.249575
 30
0.0
 10
80.429178
 20
204.858159
 30
0.0
 10
82.491465
 20
206.755463
 30
0.0
  0
SPLINE
  5
216
100
AcDbEntity
  8
0
 62
6
100
AcDbSpline
 70
8
 71
3
 72
8
 73
4
 74
0
 40
0
 40
0
 40
0
 40
0
 40
1
 40
1
 40
1
 40
1
 10
82.491465
 20
206.755463
 30
0.0
 10
83.481363
 20
207.662869
 30
0.0
 10
84.347523
 20
208.652766
 30
0.0
 10
85.172438
 20
209.725156
 30
0.0
  0
SPLINE
  5
217
100
AcDbEntity
  8
0
 62
6
100
AcDbSpline
 70
8
 71
3
 72
8
 73
4
 74
0
 40
0
 40
0
 40
0
 40
0
 40
1
 40
1
 40
1
 40
1
 10
85.172438
 20
209.725156
 30
0.0
 10
85.337421
 20
209.931384
 30
0.0
 10
85.832370
 20
210.838791
 30
0.0
 10
86.203582
 20
210.550070
 30
0.0
  0
SPLINE
  5
218
100
AcDbEntity
  8
0
 62
6
100
AcDbSpline
 70
8
 71
3
 72
8
 73
4
 74
0
 40
0
 40
0
 40
0
 40
0
 40
1
 40
1
 40
1
 40
1
 10
86.203582
 20
210.550070
 30
0.0
 10
86.409810
 20
210.385087
 30
0.0
 10
86.492302
 20
209.972630
 30
0.0
 10
86.574793
 20
209.683910
 30
0.0
  0
SPLINE
  5
219
100
AcDbEntity
  8
0
 62
6
100
AcDbSpline
 70
8
 71
3
 72
8
 73
4
 74
0
 40
0
 40
0
 40
0
 40
0
 40
1
 40
1
 40
1
 40
1
 10
86.574793
 20
209.683910
 30
0.0
 10
86.698531
 20
209.147715
 30
0.0
 10
86.739776
 20
208.570275
 30
0.0
 10
86.822268
 20
208.034080
 30
0.0
  0
SPLINE
  5
21a
100
AcDbEntity
  8
0
 62
6
100
AcDbSpline
 70
8
 71
3
 72
8
 73
4
 74
0
 40
0
 40
0
 40
0
 40
0
 40
1
 40
1
 40
1
 40
1
 10
86.822268
 20
208.034080
 30
0.0
 10
86.904759
 20
207.374149
 30
0.0
 10
87.069742
 20
206.755463
 30
0.0
 10
87.234725
 20
206.095531
 30
0.0
  0
SPLINE
  5
21b
100
AcDbEntity
  8
0
 62
6
100
AcDbSpline
 70
8
 71
3
 72
8
 73
4
 74
0
 40
0
 40
0
 40
0
 40
0
 40
1
 40
1
 40
1
 40
1
 10
87.234725
 20
206.095531
 30
0.0
 10
87.564691
 20
204.651930
 30
0.0
 10
87.977148
 20
203.249575
 30
0.0
 10
88.224623
 20
201.764728
 30
0.0
  0
SPLINE
  5
21c
100
AcDbEntity
  8
0
 62
6
100
AcDbSpline
 70
8
 71
3
 72
8
 73
4
 74
0
 40
0
 40
0
 40
0
 40
0
 40
1
 40
1
 40
1
 40
1
 10
88.224623
 20
201.764728
 30
0.0
 10
88.430851
 20
200.403619
 30
0.0
 10
88.554589
 20
199.042510
 30
0.0
 10
88.884555
 20
197.722646
 30
0.0
  0
SPLINE
  5
21d
100
AcDbEntity
  8
0
 62
6
100
AcDbSpline
 70
8
 71
3
 72
8
 73
4
 74
0
 40
0
 40
0
 40
0
 40
0
 40
1
 40
1
 40
1
 40
1
 10
88.884555
 20
197.722646
 30
0.0
 10
88.967046
 20
197.310189
 30
0.0
 10
89.090783
 20
196.856486
 30
0.0
 10
89.379503
 20
196.526520
 30
0.0
  0
SPLINE
  5
21e
100
AcDbEntity
  8
0
 62
6
100
AcDbSpline
 70
8
 71
3
 72
8
 73
4
 74
0
 40
0
 40
0
 40
0
 40
0
 40
1
 40
1
 40
1
 40
1
 10
89.379503
 20
196.526520
 30
0.0
 10
89.668224
 20
196.155308
 30
0.0
 10
90.121927
 20
196.196554
 30
0.0
 10
90.245664
 20
196.691503
 30
0.0
  0
SPLINE
  5
21f
100
AcDbEntity
  8
0
 62
6
100
AcDbSpline
 70
8
 71
3
 72
8
 73
4
 74
0
 40
0
 40
0
 40
0
 40
0
 40
1
 40
1
 40
1
 40
1
 10
90.245664
 20
196.691503
 30
0.0
 10
90.328155
 20
197.062714
 30
0.0
 10
90.204418
 20
197.516417
 30
0.0
 10
90.121927
 20
197.887629
 30
0.0
  0
SPLINE
  5
220
100
AcDbEntity
  8
0
 62
6
100
AcDbSpline
 70
8
 71
3
 72
8
 73
4
 74
0
 40
0
 40
0
 40
0
 40
0
 40
1
 40
1
 40
1
 40
1
 10
90.121927
 20
197.887629
 30
0.0
 10
89.956944
 20
198.547561
 30
0.0
 10
89.833207
 20
199.207493
 30
0.0
 10
89.709469
 20
199.867424
 30
0.0
  0
SPLINE
  5
221
100
AcDbEntity
  8
0
 62
6
100
AcDbSpline
 70
8
 71
3
 72
8
 73
4
 74
0
 40
0
 40
0
 40
0
 40
0
 40
1
 40
1
 40
1
 40
1
 10
89.709469
 20
199.867424
 30
0.0
 10
89.585732
 20
200.609848
 30
0.0
 10
89.503241
 20
201.311025
 30
0.0
 10
89.338258
 20
202.053449
 30
0.0
  0
SPLINE
  5
222
100
AcDbEntity
  8
0
 62
6
100
AcDbSpline
 70
8
 71
3
 72
8
 73
4
 74
0
 40
0
 40
0
 40
0
 40
0
 40
1
 40
1
 40
1
 40
1
 10
89.338258
 20
202.053449
 30
0.0
 10
89.173275
 20
202.713380
 30
0.0
 10
88.967046
 20
203.373312
 30
0.0
 10
88.843309
 20
204.033244
 30
0.0
  0
SPLINE
  5
223
100
AcDbEntity
  8
0
 62
6
100
AcDbSpline
 70
8
 71
3
 72
8
 73
4
 74
0
 40
0
 40
0
 40
0
 40
0
 40
1
 40
1
 40
1
 40
1
 10
88.843309
 20
204.033244
 30
0.0
 10
88.224623
 20
206.796708
 30
0.0
 10
88.142131
 20
209.601418
 30
0.0
 10
87.977148
 20
212.364883
 30
0.0
  0
SPLINE
  5
224
100
AcDbEntity
  8
0
 62
6
100
AcDbSpline
 70
8
 71
3
 72
8
 73
4
 74
0
 40
0
 40
0
 40
0
 40
0
 40
1
 40
1
 40
1
 40
1
 10
87.977148
 20
212.364883
 30
0.0
 10
87.935903
 20
212.777340
 30
0.0
 10
87.935903
 20
213.189798
 30
0.0
 10
87.812165
 20
213.561009
 30
0.0
  0
SPLINE
  5
225
100
AcDbEntity
  8
0
 62
5
100
AcDbSpline
 70
8
 71
3
 72
8
 73
4
 74
0
 40
0
 40
0
 40
0
 40
0
 40
1
 40
1
 40
1
 40
1
 10
55.640490
 20
167.819487
 30
0.0
 10
54.691839
 20
166.664606
 30
0.0
 10
53.701941
 20
165.633463
 30
0.0
 10
53.413221
 20
164.107370
 30
0.0
  0
SPLINE
  5
226
100
AcDbEntity
  8
0
 62
5
100
AcDbSpline
 70
8
 71
3
 72
8
 73
4
 74
0
 40
0
 40
0
 40
0
 40
0
 40
1
 40
1
 40
1
 40
1
 10
53.413221
 20
164.107370
 30
0.0
 10
53.042009
 20
162.168821
 30
0.0
 10
53.289483
 20
160.189025
 30
0.0
 10
53.206992
 20
158.250476
 30
0.0
  0
SPLINE
  5
227
100
AcDbEntity
  8
0
 62
5
100
AcDbSpline
 70
8
 71
3
 72
8
 73
4
 74
0
 40
0
 40
0
 40
0
 40
0
 40
1
 40
1
 40
1
 40
1
 10
53.206992
 20
158.250476
 30
0.0
 10
53.124501
 20
156.476909
 30
0.0
 10
52.629552
 20
154.785834
 30
0.0
 10
52.052111
 20
153.136004
 30
0.0
  0
SPLINE
  5
228
100
AcDbEntity
  8
0
 62
5
100
AcDbSpline
 70
8
 71
3
 72
8
 73
4
 74
0
 40
0
 40
0
 40
0
 40
0
 40
1
 40
1
 40
1
 40
1
 10
52.052111
 20
153.136004
 30
0.0
 10
51.350934
 20
151.238700
 30
0.0
 10
50.608511
 20
149.341397
 30
0.0
 10
49.989825
 20
147.361601
 30
0.0
  0
SPLINE
  5
229
100
AcDbEntity
  8
0
 62
5
100
AcDbSpline
 70
8
 71
3
 72
8
 73
4
 74
0
 40
0
 40
0
 40
0
 40
0
 40
1
 40
1
 40
1
 40
1
 10
49.989825
 20
147.361601
 30
0.0
 10
49.453630
 20
145.588034
 30
0.0
 10
48.917435
 20
143.855714
 30
0.0
 10
48.422486
 20
142.040901
 30
0.0
  0
SPLINE
  5
22a
100
AcDbEntity
  8
0
 62
5
100
AcDbSpline
 70
8
 71
3
 72
8
 73
4
 74
0
 40
0
 40
0
 40
0
 40
0
 40
1
 40
1
 40
1
 40
1
 10
48.422486
 20
142.040901
 30
0.0
 10
47.762555
 20
139.648648
 30
0.0
 10
47.143869
 20
137.297641
 30
0.0
 10
46.483937
 20
134.905389
 30
0.0
  0
SPLINE
  5
22b
100
AcDbEntity
  8
0
 62
5
100
AcDbSpline
 70
8
 71
3
 72
8
 73
4
 74
0
 40
0
 40
0
 40
0
 40
0
 40
1
 40
1
 40
1
 40
1
 10
46.483937
 20
134.905389
 30
0.0
 10
45.988988
 20
133.090576
 30
0.0
 10
45.535285
 20
131.275764
 30
0.0
 10
45.040336
 20
129.460951
 30
0.0
  0
SPLINE
  5
22c
100
AcDbEntity
  8
0
 62
5
100
AcDbSpline
 70
8
 71
3
 72
8
 73
4
 74
0
 40
0
 40
0
 40
0
 40
0
 40
1
 40
1
 40
1
 40
1
 10
45.040336
 20
129.460951
 30
0.0
 10
44.504141
 20
127.357419
 30
0.0
 10
43.967947
 20
125.295132
 30
0.0
 10
43.514244
 20
123.191599
 30
0.0
  0
SPLINE
  5
22d
100
AcDbEntity
  8
0
 62
5
100
AcDbSpline
 70
8
 71
3
 72
8
 73
4
 74
0
 40
0
 40
0
 40
0
 40
0
 40
1
 40
1
 40
1
 40
1
 10
43.514244
 20
123.191599
 30
0.0
 10
43.060541
 20
121.088067
 30
0.0
 10
42.606838
 20
118.984534
 30
0.0
 10
42.194380
 20
116.839756
 30
0.0
  0
SPLINE
  5
22e
100
AcDbEntity
  8
0
 62
5
100
AcDbSpline
 70
8
 71
3
 72
8
 73
4
 74
0
 40
0
 40
0
 40
0
 40
0
 40
1
 40
1
 40
1
 40
1
 10
42.194380
 20
116.839756
 30
0.0
 10
41.823169
 20
114.736223
 30
0.0
 10
41.493203
 20
112.673936
 30
0.0
 10
41.204483
 20
110.570404
 30
0.0
  0
SPLINE
  5
22f
100
AcDbEntity
  8
0
 62
5
100
AcDbSpline
 70
8
 71
3
 72
8
 73
4
 74
0
 40
0
 40
0
 40
0
 40
0
 40
1
 40
1
 40
1
 40
1
 10
41.204483
 20
110.570404
 30
0.0
 10
40.998254
 20
109.250540
 30
0.0
 10
40.833271
 20
107.889431
 30
0.0
 10
40.668288
 20
106.569567
 30
0.0
  0
SPLINE
  5
230
100
AcDbEntity
  8
0
 62
5
100
AcDbSpline
 70
8
 71
3
 72
8
 73
4
 74
0
 40
0
 40
0
 40
0
 40
0
 40
1
 40
1
 40
1
 40
1
 10
40.668288
 20
106.569567
 30
0.0
 10
40.379568
 20
104.301052
 30
0.0
 10
40.090848
 20
102.032536
 30
0.0
 10
39.802127
 20
99.764021
 30
0.0
  0
SPLINE
  5
231
100
AcDbEntity
  8
0
 62
5
100
AcDbSpline
 70
8
 71
3
 72
8
 73
4
 74
0
 40
0
 40
0
 40
0
 40
0
 40
1
 40
1
 40
1
 40
1
 10
39.802127
 20
99.764021
 30
0.0
 10
39.430916
 20
96.711836
 30
0.0
 10
39.018458
 20
93.618406
 30
0.0
 10
38.647247
 20
90.566221
 30
0.0
  0
SPLINE
  5
232
100
AcDbEntity
  8
0
 62
5
100
AcDbSpline
 70
8
 71
3
 72
8
 73
4
 74
0
 40
0
 40
0
 40
0
 40
0
 40
1
 40
1
 40
1
 40
1
 10
38.647247
 20
90.566221
 30
0.0
 10
38.358527
 20
88.132723
 30
0.0
 10
38.028561
 20
85.699224
 30
0.0
 10
37.739841
 20
83.265726
 30
0.0
  0
SPLINE
  5
233
100
AcDbEntity
  8
0
 62
5
100
AcDbSpline
 70
8
 71
3
 72
8
 73
4
 74
0
 40
0
 40
0
 40
0
 40
0
 40
1
 40
1
 40
1
 40
1
 10
37.739841
 20
83.265726
 30
0.0
 10
37.574858
 20
81.863371
 30
0.0
 10
37.409875
 20
80.502261
 30
0.0
 10
37.203646
 20
79.099906
 30
0.0
  0
SPLINE
  5
234
100
AcDbEntity
  8
0
 62
5
100
AcDbSpline
 70
8
 71
3
 72
8
 73
4
 74
0
 40
0
 40
0
 40
0
 40
0
 40
1
 40
1
 40
1
 40
1
 10
37.203646
 20
79.099906
 30
0.0
 10
36.956172
 20
77.120111
 30
0.0
 10
36.749943
 20
75.181561
 30
0.0
 10
36.584960
 20
73.201766
 30
0.0
  0
SPLINE
  5
235
100
AcDbEntity
  8
0
 62
5
100
AcDbSpline
 70
8
 71
3
 72
8
 73
4
 74
0
 40
0
 40
0
 40
0
 40
0
 40
1
 40
1
 40
1
 40
1
 10
36.584960
 20
73.201766
 30
0.0
 10
36.378731
 20
71.015742
 30
0.0
 10
36.213748
 20
68.829718
 30
0.0
 10
36.090011
 20
66.684939
 30
0.0
  0
SPLINE
  5
236
100
AcDbEntity
  8
0
 62
5
100
AcDbSpline
 70
8
 71
3
 72
8
 73
4
 74
0
 40
0
 40
0
 40
0
 40
0
 40
1
 40
1
 40
1
 40
1
 10
36.090011
 20
66.684939
 30
0.0
 10
36.007520
 20
65.365076
 30
0.0
 10
35.925028
 20
64.003967
 30
0.0
 10
35.842537
 20
62.684103
 30
0.0
  0
SPLINE
  5
237
100
AcDbEntity
  8
0
 62
5
100
AcDbSpline
 70
8
 71
3
 72
8
 73
4
 74
0
 40
0
 40
0
 40
0
 40
0
 40
1
 40
1
 40
1
 40
1
 10
35.842537
 20
62.684103
 30
0.0
 10
35.677554
 20
60.003130
 30
0.0
 10
35.553817
 20
57.363403
 30
0.0
 10
35.388834
 20
54.682430
 30
0.0
  0
SPLINE
  5
238
100
AcDbEntity
  8
0
 62
5
100
AcDbSpline
 70
8
 71
3
 72
8
 73
4
 74
0
 40
0
 40
0
 40
0
 40
0
 40
1
 40
1
 40
1
 40
1
 10
35.388834
 20
54.682430
 30
0.0
 10
35.223851
 20
51.712737
 30
0.0
 10
35.058868
 20
48.743044
 30
0.0
 10
34.893885
 20
45.773351
 30
0.0
  0
SPLINE
  5
239
100
AcDbEntity
  8
0
 62
5
100
AcDbSpline
 70
8
 71
3
 72
8
 73
4
 74
0
 40
0
 40
0
 40
0
 40
0
 40
1
 40
1
 40
1
 40
1
 10
34.893885
 20
45.773351
 30
0.0
 10
34.811393
 20
44.412241
 30
0.0
 10
34.770148
 20
43.051132
 30
0.0
 10
34.687656
 20
41.690023
 30
0.0
  0
SPLINE
  5
23a
100
AcDbEntity
  8
0
 62
5
100
AcDbSpline
 70
8
 71
3
 72
8
 73
4
 74
0
 40
0
 40
0
 40
0
 40
0
 40
1
 40
1
 40
1
 40
1
 10
34.687656
 20
41.690023
 30
0.0
 10
34.563919
 20
39.297770
 30
0.0
 10
34.398936
 20
36.864272
 30
0.0
 10
34.233953
 20
34.472019
 30
0.0
  0
SPLINE
  5
23b
100
AcDbEntity
  8
0
 62
5
100
AcDbSpline
 70
8
 71
3
 72
8
 73
4
 74
0
 40
0
 40
0
 40
0
 40
0
 40
1
 40
1
 40
1
 40
1
 10
34.233953
 20
34.472019
 30
0.0
 10
34.110216
 20
32.657206
 30
0.0
 10
33.986479
 20
30.842394
 30
0.0
 10
33.780250
 20
29.027581
 30
0.0
  0
SPLINE
  5
23c
100
AcDbEntity
  8
0
 62
5
100
AcDbSpline
 70
8
 71
3
 72
8
 73
4
 74
0
 40
0
 40
0
 40
0
 40
0
 40
1
 40
1
 40
1
 40
1
 10
33.780250
 20
29.027581
 30
0.0
 10
33.574021
 20
27.047786
 30
0.0
 10
33.120318
 20
25.109236
 30
0.0
 10
32.872844
 20
23.170687
 30
0.0
  0
SPLINE
  5
23d
100
AcDbEntity
  8
0
 62
5
100
AcDbSpline
 70
8
 71
3
 72
8
 73
4
 74
0
 40
0
 40
0
 40
0
 40
0
 40
1
 40
1
 40
1
 40
1
 10
32.872844
 20
23.170687
 30
0.0
 10
32.707861
 20
21.768332
 30
0.0
 10
32.625369
 20
20.159748
 30
0.0
 10
33.285301
 20
18.881130
 30
0.0
  0
SPLINE
  5
23e
100
AcDbEntity
  8
0
 62
5
100
AcDbSpline
 70
8
 71
3
 72
8
 73
4
 74
0
 40
0
 40
0
 40
0
 40
0
 40
1
 40
1
 40
1
 40
1
 10
33.285301
 20
18.881130
 30
0.0
 10
33.615267
 20
18.179953
 30
0.0
 10
34.233953
 20
17.726250
 30
0.0
 10
34.935130
 20
17.478775
 30
0.0
  0
SPLINE
  5
23f
100
AcDbEntity
  8
0
 62
5
100
AcDbSpline
 70
8
 71
3
 72
8
 73
4
 74
0
 40
0
 40
0
 40
0
 40
0
 40
1
 40
1
 40
1
 40
1
 10
34.935130
 20
17.478775
 30
0.0
 10
36.708697
 20
16.818843
 30
0.0
 10
38.729738
 20
16.901335
 30
0.0
 10
40.585796
 20
16.695106
 30
0.0
  0
SPLINE
  5
240
100
AcDbEntity
  8
0
 62
5
100
AcDbSpline
 70
8
 71
3
 72
8
 73
4
 74
0
 40
0
 40
0
 40
0
 40
0
 40
1
 40
1
 40
1
 40
1
 10
40.585796
 20
16.695106
 30
0.0
 10
42.813066
 20
16.447632
 30
0.0
 10
45.040336
 20
16.117666
 30
0.0
 10
47.308852
 20
15.828946
 30
0.0
  0
SPLINE
  5
241
100
AcDbEntity
  8
0
 62
5
100
AcDbSpline
 70
8
 71
3
 72
8
 73
4
 74
0
 40
0
 40
0
 40
0
 40
0
 40
1
 40
1
 40
1
 40
1
 10
47.308852
 20
15.828946
 30
0.0
 10
49.206156
 20
15.581471
 30
0.0
 10
51.103459
 20
15.375243
 30
0.0
 10
53.000763
 20
15.251505
 30
0.0
  0
SPLINE
  5
242
100
AcDbEntity
  8
0
 62
5
100
AcDbSpline
 70
8
 71
3
 72
8
 73
4
 74
0
 40
0
 40
0
 40
0
 40
0
 40
1
 40
1
 40
1
 40
1
 10
53.000763
 20
15.251505
 30
0.0
 10
55.063050
 20
15.086522
 30
0.0
 10
57.125337
 20
14.962785
 30
0.0
 10
59.187624
 20
14.921539
 30
0.0
  0
SPLINE
  5
243
100
AcDbEntity
  8
0
 62
5
100
AcDbSpline
 70
8
 71
3
 72
8
 73
4
 74
0
 40
0
 40
0
 40
0
 40
0
 40
1
 40
1
 40
1
 40
1
 10
59.187624
 20
14.921539
 30
0.0
 10
61.167419
 20
14.839048
 30
0.0
 10
63.188460
 20
14.797802
 30
0.0
 10
65.168256
 20
14.756556
 30
0.0
  0
SPLINE
  5
244
100
AcDbEntity
  8
0
 62
5
100
AcDbSpline
 70
8
 71
3
 72
8
 73
4
 74
0
 40
0
 40
0
 40
0
 40
0
 40
1
 40
1
 40
1
 40
1
 10
65.168256
 20
14.756556
 30
0.0
 10
67.230543
 20
14.756556
 30
0.0
 10
69.292829
 20
14.715311
 30
0.0
 10
71.355116
 20
14.715311
 30
0.0
  0
SPLINE
  5
245
100
AcDbEntity
  8
0
 62
5
100
AcDbSpline
 70
8
 71
3
 72
8
 73
4
 74
0
 40
0
 40
0
 40
0
 40
0
 40
1
 40
1
 40
1
 40
1
 10
71.355116
 20
14.715311
 30
0.0
 10
73.376157
 20
14.715311
 30
0.0
 10
75.355953
 20
14.715311
 30
0.0
 10
77.376994
 20
14.715311
 30
0.0
  0
SPLINE
  5
246
100
AcDbEntity
  8
0
 62
5
100
AcDbSpline
 70
8
 71
3
 72
8
 73
4
 74
0
 40
0
 40
0
 40
0
 40
0
 40
1
 40
1
 40
1
 40
1
 10
77.376994
 20
14.715311
 30
0.0
 10
79.851738
 20
14.756556
 30
0.0
 10
82.367728
 20
14.756556
 30
0.0
 10
84.842472
 20
14.797802
 30
0.0
  0
SPLINE
  5
247
100
AcDbEntity
  8
0
 62
5
100
AcDbSpline
 70
8
 71
3
 72
8
 73
4
 74
0
 40
0
 40
0
 40
0
 40
0
 40
1
 40
1
 40
1
 40
1
 10
84.842472
 20
14.797802
 30
0.0
 10
86.946005
 20
14.839048
 30
0.0
 10
89.049538
 20
14.839048
 30
0.0
 10
91.153070
 20
14.880294
 30
0.0
  0
SPLINE
  5
248
100
AcDbEntity
  8
0
 62
5
100
AcDbSpline
 70
8
 71
3
 72
8
 73
4
 74
0
 40
0
 40
0
 40
0
 40
0
 40
1
 40
1
 40
1
 40
1
 10
91.153070
 20
14.880294
 30
0.0
 10
93.050374
 20
14.921539
 30
0.0
 10
94.906432
 20
14.962785
 30
0.0
 10
96.803736
 20
15.045277
 30
0.0
  0
SPLINE
  5
249
100
AcDbEntity
  8
0
 62
5
100
AcDbSpline
 70
8
 71
3
 72
8
 73
4
 74
0
 40
0
 40
0
 40
0
 40
0
 40
1
 40
1
 40
1
 40
1
 10
96.803736
 20
15.045277
 30
0.0
 10
99.360972
 20
15.127768
 30
0.0
 10
101.959453
 20
15.169014
 30
0.0
 10
104.516689
 20
15.251505
 30
0.0
  0
SPLINE
  5
24a
100
AcDbEntity
  8
0
 62
5
100
AcDbSpline
 70
8
 71
3
 72
8
 73
4
 74
0
 40
0
 40
0
 40
0
 40
0
 40
1
 40
1
 40
1
 40
1
 10
104.516689
 20
15.251505
 30
0.0
 10
106.496484
 20
15.292751
 30
0.0
 10
108.435034
 20
15.416488
 30
0.0
 10
110.414829
 20
15.498980
 30
0.0
  0
SPLINE
  5
24b
100
AcDbEntity
  8
0
 62
5
100
AcDbSpline
 70
8
 71
3
 72
8
 73
4
 74
0
 40
0
 40
0
 40
0
 40
0
 40
1
 40
1
 40
1
 40
1
 10
110.414829
 20
15.498980
 30
0.0
 10
112.270888
 20
15.581471
 30
0.0
 10
114.168191
 20
15.663963
 30
0.0
 10
116.024250
 20
15.787700
 30
0.0
  0
SPLINE
  5
24c
100
AcDbEntity
  8
0
 62
5
100
AcDbSpline
 70
8
 71
3
 72
8
 73
4
 74
0
 40
0
 40
0
 40
0
 40
0
 40
1
 40
1
 40
1
 40
1
 10
116.024250
 20
15.787700
 30
0.0
 10
118.086536
 20
15.911437
 30
0.0
 10
120.190069
 20
16.076420
 30
0.0
 10
122.252356
 20
16.365140
 30
0.0
  0
SPLINE
  5
24d
100
AcDbEntity
  8
0
 62
5
100
AcDbSpline
 70
8
 71
3
 72
8
 73
4
 74
0
 40
0
 40
0
 40
0
 40
0
 40
1
 40
1
 40
1
 40
1
 10
122.252356
 20
16.365140
 30
0.0
 10
124.232151
 20
16.612615
 30
0.0
 10
126.170701
 20
17.025072
 30
0.0
 10
128.068005
 20
17.561267
 30
0.0
  0
SPLINE
  5
24e
100
AcDbEntity
  8
0
 62
5
100
AcDbSpline
 70
8
 71
3
 72
8
 73
4
 74
0
 40
0
 40
0
 40
0
 40
0
 40
1
 40
1
 40
1
 40
1
 10
128.068005
 20
17.561267
 30
0.0
 10
130.047800
 20
18.138707
 30
0.0
 10
131.986350
 20
18.757393
 30
0.0
 10
133.883654
 20
19.582308
 30
0.0
  0
SPLINE
  5
24f
100
AcDbEntity
  8
0
 62
5
100
AcDbSpline
 70
8
 71
3
 72
8
 73
4
 74
0
 40
0
 40
0
 40
0
 40
0
 40
1
 40
1
 40
1
 40
1
 10
133.883654
 20
19.582308
 30
0.0
 10
134.749814
 20
19.953519
 30
0.0
 10
135.615975
 20
20.365977
 30
0.0
 10
136.440889
 20
20.860926
 30
0.0
  0
SPLINE
  5
250
100
AcDbEntity
  8
0
 62
5
100
AcDbSpline
 70
8
 71
3
 72
8
 73
4
 74
0
 40
0
 40
0
 40
0
 40
0
 40
1
 40
1
 40
1
 40
1
 10
136.440889
 20
20.860926
 30
0.0
 10
136.977084
 20
21.190891
 30
0.0
 10
137.637016
 20
21.644595
 30
0.0
 10
137.884490
 20
22.222035
 30
0.0
  0
SPLINE
  5
251
100
AcDbEntity
  8
0
 62
5
100
AcDbSpline
 70
8
 71
3
 72
8
 73
4
 74
0
 40
0
 40
0
 40
0
 40
0
 40
1
 40
1
 40
1
 40
1
 10
137.884490
 20
22.222035
 30
0.0
 10
138.090719
 20
22.716984
 30
0.0
 10
137.884490
 20
23.211933
 30
0.0
 10
137.719507
 20
23.706881
 30
0.0
  0
SPLINE
  5
252
100
AcDbEntity
  8
0
 62
5
100
AcDbSpline
 70
8
 71
3
 72
8
 73
4
 74
0
 40
0
 40
0
 40
0
 40
0
 40
1
 40
1
 40
1
 40
1
 10
137.719507
 20
23.706881
 30
0.0
 10
137.348296
 20
24.696779
 30
0.0
 10
136.977084
 20
25.686677
 30
0.0
 10
136.647118
 20
26.676574
 30
0.0
  0
SPLINE
  5
253
100
AcDbEntity
  8
0
 62
5
100
AcDbSpline
 70
8
 71
3
 72
8
 73
4
 74
0
 40
0
 40
0
 40
0
 40
0
 40
1
 40
1
 40
1
 40
1
 10
136.647118
 20
26.676574
 30
0.0
 10
135.987186
 20
28.656370
 30
0.0
 10
135.492237
 20
30.677411
 30
0.0
 10
134.997289
 20
32.698452
 30
0.0
  0
SPLINE
  5
254
100
AcDbEntity
  8
0
 62
5
100
AcDbSpline
 70
8
 71
3
 72
8
 73
4
 74
0
 40
0
 40
0
 40
0
 40
0
 40
1
 40
1
 40
1
 40
1
 10
134.997289
 20
32.698452
 30
0.0
 10
134.502340
 20
34.719493
 30
0.0
 10
134.007391
 20
36.740534
 30
0.0
 10
133.429951
 20
38.720330
 30
0.0
  0
SPLINE
  5
255
100
AcDbEntity
  8
0
 62
5
100
AcDbSpline
 70
8
 71
3
 72
8
 73
4
 74
0
 40
0
 40
0
 40
0
 40
0
 40
1
 40
1
 40
1
 40
1
 10
133.429951
 20
38.720330
 30
0.0
 10
132.811265
 20
40.782617
 30
0.0
 10
132.151333
 20
42.844903
 30
0.0
 10
131.450155
 20
44.907190
 30
0.0
  0
SPLINE
  5
256
100
AcDbEntity
  8
0
 62
5
100
AcDbSpline
 70
8
 71
3
 72
8
 73
4
 74
0
 40
0
 40
0
 40
0
 40
0
 40
1
 40
1
 40
1
 40
1
 10
131.450155
 20
44.907190
 30
0.0
 10
130.913961
 20
46.515774
 30
0.0
 10
130.336520
 20
48.083112
 30
0.0
 10
129.759080
 20
49.650450
 30
0.0
  0
SPLINE
  5
257
100
AcDbEntity
  8
0
 62
5
100
AcDbSpline
 70
8
 71
3
 72
8
 73
4
 74
0
 40
0
 40
0
 40
0
 40
0
 40
1
 40
1
 40
1
 40
1
 10
129.759080
 20
49.650450
 30
0.0
 10
129.057902
 20
51.589000
 30
0.0
 10
128.315479
 20
53.568795
 30
0.0
 10
127.614302
 20
55.507345
 30
0.0
  0
SPLINE
  5
258
100
AcDbEntity
  8
0
 62
5
100
AcDbSpline
 70
8
 71
3
 72
8
 73
4
 74
0
 40
0
 40
0
 40
0
 40
0
 40
1
 40
1
 40
1
 40
1
 10
127.614302
 20
55.507345
 30
0.0
 10
126.583158
 20
58.353301
 30
0.0
 10
125.510769
 20
61.199256
 30
0.0
 10
124.479626
 20
64.086458
 30
0.0
  0
SPLINE
  5
259
100
AcDbEntity
  8
0
 62
5
100
AcDbSpline
 70
8
 71
3
 72
8
 73
4
 74
0
 40
0
 40
0
 40
0
 40
0
 40
1
 40
1
 40
1
 40
1
 10
124.479626
 20
64.086458
 30
0.0
 10
123.984677
 20
65.488813
 30
0.0
 10
123.448482
 20
66.849922
 30
0.0
 10
122.953533
 20
68.252277
 30
0.0
  0
SPLINE
  5
25a
100
AcDbEntity
  8
0
 62
5
100
AcDbSpline
 70
8
 71
3
 72
8
 73
4
 74
0
 40
0
 40
0
 40
0
 40
0
 40
1
 40
1
 40
1
 40
1
 10
122.953533
 20
68.252277
 30
0.0
 10
122.211110
 20
70.355810
 30
0.0
 10
121.509933
 20
72.459343
 30
0.0
 10
120.808755
 20
74.562875
 30
0.0
  0
SPLINE
  5
25b
100
AcDbEntity
  8
0
 62
5
100
AcDbSpline
 70
8
 71
3
 72
8
 73
4
 74
0
 40
0
 40
0
 40
0
 40
0
 40
1
 40
1
 40
1
 40
1
 10
120.808755
 20
74.562875
 30
0.0
 10
120.190069
 20
76.501425
 30
0.0
 10
119.612629
 20
78.439975
 30
0.0
 10
119.076434
 20
80.419770
 30
0.0
  0
SPLINE
  5
25c
100
AcDbEntity
  8
0
 62
5
100
AcDbSpline
 70
8
 71
3
 72
8
 73
4
 74
0
 40
0
 40
0
 40
0
 40
0
 40
1
 40
1
 40
1
 40
1
 10
119.076434
 20
80.419770
 30
0.0
 10
118.581485
 20
82.234582
 30
0.0
 10
118.169028
 20
84.049395
 30
0.0
 10
117.756571
 20
85.864207
 30
0.0
  0
SPLINE
  5
25d
100
AcDbEntity
  8
0
 62
5
100
AcDbSpline
 70
8
 71
3
 72
8
 73
4
 74
0
 40
0
 40
0
 40
0
 40
0
 40
1
 40
1
 40
1
 40
1
 10
117.756571
 20
85.864207
 30
0.0
 10
117.261622
 20
88.050231
 30
0.0
 10
116.766673
 20
90.236255
 30
0.0
 10
116.230478
 20
92.381034
 30
0.0
  0
SPLINE
  5
25e
100
AcDbEntity
  8
0
 62
5
100
AcDbSpline
 70
8
 71
3
 72
8
 73
4
 74
0
 40
0
 40
0
 40
0
 40
0
 40
1
 40
1
 40
1
 40
1
 10
116.230478
 20
92.381034
 30
0.0
 10
115.694284
 20
94.443321
 30
0.0
 10
115.116843
 20
96.505607
 30
0.0
 10
114.456912
 20
98.567894
 30
0.0
  0
SPLINE
  5
25f
100
AcDbEntity
  8
0
 62
5
100
AcDbSpline
 70
8
 71
3
 72
8
 73
4
 74
0
 40
0
 40
0
 40
0
 40
0
 40
1
 40
1
 40
1
 40
1
 10
114.456912
 20
98.567894
 30
0.0
 10
113.796980
 20
100.588935
 30
0.0
 10
113.095802
 20
102.609976
 30
0.0
 10
112.394625
 20
104.589772
 30
0.0
  0
SPLINE
  5
260
100
AcDbEntity
  8
0
 62
5
100
AcDbSpline
 70
8
 71
3
 72
8
 73
4
 74
0
 40
0
 40
0
 40
0
 40
0
 40
1
 40
1
 40
1
 40
1
 10
112.394625
 20
104.589772
 30
0.0
 10
111.775939
 20
106.404584
 30
0.0
 10
111.116007
 20
108.178151
 30
0.0
 10
110.456075
 20
109.992963
 30
0.0
  0
SPLINE
  5
261
100
AcDbEntity
  8
0
 62
5
100
AcDbSpline
 70
8
 71
3
 72
8
 73
4
 74
0
 40
0
 40
0
 40
0
 40
0
 40
1
 40
1
 40
1
 40
1
 10
110.456075
 20
109.992963
 30
0.0
 10
109.589915
 20
112.385216
 30
0.0
 10
108.723754
 20
114.777469
 30
0.0
 10
107.857594
 20
117.169722
 30
0.0
  0
SPLINE
  5
262
100
AcDbEntity
  8
0
 62
5
100
AcDbSpline
 70
8
 71
3
 72
8
 73
4
 74
0
 40
0
 40
0
 40
0
 40
0
 40
1
 40
1
 40
1
 40
1
 10
107.857594
 20
117.169722
 30
0.0
 10
107.238908
 20
118.902043
 30
0.0
 10
106.661467
 20
120.675609
 30
0.0
 10
106.084027
 20
122.449176
 30
0.0
  0
SPLINE
  5
263
100
AcDbEntity
  8
0
 62
5
100
AcDbSpline
 70
8
 71
3
 72
8
 73
4
 74
0
 40
0
 40
0
 40
0
 40
0
 40
1
 40
1
 40
1
 40
1
 10
106.084027
 20
122.449176
 30
0.0
 10
105.547832
 20
124.099005
 30
0.0
 10
105.052884
 20
125.748835
 30
0.0
 10
104.557935
 20
127.398664
 30
0.0
  0
SPLINE
  5
264
100
AcDbEntity
  8
0
 62
5
100
AcDbSpline
 70
8
 71
3
 72
8
 73
4
 74
0
 40
0
 40
0
 40
0
 40
0
 40
1
 40
1
 40
1
 40
1
 10
104.557935
 20
127.398664
 30
0.0
 10
103.774266
 20
129.997146
 30
0.0
 10
103.031842
 20
132.595627
 30
0.0
 10
102.248173
 20
135.194109
 30
0.0
  0
SPLINE
  5
265
100
AcDbEntity
  8
0
 62
5
100
AcDbSpline
 70
8
 71
3
 72
8
 73
4
 74
0
 40
0
 40
0
 40
0
 40
0
 40
1
 40
1
 40
1
 40
1
 10
102.248173
 20
135.194109
 30
0.0
 10
101.711979
 20
136.967675
 30
0.0
 10
101.175784
 20
138.699996
 30
0.0
 10
100.557098
 20
140.432317
 30
0.0
  0
SPLINE
  5
266
100
AcDbEntity
  8
0
 62
5
100
AcDbSpline
 70
8
 71
3
 72
8
 73
4
 74
0
 40
0
 40
0
 40
0
 40
0
 40
1
 40
1
 40
1
 40
1
 10
100.557098
 20
140.432317
 30
0.0
 10
99.814675
 20
142.494604
 30
0.0
 10
98.989760
 20
144.515645
 30
0.0
 10
98.206091
 20
146.536686
 30
0.0
  0
SPLINE
  5
267
100
AcDbEntity
  8
0
 62
5
100
AcDbSpline
 70
8
 71
3
 72
8
 73
4
 74
0
 40
0
 40
0
 40
0
 40
0
 40
1
 40
1
 40
1
 40
1
 10
98.206091
 20
146.536686
 30
0.0
 10
97.546159
 20
148.227762
 30
0.0
 10
97.009965
 20
149.918837
 30
0.0
 10
96.556262
 20
151.651158
 30
0.0
  0
SPLINE
  5
268
100
AcDbEntity
  8
0
 62
5
100
AcDbSpline
 70
8
 71
3
 72
8
 73
4
 74
0
 40
0
 40
0
 40
0
 40
0
 40
1
 40
1
 40
1
 40
1
 10
96.556262
 20
151.651158
 30
0.0
 10
96.061313
 20
153.754690
 30
0.0
 10
95.566364
 20
155.858223
 30
0.0
 10
94.947678
 20
157.920510
 30
0.0
  0
SPLINE
  5
269
100
AcDbEntity
  8
0
 62
5
100
AcDbSpline
 70
8
 71
3
 72
8
 73
4
 74
0
 40
0
 40
0
 40
0
 40
0
 40
1
 40
1
 40
1
 40
1
 10
94.947678
 20
157.920510
 30
0.0
 10
94.658958
 20
158.910408
 30
0.0
 10
94.328992
 20
159.900305
 30
0.0
 10
93.957780
 20
160.890203
 30
0.0
  0
SPLINE
  5
26a
100
AcDbEntity
  8
0
 62
5
100
AcDbSpline
 70
8
 71
3
 72
8
 73
4
 74
0
 40
0
 40
0
 40
0
 40
0
 40
1
 40
1
 40
1
 40
1
 10
93.957780
 20
160.890203
 30
0.0
 10
93.792797
 20
161.343906
 30
0.0
 10
93.627814
 20
161.797609
 30
0.0
 10
93.421586
 20
162.251312
 30
0.0
  0
SPLINE
  5
26b
100
AcDbEntity
  8
0
 62
5
100
AcDbSpline
 70
8
 71
3
 72
8
 73
4
 74
0
 40
0
 40
0
 40
0
 40
0
 40
1
 40
1
 40
1
 40
1
 10
93.421586
 20
162.251312
 30
0.0
 10
93.297848
 20
162.581278
 30
0.0
 10
93.339094
 20
162.581278
 30
0.0
 10
93.627814
 20
162.787507
 30
0.0
  0
SPLINE
  5
26c
100
AcDbEntity
  8
0
 62
5
100
AcDbSpline
 70
8
 71
3
 72
8
 73
4
 74
0
 40
0
 40
0
 40
0
 40
0
 40
1
 40
1
 40
1
 40
1
 10
93.627814
 20
162.787507
 30
0.0
 10
93.834043
 20
162.952490
 30
0.0
 10
94.040272
 20
163.158718
 30
0.0
 10
94.246500
 20
163.323701
 30
0.0
  0
SPLINE
  5
26d
100
AcDbEntity
  8
0
 62
5
100
AcDbSpline
 70
8
 71
3
 72
8
 73
4
 74
0
 40
0
 40
0
 40
0
 40
0
 40
1
 40
1
 40
1
 40
1
 10
94.246500
 20
163.323701
 30
0.0
 10
95.731347
 20
164.684811
 30
0.0
 10
97.133702
 20
166.128412
 30
0.0
 10
98.494811
 20
167.654504
 30
0.0
  0
SPLINE
  5
26e
100
AcDbEntity
  8
0
 62
5
100
AcDbSpline
 70
8
 71
3
 72
8
 73
4
 74
0
 40
0
 40
0
 40
0
 40
0
 40
1
 40
1
 40
1
 40
1
 10
98.494811
 20
167.654504
 30
0.0
 10
99.855921
 20
169.221842
 30
0.0
 10
101.134538
 20
170.830426
 30
0.0
 10
102.371911
 20
172.521501
 30
0.0
  0
SPLINE
  5
26f
100
AcDbEntity
  8
0
 62
5
100
AcDbSpline
 70
8
 71
3
 72
8
 73
4
 74
0
 40
0
 40
0
 40
0
 40
0
 40
1
 40
1
 40
1
 40
1
 10
102.371911
 20
172.521501
 30
0.0
 10
103.568037
 20
174.130085
 30
0.0
 10
104.722918
 20
175.821160
 30
0.0
 10
105.795307
 20
177.512235
 30
0.0
  0
SPLINE
  5
270
100
AcDbEntity
  8
0
 62
5
100
AcDbSpline
 70
8
 71
3
 72
8
 73
4
 74
0
 40
0
 40
0
 40
0
 40
0
 40
1
 40
1
 40
1
 40
1
 10
105.795307
 20
177.512235
 30
0.0
 10
106.578976
 20
178.790853
 30
0.0
 10
107.115170
 20
179.986979
 30
0.0
 10
107.115170
 20
181.513071
 30
0.0
  0
SPLINE
  5
271
100
AcDbEntity
  8
0
 62
5
100
AcDbSpline
 70
8
 71
3
 72
8
 73
4
 74
0
 40
0
 40
0
 40
0
 40
0
 40
1
 40
1
 40
1
 40
1
 10
107.115170
 20
181.513071
 30
0.0
 10
107.115170
 20
183.451621
 30
0.0
 10
106.661467
 20
185.431417
 30
0.0
 10
106.249010
 20
187.328720
 30
0.0
  0
SPLINE
  5
272
100
AcDbEntity
  8
0
 62
5
100
AcDbSpline
 70
8
 71
3
 72
8
 73
4
 74
0
 40
0
 40
0
 40
0
 40
0
 40
1
 40
1
 40
1
 40
1
 10
106.249010
 20
187.328720
 30
0.0
 10
105.836553
 20
189.267270
 30
0.0
 10
105.341604
 20
191.164574
 30
0.0
 10
104.805409
 20
193.103124
 30
0.0
  0
SPLINE
  5
273
100
AcDbEntity
  8
0
 62
5
100
AcDbSpline
 70
8
 71
3
 72
8
 73
4
 74
0
 40
0
 40
0
 40
0
 40
0
 40
1
 40
1
 40
1
 40
1
 10
104.805409
 20
193.103124
 30
0.0
 10
104.269215
 20
195.124165
 30
0.0
 10
103.691774
 20
197.103960
 30
0.0
 10
103.114334
 20
199.125001
 30
0.0
  0
SPLINE
  5
274
100
AcDbEntity
  8
0
 62
5
100
AcDbSpline
 70
8
 71
3
 72
8
 73
4
 74
0
 40
0
 40
0
 40
0
 40
0
 40
1
 40
1
 40
1
 40
1
 10
103.114334
 20
199.125001
 30
0.0
 10
102.495648
 20
201.146042
 30
0.0
 10
101.918207
 20
203.167083
 30
0.0
 10
101.258276
 20
205.146879
 30
0.0
  0
SPLINE
  5
275
100
AcDbEntity
  8
0
 62
5
100
AcDbSpline
 70
8
 71
3
 72
8
 73
4
 74
0
 40
0
 40
0
 40
0
 40
0
 40
1
 40
1
 40
1
 40
1
 10
101.258276
 20
205.146879
 30
0.0
 10
100.928310
 20
206.178022
 30
0.0
 10
100.598344
 20
207.209166
 30
0.0
 10
100.227132
 20
208.240309
 30
0.0
  0
SPLINE
  5
276
100
AcDbEntity
  8
0
 62
5
100
AcDbSpline
 70
8
 71
3
 72
8
 73
4
 74
0
 40
0
 40
0
 40
0
 40
0
 40
1
 40
1
 40
1
 40
1
 10
100.227132
 20
208.240309
 30
0.0
 10
100.103395
 20
208.611521
 30
0.0
 10
99.979658
 20
208.941487
 30
0.0
 10
99.855921
 20
209.312698
 30
0.0
  0
SPLINE
  5
277
100
AcDbEntity
  8
0
 62
5
100
AcDbSpline
 70
8
 71
3
 72
8
 73
4
 74
0
 40
0
 40
0
 40
0
 40
0
 40
1
 40
1
 40
1
 40
1
 10
99.855921
 20
209.312698
 30
0.0
 10
99.814675
 20
209.436435
 30
0.0
 10
99.567200
 20
209.848893
 30
0.0
 10
99.608446
 20
210.013876
 30
0.0
  0
SPLINE
  5
278
100
AcDbEntity
  8
0
 62
5
100
AcDbSpline
 70
8
 71
3
 72
8
 73
4
 74
0
 40
0
 40
0
 40
0
 40
0
 40
1
 40
1
 40
1
 40
1
 10
99.608446
 20
210.013876
 30
0.0
 10
99.649692
 20
210.178859
 30
0.0
 10
100.144641
 20
210.302596
 30
0.0
 10
100.268378
 20
210.508825
 30
0.0
  0
SPLINE
  5
279
100
AcDbEntity
  8
0
 62
5
100
AcDbSpline
 70
8
 71
3
 72
8
 73
4
 74
0
 40
0
 40
0
 40
0
 40
0
 40
1
 40
1
 40
1
 40
1
 10
100.268378
 20
210.508825
 30
0.0
 10
100.433361
 20
210.715053
 30
0.0
 10
100.350869
 20
211.003773
 30
0.0
 10
100.309624
 20
211.251248
 30
0.0
  0
SPLINE
  5
27a
100
AcDbEntity
  8
0
 62
5
100
AcDbSpline
 70
8
 71
3
 72
8
 73
4
 74
0
 40
0
 40
0
 40
0
 40
0
 40
1
 40
1
 40
1
 40
1
 10
100.309624
 20
211.251248
 30
0.0
 10
100.227132
 20
211.787443
 30
0.0
 10
100.103395
 20
212.282391
 30
0.0
 10
99.979658
 20
212.818586
 30
0.0
  0
SPLINE
  5
27b
100
AcDbEntity
  8
0
 62
5
100
AcDbSpline
 70
8
 71
3
 72
8
 73
4
 74
0
 40
0
 40
0
 40
0
 40
0
 40
1
 40
1
 40
1
 40
1
 10
99.979658
 20
212.818586
 30
0.0
 10
99.814675
 20
213.767238
 30
0.0
 10
99.608446
 20
214.715890
 30
0.0
 10
99.360972
 20
215.664542
 30
0.0
  0
SPLINE
  5
27c
100
AcDbEntity
  8
0
 62
5
100
AcDbSpline
 70
8
 71
3
 72
8
 73
4
 74
0
 40
0
 40
0
 40
0
 40
0
 40
1
 40
1
 40
1
 40
1
 10
99.360972
 20
215.664542
 30
0.0
 10
98.907269
 20
217.396863
 30
0.0
 10
98.164845
 20
218.964201
 30
0.0
 10
96.721245
 20
220.119081
 30
0.0
  0
SPLINE
  5
27d
100
AcDbEntity
  8
0
 62
5
100
AcDbSpline
 70
8
 71
3
 72
8
 73
4
 74
0
 40
0
 40
0
 40
0
 40
0
 40
1
 40
1
 40
1
 40
1
 10
96.721245
 20
220.119081
 30
0.0
 10
95.318890
 20
221.273962
 30
0.0
 10
93.545323
 20
222.057631
 30
0.0
 10
91.854248
 20
222.717563
 30
0.0
  0
SPLINE
  5
27e
100
AcDbEntity
  8
0
 62
5
100
AcDbSpline
 70
8
 71
3
 72
8
 73
4
 74
0
 40
0
 40
0
 40
0
 40
0
 40
1
 40
1
 40
1
 40
1
 10
91.854248
 20
222.717563
 30
0.0
 10
89.998189
 20
223.418740
 30
0.0
 10
88.142131
 20
223.831198
 30
0.0
 10
86.162336
 20
223.954935
 30
0.0
  0
SPLINE
  5
27f
100
AcDbEntity
  8
0
 62
5
100
AcDbSpline
 70
8
 71
3
 72
8
 73
4
 74
0
 40
0
 40
0
 40
0
 40
0
 40
1
 40
1
 40
1
 40
1
 10
86.162336
 20
223.954935
 30
0.0
 10
85.296175
 20
224.037426
 30
0.0
 10
84.347523
 20
224.037426
 30
0.0
 10
83.522609
 20
224.243655
 30
0.0
  0
SPLINE
  5
280
100
AcDbEntity
  8
0
 62
5
100
AcDbSpline
 70
8
 71
3
 72
8
 73
4
 74
0
 40
0
 40
0
 40
0
 40
0
 40
1
 40
1
 40
1
 40
1
 10
83.522609
 20
224.243655
 30
0.0
 10
82.903923
 20
224.408638
 30
0.0
 10
82.367728
 20
224.738604
 30
0.0
 10
81.831534
 20
225.068570
 30
0.0
  0
SPLINE
  5
281
100
AcDbEntity
  8
0
 62
5
100
AcDbSpline
 70
8
 71
3
 72
8
 73
4
 74
0
 40
0
 40
0
 40
0
 40
0
 40
1
 40
1
 40
1
 40
1
 10
81.831534
 20
225.068570
 30
0.0
 10
81.212847
 20
225.439781
 30
0.0
 10
80.387933
 20
225.810993
 30
0.0
 10
79.686755
 20
225.481027
 30
0.0
  0
SPLINE
  5
282
100
AcDbEntity
  8
0
 62
5
100
AcDbSpline
 70
8
 71
3
 72
8
 73
4
 74
0
 40
0
 40
0
 40
0
 40
0
 40
1
 40
1
 40
1
 40
1
 10
79.686755
 20
225.481027
 30
0.0
 10
79.769247
 20
225.522273
 30
0.0
 10
79.851738
 20
226.140959
 30
0.0
 10
79.851738
 20
226.264696
 30
0.0
  0
SPLINE
  5
283
100
AcDbEntity
  8
0
 62
5
100
AcDbSpline
 70
8
 71
3
 72
8
 73
4
 74
0
 40
0
 40
0
 40
0
 40
0
 40
1
 40
1
 40
1
 40
1
 10
79.851738
 20
226.264696
 30
0.0
 10
79.892984
 20
226.512171
 30
0.0
 10
79.892984
 20
226.759645
 30
0.0
 10
79.851738
 20
226.965874
 30
0.0
  0
SPLINE
  5
284
100
AcDbEntity
  8
0
 62
5
100
AcDbSpline
 70
8
 71
3
 72
8
 73
4
 74
0
 40
0
 40
0
 40
0
 40
0
 40
1
 40
1
 40
1
 40
1
 10
79.851738
 20
226.965874
 30
0.0
 10
79.810492
 20
227.502068
 30
0.0
 10
79.728001
 20
228.079509
 30
0.0
 10
79.480527
 20
228.574457
 30
0.0
  0
SPLINE
  5
285
100
AcDbEntity
  8
0
 62
5
100
AcDbSpline
 70
8
 71
3
 72
8
 73
4
 74
0
 40
0
 40
0
 40
0
 40
0
 40
1
 40
1
 40
1
 40
1
 10
79.480527
 20
228.574457
 30
0.0
 10
79.315544
 20
228.945669
 30
0.0
 10
79.026823
 20
229.110652
 30
0.0
 10
78.696858
 20
229.275635
 30
0.0
  0
SPLINE
  5
286
100
AcDbEntity
  8
0
 62
5
100
AcDbSpline
 70
8
 71
3
 72
8
 73
4
 74
0
 40
0
 40
0
 40
0
 40
0
 40
1
 40
1
 40
1
 40
1
 10
78.696858
 20
229.275635
 30
0.0
 10
79.563018
 20
230.430516
 30
0.0
 10
79.563018
 20
231.956608
 30
0.0
 10
79.975475
 20
233.276472
 30
0.0
  0
SPLINE
  5
287
100
AcDbEntity
  8
0
 62
5
100
AcDbSpline
 70
8
 71
3
 72
8
 73
4
 74
0
 40
0
 40
0
 40
0
 40
0
 40
1
 40
1
 40
1
 40
1
 10
79.975475
 20
233.276472
 30
0.0
 10
80.140458
 20
233.853912
 30
0.0
 10
80.346687
 20
234.390106
 30
0.0
 10
80.511670
 20
234.967547
 30
0.0
  0
SPLINE
  5
288
100
AcDbEntity
  8
0
 62
5
100
AcDbSpline
 70
8
 71
3
 72
8
 73
4
 74
0
 40
0
 40
0
 40
0
 40
0
 40
1
 40
1
 40
1
 40
1
 10
80.511670
 20
234.967547
 30
0.0
 10
80.552916
 20
234.596335
 30
0.0
 10
80.882882
 20
234.967547
 30
0.0
 10
81.006619
 20
235.091284
 30
0.0
  0
SPLINE
  5
289
100
AcDbEntity
  8
0
 62
5
100
AcDbSpline
 70
8
 71
3
 72
8
 73
4
 74
0
 40
0
 40
0
 40
0
 40
0
 40
1
 40
1
 40
1
 40
1
 10
81.006619
 20
235.091284
 30
0.0
 10
81.254093
 20
235.380004
 30
0.0
 10
81.501568
 20
235.709970
 30
0.0
 10
81.707796
 20
235.998690
 30
0.0
  0
SPLINE
  5
28a
100
AcDbEntity
  8
0
 62
5
100
AcDbSpline
 70
8
 71
3
 72
8
 73
4
 74
0
 40
0
 40
0
 40
0
 40
0
 40
1
 40
1
 40
1
 40
1
 10
81.707796
 20
235.998690
 30
0.0
 10
82.120254
 20
236.617376
 30
0.0
 10
82.573957
 20
237.194817
 30
0.0
 10
82.821431
 20
237.895994
 30
0.0
  0
SPLINE
  5
28b
100
AcDbEntity
  8
0
 62
5
100
AcDbSpline
 70
8
 71
3
 72
8
 73
4
 74
0
 40
0
 40
0
 40
0
 40
0
 40
1
 40
1
 40
1
 40
1
 10
82.821431
 20
237.895994
 30
0.0
 10
83.398872
 20
239.380841
 30
0.0
 10
83.357626
 20
241.113162
 30
0.0
 10
83.440117
 20
242.680500
 30
0.0
  0
SPLINE
  5
28c
100
AcDbEntity
  8
0
 62
5
100
AcDbSpline
 70
8
 71
3
 72
8
 73
4
 74
0
 40
0
 40
0
 40
0
 40
0
 40
1
 40
1
 40
1
 40
1
 10
83.440117
 20
242.680500
 30
0.0
 10
83.481363
 20
243.752889
 30
0.0
 10
83.563854
 20
244.825278
 30
0.0
 10
83.605100
 20
245.856421
 30
0.0
  0
SPLINE
  5
28d
100
AcDbEntity
  8
0
 62
5
100
AcDbSpline
 70
8
 71
3
 72
8
 73
4
 74
0
 40
0
 40
0
 40
0
 40
0
 40
1
 40
1
 40
1
 40
1
 10
83.605100
 20
245.856421
 30
0.0
 10
84.430015
 20
245.402718
 30
0.0
 10
84.883718
 20
248.042445
 30
0.0
 10
84.801227
 20
248.496149
 30
0.0
  0
SPLINE
  5
28e
100
AcDbEntity
  8
0
 62
5
100
AcDbSpline
 70
8
 71
3
 72
8
 73
4
 74
0
 40
0
 40
0
 40
0
 40
0
 40
1
 40
1
 40
1
 40
1
 10
84.801227
 20
248.496149
 30
0.0
 10
84.759981
 20
248.826114
 30
0.0
 10
84.594998
 20
249.114835
 30
0.0
 10
84.553752
 20
249.444800
 30
0.0
  0
SPLINE
  5
28f
100
AcDbEntity
  8
0
 62
5
100
AcDbSpline
 70
8
 71
3
 72
8
 73
4
 74
0
 40
0
 40
0
 40
0
 40
0
 40
1
 40
1
 40
1
 40
1
 10
84.553752
 20
249.444800
 30
0.0
 10
84.512506
 20
249.857258
 30
0.0
 10
84.553752
 20
250.269715
 30
0.0
 10
84.512506
 20
250.640927
 30
0.0
  0
SPLINE
  5
290
100
AcDbEntity
  8
0
 62
5
100
AcDbSpline
 70
8
 71
3
 72
8
 73
4
 74
0
 40
0
 40
0
 40
0
 40
0
 40
1
 40
1
 40
1
 40
1
 10
84.512506
 20
250.640927
 30
0.0
 10
84.430015
 20
251.342104
 30
0.0
 10
83.893820
 20
251.754562
 30
0.0
 10
83.563854
 20
252.290756
 30
0.0
  0
SPLINE
  5
291
100
AcDbEntity
  8
0
 62
5
100
AcDbSpline
 70
8
 71
3
 72
8
 73
4
 74
0
 40
0
 40
0
 40
0
 40
0
 40
1
 40
1
 40
1
 40
1
 10
83.563854
 20
252.290756
 30
0.0
 10
83.192643
 20
252.868197
 30
0.0
 10
82.903923
 20
253.651866
 30
0.0
 10
82.285237
 20
254.023077
 30
0.0
  0
SPLINE
  5
292
100
AcDbEntity
  8
0
 62
5
100
AcDbSpline
 70
8
 71
3
 72
8
 73
4
 74
0
 40
0
 40
0
 40
0
 40
0
 40
1
 40
1
 40
1
 40
1
 10
82.285237
 20
254.023077
 30
0.0
 10
82.120254
 20
254.105569
 30
0.0
 10
82.079008
 20
254.105569
 30
0.0
 10
81.955271
 20
254.270552
 30
0.0
  0
SPLINE
  5
293
100
AcDbEntity
  8
0
 62
5
100
AcDbSpline
 70
8
 71
3
 72
8
 73
4
 74
0
 40
0
 40
0
 40
0
 40
0
 40
1
 40
1
 40
1
 40
1
 10
81.955271
 20
254.270552
 30
0.0
 10
81.831534
 20
254.435535
 30
0.0
 10
81.749042
 20
254.641763
 30
0.0
 10
81.625305
 20
254.847992
 30
0.0
  0
SPLINE
  5
294
100
AcDbEntity
  8
0
 62
5
100
AcDbSpline
 70
8
 71
3
 72
8
 73
4
 74
0
 40
0
 40
0
 40
0
 40
0
 40
1
 40
1
 40
1
 40
1
 10
81.625305
 20
254.847992
 30
0.0
 10
81.460322
 20
255.136712
 30
0.0
 10
81.254093
 20
255.384187
 30
0.0
 10
81.006619
 20
255.590415
 30
0.0
  0
SPLINE
  5
295
100
AcDbEntity
  8
0
 62
5
100
AcDbSpline
 70
8
 71
3
 72
8
 73
4
 74
0
 40
0
 40
0
 40
0
 40
0
 40
1
 40
1
 40
1
 40
1
 10
81.006619
 20
255.590415
 30
0.0
 10
80.635407
 20
255.920381
 30
0.0
 10
80.222950
 20
256.209101
 30
0.0
 10
79.810492
 20
256.497822
 30
0.0
  0
SPLINE
  5
296
100
AcDbEntity
  8
0
 62
5
100
AcDbSpline
 70
8
 71
3
 72
8
 73
4
 74
0
 40
0
 40
0
 40
0
 40
0
 40
1
 40
1
 40
1
 40
1
 10
79.810492
 20
256.497822
 30
0.0
 10
79.563018
 20
256.662804
 30
0.0
 10
79.315544
 20
256.786542
 30
0.0
 10
79.026823
 20
256.951525
 30
0.0
  0
SPLINE
  5
297
100
AcDbEntity
  8
0
 62
5
100
AcDbSpline
 70
8
 71
3
 72
8
 73
4
 74
0
 40
0
 40
0
 40
0
 40
0
 40
1
 40
1
 40
1
 40
1
 10
79.026823
 20
256.951525
 30
0.0
 10
78.903086
 20
256.992770
 30
0.0
 10
78.820595
 20
257.034016
 30
0.0
 10
78.696858
 20
257.116508
 30
0.0
  0
SPLINE
  5
298
100
AcDbEntity
  8
0
 62
5
100
AcDbSpline
 70
8
 71
3
 72
8
 73
4
 74
0
 40
0
 40
0
 40
0
 40
0
 40
1
 40
1
 40
1
 40
1
 10
78.696858
 20
257.116508
 30
0.0
 10
78.531875
 20
257.198999
 30
0.0
 10
78.573120
 20
257.198999
 30
0.0
 10
78.490629
 20
257.363982
 30
0.0
  0
SPLINE
  5
299
100
AcDbEntity
  8
0
 62
5
100
AcDbSpline
 70
8
 71
3
 72
8
 73
4
 74
0
 40
0
 40
0
 40
0
 40
0
 40
1
 40
1
 40
1
 40
1
 10
78.490629
 20
257.363982
 30
0.0
 10
78.366892
 20
257.776439
 30
0.0
 10
78.366892
 20
258.147651
 30
0.0
 10
78.201909
 20
258.560108
 30
0.0
  0
SPLINE
  5
29a
100
AcDbEntity
  8
0
 62
5
100
AcDbSpline
 70
8
 71
3
 72
8
 73
4
 74
0
 40
0
 40
0
 40
0
 40
0
 40
1
 40
1
 40
1
 40
1
 10
78.201909
 20
258.560108
 30
0.0
 10
78.036926
 20
258.931320
 30
0.0
 10
77.871943
 20
259.261286
 30
0.0
 10
77.624468
 20
259.550006
 30
0.0
  0
SPLINE
  5
29b
100
AcDbEntity
  8
0
 62
5
100
AcDbSpline
 70
8
 71
3
 72
8
 73
4
 74
0
 40
0
 40
0
 40
0
 40
0
 40
1
 40
1
 40
1
 40
1
 10
77.624468
 20
259.550006
 30
0.0
 10
76.758308
 20
260.663641
 30
0.0
 10
75.397199
 20
261.282327
 30
0.0
 10
73.994843
 20
261.241081
 30
0.0
  0
SPLINE
  5
29c
100
AcDbEntity
  8
0
 62
5
100
AcDbSpline
 70
8
 71
3
 72
8
 73
4
 74
0
 40
0
 40
0
 40
0
 40
0
 40
1
 40
1
 40
1
 40
1
 10
73.994843
 20
261.241081
 30
0.0
 10
72.551243
 20
261.158590
 30
0.0
 10
71.190133
 20
260.374921
 30
0.0
 10
70.488956
 20
259.137549
 30
0.0
  0
SPLINE
  5
29d
100
AcDbEntity
  8
0
 62
5
100
AcDbSpline
 70
8
 71
3
 72
8
 73
4
 74
0
 40
0
 40
0
 40
0
 40
0
 40
1
 40
1
 40
1
 40
1
 10
70.488956
 20
259.137549
 30
0.0
 10
70.282727
 20
258.766337
 30
0.0
 10
70.117744
 20
258.395125
 30
0.0
 10
70.035253
 20
257.982668
 30
0.0
  0
SPLINE
  5
29e
100
AcDbEntity
  8
0
 62
5
100
AcDbSpline
 70
8
 71
3
 72
8
 73
4
 74
0
 40
0
 40
0
 40
0
 40
0
 40
1
 40
1
 40
1
 40
1
 10
70.035253
 20
257.982668
 30
0.0
 10
70.035253
 20
257.900177
 30
0.0
 10
69.994007
 20
257.776439
 30
0.0
 10
69.952761
 20
257.693948
 30
0.0
  0
SPLINE
  5
29f
100
AcDbEntity
  8
0
 62
5
100
AcDbSpline
 70
8
 71
3
 72
8
 73
4
 74
0
 40
0
 40
0
 40
0
 40
0
 40
1
 40
1
 40
1
 40
1
 10
69.952761
 20
257.693948
 30
0.0
 10
69.870270
 20
257.611456
 30
0.0
 10
69.622795
 20
257.611456
 30
0.0
 10
69.540304
 20
257.611456
 30
0.0
  0
SPLINE
  5
2a0
100
AcDbEntity
  8
0
 62
5
100
AcDbSpline
 70
8
 71
3
 72
8
 73
4
 74
0
 40
0
 40
0
 40
0
 40
0
 40
1
 40
1
 40
1
 40
1
 10
69.540304
 20
257.611456
 30
0.0
 10
69.251584
 20
257.528965
 30
0.0
 10
68.921618
 20
257.487719
 30
0.0
 10
68.632898
 20
257.405228
 30
0.0
  0
SPLINE
  5
2a1
100
AcDbEntity
  8
0
 62
5
100
AcDbSpline
 70
8
 71
3
 72
8
 73
4
 74
0
 40
0
 40
0
 40
0
 40
0
 40
1
 40
1
 40
1
 40
1
 10
68.632898
 20
257.405228
 30
0.0
 10
67.519263
 20
257.116508
 30
0.0
 10
66.405628
 20
256.745296
 30
0.0
 10
65.374484
 20
256.126610
 30
0.0
  0
SPLINE
  5
2a2
100
AcDbEntity
  8
0
 62
5
100
AcDbSpline
 70
8
 71
3
 72
8
 73
4
 74
0
 40
0
 40
0
 40
0
 40
0
 40
1
 40
1
 40
1
 40
1
 10
65.374484
 20
256.126610
 30
0.0
 10
64.549570
 20
255.631661
 30
0.0
 10
63.848392
 20
255.054221
 30
0.0
 10
63.188460
 20
254.353043
 30
0.0
  0
SPLINE
  5
2a3
100
AcDbEntity
  8
0
 62
5
100
AcDbSpline
 70
8
 71
3
 72
8
 73
4
 74
0
 40
0
 40
0
 40
0
 40
0
 40
1
 40
1
 40
1
 40
1
 10
63.188460
 20
254.353043
 30
0.0
 10
62.858494
 20
253.981832
 30
0.0
 10
62.528529
 20
253.651866
 30
0.0
 10
62.239808
 20
253.239408
 30
0.0
  0
SPLINE
  5
2a4
100
AcDbEntity
  8
0
 62
5
100
AcDbSpline
 70
8
 71
3
 72
8
 73
4
 74
0
 40
0
 40
0
 40
0
 40
0
 40
1
 40
1
 40
1
 40
1
 10
62.239808
 20
253.239408
 30
0.0
 10
62.033580
 20
252.991934
 30
0.0
 10
61.909843
 20
252.868197
 30
0.0
 10
61.621122
 20
252.703214
 30
0.0
  0
SPLINE
  5
2a5
100
AcDbEntity
  8
0
 62
5
100
AcDbSpline
 70
8
 71
3
 72
8
 73
4
 74
0
 40
0
 40
0
 40
0
 40
0
 40
1
 40
1
 40
1
 40
1
 10
61.621122
 20
252.703214
 30
0.0
 10
61.414894
 20
252.579476
 30
0.0
 10
61.208665
 20
252.496985
 30
0.0
 10
61.002436
 20
252.373248
 30
0.0
  0
SPLINE
  5
2a6
100
AcDbEntity
  8
0
 62
5
100
AcDbSpline
 70
8
 71
3
 72
8
 73
4
 74
0
 40
0
 40
0
 40
0
 40
0
 40
1
 40
1
 40
1
 40
1
 10
61.002436
 20
252.373248
 30
0.0
 10
60.631225
 20
252.167019
 30
0.0
 10
60.342505
 20
251.919545
 30
0.0
 10
60.177522
 20
251.548333
 30
0.0
  0
SPLINE
  5
2a7
100
AcDbEntity
  8
0
 62
5
100
AcDbSpline
 70
8
 71
3
 72
8
 73
4
 74
0
 40
0
 40
0
 40
0
 40
0
 40
1
 40
1
 40
1
 40
1
 10
60.177522
 20
251.548333
 30
0.0
 10
60.053784
 20
251.259613
 30
0.0
 10
60.012539
 20
250.970893
 30
0.0
 10
59.806310
 20
250.723418
 30
0.0
  0
SPLINE
  5
2a8
100
AcDbEntity
  8
0
 62
5
100
AcDbSpline
 70
8
 71
3
 72
8
 73
4
 74
0
 40
0
 40
0
 40
0
 40
0
 40
1
 40
1
 40
1
 40
1
 10
59.806310
 20
250.723418
 30
0.0
 10
59.393853
 20
250.145978
 30
0.0
 10
58.816412
 20
249.733521
 30
0.0
 10
58.445201
 20
249.156080
 30
0.0
  0
SPLINE
  5
2a9
100
AcDbEntity
  8
0
 62
5
100
AcDbSpline
 70
8
 71
3
 72
8
 73
4
 74
0
 40
0
 40
0
 40
0
 40
0
 40
1
 40
1
 40
1
 40
1
 10
58.445201
 20
249.156080
 30
0.0
 10
57.909006
 20
248.289920
 30
0.0
 10
57.867760
 20
247.093793
 30
0.0
 10
58.156480
 20
246.145141
 30
0.0
  0
SPLINE
  5
2aa
100
AcDbEntity
  8
0
 62
5
100
AcDbSpline
 70
8
 71
3
 72
8
 73
4
 74
0
 40
0
 40
0
 40
0
 40
0
 40
1
 40
1
 40
1
 40
1
 10
58.156480
 20
246.145141
 30
0.0
 10
58.321463
 20
245.650193
 30
0.0
 10
58.527692
 20
245.897667
 30
0.0
 10
58.733921
 20
246.227633
 30
0.0
  0
SPLINE
  5
2ab
100
AcDbEntity
  8
0
 62
5
100
AcDbSpline
 70
8
 71
3
 72
8
 73
4
 74
0
 40
0
 40
0
 40
0
 40
0
 40
1
 40
1
 40
1
 40
1
 10
58.733921
 20
246.227633
 30
0.0
 10
58.857658
 20
244.742786
 30
0.0
 10
58.857658
 20
243.340431
 30
0.0
 10
58.733921
 20
241.855585
 30
0.0
  0
SPLINE
  5
2ac
100
AcDbEntity
  8
0
 62
5
100
AcDbSpline
 70
8
 71
3
 72
8
 73
4
 74
0
 40
0
 40
0
 40
0
 40
0
 40
1
 40
1
 40
1
 40
1
 10
58.733921
 20
241.855585
 30
0.0
 10
58.610184
 20
240.741950
 30
0.0
 10
58.940149
 20
239.669561
 30
0.0
 10
59.311361
 20
238.638417
 30
0.0
  0
SPLINE
  5
2ad
100
AcDbEntity
  8
0
 62
5
100
AcDbSpline
 70
8
 71
3
 72
8
 73
4
 74
0
 40
0
 40
0
 40
0
 40
0
 40
1
 40
1
 40
1
 40
1
 10
59.311361
 20
238.638417
 30
0.0
 10
59.847556
 20
237.194817
 30
0.0
 10
60.507487
 20
235.792461
 30
0.0
 10
61.167419
 20
234.348861
 30
0.0
  0
SPLINE
  5
2ae
100
AcDbEntity
  8
0
 62
5
100
AcDbSpline
 70
8
 71
3
 72
8
 73
4
 74
0
 40
0
 40
0
 40
0
 40
0
 40
1
 40
1
 40
1
 40
1
 10
61.167419
 20
234.348861
 30
0.0
 10
61.827351
 20
232.864014
 30
0.0
 10
62.487283
 20
231.379168
 30
0.0
 10
63.229706
 20
229.935567
 30
0.0
  0
SPLINE
  5
2af
100
AcDbEntity
  8
0
 62
5
100
AcDbSpline
 70
8
 71
3
 72
8
 73
4
 74
0
 40
0
 40
0
 40
0
 40
0
 40
1
 40
1
 40
1
 40
1
 10
63.229706
 20
229.935567
 30
0.0
 10
63.477181
 20
229.440618
 30
0.0
 10
63.765901
 20
228.904423
 30
0.0
 10
64.137112
 20
228.450720
 30
0.0
  0
SPLINE
  5
2b0
100
AcDbEntity
  8
0
 62
5
100
AcDbSpline
 70
8
 71
3
 72
8
 73
4
 74
0
 40
0
 40
0
 40
0
 40
0
 40
1
 40
1
 40
1
 40
1
 10
64.137112
 20
228.450720
 30
0.0
 10
64.260850
 20
228.285737
 30
0.0
 10
64.549570
 20
227.997017
 30
0.0
 10
64.755798
 20
228.162000
 30
0.0
  0
SPLINE
  5
2b1
100
AcDbEntity
  8
0
 62
5
100
AcDbSpline
 70
8
 71
3
 72
8
 73
4
 74
0
 40
0
 40
0
 40
0
 40
0
 40
1
 40
1
 40
1
 40
1
 10
64.755798
 20
228.162000
 30
0.0
 10
64.920781
 20
228.285737
 30
0.0
 10
64.962027
 20
228.574457
 30
0.0
 10
64.962027
 20
228.739440
 30
0.0
  0
SPLINE
  5
2b2
100
AcDbEntity
  8
0
 62
5
100
AcDbSpline
 70
8
 71
3
 72
8
 73
4
 74
0
 40
0
 40
0
 40
0
 40
0
 40
1
 40
1
 40
1
 40
1
 10
64.962027
 20
228.739440
 30
0.0
 10
64.962027
 20
228.533212
 30
0.0
 10
65.003273
 20
228.368229
 30
0.0
 10
65.044519
 20
228.162000
 30
0.0
  0
SPLINE
  5
2b3
100
AcDbEntity
  8
0
 62
5
100
AcDbSpline
 70
8
 71
3
 72
8
 73
4
 74
0
 40
0
 40
0
 40
0
 40
0
 40
1
 40
1
 40
1
 40
1
 10
65.044519
 20
228.162000
 30
0.0
 10
65.044519
 20
228.120754
 30
0.0
 10
65.127010
 20
227.955771
 30
0.0
 10
65.127010
 20
227.914526
 30
0.0
  0
SPLINE
  5
2b4
100
AcDbEntity
  8
0
 62
5
100
AcDbSpline
 70
8
 71
3
 72
8
 73
4
 74
0
 40
0
 40
0
 40
0
 40
0
 40
1
 40
1
 40
1
 40
1
 10
65.127010
 20
227.914526
 30
0.0
 10
65.085764
 20
227.873280
 30
0.0
 10
64.879536
 20
227.832034
 30
0.0
 10
64.797044
 20
227.790788
 30
0.0
  0
SPLINE
  5
2b5
100
AcDbEntity
  8
0
 62
5
100
AcDbSpline
 70
8
 71
3
 72
8
 73
4
 74
0
 40
0
 40
0
 40
0
 40
0
 40
1
 40
1
 40
1
 40
1
 10
64.797044
 20
227.790788
 30
0.0
 10
64.343341
 20
227.625806
 30
0.0
 10
63.765901
 20
227.584560
 30
0.0
 10
63.477181
 20
227.172102
 30
0.0
  0
SPLINE
  5
2b6
100
AcDbEntity
  8
0
 62
5
100
AcDbSpline
 70
8
 71
3
 72
8
 73
4
 74
0
 40
0
 40
0
 40
0
 40
0
 40
1
 40
1
 40
1
 40
1
 10
63.477181
 20
227.172102
 30
0.0
 10
62.940986
 20
226.388433
 30
0.0
 10
63.353443
 20
225.151061
 30
0.0
 10
63.435935
 20
224.326147
 30
0.0
  0
SPLINE
  5
2b7
100
AcDbEntity
  8
0
 62
5
100
AcDbSpline
 70
8
 71
3
 72
8
 73
4
 74
0
 40
0
 40
0
 40
0
 40
0
 40
1
 40
1
 40
1
 40
1
 10
63.435935
 20
224.326147
 30
0.0
 10
63.477181
 20
223.913689
 30
0.0
 10
63.435935
 20
223.501232
 30
0.0
 10
63.147215
 20
223.212512
 30
0.0
  0
SPLINE
  5
2b8
100
AcDbEntity
  8
0
 62
5
100
AcDbSpline
 70
8
 71
3
 72
8
 73
4
 74
0
 40
0
 40
0
 40
0
 40
0
 40
1
 40
1
 40
1
 40
1
 10
63.147215
 20
223.212512
 30
0.0
 10
62.940986
 20
223.047529
 30
0.0
 10
62.693512
 20
222.923792
 30
0.0
 10
62.446037
 20
222.841300
 30
0.0
  0
SPLINE
  5
2b9
100
AcDbEntity
  8
0
 62
5
100
AcDbSpline
 70
8
 71
3
 72
8
 73
4
 74
0
 40
0
 40
0
 40
0
 40
0
 40
1
 40
1
 40
1
 40
1
 10
62.446037
 20
222.841300
 30
0.0
 10
62.198563
 20
222.758809
 30
0.0
 10
62.198563
 20
222.841300
 30
0.0
 10
61.992334
 20
222.923792
 30
0.0
  0
SPLINE
  5
2ba
100
AcDbEntity
  8
0
 62
5
100
AcDbSpline
 70
8
 71
3
 72
8
 73
4
 74
0
 40
0
 40
0
 40
0
 40
0
 40
1
 40
1
 40
1
 40
1
 10
61.992334
 20
222.923792
 30
0.0
 10
61.662368
 20
223.047529
 30
0.0
 10
61.208665
 20
222.882546
 30
0.0
 10
60.878699
 20
222.800054
 30
0.0
  0
SPLINE
  5
2bb
100
AcDbEntity
  8
0
 62
5
100
AcDbSpline
 70
8
 71
3
 72
8
 73
4
 74
0
 40
0
 40
0
 40
0
 40
0
 40
1
 40
1
 40
1
 40
1
 10
60.878699
 20
222.800054
 30
0.0
 10
60.218767
 20
222.635071
 30
0.0
 10
59.558836
 20
222.470088
 30
0.0
 10
58.898904
 20
222.346351
 30
0.0
  0
SPLINE
  5
2bc
100
AcDbEntity
  8
0
 62
5
100
AcDbSpline
 70
8
 71
3
 72
8
 73
4
 74
0
 40
0
 40
0
 40
0
 40
0
 40
1
 40
1
 40
1
 40
1
 10
58.898904
 20
222.346351
 30
0.0
 10
57.455303
 20
222.140123
 30
0.0
 10
56.052948
 20
221.933894
 30
0.0
 10
54.691839
 20
221.438945
 30
0.0
  0
SPLINE
  5
2bd
100
AcDbEntity
  8
0
 62
5
100
AcDbSpline
 70
8
 71
3
 72
8
 73
4
 74
0
 40
0
 40
0
 40
0
 40
0
 40
1
 40
1
 40
1
 40
1
 10
54.691839
 20
221.438945
 30
0.0
 10
53.371975
 20
220.985242
 30
0.0
 10
52.134603
 20
220.325310
 30
0.0
 10
50.979722
 20
219.541641
 30
0.0
  0
SPLINE
  5
2be
100
AcDbEntity
  8
0
 62
5
100
AcDbSpline
 70
8
 71
3
 72
8
 73
4
 74
0
 40
0
 40
0
 40
0
 40
0
 40
1
 40
1
 40
1
 40
1
 10
50.979722
 20
219.541641
 30
0.0
 10
48.917435
 20
218.180532
 30
0.0
 10
46.937640
 20
216.324474
 30
0.0
 10
46.195217
 20
213.890975
 30
0.0
  0
SPLINE
  5
2bf
100
AcDbEntity
  8
0
 62
5
100
AcDbSpline
 70
8
 71
3
 72
8
 73
4
 74
0
 40
0
 40
0
 40
0
 40
0
 40
1
 40
1
 40
1
 40
1
 10
46.195217
 20
213.890975
 30
0.0
 10
45.741514
 20
212.406129
 30
0.0
 10
45.741514
 20
210.880036
 30
0.0
 10
45.741514
 20
209.353944
 30
0.0
  0
SPLINE
  5
2c0
100
AcDbEntity
  8
0
 62
5
100
AcDbSpline
 70
8
 71
3
 72
8
 73
4
 74
0
 40
0
 40
0
 40
0
 40
0
 40
1
 40
1
 40
1
 40
1
 10
45.741514
 20
209.353944
 30
0.0
 10
45.741514
 20
208.694012
 30
0.0
 10
45.452793
 20
207.167920
 30
0.0
 10
46.442691
 20
207.002937
 30
0.0
  0
SPLINE
  5
2c1
100
AcDbEntity
  8
0
 62
5
100
AcDbSpline
 70
8
 71
3
 72
8
 73
4
 74
0
 40
0
 40
0
 40
0
 40
0
 40
1
 40
1
 40
1
 40
1
 10
46.442691
 20
207.002937
 30
0.0
 10
46.690166
 20
206.961691
 30
0.0
 10
46.978886
 20
207.002937
 30
0.0
 10
47.226360
 20
207.085428
 30
0.0
  0
SPLINE
  5
2c2
100
AcDbEntity
  8
0
 62
5
100
AcDbSpline
 70
8
 71
3
 72
8
 73
4
 74
0
 40
0
 40
0
 40
0
 40
0
 40
1
 40
1
 40
1
 40
1
 10
47.226360
 20
207.085428
 30
0.0
 10
46.978886
 20
204.074490
 30
0.0
 10
46.731411
 20
201.104797
 30
0.0
 10
46.566428
 20
198.093858
 30
0.0
  0
SPLINE
  5
2c3
100
AcDbEntity
  8
0
 62
5
100
AcDbSpline
 70
8
 71
3
 72
8
 73
4
 74
0
 40
0
 40
0
 40
0
 40
0
 40
1
 40
1
 40
1
 40
1
 10
46.566428
 20
198.093858
 30
0.0
 10
46.401445
 20
195.206656
 30
0.0
 10
46.318954
 20
192.278209
 30
0.0
 10
46.277708
 20
189.391007
 30
0.0
  0
SPLINE
  5
2c4
100
AcDbEntity
  8
0
 62
5
100
AcDbSpline
 70
8
 71
3
 72
8
 73
4
 74
0
 40
0
 40
0
 40
0
 40
0
 40
1
 40
1
 40
1
 40
1
 10
46.277708
 20
189.391007
 30
0.0
 10
46.236462
 20
187.864915
 30
0.0
 10
46.236462
 20
186.338823
 30
0.0
 10
46.236462
 20
184.812730
 30
0.0
  0
SPLINE
  5
2c5
100
AcDbEntity
  8
0
 62
5
100
AcDbSpline
 70
8
 71
3
 72
8
 73
4
 74
0
 40
0
 40
0
 40
0
 40
0
 40
1
 40
1
 40
1
 40
1
 10
46.236462
 20
184.812730
 30
0.0
 10
46.236462
 20
183.575358
 30
0.0
 10
46.195217
 20
182.296740
 30
0.0
 10
46.318954
 20
181.059368
 30
0.0
  0
SPLINE
  5
2c6
100
AcDbEntity
  8
0
 62
5
100
AcDbSpline
 70
8
 71
3
 72
8
 73
4
 74
0
 40
0
 40
0
 40
0
 40
0
 40
1
 40
1
 40
1
 40
1
 10
46.318954
 20
181.059368
 30
0.0
 10
46.566428
 20
178.502133
 30
0.0
 10
48.133766
 20
176.481092
 30
0.0
 10
49.536121
 20
174.418805
 30
0.0
  0
SPLINE
  5
2c7
100
AcDbEntity
  8
0
 62
5
100
AcDbSpline
 70
8
 71
3
 72
8
 73
4
 74
0
 40
0
 40
0
 40
0
 40
0
 40
1
 40
1
 40
1
 40
1
 10
49.536121
 20
174.418805
 30
0.0
 10
50.979722
 20
172.232781
 30
0.0
 10
52.423323
 20
169.799282
 30
0.0
 10
54.691839
 20
168.396927
 30
0.0
  0
SPLINE
  5
2c8
100
AcDbEntity
  8
0
 62
5
100
AcDbSpline
 70
8
 71
3
 72
8
 73
4
 74
0
 40
0
 40
0
 40
0
 40
0
 40
1
 40
1
 40
1
 40
1
 10
54.691839
 20
168.396927
 30
0.0
 10
55.063050
 20
168.149453
 30
0.0
 10
55.351770
 20
167.984470
 30
0.0
 10
55.640490
 20
167.819487
 30
0.0
  0
LWPOLYLINE
  5
2c9
100
AcDbEntity
  8
0
 62
6
100
AcDbPolyline
 90
1
 70
1
 10
70.117744
 20
255.961627
 30
0.0
  0
LWPOLYLINE
  5
2ca
100
AcDbEntity
  8
0
 62
5
100
AcDbPolyline
 90
1
 70
1
 10
55.640490
 20
167.819487
 30
0.0
  0
ENDSEC
  0
SECTION
  2
OBJECTS
  0
DICTIONARY
  5
C
330
0
100
AcDbDictionary
  3
ACAD_GROUP
350
D
  3
ACAD_MLINESTYLE
350
17
  0
DICTIONARY
  5
D
330
C
100
AcDbDictionary
  0
DICTIONARY
  5
1A
330
C
100
AcDbDictionary
  0
DICTIONARY
  5
17
330
C
100
AcDbDictionary
  3
STANDARD
350
18
  0
DICTIONARY
  5
19
330
C
100
AcDbDictionary
  0
ENDSEC
  0
EOF
