<svg xmlns="http://www.w3.org/2000/svg" xmlns:xlink="http://www.w3.org/1999/xlink" version="1.1" x="0px" y="0px" viewBox="0 0 90 112.5" enable-background="new 0 0 90 90" xml:space="preserve"><g display="none"><path display="inline" d="M78.292,6.908h-2.885c-0.705,0-1.328,0.081-1.703,0.516c-0.233,0.271-0.374,0.678-0.374,1.294v6.225   c0,1.604,0.932,1.808,2.077,1.808h2.751h0.134c1.147,0,2.077-0.204,2.077-1.808V8.718C80.369,7.114,79.439,6.908,78.292,6.908z"/><polygon display="inline" points="30.595,22.447 30.595,22.447 30.595,22.447 30.595,22.447 30.595,19.843 30.595,19.843    30.595,19.843 30.595,19.843  "/><g display="inline"><path d="M82.398,82.986c0,0.922-0.34,0.762-0.758,0.762l0,0c-0.416,0-0.754,0.16-0.754-0.762v-7.658    c0-0.926,0.338-0.842,0.754-0.842l0,0c0.418,0,0.758-0.084,0.758,0.842V82.986z"/><path d="M9.404,82.986c0,0.922-0.338,0.762-0.755,0.762l0,0c-0.417,0-0.755,0.16-0.755-0.762v-7.658    c0-0.926,0.338-0.842,0.755-0.842l0,0c0.417,0,0.755-0.084,0.755,0.842V82.986z"/></g><path display="inline" d="M82.294,15.86c0,0.924-0.337,0.761-0.754,0.761l0,0c-0.418,0-0.757,0.164-0.757-0.761V8.202   c0-0.923,0.339-0.84,0.757-0.84l0,0c0.417,0,0.754-0.083,0.754,0.84V15.86z"/><path display="inline" d="M7.997,15.86c0,0.924,0.36,0.761,0.803,0.761l0,0c0.444,0,0.803,0.164,0.803-0.761V8.202   c0-0.923-0.359-0.84-0.803-0.84l0,0c-0.443,0-0.803-0.083-0.803,0.84V15.86z"/><path display="inline" d="M80.467,81.369c0,1.275-1.037,2.314-2.313,2.314H12.14c-1.278,0-2.314-1.039-2.314-2.314v-4.494   c0-1.279,1.036-2.314,2.314-2.314h66.014c1.275,0,2.313,1.035,2.313,2.314V81.369z M75.57,77.618c-0.868,0-1.573,0.704-1.573,1.573   c0,0.873,0.705,1.578,1.573,1.578c0.871,0,1.574-0.705,1.574-1.578C77.146,78.322,76.441,77.618,75.57,77.618z M14.855,77.867   c0-0.533-0.431-0.965-0.964-0.965l0,0c-0.533,0-0.964,0.432-0.964,0.965v2.506c0,0.533,0.431,0.965,0.964,0.965l0,0   c0.533,0,0.964-0.432,0.964-0.965V77.867z M17.558,77.867c0-0.533-0.434-0.965-0.965-0.965l0,0c-0.534,0-0.966,0.432-0.966,0.965   v2.506c0,0.533,0.432,0.965,0.966,0.965l0,0c0.531,0,0.965-0.432,0.965-0.965V77.867z"/><path display="inline" d="M15.042,6.789h-2.885c-0.705,0-1.328,0.081-1.703,0.516C10.22,7.576,10.08,7.983,10.08,8.599v6.225   c0,1.604,0.932,1.808,2.077,1.808h2.751h0.134c1.147,0,2.077-0.204,2.077-1.808V8.599C17.119,6.995,16.189,6.789,15.042,6.789z"/><rect x="21.16" y="48.216" display="inline" width="48.992" height="1.609"/><path display="inline" d="M18.323,9.447h53.768c0.294,0,0.531,0.233,0.531,0.521v-1.43c0-0.678,0.153-1.126,0.411-1.424h-55.66   c0.261,0.298,0.416,0.747,0.416,1.424v1.43C17.789,9.68,18.029,9.447,18.323,9.447z"/><path display="inline" d="M74.908,17.378c-1.262,0-2.286-0.225-2.286-1.99V9.967c0,0.288-0.237,0.521-0.531,0.521H34.063   c0.359,0.471,0.583,1.081,0.583,1.757v3.198h34.937c0.263,0,0.478,0.21,0.478,0.47c0,0.26-0.215,0.47-0.478,0.47H34.635   c-0.06,1.415-1.065,2.542-2.305,2.542h-1.455v1.533h-0.708v-1.533h-1.309c-1.239,0-2.244-1.128-2.304-2.542h-4.917   c-0.263,0-0.477-0.21-0.477-0.47c0-0.26,0.214-0.47,0.477-0.47h4.906v-3.198c0-0.676,0.225-1.286,0.583-1.757h-8.803   c-0.294,0-0.535-0.233-0.535-0.521v5.421c0,1.766-1.036,1.99-2.314,1.99h-3.119v56.31h6.939V53.745H15.79   c-0.619,0-0.61-0.877-0.61-1.96c0-1.084-0.009-1.96,0.61-1.96h3.505v-1.609h-3.729c-0.212,0-0.385-0.172-0.385-0.386   s0.173-0.387,0.385-0.387h3.729V20.32c0-0.656,0.417-1.189,0.932-1.189c0.516,0,0.933,0.533,0.933,1.189v27.124h48.992V20.32   c0-0.656,0.423-1.189,0.935-1.189c0.517,0,0.933,0.533,0.933,1.189v27.124h3.347c0.214,0,0.386,0.173,0.386,0.387   s-0.172,0.386-0.386,0.386H72.02v1.609h3.186c0.615,0,0.547,0.876,0.547,1.96c0,1.083,0.068,1.96-0.547,1.96H72.02v19.942h5.916   v-56.31H74.908z"/><rect x="21.16" y="53.745" display="inline" width="48.992" height="19.942"/></g><g><path fill="#000000" d="M75.313,81.069c-1.024,0-1.858-0.833-1.858-1.857s0.834-1.858,1.858-1.858s1.857,0.834,1.857,1.858   S76.338,81.069,75.313,81.069z M75.313,77.93c-0.707,0-1.282,0.575-1.282,1.282c0,0.706,0.575,1.281,1.282,1.281   c0.706,0,1.281-0.575,1.281-1.281C76.595,78.505,76.02,77.93,75.313,77.93z"/><path fill="#000000" d="M14.824,80.388c0,0.531-0.431,0.961-0.961,0.961l0,0c-0.531,0-0.961-0.43-0.961-0.961v-2.497   c0-0.531,0.43-0.962,0.961-0.962l0,0c0.53,0,0.961,0.431,0.961,0.962V80.388z"/><path fill="#000000" d="M17.515,80.388c0,0.531-0.431,0.961-0.96,0.961l0,0c-0.531,0-0.961-0.43-0.961-0.961v-2.497   c0-0.531,0.43-0.962,0.961-0.962l0,0c0.53,0,0.96,0.431,0.96,0.962V80.388z"/><path fill="#000000" d="M81.36,74.415c-0.415,0-0.752-0.083-0.752,0.838v7.629c0,0.921,0.337,0.76,0.752,0.76   c0.416,0,0.753,0.161,0.753-0.76v-7.629C82.113,74.332,81.776,74.415,81.36,74.415z"/><path fill="#000000" d="M8.64,74.415c-0.416,0-0.752-0.083-0.752,0.838v7.629c0,0.921,0.337,0.76,0.752,0.76   s0.753,0.161,0.753-0.76v-7.629C9.393,74.332,9.056,74.415,8.64,74.415z"/><path fill="#000000" d="M81.229,7.542c-0.416,0-0.753-0.084-0.753,0.837v0.439c0-2.369-1.798-2.369-2.661-2.369h-3.163   c-0.657,0-1.853,0.007-2.387,1.055H17.854c-0.54-1.047-1.748-1.055-2.414-1.055h-3.203c-0.813,0-2.425,0.026-2.646,1.938V8.379   c0-0.921-0.358-0.837-0.8-0.837c-0.442,0-0.8-0.084-0.8,0.837v7.629c0,0.921,0.358,0.759,0.8,0.759   c0.426,0,0.771,0.141,0.795-0.675c0.193,1.636,1.41,1.882,2.267,1.914v56.23c-1.358,0.136-2.426,1.272-2.426,2.665v4.477   c0,1.483,1.207,2.691,2.691,2.691h65.765c1.483,0,2.691-1.208,2.691-2.691V76.9c0-1.393-1.068-2.529-2.427-2.665V18.007   c0.922-0.027,2.329-0.267,2.329-2.362v0.363c0,0.921,0.337,0.759,0.753,0.759c0.415,0,0.753,0.162,0.753-0.759V8.379   C81.982,7.458,81.645,7.542,81.229,7.542z M72.027,8.465c-0.012,0.119-0.036,0.22-0.036,0.354v0.936   c-0.048-0.014-0.096-0.029-0.148-0.029H18.279c-0.053,0-0.101,0.015-0.148,0.029V8.818c0-0.134-0.025-0.234-0.036-0.354H72.027z    M32.233,11.232c1.06,0,1.922,1.021,1.922,2.277v3.994c0,1.256-0.862,2.278-1.922,2.278h-3.459c-1.06,0-1.921-1.022-1.921-2.278   v-3.994c0-1.256,0.862-2.277,1.921-2.277H32.233z M18.131,15.645v-4.912c0.048,0.014,0.096,0.029,0.148,0.029h9.353   c-0.912,0.488-1.548,1.532-1.548,2.747v2.305H21.58c-0.262,0-0.475,0.291-0.475,0.649c0,0.358,0.213,0.649,0.475,0.649h4.504v0.391   c0,1.68,1.207,3.046,2.69,3.046h1.25v2.128h0.961v-2.128h1.249c1.484,0,2.691-1.367,2.691-3.046v-0.391h34.42   c0.263,0,0.476-0.291,0.476-0.649c0-0.358-0.213-0.649-0.476-0.649h-34.42v-2.305c0-1.215-0.637-2.259-1.548-2.747h38.467   c0.053,0,0.101-0.015,0.148-0.029v4.912c0,2.367,1.798,2.367,2.661,2.367h2.534v56.198h-5.411V54.375h3.169   c0.616,0,0.547-0.875,0.547-1.953s0.069-1.953-0.547-1.953h-3.169v-1.604h3.33c0.213,0,0.386-0.172,0.386-0.384   s-0.173-0.385-0.386-0.385h-3.33v-27.54c0-0.653-0.416-1.184-0.93-1.184c-0.513,0-0.929,0.53-0.929,1.184v27.54H21.105v-27.54   c0-0.653-0.417-1.184-0.929-1.184c-0.513,0-0.929,0.53-0.929,1.184v27.54h-3.715c-0.212,0-0.385,0.173-0.385,0.385   s0.172,0.384,0.385,0.384h3.715v1.604h-3.493c-0.617,0-0.607,0.875-0.607,1.953s-0.009,1.953,0.607,1.953h3.493v19.834h-6.433   V18.011h2.625C16.313,18.011,18.131,18.011,18.131,15.645z M21.105,50.469v-1.604h48.812v1.604H21.105z M69.917,54.375v19.834   H21.105V54.375H69.917z M10.315,15.645V8.818c0-1.361,0.62-1.601,1.921-1.601h3.203c1.302,0,1.922,0.24,1.922,1.601v6.826   c0,1.359-0.62,1.598-1.922,1.598h-3.203C10.935,17.243,10.315,17.003,10.315,15.645z M79.805,76.9v4.477   c0,1.06-0.862,1.922-1.922,1.922H12.118c-1.06,0-1.922-0.862-1.922-1.922V76.9c0-1.06,0.862-1.922,1.922-1.922h65.765   C78.942,74.979,79.805,75.841,79.805,76.9z M79.707,15.645c0,1.359-0.609,1.598-1.892,1.598h-3.163   c-1.282,0-1.892-0.239-1.892-1.598V8.818c0-1.361,0.609-1.601,1.892-1.601h3.163c1.282,0,1.892,0.24,1.892,1.601V15.645z"/><path fill="#000000" d="M41.019,35.069l-0.405-7.814l4.648-3.436l6.199,1.281l1.211,5.591l-1.211,3.234l0.54,3.839l4.579,0.608   l2.966,6.063l-1.616,4.221l-19.256-0.08l-2.574-4.815l1.078-4.312l3.84-0.943l2.29-2.268 M45.374,26.715l1.516,0.943l1.448,3.436   l1.954,1.078l1.278-2.223l-1.347-3.739l-4.716-1.247l-3.301,2.492L45.374,26.715z M47.826,39.853l3.744,1.685l5.122,3.435   l1.885-0.808l-2.424-4.782l-3.977-0.405L47.826,39.853z"/></g><text x="0" y="105" fill="#000000" font-size="5px" font-weight="bold" font-family="'Helvetica Neue', Helvetica, Arial-Unicode, Arial, Sans-serif">Created by Bryan Allen</text><text x="0" y="110" fill="#000000" font-size="5px" font-weight="bold" font-family="'Helvetica Neue', Helvetica, Arial-Unicode, Arial, Sans-serif">from the Noun Project</text></svg>