<?xml version="1.0" encoding="UTF-8" standalone="no"?>
<!-- Created with Inkscape (http://www.inkscape.org/) -->

<svg
   xmlns:dc="http://purl.org/dc/elements/1.1/"
   xmlns:cc="http://creativecommons.org/ns#"
   xmlns:rdf="http://www.w3.org/1999/02/22-rdf-syntax-ns#"
   xmlns:svg="http://www.w3.org/2000/svg"
   xmlns="http://www.w3.org/2000/svg"
   xmlns:sodipodi="http://sodipodi.sourceforge.net/DTD/sodipodi-0.dtd"
   xmlns:inkscape="http://www.inkscape.org/namespaces/inkscape"
   width="210mm"
   height="297mm"
   viewBox="0 0 744.09448819 1052.3622047"
   id="svg3580"
   version="1.1"
   inkscape:version="0.91 r13725"
   sodipodi:docname="picto3D.svg">
  <defs
     id="defs3582" />
  <sodipodi:namedview
     id="base"
     pagecolor="#ffffff"
     bordercolor="#666666"
     borderopacity="1.0"
     inkscape:pageopacity="0.0"
     inkscape:pageshadow="2"
     inkscape:zoom="0.35"
     inkscape:cx="375"
     inkscape:cy="520"
     inkscape:document-units="px"
     inkscape:current-layer="layer1"
     showgrid="false"
     inkscape:window-width="1920"
     inkscape:window-height="1003"
     inkscape:window-x="-9"
     inkscape:window-y="-9"
     inkscape:window-maximized="1" />
  <metadata
     id="metadata3585">
    <rdf:RDF>
      <cc:Work
         rdf:about="">
        <dc:format>image/svg+xml</dc:format>
        <dc:type
           rdf:resource="http://purl.org/dc/dcmitype/StillImage" />
        <dc:title></dc:title>
      </cc:Work>
    </rdf:RDF>
  </metadata>
  <g
     inkscape:label="Calque 1"
     inkscape:groupmode="layer"
     id="layer1">
    <path
       style="fill:#000000"
       d="m 215.37271,429.00358 -12.34958,-17.91128 0,-74.7794 0,-74.77939 34.42797,0 34.42797,0 0,76.10576 0,76.10576 -11.2553,16.52189 c -10.69338,15.69704 -11.79564,16.52503 -22.07839,16.58491 -10.40347,0.0606 -11.30188,-0.63139 -23.17267,-17.84825 z"
       id="path3516"
       inkscape:connector-curvature="0" />
    <path
       style="fill:#8d5fd3"
       d="m 320.87271,788.69823 c -21.84852,-8.31811 -68.02834,-25.59957 -102.62182,-38.40328 0,0 -42.56324,-16.27347 -63.13353,-25.40594 -3.53633,-1.57001 -3.78048,-10.66243 -3.78048,-10.66243 0,-10.36033 3.25622,-10.89868 8.71504,-10.89868 3.36377,0 21.76371,5.71089 39.15603,12.11329 17.39231,6.40241 56.46515,20.76568 86.82853,31.91835 30.36337,11.15268 60.753,22.46398 67.53251,25.1362 0,0 8.01113,2.9633 12.32638,2.02325 28.53594,-6.2164 87.39334,-25.99043 87.39334,-25.99043 48.06634,-15.85419 95.43755,-31.26253 105.26938,-34.24079 15.75125,-4.77134 17.87606,-6.18863 17.87606,-11.92361 0,-3.57974 -1.29102,-6.50862 -2.86893,-6.50862 -1.57794,0 -46.912,14.30085 -100.74238,31.77966 -53.83037,17.47882 -101.10264,31.75782 -105.04948,31.73112 -10.00736,-0.0677 -210.00847,-70.00062 -212.70702,-74.47818 -4.32558,-7.17721 -3.47955,-15.07179 -3.50185,-29.09498 -0.045,-28.28944 3.4833,-33.0471 16.34435,-30.73848 4.0189,0.72141 48.65168,15.75499 99.18396,33.40796 50.53227,17.65296 94.03069,32.08092 96.66313,32.06213 2.63245,-0.0188 12.53256,-2.48546 22.00025,-5.48148 21.29736,-6.73948 158.24942,-49.23503 175.45022,-54.44135 10.38461,-3.1432 12.57945,-4.89958 12.57945,-10.06651 0,-6.13926 -0.21531,-6.19297 -11.2553,-2.80825 -37.61947,11.53364 -182.11798,55.34212 -188.91828,57.27548 -6.88764,1.9582 -23.32263,-2.63153 -104.60805,-29.21342 -53.04013,-17.34513 -99.41594,-32.3896 -103.05736,-33.43216 -12.23278,-3.50229 -14.6592,-6.13351 -14.6592,-31.67409 0,-26.39222 -2.46945,-39.56132 15.16543,-35.78084 2.95914,0.63437 48.28926,13.70498 100.58421,30.45551 52.29495,16.75053 96.88678,30.45551 99.09297,30.45551 2.20619,0 35.23245,-9.0947 73.39167,-20.21043 38.15924,-11.11574 76.23292,-21.98804 84.60819,-24.16067 8.37526,-2.17263 15.22775,-4.87872 15.22775,-6.01355 0,-2.57684 -14.84208,-7.87806 -22.05662,-7.87806 -2.95705,0 -36.01722,8.34216 -73.46708,18.53813 -37.44985,10.19598 -72.09442,18.54783 -76.98792,18.55967 -4.89351,0.0119 -22.4061,-4.9224 -38.91687,-10.96498 -23.48088,-8.59348 -30.66018,-12.39243 -32.96054,-17.44118 -3.1397,-6.89089 -0.83017,-13.20577 6.21856,-17.0032 2.08751,-1.12462 24.055,-7.55367 48.81666,-14.28678 56.99789,-15.49869 54.51803,-14.54812 45.88467,-17.58812 -5.66315,-1.99412 -19.71891,1.0426 -70.18008,15.1623 -93.45721,26.15055 -99.98199,27.13118 -100.36213,12.86042 -0.9225,-34.63179 -0.0218,-38.43863 -0.058,-73.50716 -0.009,-8.45448 12.62567,-11.02395 20.00749,-7.07332 4.92627,2.63646 5.39665,5.4192 5.39665,31.92638 0,15.971 0.48633,29.03818 1.08073,29.03818 0.59441,0 17.57666,-4.67319 37.73835,-10.38486 76.03541,-21.54034 95.29319,-26.69141 99.78832,-26.69141 8.30914,0 69.95348,21.1784 73.2676,25.17166 1.81898,2.19175 2.51011,6.75587 1.5826,10.45139 -1.837,7.3192 0.13506,6.59525 -69.12498,25.37539 -23.30508,6.31927 -42.93424,11.92889 -43.62034,12.46583 -2.5583,2.00213 6.81554,5.9052 14.27625,5.94432 6.95583,0.0365 60.36557,-13.54615 120.59613,-30.66883 12.31785,-3.50179 26.02283,-6.28443 30.45551,-6.18364 4.43268,0.10079 24.14785,5.76153 43.81152,12.57944 0,0 22.35076,6.09482 33.86188,12.86878 4.8891,3.63391 6.67976,18.14118 0.23628,20.54447 -23.14016,8.63081 -31.44985,9.75907 -31.44985,9.75907 -111.71317,32.93325 -191.55869,55.29381 -197.44418,55.29381 -5.59442,0 -178.15124,-53.68081 -184.57383,-57.41918 -1.09243,-0.63587 -1.98623,2.26727 -1.98623,6.45141 l 0,7.60754 90.90571,29.62503 c 49.99814,16.29377 93.42733,29.62503 96.50931,29.62503 3.08199,0 19.07987,-4.0933 35.55086,-9.09621 16.47098,-5.00292 44.2481,-13.44432 61.72691,-18.75867 94.8852,-28.84938 118.53088,-35.70444 123.158,-35.70444 8.07513,0 11.29025,8.40482 11.29025,35.48484 0,28.91423 0.74934,27.05819 -28.51604,35.39407 -16.24897,4.62831 -53.32747,16.10965 -160.22246,49.61282 -15.29396,4.79346 -31.43294,10.20096 -35.86441,12.01669 -7.47617,3.06324 -14.54241,1.05323 -97.98729,-27.87258 -49.46154,-17.14565 -91.41975,-31.74189 -93.24046,-32.43609 -2.09131,-0.79738 -3.31038,1.12864 -3.31038,5.23011 0,6.15405 4.82926,8.16943 92.69452,38.68376 50.98199,17.70531 94.18247,32.18235 96.00106,32.17123 4.34601,-0.0265 18.03203,-4.31713 126.02473,-39.50865 50.01621,-16.29875 93.51462,-29.26706 96.66314,-28.81849 5.40378,0.76989 7.42059,2.16435 8.12835,28.8637 0.69155,26.08725 -1.34832,28.93447 -6.62202,33.84768 -4.9843,4.64359 -47.47855,19.30702 -197.82824,68.26431 -14.9921,4.8817 -26.80684,7.7927 -28.56526,7.6238 -1.75843,-0.1689 -22.96344,-6.1676 -44.81196,-14.4857 z"
       id="path3528"
       inkscape:connector-curvature="0"
       sodipodi:nodetypes="cssssssssssssssssssssssssssssssssssscssssssssssssssssssssscssssscssssssssssssscsssssscc" />
  </g>
</svg>
