<?xml version="1.0" encoding="UTF-8" standalone="no"?>
<!-- Created with Inkscape (http://www.inkscape.org/) -->

<svg
   xmlns:dc="http://purl.org/dc/elements/1.1/"
   xmlns:cc="http://creativecommons.org/ns#"
   xmlns:rdf="http://www.w3.org/1999/02/22-rdf-syntax-ns#"
   xmlns:svg="http://www.w3.org/2000/svg"
   xmlns="http://www.w3.org/2000/svg"
   xmlns:sodipodi="http://sodipodi.sourceforge.net/DTD/sodipodi-0.dtd"
   xmlns:inkscape="http://www.inkscape.org/namespaces/inkscape"
   width="210mm"
   height="297mm"
   viewBox="0 0 744.09448819 1052.3622047"
   id="svg3630"
   version="1.1"
   inkscape:version="0.91 r13725"
   sodipodi:docname="pictocnc.svg">
  <defs
     id="defs3632" />
  <sodipodi:namedview
     id="base"
     pagecolor="#ffffff"
     bordercolor="#666666"
     borderopacity="1.0"
     inkscape:pageopacity="0.0"
     inkscape:pageshadow="2"
     inkscape:zoom="0.35"
     inkscape:cx="375"
     inkscape:cy="520"
     inkscape:document-units="px"
     inkscape:current-layer="layer1"
     showgrid="false"
     inkscape:window-width="1920"
     inkscape:window-height="1003"
     inkscape:window-x="-9"
     inkscape:window-y="-9"
     inkscape:window-maximized="1" />
  <metadata
     id="metadata3635">
    <rdf:RDF>
      <cc:Work
         rdf:about="">
        <dc:format>image/svg+xml</dc:format>
        <dc:type
           rdf:resource="http://purl.org/dc/dcmitype/StillImage" />
        <dc:title></dc:title>
      </cc:Work>
    </rdf:RDF>
  </metadata>
  <g
     inkscape:label="Calque 1"
     inkscape:groupmode="layer"
     id="layer1">
    <path
       style="fill:#000000"
       d="m 388.62148,425.10584 0,-29.13136 56.93857,0 56.93856,0 0,29.13136 0,29.13136 -56.93856,0 -56.93856,0 0,-29.13136 z"
       id="path3524"
       inkscape:connector-curvature="0" />
    <path
       style="fill:#000000"
       d="m 195.29522,646.26703 c 0,-22.3296 0.12325,-22.7402 18.08433,-60.2489 17.77579,-37.1218 18.43099,-38.0491 38.40294,-54.3539 l 20.31861,-16.5878 11.25278,7.1225 c 67.94701,43.0077 93.6406,60.2455 107.037,71.8111 l 14.12044,12.1908 0,16.7088 0,16.7089 64.88348,0 64.88347,0 0,14.5657 0,14.5657 -169.49153,0 -169.49152,0 0,-22.4829 z"
       id="path3526"
       inkscape:connector-curvature="0" />
    <path
       style="fill:#8d5fd3"
       d="m 455.94948,482.90383 c -9.80666,-2.3263 -11.35042,-3.1399 -17.67334,-9.3141 -3.53738,-3.4542 -6.9216,-7.1959 -7.52051,-8.315 l -1.08892,-2.0346 19.69561,0 19.6956,0 0,10.1434 0,10.1435 -5.38382,-0.034 c -2.9611,-0.019 -6.43719,-0.2838 -7.72463,-0.5893 z"
       id="path3534"
       inkscape:connector-curvature="0" />
    <path
       style="fill:#8d5fd3"
       d="m 453.14053,520.39633 c -10.90629,-1.8839 -18.00282,-5.807 -27.27262,-15.0768 l -6.4348,-6.4348 0,-16.4731 c 0,-10.7436 0.10094,-15.9779 0.10094,-15.9779 3.73293,6.2127 8.67051,13.154 14.68827,18.1741 1.90794,1.5025 5.78636,3.9407 8.61872,5.4181 4.79357,2.5005 9.40306,2.4364 15.91739,2.6972 5.92221,0.01 12.13702,-0.2945 13.81068,-0.6679 l 3.04303,-0.6788 0,13.3651 0,13.3651 -3.04303,1.0605 c -4.19797,1.463 -14.35505,2.1056 -19.42858,1.2292 z"
       id="path3536"
       inkscape:connector-curvature="0"
       sodipodi:nodetypes="sscsccccccccss" />
    <path
       style="fill:#8d5fd3"
       d="m 449.52794,533.70243 c -3.77179,-0.7225 -14.15024,-10.5278 -16.05986,-12.521 0,0 3.09976,2.8956 8.23052,5.3569 3.12436,1.4988 7.55281,3.647 15.88944,3.6371 9.34712,-0.011 12.6046,-1.4019 12.6046,-1.4019 0,2.1987 0.0368,6.8916 0.0368,6.8916 0,0 -13.21732,1.3613 -20.70147,-1.9627 z"
       id="path3538"
       inkscape:connector-curvature="0"
       sodipodi:nodetypes="ccscccc" />
    <path
       style="fill:#8d5fd3"
       d="m 450.2576,570.95263 c -11.04629,-2.788 -16.30422,-5.9926 -25.90883,-15.7907 l -4.91566,-5.0147 0.0113,-17.0026 0.0113,-17.0026 2.14898,3.7453 c 6.42592,11.1991 14.31778,18.6392 23.82111,22.4573 4.82912,1.9402 7.38596,2.3478 14.51292,2.314 4.76971,-0.023 10.23737,-0.6071 12.18672,-1.3026 l 3.53564,-1.2614 -0.25853,13.7087 -0.25853,13.7088 -4.68158,1.1624 c -8.37509,2.0794 -12.82511,2.1406 -20.20479,0.2781 z"
       id="path3540"
       inkscape:connector-curvature="0" />
    <path
       style="fill:#8d5fd3"
       d="m 451.52901,621.42853 c -8.47489,-1.4977 -16.27694,-5.9082 -24.52847,-13.8657 l -7.56743,-7.2978 0,-16.6021 c 0,-10.8297 -0.0661,-16.1069 -0.0661,-16.1069 3.47126,6.5132 9.75001,14.2295 16.57139,19.4204 8.65066,6.2174 10.89314,6.8799 23.28822,6.8799 5.54174,-0.099 11.05008,0.052 16.38555,-1.4401 l 0,13.5218 0,13.5218 -3.04303,0.965 c -4.58813,1.4549 -15.53261,1.977 -21.0401,1.0037 z"
       id="path3544"
       inkscape:connector-curvature="0"
       sodipodi:nodetypes="sscscccccccs" />
    <path
       style="fill:#8d5fd3"
       d="m 490.10539,597.83573 c 0.76139,-9.1412 3.332,-17.6776 5.01211,-21.2685 2.1894,-4.6794 9.21655,-15.2781 13.3118,-22.8228 0,0 -0.51681,1.5623 -5.2031,15.7677 -1.20517,3.6532 -3.0144,8.2396 -3.71421,10.2995 -0.69981,2.0599 -2.37893,6.6946 -3.73138,10.2995 -2.23647,5.3025 -4.01032,9.9693 -6.37404,16.034 0,0 0.34496,-4.0609 0.69882,-8.3094 z"
       id="path3546"
       inkscape:connector-curvature="0"
       sodipodi:nodetypes="sscssccs" />
    <path
       style="fill:#8d5fd3"
       d="m 499.90767,612.31123 c 2.91776,-4.7753 6.01335,-9.2955 8.1527,-13.4122 2.73818,-5.3837 2.23661,-4.4644 6.10703,-9.777 11.84732,-6.7189 8.54415,-5.2347 28.66439,-17.2691 1.2138,0 -21.86221,22.6912 -29.76696,29.2706 -4.40622,3.2421 -9.44799,8.2402 -13.15716,11.1877 z"
       id="path3548"
       inkscape:connector-curvature="0"
       sodipodi:nodetypes="cccccc" />
    <path
       style="fill:#8d5fd3"
       d="m 512.12852,621.53073 -4.21343,-0.6021 4.21343,-1.1869 c 2.31738,-0.6528 5.89879,-1.7654 7.95869,-2.4725 2.05989,-0.707 7.53736,-2.4118 12.17212,-3.7883 4.63478,-1.3765 22.44546,-7.5838 22.44546,-7.5838 0,0 -4.1536,3.2608 -14.0521,8.2903 -5.64628,2.869 -11.53002,5.891 -13.07494,6.7157 -2.84824,1.5203 -7.79533,1.7213 -15.44924,0.6276 z"
       id="path3550"
       inkscape:connector-curvature="0"
       sodipodi:nodetypes="scscscccs" />
    <path
       style="fill:#8d5fd3"
       d="m 449.62009,585.00373 c -3.7718,-0.7225 -14.15024,-10.5278 -16.05986,-12.521 0,0 3.09976,2.8956 8.23052,5.3569 3.12436,1.4988 7.55281,3.647 15.88944,3.6371 9.34712,-0.011 12.6046,-1.4019 12.6046,-1.4019 0,2.1987 0.0368,6.8916 0.0368,6.8916 0,0 -13.21732,1.3613 -20.70147,-1.9627 z"
       id="path3538-8"
       inkscape:connector-curvature="0"
       sodipodi:nodetypes="ccscccc" />
  </g>
</svg>
