<svg xmlns="http://www.w3.org/2000/svg" xmlns:xlink="http://www.w3.org/1999/xlink" version="1.1" x="0px" y="0px" viewBox="0 0 100 125" enable-background="new 0 0 100 100" xml:space="preserve"><rect x="5" y="89" width="90" height="6"/><polygon points="54,56 54,38 26.115,38 25,38 25,56 25,86 75,86 75,56 "/><polygon points="69,9 69,5 51,5 51,9 5,9 5,15 51,15 51,19 57,29 57,39.001 63,29 69,19 69,15 95,15 95,9 "/><polygon points="63,53 63,42.998 57,53 "/><polygon points="57,42.89 57,49.112 63,39.111 63,32.888 "/><text x="0" y="115" fill="#000000" font-size="5px" font-weight="bold" font-family="'Helvetica Neue', Helvetica, Arial-Unicode, Arial, Sans-serif">Created by Toke Frello</text><text x="0" y="120" fill="#000000" font-size="5px" font-weight="bold" font-family="'Helvetica Neue', Helvetica, Arial-Unicode, Arial, Sans-serif">from the Noun Project</text></svg>