<svg xmlns="http://www.w3.org/2000/svg" xmlns:xlink="http://www.w3.org/1999/xlink" version="1.1" x="0px" y="0px" viewBox="0 0 100 94.5375" enable-background="new 0 0 100 75.63" xml:space="preserve"><polygon points="83.932,50.434 83.932,51.603 85.014,51.603 85.014,52.255 83.932,52.255 83.396,52.255 82.313,52.255   82.313,51.603 83.396,51.603 83.396,50.434 74.839,50.434 74.839,51.603 75.921,51.603 75.921,52.255 74.839,52.255 74.303,52.255   73.221,52.255 73.221,51.603 74.303,51.603 74.303,50.434 65.745,50.434 65.745,51.603 66.827,51.603 66.827,52.255 65.745,52.255   65.21,52.255 64.128,52.255 64.128,51.603 65.21,51.603 65.21,50.434 56.652,50.434 56.652,51.603 57.734,51.603 57.734,52.255   56.652,52.255 56.116,52.255 55.034,52.255 55.034,51.603 56.116,51.603 56.116,50.434 47.56,50.434 47.56,51.603 48.642,51.603   48.642,52.255 47.56,52.255 47.023,52.255 45.941,52.255 45.941,51.603 47.023,51.603 47.023,50.434 38.467,50.434 38.467,51.603   39.548,51.603 39.548,52.255 38.467,52.255 37.931,52.255 36.849,52.255 36.849,51.603 37.931,51.603 37.931,50.434 29.374,50.434   29.374,51.603 30.456,51.603 30.456,52.255 29.374,52.255 28.837,52.255 27.755,52.255 27.755,51.603 28.837,51.603 28.837,50.434   20.28,50.434 20.28,51.603 21.362,51.603 21.362,52.255 20.28,52.255 19.745,52.255 18.663,52.255 18.663,51.603 19.745,51.603   19.745,50.434 15.302,50.434 15.302,54.403 88.374,54.403 88.374,50.434 "/><path d="M91.477,59.917V22.462h-1.532h-0.307H58.979v-0.785h9.479c2.862,0,5.19-2.328,5.19-5.19s-2.328-5.19-5.19-5.19h-9.479V4.999  h-11.03v13.423H12.2v-2.623H6.225v15.396H12.2v21.83H6.991v6.894H5v1.379h7.2h1.838h1.264v2.068v2.067h3.562v4.596h-3.016v0.604  h3.016h2.068h3.016v-0.604h-3.016v-4.596h3.562v-2.067h54.689v2.067h3.562v4.596h-3.016v0.604h3.016h2.068h3.016v-0.604h-3.016  v-4.596h3.562v-2.067v-2.068h1.264h1.839H95v-1.379H91.477z M58.979,14.555h9.479c1.066,0,1.934,0.867,1.934,1.933  s-0.867,1.934-1.934,1.934h-9.479V14.555z M12.2,21.678h35.75v0.785H14.038h-0.843H12.2V21.678z M88.374,59.917v-4.825h-9.191  H24.493h-9.191v4.825h-1.264V32.803h33.911v1.379h4.137v2.652H50.19v2.757h6.548v-2.757h-1.896v-2.652h4.137v-1.379h30.658v27.115  H88.374z"/><text x="0" y="90.63" fill="#000000" font-size="5px" font-weight="bold" font-family="'Helvetica Neue', Helvetica, Arial-Unicode, Arial, Sans-serif">Created by jon trillana</text><text x="0" y="95.63" fill="#000000" font-size="5px" font-weight="bold" font-family="'Helvetica Neue', Helvetica, Arial-Unicode, Arial, Sans-serif">from the Noun Project</text></svg>