<?xml version="1.0" encoding="UTF-8" standalone="no"?>
<svg
   xmlns:dc="http://purl.org/dc/elements/1.1/"
   xmlns:cc="http://creativecommons.org/ns#"
   xmlns:rdf="http://www.w3.org/1999/02/22-rdf-syntax-ns#"
   xmlns:svg="http://www.w3.org/2000/svg"
   xmlns="http://www.w3.org/2000/svg"
   xmlns:sodipodi="http://sodipodi.sourceforge.net/DTD/sodipodi-0.dtd"
   xmlns:inkscape="http://www.inkscape.org/namespaces/inkscape"
   version="1.1"
   x="0px"
   y="0px"
   viewBox="0 0 100 100"
   enable-background="new 0 0 100 100"
   xml:space="preserve"
   id="svg3400"
   inkscape:version="0.91 r13725"
   sodipodi:docname="comillas vector.svg"><metadata
     id="metadata3408"><rdf:RDF><cc:Work
         rdf:about=""><dc:format>image/svg+xml</dc:format><dc:type
           rdf:resource="http://purl.org/dc/dcmitype/StillImage" /></cc:Work></rdf:RDF></metadata><defs
     id="defs3406"><filter
       inkscape:collect="always"
       style="color-interpolation-filters:sRGB"
       id="filter4244"
       x="-0.0048779239"
       width="1.0097558"
       y="-0.0077925266"
       height="1.0155851"><feGaussianBlur
         inkscape:collect="always"
         stdDeviation="0.18289945"
         id="feGaussianBlur4246" /></filter></defs><sodipodi:namedview
     pagecolor="#ffffff"
     bordercolor="#666666"
     borderopacity="1"
     objecttolerance="10"
     gridtolerance="10"
     guidetolerance="10"
     inkscape:pageopacity="0"
     inkscape:pageshadow="2"
     inkscape:window-width="1436"
     inkscape:window-height="855"
     id="namedview3404"
     showgrid="false"
     inkscape:zoom="9.2348146"
     inkscape:cx="31.00716"
     inkscape:cy="50.530705"
     inkscape:window-x="4"
     inkscape:window-y="1"
     inkscape:window-maximized="1"
     inkscape:current-layer="svg3400" /><g
     id="g4248"
     transform="translate(-1.7573722e-6,7.8930501e-7)"
     inkscape:export-xdpi="90"
     inkscape:export-ydpi="90"><path
       style="fill:#cccccc;filter:url(#filter4244)"
       inkscape:connector-curvature="0"
       d="m 95.666288,56.21714 c -1.3,-8.7 -8.7,-14.9 -17.1,-15.3 2.1,-7.8 7.2,-10.9 13.4,-12.7 0.6,-0.2 0.5,-0.8 0.5,-0.8 l -1,-6.2 c 0,0 -0.1,-0.5 -0.9,-0.4 -21.4,2.4 -35.9,18.7 -33.2,38.5 2.5,13.7 13.2,19 23.1,17.6 9.9,-1.6 16.7,-10.8 15.2,-20.7 l 0,0 z m -68.3,-15.3 c 2,-7.8 7.3,-10.9 13.4,-12.7 0.6,-0.2 0.5,-0.8 0.5,-0.8 l -0.9,-6.2 c 0,0 -0.1,-0.5 -0.9,-0.4 -21.4,2.3 -35.8000008,18.6 -33.3000008,38.4 2.6000001,13.8 13.4000008,19.1 23.2000008,17.7 9.9,-1.6 16.7,-10.8 15.1,-20.7 -1.3,-8.8 -8.6,-15 -17.1,-15.3 z"
       id="path3410" /><path
       id="path3402"
       d="M 94.8,57.3 C 93.5,48.6 86.1,42.4 77.7,42 c 2.1,-7.8 7.2,-10.9 13.4,-12.7 0.6,-0.2 0.5,-0.8 0.5,-0.8 l -1,-6.2 c 0,0 -0.1,-0.5 -0.9,-0.4 C 68.3,24.3 53.8,40.6 56.5,60.4 59,74.1 69.7,79.4 79.6,78 89.5,76.4 96.3,67.2 94.8,57.3 l 0,0 z M 26.5,42 c 2,-7.8 7.3,-10.9 13.4,-12.7 0.6,-0.2 0.5,-0.8 0.5,-0.8 l -0.9,-6.2 c 0,0 -0.1,-0.5 -0.9,-0.4 C 17.2,24.2 2.8,40.5 5.3,60.3 7.9,74.1 18.7,79.4 28.5,78 38.4,76.4 45.2,67.2 43.6,57.3 42.3,48.5 35,42.3 26.5,42 Z"
       inkscape:connector-curvature="0" /></g></svg>