<svg xmlns="http://www.w3.org/2000/svg" xmlns:xlink="http://www.w3.org/1999/xlink" version="1.1" x="0px" y="0px" viewBox="0 0 100 125" enable-background="new 0 0 100 100" xml:space="preserve"><path d="M49.824,93.565c-1.104,0-2-0.896-2-2c0,0,0.896-26.657,2-26.657s2,26.657,2,26.657  C51.824,92.67,50.929,93.565,49.824,93.565z M79.209,81.572c-0.512,0-1.023-0.195-1.414-0.586c0,0-18.197-19.464-17.416-20.245  s20.244,17.417,20.244,17.417c0.781,0.781,0.781,2.047,0,2.828C80.232,81.377,79.721,81.572,79.209,81.572z M20.428,81.209  c-0.512,0-1.023-0.195-1.414-0.586c-0.781-0.781-0.781-2.047,0-2.828c0,0,19.464-18.197,20.245-17.416S21.842,80.623,21.842,80.623  C21.451,81.014,20.939,81.209,20.428,81.209z M91.565,52.176c0,0-26.657-0.896-26.657-2s26.657-2,26.657-2c1.104,0,2,0.896,2,2  S92.67,52.176,91.565,52.176z M8.435,51.824c-1.104,0-2-0.896-2-2s0.896-2,2-2c0,0,26.657,0.896,26.657,2S8.435,51.824,8.435,51.824  z M60.741,39.621C59.96,38.84,78.158,19.377,78.158,19.377c0.781-0.781,2.047-0.781,2.828,0s0.781,2.047,0,2.828  C80.986,22.205,61.132,40.012,60.741,39.621z M19.377,21.842c-0.781-0.781-0.781-2.047,0-2.828s2.047-0.781,2.828,0  c0,0,18.197,19.464,17.416,20.245C39.23,39.649,19.377,21.842,19.377,21.842z M50.176,35.092c-1.104,0-2-26.657-2-26.657  c0-1.104,0.896-2,2-2s2,0.896,2,2C52.176,8.435,51.28,35.092,50.176,35.092z M67.044,94.187c-0.494,0-0.963-0.295-1.159-0.782  l-0.331-0.82c0-0.001-0.001-0.001-0.001-0.002l-0.733-1.813c-0.259-0.641,0.051-1.369,0.69-1.628c0.639-0.257,1.368,0.05,1.628,0.69  l0.734,1.816c0,0.002,0.001,0.003,0.002,0.005l0.329,0.816c0.259,0.641-0.051,1.368-0.691,1.627  C67.358,94.157,67.2,94.187,67.044,94.187z M31.689,93.665c-0.162,0-0.327-0.031-0.486-0.099c-0.636-0.27-0.933-1.004-0.664-1.639  l0.344-0.811c0.001-0.002,0.001-0.003,0.002-0.004l0.766-1.804c0.27-0.635,1.002-0.936,1.639-0.662  c0.636,0.27,0.932,1.003,0.662,1.639l-0.766,1.804c0,0.001,0,0.002-0.001,0.003l-0.343,0.81  C32.64,93.379,32.177,93.665,31.689,93.665z M64.753,88.518c-0.494,0-0.962-0.295-1.159-0.781l-1.084-2.682  c-0.259-0.641,0.051-1.369,0.69-1.628c0.637-0.257,1.368,0.05,1.628,0.69l1.084,2.682c0.259,0.641-0.051,1.369-0.69,1.628  C65.068,88.488,64.909,88.518,64.753,88.518z M34.077,88.036c-0.162,0-0.328-0.031-0.487-0.1c-0.636-0.27-0.932-1.003-0.662-1.639  l1.13-2.662c0.27-0.635,1-0.936,1.639-0.662c0.636,0.27,0.932,1.003,0.662,1.639l-1.13,2.662  C35.026,87.751,34.564,88.036,34.077,88.036z M62.427,82.765c-0.494,0-0.963-0.295-1.159-0.782L60.9,81.073  c-0.259-0.64,0.051-1.368,0.691-1.627c0.638-0.256,1.368,0.05,1.627,0.691l0.367,0.909c0.259,0.64-0.051,1.368-0.691,1.627  C62.741,82.735,62.583,82.765,62.427,82.765z M36.501,82.324c-0.162,0-0.328-0.031-0.487-0.1c-0.636-0.27-0.932-1.003-0.662-1.639  l0.383-0.902c0.27-0.635,1.002-0.937,1.639-0.662c0.636,0.27,0.932,1.003,0.662,1.639l-0.383,0.902  C37.45,82.039,36.988,82.324,36.501,82.324z M60.421,77.505c-0.494,0-0.962-0.295-1.159-0.781l-6.273-15.52  c-0.259-0.641,0.051-1.369,0.69-1.628c0.639-0.257,1.368,0.05,1.628,0.69l6.273,15.52c0.259,0.641-0.051,1.369-0.69,1.628  C60.736,77.476,60.577,77.505,60.421,77.505z M38.852,77.207c-0.162,0-0.328-0.031-0.487-0.1c-0.636-0.27-0.932-1.003-0.662-1.639  l6.546-15.426c0.27-0.635,1.001-0.936,1.639-0.662c0.636,0.27,0.932,1.003,0.662,1.639l-6.546,15.426  C39.801,76.922,39.339,77.207,38.852,77.207z M92.41,69.556c-0.162,0-0.327-0.031-0.486-0.099l-0.813-0.345  c-0.002-0.001-0.004-0.002-0.005-0.002l-1.8-0.765c-0.636-0.27-0.932-1.003-0.662-1.639c0.27-0.635,1-0.937,1.639-0.662l1.8,0.764  c0.001,0,0.002,0.001,0.003,0.001l0.813,0.345c0.636,0.27,0.933,1.004,0.664,1.639C93.36,69.27,92.897,69.556,92.41,69.556z   M7.06,68.298c-0.494,0-0.963-0.295-1.159-0.782c-0.259-0.641,0.051-1.368,0.691-1.627l0.816-0.329  c0.001-0.001,0.002-0.001,0.003-0.002l1.816-0.734c0.638-0.256,1.368,0.05,1.628,0.69c0.259,0.641-0.051,1.369-0.69,1.628  l-1.816,0.734c-0.001,0-0.002,0-0.003,0.001l-0.818,0.33C7.374,68.269,7.216,68.298,7.06,68.298z M86.781,67.168  c-0.162,0-0.328-0.031-0.487-0.1l-2.662-1.13c-0.636-0.27-0.932-1.003-0.662-1.639s1.002-0.936,1.639-0.662l2.662,1.13  c0.636,0.27,0.932,1.003,0.662,1.639C87.73,66.883,87.269,67.168,86.781,67.168z M12.729,66.007c-0.494,0-0.962-0.295-1.159-0.781  c-0.259-0.641,0.051-1.369,0.69-1.628l2.682-1.084c0.637-0.258,1.368,0.051,1.628,0.69c0.259,0.641-0.051,1.369-0.69,1.628  l-2.682,1.084C13.044,65.978,12.885,66.007,12.729,66.007z M81.069,64.744c-0.162,0-0.328-0.031-0.487-0.1l-0.902-0.383  c-0.636-0.27-0.932-1.003-0.662-1.639c0.27-0.635,1.001-0.936,1.639-0.662l0.902,0.383c0.636,0.27,0.932,1.003,0.662,1.639  C82.019,64.459,81.557,64.744,81.069,64.744z M18.482,63.681c-0.494,0-0.962-0.295-1.159-0.781c-0.259-0.641,0.051-1.369,0.69-1.628  l0.908-0.367c0.638-0.256,1.368,0.051,1.628,0.69c0.259,0.641-0.051,1.369-0.69,1.628l-0.908,0.367  C18.798,63.651,18.639,63.681,18.482,63.681z M75.952,62.394c-0.162,0-0.328-0.031-0.487-0.1l-15.426-6.545  c-0.636-0.27-0.932-1.003-0.662-1.639c0.27-0.635,1-0.936,1.639-0.662l15.426,6.545c0.636,0.27,0.932,1.003,0.662,1.639  C76.901,62.108,76.439,62.394,75.952,62.394z M23.741,61.675c-0.494,0-0.962-0.295-1.159-0.781c-0.259-0.641,0.051-1.369,0.69-1.628  l15.52-6.273c0.638-0.256,1.368,0.05,1.628,0.69c0.259,0.641-0.051,1.369-0.69,1.628l-15.52,6.273  C24.057,61.646,23.897,61.675,23.741,61.675z M49.821,56.601c-0.202,0-0.404-0.009-0.607-0.028c-0.765-0.071-1.499-0.273-2.186-0.6  c-0.624-0.296,3.873-1.951,4.525-2.265c0.624-0.3,1.369-0.038,1.668,0.584c0.3,0.622,0.038,1.369-0.584,1.668  C51.76,56.383,50.796,56.601,49.821,56.601z M44.937,53.425c-0.491,0-0.957-0.292-1.156-0.774c-0.627-1.524-0.654-3.214-0.076-4.758  c0.243-0.646,2.002,2.868,2.389,3.807c0.263,0.639-0.042,1.369-0.681,1.632C45.258,53.395,45.097,53.425,44.937,53.425z   M53.461,48.535c-0.282-0.63,0-1.369,0.63-1.651c0.63-0.281,1.368,0,1.651,0.63c0.705,1.572,0.76,3.328,0.156,4.943  C55.711,52.96,53.895,49.504,53.461,48.535z M60.731,47.099c-0.494,0-0.962-0.295-1.159-0.781c-0.259-0.641,0.051-1.369,0.69-1.628  l15.52-6.272c0.639-0.256,1.368,0.051,1.628,0.69c0.259,0.641-0.051,1.369-0.69,1.628L61.2,47.008  C61.046,47.069,60.888,47.099,60.731,47.099z M39.464,46.651c-0.162,0-0.328-0.031-0.487-0.1l-15.426-6.545  c-0.636-0.27-0.932-1.003-0.662-1.639c0.27-0.635,1-0.936,1.639-0.662l15.426,6.545c0.636,0.27,0.932,1.003,0.662,1.639  C40.413,46.366,39.951,46.651,39.464,46.651z M47.442,46.65c-0.455,0-0.895-0.25-1.115-0.684c-0.313-0.615-0.067-1.367,0.548-1.681  c1.095-0.557,2.315-0.794,3.554-0.676c0.715,0.066,1.406,0.249,2.057,0.54c0.63,0.282-3.804,2.021-4.478,2.364  C47.826,46.606,47.633,46.65,47.442,46.65z M54.594,40.719c-0.162,0-0.328-0.031-0.487-0.1c-0.636-0.27-0.932-1.003-0.662-1.639  l6.545-15.426c0.27-0.635,1-0.936,1.639-0.662c0.636,0.27,0.932,1.003,0.662,1.639l-6.545,15.426  C55.543,40.434,55.081,40.719,54.594,40.719z M45.845,40.515c-0.494,0-0.962-0.295-1.159-0.781l-6.272-15.52  c-0.259-0.641,0.051-1.369,0.69-1.628c0.637-0.256,1.368,0.05,1.628,0.69l6.272,15.52c0.259,0.641-0.051,1.369-0.69,1.628  C46.16,40.485,46.001,40.515,45.845,40.515z M80.602,39.187c-0.494,0-0.963-0.295-1.159-0.782c-0.259-0.64,0.051-1.368,0.691-1.627  l0.909-0.367c0.638-0.257,1.368,0.05,1.627,0.691c0.259,0.64-0.051,1.368-0.691,1.627l-0.909,0.367  C80.916,39.157,80.758,39.187,80.602,39.187z M19.824,38.139c-0.162,0-0.328-0.031-0.487-0.1l-0.902-0.383  c-0.636-0.27-0.932-1.003-0.662-1.639c0.27-0.635,1.001-0.937,1.639-0.662l0.902,0.383c0.636,0.27,0.932,1.003,0.662,1.639  C20.773,37.854,20.312,38.139,19.824,38.139z M84.582,37.577c-0.494,0-0.963-0.295-1.159-0.782c-0.259-0.64,0.051-1.368,0.691-1.627  l2.682-1.083c0.639-0.257,1.368,0.05,1.627,0.691c0.259,0.64-0.051,1.368-0.691,1.627l-2.682,1.083  C84.896,37.548,84.738,37.577,84.582,37.577z M15.871,36.462c-0.162,0-0.328-0.031-0.487-0.1l-2.662-1.13  c-0.636-0.27-0.932-1.003-0.662-1.639s1.001-0.936,1.639-0.662l2.662,1.13c0.636,0.27,0.932,1.003,0.662,1.639  C16.82,36.177,16.358,36.462,15.871,36.462z M90.296,35.268c-0.494,0-0.962-0.295-1.159-0.781c-0.259-0.641,0.051-1.369,0.69-1.628  l1.813-0.732c0.001-0.001,0.003-0.001,0.005-0.002l0.82-0.331c0.638-0.258,1.368,0.05,1.627,0.691  c0.259,0.641-0.051,1.368-0.691,1.627l-0.82,0.331c-0.001,0-0.001,0.001-0.002,0.001l-1.813,0.733  C90.611,35.238,90.452,35.268,90.296,35.268z M10.198,34.055c-0.162,0-0.328-0.031-0.487-0.1l-1.804-0.766H7.906l-0.813-0.344  c-0.636-0.27-0.933-1.003-0.664-1.639c0.27-0.636,1.001-0.934,1.639-0.664l0.813,0.345c0.001,0,0.002,0,0.003,0.001l1.804,0.766  c0.636,0.27,0.932,1.003,0.662,1.639C11.147,33.77,10.686,34.055,10.198,34.055z M63.106,21.078c-0.162,0-0.328-0.031-0.487-0.1  c-0.636-0.27-0.932-1.003-0.662-1.639l0.383-0.902c0.269-0.635,1.001-0.936,1.639-0.662c0.636,0.27,0.932,1.003,0.662,1.639  l-0.383,0.902C64.056,20.793,63.594,21.078,63.106,21.078z M38.065,21.072c-0.494,0-0.962-0.295-1.158-0.781l-0.368-0.909  c-0.26-0.64,0.049-1.368,0.689-1.627c0.638-0.26,1.369,0.049,1.627,0.689l0.368,0.909c0.26,0.64-0.049,1.368-0.689,1.627  C38.381,21.043,38.222,21.072,38.065,21.072z M64.783,17.126c-0.162,0-0.328-0.031-0.487-0.1c-0.636-0.27-0.932-1.003-0.662-1.639  l1.13-2.662c0.27-0.635,1.001-0.935,1.639-0.662c0.636,0.27,0.932,1.003,0.662,1.639l-1.13,2.662  C65.732,16.841,65.271,17.126,64.783,17.126z M36.456,17.092c-0.494,0-0.962-0.295-1.159-0.781l-1.084-2.682  c-0.259-0.641,0.051-1.369,0.69-1.628c0.638-0.256,1.368,0.05,1.628,0.69l1.084,2.682c0.259,0.641-0.051,1.369-0.69,1.628  C36.771,17.063,36.612,17.092,36.456,17.092z M67.19,11.452c-0.162,0-0.328-0.031-0.487-0.1c-0.636-0.27-0.932-1.003-0.662-1.639  l0.766-1.804c0-0.001,0-0.002,0.001-0.003l0.343-0.81c0.27-0.635,1-0.935,1.639-0.664c0.636,0.27,0.933,1.004,0.664,1.639  l-0.344,0.811c-0.001,0.002-0.001,0.003-0.002,0.004l-0.766,1.804C68.14,11.167,67.678,11.452,67.19,11.452z M34.146,11.377  c-0.494,0-0.962-0.295-1.159-0.781l-0.734-1.816c0-0.001,0-0.002-0.001-0.003l-0.33-0.816c-0.259-0.641,0.051-1.369,0.69-1.628  c0.643-0.258,1.368,0.051,1.628,0.69l0.33,0.817c0,0.001,0,0.001,0.001,0.002l0.734,1.816c0.259,0.641-0.051,1.369-0.69,1.628  C34.462,11.348,34.303,11.377,34.146,11.377z"/><text x="0" y="115" fill="#000000" font-size="5px" font-weight="bold" font-family="'Helvetica Neue', Helvetica, Arial-Unicode, Arial, Sans-serif">Created by Alberto Gongora</text><text x="0" y="120" fill="#000000" font-size="5px" font-weight="bold" font-family="'Helvetica Neue', Helvetica, Arial-Unicode, Arial, Sans-serif">from the Noun Project</text></svg>