<svg xmlns="http://www.w3.org/2000/svg" xmlns:xlink="http://www.w3.org/1999/xlink" version="1.1" x="0px" y="0px" viewBox="0 0 100 125" style="enable-background:new 0 0 100 100;" xml:space="preserve"><style type="text/css">
	.st0{display:none;}
	.st1{display:inline;opacity:0.3;fill:#FF00FF;enable-background:new    ;}
</style><g class="st0"><rect x="5" y="5" class="st1" width="90" height="90"/></g><g><g><path d="M94.6,40c-4.2,0-44.1,0-48.2,0c-0.2,0-0.3,0.3-0.3,0.4c-0.3,3.8-5.6,3.7-7,3.6c-0.2,0-0.1,0.2-0.1,0.4v12.9    c20,0,0.8,16.5-8.1,20.8c-0.4,0.2-0.5,0.9,0,0.9h20.8c0.1,0,0.1,0,0.1-0.1c0.1-1.1,1.4-9.1,7.8-9.1s8,8,8.1,9.1    c0,0.1,0.1,0.1,0.1,0.1h18.3c0.5,0,0.6-0.6,0.2-0.8c-4.3-2.6-16.5-10.3-14.6-19C73.7,50,86,47.5,89.1,47c0.4-0.1,0.9-0.4,0.9-0.9    V44h3.9c0.6,0,1.1-0.4,1.1-1v-2.4C95,40.4,94.8,40,94.6,40z"/><path d="M36,47H5.1c-0.2,0-0.3,0.2-0.2,0.4c1.7,2,8.5,9.9,31.1,9.9V47z"/></g><g><g><path d="M71.5,37.3c-0.2,0-0.5-0.1-0.7-0.3c-0.4-0.4-0.3-1,0-1.3l9.8-9.2c0.4-0.4,1-0.3,1.3,0c0.4,0.4,0.3,1,0,1.3L72.1,37     C71.9,37.2,71.7,37.3,71.5,37.3z"/></g><g><path d="M80.3,36.8c-0.4,0-0.7-0.2-0.9-0.6c-0.2-0.5,0.1-1,0.5-1.2l5.9-2.2c0.5-0.2,1,0.1,1.2,0.5c0.2,0.5-0.1,1-0.5,1.2     l-5.9,2.3C80.5,36.8,80.4,36.8,80.3,36.8z"/></g><g><path d="M58.6,34.4c-0.3,0-0.5-0.1-0.7-0.3l-9.4-11c-0.3-0.4-0.3-1,0.1-1.3c0.4-0.3,1-0.3,1.3,0.1l9.4,11c0.3,0.4,0.3,1-0.1,1.3     C59.1,34.3,58.8,34.4,58.6,34.4z"/></g><g><path d="M65.9,32.7c-0.1,0-0.2,0-0.3,0c-0.5-0.2-0.7-0.7-0.6-1.2l2-5.9c0.2-0.5,0.7-0.7,1.2-0.6c0.5,0.2,0.7,0.7,0.6,1.2l-2,5.9     C66.7,32.5,66.3,32.7,65.9,32.7z"/></g><g><path d="M51.6,36.7c-0.1,0-0.3,0-0.4-0.1l-5.5-2.9c-0.5-0.2-0.6-0.8-0.4-1.3c0.2-0.5,0.8-0.6,1.3-0.4l5.4,3     c0.5,0.2,0.6,0.8,0.4,1.3C52.2,36.5,51.9,36.7,51.6,36.7z"/></g><g><path d="M61.7,28.9c-0.4,0-0.8-0.3-0.9-0.7l-1.5-5.1c-0.1-0.5,0.1-1,0.6-1.2c0.5-0.1,1,0.1,1.2,0.6l1.5,5.1     c0.1,0.5-0.1,1-0.6,1.2C61.9,28.9,61.8,28.9,61.7,28.9z"/></g></g></g><text x="0" y="115" fill="#000000" font-size="5px" font-weight="bold" font-family="'Helvetica Neue', Helvetica, Arial-Unicode, Arial, Sans-serif">Created by Ronald Cortez</text><text x="0" y="120" fill="#000000" font-size="5px" font-weight="bold" font-family="'Helvetica Neue', Helvetica, Arial-Unicode, Arial, Sans-serif">from the Noun Project</text></svg>