<?xml version="1.0" encoding="UTF-8" standalone="no"?>
<!-- Created with Inkscape (http://www.inkscape.org/) -->

<svg
   xmlns:dc="http://purl.org/dc/elements/1.1/"
   xmlns:cc="http://creativecommons.org/ns#"
   xmlns:rdf="http://www.w3.org/1999/02/22-rdf-syntax-ns#"
   xmlns:svg="http://www.w3.org/2000/svg"
   xmlns="http://www.w3.org/2000/svg"
   xmlns:sodipodi="http://sodipodi.sourceforge.net/DTD/sodipodi-0.dtd"
   xmlns:inkscape="http://www.inkscape.org/namespaces/inkscape"
   id="svg3336"
   version="1.1"
   inkscape:version="0.92.2 5c3e80d, 2017-08-06"
   width="755.90552"
   height="566.92914"
   viewBox="0 0 755.90552 566.92914"
   sodipodi:docname="pictolaser.svg"
   inkscape:export-filename="/Users/fabio/ownCloud/1-Admin/GitHub/lf2l.github.io/assets/images/6-info/tutorials/laser.png"
   inkscape:export-xdpi="50.799999"
   inkscape:export-ydpi="50.799999">
  <metadata
     id="metadata3342">
    <rdf:RDF>
      <cc:Work
         rdf:about="">
        <dc:format>image/svg+xml</dc:format>
        <dc:type
           rdf:resource="http://purl.org/dc/dcmitype/StillImage" />
        <dc:title></dc:title>
      </cc:Work>
    </rdf:RDF>
  </metadata>
  <defs
     id="defs3340" />
  <sodipodi:namedview
     pagecolor="#ffffff"
     bordercolor="#666666"
     borderopacity="1"
     objecttolerance="10"
     gridtolerance="10"
     guidetolerance="10"
     inkscape:pageopacity="0"
     inkscape:pageshadow="2"
     inkscape:window-width="1920"
     inkscape:window-height="1003"
     id="namedview3338"
     showgrid="false"
     inkscape:zoom="0.2712"
     inkscape:cx="243.66191"
     inkscape:cy="637.08005"
     inkscape:window-x="-9"
     inkscape:window-y="-9"
     inkscape:window-maximized="1"
     inkscape:current-layer="svg3336"
     fit-margin-top="0"
     fit-margin-left="0"
     fit-margin-right="0"
     fit-margin-bottom="0" />
  <rect
     style="opacity:1;fill:#f2f3f3;fill-opacity:1;stroke:#ffffff;stroke-width:1.99999988;stroke-linecap:round;stroke-linejoin:round;stroke-miterlimit:4;stroke-dasharray:none;stroke-dashoffset:0;stroke-opacity:1"
     id="rect18"
     width="753.90552"
     height="564.92914"
     x="0.99999994"
     y="0.99999994"
     ry="3.5682564" />
  <path
     style="fill:#8d5fd3"
     d=""
     id="path3362"
     inkscape:connector-curvature="0" />
  <path
     style="fill:#8d5fd3"
     d=""
     id="path3372"
     inkscape:connector-curvature="0" />
  <path
     style="fill:#8d5fd3"
     d=""
     id="path3392"
     inkscape:connector-curvature="0" />
  <g
     id="g28"
     transform="translate(-335.02742,-222.88612)">
    <path
       sodipodi:nodetypes="sssssssssscsccs"
       inkscape:connector-curvature="0"
       id="path3346"
       d="m 695.16729,706.00852 c -9.82391,-4.01358 -60.0127,-27.86282 -58.9061,-28.96942 0.37236,-0.37236 7.636,1.55743 16.14144,4.28842 8.50544,2.73098 16.53714,4.73167 17.84822,4.44597 1.72912,-0.3768 -3.38248,-9.17116 -18.61234,-32.02198 -11.54787,-17.32639 -20.7343,-31.76435 -20.41428,-32.08437 0.32002,-0.32002 12.73957,11.59078 27.59901,26.46844 14.85944,14.87766 27.81403,27.05029 28.78797,27.05029 1.08099,0 2.12925,-4.37455 2.69097,-11.22986 0.50609,-6.17643 1.39742,-16.80607 1.98073,-23.62144 l 1.06057,-12.39157 2.07884,12.39157 c 1.14336,6.81537 3.85291,21.30949 6.02123,32.20916 2.55712,12.70607 4.65698,24.65095 5.20796,38.1567 z"
       style="fill:#8d5fd3" />
    <path
       inkscape:connector-curvature="0"
       id="path3348"
       d="m 710.60094,665.11772 c -1.70123,-20.30438 -1.3167,-121.50743 0.51203,-134.75836 1.28226,-9.29126 1.28297,-9.28883 2.71824,9.29368 1.70144,22.02864 1.34322,114.26823 -0.50832,130.88599 l -1.29436,11.6171 z"
       style="fill:#8d5fd3" />
    <path
       sodipodi:nodetypes="ccssscscssssscc"
       inkscape:connector-curvature="0"
       id="path3350"
       d="m 730.63544,648.12628 3.34969,-17.81288 2.11612,23.2342 c 1.16386,12.77881 2.47648,23.58271 2.91692,24.00867 0.44045,0.42596 13.62316,-12.46902 29.29491,-28.65551 15.67175,-16.1865 28.495,-28.85737 28.49611,-28.1575 0.001,0.69987 -5.0884,9.06418 -11.31002,18.58736 -25.89575,39.63755 -30.85954,47.68562 -29.96357,48.5816 0.51823,0.51822 7.96565,-1.32803 16.54983,-4.10279 8.58418,-2.77477 16.01783,-4.6348 16.51921,-4.13342 0.50138,0.50138 -0.40939,1.44935 -2.02394,2.10659 -1.61454,0.65724 -11.64836,5.846 -22.29737,11.53057 -10.64901,5.68457 -23.54399,11.73536 -28.65551,13.44619 -5.11153,1.71084 -14.85013,4.93393 -16.2867,5.4891 0.82882,-19.37641 10.07971,-57.63792 11.29432,-64.12218 z"
       style="fill:#8d5fd3" />
    <path
       inkscape:connector-curvature="0"
       id="path3354"
       d="m 673.86927,472.39424 -27.49381,-27.64057 v -83.82355 -83.82355 h 68.15366 68.15366 v 82.73004 82.73004 l -28.41614,28.79412 -28.41615,28.79412 -12.24371,-0.06 -12.24371,-0.0601 -27.4938,-27.64056 z"
       style="fill:#000000" />
    <path
       inkscape:connector-curvature="0"
       id="path3356"
       d="m 561.1834,727.85006 v -7.74473 h 74.34944 74.34944 v 7.74473 7.74474 H 635.53284 561.1834 Z"
       style="fill:#000000" />
    <path
       inkscape:connector-curvature="0"
       id="path3358"
       d="m 716.07807,727.85006 v -7.74473 h 74.34944 74.34944 v 7.74473 7.74474 h -74.34944 -74.34944 z"
       style="fill:#000000" />
    <path
       inkscape:connector-curvature="0"
       id="path3394"
       d="m 763.38549,684.80163 c 0.091,-0.091 0.32716,-0.10072 0.52482,-0.0216 0.21843,0.0874 0.15355,0.1523 -0.16543,0.16543 -0.28865,0.0119 -0.45037,-0.0528 -0.35939,-0.14381 z"
       style="fill:#8d5fd3" />
    <path
       inkscape:connector-curvature="0"
       id="path3408"
       d="m 766.59715,683.76418 c 0,-0.0592 0.18482,-0.17854 0.41072,-0.26523 0.2259,-0.0867 0.41073,-0.0383 0.41073,0.10762 0,0.14587 -0.18483,0.26522 -0.41073,0.26522 -0.2259,0 -0.41072,-0.0484 -0.41072,-0.10761 z"
       style="fill:#8d5fd3" />
  </g>
  <path
     style="fill:#8d5fd3"
     d=""
     id="path3410"
     inkscape:connector-curvature="0" />
</svg>
