<svg xmlns="http://www.w3.org/2000/svg" xmlns:xlink="http://www.w3.org/1999/xlink" version="1.1" x="0px" y="0px" viewBox="0 0 48 60" enable-background="new 0 0 48 48" xml:space="preserve"><path fill="#000000" d="M47.5,24c0-0.8-0.7-1.5-1.5-1.5h-1.3l2.4-2.4c0.6-0.6,0.6-1.5,0-2.1s-1.5-0.6-2.1,0l-4.1,4.1  c-0.2,0.2-0.6,0.4-0.9,0.4H28.4c-0.3,0-0.4-0.4-0.2-0.6l8.1-8.1c0.2-0.2,0.6-0.4,0.9-0.4h5.9c0.8,0,1.5-0.7,1.5-1.5  s-0.7-1.5-1.5-1.5h-3.4l0.9-0.9c0.6-0.6,0.6-1.5,0-2.1s-1.5-0.6-2.1,0l-0.9,0.9V4.9c0-0.8-0.7-1.5-1.5-1.5s-1.5,0.7-1.5,1.5v5.9  c0,0.3-0.1,0.7-0.4,0.9l-8.1,8.1c-0.2,0.2-0.6,0.1-0.6-0.2V8.1c0-0.3,0.1-0.7,0.4-0.9L30,3.1c0.6-0.6,0.6-1.5,0-2.1s-1.5-0.6-2.1,0  l-2.4,2.4V2c0-0.8-0.7-1.5-1.5-1.5S22.5,1.2,22.5,2v1.3l-2.4-2.4c-0.6-0.6-1.5-0.6-2.1,0s-0.6,1.5,0,2.1l4.1,4.1  c0.2,0.2,0.4,0.6,0.4,0.9v11.5c0,0.3-0.4,0.4-0.6,0.2l-8.1-8.1c-0.2-0.2-0.4-0.6-0.4-0.9V4.9c0-0.8-0.7-1.5-1.5-1.5  s-1.5,0.7-1.5,1.5v3.4L9.5,7.4C8.9,6.8,8,6.8,7.4,7.4s-0.6,1.5,0,2.1l0.9,0.9H4.9c-0.8,0-1.5,0.7-1.5,1.5s0.7,1.5,1.5,1.5h5.9  c0.3,0,0.7,0.1,0.9,0.4l8.1,8.1c0.2,0.2,0.1,0.6-0.2,0.6H8.1c-0.3,0-0.7-0.1-0.9-0.4L3.1,18c-0.6-0.6-1.5-0.6-2.1,0s-0.6,1.5,0,2.1  l2.4,2.4H2c-0.8,0-1.5,0.7-1.5,1.5s0.7,1.5,1.5,1.5h1.3L1,27.8c-0.6,0.6-0.7,1.5-0.2,2.1c0.3,0.4,0.7,0.5,1.1,0.5  c0.4,0,0.8-0.1,1.1-0.4l4.1-4.1c0.2-0.2,0.6-0.4,0.9-0.4h11.5c0.3,0,0.4,0.4,0.2,0.6l-8.1,8.1c-0.2,0.2-0.6,0.4-0.9,0.4H4.9  c-0.8,0-1.5,0.7-1.5,1.5s0.7,1.5,1.5,1.5h3.4l-0.9,0.9c-0.6,0.6-0.7,1.5-0.2,2.1c0.3,0.4,0.7,0.5,1.1,0.5c0.4,0,0.8-0.1,1.1-0.4  l0.9-0.9v3.4c0,0.8,0.7,1.5,1.5,1.5s1.5-0.7,1.5-1.5v-5.9c0-0.3,0.1-0.7,0.4-0.9l8.1-8.1c0.2-0.2,0.6-0.1,0.6,0.2v11.5  c0,0.3-0.1,0.7-0.4,0.9L18,44.9c-0.6,0.6-0.6,1.5,0,2.1s1.5,0.6,2.1,0l2.4-2.4V46c0,0.8,0.7,1.5,1.5,1.5s1.5-0.7,1.5-1.5v-1.3  l2.4,2.4c0.3,0.3,0.7,0.4,1.1,0.4c0.4,0,0.8-0.2,1.1-0.5c0.5-0.6,0.4-1.5-0.2-2.1l-4.1-4.1c-0.2-0.2-0.4-0.6-0.4-0.9V28.4  c0-0.3,0.4-0.4,0.6-0.2l8.1,8.1c0.2,0.2,0.4,0.6,0.4,0.9v5.9c0,0.8,0.7,1.5,1.5,1.5s1.5-0.7,1.5-1.5v-3.4l0.9,0.9  c0.3,0.3,0.7,0.4,1.1,0.4c0.4,0,0.8-0.2,1.1-0.5c0.5-0.6,0.4-1.5-0.2-2.1l-0.9-0.9h3.4c0.8,0,1.5-0.7,1.5-1.5s-0.7-1.5-1.5-1.5h-5.9  c-0.3,0-0.7-0.1-0.9-0.4l-8.1-8.1c-0.2-0.2-0.1-0.6,0.2-0.6h11.5c0.3,0,0.7,0.1,0.9,0.4l4.1,4.1c0.3,0.3,0.7,0.4,1.1,0.4  c0.4,0,0.8-0.2,1.1-0.5c0.5-0.6,0.4-1.5-0.2-2.1l-2.3-2.3H46C46.8,25.5,47.5,24.8,47.5,24z"/><text x="0" y="63" fill="#000000" font-size="5px" font-weight="bold" font-family="'Helvetica Neue', Helvetica, Arial-Unicode, Arial, Sans-serif">Created by Creative Stall</text><text x="0" y="68" fill="#000000" font-size="5px" font-weight="bold" font-family="'Helvetica Neue', Helvetica, Arial-Unicode, Arial, Sans-serif">from the Noun Project</text></svg>