<svg xmlns="http://www.w3.org/2000/svg" xmlns:sodipodi="http://sodipodi.sourceforge.net/DTD/sodipodi-0.dtd" viewBox="0 0 100 125" x="0px" y="0px"><path d="m 65.763293,75.681484 c 0,0.953524 -0.772983,1.726508 -1.726508,1.726508 -0.953525,0 -1.726508,-0.772984 -1.726508,-1.726508 0,-0.953524 0.772983,-1.726508 1.726508,-1.726508 0.953525,0 1.726508,0.772984 1.726508,1.726508 z" color="#000"/><path d="m 50.92352,79.558719 c 0,0.953524 -0.772984,1.726508 -1.726508,1.726508 -0.953525,0 -1.726508,-0.772984 -1.726508,-1.726508 0,-0.953524 0.772983,-1.726509 1.726508,-1.726509 0.953524,0 1.726508,0.772985 1.726508,1.726509 z" color="#000"/><path d="m 60.647822,62.037569 c 0,0.953524 -0.772983,1.726508 -1.726508,1.726508 -0.953524,0 -1.726508,-0.772984 -1.726508,-1.726508 0,-0.953523 0.772984,-1.726508 1.726508,-1.726508 0.953525,0 1.726508,0.772985 1.726508,1.726508 z" color="#000"/><path d="m 44.151837,58.775304 c 0,0.953524 -0.772983,1.726508 -1.726508,1.726508 -0.953523,0 -1.726508,-0.772984 -1.726508,-1.726508 0,-0.953524 0.772984,-1.726508 1.726508,-1.726508 0.953525,0 1.726508,0.772984 1.726508,1.726508 z" color="#000"/><path d="m 38.583134,29.977228 c 0,0.953525 -0.772983,1.726508 -1.726509,1.726508 -0.953524,0 -1.726508,-0.772983 -1.726508,-1.726508 0,-0.953523 0.772984,-1.726508 1.726508,-1.726508 0.953526,0 1.726509,0.772985 1.726509,1.726508 z" color="#000"/><path d="m 59.183958,22.605135 c 0,0.953526 -0.772983,1.726508 -1.726508,1.726508 -0.953525,0 -1.726508,-0.772982 -1.726508,-1.726508 0,-0.953522 0.772983,-1.726508 1.726508,-1.726508 0.953525,0 1.726508,0.772986 1.726508,1.726508 z" color="#000"/><path d="m 81.680427,18.719256 c 0,0.953524 -0.772984,1.726508 -1.726508,1.726508 -0.953525,0 -1.726508,-0.772984 -1.726508,-1.726508 0,-0.953523 0.772983,-1.726507 1.726508,-1.726507 0.953524,0 1.726508,0.772984 1.726508,1.726507 z" color="#000"/><path d="m 46.532188,19.468049 c 0,0.953524 -0.772984,1.726508 -1.726508,1.726508 -0.953525,0 -1.726507,-0.772984 -1.726507,-1.726508 0,-0.953524 0.772982,-1.726508 1.726507,-1.726508 0.953524,0 1.726508,0.772984 1.726508,1.726508 z" color="#000"/><path d="m 24.913882,76.445204 c 0,0.953524 -0.772983,1.726508 -1.726508,1.726508 -0.953524,0 -1.726508,-0.772984 -1.726508,-1.726508 0,-0.953524 0.772984,-1.726507 1.726508,-1.726507 0.953525,0 1.726508,0.772983 1.726508,1.726507 z" color="#000"/><path d="m 74.922122,59.957956 c 0,0.953524 -0.772984,1.726508 -1.726508,1.726508 -0.953524,0 -1.726508,-0.772984 -1.726508,-1.726508 0,-0.953523 0.772984,-1.726508 1.726508,-1.726508 0.953524,0 1.726508,0.772985 1.726508,1.726508 z" color="#000"/><path d="m 19.61012,67.900586 c 0,0.953524 -0.772983,1.726508 -1.726508,1.726508 -0.953525,0 -1.726508,-0.772984 -1.726508,-1.726508 0,-0.953524 0.772983,-1.726508 1.726508,-1.726508 0.953525,0 1.726508,0.772984 1.726508,1.726508 z" color="#000"/><path d="m 50.160444,66.601517 c 0,0.953525 -0.772984,1.726508 -1.726508,1.726508 -0.953524,0 -1.726508,-0.772983 -1.726508,-1.726508 0,-0.953523 0.772984,-1.726508 1.726508,-1.726508 0.953524,0 1.726508,0.772985 1.726508,1.726508 z" color="#000"/><path d="m 15.359869,47.013517 c 0,0.953525 -0.772984,1.726508 -1.726509,1.726508 -0.953524,0 -1.726508,-0.772983 -1.726508,-1.726508 0,-0.953523 0.772984,-1.726508 1.726508,-1.726508 0.953525,0 1.726509,0.772985 1.726509,1.726508 z" color="#000"/><path d="m 22.197602,41.553322 c 0,0.953525 -0.772984,1.726508 -1.726508,1.726508 -0.953525,0 -1.726508,-0.772983 -1.726508,-1.726508 0,-0.953523 0.772983,-1.726508 1.726508,-1.726508 0.953524,0 1.726508,0.772985 1.726508,1.726508 z" color="#000"/><path d="m 59.528701,49.882143 c 0,0.953524 -0.772984,1.726508 -1.726508,1.726508 -0.953525,0 -1.726508,-0.772984 -1.726508,-1.726508 0,-0.953524 0.772983,-1.726508 1.726508,-1.726508 0.953524,0 1.726508,0.772984 1.726508,1.726508 z" color="#000"/><path d="m 87.293485,52.710375 c 0,0.953525 -0.772984,1.726508 -1.726508,1.726508 -0.953525,0 -1.726508,-0.772983 -1.726508,-1.726508 0,-0.953523 0.772983,-1.726508 1.726508,-1.726508 0.953524,0 1.726508,0.772985 1.726508,1.726508 z" color="#000"/><path d="m 68.63499,46.510648 c 0,0.953524 -0.772984,1.726508 -1.726508,1.726508 -0.953525,0 -1.726508,-0.772984 -1.726508,-1.726508 0,-0.953524 0.772983,-1.726508 1.726508,-1.726508 0.953524,0 1.726508,0.772984 1.726508,1.726508 z" color="#000"/><path d="m 28.581237,47.258775 c 0,0.953525 -0.772983,1.726508 -1.726508,1.726508 -0.953523,0 -1.726508,-0.772983 -1.726508,-1.726508 0,-0.953523 0.772985,-1.726508 1.726508,-1.726508 0.953525,0 1.726508,0.772985 1.726508,1.726508 z" color="#000"/><path d="m 53.626832,43.592949 c 0,0.953523 -0.772984,1.726507 -1.726508,1.726507 -0.953524,0 -1.726508,-0.772984 -1.726508,-1.726507 0,-0.953524 0.772984,-1.726508 1.726508,-1.726508 0.953524,0 1.726508,0.772984 1.726508,1.726508 z" color="#000"/><path d="m 87.94185,31.465179 c 0,0.953524 -0.772984,1.726508 -1.726508,1.726508 -0.953525,0 -1.726508,-0.772984 -1.726508,-1.726508 0,-0.953524 0.772983,-1.726509 1.726508,-1.726509 0.953524,0 1.726508,0.772985 1.726508,1.726509 z" color="#000"/><path d="m 81.079112,36.358184 c 0,0.953525 -0.772984,1.726508 -1.726509,1.726508 -0.953524,0 -1.726508,-0.772983 -1.726508,-1.726508 0,-0.953523 0.772984,-1.726508 1.726508,-1.726508 0.953525,0 1.726509,0.772985 1.726509,1.726508 z" color="#000"/><path d="m 71.111622,36.353851 c 0,0.953524 -0.772983,1.726508 -1.726508,1.726508 -0.953524,0 -1.726508,-0.772984 -1.726508,-1.726508 0,-0.953524 0.772984,-1.726508 1.726508,-1.726508 0.953525,0 1.726508,0.772984 1.726508,1.726508 z" color="#000"/><path d="m 55.210515,31.710467 c 0,0.953524 -0.772983,1.726508 -1.726508,1.726508 -0.953523,0 -1.726508,-0.772984 -1.726508,-1.726508 0,-0.953524 0.772985,-1.726508 1.726508,-1.726508 0.953525,0 1.726508,0.772984 1.726508,1.726508 z" color="#000"/><path d="m 28.595551,65.624296 c 0,1.191905 -0.966232,2.158135 -2.158135,2.158135 -1.191903,0 -2.158135,-0.96623 -2.158135,-2.158135 0,-1.191905 0.966232,-2.158135 2.158135,-2.158135 1.191903,0 2.158135,0.96623 2.158135,2.158135 z" color="#000"/><path d="m 39.210104,68.136418 c 0,1.191906 -0.966231,2.158135 -2.158135,2.158135 -1.191903,0 -2.158135,-0.966229 -2.158135,-2.158135 0,-1.191904 0.966232,-2.158135 2.158135,-2.158135 1.191904,0 2.158135,0.966231 2.158135,2.158135 z" color="#000"/><path d="m 53.422718,57.364921 c 0,1.191905 -0.96623,2.158135 -2.158135,2.158135 -1.191905,0 -2.158135,-0.96623 -2.158135,-2.158135 0,-1.191904 0.96623,-2.158135 2.158135,-2.158135 1.191905,0 2.158135,0.966231 2.158135,2.158135 z" color="#000"/><path d="m 58.702143,71.9048 c 0,1.430285 -1.159476,2.589761 -2.589762,2.589761 -1.430286,0 -2.589762,-1.159476 -2.589762,-2.589761 0,-1.430286 1.159476,-2.589763 2.589762,-2.589763 1.430286,0 2.589762,1.159477 2.589762,2.589763 z" color="#000"/><path d="m 34.02004,55.102116 c 0,1.430285 -1.159476,2.589761 -2.589762,2.589761 -1.430286,0 -2.589762,-1.159476 -2.589762,-2.589761 0,-1.430287 1.159476,-2.589763 2.589762,-2.589763 1.430286,0 2.589762,1.159476 2.589762,2.589763 z" color="#000"/><path d="m 77.89244,50.922303 c 0,1.191905 -0.966233,2.158135 -2.158135,2.158135 -1.191904,0 -2.158135,-0.96623 -2.158135,-2.158135 0,-1.191905 0.966231,-2.158135 2.158135,-2.158135 1.191902,0 2.158135,0.96623 2.158135,2.158135 z" color="#000"/><path d="m 38.473119,43.516358 c 0,1.191906 -0.96623,2.158135 -2.158136,2.158135 -1.191905,0 -2.158135,-0.966229 -2.158135,-2.158135 0,-1.191904 0.96623,-2.158135 2.158135,-2.158135 1.191906,0 2.158136,0.966231 2.158136,2.158135 z" color="#000"/><path d="m 47.614472,48.907565 c 0,1.430284 -1.159471,2.589762 -2.589762,2.589762 -1.430283,0 -2.589762,-1.159477 -2.589762,-2.589762 0,-1.430286 1.159479,-2.589763 2.589762,-2.589763 1.430291,0 2.589762,1.159477 2.589762,2.589763 z" color="#000"/><path d="m 67.041998,55.406992 c 0,1.430285 -1.159477,2.589761 -2.589762,2.589761 -1.430286,0 -2.589762,-1.159476 -2.589762,-2.589761 0,-1.430287 1.159476,-2.589763 2.589762,-2.589763 1.430285,0 2.589762,1.159476 2.589762,2.589763 z" color="#000"/><path d="m 47.037475,35.681085 c 0,1.430285 -1.15948,2.589761 -2.589762,2.589761 -1.430282,0 -2.589762,-1.159476 -2.589762,-2.589761 0,-1.430287 1.15948,-2.589763 2.589762,-2.589763 1.430282,0 2.589762,1.159476 2.589762,2.589763 z" color="#000"/><path d="m 63.092661,39.341076 c 0,1.430285 -1.159471,2.589761 -2.589762,2.589761 -1.430283,0 -2.589763,-1.159476 -2.589763,-2.589761 0,-1.430287 1.15948,-2.589763 2.589763,-2.589763 1.430291,0 2.589762,1.159476 2.589762,2.589763 z" color="#000"/><path d="m 65.232237,30.508068 c 0,1.191905 -0.966232,2.158135 -2.158136,2.158135 -1.191912,0 -2.158135,-0.96623 -2.158135,-2.158135 0,-1.191904 0.966223,-2.158135 2.158135,-2.158135 1.191904,0 2.158136,0.966231 2.158136,2.158135 z" color="#000"/><path d="m 76.916661,28.29241 c 0,1.191905 -0.966231,2.158135 -2.158135,2.158135 -1.191903,0 -2.158135,-0.96623 -2.158135,-2.158135 0,-1.191904 0.966232,-2.158135 2.158135,-2.158135 1.191904,0 2.158135,0.966231 2.158135,2.158135 z" color="#000"/><path d="m 20.485649,85.463855 c 0,0.715143 -0.579738,1.294881 -1.294881,1.294881 -0.715143,0 -1.294881,-0.579738 -1.294881,-1.294881 0,-0.715143 0.579738,-1.294881 1.294881,-1.294881 0.715143,0 1.294881,0.579738 1.294881,1.294881 z" color="#000"/><path d="m 48.640459,26.791204 c 0,0.476763 -0.386492,0.863254 -0.863254,0.863254 -0.476762,0 -0.863254,-0.386491 -0.863254,-0.863254 0,-0.476762 0.386492,-0.863254 0.863254,-0.863254 0.476762,0 0.863254,0.386492 0.863254,0.863254 z" color="#000"/><path d="m 22.443923,56.267766 c 0,0.715143 -0.579738,1.294881 -1.294881,1.294881 -0.715143,0 -1.294881,-0.579738 -1.294881,-1.294881 0,-0.715143 0.579738,-1.294881 1.294881,-1.294881 0.715143,0 1.294881,0.579738 1.294881,1.294881 z" color="#000"/><path d="m 13.035473,60.793966 c 0,0.476763 -0.386493,0.863254 -0.863254,0.863254 -0.476762,0 -0.863254,-0.386491 -0.863254,-0.863254 0,-0.476762 0.386492,-0.863254 0.863254,-0.863254 0.476761,0 0.863254,0.386492 0.863254,0.863254 z" color="#000"/><path d="m 73.666397,80.883914 c 0,0.715143 -0.579738,1.294881 -1.294881,1.294881 -0.715143,0 -1.294881,-0.579738 -1.294881,-1.294881 0,-0.715143 0.579738,-1.294881 1.294881,-1.294881 0.715143,0 1.294881,0.579738 1.294881,1.294881 z" color="#000"/><path d="m 34.883832,23.101388 c 0,0.476762 -0.386492,0.863254 -0.863254,0.863254 -0.476762,0 -0.863254,-0.386492 -0.863254,-0.863254 0,-0.476762 0.386492,-0.863254 0.863254,-0.863254 0.476762,0 0.863254,0.386492 0.863254,0.863254 z" color="#000"/><path d="m 38.417461,15.370738 c 0,0.715143 -0.579738,1.294881 -1.294881,1.294881 -0.715143,0 -1.294881,-0.579738 -1.294881,-1.294881 0,-0.715143 0.579738,-1.294881 1.294881,-1.294881 0.715143,0 1.294881,0.579738 1.294881,1.294881 z" color="#000"/><path d="m 38.622356,52.119451 c 0,0.476763 -0.386492,0.863254 -0.863254,0.863254 -0.476762,0 -0.863254,-0.386491 -0.863254,-0.863254 0,-0.476762 0.386492,-0.863254 0.863254,-0.863254 0.476762,0 0.863254,0.386492 0.863254,0.863254 z" color="#000"/><path d="m 87.782917,63.113469 c 0,0.715143 -0.579735,1.294881 -1.294881,1.294881 -0.715136,0 -1.294881,-0.579738 -1.294881,-1.294881 0,-0.715143 0.579745,-1.294881 1.294881,-1.294881 0.715146,0 1.294881,0.579738 1.294881,1.294881 z" color="#000"/><path d="m 83.152945,25.213334 c 0,0.476762 -0.386496,0.863254 -0.863254,0.863254 -0.476767,0 -0.863254,-0.386492 -0.863254,-0.863254 0,-0.476762 0.386487,-0.863254 0.863254,-0.863254 0.476758,0 0.863254,0.386492 0.863254,0.863254 z" color="#000"/><path d="m 63.187278,13.032061 c 0,0.715143 -0.579735,1.294881 -1.294881,1.294881 -0.715137,0 -1.294881,-0.579738 -1.294881,-1.294881 0,-0.715143 0.579744,-1.294881 1.294881,-1.294881 0.715146,0 1.294881,0.579738 1.294881,1.294881 z" color="#000"/><path d="m 68.376877,24.857284 c 0,0.476762 -0.386496,0.863254 -0.863254,0.863254 -0.476767,0 -0.863254,-0.386492 -0.863254,-0.863254 0,-0.476762 0.386487,-0.863254 0.863254,-0.863254 0.476758,0 0.863254,0.386492 0.863254,0.863254 z" color="#000"/><path d="m 13.469619,34.977835 c 0,0.715143 -0.579744,1.294881 -1.294881,1.294881 -0.715145,0 -1.294881,-0.579738 -1.294881,-1.294881 0,-0.715143 0.579736,-1.294881 1.294881,-1.294881 0.715137,0 1.294881,0.579738 1.294881,1.294881 z" color="#000"/><path d="m 157.50272,52.590532 c 0,0.552285 -0.44771,1 -1,1 -0.55228,0 -1,-0.447715 -1,-1 0,-0.552285 0.44772,-1 1,-1 0.55229,0 1,0.447715 1,1 z" fill="#000000" color="#000"/><path d="m 69.547474,67.022323 c 0,0.715143 -0.579744,1.294881 -1.294881,1.294881 -0.715145,0 -1.294881,-0.579738 -1.294881,-1.294881 0,-0.715143 0.579736,-1.294881 1.294881,-1.294881 0.715137,0 1.294881,0.579738 1.294881,1.294881 z" color="#000"/><path d="m 83.816336,44.488733 c 0,0.476762 -0.386497,0.863254 -0.863255,0.863254 -0.476757,0 -0.863254,-0.386492 -0.863254,-0.863254 0,-0.476762 0.386497,-0.863254 0.863254,-0.863254 0.476758,0 0.863255,0.386492 0.863255,0.863254 z" color="#000"/><path d="M 54.280995,87.705119 C 54.280995,88.420262 53.70126,89 52.986114,89 c -0.715137,0 -1.294881,-0.579738 -1.294881,-1.294881 0,-0.715144 0.579744,-1.294882 1.294881,-1.294882 0.715146,0 1.294881,0.579738 1.294881,1.294882 z" color="#000"/><path d="m 20.305109,49.505336 c 0,0.476762 -0.386496,0.863254 -0.863254,0.863254 -0.476767,0 -0.863254,-0.386492 -0.863254,-0.863254 0,-0.476762 0.386487,-0.863255 0.863254,-0.863255 0.476758,0 0.863254,0.386493 0.863254,0.863255 z" color="#000"/><path d="m 95,47.164141 c 0,0.715143 -0.579744,1.294881 -1.294877,1.294881 -0.715146,0 -1.294881,-0.579738 -1.294881,-1.294881 0,-0.715143 0.579735,-1.294881 1.294881,-1.294881 0.715133,0 1.294877,0.579738 1.294877,1.294881 z" color="#000"/><path d="m 31.11592,73.765433 c 0,0.476762 -0.386488,0.863254 -0.863254,0.863254 -0.476758,0 -0.863254,-0.386492 -0.863254,-0.863254 0,-0.476762 0.386496,-0.863254 0.863254,-0.863254 0.476766,0 0.863254,0.386492 0.863254,0.863254 z" color="#000"/><path d="m 38.922151,78.140479 c 0,0.715143 -0.579744,1.294881 -1.294881,1.294881 -0.715145,0 -1.294881,-0.579738 -1.294881,-1.294881 0,-0.715143 0.579736,-1.294881 1.294881,-1.294881 0.715137,0 1.294881,0.579738 1.294881,1.294881 z" color="#000"/><path d="m 33.964319,62.905912 c 0,0.476762 -0.386496,0.863254 -0.863254,0.863254 -0.476757,0 -0.863254,-0.386492 -0.863254,-0.863254 0,-0.476762 0.386497,-0.863254 0.863254,-0.863254 0.476758,0 0.863254,0.386492 0.863254,0.863254 z" color="#000"/><path d="m 31.137755,36.968013 c 0,0.715143 -0.579736,1.294881 -1.294881,1.294881 -0.715137,0 -1.294881,-0.579738 -1.294881,-1.294881 0,-0.715143 0.579744,-1.294881 1.294881,-1.294881 0.715145,0 1.294881,0.579738 1.294881,1.294881 z" color="#000"/><path d="m 75.399415,42.646964 c 0,0.476762 -0.386497,0.863254 -0.863255,0.863254 -0.476766,0 -0.863254,-0.386492 -0.863254,-0.863254 0,-0.476762 0.386488,-0.863254 0.863254,-0.863254 0.476758,0 0.863255,0.386492 0.863255,0.863254 z" color="#000"/><path d="m 7.5897621,66.212808 c 0,0.715143 -0.5797441,1.294882 -1.2948811,1.294882 C 5.5797355,67.50769 5,66.927951 5,66.212808 c 0,-0.715143 0.5797355,-1.294881 1.294881,-1.294881 0.715137,0 1.2948811,0.579738 1.2948811,1.294881 z" color="#000"/><path d="m 44.645816,72.875308 c 0,0.476763 -0.386488,0.863254 -0.863254,0.863254 -0.476758,0 -0.863254,-0.386491 -0.863254,-0.863254 0,-0.476762 0.386496,-0.863254 0.863254,-0.863254 0.476766,0 0.863254,0.386492 0.863254,0.863254 z" color="#000"/><path d="m 92.685682,21.350525 c 0,0.715143 -0.579744,1.294881 -1.294881,1.294881 -0.715146,0 -1.294881,-0.579738 -1.294881,-1.294881 0,-0.715143 0.579735,-1.294881 1.294881,-1.294881 0.715137,0 1.294881,0.579738 1.294881,1.294881 z" color="#000"/><path d="m 81.609779,58.887118 c 0,0.476762 -0.386496,0.863254 -0.863254,0.863254 -0.476758,0 -0.863254,-0.386492 -0.863254,-0.863254 0,-0.476763 0.386496,-0.863254 0.863254,-0.863254 0.476758,0 0.863254,0.386491 0.863254,0.863254 z" color="#000"/><text x="0" y="115" fill="#000000" font-size="5px" font-weight="bold" font-family="'Helvetica Neue', Helvetica, Arial-Unicode, Arial, Sans-serif">Created by Magicon</text><text x="0" y="120" fill="#000000" font-size="5px" font-weight="bold" font-family="'Helvetica Neue', Helvetica, Arial-Unicode, Arial, Sans-serif">from the Noun Project</text></svg>