<svg xmlns:dc="http://purl.org/dc/elements/1.1/" xmlns:cc="http://creativecommons.org/ns#" xmlns:rdf="http://www.w3.org/1999/02/22-rdf-syntax-ns#" xmlns:svg="http://www.w3.org/2000/svg" xmlns="http://www.w3.org/2000/svg" xmlns:sodipodi="http://sodipodi.sourceforge.net/DTD/sodipodi-0.dtd" xmlns:inkscape="http://www.inkscape.org/namespaces/inkscape" version="1.1" x="0px" y="0px" viewBox="0 0 100 125"><g transform="translate(0,-952.36218)"><path d="m 8.9374999,968.36217 c -1.58221,-3e-5 -2.88421,0.24786 -3.78125,1.15625 -0.89704,0.90839 -1.15625,2.23264 -1.15625,3.84375 l 0,37.93753 c 0.0349,1.6346 0.265,2.9563 1.15625,3.875 0.89125,0.9186 2.21684,1.1875 3.8125,1.1875 l 23.6875001,0 -1.4375,5.0312 c -2.12154,0.047 -5.15596,0.2955 -8,1.125 -1.57578,0.4596 -3.05868,1.0756 -4.21875,2 -1.16007,0.9245 -2,2.2605 -2,3.8438 0,1.5833 0.82459,2.9498 2.09375,3.9687 1.26916,1.0189 2.98447,1.7586 5,2.3438 4.03107,1.1703 9.34566,1.6875 14.90625,1.6875 5.56063,0 10.84394,-0.5172 14.875,-1.6875 2.01553,-0.5852 3.73084,-1.3249 5,-2.3438 1.26916,-1.0189 2.125,-2.3854 2.125,-3.9687 0,-1.5833 -0.83994,-2.9193 -2,-3.8438 -1.16006,-0.9244 -2.64298,-1.5404 -4.21875,-2 -2.85398,-0.8324 -5.90963,-1.0795 -8.03125,-1.125 l -1.4375,-5.0312 20.6875,0 0,11 c 0.0111,0.4739 0.40462,0.9096 0.875,0.9687 1.83805,0.2043 3.72314,0.3472 5.625,0.4688 l 0,1.5625 c 5e-5,0.5236 0.47642,0.9999 1,1 l 15,0 c 0.52358,-10e-5 0.99995,-0.4764 1,-1 l 0,-1.5625 c 1.89124,-0.1214 3.76572,-0.2656 5.59375,-0.4688 0.48134,-0.045 0.89321,-0.4854 0.90625,-0.9687 l 0,-50.00003 c -5e-5,-0.52358 -0.47642,-0.99995 -1,-1 l -21,0 0,-3.03125 c 0,-1.60776 -0.27879,-2.90595 -1.1875,-3.8125 -0.90871,-0.90655 -2.23051,-1.15628 -3.84375,-1.15625 z m 0,2 60.0312501,0 c 1.39136,-3e-5 2.09506,0.22087 2.4375,0.5625 C 71.74869,971.2663 72,971.94592 72,973.33092 l 0,38.03128 c 0,1.2635 -0.25245,1.9297 -0.625,2.3125 -0.37255,0.3827 -1.05507,0.6875 -2.46875,0.6875 -19.97917,0 -39.95833,0 -59.9375001,0 -1.37306,0 -2.04048,-0.249 -2.375,-0.5938 -0.33056,-0.3407 -0.5584,-1.0657 -0.59375,-2.4687 0,-12.64586 0,-25.2917 0,-37.93753 0,-1.38889 0.22517,-2.0959 0.5625,-2.4375 0.33733,-0.3416 1.01974,-0.56253 2.375,-0.5625 z m 1.8437501,4 c -0.44715,0.10014 -0.7922801,0.5419 -0.7812501,1 l 0,34.00003 c 5.01e-5,0.5235 0.4764201,0.9999 1.0000001,1 l 56,0 c 0.52358,-10e-5 0.99995,-0.4765 1,-1 l 0,-34.00003 c -5e-5,-0.52358 -0.47642,-0.99995 -1,-1 -18.73442,0 -37.50059,0 -56.21875,0 z m 63.21875,4 20,0 0,48.06253 c -8.40521,0.8689 -17.59285,0.8669 -26,0 l 0,-10.0625 c 1.70662,0.01 3.77043,-0.2539 4.8125,-1.2813 0.9007,-0.9254 1.1875,-2.2144 1.1875,-3.7187 l 0,-14.00003 c 5.25,-0.0128 11.25,-0.0128 16.46875,-0.15625 1.01937,-0.30156 1.28141,-0.96567 1.53125,-1.84375 l 0,-2 c -0.10769,-1.0733 -0.66688,-1.45855 -1.53125,-1.84375 C 85.25,991.34935 79.52229,991.36217 74,991.36217 l 0,-2 c 5.25,-0.0128 12.25,-0.0128 16.46875,-0.15625 1.01937,-0.30156 1.28141,-0.96567 1.53125,-1.84375 l 0,-2 c -0.10769,-1.0733 -0.66688,-1.45855 -1.53125,-1.84375 C 86.25,983.34935 79.52229,983.36217 74,983.36217 z m 0,7 c 4.25,-0.0128 12.25,-0.0128 16,0.0937 l 0,1.8125 c -3.75,0.081 -10.66666,0.0937 -16,0.0937 z m 0,8 c 5.25,-0.0128 11.25,-0.0128 16,0.0937 l 0,1.8125 c -4.75,0.081 -10.66666,0.0937 -16,0.0937 z m 7,20.00003 c -1.10457,0 -2,0.8954 -2,2 0,1.1046 0.89543,2 2,2 1.10457,0 2,-0.8954 2,-2 0,-1.1046 -0.89543,-2 -2,-2 z m -46.28125,3 8.53125,0 1.78125,6.25 c 0.10992,0.4256 0.52922,0.7502 0.96875,0.75 1.91667,0 5.37031,0.2317 8.21875,1.0625 1.42422,0.4154 2.69132,0.9869 3.53125,1.6562 0.83993,0.6694 1.25,1.3646 1.25,2.2813 0,0.9167 -0.42541,1.6439 -1.375,2.4062 -0.94959,0.7624 -2.42178,1.4602 -4.28125,2 -3.71893,1.0797 -8.90434,1.5938 -14.34375,1.5938 -5.43937,0 -10.65606,-0.5141 -14.375,-1.5938 -1.85947,-0.5398 -3.33166,-1.2376 -4.28125,-2 C 19.39416,1030.0061 19,1029.2789 19,1028.3622 c 0,-0.9167 0.41006,-1.6119 1.25,-2.2813 0.83994,-0.6693 2.10702,-1.2408 3.53125,-1.6562 2.84846,-0.8308 6.30208,-1.0625 8.21875,-1.0625 0.42903,-0.013 0.83036,-0.3344 0.9375,-0.75 z M 74.5,1028.9247 c 4.30845,0.2084 8.69201,0.2094 13,0 l 0,0.4375 -13,0 z" style="text-indent:0;text-transform:none;direction:ltr;block-progression:tb;baseline-shift:baseline;color:#000000;enable-background:accumulate;" fill="#000000" fill-opacity="1" stroke="none" marker="none" visibility="visible" display="inline" overflow="visible"/></g><text x="0" y="115" fill="#000000" font-size="5px" font-weight="bold" font-family="'Helvetica Neue', Helvetica, Arial-Unicode, Arial, Sans-serif">Created by art shop</text><text x="0" y="120" fill="#000000" font-size="5px" font-weight="bold" font-family="'Helvetica Neue', Helvetica, Arial-Unicode, Arial, Sans-serif">from the Noun Project</text></svg>