<svg xmlns="http://www.w3.org/2000/svg" xmlns:xlink="http://www.w3.org/1999/xlink" version="1.1" x="0px" y="0px" viewBox="0 0 32 40" enable-background="new 0 0 32 32" xml:space="preserve"><g><path d="M27,5C20.9-1,11.1-1,5,5C-1,11.1-1,20.9,5,27C11.1,33,20.9,33,27,27C33,20.9,33,11.1,27,5z M7.6,7.6   c4.1-4.1,10.4-4.5,15.1-1.4L6.3,22.7C3.1,18.1,3.5,11.7,7.6,7.6z M24.4,24.4c-4.1,4.1-10.4,4.5-15.1,1.4L25.7,9.3   C28.9,13.9,28.5,20.3,24.4,24.4z"/></g><text x="0" y="47" fill="#000000" font-size="5px" font-weight="bold" font-family="'Helvetica Neue', Helvetica, Arial-Unicode, Arial, Sans-serif">Created by Creative Stall</text><text x="0" y="52" fill="#000000" font-size="5px" font-weight="bold" font-family="'Helvetica Neue', Helvetica, Arial-Unicode, Arial, Sans-serif">from the Noun Project</text></svg>