<?xml version="1.0" encoding="UTF-8" standalone="no"?>
<svg
   xmlns:dc="http://purl.org/dc/elements/1.1/"
   xmlns:cc="http://creativecommons.org/ns#"
   xmlns:rdf="http://www.w3.org/1999/02/22-rdf-syntax-ns#"
   xmlns:svg="http://www.w3.org/2000/svg"
   xmlns="http://www.w3.org/2000/svg"
   xmlns:sodipodi="http://sodipodi.sourceforge.net/DTD/sodipodi-0.dtd"
   xmlns:inkscape="http://www.inkscape.org/namespaces/inkscape"
   version="1.1"
   x="0px"
   y="0px"
   viewBox="0 0 50.000001 47.952968"
   enable-background="new 0 0 35.2001 33.759"
   xml:space="preserve"
   id="svg2"
   inkscape:version="0.91 r13725"
   sodipodi:docname="Recycling.svg"
   width="50"
   height="47.952969"><metadata
     id="metadata14"><rdf:RDF><cc:Work
         rdf:about=""><dc:format>image/svg+xml</dc:format><dc:type
           rdf:resource="http://purl.org/dc/dcmitype/StillImage" /><dc:title></dc:title></cc:Work></rdf:RDF></metadata><defs
     id="defs12" /><sodipodi:namedview
     pagecolor="#ffffff"
     bordercolor="#666666"
     borderopacity="1"
     objecttolerance="10"
     gridtolerance="10"
     guidetolerance="10"
     inkscape:pageopacity="0"
     inkscape:pageshadow="2"
     inkscape:window-width="1436"
     inkscape:window-height="855"
     id="namedview10"
     showgrid="false"
     fit-margin-top="0"
     fit-margin-left="0"
     fit-margin-right="0"
     fit-margin-bottom="0"
     inkscape:zoom="5.5925828"
     inkscape:cx="31.904697"
     inkscape:cy="19.811931"
     inkscape:window-x="0"
     inkscape:window-y="1"
     inkscape:window-maximized="1"
     inkscape:current-layer="svg2" /><path
     d="m 49.805904,30.079489 -6.87469,11.910184 C 42.168291,43.315804 40.77,44.052449 39.338471,44.041228 l -5.942591,0 0.0055,3.438765 c 0.0028,0.534089 -0.269175,0.632669 -0.596446,0.209517 -1.509228,-1.953118 -5.357225,-7.161906 -5.357225,-9.554795 0,-2.392746 3.847997,-7.600114 5.357225,-9.553231 0.327271,-0.424573 0.599287,-0.325994 0.596446,0.207953 l -0.0055,3.454107 c 0,-0.0041 11.660468,-0.0041 11.660468,-0.0041 1.822721,0.01662 3.545584,-0.810225 4.683079,-2.201555 0.338351,-0.416049 0.332812,-0.420311 0.06648,0.04162 z M 42.64826,5.4783012 39.668584,7.2067039 c 0,0 -1.492608,-2.6078028 -2.086214,-3.6399018 -0.849003,-1.450988 -2.397008,-2.363769 -4.075553,-2.359508 -1.681244,0.0013 -3.234789,0.921019 -4.061633,2.383088 0,0.0028 -1.370449,2.3568094 -2.74374,4.7509768 l 2.77428,4.8023971 -3.015614,1.689483 c -0.463351,0.262215 -0.416192,0.542469 0.113778,0.613208 2.446866,0.330112 8.880507,1.055678 10.955641,-0.141477 2.069737,-1.198576 4.65808,-7.1300878 5.59586,-9.413318 C 43.327945,5.3964833 43.108769,5.2092681 42.64826,5.4783012 Z M 39.804521,17.195588 37.96788,18.255385 c -2.316469,1.335933 -3.107233,4.296007 -1.770022,6.609777 l 3.537345,6.124409 c 2.760359,0 5.484781,0.0013 5.484781,0.0013 1.684085,0.01392 3.25155,-0.886361 4.094871,-2.338628 0.835082,-1.450989 0.826844,-3.26121 -0.02216,-4.708079 0,-0.0041 -1.309512,-2.268032 -2.876978,-4.979953 -1.33721,-2.313791 -4.297426,-3.104413 -6.611196,-1.768623 z M 0.54798959,29.63844 7.4226802,41.545782 c 0.2663342,0.463351 0.2580956,0.463351 0.06946,-0.03466 C 6.8567733,39.831299 7.0010909,37.92392 7.92765,36.349494 l 5.831655,-10.098543 2.985074,1.731244 c 0.46335,0.267755 0.682526,0.08324 0.477271,-0.412072 -0.932241,-2.28323 -3.520584,-8.217441 -5.593019,-9.414595 C 9.5533541,16.959794 3.1197131,17.685359 0.67284708,18.015471 0.14287744,18.088909 0.09301967,18.370584 0.55637024,18.638338 L 3.5442854,20.3514 0.5701486,25.501949 c -0.72684391,1.233235 -0.78508234,2.807661 -0.022159,4.136491 z M 11.67025,32.366981 c -1.37883,2.392889 -2.7410413,4.752397 -2.7410413,4.755238 -0.8517014,1.445307 -0.8627809,3.24871 -0.01946,4.705238 0.837923,1.457808 2.4053883,2.35539 4.0866323,2.34289 0,0 2.618882,0 5.751115,0 2.671723,0 4.838335,-2.168174 4.838335,-4.839897 l 0,-2.125135 c 0,-2.67016 -2.166612,-4.838334 -4.838335,-4.838334 l -7.077246,0 z M 18.825195,4.8009396e-4 c -1.534227,0 -2.82712,0.86136099604 -3.570584,2.08067500604 -0.685224,1.109797 -2.369309,4.0255529 -3.806377,6.539038 -1.328831,2.3166109 -0.521589,5.2836449 1.789482,6.6209989 l 1.875419,1.081956 c 2.31661,1.338632 5.273986,0.542328 6.608356,-1.772863 2.385929,-4.132371 5.798416,-10.0430029 6.686197,-11.5716909 0.915479,-1.577124 2.419167,-2.62300101 4.16703,-2.90467601 0.527129,-0.08452 0.532668,-0.073439996 -0.0028,-0.073439996 l -13.746682,0 z"
     id="path4"
     inkscape:connector-curvature="0"
     style="fill:#000000" /></svg>