<?xml version="1.0" encoding="UTF-8" standalone="no"?>
<!-- Created with Inkscape (http://www.inkscape.org/) -->

<svg
   xmlns:dc="http://purl.org/dc/elements/1.1/"
   xmlns:cc="http://creativecommons.org/ns#"
   xmlns:rdf="http://www.w3.org/1999/02/22-rdf-syntax-ns#"
   xmlns:svg="http://www.w3.org/2000/svg"
   xmlns="http://www.w3.org/2000/svg"
   xmlns:sodipodi="http://sodipodi.sourceforge.net/DTD/sodipodi-0.dtd"
   xmlns:inkscape="http://www.inkscape.org/namespaces/inkscape"
   width="210mm"
   height="297mm"
   viewBox="0 0 744.09448819 1052.3622047"
   id="svg2"
   version="1.1"
   inkscape:version="0.91 r13725"
   sodipodi:docname="Picto Scan 3D.svg">
  <defs
     id="defs4" />
  <sodipodi:namedview
     id="base"
     pagecolor="#ffffff"
     bordercolor="#666666"
     borderopacity="1.0"
     inkscape:pageopacity="0.0"
     inkscape:pageshadow="2"
     inkscape:zoom="1.1511719"
     inkscape:cx="563.72093"
     inkscape:cy="486.63037"
     inkscape:document-units="px"
     inkscape:current-layer="layer1"
     showgrid="false"
     inkscape:window-width="1920"
     inkscape:window-height="1017"
     inkscape:window-x="-8"
     inkscape:window-y="-8"
     inkscape:window-maximized="1" />
  <metadata
     id="metadata7">
    <rdf:RDF>
      <cc:Work
         rdf:about="">
        <dc:format>image/svg+xml</dc:format>
        <dc:type
           rdf:resource="http://purl.org/dc/dcmitype/StillImage" />
        <dc:title></dc:title>
      </cc:Work>
    </rdf:RDF>
  </metadata>
  <g
     inkscape:label="Calque 1"
     inkscape:groupmode="layer"
     id="layer1">
    <path
       style="fill:#8d5fd3"
       d="m 295.01035,585.18839 c 0,-21.91286 -0.0518,-24.59988 -0.4829,-25.03094 -0.53621,-0.53622 -1.79508,-0.38031 -2.6085,0.32306 -0.26446,0.22869 -0.93282,0.50619 -1.48524,0.61667 -0.55241,0.11049 -1.07245,0.37822 -1.15562,0.59497 -0.0832,0.21675 -0.70285,0.48728 -1.37705,0.60119 -0.6742,0.1139 -1.29488,0.38705 -1.37928,0.60699 -0.0844,0.21994 -0.6548,0.49394 -1.26756,0.6089 -0.61276,0.11495 -1.45106,0.47405 -1.86289,0.798 -0.41183,0.32394 -1.05424,0.58899 -1.42758,0.58899 -0.37333,0 -0.92894,0.27641 -1.23468,0.61425 -0.30859,0.34099 -0.94593,0.61425 -1.43266,0.61425 -0.49672,0 -1.10477,0.26626 -1.40272,0.61425 -0.28927,0.33784 -0.85349,0.61425 -1.25383,0.61425 -0.40035,0 -1.0793,0.27641 -1.50879,0.61425 -1.47212,1.15797 -1.69709,0.88376 -1.44881,-1.76597 0.12266,-1.30912 0.40117,-2.65663 0.61891,-2.99447 0.21775,-0.33783 0.49521,-1.65079 0.61658,-2.91768 0.12138,-1.26689 0.40715,-2.58964 0.63505,-2.93944 0.2279,-0.3498 0.50545,-1.73186 0.61678,-3.07125 0.11133,-1.33938 0.39804,-2.73717 0.63715,-3.10619 0.23911,-0.36903 0.51439,-1.75109 0.61175,-3.07125 0.0974,-1.32017 0.30468,-2.48373 0.46073,-2.58571 0.43118,-0.28178 0.83803,-2.37065 0.84622,-4.34468 0.004,-0.97128 0.13904,-1.76597 0.30002,-1.76597 0.44039,0 0.93217,-2.08926 0.9341,-3.96843 0.001,-1.12667 0.16861,-1.84943 0.51791,-2.23541 0.36874,-0.40744 0.55522,-1.31369 0.65277,-3.17221 0.0751,-1.431 0.24391,-2.60181 0.37512,-2.60181 0.4472,0 0.91291,-1.93033 0.91291,-3.78393 0,-1.32437 0.1513,-2.0167 0.53287,-2.43833 0.37823,-0.41794 0.56699,-1.26453 0.65045,-2.91719 0.0792,-1.5687 0.3058,-2.63704 0.69448,-3.27443 0.40698,-0.6674 0.57784,-1.53404 0.58007,-2.94236 0.002,-1.47407 0.1628,-2.23735 0.61338,-2.91769 0.45136,-0.68153 0.61073,-1.4422 0.61222,-2.92223 10e-4,-1.41104 0.1831,-2.33869 0.61628,-3.14691 0.4108,-0.76648 0.61425,-1.73283 0.61425,-2.91769 0,-1.13351 0.20469,-2.15717 0.56831,-2.84202 0.33664,-0.63403 0.6391,-2.02903 0.74196,-3.42196 0.0955,-1.29336 0.37734,-2.67542 0.62629,-3.07124 0.24896,-0.39583 0.54742,-1.74243 0.66324,-2.99246 0.11583,-1.25003 0.39329,-2.56299 0.61657,-2.91769 0.22329,-0.35469 0.50358,-1.74267 0.62287,-3.08439 0.11929,-1.34172 0.4032,-2.72384 0.63091,-3.07137 0.22771,-0.34753 0.50652,-1.73747 0.61958,-3.08875 0.11305,-1.35129 0.3933,-2.6719 0.62278,-2.93471 0.23928,-0.27402 0.50477,-1.61669 0.62248,-3.14803 0.11288,-1.46861 0.31751,-2.6702 0.45473,-2.6702 0.13722,0 0.41512,-0.55282 0.61756,-1.2285 l 0.36806,-1.2285 108.21287,0 108.2129,0 0,72.63501 0,72.635 -108.26152,0 -108.26148,0 0,-24.54804 z m 23.49505,11.34168 0,-10.28868 -10.28868,0 -10.28868,0 -0.0811,9.97906 c -0.0446,5.48848 -0.0137,10.15481 0.0687,10.36961 0.11797,0.30743 2.32504,0.37333 10.36981,0.30962 l 10.21995,-0.0809 0,-10.28868 z m 23.79136,9.84818 c 0.34213,-0.63927 0.45365,-18.37056 0.1233,-19.60343 l -0.18624,-0.69507 -10.32859,0.0808 -10.32858,0.0808 -0.0811,9.97906 c -0.0446,5.48848 -0.0144,10.15294 0.0671,10.36546 0.11499,0.29965 2.42349,0.3864 10.28223,0.3864 9.70481,0 10.14742,-0.0252 10.45188,-0.59406 z m 23.81623,-0.097 c 0.0927,-0.38007 0.12988,-5.04452 0.0826,-10.36546 l -0.0859,-9.67443 -10.32859,-0.0808 -10.32858,-0.0808 -0.18624,0.69507 c -0.33036,1.23287 -0.21883,18.96416 0.12329,19.60343 0.30445,0.56888 0.7469,0.59406 10.43639,0.59406 l 10.11846,0 0.16852,-0.69103 z m 23.64535,-9.75121 0,-10.28868 -10.28868,0 -10.28868,0 -0.0811,9.97906 c -0.0446,5.48848 -0.0137,10.15481 0.0687,10.36961 0.11797,0.30743 2.32504,0.37333 10.36981,0.30962 l 10.21994,-0.0809 0,-10.28868 z m 23.79137,9.84818 c 0.34212,-0.63927 0.45365,-18.37056 0.12329,-19.60343 l -0.18624,-0.69507 -10.32858,0.0808 -10.32859,0.0808 -0.0811,9.97906 c -0.0446,5.48848 -0.0144,10.15294 0.0671,10.36546 0.11499,0.29965 2.42349,0.3864 10.28223,0.3864 9.70481,0 10.14741,-0.0252 10.45188,-0.59406 z m 23.81623,-0.097 c 0.0927,-0.38007 0.12987,-5.04452 0.0826,-10.36546 l -0.0859,-9.67443 -10.32858,-0.0808 -10.32859,-0.0808 -0.18624,0.69507 c -0.33035,1.23287 -0.21883,18.96416 0.1233,19.60343 0.30445,0.56888 0.74689,0.59406 10.43639,0.59406 l 10.11846,0 0.16852,-0.69103 z m 23.64535,-9.75121 0,-10.28868 -10.28868,0 -10.28868,0 -0.0811,9.97906 c -0.0446,5.48848 -0.0137,10.15481 0.0687,10.36961 0.11797,0.30743 2.32504,0.37333 10.36981,0.30962 l 10.21995,-0.0809 0,-10.28868 z m 23.79136,9.84818 c 0.34213,-0.63927 0.45365,-18.37056 0.1233,-19.60343 l -0.18624,-0.69507 -10.32859,0.0808 -10.32858,0.0808 -0.0811,9.97906 c -0.0446,5.48848 -0.0144,10.15294 0.0671,10.36546 0.11499,0.29965 2.42349,0.3864 10.28223,0.3864 9.70481,0 10.14742,-0.0252 10.45188,-0.59406 z m 23.8162,-0.097 c 0.093,-0.38007 0.1299,-5.04452 0.083,-10.36546 l -0.086,-9.67443 -10.32856,-0.0808 -10.32858,-0.0808 -0.18624,0.69507 c -0.33036,1.23287 -0.21883,18.96416 0.12329,19.60343 0.30445,0.56888 0.7469,0.59406 10.43639,0.59406 l 10.1185,0 0.1685,-0.69103 z m -190.4457,-23.144 c 0.42953,-0.16482 0.48581,-1.37069 0.48581,-10.40938 0,-9.03868 -0.0563,-10.24456 -0.48581,-10.40938 -0.26719,-0.10254 -4.74759,-0.18642 -9.95643,-0.18642 -5.20885,0 -9.68924,0.0839 -9.95644,0.18642 -0.42953,0.16483 -0.4858,1.37134 -0.4858,10.41665 0,7.89681 0.0876,10.26556 0.3839,10.38513 0.5536,0.22338 19.43516,0.2394 20.01477,0.017 z m 24.12361,-0.40763 c 0.19954,-0.37285 0.31793,-4.13874 0.31793,-10.11318 0,-8.24425 -0.0646,-9.58376 -0.48262,-10.00175 -0.41847,-0.41847 -1.778,-0.48262 -10.22726,-0.48262 -7.16965,0 -9.84201,0.0974 -10.11318,0.36855 -0.27134,0.27134 -0.36855,2.96887 -0.36855,10.22725 0,7.25838 0.0972,9.95591 0.36855,10.22726 0.27142,0.27141 2.98012,0.36855 10.27788,0.36855 9.48273,0 9.92301,-0.0256 10.22725,-0.59406 z m 23.59799,0.22551 c 0.27142,-0.27142 0.36855,-2.98013 0.36855,-10.27788 0,-9.48273 -0.0256,-9.92301 -0.59406,-10.22725 -0.37285,-0.19954 -4.13874,-0.31793 -10.11318,-0.31793 -8.24424,0 -9.58376,0.0646 -10.00174,0.48262 -0.41799,0.41799 -0.48263,1.7575 -0.48263,10.00175 0,5.97444 0.11839,9.74033 0.31793,10.11318 0.30424,0.56848 0.74453,0.59406 10.22725,0.59406 7.29776,0 10.00646,-0.0971 10.27788,-0.36855 z m 23.53135,0.18212 c 0.42953,-0.16482 0.48581,-1.37069 0.48581,-10.40938 0,-9.03868 -0.0563,-10.24456 -0.48581,-10.40938 -0.26719,-0.10254 -4.74759,-0.18642 -9.95644,-0.18642 -5.20884,0 -9.68924,0.0839 -9.95643,0.18642 -0.42954,0.16483 -0.48581,1.37134 -0.48581,10.41665 0,7.89681 0.0876,10.26556 0.38391,10.38513 0.5536,0.22338 19.43515,0.2394 20.01477,0.017 z m 24.136,-0.43078 c 0.2213,-0.41351 0.30089,-3.81308 0.24115,-10.30016 -0.0756,-8.20602 -0.15944,-9.72733 -0.54986,-9.9739 -0.71866,-0.45386 -19.75098,-0.38962 -20.20881,0.0682 -0.27134,0.27134 -0.36855,2.96887 -0.36855,10.22725 0,7.25838 0.0972,9.95591 0.36855,10.22726 0.27142,0.27141 2.98012,0.36855 10.27787,0.36855 9.61084,0 9.91928,-0.0186 10.23965,-0.61721 z m 23.5856,0.24866 c 0.27141,-0.27142 0.36854,-2.98013 0.36854,-10.27788 0,-9.48273 -0.0256,-9.92301 -0.59405,-10.22725 -0.37285,-0.19954 -4.13874,-0.31793 -10.11318,-0.31793 -8.24425,0 -9.58376,0.0646 -10.00175,0.48262 -0.41799,0.41799 -0.48262,1.7575 -0.48262,10.00175 0,5.97444 0.11839,9.74033 0.31793,10.11318 0.30424,0.56848 0.74452,0.59406 10.22725,0.59406 7.29775,0 10.00646,-0.0971 10.27788,-0.36855 z m 23.53134,0.18212 c 0.42953,-0.16482 0.48581,-1.37069 0.48581,-10.40938 0,-9.03868 -0.0563,-10.24456 -0.48581,-10.40938 -0.26719,-0.10254 -4.74759,-0.18642 -9.95643,-0.18642 -5.20885,0 -9.68924,0.0839 -9.95644,0.18642 -0.42953,0.16483 -0.4858,1.37134 -0.4858,10.41665 0,7.89681 0.0876,10.26556 0.3839,10.38513 0.5536,0.22338 19.43516,0.2394 20.01477,0.017 z m 24.136,-0.43078 c 0.2213,-0.41351 0.30089,-3.81308 0.24115,-10.30016 -0.0756,-8.20602 -0.15944,-9.72733 -0.54986,-9.9739 -0.71866,-0.45386 -19.75098,-0.38962 -20.20881,0.0682 -0.27134,0.27134 -0.36855,2.96887 -0.36855,10.22725 0,7.25838 0.0972,9.95591 0.36855,10.22726 0.27142,0.27141 2.98012,0.36855 10.27788,0.36855 9.61084,0 9.91927,-0.0186 10.23964,-0.61721 z m 23.58561,0.24866 c 0.2714,-0.27142 0.3685,-2.98013 0.3685,-10.27788 0,-9.48273 -0.026,-9.92301 -0.594,-10.22725 -0.3729,-0.19954 -4.1388,-0.31793 -10.1132,-0.31793 -8.24424,0 -9.58376,0.0646 -10.00174,0.48262 -0.41799,0.41799 -0.48263,1.7575 -0.48263,10.00175 0,5.97444 0.11839,9.74033 0.31793,10.11318 0.30424,0.56848 0.74453,0.59406 10.22726,0.59406 7.29778,0 10.00648,-0.0971 10.27788,-0.36855 z M 318.5906,554.64747 c 0.0759,-4.06774 0.026,-4.61013 -0.45632,-4.96283 -0.35631,-0.26054 -0.71994,-0.30049 -1.06317,-0.1168 -0.2869,0.15355 -0.7885,0.27918 -1.11466,0.27918 -0.32617,0 -0.94443,0.27641 -1.37392,0.61425 -0.42949,0.33783 -1.07005,0.61425 -1.42348,0.61425 -0.35342,0 -0.919,0.27641 -1.25683,0.61424 -0.33784,0.33784 -0.96112,0.61425 -1.38507,0.61425 -0.42395,0 -1.00749,0.27642 -1.29676,0.61425 -0.28926,0.33784 -0.8912,0.61425 -1.33763,0.61425 -0.44644,0 -1.1631,0.27642 -1.59259,0.61425 -0.42949,0.33784 -1.05142,0.61425 -1.38207,0.61425 -0.33064,0 -0.95257,0.27641 -1.38206,0.61425 -0.42949,0.33784 -1.05142,0.61425 -1.38206,0.61425 -0.33064,0 -0.95257,0.27641 -1.38206,0.61425 -0.42949,0.33784 -1.06018,0.61425 -1.40154,0.61425 -0.60284,0 -1.5859,0.73704 -1.5859,1.18901 0,0.89293 0.90512,0.9678 10.73812,0.88819 l 9.9928,-0.0809 0.0852,-4.56685 z m 23.83052,4.02938 c 0.24549,-0.91606 0.24075,-16.94938 -0.005,-18.4392 -0.25027,-1.51439 -1.0843,-2.00655 -1.94381,-1.14704 -0.34171,0.34171 -0.94816,0.62129 -1.34768,0.62129 -0.39952,0 -1.05599,0.25025 -1.45884,0.55611 -0.40285,0.30587 -1.31983,0.72603 -2.03773,0.93371 -0.71791,0.20767 -1.30528,0.4981 -1.30528,0.64538 0,0.14729 -0.542,0.35938 -1.20444,0.47129 -0.66244,0.11192 -1.27475,0.38671 -1.36068,0.61064 -0.0859,0.22393 -0.70785,0.50034 -1.38206,0.61425 -0.6742,0.11391 -1.29472,0.38664 -1.37892,0.60608 -0.0842,0.21943 -0.67506,0.49689 -1.31301,0.61657 -0.63795,0.11969 -1.49686,0.48265 -1.90869,0.8066 -0.41183,0.32394 -1.05874,0.58899 -1.43757,0.58899 -0.37883,0 -0.87279,0.22171 -1.09768,0.49268 -0.22489,0.27098 -0.72553,0.61307 -1.11254,0.76021 -0.69818,0.26545 -0.70365,0.31134 -0.70365,5.90575 0,3.10102 0.0921,5.73036 0.20475,5.84297 0.11263,0.11262 4.79552,0.20475 10.40644,0.20475 l 10.20167,0 0.18519,-0.69103 z m 23.77451,-9.13696 c 0.0472,-5.32094 0.01,-9.98539 -0.0826,-10.36546 l -0.16852,-0.69103 -10.11846,0 c -9.68949,0 -10.13194,0.0252 -10.43639,0.59406 -0.34212,0.63927 -0.45365,18.37056 -0.12329,19.60343 l 0.18624,0.69507 10.32858,-0.0808 10.32859,-0.0808 0.0859,-9.67443 z m 23.56271,-0.61425 0,-10.28868 -10.28868,0 -10.28868,0 -0.0811,9.97906 c -0.0446,5.48849 -0.0137,10.15481 0.0687,10.36961 0.11797,0.30743 2.32504,0.37333 10.36981,0.30962 l 10.21994,-0.0809 0,-10.28868 z m 23.91572,9.75121 c 0.32961,-1.22993 0.21711,-18.96136 -0.12435,-19.59939 -0.30443,-0.56883 -0.74659,-0.59406 -10.40938,-0.59406 -8.91877,0 -10.11312,0.0565 -10.27788,0.48581 -0.25501,0.66455 -0.23752,19.93808 0.0183,20.19392 0.1126,0.11262 4.79549,0.20475 10.40641,0.20475 l 10.20167,0 0.18519,-0.69103 z m 23.77451,-9.13696 c 0.0472,-5.32094 0.01,-9.98539 -0.0826,-10.36546 l -0.16852,-0.69103 -10.11846,0 c -9.6895,0 -10.13194,0.0252 -10.43639,0.59406 -0.34213,0.63927 -0.45365,18.37056 -0.1233,19.60343 l 0.18624,0.69507 10.32859,-0.0808 10.32858,-0.0808 0.0859,-9.67443 z m 23.56272,-0.61425 0,-10.28868 -10.28868,0 -10.28868,0 -0.0811,9.97906 c -0.0446,5.48849 -0.0137,10.15481 0.0687,10.36961 0.11797,0.30743 2.32504,0.37333 10.36981,0.30962 l 10.21995,-0.0809 0,-10.28868 z m 23.91572,9.75121 c 0.32961,-1.22993 0.2171,-18.96136 -0.12436,-19.59939 -0.30442,-0.56883 -0.74659,-0.59406 -10.40938,-0.59406 -8.91877,0 -10.11312,0.0565 -10.27787,0.48581 -0.25502,0.66455 -0.23752,19.93808 0.0183,20.19392 0.11261,0.11262 4.7955,0.20475 10.40642,0.20475 l 10.20167,0 0.18519,-0.69103 z m 23.76974,-9.40743 c 0.058,-7.08286 -0.019,-10.06592 -0.268,-10.36546 -0.2823,-0.34014 -2.2486,-0.42056 -10.28216,-0.42056 -9.50628,0 -9.94681,0.0255 -10.25108,0.59406 -0.34212,0.63927 -0.45365,18.37056 -0.12329,19.60343 l 0.18624,0.69507 10.32858,-0.0808 10.32861,-0.0808 0.081,-9.9449 z M 366.19782,532.36756 c 0.0531,-1.92715 -0.039,-3.32521 -0.23161,-3.51784 -0.45549,-0.45549 -2.55621,-0.26051 -2.9608,0.27481 -0.18712,0.24757 -0.80904,0.54114 -1.38206,0.65238 -0.57302,0.11124 -1.37146,0.45723 -1.77431,0.76887 -0.40284,0.31165 -1.0379,0.56663 -1.41124,0.56663 -0.37334,0 -0.92894,0.27641 -1.23468,0.61424 -0.30574,0.33784 -0.9437,0.61425 -1.4177,0.61425 -0.47399,0 -1.10905,0.26438 -1.41124,0.5875 -0.30219,0.32312 -0.95011,0.63409 -1.43983,0.69103 -1.23627,0.14375 -1.76908,1.06412 -0.96264,1.66285 0.49506,0.36754 1.8241,0.43352 7.37099,0.36591 l 6.76704,-0.0825 0.0881,-3.19815 z m 23.64226,-5.18193 c 0.053,-5.42863 -0.032,-8.59256 -0.24115,-8.9834 -0.37325,-0.69742 -1.16703,-0.79848 -1.40481,-0.17885 -0.0896,0.23346 -0.71246,0.51235 -1.38417,0.61976 -0.67171,0.10741 -1.2999,0.40012 -1.39597,0.65047 -0.0979,0.25503 -0.56009,0.45518 -1.05121,0.45518 -0.48211,0 -1.1238,0.25807 -1.42599,0.57348 -0.30219,0.31542 -1.05382,0.66459 -1.67029,0.77595 -0.61647,0.11134 -1.27787,0.39164 -1.46978,0.62288 -0.19191,0.23124 -0.81384,0.50765 -1.38207,0.61425 -0.56822,0.1066 -1.19014,0.38301 -1.38206,0.61425 -0.19191,0.23124 -0.81383,0.50765 -1.38206,0.61425 -0.56822,0.1066 -1.18832,0.38081 -1.378,0.60936 -0.18968,0.22855 -0.78188,0.50295 -1.31599,0.60977 -0.53412,0.10683 -1.18749,0.38186 -1.45196,0.61119 -0.26446,0.22933 -0.89545,0.54998 -1.40221,0.71256 l -0.92138,0.29559 -0.0858,4.25978 c -0.0472,2.34288 -0.0163,4.44107 0.0687,4.66263 0.12413,0.32348 2.16803,0.3869 10.37453,0.32191 l 10.21994,-0.0809 0.0817,-8.38008 z m 23.70963,7.93959 c 0.34146,-0.63803 0.45396,-18.36946 0.12435,-19.5994 l -0.18519,-0.69103 -9.46763,0 c -8.7955,0 -9.49612,0.0396 -9.86895,0.5577 -0.22073,0.30673 -0.64318,0.64791 -0.93879,0.75817 -0.49594,0.18499 -0.53747,0.933 -0.53747,9.6798 0,5.21362 0.0921,9.57146 0.20475,9.68407 0.11261,0.11261 4.73765,0.20475 10.27787,0.20475 9.64468,0 10.08665,-0.0253 10.39106,-0.59406 z m 23.81297,-9.84819 0,-10.28867 -10.32858,-0.0808 -10.32859,-0.0808 -0.18624,0.69507 c -0.33215,1.23959 -0.2187,18.96442 0.1255,19.60756 0.30878,0.57695 0.68212,0.59531 10.51903,0.51728 l 10.19888,-0.0809 0,-10.28868 z m 23.64861,0 0,-10.28867 -10.28868,0 -10.28868,0 -0.0811,9.97906 c -0.0446,5.48848 -0.0137,10.1548 0.0687,10.36961 0.11797,0.30743 2.32504,0.37332 10.36981,0.30961 l 10.21995,-0.0809 0,-10.28868 z m 23.79136,9.84819 c 0.34213,-0.63927 0.45365,-18.37057 0.1233,-19.60344 l -0.18624,-0.69507 -10.32859,0.0808 -10.32858,0.0808 -0.0811,9.97906 c -0.0446,5.48848 -0.0144,10.15294 0.0671,10.36546 0.11499,0.29964 2.42349,0.3864 10.28223,0.3864 9.70481,0 10.14742,-0.0252 10.45188,-0.59406 z m 23.813,-9.84819 0,-10.28867 -10.32861,-0.0808 -10.32858,-0.0808 -0.18624,0.69507 c -0.33216,1.23959 -0.2187,18.96442 0.1255,19.60756 0.30877,0.57695 0.68211,0.59531 10.51902,0.51728 l 10.19891,-0.0809 0,-10.28868 z m -95.04081,-13.84739 c 0.21105,-0.39434 0.26295,-1.22358 0.13487,-2.15486 -0.24523,-1.78301 -0.87516,-2.29999 -2.0114,-1.65073 -1.24999,0.71426 -2.1435,1.06825 -2.69641,1.06825 -0.2893,0 -0.76267,0.27641 -1.05193,0.61425 -0.28927,0.33783 -0.83826,0.61636 -1.21998,0.61895 -0.98409,0.007 -1.54015,0.43682 -1.41367,1.09357 0.14956,0.77661 1.12647,0.98535 4.77823,1.02099 2.88315,0.0281 3.16501,-0.0213 3.48029,-0.61042 z m 23.57286,0.27248 c 0.26457,-0.26458 0.36854,-2.29762 0.36854,-7.20663 0,-6.29185 -0.0445,-6.86191 -0.55752,-7.13645 -0.69371,-0.37126 -2.66409,0.0397 -3.40495,0.71017 -0.29656,0.26839 -0.82064,0.48797 -1.16463,0.48797 -0.34399,0 -0.95503,0.25639 -1.35788,0.56975 -0.40284,0.31337 -1.23738,0.66264 -1.85451,0.77617 -0.61714,0.11353 -1.20018,0.40996 -1.29564,0.65875 -0.0999,0.26032 -0.56768,0.45233 -1.10199,0.45233 -0.59579,0 -1.06584,0.22006 -1.31202,0.61425 -0.21098,0.33784 -0.68937,0.61425 -1.06308,0.61425 -0.7809,0 -2.24401,0.60729 -2.24401,0.93142 0,0.12021 -0.54629,0.30593 -1.21397,0.41269 -0.66769,0.10677 -1.32416,0.37267 -1.45885,0.59089 -0.13468,0.21822 -0.79673,0.5286 -1.47122,0.68973 -1.40556,0.33576 -1.59362,0.79886 -1.655,4.07542 -0.0632,3.37488 -0.8932,3.12784 10.50885,3.12784 7.29775,0 10.00646,-0.0971 10.27788,-0.36855 z m 23.53134,0.18213 c 0.42957,-0.16484 0.48581,-1.37308 0.48581,-10.43639 l 0,-10.24997 -0.73609,-0.18475 c -0.40485,-0.10161 -3.22388,-0.13879 -6.26451,-0.0826 -4.63879,0.0857 -5.62,0.18475 -6.09744,0.61565 -0.31296,0.28245 -0.98363,0.61198 -1.49038,0.73228 -0.50676,0.12031 -1.12869,0.39463 -1.38207,0.60961 -0.25337,0.21498 -1.04222,0.54569 -1.753,0.73491 -0.71077,0.18922 -1.38067,0.48702 -1.48867,0.66176 -0.108,0.17475 -0.52846,0.44399 -0.93434,0.59831 l -0.73798,0.28058 0,8.27437 c 0,6.33214 0.0901,8.31074 0.3839,8.42929 0.5536,0.22338 19.43516,0.2394 20.01477,0.017 z m 24.136,-0.43079 c 0.2213,-0.4135 0.30089,-3.81307 0.24115,-10.30016 -0.0756,-8.20602 -0.15944,-9.72733 -0.54986,-9.97389 -0.6455,-0.40766 -19.21926,-0.39132 -19.9833,0.0176 -0.56848,0.30425 -0.59406,0.74453 -0.59406,10.22726 0,7.29775 0.0971,10.00645 0.36855,10.27787 0.27142,0.27142 2.98012,0.36855 10.27788,0.36855 9.61084,0 9.91927,-0.0186 10.23964,-0.61721 z m 23.58561,0.24866 c 0.2713,-0.27134 0.3685,-2.96887 0.3685,-10.22725 0,-7.25839 -0.097,-9.95592 -0.3685,-10.22726 -0.2712,-0.27116 -2.9435,-0.36855 -10.11319,-0.36855 -8.44925,0 -9.80879,0.0642 -10.22725,0.48263 -0.41799,0.41798 -0.48263,1.75749 -0.48263,10.00174 0,5.97444 0.11839,9.74033 0.31793,10.11318 0.30424,0.56849 0.74453,0.59406 10.22726,0.59406 7.29778,0 10.00648,-0.0971 10.27788,-0.36855 z m -47.59523,-24.12465 c 0.39802,-0.77387 0.10967,-1.30528 -0.70824,-1.30528 -0.82562,0 -1.24934,0.81061 -0.74277,1.42099 0.48098,0.57954 1.11962,0.52861 1.45101,-0.11571 z m 24.12159,-0.15356 c 0.24333,-0.90799 0.24061,-8.65792 -0.004,-10.13512 -0.18185,-1.10021 -0.24364,-1.15172 -1.38168,-1.15172 -0.81126,0 -1.35911,0.19596 -1.71726,0.61425 -0.28927,0.33784 -0.88842,0.61425 -1.33145,0.61425 -0.44304,0 -1.05567,0.27641 -1.36141,0.61425 -0.30574,0.33784 -0.91454,0.61732 -1.35288,0.62108 -0.43834,0.004 -1.1425,0.2771 -1.5648,0.60742 -0.42229,0.33033 -1.06013,0.60366 -1.41742,0.60742 -0.35729,0.004 -1.00101,0.28324 -1.4305,0.62108 -0.42949,0.33784 -1.07006,0.61425 -1.42348,0.61425 -0.35343,0 -0.919,0.27641 -1.25684,0.61425 -0.33784,0.33784 -0.95977,0.61425 -1.38206,0.61425 -0.4223,0 -1.04423,0.27641 -1.38206,0.61425 -0.33784,0.33783 -0.89975,0.61425 -1.24869,0.61425 -0.77696,0 -1.84801,0.54771 -2.35026,1.20188 -0.39662,0.51658 -0.53464,2.85453 -0.18892,3.20024 0.11261,0.11261 4.7955,0.20475 10.40642,0.20475 l 10.20167,0 0.18519,-0.69103 z m 23.76974,-9.40743 c 0.058,-7.08286 -0.019,-10.06593 -0.268,-10.36546 -0.2467,-0.29732 -1.1359,-0.42057 -3.0341,-0.42057 -2.2201,0 -2.8204,0.10639 -3.46601,0.61425 -0.42949,0.33784 -1.05142,0.61425 -1.38206,0.61425 -0.33065,0 -0.95257,0.27642 -1.38206,0.61425 -0.42949,0.33784 -1.00729,0.61425 -1.28399,0.61425 -0.2767,0 -1.15214,0.34552 -1.94542,0.76781 -0.79329,0.4223 -1.66837,0.76782 -1.94464,0.76782 -0.27627,0 -0.67132,0.20365 -0.8779,0.45256 -0.20657,0.2489 -0.84737,0.54106 -1.42399,0.64924 -0.57661,0.10817 -1.1501,0.36246 -1.27442,0.56508 -0.12431,0.20262 -0.70925,0.50287 -1.29988,0.66723 -0.83903,0.23347 -1.11652,0.49785 -1.26894,1.20901 -0.25414,1.18571 -0.3152,11.75833 -0.0731,12.66175 l 0.18624,0.69507 10.32858,-0.0808 10.32859,-0.0808 0.081,-9.9449 z"
       id="path3349"
       inkscape:connector-curvature="0" />
    <path
       style="fill:#8d5fd3"
       d="m 517.37805,531.4964 c -0.01,-66.75186 0.034,-73.17247 0.4801,-73.17247 0.2692,0 0.5605,-0.27184 0.6474,-0.60408 0.087,-0.33225 0.4194,-0.68707 0.739,-0.78851 0.3196,-0.10144 0.5811,-0.38243 0.5811,-0.62442 0,-0.24199 0.1244,-0.43999 0.2764,-0.43999 0.36,0 2.4877,-2.1278 2.4877,-2.48771 0,-0.15203 0.198,-0.27641 0.44,-0.27641 0.242,0 0.5278,-0.27642 0.635,-0.61425 0.1072,-0.33784 0.4059,-0.61425 0.6637,-0.61425 0.2578,0 0.541,-0.27642 0.6294,-0.61425 0.088,-0.33784 0.3647,-0.61425 0.6142,-0.61425 0.2495,0 0.5226,-0.26364 0.6068,-0.58586 0.084,-0.32222 0.4169,-0.65479 0.7391,-0.73906 0.3222,-0.0843 0.5858,-0.37345 0.5858,-0.64264 0,-0.26919 0.2203,-0.48944 0.4895,-0.48944 0.2692,0 0.5584,-0.26364 0.6426,-0.58586 0.084,-0.32222 0.4169,-0.65479 0.7391,-0.73906 0.3222,-0.0843 0.5858,-0.35733 0.5858,-0.60682 0,-0.24949 0.2765,-0.5259 0.6143,-0.61425 0.3378,-0.0883 0.6142,-0.36476 0.6142,-0.61425 0,-0.24949 0.2765,-0.5259 0.6143,-0.61425 0.3378,-0.0883 0.6142,-0.36476 0.6142,-0.61425 0,-0.24949 0.2765,-0.5259 0.6143,-0.61425 0.3378,-0.0883 0.6142,-0.36476 0.6142,-0.61425 0,-0.24949 0.2765,-0.5259 0.6143,-0.61425 0.3378,-0.0883 0.6142,-0.36476 0.6142,-0.61424 0,-0.24949 0.2765,-0.52591 0.6143,-0.61425 0.3378,-0.0883 0.6142,-0.37157 0.6142,-0.62938 0,-0.25781 0.2765,-0.55647 0.6143,-0.6637 0.3378,-0.10722 0.6142,-0.38364 0.6142,-0.61425 0,-0.23061 0.2765,-0.50702 0.6143,-0.61425 0.3378,-0.10722 0.6142,-0.38363 0.6142,-0.61424 0,-0.23062 0.2694,-0.50479 0.5986,-0.60927 0.3292,-0.10448 0.684,-0.45931 0.7885,-0.78851 0.1045,-0.32919 0.3786,-0.59854 0.6092,-0.59854 0.2307,0 0.5071,-0.27641 0.6143,-0.61425 0.1072,-0.33783 0.3836,-0.61425 0.6142,-0.61425 0.2307,0 0.5023,-0.26148 0.6038,-0.58108 0.1014,-0.3196 0.4562,-0.65218 0.7885,-0.73906 0.3322,-0.0869 0.6041,-0.3621 0.6041,-0.61159 0,-0.24949 0.2764,-0.52591 0.6142,-0.61425 0.3378,-0.0884 0.6143,-0.36476 0.6143,-0.61425 0,-0.24949 0.2764,-0.5259 0.6142,-0.61425 0.3378,-0.0884 0.6143,-0.36476 0.6143,-0.61425 0,-0.24949 0.2764,-0.5259 0.6142,-0.61425 0.3378,-0.0883 0.6143,-0.36476 0.6143,-0.61425 0,-0.24949 0.2764,-0.5259 0.6142,-0.61425 0.3378,-0.0883 0.6143,-0.36476 0.6143,-0.61425 0,-0.24949 0.2764,-0.5259 0.6142,-0.61425 0.3378,-0.0883 0.6143,-0.36476 0.6143,-0.61425 0,-0.24949 0.2764,-0.5259 0.6142,-0.61425 0.3378,-0.0883 0.6143,-0.36476 0.6143,-0.61425 0,-0.24949 0.2764,-0.5259 0.6142,-0.61425 0.3378,-0.0883 0.6143,-0.36476 0.6143,-0.61425 0,-0.24949 0.2764,-0.5259 0.6142,-0.61425 0.3378,-0.0883 0.6143,-0.37156 0.6143,-0.62937 0,-0.25781 0.2764,-0.55647 0.6142,-0.6637 0.3378,-0.10722 0.6142,-0.38364 0.6142,-0.61425 0,-0.23061 0.2765,-0.50702 0.6143,-0.61425 0.3378,-0.10722 0.6142,-0.38363 0.6142,-0.61425 0,-0.23061 0.2694,-0.50478 0.5986,-0.60926 0.3292,-0.10448 0.684,-0.45931 0.7885,-0.78851 0.1045,-0.32919 0.3786,-0.59854 0.6093,-0.59854 0.2306,0 0.507,-0.27641 0.6142,-0.61425 0.1072,-0.33783 0.3836,-0.61425 0.6143,-0.61425 0.2306,0 0.507,-0.27641 0.6142,-0.61425 0.1072,-0.33783 0.3836,-0.61425 0.6143,-0.61425 0.2306,0 0.5022,-0.26149 0.6037,-0.58108 0.1014,-0.3196 0.4562,-0.65218 0.7885,-0.73906 0.3322,-0.0869 0.6041,-0.3621 0.6041,-0.61159 0,-0.24949 0.2764,-0.52591 0.6142,-0.61425 0.3379,-0.0883 0.6143,-0.36476 0.6143,-0.61425 0,-0.24949 0.2764,-0.52591 0.6142,-0.61425 0.3379,-0.0883 0.6143,-0.36476 0.6143,-0.61425 0,-0.24949 0.2764,-0.5259 0.6142,-0.61425 0.3379,-0.0883 0.6143,-0.36476 0.6143,-0.61425 0,-0.24949 0.2764,-0.5259 0.6142,-0.61425 0.3379,-0.0883 0.6143,-0.38088 0.6143,-0.65007 0,-0.26919 0.2202,-0.48944 0.4894,-0.48944 0.2692,0 0.5617,-0.27641 0.6501,-0.61425 0.088,-0.33784 0.3647,-0.61425 0.6142,-0.61425 0.2495,0 0.5259,-0.27641 0.6143,-0.61425 0.088,-0.33784 0.3647,-0.61425 0.6142,-0.61425 0.2495,0 0.5247,-0.27183 0.6116,-0.60408 0.087,-0.33224 0.4195,-0.68707 0.7391,-0.7885 0.3196,-0.10144 0.5811,-0.37312 0.5811,-0.60373 0,-0.23061 0.2764,-0.50702 0.6142,-0.61425 0.3378,-0.10722 0.6143,-0.38364 0.6143,-0.61425 0,-0.23061 0.2764,-0.50702 0.6142,-0.61425 0.3378,-0.10722 0.6143,-0.38364 0.6143,-0.61425 0,-0.23061 0.2693,-0.50478 0.5985,-0.60926 0.3292,-0.10448 0.684,-0.45931 0.7885,-0.78851 0.1045,-0.3292 0.3765,-0.59854 0.6044,-0.59854 0.2279,0 0.4841,-0.17276 0.5693,-0.3839 0.085,-0.21115 0.1658,32.42706 0.1791,72.52935 l 0.024,72.91326 -1.2285,1.20423 c -0.6756,0.66233 -1.2285,1.3318 -1.2285,1.48772 0,0.15591 -0.198,0.28348 -0.44,0.28348 -0.2419,0 -0.5229,0.26149 -0.6244,0.58109 -0.1014,0.3196 -0.4562,0.65217 -0.7885,0.73906 -0.3322,0.0869 -0.6041,0.3621 -0.6041,0.61159 0,0.24949 -0.2764,0.5259 -0.6142,0.61425 -0.3378,0.0883 -0.6143,0.36476 -0.6143,0.61424 0,0.24949 -0.2764,0.52591 -0.6142,0.61425 -0.3378,0.0883 -0.6143,0.36476 -0.6143,0.61425 0,0.24949 -0.2764,0.52591 -0.6142,0.61425 -0.3378,0.0883 -0.6143,0.36476 -0.6143,0.61425 0,0.24949 -0.2764,0.52591 -0.6142,0.61425 -0.3378,0.0883 -0.6143,0.36476 -0.6143,0.61425 0,0.24949 -0.2764,0.5259 -0.6142,0.61425 -0.3378,0.0884 -0.6143,0.36476 -0.6143,0.61425 0,0.24949 -0.2764,0.5259 -0.6142,0.61425 -0.3378,0.0883 -0.6143,0.36476 -0.6143,0.61425 0,0.24949 -0.2764,0.5259 -0.6142,0.61425 -0.3378,0.0883 -0.6143,0.36476 -0.6143,0.61425 0,0.24949 -0.2764,0.5259 -0.6142,0.61425 -0.3378,0.0883 -0.6143,0.36476 -0.6143,0.61425 0,0.24949 -0.2764,0.5259 -0.6142,0.61425 -0.3378,0.0883 -0.6143,0.37156 -0.6143,0.62937 0,0.25781 -0.2764,0.55647 -0.6142,0.6637 -0.3378,0.10723 -0.6143,0.39295 -0.6143,0.63495 0,0.24199 -0.1243,0.43999 -0.2764,0.43999 -0.3599,0 -2.4877,2.12779 -2.4877,2.48771 0,0.15202 -0.198,0.27641 -0.44,0.27641 -0.242,0 -0.5229,0.26149 -0.6244,0.58109 -0.1014,0.3196 -0.4562,0.65218 -0.7885,0.73906 -0.3322,0.0869 -0.6041,0.3621 -0.6041,0.61159 0,0.24949 -0.2764,0.5259 -0.6142,0.61425 -0.3379,0.0883 -0.6143,0.36476 -0.6143,0.61425 0,0.24949 -0.2764,0.5259 -0.6142,0.61425 -0.3379,0.0883 -0.6143,0.36476 -0.6143,0.61425 0,0.24949 -0.2764,0.5259 -0.6142,0.61425 -0.3379,0.0883 -0.6143,0.36475 -0.6143,0.61424 0,0.24949 -0.2764,0.52591 -0.6142,0.61425 -0.3379,0.0883 -0.6143,0.36476 -0.6143,0.61425 0,0.24949 -0.2764,0.52591 -0.6142,0.61425 -0.3379,0.0883 -0.6143,0.36476 -0.6143,0.61425 0,0.24949 -0.2764,0.5259 -0.6142,0.61425 -0.3379,0.0883 -0.6143,0.36476 -0.6143,0.61425 0,0.24949 -0.2764,0.5259 -0.6142,0.61425 -0.3379,0.0883 -0.6143,0.36476 -0.6143,0.61425 0,0.24949 -0.2764,0.5259 -0.6142,0.61425 -0.3379,0.0883 -0.6143,0.36476 -0.6143,0.61425 0,0.24949 -0.2764,0.5259 -0.6142,0.61425 -0.3379,0.0883 -0.6143,0.37157 -0.6143,0.62937 0,0.25781 -0.2764,0.55647 -0.6142,0.6637 -0.3378,0.10723 -0.6143,0.39295 -0.6143,0.63495 1e-4,0.24199 -0.1243,0.43999 -0.2764,0.43999 -0.3599,0 -2.4877,2.12779 -2.4877,2.48771 0,0.15203 -0.198,0.27641 -0.44,0.27641 -0.242,0 -0.5277,0.27641 -0.6349,0.61425 -0.1072,0.33784 -0.4059,0.61425 -0.6637,0.61425 -0.2578,0 -0.541,0.27641 -0.6294,0.61425 -0.088,0.33784 -0.3647,0.61425 -0.6142,0.61425 -0.2495,0 -0.5259,0.27641 -0.6143,0.61425 -0.088,0.33784 -0.3647,0.61425 -0.6142,0.61425 -0.2495,0 -0.5259,0.27641 -0.6143,0.61425 -0.088,0.33783 -0.3647,0.61425 -0.6142,0.61425 -0.2495,0 -0.5259,0.27641 -0.6143,0.61425 -0.088,0.33783 -0.3647,0.61425 -0.6142,0.61425 -0.2495,0 -0.5259,0.27641 -0.6143,0.61425 -0.088,0.33783 -0.3647,0.61425 -0.6142,0.61425 -0.2495,0 -0.5259,0.27641 -0.6143,0.61424 -0.088,0.33784 -0.3647,0.61425 -0.6142,0.61425 -0.2495,0 -0.5259,0.27642 -0.6143,0.61425 -0.088,0.33784 -0.3647,0.61425 -0.6142,0.61425 -0.2495,0 -0.5259,0.27642 -0.6143,0.61425 -0.088,0.33784 -0.3647,0.61425 -0.6142,0.61425 -0.2495,0 -0.5259,0.27641 -0.6143,0.61425 -0.088,0.33784 -0.3647,0.61425 -0.6142,0.61425 -0.2495,0 -0.5259,0.27641 -0.6143,0.61425 -0.088,0.33784 -0.3647,0.61425 -0.6142,0.61425 -0.2495,0 -0.5247,0.27184 -0.6116,0.60408 -0.087,0.33224 -0.4195,0.68707 -0.7391,0.78851 -0.3196,0.10143 -0.5811,0.38242 -0.5811,0.62442 0,0.24199 -0.1243,0.43999 -0.2764,0.43999 -0.3599,0 -2.4877,2.12779 -2.4877,2.48771 0,0.15203 -0.2202,0.27641 -0.4894,0.27641 -0.2692,0 -0.5617,0.27641 -0.6501,0.61425 -0.088,0.33784 -0.3647,0.61425 -0.6142,0.61425 -0.2495,0 -0.5259,0.27641 -0.6143,0.61425 -0.088,0.33784 -0.3449,0.61425 -0.5702,0.61425 -0.2253,0 -0.5505,0.24186 -0.7227,0.53747 -0.2133,0.3662 -0.316,-22.77944 -0.3224,-72.63501 z m 3.1903,66.69 c 0.2672,-0.10253 0.4858,-0.36963 0.4858,-0.59356 0,-0.22392 0.2694,-0.49261 0.5986,-0.5971 0.3292,-0.10448 0.684,-0.45931 0.7885,-0.7885 0.1045,-0.3292 0.3732,-0.59854 0.5971,-0.59854 0.2239,0 0.491,-0.21862 0.5935,-0.48581 0.1026,-0.26719 0.1864,-4.52394 0.1864,-9.45944 0,-9.15812 -0.067,-9.71074 -1.1789,-9.71074 -0.243,0 -1.1797,0.72558 -2.0814,1.61241 l -1.6395,1.6124 -0.01,9.27526 c -0.01,8.51397 0.037,9.30096 0.5304,9.58831 0.6566,0.38244 0.5458,0.36816 1.1266,0.14531 z m 6.8465,-6.87745 c 0.088,-0.33784 0.3647,-0.61425 0.6142,-0.61425 0.2495,0 0.5226,-0.26364 0.6068,-0.58586 0.084,-0.32222 0.4189,-0.65531 0.7435,-0.74021 0.5686,-0.1487 0.5873,-0.50698 0.5091,-9.7796 l -0.081,-9.62525 -0.8675,-0.0994 c -0.666,-0.0763 -0.9061,0.0485 -1.0339,0.53747 -0.092,0.35027 -0.3707,0.63685 -0.6202,0.63685 -0.2495,0 -0.5259,0.27642 -0.6142,0.61425 -0.088,0.33784 -0.3553,0.61425 -0.5931,0.61425 -0.2379,0 -0.5397,0.31097 -0.6706,0.69103 -0.131,0.38007 -0.1828,4.80267 -0.1152,9.828 l 0.1228,9.13696 0.9194,0 c 0.6611,0 0.9645,-0.17257 1.08,-0.61425 z m 6.135,-6.1141 c 0.084,-0.32222 0.4169,-0.6548 0.7391,-0.73906 0.3222,-0.0843 0.5858,-0.36414 0.5858,-0.62195 0,-0.25781 0.2615,-0.55173 0.5811,-0.65317 0.3196,-0.10144 0.6611,-0.42171 0.7589,-0.71173 0.098,-0.29001 0.3482,-0.76016 0.5565,-1.04477 0.3002,-0.41029 0.2998,-0.66475 0,-1.2285 -0.4411,-0.82437 -0.3903,-15.69033 0.057,-16.60214 0.1909,-0.38942 0.1124,-0.59237 -0.2887,-0.74629 -0.3225,-0.12373 -0.601,-0.0611 -0.6717,0.15098 -0.066,0.1993 -0.3068,0.36238 -0.534,0.36238 -0.4909,0 -2.6069,1.93237 -2.6069,2.38066 0,0.1715 -0.2764,0.3841 -0.6142,0.47245 -0.5976,0.15626 -0.6143,0.41892 -0.6143,9.65906 0,5.22414 0.092,9.59057 0.2048,9.70318 0.4508,0.45083 1.6984,0.19365 1.8487,-0.3811 z m 6.403,-6.51118 c 0.1015,-0.3196 0.3731,-0.58109 0.6037,-0.58109 0.2307,0 0.5071,-0.27641 0.6143,-0.61425 0.1072,-0.33783 0.3836,-0.61424 0.6142,-0.61424 0.2307,0 0.5023,-0.26149 0.6038,-0.58109 0.1014,-0.3196 0.4562,-0.65218 0.7885,-0.73906 0.5837,-0.15266 0.6041,-0.468 0.6041,-9.37535 0,-5.06956 -0.084,-9.43599 -0.1865,-9.70318 -0.3671,-0.95663 -1.4154,-0.45237 -3.6687,1.7647 l -2.2873,2.25052 0,9.2514 c 0,8.2598 0.054,9.28166 0.5043,9.53363 0.7009,0.39224 1.5895,0.10154 1.8096,-0.59199 z m -18.8987,-4.75602 c 0,-0.26919 0.2719,-0.56053 0.6041,-0.64741 0.3322,-0.0869 0.6871,-0.41946 0.7885,-0.73906 0.1014,-0.3196 0.3677,-0.58109 0.5916,-0.58109 0.2239,0 0.491,-0.21861 0.5935,-0.48581 0.2433,-0.63406 0.2433,-18.0503 0,-18.68437 -0.2802,-0.73037 -1.8751,-0.63361 -2.117,0.12844 -0.1072,0.33784 -0.3836,0.61425 -0.6142,0.61425 -0.2306,0 -0.5071,0.27642 -0.6143,0.61425 -0.1072,0.33784 -0.3782,0.61425 -0.6021,0.61425 -0.2239,0 -0.491,0.21861 -0.5935,0.48581 -0.255,0.66442 -0.2375,18.70958 0.018,18.96543 0.1126,0.11261 0.5963,0.20475 1.0749,0.20475 0.5915,0 0.8702,-0.15677 0.8702,-0.48944 z m 25.3917,-1.96756 c 0.5131,0 0.8252,-0.20566 0.9321,-0.61425 0.088,-0.33784 0.3647,-0.61425 0.6142,-0.61425 0.2495,0 0.5226,-0.26364 0.6068,-0.58586 0.084,-0.32222 0.4189,-0.65531 0.7435,-0.74021 0.5687,-0.1487 0.5873,-0.50698 0.5091,-9.7796 l -0.081,-9.62525 -0.8675,-0.0994 c -0.666,-0.0763 -0.9061,0.0485 -1.0339,0.53747 -0.092,0.35027 -0.3707,0.63686 -0.6202,0.63686 -0.2495,0 -0.5259,0.27641 -0.6142,0.61424 -0.088,0.33784 -0.3437,0.61425 -0.5674,0.61425 -0.2237,0 -0.5082,0.1641 -0.6321,0.36467 -0.124,0.20057 -0.1917,4.40705 -0.1504,9.34775 0.054,6.46697 -0.027,9.17365 -0.2892,9.66346 -0.3169,0.59213 -0.2965,0.65442 0.1574,0.48024 0.2868,-0.11007 0.8687,-0.20013 1.293,-0.20013 z m -18.9995,-4.45331 c 0.3672,-0.4223 0.8068,-0.76781 0.9768,-0.76781 0.17,0 0.3091,-0.198 0.3091,-0.43999 0,-0.242 0.2765,-0.52772 0.6143,-0.63495 0.5968,-0.18941 0.6142,-0.46469 0.6142,-9.68432 0,-9.05616 -0.027,-9.50383 -0.592,-9.80619 -0.7211,-0.38596 -1.5578,-0.11183 -1.5578,0.51039 0,0.25112 -0.2764,0.52886 -0.6143,0.61721 -0.3378,0.0883 -0.6142,0.36476 -0.6142,0.61425 0,0.24949 -0.2764,0.5259 -0.6143,0.61425 -0.3557,0.093 -0.6281,0.43635 -0.6471,0.81584 -0.095,1.8924 0.1131,18.50248 0.2342,18.69879 0.2929,0.47499 1.2464,0.20401 1.8911,-0.53747 z m 26.0714,-2.29326 c 0.087,-0.33225 0.4195,-0.68708 0.7391,-0.78851 0.3196,-0.10144 0.581,-0.37312 0.581,-0.60373 0,-0.23061 0.2615,-0.50228 0.5811,-0.60372 0.3196,-0.10144 0.6633,-0.49082 0.7637,-0.86529 0.3267,-1.2188 0.2125,-17.72625 -0.1271,-18.36072 -0.513,-0.95855 -1.2201,-0.70011 -2.9598,1.08181 l -1.6362,1.67586 0,9.35503 c 0,7.19666 0.089,9.39077 0.3839,9.50994 0.8413,0.33947 1.5234,0.17622 1.6743,-0.40067 z m -19.8715,-3.91381 c 0,-0.24949 0.2637,-0.52256 0.5859,-0.60682 0.3222,-0.0843 0.6548,-0.41684 0.7391,-0.73906 0.084,-0.32222 0.3734,-0.58586 0.6426,-0.58586 0.2692,0 0.4894,-0.23098 0.4894,-0.51328 0,-0.28231 0.2358,-0.77376 0.5239,-1.09212 0.4276,-0.47254 0.4558,-0.6877 0.1535,-1.17173 -0.5339,-0.85497 -0.5217,-15.72145 0.014,-16.58526 0.3158,-0.50951 0.3034,-0.66955 -0.07,-0.90167 -0.2982,-0.18554 -0.6139,-0.14217 -0.9213,0.1266 -0.2573,0.22485 -0.7787,0.50359 -1.1588,0.61941 -0.38,0.11582 -0.691,0.39927 -0.691,0.62988 0,0.23061 -0.2764,0.50702 -0.6143,0.61425 -0.3378,0.10723 -0.6142,0.38364 -0.6142,0.61425 0,0.23061 -0.2764,0.50702 -0.6143,0.61425 -0.597,0.1895 -0.6142,0.46469 -0.6142,9.82617 0,8.92395 0.04,9.63967 0.5375,9.74641 0.8483,0.18183 1.6124,-0.10033 1.6124,-0.59542 z m 26.3164,-2.51759 c 0.084,-0.32222 0.4168,-0.6548 0.739,-0.73906 0.3222,-0.0843 0.5859,-0.35733 0.5859,-0.60682 0,-0.24949 0.2764,-0.52591 0.6142,-0.61425 0.3379,-0.0883 0.6143,-0.36476 0.6143,-0.61425 0,-0.24949 0.2784,-0.52642 0.6186,-0.61541 0.6058,-0.1584 0.617,-0.36279 0.5375,-9.78703 l -0.081,-9.62525 -0.8674,-0.0994 c -0.6661,-0.0763 -0.9061,0.0485 -1.034,0.53747 -0.092,0.35027 -0.3006,0.63685 -0.4645,0.63685 -0.1638,0 -1.046,0.76631 -1.9605,1.70292 l -1.6625,1.70292 0,8.86777 c 0,4.87727 0.084,9.08637 0.1864,9.35357 0.2772,0.72234 1.9796,0.644 2.1741,-0.10005 z m -20.0203,-3.71389 c 0.1072,-0.33784 0.3836,-0.61425 0.6142,-0.61425 0.2307,0 0.5071,-0.27641 0.6143,-0.61425 0.1072,-0.33784 0.3836,-0.61425 0.6142,-0.61425 0.2307,0 0.5071,-0.27641 0.6143,-0.61425 0.1072,-0.33784 0.3903,-0.61425 0.6291,-0.61425 0.2388,0 0.51,-0.31096 0.6028,-0.69103 0.093,-0.38007 0.1299,-4.76811 0.083,-9.75121 l -0.086,-9.06018 -0.9719,-0.0943 c -0.7583,-0.0736 -1.016,0.0446 -1.1724,0.53746 -0.1103,0.34747 -0.3892,0.63175 -0.6198,0.63175 -0.2306,0 -0.5071,0.27642 -0.6143,0.61425 -0.1072,0.33784 -0.3836,0.61425 -0.6142,0.61425 -0.2306,0 -0.5071,0.27641 -0.6143,0.61425 -0.1072,0.33784 -0.3781,0.61425 -0.6021,0.61425 -0.2239,0 -0.491,0.21861 -0.5935,0.48581 -0.1025,0.26719 -0.1864,4.47118 -0.1864,9.34218 0,4.87101 0.084,9.075 0.1864,9.34219 0.2803,0.73037 1.8751,0.63361 2.117,-0.12844 z m 25.841,-2.61056 c 0.097,-0.25338 0.4513,-0.46069 0.7869,-0.46069 0.3519,0 0.6781,-0.26003 0.7708,-0.61425 0.088,-0.33784 0.3647,-0.61425 0.6142,-0.61425 0.2495,0 0.5226,-0.26364 0.6068,-0.58586 0.084,-0.32222 0.4169,-0.65479 0.7391,-0.73905 0.5608,-0.14665 0.5859,-0.56827 0.5859,-9.85639 l 0,-9.70318 -0.9502,0 c -0.6918,0 -0.9938,0.16698 -1.1107,0.61425 -0.088,0.33783 -0.3648,0.61425 -0.6143,0.61425 -0.2495,0 -0.5259,0.27641 -0.6142,0.61424 -0.088,0.33784 -0.3553,0.61425 -0.5931,0.61425 -0.2379,0 -0.5669,0.31097 -0.7313,0.69104 -0.1643,0.38006 -0.466,0.9248 -0.6705,1.21052 -0.3004,0.41975 -0.271,0.63076 0.1528,1.09911 0.4645,0.51319 0.5246,1.43674 0.5246,8.05583 0,6.46306 -0.067,7.55075 -0.4979,8.0264 -0.2739,0.30262 -0.4165,0.76267 -0.3168,1.02234 0.232,0.60471 1.0874,0.61213 1.3179,0.0114 l 0,2e-5 z m -43.6476,-3.34512 1.6825,-1.65592 0,-9.07151 c 0,-7.83732 -0.066,-9.13716 -0.4826,-9.55412 -0.2654,-0.26545 -0.6011,-0.48263 -0.7459,-0.48263 -0.3341,0 -1.2284,0.88428 -1.2284,1.21462 0,0.13715 -0.2765,0.32165 -0.6143,0.41 -0.3378,0.0883 -0.6142,0.36476 -0.6142,0.61425 0,0.24949 -0.2765,0.5259 -0.6143,0.61424 -0.597,0.15613 -0.6142,0.41893 -0.6142,9.37801 0,5.06956 0.084,9.43599 0.1864,9.70318 0.3411,0.88889 1.3446,0.50323 3.045,-1.17012 z m 24.8453,-0.98749 c 0.2672,-0.10253 0.4859,-0.36963 0.4859,-0.59355 0,-0.22392 0.2764,-0.49486 0.6142,-0.60209 0.3378,-0.10723 0.6143,-0.38364 0.6143,-0.61425 0,-0.23061 0.2764,-0.50702 0.6142,-0.61425 0.597,-0.18949 0.6143,-0.46469 0.6143,-9.81583 0,-8.63568 -0.052,-9.64068 -0.504,-9.81426 -0.6894,-0.26456 -1.6459,0.0774 -1.6459,0.58836 0,0.23061 -0.2615,0.50228 -0.5811,0.60372 -0.3196,0.10144 -0.6522,0.45627 -0.7391,0.78851 -0.087,0.33224 -0.3444,0.60408 -0.5722,0.60408 -0.5674,0 -1.2098,2.1324 -0.8468,2.8107 0.1552,0.29001 0.2822,4.19884 0.2822,8.68629 0,7.83828 0.023,8.15899 0.5891,8.15899 0.324,0 0.8078,-0.0839 1.0749,-0.18642 z m 26.1057,-2.457 c 0.2671,-0.10253 0.4858,-0.36963 0.4858,-0.59355 0,-0.22392 0.2693,-0.49262 0.5985,-0.5971 0.3292,-0.10448 0.684,-0.45931 0.7885,-0.78851 0.1045,-0.3292 0.3732,-0.59854 0.5971,-0.59854 0.2239,0 0.491,-0.21861 0.5936,-0.48581 0.3308,-0.86215 0.2099,-17.93809 -0.1315,-18.57611 -0.5053,-0.94403 -1.187,-0.7081 -2.9425,1.01834 l -1.6395,1.61241 -0.01,9.27526 c -0.01,8.51397 0.037,9.30096 0.5304,9.58831 0.6566,0.38244 0.5459,0.36816 1.1266,0.1453 l 0,0 z m -45.4513,-2.0765 c 0.6033,-0.56893 1.0968,-1.17474 1.0968,-1.34624 0,-0.1715 0.2784,-0.38462 0.6187,-0.4736 0.6058,-0.15841 0.617,-0.36279 0.5375,-9.78703 l -0.081,-9.62525 -0.8675,-0.0994 c -0.666,-0.0763 -0.9061,0.0485 -1.0339,0.53747 -0.092,0.35027 -0.3707,0.63686 -0.6202,0.63686 -0.2495,0 -0.5259,0.27641 -0.6142,0.61425 -0.088,0.33783 -0.3437,0.61425 -0.5674,0.61425 -0.2237,0 -0.5106,0.16803 -0.6375,0.3734 -0.127,0.20538 -0.1934,4.59193 -0.1477,9.74791 0.095,10.75541 0.1262,10.87318 2.3166,8.80737 z m 25.974,-2.21914 c 0,-0.26919 0.2764,-0.56172 0.6142,-0.65007 0.3378,-0.0883 0.6142,-0.36476 0.6142,-0.61425 0,-0.24949 0.2637,-0.52256 0.5859,-0.60682 0.3222,-0.0843 0.6659,-0.45139 0.7636,-0.81584 0.2376,-0.88554 0.2373,-17.83163 -2e-4,-18.45075 -0.2803,-0.73037 -1.8752,-0.63361 -2.1171,0.12844 -0.1072,0.33784 -0.3972,0.61425 -0.6445,0.61425 -0.2473,0 -0.5399,0.24186 -0.6502,0.53747 -0.1102,0.2956 -0.4514,0.71806 -0.7581,0.93878 -0.5178,0.37257 -0.5577,1.06775 -0.5577,9.70003 0,5.11429 0.092,9.39084 0.2047,9.50345 0.1126,0.11261 0.5964,0.20475 1.075,0.20475 0.5914,0 0.8702,-0.15676 0.8702,-0.48944 z m -20.0521,-3.8103 c 0.088,-0.33784 0.3647,-0.61425 0.6142,-0.61425 0.2495,0 0.5259,-0.27642 0.6143,-0.61425 0.088,-0.33784 0.3552,-0.61425 0.593,-0.61425 0.2379,0 0.5759,-0.37726 0.7513,-0.83835 0.1753,-0.46108 0.4828,-0.94059 0.6834,-1.06556 0.2798,-0.17432 0.2753,-0.37145 -0.019,-0.84668 -0.5403,-0.87173 -0.5472,-15.73098 -0.01,-16.59478 0.567,-0.90798 -0.1433,-1.53803 -0.9306,-0.82547 -0.3129,0.28317 -0.8128,0.51485 -1.111,0.51485 -0.2981,0 -0.6143,0.27641 -0.7026,0.61425 -0.088,0.33784 -0.3648,0.61425 -0.6143,0.61425 -0.2495,0 -0.5225,0.26364 -0.6068,0.58586 -0.084,0.32222 -0.4168,0.65479 -0.7391,0.73906 -0.5604,0.14656 -0.5858,0.56495 -0.5858,9.65163 0,5.22414 0.092,9.59057 0.2047,9.70318 0.4642,0.46419 1.6989,0.19179 1.8562,-0.40949 z m 26.1945,-2.10433 c 0,-0.37229 1.7876,-2.19542 2.1526,-2.19542 0.1674,0 0.3044,-0.13261 0.3044,-0.2947 0,-0.16208 0.3476,-0.61699 0.7725,-1.01091 l 0.7724,-0.71622 -0.081,-9.35455 -0.081,-9.35454 -0.9581,-0.0933 c -0.7517,-0.0732 -0.9935,0.0426 -1.1229,0.53747 -0.091,0.34689 -0.3691,0.63071 -0.6186,0.63071 -0.2495,0 -0.5259,0.27642 -0.6142,0.61425 -0.088,0.33784 -0.3809,0.61425 -0.6501,0.61425 -0.2692,0 -0.4894,0.21165 -0.4894,0.47033 0,0.25868 -0.2419,0.55956 -0.5375,0.66863 -0.2956,0.10906 -0.639,0.34659 -0.7631,0.52783 -0.2703,0.39476 -0.3161,18.03486 -0.049,18.73189 0.1932,0.50365 1.9634,0.70581 1.9634,0.22423 z m -18.2577,-5.67443 2.2873,-2.25052 0,-9.25586 c 0,-8.83666 -0.027,-9.27026 -0.5941,-9.57379 -0.3267,-0.17486 -0.6584,-0.31793 -0.7371,-0.31793 -0.2645,0 -2.3543,2.20827 -2.3543,2.48771 0,0.15203 -0.198,0.27642 -0.44,0.27642 -0.242,0 -0.523,0.26148 -0.6245,0.58109 -0.1014,0.3196 -0.4562,0.65217 -0.7885,0.73905 -0.5839,0.15272 -0.604,0.46866 -0.604,9.49261 0,11.64927 -0.012,11.62578 3.8552,7.82122 z m 24.2785,-0.94658 c 0.091,-0.23814 0.5017,-0.51718 0.9118,-0.6201 0.41,-0.10293 0.7456,-0.3825 0.7456,-0.62127 0,-0.23878 0.2764,-0.52187 0.6142,-0.6291 0.3379,-0.10723 0.6143,-0.40589 0.6143,-0.6637 0,-0.25781 0.2764,-0.54102 0.6142,-0.62937 0.5977,-0.15631 0.6143,-0.41893 0.6143,-9.76638 0,-8.62166 -0.052,-9.62556 -0.504,-9.79914 -0.6894,-0.26456 -1.6459,0.0774 -1.6459,0.58836 0,0.23061 -0.2764,0.50702 -0.6143,0.61425 -0.3378,0.10722 -0.6142,0.38364 -0.6142,0.61425 0,0.23061 -0.2764,0.50702 -0.6143,0.61425 -0.3378,0.10722 -0.6142,0.40534 -0.6142,0.66249 0,0.25715 -0.304,0.71371 -0.6756,1.01458 -0.6478,0.52454 -0.6542,0.57955 -0.1574,1.33774 0.7623,1.16345 1.1038,15.26629 0.3841,15.86358 -0.4864,0.40368 -0.6297,1.28577 -0.2677,1.64778 0.3526,0.35265 1.0357,0.22372 1.2091,-0.22822 z m -44.2885,-2.82256 c 0.6081,-0.6081 1.1056,-1.23003 1.1056,-1.38206 0,-0.15202 0.1926,-0.27641 0.4279,-0.27641 0.2353,0 0.5117,-0.21861 0.6142,-0.48581 0.1026,-0.26719 0.1864,-4.52394 0.1864,-9.45944 0,-9.15811 -0.067,-9.71073 -1.1789,-9.71073 -0.243,0 -1.1797,0.72558 -2.0814,1.6124 l -1.6395,1.61241 -0.01,9.27526 c -0.01,8.51397 0.037,9.30096 0.5304,9.58831 0.7819,0.45546 0.8319,0.43653 2.0424,-0.77393 z m 25.4453,-1.71176 c 0.2956,-0.15149 0.5375,-0.47789 0.5375,-0.72533 0,-0.24743 0.2202,-0.44988 0.4894,-0.44988 0.2692,0 0.5584,-0.26363 0.6426,-0.58585 0.084,-0.32222 0.4189,-0.65532 0.7435,-0.74021 0.5687,-0.14871 0.5873,-0.50698 0.5091,-9.77961 l -0.081,-9.62525 -0.8675,-0.0994 c -0.6548,-0.075 -0.9064,0.0497 -1.0265,0.50908 -0.088,0.33465 -0.4228,0.6774 -0.745,0.76166 -0.3222,0.0843 -0.5858,0.36332 -0.5858,0.62013 0,0.2568 -0.2241,0.5116 -0.4979,0.56622 -0.72,0.1436 -1.2787,2.03272 -0.9612,3.25024 0.3322,1.27375 0.1612,15.70539 -0.1948,16.44386 -0.2344,0.48634 -0.16,0.52754 0.6169,0.34142 0.4859,-0.1164 1.1253,-0.3356 1.4209,-0.48709 z m 26.6431,-2.89315 c 0,-0.26919 0.2764,-0.56172 0.6142,-0.65007 0.3378,-0.0883 0.6143,-0.35615 0.6143,-0.59513 0,-0.23898 0.2418,-0.52374 0.5374,-0.63281 0.2956,-0.10907 0.639,-0.34659 0.7631,-0.52783 0.2703,-0.39476 0.3161,-18.03486 0.049,-18.73189 -0.2802,-0.73037 -1.8751,-0.63361 -2.117,0.12844 -0.1072,0.33784 -0.3836,0.61425 -0.6142,0.61425 -0.2306,0 -0.5071,0.27641 -0.6143,0.61425 -0.1072,0.33784 -0.3781,0.61425 -0.6021,0.61425 -0.2239,0 -0.491,0.21861 -0.5935,0.4858 -0.255,0.66443 -0.2375,18.70958 0.018,18.96543 0.1126,0.11262 0.5963,0.20475 1.0749,0.20475 0.5915,0 0.8702,-0.15676 0.8702,-0.48944 z m -46.1577,-1.35331 c 0.088,-0.33783 0.3647,-0.61425 0.6142,-0.61425 0.2495,0 0.5226,-0.26363 0.6068,-0.58585 0.084,-0.32222 0.4189,-0.65532 0.7435,-0.74021 0.5686,-0.14871 0.5873,-0.50698 0.5091,-9.77961 l -0.081,-9.62525 -0.8675,-0.0994 c -0.666,-0.0763 -0.9061,0.0485 -1.0339,0.53747 -0.092,0.35027 -0.3707,0.63685 -0.6202,0.63685 -0.2495,0 -0.5259,0.27641 -0.6142,0.61425 -0.088,0.33784 -0.3553,0.61425 -0.5931,0.61425 -0.2379,0 -0.5397,0.31096 -0.6706,0.69103 -0.131,0.38007 -0.1828,4.80266 -0.1152,9.82799 l 0.1228,9.13696 0.9194,0 c 0.6611,0 0.9645,-0.17256 1.08,-0.61425 z m 26.0981,-2.4286 c 0.084,-0.32222 0.4169,-0.6548 0.7391,-0.73906 0.3222,-0.0843 0.5858,-0.37345 0.5858,-0.64264 0,-0.26919 0.2025,-0.48944 0.4499,-0.48944 0.9837,0 1.0955,-1.14208 1.0136,-10.35384 l -0.081,-9.14859 -1.0214,-0.098 c -0.8196,-0.0786 -1.0542,0.0276 -1.1875,0.53747 -0.091,0.34949 -0.3703,0.63544 -0.6198,0.63544 -0.2495,0 -0.5226,0.26364 -0.6068,0.58586 -0.084,0.32222 -0.4169,0.65479 -0.7391,0.73906 -0.5605,0.14656 -0.5859,0.56495 -0.5859,9.65163 0,5.22414 0.092,9.59057 0.2048,9.70318 0.4508,0.45083 1.6984,0.19365 1.8487,-0.3811 z m -19.9631,-3.6855 c 0.084,-0.32222 0.4169,-0.65479 0.7391,-0.73906 0.3222,-0.0843 0.5858,-0.37345 0.5858,-0.64264 0,-0.26919 0.2108,-0.48944 0.4683,-0.48944 0.2576,0 0.6028,-0.31096 0.7671,-0.69103 0.1643,-0.38007 0.4655,-0.92389 0.6693,-1.20851 0.2898,-0.40487 0.2876,-0.67219 -0.01,-1.22849 -0.4411,-0.82438 -0.3903,-15.69033 0.057,-16.60215 0.1909,-0.38942 0.1123,-0.59237 -0.2888,-0.74628 -0.3224,-0.12373 -0.601,-0.0611 -0.6717,0.15097 -0.066,0.19931 -0.3067,0.36238 -0.534,0.36238 -0.4909,0 -2.6068,1.93237 -2.6068,2.38066 0,0.1715 -0.2764,0.38411 -0.6143,0.47245 -0.5975,0.15626 -0.6142,0.41892 -0.6142,9.65906 0,5.22414 0.092,9.59058 0.2047,9.70319 0.4509,0.45083 1.6984,0.19364 1.8487,-0.38111 z m 27.938,-4.1722 2.2567,-2.30106 0,-9.1547 c 0,-6.71081 -0.098,-9.25307 -0.3686,-9.52324 -0.5684,-0.56841 -1.5139,-0.43662 -1.6897,0.23553 -0.087,0.33225 -0.4194,0.68707 -0.739,0.78851 -0.3196,0.10144 -0.5811,0.38243 -0.5811,0.62442 0,0.24199 -0.1244,0.43999 -0.2764,0.43999 -0.152,0 -0.774,0.49754 -1.3821,1.10565 l -1.1056,1.10565 0,8.8961 c 0,8.99106 0.1227,10.08421 1.1324,10.08421 0.2732,0 1.5122,-1.03548 2.7534,-2.30106 z m -21.8746,-1.86706 c 0.2655,-0.26544 0.4827,-0.61096 0.4827,-0.76781 0,-0.15686 0.198,-0.28519 0.44,-0.28519 0.2419,0 0.5277,-0.27641 0.6349,-0.61425 0.1072,-0.33784 0.3836,-0.61425 0.6142,-0.61425 0.2307,0 0.5023,-0.26149 0.6038,-0.58109 0.1014,-0.3196 0.4562,-0.65218 0.7885,-0.73906 0.584,-0.15271 0.6041,-0.46866 0.6041,-9.4926 0,-11.65136 0.023,-11.60484 -3.8415,-7.81503 l -2.301,2.25671 0,9.24521 c 0,8.48096 0.044,9.27109 0.5374,9.55826 0.7283,0.42419 0.8775,0.40853 1.4369,-0.1509 z m 26.1924,-2.84658 c 0.3022,-0.31079 0.7913,-0.65197 1.0869,-0.75817 0.2956,-0.1062 0.5375,-0.38862 0.5375,-0.6276 0,-0.23898 0.2764,-0.50679 0.6142,-0.59514 0.3379,-0.0883 0.6143,-0.36476 0.6143,-0.61425 0,-0.24949 0.2784,-0.52642 0.6186,-0.6154 0.6058,-0.15841 0.617,-0.36279 0.5375,-9.78703 l -0.081,-9.62525 -0.8674,-0.0994 c -0.6661,-0.0763 -0.9061,0.0485 -1.034,0.53747 -0.092,0.35027 -0.3707,0.63686 -0.6202,0.63686 -0.2495,0 -0.5259,0.27641 -0.6142,0.61425 -0.088,0.33783 -0.3553,0.61425 -0.5931,0.61425 -0.2379,0 -0.5639,0.34551 -0.7244,0.76781 -0.1606,0.42229 -0.4188,0.76781 -0.5738,0.76781 -0.5497,0 -0.6618,1.01841 -0.1911,1.73669 0.7241,1.1052 0.6924,14.81869 -0.037,15.93172 -0.4023,0.61397 -0.4253,0.85142 -0.1184,1.2213 0.4978,0.59977 0.7795,0.57913 1.4456,-0.10593 z m -44.7515,-2.38136 c 0,-0.26919 0.2719,-0.56053 0.6041,-0.64741 0.3322,-0.0869 0.6871,-0.41946 0.7885,-0.73906 0.1014,-0.3196 0.3677,-0.58109 0.5916,-0.58109 0.2239,0 0.491,-0.21861 0.5935,-0.4858 0.2433,-0.63407 0.2433,-18.05031 0,-18.68437 -0.2802,-0.73037 -1.8751,-0.63361 -2.117,0.12844 -0.1072,0.33784 -0.3836,0.61425 -0.6142,0.61425 -0.2306,0 -0.5071,0.27641 -0.6143,0.61425 -0.1072,0.33783 -0.3782,0.61425 -0.6021,0.61425 -0.2239,0 -0.491,0.21861 -0.5935,0.4858 -0.255,0.66443 -0.2375,18.70958 0.018,18.96543 0.1126,0.11261 0.5963,0.20475 1.0749,0.20475 0.5915,0 0.8702,-0.15676 0.8702,-0.48944 z m 25.3917,-1.96756 c 0.5131,0 0.8252,-0.20566 0.9321,-0.61425 0.088,-0.33783 0.3647,-0.61425 0.6142,-0.61425 0.2495,0 0.5226,-0.26363 0.6068,-0.58585 0.084,-0.32222 0.4189,-0.65532 0.7435,-0.74021 0.5687,-0.14871 0.5873,-0.50698 0.5091,-9.77961 l -0.081,-9.62525 -0.8675,-0.0994 c -0.666,-0.0763 -0.9061,0.0485 -1.0339,0.53747 -0.092,0.35027 -0.3707,0.63685 -0.6202,0.63685 -0.2495,0 -0.5259,0.27641 -0.6142,0.61425 -0.088,0.33784 -0.3437,0.61425 -0.5674,0.61425 -0.2237,0 -0.5082,0.1641 -0.6321,0.36467 -0.124,0.20056 -0.1917,4.40705 -0.1504,9.34774 0.054,6.46697 -0.027,9.17365 -0.2892,9.66346 -0.3169,0.59213 -0.2965,0.65442 0.1574,0.48025 0.2868,-0.11008 0.8687,-0.20014 1.293,-0.20014 z m 27.0377,-3.07124 c 0.088,-0.33784 0.3009,-0.61425 0.4724,-0.61425 0.1715,0 0.7793,-0.4957 1.3507,-1.10154 l 1.0389,-1.10154 -0.081,-9.26392 -0.081,-9.26392 -0.9719,-0.0943 c -0.7582,-0.0735 -1.016,0.0446 -1.1724,0.53747 -0.1103,0.34746 -0.4115,0.63175 -0.6693,0.63175 -0.2578,0 -0.5376,0.26364 -0.6219,0.58586 -0.084,0.32222 -0.4168,0.65479 -0.7391,0.73906 -0.5604,0.14656 -0.5858,0.56495 -0.5858,9.65163 0,5.22414 0.092,9.59057 0.2047,9.70318 0.4642,0.46419 1.6989,0.19179 1.8562,-0.40949 z m -46.0372,-1.38207 c 0.3672,-0.42229 0.8068,-0.76781 0.9768,-0.76781 0.17,0 0.3091,-0.19799 0.3091,-0.43999 0,-0.24199 0.2765,-0.52772 0.6143,-0.63494 0.5968,-0.18941 0.6142,-0.46469 0.6142,-9.67987 0,-8.47633 -0.054,-9.51492 -0.5043,-9.76714 -0.671,-0.37555 -1.6455,-0.0973 -1.6455,0.46984 0,0.24949 -0.2764,0.52591 -0.6143,0.61425 -0.3378,0.0883 -0.6142,0.36476 -0.6142,0.61425 0,0.24949 -0.2764,0.5259 -0.6143,0.61425 -0.3557,0.093 -0.6281,0.43636 -0.6471,0.81584 -0.095,1.8924 0.1131,18.50249 0.2342,18.69879 0.2929,0.475 1.2464,0.20401 1.8911,-0.53747 z m 26.0714,-2.29326 c 0.087,-0.33224 0.4195,-0.68707 0.7391,-0.78851 0.3196,-0.10144 0.581,-0.37311 0.581,-0.60372 0,-0.23061 0.2615,-0.50229 0.5811,-0.60373 0.3196,-0.10143 0.6633,-0.49081 0.7637,-0.86529 0.3267,-1.21879 0.2125,-17.72624 -0.1271,-18.36072 -0.513,-0.95855 -1.2201,-0.70011 -2.9598,1.08181 l -1.6362,1.67587 0,9.35503 c 0,7.19665 0.089,9.39077 0.3839,9.50994 0.8413,0.33946 1.5234,0.17622 1.6743,-0.40068 z m -20.3097,-3.31646 c 0.1812,-0.12411 0.4187,-0.46751 0.5278,-0.76311 0.1091,-0.29561 0.3938,-0.53747 0.6328,-0.53747 0.239,0 0.5068,-0.27641 0.5951,-0.61425 0.088,-0.33784 0.3809,-0.61425 0.6501,-0.61425 0.2692,0 0.4894,-0.23098 0.4894,-0.51329 0,-0.2823 0.2358,-0.77375 0.5239,-1.09211 0.4276,-0.47255 0.4558,-0.68771 0.1535,-1.17174 -0.5339,-0.85496 -0.5217,-15.72145 0.014,-16.58526 0.3158,-0.50951 0.3034,-0.66954 -0.07,-0.90167 -0.2982,-0.18554 -0.6139,-0.14217 -0.9213,0.12661 -0.2573,0.22485 -0.7787,0.50358 -1.1588,0.61941 -0.38,0.11582 -0.691,0.39926 -0.691,0.62988 0,0.23061 -0.2764,0.50702 -0.6143,0.61425 -0.3378,0.10722 -0.6142,0.38363 -0.6142,0.61424 0,0.23062 -0.2764,0.50703 -0.6143,0.61425 -0.597,0.1895 -0.6142,0.46469 -0.6142,9.82617 0,10.20028 -0.064,9.68278 1.2285,9.94305 0.085,0.017 0.3018,-0.0706 0.4831,-0.19471 z m 26.6869,-3.11017 c 0.1014,-0.3196 0.4562,-0.65218 0.7885,-0.73906 0.3322,-0.0869 0.6041,-0.3621 0.6041,-0.61159 0,-0.24949 0.2764,-0.5259 0.6142,-0.61425 0.3379,-0.0883 0.6143,-0.36476 0.6143,-0.61425 0,-0.24949 0.2784,-0.52642 0.6186,-0.6154 0.6058,-0.15841 0.617,-0.36279 0.5375,-9.78703 l -0.081,-9.62525 -0.8674,-0.0994 c -0.6661,-0.0763 -0.9061,0.0485 -1.034,0.53747 -0.092,0.35027 -0.3006,0.63686 -0.4645,0.63686 -0.1638,0 -1.046,0.76631 -1.9605,1.70292 l -1.6625,1.70292 0,8.86776 c 0,4.87727 0.084,9.08638 0.1864,9.35357 0.2721,0.70901 1.8742,0.63655 2.1065,-0.0953 z m -19.9526,-3.71866 c 0.1072,-0.33784 0.3836,-0.61425 0.6142,-0.61425 0.2307,0 0.5071,-0.27641 0.6143,-0.61425 0.1072,-0.33783 0.3836,-0.61425 0.6142,-0.61425 0.2307,0 0.5071,-0.27641 0.6143,-0.61425 0.1072,-0.33783 0.3903,-0.61425 0.6291,-0.61425 0.2388,0 0.51,-0.31096 0.6028,-0.69103 0.093,-0.38006 0.1299,-4.76811 0.083,-9.75121 l -0.086,-9.06018 -0.9719,-0.0943 c -0.7583,-0.0736 -1.016,0.0446 -1.1724,0.53747 -0.1103,0.34746 -0.3892,0.63175 -0.6198,0.63175 -0.2306,0 -0.5071,0.27641 -0.6143,0.61425 -0.1072,0.33784 -0.3836,0.61425 -0.6142,0.61425 -0.2306,0 -0.5071,0.27641 -0.6143,0.61425 -0.1072,0.33783 -0.3781,0.61425 -0.6021,0.61425 -0.2239,0 -0.491,0.21861 -0.5935,0.4858 -0.1025,0.2672 -0.1864,4.47118 -0.1864,9.34219 0,4.87101 0.084,9.07499 0.1864,9.34218 0.2803,0.73037 1.8751,0.63361 2.117,-0.12844 z m 25.841,-2.61056 c 0.097,-0.25338 0.4513,-0.46069 0.7869,-0.46069 0.3519,0 0.6781,-0.26003 0.7708,-0.61425 0.088,-0.33783 0.3647,-0.61424 0.6142,-0.61424 0.2495,0 0.5226,-0.26364 0.6068,-0.58586 0.084,-0.32222 0.4169,-0.6548 0.7391,-0.73906 0.5608,-0.14665 0.5859,-0.56826 0.5859,-9.85639 l 0,-9.70318 -0.9502,0 c -0.6918,0 -0.9938,0.16699 -1.1107,0.61425 -0.088,0.33784 -0.3648,0.61425 -0.6143,0.61425 -0.2495,0 -0.5259,0.27641 -0.6142,0.61425 -0.088,0.33784 -0.3553,0.61425 -0.5931,0.61425 -0.2379,0 -0.5669,0.31096 -0.7313,0.69103 -0.1643,0.38007 -0.466,0.9248 -0.6705,1.21052 -0.3004,0.41976 -0.271,0.63077 0.1528,1.09912 0.4645,0.51318 0.5246,1.43674 0.5246,8.05582 0,6.46307 -0.067,7.55075 -0.4979,8.0264 -0.2739,0.30262 -0.4165,0.76267 -0.3168,1.02234 0.232,0.60471 1.0874,0.61214 1.3179,0.0114 l 0,1e-5 z m -43.6476,-3.34511 1.6825,-1.65593 0,-8.91476 c 0,-4.90311 -0.084,-9.13337 -0.1864,-9.40056 -0.272,-0.70901 -1.8742,-0.63654 -2.1065,0.0953 -0.1014,0.3196 -0.4562,0.65218 -0.7885,0.73906 -0.3322,0.0869 -0.604,0.3621 -0.604,0.61159 0,0.24949 -0.2765,0.5259 -0.6143,0.61425 -0.597,0.15613 -0.6142,0.41892 -0.6142,9.37801 0,5.06955 0.084,9.43599 0.1864,9.70318 0.3411,0.88888 1.3446,0.50323 3.045,-1.17012 z m 24.8453,-0.98749 c 0.2672,-0.10254 0.4859,-0.36964 0.4859,-0.59356 0,-0.22392 0.2764,-0.49486 0.6142,-0.60208 0.3378,-0.10723 0.6143,-0.38364 0.6143,-0.61425 0,-0.23061 0.2764,-0.50703 0.6142,-0.61425 0.597,-0.18949 0.6143,-0.46469 0.6143,-9.81583 0,-8.63568 -0.052,-9.64068 -0.504,-9.81426 -0.6894,-0.26456 -1.6459,0.0773 -1.6459,0.58835 0,0.23061 -0.2615,0.50229 -0.5811,0.60373 -0.3196,0.10143 -0.6522,0.45626 -0.7391,0.7885 -0.087,0.33225 -0.3444,0.60408 -0.5722,0.60408 -0.5674,0 -1.2098,2.1324 -0.8468,2.8107 0.1552,0.29001 0.2822,4.19884 0.2822,8.68629 0,7.83829 0.023,8.159 0.5891,8.159 0.324,0 0.8078,-0.0839 1.0749,-0.18642 z m 26.1057,-2.457 c 0.2671,-0.10253 0.4858,-0.36963 0.4858,-0.59356 0,-0.22392 0.2764,-0.49486 0.6142,-0.60208 0.3378,-0.10723 0.6143,-0.39295 0.6143,-0.63495 0,-0.24199 0.1283,-0.43999 0.2851,-0.43999 0.1569,0 0.5024,-0.21718 0.7679,-0.48262 0.4165,-0.41656 0.4826,-1.70166 0.4826,-9.3875 0,-5.55103 -0.1198,-9.12861 -0.3179,-9.49893 -0.5053,-0.94402 -1.187,-0.70809 -2.9425,1.01835 l -1.6395,1.6124 -0.01,9.27526 c -0.01,8.51397 0.037,9.30096 0.5304,9.58831 0.6566,0.38244 0.5459,0.36816 1.1266,0.14531 l 0,0 z m -45.4513,-2.0765 c 0.6033,-0.56893 1.0968,-1.17474 1.0968,-1.34624 0,-0.1715 0.2784,-0.38462 0.6187,-0.47361 0.6058,-0.1584 0.617,-0.36279 0.5375,-9.78703 l -0.081,-9.62525 -0.8675,-0.0994 c -0.666,-0.0763 -0.9061,0.0485 -1.0339,0.53747 -0.092,0.35027 -0.3707,0.63685 -0.6202,0.63685 -0.2495,0 -0.5247,0.27184 -0.6116,0.60408 -0.087,0.33224 -0.4194,0.68707 -0.739,0.78851 -0.7006,0.22233 -0.661,-0.48427 -0.5843,10.43171 0.072,10.23435 0.1124,10.38169 2.2847,8.33289 z m 25.974,-2.21914 c 0,-0.26919 0.2636,-0.55838 0.5858,-0.64265 0.3222,-0.0843 0.6548,-0.41684 0.7391,-0.73906 0.084,-0.32222 0.3573,-0.58585 0.6068,-0.58585 0.2495,0 0.5369,-0.31096 0.6388,-0.69103 0.2427,-0.90563 0.2493,-17.84824 0.01,-18.47915 -0.2803,-0.73037 -1.8752,-0.63361 -2.117,0.12844 -0.1072,0.33784 -0.4059,0.61425 -0.6637,0.61425 -0.2578,0 -0.5377,0.26364 -0.622,0.58586 -0.084,0.32222 -0.4168,0.6548 -0.739,0.73906 -0.5605,0.14656 -0.5859,0.56495 -0.5859,9.65163 0,5.22414 0.092,9.59058 0.2048,9.70319 0.1126,0.11261 0.5963,0.20475 1.0749,0.20475 0.5915,0 0.8702,-0.15677 0.8702,-0.48944 z m -20.0521,-3.81031 c 0.088,-0.33784 0.3647,-0.61425 0.6142,-0.61425 0.2495,0 0.5259,-0.27641 0.6143,-0.61425 0.088,-0.33784 0.3552,-0.61425 0.593,-0.61425 0.2379,0 0.5759,-0.37725 0.7513,-0.83834 0.1753,-0.46109 0.4828,-0.94059 0.6834,-1.06557 0.2798,-0.17431 0.2753,-0.37145 -0.019,-0.84667 -0.5403,-0.87173 -0.5472,-15.73098 -0.01,-16.59478 0.567,-0.90798 -0.1433,-1.53803 -0.9306,-0.82548 -0.3129,0.28317 -0.8128,0.51486 -1.111,0.51486 -0.2981,0 -0.6143,0.27641 -0.7026,0.61425 -0.088,0.33783 -0.3648,0.61425 -0.6143,0.61425 -0.2495,0 -0.5225,0.26363 -0.6068,0.58585 -0.084,0.32222 -0.4168,0.6548 -0.7391,0.73906 -0.5604,0.14656 -0.5858,0.56495 -0.5858,9.65164 0,5.22414 0.092,9.59057 0.2047,9.70318 0.4642,0.46418 1.6989,0.19178 1.8562,-0.4095 z m 26.3481,-2.457 c 0.1072,-0.33783 0.3836,-0.61425 0.6143,-0.61425 0.2306,0 0.507,-0.27641 0.6142,-0.61425 0.1072,-0.33783 0.393,-0.61425 0.635,-0.61425 0.2419,0 0.4399,-0.13261 0.4399,-0.29469 0,-0.16208 0.3476,-0.617 0.7725,-1.01092 l 0.7724,-0.71622 -0.081,-9.35454 -0.081,-9.35455 -0.9581,-0.0932 c -0.7517,-0.0732 -0.9935,0.0426 -1.1229,0.53746 -0.091,0.3469 -0.3691,0.63072 -0.6186,0.63072 -0.2495,0 -0.5259,0.27641 -0.6142,0.61425 -0.088,0.33784 -0.3809,0.61425 -0.6501,0.61425 -0.2692,0 -0.4894,0.21164 -0.4894,0.47032 0,0.25868 -0.2419,0.55957 -0.5375,0.66863 -0.2956,0.10907 -0.639,0.34659 -0.7631,0.52783 -0.2703,0.39477 -0.3161,18.03486 -0.049,18.73189 0.2802,0.73038 1.8751,0.63361 2.117,-0.12844 z m -18.4113,-5.32176 2.2873,-2.25051 0,-9.25586 c 0,-8.83667 -0.027,-9.27026 -0.5941,-9.57379 -0.3267,-0.17486 -0.6584,-0.31793 -0.7371,-0.31793 -0.2645,0 -2.3543,2.20827 -2.3543,2.48771 0,0.15203 -0.198,0.27641 -0.44,0.27641 -0.242,0 -0.523,0.26149 -0.6245,0.58109 -0.1014,0.3196 -0.4562,0.65218 -0.7885,0.73906 -0.5839,0.15271 -0.604,0.46866 -0.604,9.4926 0,11.64927 -0.012,11.62579 3.8552,7.82122 z m 24.2785,-0.94658 c 0.091,-0.23813 0.5017,-0.51718 0.9118,-0.6201 0.41,-0.10292 0.7456,-0.38249 0.7456,-0.62127 0,-0.23878 0.2615,-0.51713 0.5811,-0.61857 0.3196,-0.10144 0.6521,-0.45626 0.739,-0.78851 0.087,-0.33224 0.3782,-0.60408 0.6474,-0.60408 0.4375,0 0.4895,-1.02429 0.4895,-9.64157 0,-8.65486 -0.052,-9.66136 -0.504,-9.83495 -0.6894,-0.26456 -1.6459,0.0774 -1.6459,0.58835 0,0.23061 -0.2764,0.50702 -0.6143,0.61425 -0.3378,0.10723 -0.6142,0.38364 -0.6142,0.61425 0,0.23061 -0.2764,0.50702 -0.6143,0.61425 -0.3378,0.10723 -0.6142,0.40535 -0.6142,0.6625 0,0.25715 -0.304,0.7137 -0.6756,1.01457 -0.6475,0.52437 -0.6541,0.57977 -0.158,1.33691 0.4346,0.6632 0.5446,1.95252 0.6863,8.03966 0.1621,6.96702 0.1442,7.28085 -0.4578,8.04626 -0.4787,0.60849 -0.5448,0.89497 -0.2803,1.21375 0.4501,0.54232 1.1669,0.53416 1.3779,-0.0157 l 0,-10e-6 z m -18.8432,-4.53432 c 0.2956,-0.15149 0.5375,-0.47789 0.5375,-0.72532 0,-0.24744 0.2202,-0.44988 0.4894,-0.44988 0.2692,0 0.5584,-0.26364 0.6426,-0.58586 0.084,-0.32222 0.4189,-0.65531 0.7435,-0.74021 0.5687,-0.14871 0.5873,-0.50698 0.5091,-9.77961 l -0.081,-9.62525 -0.8675,-0.0994 c -0.6548,-0.075 -0.9064,0.0497 -1.0265,0.50907 -0.088,0.33466 -0.4228,0.6774 -0.745,0.76167 -0.3222,0.0843 -0.5858,0.36331 -0.5858,0.62012 0,0.25681 -0.2241,0.51161 -0.4979,0.56622 -0.72,0.14361 -1.2787,2.03272 -0.9612,3.25025 0.3322,1.27374 0.1612,15.70538 -0.1948,16.44386 -0.2344,0.48634 -0.16,0.52753 0.6169,0.34142 0.4859,-0.11641 1.1253,-0.3356 1.4209,-0.4871 z m 26.6431,-2.89314 c 0,-0.26919 0.2764,-0.56172 0.6142,-0.65007 0.3378,-0.0883 0.6143,-0.35616 0.6143,-0.59514 0,-0.23898 0.2418,-0.52374 0.5374,-0.63281 0.2956,-0.10906 0.639,-0.34659 0.7631,-0.52783 0.2703,-0.39476 0.3161,-18.03486 0.049,-18.73189 -0.2802,-0.73037 -1.8751,-0.63361 -2.117,0.12844 -0.1072,0.33784 -0.3836,0.61425 -0.6142,0.61425 -0.2306,0 -0.5071,0.27642 -0.6143,0.61425 -0.1072,0.33784 -0.3781,0.61425 -0.6021,0.61425 -0.2239,0 -0.491,0.21861 -0.5935,0.48581 -0.255,0.66442 -0.2375,18.70958 0.018,18.96543 0.1126,0.11261 0.5963,0.20475 1.0749,0.20475 0.5915,0 0.8702,-0.15677 0.8702,-0.48944 z m -20.0596,-3.78192 c 0.084,-0.32222 0.4169,-0.65479 0.7391,-0.73905 0.3222,-0.0843 0.5858,-0.37346 0.5858,-0.64265 0,-0.26919 0.2025,-0.48944 0.4499,-0.48944 0.9837,0 1.0955,-1.14207 1.0136,-10.35384 l -0.081,-9.14858 -1.0214,-0.098 c -0.8196,-0.0786 -1.0542,0.0276 -1.1875,0.53747 -0.091,0.34949 -0.3703,0.63544 -0.6198,0.63544 -0.2495,0 -0.5226,0.26363 -0.6068,0.58585 -0.084,0.32222 -0.4169,0.6548 -0.7391,0.73906 -0.5605,0.14656 -0.5859,0.56495 -0.5859,9.65164 0,5.22414 0.092,9.59057 0.2048,9.70318 0.4508,0.45083 1.6984,0.19364 1.8487,-0.38111 z m 7.9749,-7.8577 2.2567,-2.30106 0,-9.15469 c 0,-6.71082 -0.098,-9.25308 -0.3686,-9.52324 -0.5684,-0.56842 -1.5139,-0.43663 -1.6897,0.23553 -0.087,0.33224 -0.4194,0.68707 -0.739,0.7885 -0.3196,0.10144 -0.5811,0.38243 -0.5811,0.62443 0,0.24199 -0.1244,0.43999 -0.2764,0.43999 -0.152,0 -0.774,0.49754 -1.3821,1.10565 l -1.1056,1.10564 0,8.8961 c 0,8.99107 0.1227,10.08422 1.1324,10.08422 0.2732,0 1.5122,-1.03548 2.7534,-2.30107 z m 4.3178,-4.71363 c 0.3022,-0.3108 0.7913,-0.65197 1.0869,-0.75818 0.2956,-0.1062 0.5375,-0.38862 0.5375,-0.6276 0,-0.23898 0.2764,-0.50679 0.6142,-0.59513 0.3379,-0.0884 0.6143,-0.36476 0.6143,-0.61425 0,-0.24949 0.2784,-0.52642 0.6186,-0.61541 0.6058,-0.1584 0.617,-0.36279 0.5375,-9.78703 l -0.081,-9.62524 -0.8674,-0.0994 c -0.6661,-0.0763 -0.9061,0.0485 -1.034,0.53747 -0.092,0.35027 -0.3707,0.63685 -0.6202,0.63685 -0.2495,0 -0.5259,0.27641 -0.6142,0.61425 -0.088,0.33784 -0.3553,0.61425 -0.5931,0.61425 -0.2379,0 -0.5639,0.34552 -0.7244,0.76781 -0.1606,0.4223 -0.4188,0.76781 -0.5738,0.76781 -0.5497,0 -0.6618,1.01841 -0.1911,1.73669 0.6844,1.04462 0.6967,14.86378 0.014,15.83842 -0.3211,0.45832 -0.3623,0.80126 -0.1451,1.20699 0.3825,0.71481 0.7276,0.71522 1.4214,0.002 l 0,1.5e-4 z m 7.6779,-7.42017 c 0.088,-0.33784 0.3009,-0.61425 0.4724,-0.61425 0.1715,0 0.7793,-0.49569 1.3507,-1.10154 l 1.0389,-1.10153 -0.081,-9.26393 -0.081,-9.26392 -0.9719,-0.0943 c -0.7582,-0.0736 -1.016,0.0446 -1.1724,0.53747 -0.1103,0.34746 -0.4115,0.63175 -0.6693,0.63175 -0.2578,0 -0.5376,0.26363 -0.6219,0.58585 -0.084,0.32222 -0.4168,0.6548 -0.7391,0.73906 -0.5604,0.14656 -0.5858,0.56495 -0.5858,9.65164 0,5.22414 0.092,9.59057 0.2047,9.70318 0.4642,0.46418 1.6989,0.19178 1.8562,-0.4095 z"
       id="path3351"
       inkscape:connector-curvature="0" />
    <path
       style="fill:#8d5fd3"
       d="m 221.21668,629.62276 c 0.061,-30.64589 0.12723,-35.10122 0.52304,-35.18552 0.24926,-0.0531 0.53811,-0.36405 0.64189,-0.69103 0.10378,-0.32698 0.37738,-0.59451 0.60799,-0.59451 0.23061,0 0.50702,-0.27641 0.61425,-0.61425 0.10722,-0.33784 0.39295,-0.61425 0.63494,-0.61425 0.242,0 0.43999,-0.1226 0.43999,-0.27245 0,-0.14985 1.05215,-1.3246 2.33811,-2.61056 1.28597,-1.28596 2.46072,-2.33811 2.61057,-2.33811 0.14984,0 0.27244,-0.198 0.27244,-0.43999 0,-0.242 0.27642,-0.52772 0.61425,-0.63495 0.33784,-0.10723 0.61425,-0.38364 0.61425,-0.61425 0,-0.23061 0.27642,-0.50702 0.61425,-0.61425 0.33784,-0.10722 0.61425,-0.38364 0.61425,-0.61425 0,-0.23061 0.27642,-0.50702 0.61425,-0.61425 0.33784,-0.10722 0.61425,-0.40589 0.61425,-0.6637 0,-0.25781 0.27641,-0.54102 0.61425,-0.62937 0.33784,-0.0883 0.61425,-0.36476 0.61425,-0.61425 0,-0.24949 0.27641,-0.5259 0.61425,-0.61425 0.33784,-0.0883 0.61425,-0.36476 0.61425,-0.61425 0,-0.24949 0.27641,-0.5259 0.61425,-0.61425 0.33784,-0.0883 0.61425,-0.36476 0.61425,-0.61425 0,-0.24949 0.27641,-0.5259 0.61425,-0.61425 0.33784,-0.0883 0.61425,-0.36476 0.61425,-0.61425 0,-0.24949 0.27183,-0.5247 0.60408,-0.61159 0.33224,-0.0869 0.68707,-0.41946 0.7885,-0.73905 0.10144,-0.3196 0.37312,-0.58109 0.60373,-0.58109 0.23061,0 0.50702,-0.27642 0.61425,-0.61425 0.10722,-0.33784 0.38364,-0.61425 0.61425,-0.61425 0.23061,0 0.50702,-0.27642 0.61425,-0.61425 0.10722,-0.33784 0.39295,-0.61425 0.63494,-0.61425 0.242,0 0.43999,-0.12319 0.43999,-0.27374 0,-0.35699 3.3619,-3.71888 3.71888,-3.71888 0.15056,0 0.27375,-0.198 0.27375,-0.43999 0,-0.242 0.27641,-0.52773 0.61425,-0.63495 0.33783,-0.10723 0.61425,-0.38364 0.61425,-0.61425 0,-0.23061 0.27641,-0.50702 0.61424,-0.61425 0.33784,-0.10722 0.61425,-0.38364 0.61425,-0.61425 0,-0.23061 0.27642,-0.50702 0.61425,-0.61425 0.33784,-0.10722 0.61425,-0.40589 0.61425,-0.6637 0,-0.25781 0.27642,-0.54102 0.61425,-0.62937 0.33784,-0.0883 0.61425,-0.36476 0.61425,-0.61425 0,-0.24949 0.27641,-0.5259 0.61425,-0.61425 0.33784,-0.0883 0.61425,-0.36476 0.61425,-0.61425 0,-0.24949 0.27641,-0.5259 0.61425,-0.61425 0.33784,-0.0883 0.61425,-0.36476 0.61425,-0.61425 0,-0.24949 0.27641,-0.5259 0.61425,-0.61425 0.33784,-0.0883 0.61425,-0.36476 0.61425,-0.61425 0,-0.24949 0.27184,-0.5247 0.60408,-0.61159 0.33224,-0.0869 0.68707,-0.41946 0.78851,-0.73906 0.10143,-0.3196 0.37311,-0.58109 0.60372,-0.58109 0.23061,0 0.50702,-0.27641 0.61425,-0.61424 0.10723,-0.33784 0.38364,-0.61425 0.61425,-0.61425 0.23061,0 0.50702,-0.27642 0.61425,-0.61425 0.10723,-0.33784 0.37183,-0.61425 0.58801,-0.61425 0.21618,0 0.54303,-0.31097 0.72633,-0.69103 0.24129,-0.50031 0.33901,12.12445 0.35406,45.74089 0.0207,46.17135 0.0174,46.43302 -0.59346,46.62688 -0.33784,0.10722 -0.61425,0.38364 -0.61425,0.61425 0,0.23061 -0.27642,0.50702 -0.61425,0.61425 -0.33784,0.10722 -0.61425,0.38364 -0.61425,0.61425 0,0.23061 -0.27642,0.50702 -0.61425,0.61425 -0.33784,0.10722 -0.61425,0.40589 -0.61425,0.6637 0,0.2578 -0.27641,0.54102 -0.61425,0.62937 -0.33784,0.0883 -0.61425,0.36476 -0.61425,0.61425 0,0.24949 -0.27641,0.5259 -0.61425,0.61425 -0.33784,0.0883 -0.61425,0.36476 -0.61425,0.61425 0,0.24949 -0.27641,0.5259 -0.61425,0.61425 -0.33784,0.0883 -0.61425,0.36476 -0.61425,0.61425 0,0.24949 -0.27184,0.5247 -0.60408,0.61159 -0.33224,0.0869 -0.68707,0.41945 -0.78851,0.73905 -0.10143,0.31961 -0.37311,0.58109 -0.60372,0.58109 -0.23061,0 -0.50702,0.27642 -0.61425,0.61425 -0.10723,0.33784 -0.38364,0.61425 -0.61425,0.61425 -0.23061,0 -0.50702,0.27642 -0.61425,0.61425 -0.10722,0.33784 -0.39295,0.61425 -0.63494,0.61425 -0.242,0 -0.44,0.12026 -0.44,0.26725 0,0.14699 -1.2558,1.52905 -2.79068,3.07125 l -2.79068,2.804 -11.26028,0 -11.26027,0 0.0698,-35.08901 z"
       id="path3353"
       inkscape:connector-curvature="0" />
    <path
       style="fill:#000000"
       d="m 148.81897,656.69819 c 0,-53.00301 0.005,-53.47485 0.61425,-54.24894 0.33783,-0.42949 0.61425,-0.96957 0.61425,-1.20016 0,-0.2306 0.19799,-0.41927 0.43999,-0.41927 0.24199,0 0.52547,-0.26935 0.62996,-0.59854 0.10448,-0.3292 0.45931,-0.68403 0.7885,-0.78851 0.3292,-0.10448 0.59854,-0.38797 0.59854,-0.62996 0,-0.24199 0.14884,-0.43999 0.33075,-0.43999 0.42985,0 2.12625,-1.69641 2.12625,-2.12625 0,-0.18191 0.22025,-0.33075 0.48944,-0.33075 0.26919,0 0.56053,-0.27184 0.64741,-0.60408 0.0869,-0.33224 0.40451,-0.68232 0.70584,-0.77796 0.30132,-0.0956 1.36842,-1.03311 2.37132,-2.08326 1.0029,-1.05016 3.85815,-3.84427 6.34499,-6.20913 2.48685,-2.36486 6.87903,-6.6147 9.7604,-9.44409 2.88136,-2.82938 5.362,-5.14434 5.51253,-5.14434 0.15052,0 0.27368,-0.137 0.27368,-0.30445 0,-0.36503 1.82312,-2.15254 2.19542,-2.15254 0.14387,0 0.26158,-0.20731 0.26158,-0.46069 0,-0.25338 0.14125,-0.46069 0.31389,-0.46069 0.17264,0 2.31882,-2.00399 4.76928,-4.45331 2.45047,-2.44932 4.58962,-4.45331 4.75367,-4.45331 0.16405,0 0.29827,-0.20731 0.29827,-0.46068 0,-0.25338 0.11771,-0.46069 0.26158,-0.46069 0.3766,0 2.05968,-1.66028 2.28908,-2.25807 0.1068,-0.27833 0.39652,-0.50605 0.64382,-0.50605 0.24729,0 0.53736,-0.27642 0.64458,-0.61425 0.10723,-0.33784 0.33043,-0.61425 0.49601,-0.61425 0.4045,0 3.34305,-2.95674 3.34305,-3.36375 0,-0.17696 0.171,-0.32175 0.38,-0.32175 0.209,0 1.46531,-1.0711 2.7918,-2.38022 2.63016,-2.59573 5.11105,-4.99675 9.20287,-8.90661 2.11132,-2.01745 2.83882,-2.53378 3.56999,-2.53378 1.02087,0 2.48283,-0.57156 2.48283,-0.97068 0,-0.1418 8.13573,-0.25782 18.0794,-0.25782 17.6558,0 18.11569,0.0151 19.62781,0.64349 0.85163,0.35391 1.61177,0.88578 1.68921,1.18192 0.0791,0.30231 0.55244,0.62076 1.07946,0.72616 0.88384,0.17677 0.95108,0.2916 1.15129,1.96611 0.11695,0.97811 0.47311,2.20931 0.79146,2.736 0.47808,0.79093 0.57883,1.57325 0.57883,4.49427 0,3.27835 -0.0449,3.54838 -0.61425,3.69727 -0.33783,0.0883 -0.61424,0.36476 -0.61424,0.61425 0,0.24949 -0.27642,0.52591 -0.61425,0.61425 -0.33784,0.0883 -0.61425,0.37157 -0.61425,0.62938 0,0.25781 -0.27642,0.55647 -0.61425,0.6637 -0.33784,0.10722 -0.61425,0.38363 -0.61425,0.61425 0,0.23061 -0.27642,0.50702 -0.61425,0.61424 -0.33784,0.10723 -0.61425,0.38364 -0.61425,0.61425 0,0.23062 -0.27641,0.50703 -0.61425,0.61425 -0.33784,0.10723 -0.61425,0.38364 -0.61425,0.61425 0,0.23062 -0.27641,0.50703 -0.61425,0.61425 -0.33784,0.10723 -0.61425,0.38364 -0.61425,0.61425 0,0.23061 -0.27641,0.50703 -0.61425,0.61425 -0.33784,0.10723 -0.61425,0.38364 -0.61425,0.61425 0,0.23061 -0.26149,0.50229 -0.58109,0.60373 -0.3196,0.10143 -0.65217,0.45626 -0.73906,0.7885 -0.0869,0.33225 -0.3689,0.60408 -0.62671,0.60408 -0.25781,0 -0.55647,0.27641 -0.6637,0.61425 -0.10723,0.33784 -0.38364,0.61425 -0.61425,0.61425 -0.23061,0 -0.50702,0.27641 -0.61425,0.61425 -0.10723,0.33784 -0.38364,0.61425 -0.61425,0.61425 -0.23061,0 -0.50702,0.27641 -0.61425,0.61425 -0.10722,0.33784 -0.38364,0.61425 -0.61425,0.61425 -0.23061,0 -0.50702,0.27641 -0.61425,0.61425 -0.10722,0.33784 -0.38364,0.61425 -0.61425,0.61425 -0.23061,0 -0.50228,0.26149 -0.60372,0.58109 -0.10144,0.3196 -0.45627,0.65217 -0.78851,0.73906 -0.33224,0.0869 -0.60408,0.3621 -0.60408,0.61159 0,0.24949 -0.27641,0.5259 -0.61425,0.61425 -0.33783,0.0883 -0.61425,0.36476 -0.61425,0.61425 0,0.24949 -0.27641,0.5259 -0.61425,0.61425 -0.33783,0.0883 -0.61425,0.36475 -0.61425,0.61424 0,0.24949 -0.27641,0.52591 -0.61424,0.61425 -0.33784,0.0883 -0.61425,0.37157 -0.61425,0.62938 0,0.25781 -0.27642,0.55647 -0.61425,0.6637 -0.33784,0.10722 -0.61425,0.38363 -0.61425,0.61425 0,0.23061 -0.27642,0.50702 -0.61425,0.61425 -0.33784,0.10722 -0.61425,0.38363 -0.61425,0.61424 0,0.23062 -0.27641,0.50703 -0.61425,0.61425 -0.33784,0.10723 -0.61425,0.38364 -0.61425,0.61425 0,0.23061 -0.27641,0.50703 -0.61425,0.61425 -0.33784,0.10723 -0.61425,0.38364 -0.61425,0.61425 0,0.23061 -0.27641,0.50703 -0.61425,0.61425 -0.33784,0.10723 -0.61425,0.40589 -0.61425,0.6637 0,0.25781 -0.27184,0.53983 -0.60408,0.62671 -0.33224,0.0869 -0.68707,0.41946 -0.78851,0.73906 -0.10143,0.3196 -0.37311,0.58109 -0.60372,0.58109 -0.23061,0 -0.50702,0.27642 -0.61425,0.61425 -0.10723,0.33784 -0.38364,0.61425 -0.61425,0.61425 -0.23061,0 -0.50702,0.27641 -0.61425,0.61425 -0.10723,0.33784 -0.38364,0.61425 -0.61425,0.61425 -0.23061,0 -0.50702,0.27641 -0.61425,0.61425 -0.10722,0.33784 -0.38364,0.61425 -0.61425,0.61425 -0.23061,0 -0.50702,0.27641 -0.61425,0.61425 -0.10722,0.33784 -0.38364,0.61425 -0.61425,0.61425 -0.23061,0 -0.50702,0.27641 -0.61425,0.61425 -0.10722,0.33784 -0.40589,0.61425 -0.6637,0.61425 -0.2578,0 -0.54102,0.27641 -0.62937,0.61425 -0.0883,0.33783 -0.36476,0.61425 -0.61425,0.61425 -0.24949,0 -0.5259,0.27641 -0.61425,0.61425 -0.0883,0.33783 -0.36476,0.61425 -0.61425,0.61425 -0.24949,0 -0.5247,0.27183 -0.61159,0.60407 -0.0869,0.33225 -0.41946,0.68708 -0.73906,0.78851 -0.3196,0.10144 -0.58108,0.37312 -0.58108,0.60373 0,0.23061 -0.27642,0.50702 -0.61425,0.61425 -0.33784,0.10722 -0.61425,0.38364 -0.61425,0.61425 0,0.23061 -0.27642,0.50702 -0.61425,0.61425 -0.33784,0.10722 -0.61425,0.38363 -0.61425,0.61425 0,0.23061 -0.27642,0.50702 -0.61425,0.61424 -0.33784,0.10723 -0.61425,0.39296 -0.61425,0.63495 0,0.24199 -0.14882,0.43999 -0.33071,0.43999 -0.18189,0 -1.23348,0.89834 -2.33687,1.99631 -1.10339,1.09797 -2.12932,1.99631 -2.27985,1.99631 -0.15053,0 -0.27369,0.198 -0.27369,0.43999 0,0.242 -0.27642,0.52772 -0.61425,0.63495 -0.33784,0.10723 -0.61425,0.40589 -0.61425,0.6637 0,0.25781 -0.27641,0.54102 -0.61425,0.62937 -0.33996,0.0889 -0.61425,0.41893 -0.61425,0.73906 0,0.37368 -0.21743,0.57843 -0.61425,0.57843 -0.4095,0 -0.61425,0.20475 -0.61425,0.61425 0,0.4095 -0.20475,0.61425 -0.61425,0.61425 -0.4095,0 -0.61425,0.20475 -0.61425,0.61425 0,0.4095 -0.20475,0.61425 -0.61425,0.61425 -0.4095,0 -0.61425,0.20475 -0.61425,0.61425 0,0.39517 -0.20475,0.61425 -0.57406,0.61425 -0.42477,0 -0.62357,0.29952 -0.76443,1.15172 -0.24865,1.50429 -0.24865,68.36659 0,69.87088 0.17006,1.02889 0.28741,1.15172 1.1003,1.15172 0.65166,0 0.95554,-0.17436 1.07058,-0.61425 0.0883,-0.33784 0.36476,-0.61425 0.61425,-0.61425 0.24949,0 0.5259,-0.27641 0.61425,-0.61425 0.0883,-0.33784 0.36476,-0.61425 0.61425,-0.61425 0.24948,0 0.5259,-0.27641 0.61424,-0.61425 0.0883,-0.33784 0.36476,-0.61425 0.61425,-0.61425 0.24949,0 0.52591,-0.27641 0.61425,-0.61425 0.0883,-0.33784 0.36476,-0.61425 0.61425,-0.61425 0.24949,0 0.52591,-0.27641 0.61425,-0.61425 0.0883,-0.33784 0.36476,-0.61425 0.61425,-0.61425 0.24949,0 0.5259,-0.27641 0.61425,-0.61425 0.0883,-0.33783 0.28495,-0.61425 0.43689,-0.61425 0.33525,0 4.87327,-4.5 4.8731,-4.83226 -7e-5,-0.12941 5.079,-0.19327 11.28683,-0.1419 12.58507,0.10415 14.50678,-0.008 14.72943,-0.85937 0.0804,-0.30761 0.40989,-0.62824 0.73211,-0.7125 0.32222,-0.0843 0.58586,-0.35734 0.58586,-0.60683 0,-0.24949 0.27641,-0.5259 0.61425,-0.61425 0.33783,-0.0883 0.61425,-0.36476 0.61425,-0.61425 0,-0.24948 0.27641,-0.5259 0.61424,-0.61424 0.33784,-0.0883 0.61425,-0.36476 0.61425,-0.61425 0,-0.24949 0.27642,-0.52591 0.61425,-0.61425 0.33784,-0.0883 0.61425,-0.37157 0.61425,-0.62938 0,-0.25781 0.27642,-0.55647 0.61425,-0.6637 0.33784,-0.10722 0.61425,-0.38363 0.61425,-0.61425 0,-0.23061 0.27641,-0.50702 0.61425,-0.61424 0.33784,-0.10723 0.61425,-0.38364 0.61425,-0.61425 0,-0.23062 0.27641,-0.50703 0.61425,-0.61425 0.33784,-0.10723 0.61425,-0.38364 0.61425,-0.61425 0,-0.23061 0.27641,-0.50703 0.61425,-0.61425 0.33784,-0.10723 0.61425,-0.38364 0.61425,-0.61425 0,-0.23061 0.26934,-0.50478 0.59854,-0.60926 0.32919,-0.10449 0.68402,-0.45932 0.78851,-0.78851 0.10448,-0.3292 0.37865,-0.59854 0.60926,-0.59854 0.23061,0 0.50702,-0.27642 0.61425,-0.61425 0.10723,-0.33784 0.38364,-0.61425 0.61425,-0.61425 0.23061,0 0.50702,-0.27641 0.61425,-0.61425 0.10723,-0.33784 0.34316,-0.61425 0.52431,-0.61425 0.18114,0 0.52279,-0.24186 0.75922,-0.53747 0.68684,-0.85878 0.39132,8.02525 -0.30905,9.29052 -0.2805,0.50676 -0.51086,1.49012 -0.5119,2.18524 -10e-4,0.79649 -0.22904,1.55263 -0.61614,2.04475 -0.4095,0.5206 -0.61425,1.24594 -0.61425,2.17603 0,0.86986 -0.16101,1.48762 -0.42763,1.64075 -0.2352,0.13508 -0.64277,0.76388 -0.90571,1.39732 -0.26294,0.63345 -0.62333,1.15172 -0.80086,1.15172 -0.17754,0 -0.3228,0.13197 -0.3228,0.29327 0,0.16129 -8.92034,9.2138 -19.82297,20.11667 l -19.82296,19.8234 -34.07743,0 -34.07743,0 0,-53.46804 z"
       id="path3357"
       inkscape:connector-curvature="0" />
    <path
       style="fill:#000000"
       d="m 148.81897,656.74408 0,-53.42215 0.67327,-1.14112 c 0.59885,-1.01497 3.80684,-4.29126 10.55691,-10.78165 6.78501,-6.52399 19.09033,-18.44092 21.49973,-20.82113 2.63079,-2.59891 16.32187,-15.92876 25.60156,-24.92605 8.25957,-8.00823 9.04364,-8.70007 9.86207,-8.70214 0.42881,-10e-4 1.32182,-0.27839 1.98447,-0.61622 1.16465,-0.59378 1.80406,-0.61403 19.18345,-0.60751 17.3401,0.007 18.02693,0.0287 19.33833,0.6236 0.74783,0.33926 1.54373,0.8796 1.76867,1.20074 0.22494,0.32115 0.71873,0.62791 1.09731,0.68169 0.53012,0.0753 0.74472,0.38016 0.93366,1.32629 0.13493,0.67567 0.47116,1.85042 0.74717,2.61056 0.31903,0.87863 0.54373,2.68587 0.61686,4.96138 l 0.11502,3.57933 -22.10564,22.06559 c -12.15811,12.13608 -23.7017,23.58586 -25.65244,25.44397 -1.95073,1.8581 -3.55133,3.53501 -3.55687,3.72645 -0.006,0.19145 -0.28649,0.42037 -0.62433,0.50872 -0.33784,0.0883 -0.61425,0.36476 -0.61425,0.61425 0,0.24949 -0.27641,0.5259 -0.61425,0.61425 -0.33784,0.0883 -0.61425,0.36476 -0.61425,0.61425 0,0.24949 -0.27641,0.5259 -0.61425,0.61425 -0.33784,0.0883 -0.61425,0.36476 -0.61425,0.61425 0,0.24949 -0.25385,0.52 -0.5641,0.60113 -0.51683,0.13516 -0.58118,0.69579 -0.76782,6.68853 -0.24695,7.92981 -0.19545,53.47746 0.0682,60.34236 0.18296,4.76347 0.20946,4.91694 0.86504,5.0102 0.42411,0.0603 0.82386,-0.14008 1.07203,-0.53746 0.21766,-0.34853 0.56049,-0.63368 0.76185,-0.63368 0.20137,0 0.45385,-0.27641 0.56107,-0.61425 0.10723,-0.33784 0.39295,-0.61425 0.63495,-0.61425 0.24199,0 0.43999,-0.12222 0.43999,-0.27161 0,-0.14939 2.13799,-2.39524 4.7511,-4.99078 l 4.75109,-4.71917 12.41455,0 12.41454,0 8.09537,-8.1388 8.09537,-8.13881 0.0875,3.52169 c 0.0481,1.93694 -0.0664,4.14823 -0.25446,4.914 -0.18806,0.76577 -0.48473,2.08333 -0.65926,2.92793 -0.17454,0.84459 -0.57831,2.10358 -0.89726,2.79776 -0.31896,0.69418 -0.57992,1.75712 -0.57992,2.36209 0,0.60498 -0.14018,1.18659 -0.31152,1.29248 -0.17133,0.10589 -0.58843,0.73534 -0.92689,1.39877 -0.37105,0.72733 -8.56145,9.19372 -20.62918,21.32433 l -20.01379,20.11809 -34.18821,0 -34.1882,0 0,-53.42215 z"
       id="path3359"
       inkscape:connector-curvature="0" />
    <path
       style="fill:#000000"
       d="m 295.01035,418.39771 0,-38.69772 108.26148,0 108.26152,0 0,38.08347 c 0,37.09259 -0.015,38.08347 -0.5785,38.08347 -0.3201,0 -0.6501,0.27429 -0.739,0.61425 -0.1603,0.61277 -0.419,0.61425 -107.68308,0.61425 l -107.52242,0 0,-38.69772 z"
       id="path3361"
       inkscape:connector-curvature="0" />
    <path
       style="fill:#000000"
       d="m 518.49345,448.59693 c -0.1119,-0.11185 -0.2034,-15.38643 -0.2034,-33.94351 l 0,-33.74014 0.7678,-0.29192 c 0.4223,-0.16055 0.7678,-0.50265 0.7678,-0.76021 0,-0.25756 0.2203,-0.46829 0.4895,-0.46829 0.2692,0 0.5583,-0.26363 0.6426,-0.58585 0.084,-0.32222 0.4168,-0.6548 0.7391,-0.73906 0.3222,-0.0843 0.5858,-0.35734 0.5858,-0.60683 0,-0.24949 0.2764,-0.5259 0.6143,-0.61425 0.3378,-0.0883 0.6142,-0.38087 0.6142,-0.65006 0,-0.2692 0.2203,-0.48944 0.4895,-0.48944 0.2692,0 0.5617,-0.27642 0.65,-0.61425 0.088,-0.33784 0.2668,-0.61425 0.3965,-0.61425 0.308,0 6.1421,-5.83411 6.1421,-6.14212 0,-0.12972 0.2765,-0.30815 0.6143,-0.39649 0.3378,-0.0883 0.6142,-0.36476 0.6142,-0.61425 0,-0.24949 0.2765,-0.5259 0.6143,-0.61425 0.3378,-0.0883 0.6142,-0.36476 0.6142,-0.61425 0,-0.24949 0.2765,-0.5259 0.6143,-0.61425 0.3378,-0.0883 0.6142,-0.38088 0.6142,-0.65007 0,-0.26919 0.1489,-0.48944 0.3308,-0.48944 0.41,0 2.1262,-1.6873 2.1262,-2.09043 0,-0.16221 0.2765,-0.36721 0.6143,-0.45556 0.3378,-0.0884 0.6142,-0.38088 0.6142,-0.65007 0,-0.26919 0.2203,-0.48944 0.4895,-0.48944 0.2692,0 0.5617,-0.27641 0.65,-0.61425 0.088,-0.33783 0.3648,-0.61425 0.6143,-0.61425 0.2495,0 0.5259,-0.27641 0.6142,-0.61425 0.088,-0.33783 0.3648,-0.61425 0.6143,-0.61425 0.2495,0 0.5259,-0.27641 0.6142,-0.61425 0.088,-0.33783 0.2668,-0.61425 0.3965,-0.61425 0.3304,0 6.1422,-5.84564 6.1422,-6.17793 0,-0.14943 0.2202,-0.27169 0.4894,-0.27169 0.2692,0 0.5584,-0.26363 0.6426,-0.58585 0.084,-0.32222 0.4169,-0.6548 0.7391,-0.73906 0.3222,-0.0843 0.5859,-0.35733 0.5859,-0.60682 0,-0.24949 0.2764,-0.52591 0.6142,-0.61425 0.3378,-0.0883 0.6143,-0.36476 0.6143,-0.61425 0,-0.24949 0.2764,-0.52591 0.6142,-0.61425 0.3378,-0.0883 0.6143,-0.36476 0.6143,-0.61425 0,-0.24949 0.2764,-0.5259 0.6142,-0.61425 0.3378,-0.0883 0.6142,-0.36476 0.6142,-0.61425 0,-0.24949 0.2765,-0.5259 0.6143,-0.61425 0.3378,-0.0883 0.6142,-0.36476 0.6142,-0.61425 0,-0.24949 0.2765,-0.5259 0.6143,-0.61425 0.3378,-0.0883 0.6142,-0.36476 0.6142,-0.61425 0,-0.24949 0.2765,-0.5259 0.6143,-0.61425 0.3378,-0.0883 0.6142,-0.36476 0.6142,-0.61425 0,-0.24949 0.2765,-0.5259 0.6143,-0.61425 0.3378,-0.0883 0.6142,-0.38087 0.6142,-0.65007 0,-0.26919 0.1223,-0.48944 0.2717,-0.48944 0.3547,0 6.178,-5.82322 6.178,-6.17793 0,-0.14943 0.2202,-0.27169 0.4894,-0.27169 0.2692,0 0.5617,-0.27641 0.6501,-0.61425 0.088,-0.33783 0.3647,-0.61425 0.6142,-0.61425 0.2495,0 0.5259,-0.27641 0.6143,-0.61425 0.088,-0.33783 0.3647,-0.61425 0.6142,-0.61425 0.2495,0 0.5259,-0.27641 0.6143,-0.61424 0.088,-0.33784 0.3647,-0.61425 0.6142,-0.61425 0.2495,0 0.5259,-0.27642 0.6143,-0.61425 0.088,-0.33784 0.2933,-0.61425 0.4555,-0.61425 0.4032,0 2.0905,-1.71621 2.0905,-2.12625 0,-0.18191 0.2202,-0.33075 0.4894,-0.33075 0.2692,0 0.5617,-0.27641 0.6501,-0.61425 0.088,-0.33784 0.3647,-0.61425 0.6142,-0.61425 0.2495,0 0.5259,-0.27641 0.6143,-0.61425 0.088,-0.33784 0.3562,-0.61425 0.5954,-0.61425 0.2391,0 0.5597,-0.31096 0.7125,-0.69103 0.1682,-0.41859 0.2854,12.7359 0.2972,33.36555 l 0.02,34.05658 -29.4342,29.44008 c -16.1888,16.19205 -29.5256,29.34857 -29.6375,29.23672 z"
       id="path3363"
       inkscape:connector-curvature="0" />
    <path
       style="fill:#000000"
       d="m 518.25225,445.63493 c -0.3037,-1.83839 -0.5565,-16.97659 -0.5618,-33.64045 l -0.01,-30.29793 29.4689,-29.42382 c 16.2079,-16.1831 29.6942,-29.42382 29.9695,-29.42382 0.2753,0 0.5005,15.14976 0.5005,33.66614 l 0,33.66614 -29.4077,29.39813 -29.4076,29.39813 -0.5523,-3.34252 z"
       id="path3367"
       inkscape:connector-curvature="0" />
    <path
       style="fill:#000000"
       d="m 154.63305,733.91 c -6.32688,-3.13899 -6.00686,0.48931 -6.07767,-68.90671 l -0.0635,-62.21616 14.55039,-14.31637 c 25.17679,-24.77185 47.43214,-46.35055 50.96069,-49.41128 l 3.40047,-2.94963 20.05389,-0.21516 c 18.09155,-0.19411 20.23007,-0.0652 21.85424,1.31741 1.75696,1.49564 3.84608,7.76678 3.84608,11.5452 0,1.32476 -8.42537,10.25519 -28.2321,29.92448 l -28.2321,28.03619 0,35.71053 c 0,19.64079 0.30366,35.71053 0.6748,35.71053 0.37115,0 3.39019,-2.73634 6.70898,-6.08076 l 6.03416,-6.08076 12.16928,0 12.16928,0 8.57606,-8.46963 8.57607,-8.46963 -0.38434,6.5151 c -0.67029,11.36232 -0.52727,11.17802 -36.2683,46.73227 -24.42824,24.30057 -32.94185,32.25784 -34.94098,32.65767 -1.45373,0.29074 -9.33741,0.50985 -17.51929,0.4869 -12.20195,-0.0342 -15.41184,-0.30751 -17.85612,-1.52019 z"
       id="path3369"
       inkscape:connector-curvature="0" />
    <path
       style="fill:#000000"
       d="m 405.26367,372.57742 -107.63947,-0.22059 26.25549,-26.27415 26.2555,-26.27415 108.88282,0.22382 108.88284,0.22382 -26.0143,26.00652 c -14.3078,14.30358 -26.6823,26.12549 -27.4988,26.27092 -0.8165,0.14542 -49.92236,0.16513 -109.12408,0.0438 z"
       id="path3371"
       inkscape:connector-curvature="0" />
  </g>
</svg>
