<svg xmlns="http://www.w3.org/2000/svg" xmlns:xlink="http://www.w3.org/1999/xlink" version="1.1" x="0px" y="0px" viewBox="0 0 100 125" style="enable-background:new 0 0 100 100;" xml:space="preserve"><g><path d="M81.6,18H16.2c-1.4,0-2.6,1.2-2.6,2.6v34.3c0,1.4,1.2,2.6,2.6,2.6H49v23.2c0,1.4,1.2,2.6,2.6,2.6h23.6   c1.4,0,2.6-1.2,2.6-2.6V57.5h3.8c1.4,0,2.6-1.2,2.6-2.6V20.6C84.2,19.1,83,18,81.6,18z M72.5,78.1H54.2V57.5h18.4V78.1z M79,52.3   h-3.8H51.6H18.8V23.2H79V52.3z"/><path d="M53.8,47.1h19.2c1.4,0,2.6-1.2,2.6-2.6V31c0-1.4-1.2-2.6-2.6-2.6H53.8c-1.4,0-2.6,1.2-2.6,2.6v13.5   C51.2,45.9,52.4,47.1,53.8,47.1z M56.4,33.6h14v8.3h-14V33.6z"/><path d="M28.2,29.3h7.3c1.1,0,2.1-0.9,2.1-2.1c0-1.1-0.9-2.1-2.1-2.1h-7.3c-1.1,0-2.1,0.9-2.1,2.1C26.1,28.4,27,29.3,28.2,29.3z"/><path d="M28.2,36.2h7.3c1.1,0,2.1-0.9,2.1-2.1c0-1.1-0.9-2.1-2.1-2.1h-7.3c-1.1,0-2.1,0.9-2.1,2.1C26.1,35.3,27,36.2,28.2,36.2z"/><path d="M28.2,43.1h7.3c1.1,0,2.1-0.9,2.1-2.1c0-1.1-0.9-2.1-2.1-2.1h-7.3c-1.1,0-2.1,0.9-2.1,2.1C26.1,42.1,27,43.1,28.2,43.1z"/><path d="M28.2,49.9h7.3c1.1,0,2.1-0.9,2.1-2.1s-0.9-2.1-2.1-2.1h-7.3c-1.1,0-2.1,0.9-2.1,2.1S27,49.9,28.2,49.9z"/></g><text x="0" y="115" fill="#000000" font-size="5px" font-weight="bold" font-family="'Helvetica Neue', Helvetica, Arial-Unicode, Arial, Sans-serif">Created by Vale Chavez Trevizo</text><text x="0" y="120" fill="#000000" font-size="5px" font-weight="bold" font-family="'Helvetica Neue', Helvetica, Arial-Unicode, Arial, Sans-serif">from the Noun Project</text></svg>