<?xml version="1.0" encoding="UTF-8" standalone="no"?>
<!-- Created with Inkscape (http://www.inkscape.org/) -->

<svg
   xmlns:dc="http://purl.org/dc/elements/1.1/"
   xmlns:cc="http://creativecommons.org/ns#"
   xmlns:rdf="http://www.w3.org/1999/02/22-rdf-syntax-ns#"
   xmlns:svg="http://www.w3.org/2000/svg"
   xmlns="http://www.w3.org/2000/svg"
   xmlns:sodipodi="http://sodipodi.sourceforge.net/DTD/sodipodi-0.dtd"
   xmlns:inkscape="http://www.inkscape.org/namespaces/inkscape"
   id="svg3336"
   version="1.1"
   inkscape:version="0.91 r13725"
   width="744"
   height="1052.4"
   viewBox="0 0 744 1052.4"
   sodipodi:docname="pictovinyl.svg">
  <metadata
     id="metadata3342">
    <rdf:RDF>
      <cc:Work
         rdf:about="">
        <dc:format>image/svg+xml</dc:format>
        <dc:type
           rdf:resource="http://purl.org/dc/dcmitype/StillImage" />
        <dc:title></dc:title>
      </cc:Work>
    </rdf:RDF>
  </metadata>
  <defs
     id="defs3340" />
  <sodipodi:namedview
     pagecolor="#ffffff"
     bordercolor="#666666"
     borderopacity="1"
     objecttolerance="10"
     gridtolerance="10"
     guidetolerance="10"
     inkscape:pageopacity="0"
     inkscape:pageshadow="2"
     inkscape:window-width="1920"
     inkscape:window-height="1003"
     id="namedview3338"
     showgrid="false"
     inkscape:zoom="1"
     inkscape:cx="570.11709"
     inkscape:cy="471.20459"
     inkscape:window-x="-9"
     inkscape:window-y="-9"
     inkscape:window-maximized="1"
     inkscape:current-layer="svg3336" />
  <path
     style="fill:#8d5fd3"
     d="m 376.1537,588.35251 c -91.68879,-9.82864 -117.493,-10.31741 -212.40354,-20.68681 -2.33106,-0.25729 -4.4941,-0.46921 -4.80675,-0.47094 4.24883,-6.80801 7.3576,-11.63895 14.17328,-20.15002 5.12745,-7.48013 15.40825,-16.01878 19.483,-20.24551 9.32535,-9.11478 14.75779,-12.44154 26.84711,-21.87787 7.54788,-5.39823 7.19555,-5.37087 18.48354,-11.78287 11.10944,-6.11528 15.49863,-7.82813 22.32242,-10.08054 3.94487,-1.29163 11.94057,-3.92575 17.76822,-5.85359 5.82765,-1.92784 18.73813,-6.181 28.68996,-9.45147 9.95183,-3.27046 23.81593,-7.84825 30.80911,-10.17285 l 12.71487,-4.22654 7.82454,0.70479 c 81.98189,8.07873 115.63233,11.42969 224.91056,22.10137 0.81398,0.20476 0.25163,0.49287 -4.4013,2.25494 -7.51491,2.84593 -10.97179,4.16047 -15.27819,5.80982 -2.06209,0.78979 -6.09661,2.32583 -8.96561,3.41343 -2.869,1.0876 -7.49036,2.85007 -10.2697,3.9166 -2.77934,1.06652 -7.40071,2.82963 -10.26971,3.91801 -6.81024,2.58353 -11.56896,4.40468 -17.76821,6.79983 -5.32049,2.05564 -9.76841,3.74586 -15.9751,6.07061 -2.06209,0.77237 -6.68345,2.53274 -10.2697,3.91193 -3.58624,1.3792 -9.62182,3.84759 -11.68391,4.62107 -10.99194,4.12304 -13.29791,4.58642 -22.71579,9.98451 -9.68638,4.76499 -13.72912,7.23316 -23.30625,14.14267 -2.65855,1.54512 -11.29106,7.71943 -16.79015,12.32667 -9.20806,7.71468 -13.85654,11.7138 -22.4558,20.33992 -8.59106,8.61789 -14.1487,15.0435 -14.35757,14.99809 -0.10459,-0.0227 -1.14377,-0.16461 -2.3093,-0.31525 z"
     id="path3388"
     inkscape:connector-curvature="0"
     sodipodi:nodetypes="ccccccccssscccsssssssssccssccc" />
  <path
     style="fill:#8d5fd3"
     d="m 581.39503,524.02233 c -0.20326,-0.20101 -6.56551,-1.03223 -16.43696,-2.14748 -4.84143,-0.54697 -12.83713,-1.49863 -17.76822,-2.11478 -4.93109,-0.61616 -11.71868,-1.42078 -15.08354,-1.78805 -8.86041,-0.96711 -32.638,-3.93565 -32.79692,-4.09457 -0.0744,-0.0744 0.28855,-0.29253 0.80653,-0.48478 0.51797,-0.19224 3.14242,-1.20977 5.83211,-2.26118 6.18915,-2.41936 22.32578,-8.7091 29.99405,-11.69109 3.22762,-1.25514 7.62892,-2.96925 9.78067,-3.80915 13.85157,-5.40668 25.29589,-9.85391 28.52695,-11.08549 2.06209,-0.78601 4.77623,-1.82169 6.03142,-2.30151 5.98066,-2.28627 11.09401,-4.05642 11.70922,-4.05354 1.29788,0.006 3.97088,1.53995 5.28473,3.03257 3.84805,4.37161 5.73173,10.9257 5.7334,19.94882 0.002,11.24837 -3.27602,19.47798 -8.90195,22.34811 -1.6106,0.82167 -2.37905,0.79848 -4.37737,-0.13208 -3.40224,-1.58432 -6.4229,-6.2213 -7.80898,-11.98745 -2.20953,-9.19179 -1.42919,-15.85995 0.73239,-23.72387 0.88419,-3.21673 1.5922,-5.0821 0.88338,-4.30549 -2.08892,2.28868 -2.07831,2.69917 -2.53785,3.44192 -1.99065,4.0188 -2.19465,6.04152 -2.55104,7.34938 -0.4052,1.48696 -0.84699,4.08428 -0.8386,7.82454 0.0126,5.63001 0.48073,6.87873 1.31758,9.61766 1.28108,4.19274 3.46362,8.48333 5.4313,10.67723 l 1.68133,1.87462 -2.2539,0 c -1.23964,0 -2.31502,-0.0605 -2.38973,-0.13434 z"
     id="path3392"
     inkscape:connector-curvature="0"
     sodipodi:nodetypes="csssscssssscssssssscsssscsc" />
  <path
     style="fill:#ffffff"
     d="m 350.01786,499.08898 c -15.94161,13.01509 -28.91635,33.58757 -42.77996,33.58757 -13.86361,0 -3.60614,-30.80569 11.31371,-41.01219 28.55739,-19.53578 33.86609,-18.03123 54.09367,-16.97057 13.84459,0.72596 -1.01794,6.75272 -22.62742,24.39519 z"
     id="path3457"
     inkscape:connector-curvature="0"
     sodipodi:nodetypes="sssss" />
  <path
     style="fill:#000000"
     d="m 378.10894,476.53426 c -0.18732,-0.23163 -0.88929,-1.50117 -1.55994,-2.82117 -0.67065,-1.32 -4.25361,-7.8675 -7.96212,-14.55 l -6.74273,-12.15 4.54904,-4.575 4.54905,-4.575 3.68805,0 c 2.67399,0 3.72744,0.10311 3.83136,0.375 0.0788,0.20625 0.10836,9.00204 0.0656,19.54617 -0.0583,14.36091 -0.1632,19.06548 -0.41832,18.75 z m -16.90944,-60.57117 0,-20.4 9.45,0 9.45,0 0,20.4 0,20.4 -9.45,0 -9.45,0 0,-20.4 z"
     id="path3346"
     inkscape:connector-curvature="0" />
</svg>
