<svg xmlns="http://www.w3.org/2000/svg" xmlns:xlink="http://www.w3.org/1999/xlink" version="1.1" x="0px" y="0px" viewBox="0 0 100 125" style="enable-background:new 0 0 100 100;" xml:space="preserve"><polygon points="12.3,94.9 0.5,88.1 0.5,78.9 12.3,85.7 "/><polygon points="12.3,71.9 0.5,65.1 0.5,55.9 12.3,62.7 "/><polygon points="41.4,79.3 14.3,94.9 14.3,85.7 41.4,70.1 "/><polygon points="70.4,62.5 43.3,78.1 43.3,68.9 70.4,53.3 "/><polygon points="99.5,45.7 72.4,61.3 72.4,52.1 99.5,36.5 "/><polygon points="55.9,59.4 28.8,75 28.8,65.8 55.9,50.2 "/><polygon points="85,42.7 57.9,58.3 57.9,49.1 85,33.5 "/><polygon points="41.4,56.3 14.3,71.9 14.3,62.7 41.4,47.1 "/><polygon points="70.4,39.6 43.3,55.2 43.3,46 70.4,30.4 "/><polygon points="99.5,22.8 72.4,38.4 72.4,29.2 99.5,13.6 "/><polygon points="13.3,74.8 18.8,71.6 26.8,76.2 13.3,84 1.5,77.2 9.4,72.5 "/><polygon points="26.8,67 26.8,75 19.8,71 "/><polygon points="85.9,32.9 85.9,42.1 98.5,34.9 90.5,30.3 "/><polygon points="40.4,45.4 13.3,61 1.5,54.2 28.6,38.6 "/><polygon points="69.4,28.7 42.3,44.3 30.6,37.5 57.7,21.9 "/><polygon points="98.5,11.9 71.4,27.5 59.6,20.7 86.7,5.1 "/><text x="0" y="115" fill="#000000" font-size="5px" font-weight="bold" font-family="'Helvetica Neue', Helvetica, Arial-Unicode, Arial, Sans-serif">Created by Alfonso Serrano Marín</text><text x="0" y="120" fill="#000000" font-size="5px" font-weight="bold" font-family="'Helvetica Neue', Helvetica, Arial-Unicode, Arial, Sans-serif">from the Noun Project</text></svg>