<?xml version="1.0" encoding="UTF-8" standalone="no"?>
<svg
   xmlns:dc="http://purl.org/dc/elements/1.1/"
   xmlns:cc="http://creativecommons.org/ns#"
   xmlns:rdf="http://www.w3.org/1999/02/22-rdf-syntax-ns#"
   xmlns:svg="http://www.w3.org/2000/svg"
   xmlns="http://www.w3.org/2000/svg"
   xmlns:sodipodi="http://sodipodi.sourceforge.net/DTD/sodipodi-0.dtd"
   xmlns:inkscape="http://www.inkscape.org/namespaces/inkscape"
   version="1.0"
   x="0px"
   y="0px"
   viewBox="0 0 50 62.5"
   enable-background="new 0 0 50 50"
   xml:space="preserve"
   id="svg2"
   inkscape:version="0.91 r13725"
   sodipodi:docname="Wall2.svg"><metadata
     id="metadata34"><rdf:RDF><cc:Work
         rdf:about=""><dc:format>image/svg+xml</dc:format><dc:type
           rdf:resource="http://purl.org/dc/dcmitype/StillImage" /></cc:Work></rdf:RDF></metadata><defs
     id="defs32" /><sodipodi:namedview
     pagecolor="#ffffff"
     bordercolor="#666666"
     borderopacity="1"
     objecttolerance="10"
     gridtolerance="10"
     guidetolerance="10"
     inkscape:pageopacity="0"
     inkscape:pageshadow="2"
     inkscape:window-width="1920"
     inkscape:window-height="1138"
     id="namedview30"
     showgrid="false"
     inkscape:zoom="3.776"
     inkscape:cx="25"
     inkscape:cy="31.25"
     inkscape:window-x="-8"
     inkscape:window-y="-8"
     inkscape:window-maximized="1"
     inkscape:current-layer="svg2" /><g
     id="g4"
     inkscape:export-xdpi="250"
     inkscape:export-ydpi="250"><g
       id="g6"><path
         fill="#000000"
         d="M7,10.589l-3,4.799V39h6V15.388L7,10.589z M7.044,32.588c-0.275,0-0.5-0.224-0.5-0.499    c0-0.276,0.225-0.501,0.5-0.501c0.276,0,0.501,0.225,0.501,0.501C7.545,32.364,7.321,32.588,7.044,32.588z M7.044,21.57    c-0.275,0-0.5-0.225-0.5-0.5c0-0.277,0.225-0.5,0.5-0.5c0.276,0,0.501,0.223,0.501,0.5C7.545,21.345,7.321,21.57,7.044,21.57z"
         id="path8" /></g><g
       id="g10"><path
         fill="#000000"
         d="M18.999,10.589L16,15.388V39h6V15.388L18.999,10.589z M18.824,32.588c-0.276,0-0.5-0.224-0.5-0.499    c0-0.276,0.224-0.501,0.5-0.501s0.501,0.225,0.501,0.501C19.325,32.364,19.1,32.588,18.824,32.588z M18.824,21.57    c-0.276,0-0.5-0.225-0.5-0.5c0-0.277,0.224-0.5,0.5-0.5s0.501,0.223,0.501,0.5C19.325,21.345,19.1,21.57,18.824,21.57z"
         id="path12" /></g><g
       id="g14"><path
         fill="#000000"
         d="M30.5,10.589L27,15.388V39h7V15.388L30.5,10.589z M30.518,32.588c-0.275,0-0.5-0.224-0.5-0.499    c0-0.276,0.225-0.501,0.5-0.501c0.277,0,0.502,0.225,0.502,0.501C31.02,32.364,30.795,32.588,30.518,32.588z M30.518,21.57    c-0.275,0-0.5-0.225-0.5-0.5c0-0.277,0.225-0.5,0.5-0.5c0.277,0,0.502,0.223,0.502,0.5C31.02,21.345,30.795,21.57,30.518,21.57z"
         id="path16" /></g><g
       id="g18"><path
         fill="#000000"
         d="M42,10.589l-3,4.799V39h6V15.388L42,10.589z M42.246,32.588c-0.277,0-0.502-0.224-0.502-0.499    c0-0.276,0.225-0.501,0.502-0.501c0.275,0,0.5,0.225,0.5,0.501C42.746,32.364,42.521,32.588,42.246,32.588z M42.246,21.57    c-0.277,0-0.502-0.225-0.502-0.5c0-0.277,0.225-0.5,0.502-0.5c0.275,0,0.5,0.223,0.5,0.5C42.746,21.345,42.521,21.57,42.246,21.57    z"
         id="path20" /></g><path
       fill="#000000"
       d="M1,31v3h48v-3H1z"
       id="path22" /><path
       fill="#000000"
       d="M1,20v3h48v-3H1z"
       id="path24" /></g><text
     x="0"
     y="65"
     fill="#000000"
     font-size="5px"
     font-weight="bold"
     font-family="'Helvetica Neue', Helvetica, Arial-Unicode, Arial, Sans-serif"
     id="text26">Created by Mister Pixel</text>
<text
     x="0"
     y="70"
     fill="#000000"
     font-size="5px"
     font-weight="bold"
     font-family="'Helvetica Neue', Helvetica, Arial-Unicode, Arial, Sans-serif"
     id="text28">from the Noun Project</text>
</svg>