<?xml version="1.0" encoding="UTF-8" standalone="no"?>
<svg
   xmlns:dc="http://purl.org/dc/elements/1.1/"
   xmlns:cc="http://creativecommons.org/ns#"
   xmlns:rdf="http://www.w3.org/1999/02/22-rdf-syntax-ns#"
   xmlns:svg="http://www.w3.org/2000/svg"
   xmlns="http://www.w3.org/2000/svg"
   xmlns:sodipodi="http://sodipodi.sourceforge.net/DTD/sodipodi-0.dtd"
   xmlns:inkscape="http://www.inkscape.org/namespaces/inkscape"
   version="1.1"
   x="0px"
   y="0px"
   viewBox="0 0 67.762444 58.599998"
   xml:space="preserve"
   id="svg2"
   inkscape:version="0.91 r13725"
   sodipodi:docname="Warning.svg"
   width="67.762444"
   height="58.599998"><metadata
     id="metadata20"><rdf:RDF><cc:Work
         rdf:about=""><dc:format>image/svg+xml</dc:format><dc:type
           rdf:resource="http://purl.org/dc/dcmitype/StillImage" /><dc:title></dc:title></cc:Work></rdf:RDF></metadata><defs
     id="defs18" /><sodipodi:namedview
     pagecolor="#ffffff"
     bordercolor="#666666"
     borderopacity="1"
     objecttolerance="10"
     gridtolerance="10"
     guidetolerance="10"
     inkscape:pageopacity="0"
     inkscape:pageshadow="2"
     inkscape:window-width="1436"
     inkscape:window-height="855"
     id="namedview16"
     showgrid="false"
     fit-margin-top="0"
     fit-margin-left="0"
     fit-margin-right="0"
     fit-margin-bottom="0"
     inkscape:zoom="5.3400704"
     inkscape:cx="5.1675084"
     inkscape:cy="16.166556"
     inkscape:window-x="0"
     inkscape:window-y="1"
     inkscape:window-maximized="1"
     inkscape:current-layer="svg2" /><g
     id="g4151"
     transform="translate(-15.968779,-20.6)"><g
       id="g4156"><path
         d="m 61.1,26.8 c -2.6,-4.1 -7,-6.2 -11.3,-6.2 -4.3,0 -8.6,2.1 -11.3,6.2 L 18.1,58.5 c -5.7,8.9 0.7,20.7 11.3,20.7 l 40.9,0 c 10.6,0 17,-11.7 11.3,-20.7 L 61.1,26.8 Z M 75,68.4 c -0.5,0.8 -1.9,2.8 -4.8,2.8 l -40.8,0 c -2.9,0 -4.3,-2 -4.8,-2.8 -0.5,-0.8 -1.4,-3.1 0.2,-5.5 L 45.2,31.1 c 1.4,-2.2 3.7,-2.5 4.6,-2.5 0.9,0 3.1,0.2 4.6,2.5 l 20.4,31.8 c 1.6,2.4 0.7,4.6 0.2,5.5 z"
         id="path6"
         style="fill:#d40000"
         inkscape:connector-curvature="0" /><path
         inkscape:connector-curvature="0"
         style="fill:#000000"
         id="path8"
         d="m 51.5,41.8 -2.3,0 c -1.2,0 -1.9,0.7 -1.8,1.9 l 0.4,13.1 c 0,1.2 0.7,1.8 1.9,1.8 l 1.3,0 c 1.2,0 1.9,-0.6 1.9,-1.8 l 0.4,-13.1 c 0.1,-1.2 -0.6,-1.9 -1.8,-1.9 z" /><path
         inkscape:connector-curvature="0"
         style="fill:#000000"
         id="path10"
         d="m 51.2,61 -1.6,0 c -1.2,0 -1.9,0.6 -1.9,1.9 l 0,1.4 c 0,1.2 0.6,1.9 1.9,1.9 l 1.6,0 c 1.2,0 1.9,-0.6 1.9,-1.9 l 0,-1.4 C 53,61.7 52.4,61 51.2,61 Z" /></g></g><text
     x="-15.968779"
     y="94.400002"
     font-size="5px"
     font-weight="bold"
     id="text12"
     style="font-weight:bold;font-size:5px;font-family:'Helvetica Neue', Helvetica, Arial-Unicode, Arial, Sans-serif;fill:#000000">Created by Viktor Vorobyev</text>
<text
     x="-15.968779"
     y="99.400002"
     font-size="5px"
     font-weight="bold"
     id="text14"
     style="font-weight:bold;font-size:5px;font-family:'Helvetica Neue', Helvetica, Arial-Unicode, Arial, Sans-serif;fill:#000000">from the Noun Project</text>
</svg>