<?xml version="1.0" encoding="utf-8"?>
<!-- Generator: Adobe Illustrator 23.0.1, SVG Export Plug-In . SVG Version: 6.00 Build 0)  -->
<svg version="1.1" id="Calque_1" xmlns="http://www.w3.org/2000/svg" xmlns:xlink="http://www.w3.org/1999/xlink" x="0px" y="0px"
	 viewBox="0 0 1920 1080" style="enable-background:new 0 0 1920 1080;" xml:space="preserve">
<style type="text/css">
	.st0{fill:#FFFFFF;}
	.st1{fill:#33336F;}
	.st2{fill:#33336F;stroke:#FFFFFF;stroke-miterlimit:10;}
	.st3{fill:#0092D2;stroke:#FFFFFF;stroke-miterlimit:10;}
	.st4{opacity:0.92;}
	.st5{fill:#EBF7FD;stroke:#FFFFFF;stroke-miterlimit:10;}
	.st6{fill:#FFFFFF;stroke:#FFFFFF;stroke-miterlimit:10;}
	.st7{fill:#0092D2;stroke:#0092D2;stroke-width:0.6912;}
</style>
<g>
	<rect x="47" y="43.8" class="st0" width="1848" height="743.24"/>
	<g>
		<rect x="810.71" y="505.26" class="st1" width="990.63" height="195.85"/>
		<g>
			<g>
				<g>
					<g>
						<path class="st0" d="M854.63,551.2h27.49v116.99h-27.49V551.2z"/>
						<path class="st0" d="M996.42,577.69c-4.19-2.35-11.23-6.71-23.8-6.71c-18.44,0-30.17,14.92-30.17,38.55
							c0,22.79,13.24,38.21,30.67,38.21c13.41,0,21.29-5.03,23.97-6.2l1.01,24.47c-4.69,1.51-14.42,4.2-29.33,4.2
							c-32.02,0-54.47-23.97-54.47-61.01c0-42.91,28.83-60,52.63-60c17.43,0,26.32,3.85,30.84,5.7L996.42,577.69z"/>
						<path class="st0" d="M1027.26,551.2h67.55v20.45h-41.06v26.15h39.05v20.44h-39.05v29.5h43.07v20.45h-69.55V551.2z
							 M1055.75,519.37h23.13l-16.76,24.47h-15.41L1055.75,519.37z"/>
						<path class="st0" d="M1127.65,551.2h67.55v20.45h-41.06v26.15h39.06v20.44h-39.06v29.5h43.08v20.45h-69.56V551.2z"/>
						<path class="st0" d="M1228.04,551.2h27.49v95.87h38.71v21.12h-66.2V551.2z"/>
					</g>
				</g>
			</g>
		</g>
		<g>
			<rect x="141.15" y="131.98" class="st2" width="583.45" height="566.87"/>
			<rect x="384.62" y="368.49" class="st3" width="339.98" height="330.36"/>
			<g class="st4">
				<path class="st5" d="M475.07,131.98c0.2,4.17,0.42,9.16,0.42,11.92c0,172.19-144.13,312.33-321.26,312.33
					c-2.62,0-8.09-0.23-13.08-0.42v138.1c4.72,0.29,10.23,0.42,13.08,0.42c255.52,0,463.52-202.08,463.52-450.44
					c0-2.91-0.19-7.86-0.24-11.92H475.07z"/>
			</g>
			<g>
				<path class="st6" d="M724.6,236.42c-6.11-0.21-12.7-0.36-15.76-0.36c-255.55,0-463.48,202.07-463.48,450.4
					c0,2.39,0.2,7.6,0.33,12.39h142.06c-0.09-4.93-0.17-10.16-0.17-12.39c0-172.12,144.09-312.22,321.26-312.22
					c3.13,0,9.76,0.23,15.76,0.48V236.42z"/>
			</g>
		</g>
		<g>
			<g>
				<path class="st7" d="M950.44,326.24l-11.52,8.59c-6.35-8.04-13.97-14.12-22.87-18.27c-8.9-4.15-18.68-6.22-29.33-6.22
					c-11.65,0-22.44,2.73-32.36,8.17c-9.92,5.44-17.62,12.75-23.08,21.92c-5.46,9.18-8.19,19.5-8.19,30.97
					c0,17.32,6.1,31.78,18.31,43.37c12.21,11.59,27.61,17.39,46.21,17.39c20.45,0,37.56-7.79,51.31-23.38l11.52,8.49
					c-7.28,9.03-16.35,16-27.24,20.93c-10.88,4.93-23.04,7.4-36.46,7.4c-25.54,0-45.68-8.26-60.43-24.79
					c-12.37-13.94-18.56-30.79-18.56-50.53c0-20.77,7.49-38.24,22.48-52.41c14.98-14.18,33.75-21.27,56.3-21.27
					c13.62,0,25.93,2.6,36.91,7.79C934.43,309.59,943.43,316.87,950.44,326.24z"/>
				<path class="st7" d="M1060.96,300.07l68.1,142.04h-15.87l-22.74-46.61h-63.23l-22.65,46.61h-16.28l69.05-142.04H1060.96z
					 M1058.99,330.15l-25,51.45h49.92L1058.99,330.15z"/>
				<path class="st7" d="M1180.93,300.07h29.09c16.21,0,27.2,0.65,32.95,1.94c8.67,1.94,15.72,6.08,21.14,12.43
					c5.43,6.36,8.14,14.18,8.14,23.47c0,7.74-1.87,14.55-5.61,20.41c-3.74,5.88-9.1,10.31-16.05,13.3c-6.95,3-16.56,4.54-28.82,4.6
					l52.53,65.89h-18.19l-52.53-65.89h-8.13v65.89h-14.54V300.07z M1195.46,313.97v48.35l25.21,0.2c9.77,0,16.99-0.91,21.68-2.71
					c4.68-1.81,8.33-4.69,10.96-8.66c2.62-3.96,3.93-8.39,3.93-13.29c0-4.77-1.32-9.11-3.98-13.01c-2.66-3.9-6.15-6.7-10.47-8.36
					c-4.32-1.68-11.49-2.52-21.52-2.52H1195.46z"/>
				<path class="st7" d="M1343.21,442.11V300.07h3.2l96.97,108.35V300.07h14.54v142.04h-3.31l-96.23-107.28v107.28H1343.21z"/>
				<path class="st7" d="M1602.83,296.59c22.12,0,40.64,7.17,55.54,21.51c14.9,14.34,22.35,31.99,22.35,52.94
					c0,20.77-7.44,38.38-22.3,52.85c-14.87,14.47-33,21.7-54.39,21.7c-21.67,0-39.95-7.2-54.85-21.61
					c-14.9-14.4-22.36-31.82-22.36-52.26c0-13.63,3.4-26.27,10.19-37.9c6.78-11.64,16.04-20.76,27.77-27.34
					C1576.51,299.89,1589.19,296.59,1602.83,296.59z M1603.47,310.34c-10.82,0-21.07,2.74-30.77,8.22
					c-9.69,5.47-17.26,12.84-22.7,22.11c-5.44,9.27-8.17,19.61-8.17,31.01c0,16.87,6.02,31.12,18.07,42.74
					c12.05,11.62,26.57,17.43,43.57,17.43c11.36,0,21.85-2.67,31.51-8.02c9.66-5.34,17.19-12.65,22.6-21.92
					c5.41-9.27,8.12-19.57,8.12-30.91c0-11.27-2.71-21.46-8.12-30.56c-5.41-9.12-13.03-16.4-22.85-21.87
					C1624.91,313.07,1614.5,310.34,1603.47,310.34z"/>
				<path class="st7" d="M1730.08,313.97v-13.9h79.95v13.9h-32.55v128.14h-14.85V313.97H1730.08z"/>
			</g>
		</g>
		<g>
			<path class="st7" d="M827.32,130.66h12.8v124.19h-12.8V130.66z"/>
			<path class="st7" d="M919.8,254.85V130.66h2.79l84.9,94.85v-94.85h12.8v124.19h-2.91l-84.3-93.95v93.95H919.8z"/>
			<path class="st7" d="M1088.51,231.79l10.86-6.33c7.64,13.7,16.48,20.54,26.5,20.54c4.29,0,8.31-0.98,12.08-2.92
				c3.76-1.95,6.64-4.55,8.6-7.83c1.97-3.28,2.95-6.75,2.95-10.42c0-4.18-1.44-8.28-4.35-12.28c-4-5.51-11.3-12.15-21.9-19.92
				c-10.66-7.82-17.29-13.47-19.9-16.97c-4.52-5.86-6.78-12.2-6.78-19.01c0-5.4,1.33-10.34,3.99-14.78
				c2.67-4.45,6.41-7.96,11.24-10.53c4.83-2.56,10.08-3.84,15.75-3.84c6.01,0,11.64,1.45,16.88,4.34
				c5.23,2.89,10.77,8.21,16.61,15.95l-10.42,7.68c-4.79-6.18-8.88-10.25-12.26-12.22c-3.38-1.96-7.05-2.95-11.03-2.95
				c-5.13,0-9.33,1.52-12.59,4.57c-3.27,3.04-4.9,6.78-4.9,11.24c0,2.71,0.58,5.33,1.74,7.87c1.16,2.54,3.27,5.3,6.33,8.29
				c1.67,1.58,7.16,5.73,16.47,12.43c11.04,7.94,18.6,15,22.71,21.2c4.1,6.19,6.15,12.41,6.15,18.66c0,9.01-3.52,16.84-10.55,23.48
				c-7.03,6.65-15.57,9.96-25.65,9.96c-7.75,0-14.78-2-21.09-6.02C1099.65,247.97,1093.84,241.23,1088.51,231.79z"/>
			<path class="st7" d="M1227.97,142.83v-12.17h69.84v12.17h-28.44v112.02h-12.96V142.83H1227.97z"/>
			<path class="st7" d="M1364.99,130.66h12.8v124.19h-12.8V130.66z"/>
			<path class="st7" d="M1444.67,142.83v-12.17h69.84v12.17h-28.44v112.02h-12.96V142.83H1444.67z"/>
			<path class="st7" d="M1583.9,130.66h12.8v74.97c0,8.9,0.17,14.44,0.52,16.64c0.63,4.9,2.11,8.99,4.42,12.28
				c2.32,3.29,5.89,6.04,10.69,8.27c4.81,2.22,9.65,3.34,14.51,3.34c4.24,0,8.29-0.87,12.17-2.62c3.88-1.74,7.13-4.17,9.74-7.26
				c2.61-3.1,4.52-6.84,5.74-11.23c0.87-3.16,1.3-9.63,1.3-19.42v-74.97h12.8v74.99c0,11.09-1.12,20.06-3.35,26.9
				c-2.23,6.84-6.7,12.79-13.39,17.86c-6.7,5.06-14.8,7.59-24.3,7.59c-10.32,0-19.16-2.4-26.52-7.18
				c-7.36-4.78-12.28-11.12-14.77-19c-1.57-4.84-2.35-13.57-2.35-26.18V130.66z"/>
			<path class="st7" d="M1737.66,142.83v-12.17h69.84v12.17h-28.44v112.02h-12.96V142.83H1737.66z"/>
		</g>
	</g>
</g>
</svg>
