<?xml version="1.0" encoding="utf-8"?>
<!-- Generator: Adobe Illustrator 24.0.1, SVG Export Plug-In . SVG Version: 6.00 Build 0)  -->
<svg version="1.1" id="Calque_1" xmlns="http://www.w3.org/2000/svg" xmlns:xlink="http://www.w3.org/1999/xlink" x="0px" y="0px"
	 viewBox="0 0 928.5 644.2" style="enable-background:new 0 0 928.5 644.2;" xml:space="preserve">
<style type="text/css">
	.st0{fill:#231F20;}
	.st1{fill:#243B7D;}
	.st2{fill:#ED1C24;}
	.st3{fill:#939598;}
	.st4{fill:none;}
	.st5{enable-background:new    ;}
</style>
<title>Plan de travail 6 copie 20</title>
<g id="vect">
	<path class="st0" d="M289.5,538.4c1.7,0,3.2,1.3,2.4,4.6l-8,1.8C285.3,541.2,287.6,538.4,289.5,538.4 M293.9,551.3h-1.6
		c-2,2.4-4.1,4.2-6.2,4.2s-3.3-1.3-3.3-4.2c0-1.2,0.1-2.4,0.4-3.5l12.9-4.2c2.5-5.9-0.5-8.5-4-8.5c-6.1,0-13,10.1-13,19
		c0,4,1.9,6.2,4.9,6.2C287.3,560.2,290.9,556.8,293.9,551.3 M291.4,532.6l9-8.4v-1h-4.9l-5.6,9.4L291.4,532.6z M263.7,538.5h4.3
		l-6.8,18.5c-0.6,1.6,0.2,3.2,1.9,3.2c3.8,0,10-3.8,12.2-9H274c-1.7,1.8-5,4.2-7.8,4.7l6.2-17.4h6.4l0.8-2.6h-6.2l2.4-6.7h-2.5
		l-4.4,6.7l-5.2,0.8L263.7,538.5z M257.9,537.7c0.4-1,0-2.1-0.9-2.5c-0.2-0.1-0.4-0.1-0.6-0.2c-3.7,0-8.1,3.3-9.9,8h1.2
		c1.2-1.7,3.2-3.6,5.1-3.9l-7.1,18.4c-0.5,0.9-0.1,2,0.8,2.5c0.2,0.1,0.5,0.2,0.7,0.2c3.5,0,7.6-3.4,9.4-8h-1.2
		c-1.2,1.7-3.2,3.6-5.1,3.9L257.9,537.7z M259.2,528.4c1.7,0,3.1-1.4,3.1-3c0,0,0,0,0,0c0-1.7-1.4-3-3.1-3.1c-1.7,0-3,1.4-3.1,3
		c0,0,0,0,0,0c0,1.7,1.3,3,2.9,3C259.2,528.4,259.2,528.4,259.2,528.4 M218.4,556.7c-0.9,2.1,0.1,3.4,2.1,3.4
		c1.1,0.2,2.1-0.6,2.3-1.7l4.9-13c2.3-2.8,6.9-5.7,8.8-5.7c1.4,0,1.2,1.1,0.3,2.8l-7.6,14.5c-0.6,1-0.2,2.3,0.8,2.9
		c0.3,0.2,0.7,0.3,1,0.3c3.7,0,8.1-3.3,9.9-8h-1.2c-1.2,1.7-3.2,3.6-5.1,3.9l6.5-13.1c0.7-1.4,1.2-2.9,1.2-4.5
		c0.2-1.8-1.1-3.3-2.8-3.5c-0.2,0-0.4,0-0.5,0c-3.2,0-6.4,3.6-10.3,8.1v-3.4c0-2.5-0.8-4.6-3-4.6c-1.4,0-2.7,1.2-4,2.9v0.5
		c2.4-0.1,3.5,3.5,1.8,7.3L218.4,556.7z M218.3,540.6c0.9-3,0.4-5.7-1.9-5.7c-2.7,0-3.4,2.1-6.2,8.1v-3.4c0-2.5-0.8-4.6-3-4.6
		c-2.6,0-4.9,4-6.8,8h1.2c1.2-1.8,2.4-2.9,3.3-2.9c1.1,0,1.7,1.7,0,5.5l-5,11.1c-0.9,2.1,0.1,3.4,2.1,3.4c1.1,0.2,2.1-0.6,2.3-1.7
		l4.9-13c1.4-1.7,2.6-3.2,4.2-4.9H218.3z M189.9,538.4c1.7,0,3.2,1.3,2.4,4.6l-8,1.8C185.7,541.1,188,538.4,189.9,538.4
		 M194.3,551.2h-1.6c-2,2.4-4.1,4.2-6.2,4.2s-3.3-1.3-3.3-4.2c0-1.2,0.1-2.4,0.4-3.5l12.8-4.2c2.5-5.9-0.5-8.5-4-8.5
		c-6.1,0-13,10.1-13,19c0,4,1.9,6.2,4.9,6.2C187.7,560.1,191.3,556.8,194.3,551.2 M164,538.5h4.3l-6.8,18.5
		c-0.6,1.6,0.2,3.2,1.9,3.2c3.8,0,10-3.8,12.2-9h-1.2c-1.7,1.8-5,4.2-7.8,4.7l6.2-17.4h6.3l0.8-2.6h-6.1l2.4-6.7h-2.4l-4.4,6.7
		l-5.2,0.8L164,538.5z M140.7,553c0-5.7,6.3-13.4,9.9-13.4c0.7,0,1.5,0.1,2.2,0.3l-3.7,9.9c-2.1,2.6-5.4,5.7-6.9,5.7
		C141.2,555.5,140.7,554.7,140.7,553 M160.2,534l-1.9-0.1l-2.2,2.1h-0.5c-10.6,0-19.7,11.9-19.7,20.5c-0.2,1.9,1.3,3.6,3.2,3.8
		c0.2,0,0.4,0,0.6,0c2.7,0,5.4-3.9,8.4-8.1l-0.1,1.5c-0.4,4.3,0.9,6.6,3.1,6.6c2.6,0,5-4,6.8-8h-1.2c-1.2,1.8-2.4,2.9-3.3,2.9
		s-1.7-1.8,0-5.5L160.2,534z M137.7,540.7c0.9-3,0.4-5.7-1.9-5.7c-2.7,0-3.4,2.1-6.2,8.1v-3.4c0-2.5-0.8-4.6-3-4.6c-2.6,0-5,4-6.8,8
		h1.2c1.2-1.8,2.4-2.9,3.3-2.9c1.1,0,1.7,1.7,0,5.5l-5,11.1c-0.9,2.1,0,3.4,2.1,3.4c1.2,0,1.8-0.3,2.3-1.7l4.9-13
		c1.4-1.7,2.6-3.2,4.2-4.9H137.7z M102.2,559.3l0.5-1.4c-6.2-1.2-6.9-1.2-4.5-7.9l2.5-6.9h6.8c3.1,0,3.1,1.2,2.6,4.6h1.8l4.1-11.2
		h-1.8c-1.5,2.6-2.7,4.6-6.1,4.6h-6.7l3.6-9.8c1.1-3.1,1.8-3.8,5.9-3.8h3c4.3,0,4.8,1.2,4.8,5.5h1.7l1.4-7.6H96.3l-0.5,1.4
		c5,1,5.4,1.5,3.1,7.9L93.4,550c-2.3,6.3-3.3,6.8-9,7.9l-0.4,1.4L102.2,559.3z"/>
	<path class="st0" d="M227.5,480.6c1.7,0,3.2,1.3,2.4,4.6L222,487C223.4,483.3,225.7,480.6,227.5,480.6 M231.9,493.4h-1.6
		c-2,2.4-4.1,4.2-6.2,4.2s-3.3-1.3-3.3-4.2c0-1.2,0.1-2.4,0.4-3.5l12.8-4.2c2.5-5.9-0.5-8.5-4-8.5c-6.1,0-13,10.1-13,19
		c0,4,1.9,6.2,4.9,6.2C225.3,502.3,228.9,498.9,231.9,493.4 M229.3,474.7l9-8.4v-1h-4.9l-5.6,9.4L229.3,474.7z M201.6,480.7h4.3
		l-6.8,18.5c-0.6,1.6,0.2,3.1,1.9,3.1c3.8,0,10.1-3.8,12.2-9H212c-1.7,1.8-5,4.2-7.8,4.7l6.2-17.4h6.3l0.8-2.6h-6.1l2.4-6.7h-2.4
		l-4.4,6.7l-5.2,0.7L201.6,480.7z M195.9,479.8c0.4-1,0-2.1-0.9-2.5c-0.2-0.1-0.4-0.1-0.6-0.2c-3.7,0-8.1,3.3-9.9,8h1.2
		c1.2-1.7,3.2-3.6,5.1-3.9l-7.1,18.4c-0.5,0.9-0.1,2,0.8,2.5c0.2,0.1,0.5,0.2,0.7,0.2c3.5,0,7.6-3.4,9.4-8h-1.2
		c-1.2,1.7-3.2,3.6-5.1,3.9L195.9,479.8z M197.2,470.5c1.7,0,3.1-1.3,3.1-3c0-1.7-1.3-3.1-3-3.1c-1.7,0-3.1,1.3-3.1,3c0,0,0,0,0,0.1
		C194.2,469.1,195.5,470.5,197.2,470.5C197.1,470.5,197.2,470.5,197.2,470.5 M172.6,498.2l12.9-33.9l-0.4-0.5l-8.1,0.9v1l1.6,1.2
		c1.4,1.1,1,2.2-0.3,5.6l-10.1,26.6c-0.6,1-0.2,2.3,0.8,2.9c0.3,0.2,0.7,0.3,1,0.3c3.7,0,7.6-3.3,9.4-8h-1.2
		C176.8,496.3,174.9,497.7,172.6,498.2 M148,495.1c0-5.7,6.4-13.4,9.9-13.4c0.7,0,1.5,0.1,2.2,0.3l-3.7,9.9
		c-2.1,2.6-5.4,5.8-6.9,5.8C148.6,497.6,148,496.9,148,495.1 M167.5,476.1l-2-0.1l-2.2,2.1H163c-10.6,0-19.7,11.9-19.7,20.5
		c-0.2,1.9,1.3,3.6,3.2,3.8c0.2,0,0.4,0,0.6,0c2.7,0,5.4-3.9,8.4-8.1l-0.1,1.5c-0.4,4.3,0.9,6.6,3.1,6.6c2.6,0,4.9-4,6.8-8h-1.2
		c-1.2,1.8-2.4,2.9-3.3,2.9s-1.7-1.8,0-5.5L167.5,476.1z M120.4,506.9c0-2.5,2.4-4,5.7-5.3c1.6,0.7,3.3,1.4,5,1.9
		c3.5,1.2,4.9,1.6,4.9,2.7c0,2.3-3.8,4-9.1,4C122.5,510.2,120.4,509.2,120.4,506.9 M130,491.9c-1.5,0-2.1-1.3-2.1-2.8
		c0-4.1,2.2-10.2,5.7-10.2c1.5,0,2.1,1.3,2.1,2.8C135.7,485.8,133.5,491.9,130,491.9 M140,504.6c0-3-2.6-4-6.9-5.3
		c-3.7-1.1-5.4-1.4-5.4-2.6c0-1,0.8-2.1,2.4-3c5.5-0.4,9.8-4.9,10-10.4c0-0.9-0.2-1.7-0.5-2.5h5.1l0.8-2.6h-8.1
		c-1-0.6-2.1-0.9-3.3-0.9c-5.7,0.1-10.3,4.6-10.6,10.2c-0.1,3,2,5.6,4.9,6.2c-3,1.3-4.7,2.9-4.7,4.8c0,1,0.4,1.9,1.2,2.5
		c-7,2-9.7,4.4-9.7,7.6s4.2,4.5,9.2,4.5C132.9,513,140,508.4,140,504.6 M107.6,484.8c3.1,0,3.1,1.2,2.6,4.6h1.8l4.1-11.2h-1.8
		c-1.5,2.6-2.7,4.6-6.1,4.6h-6.7l3.4-9.3c1.1-3.1,1.8-3.7,5.9-3.7h3c4.3,0,4.8,1.1,4.8,5.5h1.7l1.4-7.6H96.3l-0.5,1.4
		c5,1,5.4,1.5,3.1,7.9l-5.6,15.2c-2.3,6.4-3.3,6.9-9,7.9l-0.4,1.5h28.4l5.1-8.1h-1.9c-3.2,3.1-7.3,6-13,6c-7.5,0-6.8-0.3-4.3-7.2
		l2.7-7.4H107.6z M111.3,465.4l9-6.2v-1H115l-5,7.2L111.3,465.4z"/>
	<path class="st0" d="M224.5,422.7c1.7,0,3.2,1.3,2.4,4.6l-8,1.9C220.3,425.4,222.6,422.7,224.5,422.7 M228.9,435.5h-1.6
		c-2,2.4-4.1,4.2-6.2,4.2s-3.3-1.3-3.3-4.2c0-1.2,0.1-2.4,0.4-3.5l12.9-4.2c2.5-5.9-0.5-8.5-4-8.5c-6.1,0-13,10.1-13,19
		c0,4,1.9,6.2,4.9,6.2C222.3,444.4,225.9,441,228.9,435.5 M226.3,416.9l9-8.4v-1h-4.9l-5.6,9.4L226.3,416.9z M199.8,422.8h3.4
		l-6.8,18.5c-0.6,1.6,0.2,3.1,1.9,3.1c3.8,0,10-3.8,12.2-9h-1.2c-1.7,1.8-5,4.2-7.8,4.7l6.2-17.4h6.3l0.8-2.6h-6.2l2.4-6.7h-2.4
		l-4.4,6.7l-4.4,0.7L199.8,422.8z M196.5,424.9c0.9-3,0.4-5.6-1.9-5.6c-2.7,0-3.4,2.1-6.2,8.1v-3.4c0-2.5-0.8-4.6-3-4.6
		c-2.6,0-5,4-6.8,8h1.2c1.2-1.8,2.4-2.9,3.3-2.9c1.1,0,1.7,1.7,0,5.5l-5,11.1c-0.9,2.1,0,3.4,2.1,3.4c1.2,0,1.8-0.3,2.3-1.7l4.9-13
		c1.4-1.7,2.6-3.2,4.2-4.9H196.5z M168,422.6c1.7,0,3.2,1.3,2.4,4.6l-8,1.9C163.8,425.4,166.2,422.6,168,422.6 M172.4,435.5h-1.6
		c-2,2.4-4.1,4.2-6.2,4.2s-3.3-1.3-3.3-4.2c0-1.2,0.1-2.4,0.4-3.5l12.8-4.2c2.5-5.9-0.5-8.5-4-8.5c-6.1,0-13,10.1-13,19
		c0,4,1.9,6.2,4.9,6.2C165.8,444.4,169.4,441,172.4,435.5 M141,440.7c-1.2,0-3-1.2-3-2.2c0.3-1.2,0.7-2.4,1.2-3.6l2.1-5.5
		c2.2-2.6,5.6-5.5,7.5-5.5c1.2,0,2,0.7,2,2.5C150.8,431.5,146.1,440.7,141,440.7 M155.6,424.4c0-3.8-1.4-5.1-4-5.1
		c-3.2,0-6.3,3.4-9.4,7.6l7.8-20.3l-0.4-0.5l-8.1,0.9v1l1.6,1.2c1.4,1.1,1,2.3-0.3,5.6l-8.3,21.5c-0.6,1.3-1,2.6-1.3,3.9
		c0,2.2,3,4.3,5.7,4.3C145.1,444.5,155.6,433.1,155.6,424.4 M130.4,422c0.4-1,0-2.1-0.9-2.5c-0.2-0.1-0.4-0.1-0.6-0.2
		c-3.7,0-8.1,3.3-9.9,8h1.2c1.2-1.7,3.2-3.6,5.1-3.9l-7.1,18.4c-0.5,0.9-0.1,2,0.8,2.5c0.2,0.1,0.5,0.2,0.7,0.2c3.5,0,7.6-3.4,9.4-8
		H128c-1.2,1.7-3.2,3.6-5.1,3.9L130.4,422z M131.7,412.7c1.7,0,3.1-1.4,3.1-3.1s-1.4-3.1-3.1-3.1c-1.7,0-3.1,1.4-3.1,3.1l0,0
		C128.7,411.3,130,412.7,131.7,412.7 M113.1,409.7H96.2l-0.5,1.4c5,1,5.4,1.5,3.1,7.9l-5.5,15.2c-2.3,6.3-3.3,6.9-9,7.9l-0.4,1.5
		h25.7l5.6-9.9h-2c-3.2,3.5-6.8,7.8-12.6,7.8c-4.3,0-4.8-0.7-2.5-7.2l5.5-15.2c2.3-6.3,3.3-6.9,9-7.9L113.1,409.7z"/>
	<path class="st1" d="M179.1,157.8c0.9-0.9,1.8-1.9,2.7-2.8l0,0c1.6-1.9,3.4-3.7,5.3-5.4c0.5-0.5,1.1-1,1.7-1.4
		c0.2-0.2,0.2-0.5,0.3-0.6c-0.8,0.3-1.3,1-2.1,1.3c-0.2,0-0.3-0.2-0.2-0.3l1.7-1.3h-0.1c-0.2,0-0.2-0.2-0.2-0.3
		c-2.1-0.3-3.6,1.1-5.1,2.4c-0.3,0.2-0.6-0.2-0.8-0.2c-2.4,0.8-4.1,2.9-6.5,3.8v-0.3c-1,0.3-1.9,0.9-2.9,1.1c-1.3,0.2-2.7,0.3-4,0.1
		c-1.9,0.2-3.9,0.6-5.8,1h-0.2c-1,0.3-2,0.7-2.9,1.2l-0.1,0.1l-0.2,0.3c-0.3,0.4-0.7,0.7-1.1,1c-0.9,0.6-1.8,1.2-2.6,2
		c-0.1,0.1-0.2,0.1-0.3,0.1c-0.9,0.8-1.7,1.6-2.6,2.4c-0.2,0.1-0.3,0.1-0.5,0.1l0,0l0.1-0.1l0.4-0.7c0.1-0.2,0.3-0.5,0.5-0.7
		s0.4-0.7,0.7-1c0.1-0.1,0.1-0.1,0-0.2c0,0,0,0,0,0c-0.1-0.1-0.1-0.1-0.2-0.1c0.8-0.8,1.7-1.4,2.7-2l0,0c-0.1,0-0.3,0-0.2-0.2
		s0.2-0.3,0.3-0.4s0-0.1,0.1-0.1l-0.1-0.1c-0.3,0.2-0.5,0.3-0.7,0.5c-0.4,0.3-0.7,1-1.3,1c-0.1,0-0.2,0-0.2,0c-0.1,0-0.1,0-0.2-0.1
		l0,0v-0.1l0,0l0.1-0.1c0,0,0-0.1,0.1-0.1l0.1-0.1c0-0.1,0.1-0.1,0.1-0.2c0,0,0.1-0.1,0.1-0.1l0.2-0.4l0.1-0.2
		c0.1-0.1,0.1-0.2,0.2-0.3c0.1-0.1,0-0.2,0-0.3c0,0,0,0-0.1,0c0.3-0.4,0.7-0.7,1.1-1h-0.1c0.6-0.3,1.2-0.7,1.8-1l0.3-0.2
		c-0.9,0.3-1.7,0.7-2.5,1.2c-0.1,0-0.2,0.1-0.3,0.1c-0.1,0-0.3,0-0.4-0.1c0,0,0-0.1,0-0.1c0.2-0.3,0.6-0.5,1-0.8
		c0.2,0,0.3,0,0.3,0.2c5.1-4,12-3,17.9-5.1l1.4-0.9c0.8-0.3,1.4-1.1,2.4-1.6c1.3-0.9,2.2-2.2,2.7-3.6c0-0.1-0.1-0.2-0.1-0.3
		c-2,2.2-4.4,3.9-7,5.2c-3.3,1.7-7,1.4-10.5,1.9c0.2-0.3,0.5-0.3,0.8-0.3c0-0.5,0.3-0.6,0.6-0.9h0.5c0.1,0,0.1-0.3,0.3-0.3
		c0.3,0,0.8-0.2,0.6-0.2c-0.5-0.6-1.4,0.5-2.2,0c0.3-0.3,0.2-0.8,0.5-1h0.6c0-0.2,0.1-0.5,0.3-0.6c2.4-1.4,4.6-2.5,6.8-3.8
		c-0.5,0-0.8,0.5-1.3,0.2c0.3,0,0-0.5,0.3-0.5c1.7-0.5,3.2-1.4,4.9-2.1c-0.6,0-1.1,0.5-1.7,0c0.3-0.1,0.5-0.5,1-0.5v-0.5
		c0-0.1,0.2-0.1,0.3-0.1c-0.1,0-0.2-0.1-0.3-0.2c0.2-0.3,0.6-0.2,0.9-0.5c-0.2,0-0.5,0-0.5-0.2c0.5-0.6,1.3-0.9,2.1-0.9
		c-0.2-0.3-0.6,0-0.6-0.3c0-0.1,0.2-0.1,0.3-0.1h-0.3c-0.3-0.2-0.2-0.5-0.2-0.6c1-1.1,1-2.5,1.4-3.8c-0.2,0-0.3,0-0.3-0.2
		c-1.6,1.7-4.1,2.4-6.5,3h-0.8c-0.9,0.3-1.9,0.3-2.7-0.2c-0.6-0.4-1.1-0.8-1.6-1.3c-1.2-0.8-2.6-1.4-4-1.9
		c-3.9-1.3-8.1-1.9-12.2-1.7c1.7-1,3.7-1,5.5-1.6c2.7-0.8,5.2-1.8,8.1-1.6c-0.5-0.1-1.1-0.1-1.6,0c-2.2-0.2-4.4,0.5-6.8,1
		c-1.6,0.3-3,0.9-4.6,1.3c-1,0.3-1.4,1.3-2.5,1.1v-0.5c1.6-1.9,3.5-3.8,6-4c2.9-0.5,5.5,0,8.4,0.3c2,0.2,4,0.6,6,1.1
		c0.8,0,0.9,1.3,1.6,1.4c1,0.3,1.9,0,2.9,0.6c0-0.3-0.2-0.6,0-0.9c0.6-0.6,1.4,0.2,2.1-0.2c1.3-0.8-1.1-2.2-1.8-3.3
		c0-0.1,0.1-0.2,0.2-0.3c1.3,1.1,2.2,2.4,3.8,3.2c0.8,0.3,2.7,0.8,2.4-0.2c-0.8-1.7-2.4-3.2-3.6-4.8v-0.6c-0.3,0-0.3-0.2-0.5-0.3
		v-0.6c-0.6-0.3-0.5-1-0.8-1.4c-0.5-0.8-0.2-1.9-0.5-2.8c-0.3-0.9-0.5-1.8-0.6-2.7c-0.5-2.7-1.1-5.1-1.4-7.6c-0.3-3,1.8-5.4,3.2-8.1
		c1-2,2.6-3.8,4.4-5.1c0.6-1.9,1.7-3.6,3-5.1c1.4-1.4,3-2.5,4.9-3.2c1.4-0.6,2.8-1.2,4.2-1.6H83.8v83.9h77c3-2.2,6-3.2,10.2-5.3
		C173,161.4,177.6,159.3,179.1,157.8z M154.8,146.4c-0.3,0-0.9,0.1-0.8-0.2c0.1-0.8,1.3-0.8,1.9-1.1c0.3-0.2,0.8-0.5,1.1-0.3
		c0.3,0.5,0.8,0.3,1.1,0.6C157.1,146.4,155.9,145.9,154.8,146.4L154.8,146.4z M130.5,142.9c-0.1-0.1-0.1-0.2-0.2-0.3
		c2-2.5,3.6-5.2,5.1-8.1c2-1.2,3.8-2.7,5.4-4.4c2.5-2.9,5.5-5.2,8.9-7c1.4-0.4,2.8-0.4,4.1,0.2c-0.5,0.6-1.3,0.5-1.9,1
		c-0.2,0-0.3,0-0.5-0.2c0.1-0.1,0.2-0.3,0.2-0.5c-1.6,1.8-3.8,2.5-5.1,4.6c-1,1.6-1.6,3.6-3.6,4.1c-0.6,0.2,0.2-0.5-0.2-0.3
		C137.8,135,134.3,138.6,130.5,142.9L130.5,142.9z M143.7,132.5c-0.1,0.3-0.3,0.4-0.5,0.6c-0.1,0.3-0.4,0.5-0.6,0.6
		c-0.1,0-0.3,0-0.3-0.2c0.1-0.7,0.6-1.2,1.3-1.4C143.7,132.1,143.7,132.3,143.7,132.5L143.7,132.5z M151,156.2
		c-0.1,0.2-0.2,0.3-0.4,0.5c0.2,0,0.3,0.1,0.2,0.2c-0.3,0.4-0.7,0.6-1.2,0.8h-0.2l-0.6,0.6c-0.2,0.2-1.1,0-0.8-0.2
		c0.4-0.4,0.8-0.8,1.2-1.1c0.2-0.2,0.5-0.4,0.7-0.6c0.1-0.1,0.2-0.2,0.3-0.4C150.3,156,151.1,155.9,151,156.2z M148.2,154.9
		L148.2,154.9c-0.6,0.4-1.2,0.8-1.8,1.2s-1.4,0.7-2.1,1l0,0c-0.1-0.1-0.2-0.1-0.3-0.1c-0.6,0.3-1.1,0.7-1.6,1.2l-0.2,0.2l0,0
		l-0.2,0.2l0,0l0,0c-0.1,0.1-0.2,0.2-0.3,0.4c-0.1,0.1-0.1,0.2-0.2,0.2c-0.1,0.1-0.4,0.1-0.4-0.1l0,0l-0.3,0.1l-0.2,0.1
		c0,0-0.1,0-0.1,0h-0.1l-0.6,0.5c-0.3,0.3-0.6,0.6-0.9,1l0,0l0,0v0.1l-0.1,0.1l0,0l-0.1,0.2l0,0c0,0-0.1,0.1-0.1,0.1
		c0,0,0-0.1-0.1-0.1v-0.1c0-0.1-0.1-0.2-0.1-0.3l0,0v-0.1l0.5-0.6l0,0l0.2-0.2l0.3-0.3l0.1-0.1c0.2-0.2,0.3-0.4,0.5-0.7l0,0l0.1-0.1
		c0.1-0.1,0.2-0.2,0.2-0.3l0.2-0.3l0,0l0,0v-0.1c0.1-0.1,0.1-0.2,0.1-0.4l0,0c0,0,0-0.1,0-0.1c0-0.1,0-0.1,0-0.2l0,0l0,0
		c0-0.1,0-0.2,0-0.2c0,0,0-0.1,0-0.1c0.2-0.3,0.4-0.6,0.6-0.9H141c-0.2,0.1-0.4,0.4-0.6,0.5s-0.5-0.1-0.3-0.2s0.2-0.2,0.4-0.3
		s0,0,0,0c0.2-0.3,0.5-0.6,0.8-0.8c0.2-0.1,0.3-0.2,0.5-0.4l0.1-0.1c0.1-0.1,0.2-0.3,0.4-0.4l0,0c1.5-1.5,4.1-1.4,6.1-2.3
		c0.8-0.3,1.7,0.2,2.5,0c0.5,0,1,0.1,1.4,0.3C150.8,153.2,149.5,154.1,148.2,154.9L148.2,154.9z M151.4,143.9
		c-0.2-0.2,0.5,0,0.6-0.3h-1.2c-0.2,0-0.2-0.2-0.2-0.3c-0.8,0.1-1.8,0.5-2.5,0.6c-1.1,0.3-2.1,1.1-3.3,1.4c-1.7,0.6-3.2,2.1-5.1,2.7
		c-0.2,0-0.2-0.2-0.2-0.3c0.2-0.5,0.8-0.6,1.1-1.1c0-0.1,0-0.3-0.2-0.3c1.3-1.8,3-2.7,4.6-4.1v-0.5c0.5-0.6,1.3-1,1.6-1.7
		c0.3-0.7,0.9-1.2,1.6-1.4c-0.2-0.2-0.5-0.2-0.5-0.5c-0.6,0-1.3,0.3-1.9-0.2c0.3-0.3,0.6-0.5,1-0.6c-0.1,0-0.3-0.1-0.4-0.2
		c-0.2-0.3,0.3-0.7,0.8-0.8s1.4-0.2,1.9-0.6c-1.1-0.2-2.4,0.3-3.5-0.3c0.7-2,2.1-3.7,4-4.8c0.1,0,0.5,0,0.5,0.2
		c0,0.8-0.5,1.4-1.3,1.6c1.3,0.2,2.6,0.5,3.8,0.9c-0.2,0.3-0.5,0.2-0.6,0.2c0.8,0.5,1.8,0.2,2.5,0.8c-0.5,0.5-0.9,0-1.4,0
		c4.9,1.4,10.1,2.5,14.3,5.7c-3.5,1.6-7.2,2.7-10.9,3.3c-0.4,0-0.9,0-1.3-0.2c0,0.2,0,0.5-0.2,0.5c-0.5-0.1-1.1,0-1.6,0.3
		C152.9,144.3,152.1,144.3,151.4,143.9L151.4,143.9z"/>
	<path class="st2" d="M314.4,83.8h-90.2c0.3,0.1,0.6,0.2,0.9,0.4l2.3,1.2c1.2,0.6,2.2,1.4,3,2.5c0.3,0.5,0.8,1.4,0.5,2.1
		c-0.3,0.8-0.5,2.1-1.3,2.4c-1.1,0.4-2.2,0.5-3.3,0.3c-0.6,0-1.3-0.1-1.9-0.3c2.4,1,4.6,2.1,6.2,4.3c0.2,0.3,0.8,0.5,1.4,0.5
		c0.1,0,0.1,0.3,0.1,0.5c-0.3,0.3-0.6,0.5-0.5,1h0.5c0.8-0.3,0.6-1.9,1.8-1.4c0.8,0.5,1.1,1.5,0.6,2.4c-0.6,0.6-1.2,1.1-1.9,1.6
		c-0.2,0.4-0.2,0.8,0,1.1c0.4,0.6,0.7,1.2,0.8,1.9c0.5,1.1,0.6,2.4,1.1,3.5c0.8,2.3,1.1,4.7,1.1,7.1c0,1.3-0.6,2.4-0.2,3.6
		c0.4,1.2,1,2.3,1.8,3.3c0.6,0.8,1.2,1.7,1.7,2.5c1,1.6,2.7,3.2,1.9,5.1c-0.5,1.1-2.2,1-3.3,1.6c-0.9,0.8-0.2,2.1,0.3,2.9
		c0.8,1.4-1,2.4-2.1,2.9c0.3,0.5,0.9,0.3,1.1,0.6c0.2,0.8,1,1.3,0.5,2.1c-0.6,0.9-2.5,1.4-1.6,2.9c0.6,1.1,0.2,2.3-0.2,3.5
		c-0.5,1.2-1.6,2.1-2.9,2.4c-1,0.3-2,0.3-3,0.2c-0.3-0.2-0.6-0.3-0.9-0.3c-2.7-0.3-5.4-1.1-8.1-1.1c-0.8,0.1-1.5,0.3-2.2,0.6
		c-0.7,0.5-1.3,1.1-1.9,1.7l0,0l-0.4,0.4l-0.2,0.2l-0.1,0.2c-0.5,0.6-0.9,1.2-1.2,1.8c0,0-0.1,0.1-0.1,0.1c0,0.1-0.1,0.1-0.1,0.2
		c-0.5,0.9-0.9,1.9-1.2,2.9c-1.1,3.6-0.6,6.7,0.1,7.5c0.2,0.2,5.2,1.8,8.7,3.3c1.3,0.5,2.5,1.2,3.7,1.9h88.6L314.4,83.8z"/>
	<path class="st3" d="M229.6,114.4c0.6,0.2,1.6,0.2,1.6,0.5c-0.3,1.3-2.2,1.6-3.2,2.9h-0.5c-0.5,0.3-0.3,1.1-0.8,1.1
		c-0.5-0.1-1-0.1-1.4,0.2c0.6,0.7,1.5,1.1,2.4,1c0.3,0.1,0.5,0.3,0.5,0.6c0.1,0,0.2-0.1,0.3-0.2c0.2,0,0.3,0,0.3,0.2v0.6
		c-0.5,0.6-1.3,0.3-1.9,0.5c1.2,0.3,2.4,0.3,3.6,0c1-0.3,0-1.9,0.6-2.7c-0.3,0,0-0.5-0.3-0.5c0.3-0.3,0.6-0.8,0.9-1
		c0.4,0,0.7-0.2,0.9-0.5c0-0.3-0.6-0.5-0.5-0.8c1-0.6,1.7-1.6,1.4-2.5c-0.2-0.5-1.4-0.5-2.2-0.8c-0.9-0.2-1.8-0.1-2.7,0.2
		c-0.8,0.1-1.6,0.4-2.4,0.6c-1.1,0.4-2.1,0.9-3,1.6c1.1-0.4,2.3-0.8,3.5-1C227.8,114.2,228.7,114.2,229.6,114.4z"/>
</g>
<g id="zone">
	<rect class="st4" width="1003.6" height="825.2"/>
	<rect x="83.8" y="83.8" class="st4" width="836" height="657.6"/>
	<g class="st5">
		<path class="st0" d="M99.4,209.4h16.7l23.8,63h-13.6l-6-16.4H95.1l-6,16.4H75.5L99.4,209.4z M116.4,245.1l-8.6-23.7l-8.6,23.7
			H116.4z"/>
	</g>
	<g class="st5">
		<path class="st0" d="M193.7,253.6l10.1,7.7c-5.8,7.8-15.1,12.9-26.5,12.9c-19.9,0-33.5-15.3-33.5-33.3c0-18,13.6-33.3,33.5-33.3
			c11.4,0,20.8,5.1,26.5,12.8l-10.1,7.8c-3.6-5.1-9.3-8.6-16.5-8.6c-11.9,0-20.3,9.3-20.3,21.3s8.5,21.3,20.3,21.3
			C184.4,262.2,190.1,258.7,193.7,253.6z"/>
	</g>
	<g class="st5">
		<path class="st0" d="M231.2,209.4h16.7l23.8,63h-13.6l-6-16.4H227l-6,16.4h-13.6L231.2,209.4z M248.2,245.1l-8.6-23.7l-8.6,23.7
			H248.2z"/>
		<path class="st0" d="M282.4,209.4h24.7c20,0,33.5,14.5,33.5,31.5c0,17-13.5,31.5-33.5,31.5h-24.7V209.4z M295.2,221v39.8h12.1
			c11.7,0,20.2-8.7,20.2-19.9c0-11.2-8.5-19.9-20.2-19.9H295.2z"/>
		<path class="st0" d="M353.9,209.4h36.7v10.9h-23.9v14.6H387v10.9h-20.3v15.7h23.9v10.9h-36.7V209.4z M366.3,204l10.2-12.1h13.1
			L377.9,204H366.3z"/>
		<path class="st0" d="M406.3,209.4h16.1l15.2,25.9l15.2-25.9H469v63h-12.8v-44.8l-14,23.2h-9l-14-23.2v44.8h-12.8V209.4z"/>
		<path class="st0" d="M487.4,209.4h12.8v63h-12.8V209.4z"/>
		<path class="st0" d="M518.8,209.4h36.7v10.9h-23.9v14.6h20.3v10.9h-20.3v15.7h23.9v10.9h-36.7V209.4z"/>
	</g>
	<g class="st5">
		<path class="st0" d="M83.4,300.6h24.7c20,0,33.5,14.5,33.5,31.5c0,17-13.5,31.5-33.5,31.5H83.4V300.6z M96.2,312.2V352h12.1
			c11.7,0,20.2-8.7,20.2-19.9c0-11.2-8.5-19.9-20.2-19.9H96.2z"/>
		<path class="st0" d="M154.9,300.6h36.7v10.9h-23.9V326H188v10.9h-20.3v15.7h23.9v10.9h-36.7V300.6z"/>
		<path class="st0" d="M231.7,300.6H248l28.2,45.1v-45.1H289v63h-16.4l-28.2-45.3v45.3h-12.8V300.6z"/>
		<path class="st0" d="M323.5,300.6h16.7l23.8,63h-13.6l-6-16.4h-25.2l-6,16.4h-13.6L323.5,300.6z M340.5,336.3l-8.6-23.7l-8.6,23.7
			H340.5z"/>
		<path class="st0" d="M374.7,300.6H391l28.2,45.1v-45.1H432v63h-16.4l-28.2-45.3v45.3h-12.8V300.6z"/>
	</g>
	<g class="st5">
		<path class="st0" d="M495.1,344.8l10.1,7.7c-5.8,7.8-15.1,12.9-26.5,12.9c-19.9,0-33.5-15.3-33.5-33.3c0-18,13.6-33.3,33.5-33.3
			c11.4,0,20.8,5.1,26.5,12.8l-10.1,7.8c-3.6-5.1-9.3-8.6-16.5-8.6c-11.9,0-20.3,9.3-20.3,21.3c0,12.1,8.5,21.3,20.3,21.3
			C485.8,353.4,491.5,349.9,495.1,344.8z"/>
	</g>
	<g class="st5">
		<path class="st0" d="M545.7,336.7v26.8H533V337l-26-36.4h15.6l16.8,23.8l16.9-23.8h15.4L545.7,336.7z"/>
	</g>
	<g class="st5">
		<path class="st0" d="M591.4,335v11.1h-24.3V335H591.4z"/>
		<path class="st0" d="M602.5,300.6h16.1l15.2,25.9l15.2-25.9h16.1v63h-12.8v-44.8l-14,23.2h-9l-14-23.2v44.8h-12.8V300.6z"/>
	</g>
	<g class="st5">
		<path class="st0" d="M683.5,300.6h36.7v10.9h-23.9V326h20.3v10.9h-20.3v15.7h23.9v10.9h-36.7V300.6z"/>
	</g>
	<g class="st5">
		<path class="st0" d="M730.9,300.6h51.7v11.6h-19.4v51.4h-12.8v-51.4h-19.4V300.6z"/>
		<path class="st0" d="M790.8,352l35.1-39.8h-34.2v-11.6h49.9v11.6l-35,39.8h35.9v11.6h-51.7V352z"/>
	</g>
</g>
</svg>
