<?xml version="1.0" encoding="utf-8"?>
<!-- Generator: Adobe Illustrator 23.0.3, SVG Export Plug-In . SVG Version: 6.00 Build 0)  -->
<!DOCTYPE svg PUBLIC "-//W3C//DTD SVG 1.1//EN" "http://www.w3.org/Graphics/SVG/1.1/DTD/svg11.dtd" [
	<!ENTITY ns_extend "http://ns.adobe.com/Extensibility/1.0/">
	<!ENTITY ns_ai "http://ns.adobe.com/AdobeIllustrator/10.0/">
	<!ENTITY ns_graphs "http://ns.adobe.com/Graphs/1.0/">
	<!ENTITY ns_vars "http://ns.adobe.com/Variables/1.0/">
	<!ENTITY ns_imrep "http://ns.adobe.com/ImageReplacement/1.0/">
	<!ENTITY ns_sfw "http://ns.adobe.com/SaveForWeb/1.0/">
	<!ENTITY ns_custom "http://ns.adobe.com/GenericCustomNamespace/1.0/">
	<!ENTITY ns_adobe_xpath "http://ns.adobe.com/XPath/1.0/">
]>
<svg version="1.1" xmlns:x="&ns_extend;" xmlns:i="&ns_ai;" xmlns:graph="&ns_graphs;"
	 xmlns="http://www.w3.org/2000/svg" xmlns:xlink="http://www.w3.org/1999/xlink" x="0px" y="0px" viewBox="0 0 750 400"
	 style="enable-background:new 0 0 750 400;" xml:space="preserve">
<style type="text/css">
	.st0{fill:#FFFFFF;}
	.st1{fill:none;stroke:#C346FF;stroke-width:2.5;stroke-linecap:round;stroke-linejoin:round;stroke-miterlimit:10;}
</style>
<metadata>
	<sfw  xmlns="&ns_sfw;">
		<slices></slices>
		<sliceSourceBounds  bottomLeftOrigin="true" height="750" width="1538" x="0" y="-750"></sliceSourceBounds>
		<optimizationSettings>
			<targetSettings  fileFormat="PNG24Format" targetSettingsID="0">
				<PNG24Format  filtered="false" interlaced="false" matteColor="#FFFFFF" noMatteColor="false" transparency="true">
					</PNG24Format>
			</targetSettings>
		</optimizationSettings>
	</sfw>
</metadata>
<g id="FILL-BACKGROUND">
	<rect class="st0" width="750" height="400"/>
</g>
<g id="AG-POP-CULTURE">
	<g>
		<g>
			<g>
				<path class="st1" d="M309.9,179c0.1-0.6,0.2-1,0.3-1.2c0.3,0,0.5-0.1,0.8-0.1c-2-0.3-3.7-0.5-5-0.9c-1.5-0.4-2.8-0.9-3.8-1.6
					c-1-0.8-1.9-1.8-2.6-3.2c-0.8-1.4-1.7-3.3-2.7-5.6c-0.7-1.7-1.6-4-2.7-6.8c-1.1-2.8-2.3-6-3.6-9.6c-1.3-3.6-2.7-7.3-4.1-11.2
					c-1.4-3.9-2.8-7.8-4.2-11.6c-1.4-3.8-2.6-7.4-3.8-10.8c-1.2-3.4-2.2-6.3-3.1-8.7c-0.9-2.5-1.5-4.3-1.9-5.5
					c-0.5-1.3-0.9-2.6-1.3-3.8c-0.4-1.2-0.7-2.4-1-3.4c-0.2,0-0.7,0-1.4,0.1c-0.8,0-1.8,0.1-3.2,0.1c-1.2,0-2.2,0-3-0.1
					c-0.8,0-1.4-0.1-1.6-0.1c-0.2,1-0.4,2.2-0.9,3.6c-0.4,1.4-0.9,2.9-1.5,4.4c-0.5,1.5-1.3,3.7-2.3,6.5c-1,2.8-2.2,6-3.5,9.7
					c-1.4,3.7-2.8,7.5-4.4,11.6c-1.5,4.1-3.1,8.2-4.7,12.3c-1.6,4.1-3.1,8-4.6,11.7c-1.5,3.7-2.8,7-4,9.9c-1.1,2.7-2.2,4.8-3.1,6.4
					c-1,1.6-2,2.8-3.1,3.7c-1.1,0.8-2.5,1.5-4.1,1.9c-1.6,0.4-3.7,0.8-6.2,1.1c-0.2,0.2-0.3,0.6-0.4,1.2c-0.1,0.6-0.1,1.1,0,1.7
					c0.1,0.6,0.2,1,0.4,1.2c0.9,0,2,0,3.3-0.1c1.3-0.1,3-0.1,4.9-0.2c1.9-0.1,4.2-0.1,6.9-0.1c2.6,0,5.2,0,7.5,0.1
					c2.4,0.1,4.5,0.1,6.3,0.2c1.8,0.1,3.2,0.1,4.2,0.1c0.1-0.2,0.3-0.6,0.4-1.2c0.1-0.6,0.1-1.1,0.1-1.7c0-0.6-0.1-1-0.2-1.2
					c-1.3-0.1-2.6-0.3-3.7-0.5c-1.1-0.2-2.2-0.4-3-0.6c-1.4-0.4-2.5-0.8-3.1-1.3c-0.7-0.5-1.1-1-1.2-1.6c-0.2-0.6-0.2-1.3-0.1-2.1
					c0.1-0.9,0.4-2.2,0.9-3.9c0.5-1.7,1.2-3.7,1.9-5.9c0.8-2.2,1.6-4.4,2.4-6.7c0.8-2.3,1.6-4.4,2.3-6.3c0.1-0.2,0.3-0.5,0.5-0.8
					c0.3-0.3,0.6-0.4,0.9-0.5h24.9c0.2,0,0.4,0.1,0.7,0.3c0.3,0.2,0.5,0.4,0.6,0.7c0.6,1.6,1.4,3.5,2.2,5.6c0.8,2.1,1.6,4.3,2.4,6.6
					c0.8,2.3,1.5,4.5,2.3,6.6c0.7,2.1,1.2,3.9,1.7,5.4c0.2,0.7,0.3,1.3,0.1,1.9c-0.2,0.6-0.7,1.1-1.6,1.6c-1.1,0.4-2.2,0.6-3.5,0.9
					c-1.3,0.2-2.7,0.4-4.2,0.7c-0.2,0.2-0.3,0.6-0.3,1.2c0,0.6,0,1.1,0.1,1.7c0.1,0.6,0.2,1,0.4,1.2c0.8,0,1.8-0.1,3.2-0.1
					c1.3,0,2.9-0.1,4.6-0.1c1.7,0,3.5-0.1,5.3-0.1c1.8,0,3.6,0,5.4,0c2.1,0,4.3,0,6.4,0.1c2.2,0,4.2,0.1,6,0.2
					c1.1,0,2.2,0.1,3.1,0.1c-0.2-0.2-0.3-0.6-0.3-1.1C309.8,180.1,309.8,179.5,309.9,179z M274.1,140.6c-0.1,0.2-0.3,0.4-0.4,0.4
					c-0.5,0-1.3,0.1-2.3,0.1c-1.1,0-2.2,0-3.5,0c-1.3,0-2.5,0-3.6,0c-1.8,0-3.4,0-5,0c-1.5,0-2.8,0-3.9,0c-1.1,0-1.9,0-2.3-0.1
					c-0.2-0.1-0.4-0.2-0.4-0.3c-0.1-0.2-0.1-0.4-0.1-0.7c0.5-1.5,1.1-3.3,1.8-5.3c0.7-2,1.5-4.2,2.3-6.5c0.8-2.3,1.6-4.6,2.4-6.9
					c0.8-2.3,1.6-4.4,2.3-6.4c0.7-2,1.3-3.7,1.8-5.1c0.1-0.2,0.2-0.2,0.4-0.2c0.1,0,0.3,0,0.4,0c0.4,1.2,1,2.8,1.7,4.6
					c0.7,1.9,1.4,3.9,2.2,6.1c0.8,2.2,1.6,4.5,2.3,6.8c0.8,2.3,1.6,4.6,2.3,6.8c0.7,2.2,1.4,4.1,1.9,5.9
					C274.2,140.1,274.2,140.4,274.1,140.6z"/>
				<path class="st1" d="M311.7,181.9C311.8,181.9,311.8,181.8,311.7,181.9c-0.2,0-0.3,0-0.5,0C311.4,181.9,311.6,181.9,311.7,181.9
					z"/>
				<path class="st1" d="M310.2,181.9c0.3,0,0.7,0,1.1,0C310.9,181.8,310.6,181.8,310.2,181.9C310.2,181.8,310.2,181.9,310.2,181.9z
					"/>
				<path class="st1" d="M422.4,177.2c-1.3-0.2-2.4-0.4-3.4-0.6c-1.4-0.4-2.5-0.9-3.2-1.5c-0.7-0.6-1.3-1.5-1.6-2.5
					c-0.3-1-0.6-2.4-0.7-4c-0.1-1.4-0.2-3.4-0.3-6.1c-0.1-2.6-0.2-5.7-0.3-9.1c-0.1-3.4-0.2-7.1-0.3-10.9c-0.1-3.8-0.2-7.7-0.3-11.5
					c-0.1-3.8-0.2-7.4-0.2-10.8c-0.1-3.4-0.1-6.4-0.1-8.9c0-2.5,0-4.5,0-5.7c0-1.5,0.3-2.7,0.9-3.6c0.6-0.9,1.6-1.6,3.1-2
					c1-0.3,2.3-0.5,3.7-0.7c1.5-0.2,3.3-0.5,5.4-0.8c0.2-0.2,0.3-0.6,0.4-1.2c0.1-0.6,0.1-1.1,0-1.7c-0.1-0.5-0.2-0.9-0.4-1
					c-1.5,0-3,0-4.5,0.1c-1.5,0-3.2,0.1-5,0.1c-1.9,0-4,0.1-6.5,0.1c-2.5,0-5.4,0.1-8.9,0.1c-0.1,1.2-0.4,2.3-0.8,3.5
					c-0.4,1.2-0.9,2.5-1.6,3.9c-0.9,2-2,4.5-3.3,7.3c-1.3,2.9-2.8,6-4.4,9.4c-1.6,3.4-3.2,6.8-4.9,10.3c-1.7,3.5-3.3,6.9-4.9,10.3
					c-1.6,3.3-3.1,6.4-4.5,9.1c-1.4,2.8-2.5,5.1-3.4,7c-0.9,1.9-1.6,3.2-1.9,3.8c-0.1,0.1-0.2,0.2-0.3,0.2c-0.1,0-0.2,0-0.3-0.1
					c-0.4-0.7-1.1-2.1-2.2-4.3c-1.1-2.2-2.4-4.9-3.9-8.1c-1.5-3.2-3.2-6.7-5-10.6c-1.8-3.8-3.7-7.8-5.5-11.8
					c-1.9-4-3.7-7.9-5.4-11.7c-1.7-3.7-3.3-7.1-4.7-10.2c-0.5-1.1-0.9-2-1.3-2.9c-0.4-0.9-0.6-1.7-0.8-2.5c-0.2-0.8-0.4-1.8-0.5-2.7
					c-4.7,0-8.7,0-12-0.1c-3.2-0.1-5.9-0.1-8.1-0.2c-2.2-0.1-4-0.1-5.6-0.1c-0.2,0.1-0.3,0.5-0.4,1.1c-0.1,0.6-0.2,1.1-0.1,1.7
					c0,0.6,0.1,1,0.3,1.1c2.4,0.4,4.3,0.7,5.9,1c1.5,0.3,2.8,0.6,3.8,1c1.6,0.6,2.6,1.5,3.2,2.6c0.5,1.1,0.8,2.3,0.8,3.6
					c-0.1,2.2-0.3,5-0.6,8.2c-0.2,3.3-0.5,6.9-0.8,10.8c-0.3,3.9-0.6,7.9-0.9,11.9c-0.3,4.1-0.7,8-1,11.7c-0.3,3.7-0.7,7.1-1,10.2
					c-0.3,3-0.6,5.4-0.8,7.2c-0.3,2.3-0.6,4.1-1,5.4c-0.4,1.3-1,2.3-1.8,3c-0.8,0.7-1.9,1.2-3.4,1.6c-0.9,0.2-2,0.4-3.1,0.6
					c-0.9,0.1-1.9,0.3-3,0.4c0.3,0,0.7,0.1,1,0.1c0.2,0.2,0.3,0.5,0.3,1.1c0,0.6-0.1,1.1-0.2,1.7c-0.1,0.6-0.2,1-0.4,1.2
					c0.6,0,1.3,0,2.2-0.1c1.7-0.1,3.7-0.1,6-0.2c2.3-0.1,4.7-0.1,7.3-0.1c2.4,0,4.7,0,6.9,0.1c2.2,0.1,4.1,0.1,5.8,0.2
					c1.7,0.1,3,0.1,3.9,0.1c0.2-0.2,0.4-0.5,0.5-1.1c0.1-0.6,0.2-1.1,0.2-1.7c0-0.6-0.1-1-0.3-1.2c-2.1-0.3-3.8-0.5-5.2-0.7
					c-1.4-0.2-2.6-0.5-3.7-0.8c-1.4-0.4-2.4-0.9-3.1-1.7c-0.7-0.8-1.1-1.8-1.3-3c-0.2-1.2-0.3-2.7-0.3-4.4c0-2,0.1-4.4,0.2-7.3
					c0.1-2.9,0.3-6.1,0.4-9.5c0.2-3.4,0.3-7,0.5-10.6c0.2-3.6,0.4-7.2,0.6-10.7c0.2-3.5,0.4-6.7,0.6-9.7c0.2-3,0.4-5.5,0.5-7.6
					c0.1-0.2,0.2-0.4,0.3-0.4c0.1-0.1,0.3,0,0.4,0.1c0.7,1.7,1.7,4,3,7c1.3,2.9,2.7,6.3,4.4,10c1.7,3.8,3.4,7.7,5.2,11.9
					c1.8,4.2,3.6,8.4,5.4,12.5c1.8,4.2,3.5,8.2,5,11.9c1.6,3.8,2.9,7.1,4.1,10.1c1.1,3,2,5.3,2.5,7c0.2,0,0.6,0.1,1.2,0
					c0.6,0,1.2,0,1.7-0.1c0.6-0.1,1-0.1,1.1-0.2c0.7-2,1.7-4.5,3.1-7.7c1.3-3.2,2.9-6.7,4.6-10.6c1.8-3.9,3.6-8,5.6-12.2
					c2-4.2,3.9-8.4,5.8-12.6c1.9-4.1,3.7-8,5.4-11.6c1.7-3.6,3.2-6.7,4.4-9.4c1.2-2.6,2.1-4.6,2.7-5.9c0.1-0.1,0.3-0.2,0.4-0.2
					c0.1,0,0.2,0.1,0.3,0.2c0,1.8,0.1,4.1,0.1,6.7c0,2.7,0.1,5.6,0.1,8.8c0,3.2,0.1,6.5,0.1,9.9c0,3.4,0.1,6.8,0.1,10.1
					c0,3.4,0,6.5,0.1,9.5c0,3,0,5.6,0,7.9c0,2.3,0,4.1,0,5.5c0,1.5-0.2,2.8-0.7,3.8c-0.5,1.1-1.5,1.8-3.1,2.2
					c-0.9,0.3-2,0.5-3.2,0.8c-1.2,0.2-2.7,0.5-4.4,0.8c-0.2,0.2-0.3,0.6-0.4,1.2c0,0.6,0,1.1,0,1.7c0.1,0.6,0.2,1,0.3,1.2
					c1.2,0,2.8-0.1,4.8-0.2c1.9-0.1,4.1-0.1,6.5-0.2c2.4,0,4.9-0.1,7.5-0.1c4.3,0,8.1,0.1,11.2,0.2c3.2,0.1,5.6,0.2,7.3,0.2
					c0.2-0.3,0.3-0.7,0.4-1.3c0.1-0.6,0.1-1.1,0.1-1.6c0-0.5-0.2-0.9-0.4-1.2C425.1,177.6,423.6,177.4,422.4,177.2z"/>
				<path class="st1" d="M216.9,139.2c-1.3,0.1-2.8,0.2-4.6,0.2c-1.8,0.1-4.1,0.2-6.8,0.3c-2.6,0.1-5.9,0.1-9.7,0.1
					c-5.9,0-11.2-0.1-15.7-0.3c-4.6-0.2-8.4-0.3-11.4-0.3c-0.3,0.2-0.5,0.8-0.6,1.6c-0.1,0.8-0.2,1.6-0.1,2.5
					c0.1,0.8,0.2,1.3,0.5,1.6c2.9,0.4,5.4,0.7,7.4,1c2,0.3,3.9,0.6,5.5,1c1.8,0.5,3.3,1.1,4.3,1.9c1,0.8,1.7,1.8,2.1,3.2
					c0.4,1.3,0.7,3.1,0.8,5.2c0.1,3.3,0.1,6.7,0.1,10.1c0,3.4-0.2,6.6-0.5,9.6c-0.2,1.7-0.6,3.3-1.3,4.8c-0.6,1.5-1.6,2.6-3,3.3
					c-1.4,0.9-3.2,1.5-5.4,1.9c-2.3,0.4-4.8,0.6-7.5,0.6c-8.7,0-16.4-1.5-23-4.5c-6.6-3-12.1-7.1-16.5-12.5
					c-4.4-5.4-7.7-11.6-10-18.7c-2.2-7.1-3.3-14.9-3.3-23.2c0-8,0.9-15.2,2.7-21.7c1.8-6.5,4.6-12.1,8.3-16.8
					c3.7-4.7,8.4-8.3,14-10.9c5.6-2.5,12.2-3.8,19.7-3.8c4.2,0,7.9,0.2,11.1,0.6c3.2,0.4,6.1,1,8.5,1.8c2.5,0.8,4.7,1.8,6.7,3
					c1.9,1.1,3.4,2.5,4.6,4.3c1.2,1.8,2.2,4.2,3,7.2c0.8,3,1.4,6.9,1.9,11.7c0.4,0.3,1,0.4,2,0.4c0.9,0,1.8-0.1,2.7-0.3
					c0.9-0.2,1.5-0.4,1.7-0.7c0.1-2.2,0.2-4.7,0.4-7.5c0.2-2.8,0.5-5.6,0.8-8.5c0.4-2.9,0.7-5.6,1.1-8.2c0.4-2.6,0.8-4.8,1.2-6.6
					c-3.8-0.4-7.7-1-11.6-1.6c-3.9-0.7-8-1.3-12.4-1.8c-4.4-0.5-9.1-0.8-14.3-0.8c-7.5,0-14.3,0.6-20.4,1.8
					c-6.2,1.2-11.9,3.1-17.3,5.6c-7.1,3.2-13.1,7.4-18.2,12.8c-5.1,5.4-9,11.6-11.7,18.7c-2.7,7.1-4.1,15-4.1,23.5
					c0,13.6,2.6,25.2,7.8,34.6c5.2,9.5,13,16.7,23.2,21.6c10.2,4.9,22.9,7.4,38,7.4c4.3,0,8.5-0.3,12.8-0.9
					c4.3-0.6,8.4-1.3,12.2-2.1c3.8-0.8,7.3-1.6,10.3-2.4c3-0.8,5.3-1.5,6.9-2c0.1-0.2,0.3-0.6,0.4-1.2c0.1-0.5,0.2-1.1,0.3-1.7
					c0-0.6,0-1,0-1.2c-1.4-0.5-2.4-1.1-3.1-1.6c-0.7-0.5-1.1-1.1-1.4-1.7c-0.2-0.6-0.4-1.4-0.4-2.4c-0.1-1-0.2-2.3-0.2-4.1
					c0-1.8,0-3.7,0-5.8c0-2.1,0.1-4.2,0.1-6.3c0-2,0.1-3.8,0.1-5.3c0.1-2.8,0.4-4.9,1.1-6.3c0.7-1.4,1.9-2.4,3.7-3
					c0.9-0.3,1.9-0.5,3-0.7c1.1-0.2,2.3-0.4,3.4-0.6c0.3-0.3,0.4-0.8,0.5-1.6c0.1-0.8,0.1-1.7,0.1-2.5
					C217.2,140,217.1,139.4,216.9,139.2z"/>
				<path class="st1" d="M598.4,124c-1.3-2.1-3-4-5-5.6c-2-1.6-4.3-2.8-7-3.7c-2.7-0.9-5.7-1.4-9-1.4c-2.1,0-4.2,0.3-6.3,0.7
					c-2.1,0.5-4.1,1.2-6,2.1c-1.9,0.9-3.7,2-5.3,3.3c-1.6,1.3-3,2.7-4.1,4.2c-1.6,2.2-2.9,4.7-3.7,7.3c-0.9,2.6-1.3,5.4-1.3,8.4
					c0,3.7,0.5,7.2,1.7,10.5c1.1,3.3,2.9,6.3,5.3,9c1.4,1.5,3.1,2.8,4.9,3.9c1.9,1.1,3.9,2,6.2,2.6c2.3,0.6,4.7,0.9,7.3,0.9
					c2.7,0,5.4-0.4,8-1.2c2.6-0.8,5.1-2,7.4-3.6c2.3-1.6,4.3-3.5,6-5.9c1.1-1.5,2-3.2,2.8-4.9c0.7-1.7,1.3-3.6,1.7-5.5
					c0.4-2,0.5-4.2,0.5-6.5c0-2.7-0.3-5.3-1-7.7C600.8,128.4,599.8,126.1,598.4,124z M580.5,162.6c-0.4,0-0.9,0.1-1.3,0.1
					c-0.6,0-1.1,0-1.7-0.1l-1.7-0.2c-0.8-0.1-1.5-0.3-2.2-0.5c-0.2-0.1-0.5-0.1-0.7-0.2l-1.7-0.7c-0.8-0.3-1.5-0.7-2.2-1.2
					c-1.8-1.2-3.3-2.6-4.6-4.3c-1.3-1.7-2.4-3.5-3.2-5.5c-0.8-2-1.5-4.1-1.9-6.2c-0.4-2.2-0.6-4.3-0.6-6.5c0-2.8,0.3-5.4,0.9-7.9
					c0.6-2.5,1.6-4.7,2.9-6.6c1.3-1.9,2.9-3.5,4.9-4.7c1-0.6,2.1-1,3.4-1.3c0.2,0,0.3-0.1,0.5-0.1l1.7-0.3c0.6-0.1,1.2-0.1,1.8-0.1
					c0.4,0,0.7,0,1.1,0l1.7,0.2c1.1,0.1,2.1,0.4,3,0.7l1.7,0.6c1.1,0.5,2.2,1.1,3.2,1.8c1.6,1.1,3,2.5,4.2,4
					c1.2,1.6,2.1,3.3,2.9,5.2c0.8,1.9,1.3,3.9,1.7,6c0.4,2.1,0.6,4.3,0.6,6.5c0,2.5-0.2,4.9-0.7,7.2c-0.4,2.3-1.2,4.4-2.2,6.2
					c-1,1.9-2.3,3.5-4,4.9c-1.1,0.9-2.4,1.6-3.9,2.1c-0.6,0.2-1.2,0.3-1.8,0.5L580.5,162.6z"/>
				<path class="st1" d="M647,114.5c-0.1-0.1-0.1-0.2-0.3-0.2c-0.6,0.1-1.2,0.1-2,0.2c-0.8,0.1-1.7,0.1-2.7,0.1c-1,0-2,0.1-3.1,0.1
					h-19.2c-1.5,0-2.8,0-4.2-0.1c-1.3,0-2.5-0.1-3.5-0.1c-1,0-1.8-0.1-2.4-0.1c-0.1,0.1-0.1,0.3-0.2,0.6c-0.1,0.3-0.1,0.7-0.1,1
					c0,0.3,0.1,0.5,0.2,0.7c1,0.1,1.9,0.2,2.7,0.4c0.7,0.1,1.4,0.3,2,0.4c0.6,0.2,1,0.4,1.3,0.7c0.3,0.3,0.5,0.7,0.6,1.2
					c0.1,0.5,0.2,1.2,0.2,2.1c0.1,1.3,0.1,3.4,0.1,6.3c0,3,0,6.7,0,11.2c0,4.9,0,8.8,0,11.8c0,3,0,5.3-0.1,6.7c0,1-0.1,1.7-0.3,2.3
					c-0.2,0.6-0.4,1-0.8,1.3c-0.4,0.3-1,0.5-1.7,0.7c-0.5,0.1-1.1,0.2-1.8,0.4c-0.7,0.1-1.6,0.2-2.5,0.3c-0.1,0.1-0.2,0.4-0.2,0.7
					c0,0.3,0,0.7,0,1c0,0.3,0.1,0.6,0.2,0.7c0.9,0,1.9,0,2.9-0.1c1,0,2.1-0.1,3.3-0.1c1.2,0,2.7-0.1,4.3-0.1c2,0,3.7,0,5.2,0.1
					c1.5,0,2.8,0.1,3.9,0.1c1.1,0,2.1,0.1,3,0.1c0.1-0.1,0.2-0.4,0.2-0.7c0-0.3,0.1-0.7,0-1c0-0.3-0.1-0.6-0.2-0.7
					c-1.1-0.1-2.1-0.2-2.9-0.3c-0.9-0.1-1.7-0.2-2.5-0.4c-0.8-0.2-1.4-0.4-1.8-0.8c-0.4-0.3-0.7-0.8-0.8-1.4
					c-0.1-0.6-0.2-1.3-0.2-2.2c0-0.9-0.1-1.9-0.1-3.1c0-1.2,0-2.5-0.1-3.9c0-1.4,0-2.8,0-4.2c0-1.4,0-2.7,0-4c0-0.1,0-0.1,0.1-0.2
					c0.1-0.1,0.2-0.2,0.3-0.2c0.4,0,1,0,1.8,0c0.8,0,1.8,0,2.9,0c1.1,0,2.2,0,3.3,0c1.1,0,2.2,0,3.1,0.1c1,0,1.8,0.1,2.3,0.1
					c0.7,0,1.3,0.3,1.8,0.7c0.5,0.4,0.8,1.1,1.1,1.9c0.2,0.5,0.3,1,0.5,1.5c0.2,0.5,0.3,1.2,0.5,2.1c0.2,0.1,0.5,0.1,0.8,0.2
					c0.4,0,0.7,0,1-0.1c0.3,0,0.6-0.1,0.7-0.3c0-1.1-0.1-2.4-0.1-3.7c0-1.3-0.1-2.7-0.1-4.1c0-1,0-2,0.1-3c0.1-1,0.1-2,0.2-2.9
					c0.1-0.9,0.1-1.7,0.2-2.3c-0.1-0.1-0.4-0.2-0.8-0.2c-0.4-0.1-0.7-0.1-1.1-0.1c-0.4,0-0.7,0-0.9,0.1c-0.1,0.7-0.3,1.3-0.4,1.9
					c-0.2,0.6-0.4,1.2-0.6,1.6c-0.1,0.5-0.4,0.9-0.6,1.2c-0.2,0.4-0.6,0.7-1,0.9c-0.4,0.2-1,0.4-1.7,0.4c-0.7,0-1.5,0.1-2.6,0.1
					c-1.1,0-2.3,0-3.6,0.1c-1.3,0-2.5,0-3.7,0c-1.2,0-2.3,0-3.2,0c-0.1,0-0.1,0-0.2-0.1c-0.1-0.1-0.2-0.2-0.2-0.3c0-1.4,0-2.9,0-4.6
					c0-1.6,0-3.3,0-5c0-1.7,0-3.3,0.1-4.8c0-1.5,0-2.9,0.1-4.1c0-0.2,0-0.4,0.1-0.6c0.1-0.2,0.2-0.4,0.4-0.6
					c0.1-0.2,0.3-0.3,0.5-0.3c0.4-0.1,1-0.1,1.9-0.1c0.9,0,1.8,0,3,0c1.1,0,2.2,0,3.4,0c1.1,0,2.2,0,3.2,0.1c1,0,1.8,0,2.3,0.1
					c1,0,1.8,0.3,2.3,0.7c0.6,0.4,1,1.1,1.3,2c0.2,0.5,0.3,1,0.4,1.5c0.1,0.5,0.3,1.1,0.4,1.8c0.1,0.7,0.3,1.4,0.4,2.3
					c0.1,0.1,0.4,0.2,0.8,0.2c0.4,0,0.7,0,1.1-0.1c0.4-0.1,0.6-0.2,0.7-0.3c0-1.1,0.1-2.3,0.2-3.4c0.1-1.1,0.2-2.2,0.3-3.3
					c0.1-1,0.2-2,0.4-2.8c0.1-0.8,0.3-1.5,0.4-2C647.1,114.7,647.1,114.6,647,114.5z"/>
				<path class="st1" d="M501,159.1c-0.6-0.2-1-0.2-1.2-0.2c-0.6,1.4-1.3,2.9-2.1,4.5c-0.8,1.6-1.6,3.1-2.5,4.5
					c-0.8,1.4-1.7,2.5-2.4,3.4c-0.8,1.1-1.6,1.9-2.5,2.6c-0.8,0.7-1.9,1.2-3.1,1.5c-1.2,0.3-2.8,0.5-4.8,0.5c-1.2,0-2.5,0-4.1,0
					c-1.6,0-3.2,0-4.9-0.1c-1.7,0-3.4-0.1-4.9-0.1c-1.6-0.1-3-0.1-4.2-0.3c-1.2-0.1-2.1-0.2-2.7-0.4c-0.9-0.3-1.6-0.9-2.3-1.8
					c-0.6-0.9-1-2.1-1-3.5c0-1.4-0.1-3-0.1-4.9c0-1.9-0.1-3.9-0.1-6c0-2.2,0-4.3,0-6.4c0-2.1,0-4.1,0-6c0-1.9,0-3.4,0-4.8
					c0-0.2,0.1-0.5,0.2-0.7c0.2-0.2,0.3-0.4,0.5-0.4c1.3,0,3-0.1,4.9-0.1c1.9,0,3.9,0,6,0c2.1,0,4,0,5.8,0.1c1.8,0,3.3,0.1,4.3,0.2
					c1.6,0.2,2.7,0.6,3.4,1.4c0.7,0.8,1.1,1.7,1.4,2.7c0.2,0.5,0.3,1.1,0.4,1.6c0.1,0.5,0.2,1.1,0.3,1.7c0.1,0.7,0.2,1.5,0.4,2.4
					c0.3,0.2,0.7,0.4,1.4,0.4c0.7,0.1,1.3,0,2-0.1c0.7-0.1,1.1-0.3,1.4-0.5c-0.1-1.8-0.1-3.7-0.2-5.8c-0.1-2.1-0.1-4.5-0.1-7
					c0-1.7,0-3.3,0.2-5c0.1-1.7,0.2-3.2,0.4-4.6c0.2-1.4,0.3-2.6,0.4-3.6c-0.2-0.2-0.6-0.4-1.3-0.5c-0.6-0.1-1.3-0.2-1.9-0.1
					c-0.7,0-1.1,0.1-1.5,0.2c-0.2,1.1-0.4,2.1-0.7,3c-0.3,1-0.5,1.8-0.8,2.6c-0.3,1.1-0.8,2.1-1.5,2.8c-0.7,0.8-1.8,1.2-3.3,1.4
					c-1.3,0.1-2.9,0.2-4.7,0.2c-1.8,0.1-3.8,0.1-5.8,0.1c-2,0-4,0-6,0c-1.9,0-3.6,0-5-0.1c-0.2,0-0.4-0.1-0.5-0.3
					c-0.1-0.2-0.2-0.4-0.2-0.7c0-1.3,0-2.9,0-4.8c0-1.9,0-4,0-6.2c0-2.2,0-4.5,0-6.8c0-2.3,0-4.5,0-6.6c0-2.1,0-3.9,0.1-5.5
					c0-0.3,0.1-0.6,0.2-0.9c0.1-0.4,0.4-0.8,0.6-1.1c0.2-0.3,0.5-0.6,0.9-0.7c0.3,0,1,0,2-0.1c1,0,2.3,0,3.7,0c1.5,0,3,0,4.7,0
					c1.6,0,3.2,0,4.7,0c1.5,0,2.8,0,4,0c1.1,0,1.9,0,2.4,0.1c1.5,0.1,2.7,0.4,3.6,0.8c0.9,0.4,1.6,1,2.1,1.7
					c0.5,0.7,0.9,1.7,1.3,2.8c0.3,1,0.6,2.2,0.8,3.5c0.3,1.4,0.5,3,0.7,5c0.2,0.1,0.6,0.2,1.2,0.3c0.6,0,1.2,0,1.9-0.1
					c0.6-0.1,1.1-0.2,1.3-0.5c0.1-1.4,0.2-3,0.4-4.8c0.2-1.8,0.4-3.6,0.6-5.4c0.2-1.8,0.4-3.5,0.7-5.1c0.3-1.6,0.5-2.9,0.8-4
					c0-0.1-0.1-0.2-0.2-0.4c-0.1-0.2-0.2-0.3-0.3-0.4c-1,0.1-2.4,0.3-4.2,0.3c-1.8,0.1-3.7,0.1-5.7,0.2c-2,0-3.9,0-5.8,0h-27.7
					c-2.6,0-5.2,0-7.6-0.1c-2.4-0.1-4.5-0.2-6.5-0.3c-1.9-0.1-3.5-0.1-4.7-0.1c-0.2,0.3-0.3,0.7-0.4,1.2c-0.1,0.6-0.1,1.1-0.1,1.6
					c0,0.5,0.2,0.9,0.4,1.1c1.6,0.2,3,0.4,4.3,0.7c1.2,0.2,2.3,0.5,3.2,0.8c1.1,0.3,1.9,0.6,2.5,1.1c0.6,0.5,1,1.2,1.2,2.2
					c0.2,0.9,0.4,2.2,0.5,3.9c0,0.7,0.1,1.9,0.1,3.6c0,1.8,0,3.9,0,6.5c0,2.5,0,5.3,0,8.4c0,3,0,6.2,0,9.4c0,4,0,7.9,0,11.6
					c0,3.7,0,7.2,0,10.3c0,3.1,0,5.7,0,7.9c0,2.1,0,3.5-0.1,4.2c-0.1,1.6-0.4,3-0.7,4c-0.3,1-0.8,1.8-1.5,2.4
					c-0.7,0.6-1.5,1-2.6,1.2c-1.3,0.4-2.8,0.6-4.7,0.8c-1.8,0.2-3.8,0.4-6,0.6c-0.2,0.3-0.3,0.7-0.3,1.3c0,0.6,0,1.2,0.1,1.7
					c0.1,0.5,0.2,0.9,0.4,1.1c2.9,0,6.1-0.1,9.7-0.2c3.6-0.1,7.8-0.2,12.5-0.2c4.8,0,9.3,0,13.4,0.1c4.1,0.1,8,0.2,11.7,0.3
					c3.7,0.1,7.6,0.1,11.5,0.1c2.3,0,4-0.1,5.2-0.2c1.1-0.2,2-0.4,2.4-0.8c0.5-0.3,0.8-0.8,1.1-1.3c0.5-1.1,1.1-2.5,1.7-4.2
					c0.6-1.7,1.2-3.5,1.8-5.4c0.6-1.9,1.1-3.7,1.5-5.4c0.4-1.7,0.7-3.1,0.9-4.3c-0.2-0.2-0.6-0.5-1.1-0.8
					C502.1,159.5,501.6,159.3,501,159.1z"/>
			</g>
			<g>
				<path class="st1" d="M318,311.1c-1.4-0.3-2.7-0.7-3.8-1.2c-1.1-0.5-2.2-1.2-3.3-2.1c-1.1-0.9-2.4-2.1-3.8-3.5
					c-1.4-1.4-2.9-3.1-4.5-5.1c-1.7-2-3.4-4.1-5.1-6.4c-1.7-2.3-3.4-4.5-5.1-6.8c-1.6-2.3-3.2-4.5-4.6-6.6c-1.4-2.1-2.6-3.9-3.6-5.5
					c-0.1-0.1-0.1-0.3,0-0.5c0.1-0.2,0.2-0.4,0.3-0.5c2.1-0.9,4.1-2.1,6.1-3.5c1.9-1.4,3.6-3,5.1-4.9c1.5-1.9,2.7-4,3.5-6.3
					c0.9-2.4,1.3-5,1.3-8c0-3-0.5-5.8-1.6-8.4c-1.1-2.6-2.7-4.9-4.8-6.9c-2.1-2-4.7-3.5-7.9-4.7c-3.1-1.1-6.8-1.7-10.9-1.7
					c-2.8,0-6.1,0-9.9,0.1c-3.8,0.1-8.3,0.1-13.5,0.1c-1.1,0-2.4,0-3.9-0.1c-1.5,0-3-0.1-4.6-0.1c-1.5,0-3-0.1-4.4-0.1
					c-1.3,0-2.5-0.1-3.3-0.1c-0.2,0.1-0.3,0.5-0.4,1c-0.1,0.6-0.2,1.1-0.1,1.7c0,0.6,0.1,1,0.3,1.2c1.4,0.1,2.8,0.3,4.1,0.5
					c1.3,0.2,2.5,0.4,3.5,0.6c1.7,0.4,2.9,1.1,3.6,2.1c0.7,1,1,2.5,1.1,4.4c0,1.1,0.1,2.8,0.1,4.9c0,2.2,0,4.7,0,7.7
					c0,3,0,6.1,0,9.6c0,3.4,0,7,0,10.6c0,1.6,0,3.5,0,5.8c0,2.3,0,4.7,0,7.2c0,2.5,0,5-0.1,7.3c0,2.4,0,4.4-0.1,6.1
					c0,1.7-0.1,3-0.1,3.6c-0.1,1.8-0.3,3.2-0.6,4.2c-0.3,1.1-0.8,1.9-1.5,2.4c-0.7,0.5-1.5,0.9-2.7,1.1c-0.9,0.2-1.9,0.4-3.1,0.6
					c-1.2,0.2-2.5,0.4-4.1,0.6c-0.2,0.2-0.4,0.6-0.5,1.2c-0.1,0.6-0.1,1.1,0,1.7c0.1,0.6,0.2,1,0.5,1.2c1.3,0,3.5-0.1,6.5-0.2
					c3-0.1,6.8-0.2,11.3-0.2c4.7,0,8.6,0.1,11.8,0.2c3.2,0.1,5.5,0.2,6.9,0.2c0.2-0.2,0.4-0.6,0.5-1.2c0.1-0.6,0.2-1.1,0.1-1.7
					c0-0.6-0.2-1-0.4-1.2c-1.6-0.2-3.1-0.4-4.4-0.6c-1.3-0.2-2.5-0.4-3.5-0.6c-1.1-0.2-1.9-0.5-2.5-1c-0.6-0.4-1.1-1.1-1.4-2
					c-0.3-0.9-0.5-2.2-0.6-3.7c-0.1-1.2-0.1-2.8-0.2-4.9c0-2-0.1-4.3-0.1-6.7c0-2.4,0-4.9,0-7.3c0-2.4,0-4.6,0-6.6
					c0-0.1,0.1-0.3,0.2-0.5c0.1-0.2,0.3-0.4,0.4-0.4c0.5,0,1.2,0,2.1,0c0.9,0,1.9,0,2.9,0s2,0,2.9,0c0.9,0,1.6,0.1,2.1,0.1
					c0.6,0,1.2,0.2,1.8,0.5c0.6,0.4,1.2,0.9,1.7,1.6c1.4,1.9,2.9,4.2,4.5,6.7c1.6,2.5,3.4,5.1,5.1,7.8c1.8,2.7,3.5,5.2,5.1,7.5
					c1.6,2.4,3.1,4.4,4.5,6c1.2,1.5,2.4,2.6,3.5,3.6c1.1,0.9,2.2,1.6,3.3,2.1c1.3,0.6,3,1.1,4.9,1.5c1.9,0.4,3.9,0.7,6.1,0.9
					c2.1,0.2,4.2,0.3,6.2,0.3c2,0,3.8,0,5.3,0c0.3-0.1,0.5-0.5,0.7-1.1c0.2-0.6,0.3-1.1,0.3-1.7c0-0.6,0-1-0.1-1.1
					C321.2,311.7,319.5,311.4,318,311.1z M283.1,267.4c-1.4,1.4-2.9,2.4-4.4,3.1c-1.3,0.6-3.5,0.9-6.5,1.1c-3,0.2-6.9,0.2-11.6,0
					c-0.2,0-0.4-0.1-0.5-0.2c-0.1-0.2-0.2-0.3-0.2-0.5c0-2.2,0-4.7,0-7.4c0-2.7,0-5.4,0-8.2c0-2.8,0-5.5,0-8.1c0-2.6,0-4.8,0.1-6.8
					c0-1.9,0.1-3.4,0.1-4.4c0-0.4,0.1-0.8,0.3-1.2c0.2-0.4,0.4-0.7,0.7-0.9c0.5-0.2,1-0.3,1.6-0.4c0.6-0.1,1.2-0.2,1.8-0.2
					c0.6,0,1.1,0,1.5,0c5,0,9.1,0.8,12.4,2.5c3.2,1.7,5.6,4,7.1,7.1c1.5,3.1,2.3,6.9,2.3,11.3c0,3-0.5,5.6-1.4,7.8
					C285.6,264.3,284.5,266.1,283.1,267.4z"/>
				<path class="st1" d="M407.6,244.8c-2.3-3.7-5.2-6.9-8.6-9.7c-3.4-2.8-7.5-4.9-12.1-6.5c-4.6-1.5-9.8-2.3-15.5-2.4
					c-3.6,0-7.3,0.4-10.9,1.3c-3.6,0.8-7.1,2.1-10.4,3.6c-3.3,1.6-6.4,3.4-9.1,5.6c-2.8,2.2-5.2,4.6-7.1,7.3
					c-2.8,3.9-5,8.1-6.5,12.6c-1.5,4.5-2.2,9.4-2.2,14.6c0,6.4,0.9,12.4,2.9,18.1c1.9,5.7,5,10.9,9.2,15.6c2.4,2.6,5.3,4.9,8.5,6.8
					c3.2,1.9,6.8,3.4,10.7,4.4c3.9,1,8.1,1.5,12.6,1.6c4.7,0,9.4-0.7,13.9-2.1c4.5-1.4,8.8-3.4,12.7-6.2c4-2.7,7.4-6.1,10.3-10.1
					c1.9-2.6,3.5-5.5,4.8-8.4c1.3-3,2.2-6.1,2.9-9.6c0.6-3.4,0.9-7.2,0.9-11.3c0-4.6-0.6-9.1-1.7-13.4
					C411.7,252.5,410,248.5,407.6,244.8z M357.7,307.4c-0.3-0.2-0.6-0.4-0.9-0.5c-3.1-2-5.8-4.5-8-7.4c-2.3-2.9-4.1-6.1-5.6-9.5
					c-1.5-3.4-2.5-7-3.2-10.8c-0.7-3.7-1.1-7.5-1.1-11.2c0-4.8,0.5-9.4,1.6-13.6c1.1-4.3,2.7-8.1,5-11.4c2.2-3.3,5-6,8.5-8.1
					c1.2-0.6,2.4-1.2,3.7-1.7V307.4z M368.7,311.3c-1.4-0.2-2.7-0.5-4-0.8c-1.6-0.5-3.1-1-4.6-1.7v-76.1c2-0.5,4.2-0.7,6.5-0.7
					c0.7,0,1.4,0,2.1,0.1V311.3z M379.3,311.2c-1.6,0.3-3.2,0.4-5,0.4c-1.1,0-2.2,0-3.2-0.1v-79.3c1.9,0.2,3.8,0.7,5.5,1.2
					c0.9,0.3,1.8,0.6,2.6,1V311.2z M400.1,287.5c-0.8,3.9-2,7.5-3.7,10.8c-1.7,3.3-4.1,6.1-6.9,8.5c-1.9,1.6-4.1,2.8-6.7,3.6
					c-0.3,0.1-0.6,0.2-1,0.3v-75.1c1.1,0.6,2.2,1.3,3.3,2c2.8,1.9,5.2,4.3,7.2,7c2,2.7,3.7,5.7,5,9c1.3,3.3,2.3,6.7,3,10.4
					c0.7,3.6,1,7.4,1,11.2C401.2,279.4,400.9,283.5,400.1,287.5z"/>
				<path class="st1" d="M222.6,311c-1.5-0.3-2.6-0.5-3.6-0.9c-1.3-0.4-2.2-1.1-2.8-2c-0.6-1-0.9-2.4-1.1-4.3
					c-0.1-1.2-0.1-3-0.2-5.4c0-2.4-0.1-5-0.1-8.1c0-3,0-6.2,0-9.5c0-3.3,0-6.5,0-9.6c0-5.6,0-10.2,0-14.1c0-3.9,0-7.1,0.1-9.6
					c0-2.6,0.1-4.6,0.2-6.2c0.1-1.7,0.2-3,0.5-4c0.2-1,0.6-1.8,1.1-2.3c0.5-0.6,1.3-1,2.3-1.3c0.9-0.3,2-0.5,3.2-0.8
					c1.2-0.2,2.6-0.4,4.1-0.7c0.2-0.2,0.3-0.6,0.4-1.1c0-0.5,0-1.1,0-1.6c0-0.6-0.2-0.9-0.3-1.1c-0.6,0-1.5,0-2.7,0.1
					c-1.2,0-2.6,0.1-4.2,0.1c-1.6,0-3.4,0.1-5.2,0.1c-1.8,0-3.6,0.1-5.4,0.1c-2.5,0-4.9,0-7.1-0.1c-2.3-0.1-4.3-0.2-6.1-0.3
					c-1.8-0.1-3.2-0.1-4.3-0.1c-0.2,0.3-0.4,0.7-0.5,1.2c-0.1,0.6-0.1,1.1-0.1,1.7c0,0.5,0.2,0.9,0.4,1.1c1.8,0.2,3.4,0.4,4.7,0.7
					c1.3,0.3,2.5,0.5,3.6,0.9c1,0.4,1.7,0.9,2.1,1.7c0.4,0.8,0.7,1.8,0.7,2.9c0.1,1,0.1,2.4,0.1,4.2c0,1.8,0.1,3.7,0.1,5.9
					c0,2.2,0,4.3,0,6.6c0,2.2,0,4.4,0,6.4c0,2,0,3.8,0,5.3c0,0.2-0.1,0.3-0.3,0.5c-0.2,0.2-0.4,0.3-0.6,0.3c-0.4,0-1.3,0.1-2.8,0.1
					c-1.5,0-3.8,0-6.9,0.1c-3.1,0-7.2,0-12.3,0.1c-4.1,0-7.5,0-10.2,0c-2.8,0-5,0-6.7,0c-1.7,0-3,0-4,0c-1,0-1.6,0-2.1-0.1
					c-0.4,0-0.8,0-0.9-0.1c-0.2-0.1-0.4-0.3-0.5-0.5c-0.1-0.3-0.2-0.6-0.2-0.9c0-4.6,0-8.5,0-11.7c0-3.3,0-6.1,0-8.4
					c0-2.3,0.1-4.3,0.2-6c0-1.5,0.2-2.6,0.5-3.5c0.3-0.8,0.7-1.5,1.2-1.9c0.6-0.4,1.3-0.8,2.2-1.1c0.8-0.2,1.8-0.4,3-0.6
					c1.2-0.2,2.5-0.4,3.7-0.6c0.2-0.2,0.3-0.5,0.4-1.1c0.1-0.5,0.1-1.1,0-1.6c0-0.6-0.1-1-0.3-1.2c-1.3,0-2.7,0-4.2,0.1
					c-1.5,0-3.4,0.1-5.5,0.2c-2.1,0.1-4.8,0.1-7.9,0.1c-2.6,0-5,0-7.3-0.1c-2.3-0.1-4.4-0.1-6.2-0.2c-1.8-0.1-3.3-0.1-4.5-0.1
					c-0.2,0.2-0.3,0.6-0.4,1.1c-0.1,0.5-0.1,1.1-0.1,1.6c0,0.5,0.1,0.9,0.3,1.1c1.9,0.3,3.5,0.5,4.9,0.7c1.4,0.2,2.6,0.5,3.6,0.8
					c1.4,0.3,2.3,0.9,2.9,1.9c0.6,0.9,0.9,2.4,1,4.3c0,0.7,0.1,2,0.1,4c0,2,0.1,4.5,0.1,7.4c0,2.9,0,6.1,0.1,9.4c0,3.4,0,6.8,0,10.3
					c0,3.1,0,6.1,0,9c0,2.9,0,5.7,0,8.2c0,2.6,0,4.9,0,6.9c0,2,0,3.6,0,4.8c-0.1,2.1-0.3,3.9-0.6,5.2c-0.3,1.4-0.7,2.4-1.4,3.2
					c-0.7,0.8-1.7,1.4-3,1.8c-1,0.2-2.1,0.4-3.3,0.6c-1.2,0.2-2.7,0.4-4.3,0.6c-0.1,0.2-0.2,0.6-0.3,1.2c0,0.6,0,1.1,0,1.7
					c0.1,0.6,0.2,1,0.4,1.2c1,0,2.4,0,4.3-0.1c1.9-0.1,4.1-0.1,6.5-0.2c2.5-0.1,5.1-0.1,7.9-0.1c4.5,0,8.4,0.1,11.5,0.2
					c3.1,0.1,5.4,0.2,6.8,0.2c0.2-0.1,0.4-0.5,0.5-1c0.2-0.6,0.3-1.1,0.3-1.7c0-0.6,0-1.1-0.2-1.3c-1.4-0.2-2.6-0.4-3.6-0.6
					c-1-0.2-1.9-0.4-2.7-0.6c-0.8-0.2-1.5-0.4-2.2-0.6c-1.1-0.3-2-0.8-2.6-1.4c-0.6-0.6-1-1.4-1.3-2.4c-0.2-1-0.4-2.3-0.5-3.9
					c0-0.6,0-1.7-0.1-3.2c0-1.5,0-3.3,0-5.3c0-2,0-4.2,0-6.4c0-2.2,0-4.4,0-6.5c0-2.1,0-3.9,0-5.5c0-0.1,0-0.3,0.1-0.5
					c0.1-0.2,0.2-0.4,0.3-0.4c0.4,0,1.3-0.1,2.8-0.1c1.5,0,3.3,0,5.6,0c2.2,0,4.7,0,7.4,0c2.7,0,5.4,0,8.2,0c2,0,4.1,0,6.4,0
					c2.3,0,4.5,0,6.7,0c2.2,0,4.1,0,5.7,0c1.7,0,2.8,0,3.5,0.1c0.2,0,0.4,0.1,0.6,0.3c0.2,0.2,0.3,0.4,0.3,0.7c0,1.8,0,3.8,0,6
					c0,2.2,0,4.4,0,6.7c0,2.2,0,4.4,0,6.5c0,2.1,0,3.9,0,5.5c0,1.6,0,2.8-0.1,3.7c-0.1,1.4-0.3,2.6-0.5,3.5c-0.2,0.9-0.6,1.5-1.1,2
					c-0.5,0.5-1.2,0.8-2,1c-1.1,0.4-2.2,0.6-3.5,0.8c-1.2,0.2-2.7,0.4-4.5,0.6c-0.2,0.3-0.3,0.7-0.4,1.2c-0.1,0.6-0.1,1.1,0,1.7
					c0.1,0.5,0.2,0.9,0.4,1.1c1.2,0,2.8-0.1,4.7-0.2c1.9-0.1,3.9-0.1,6.2-0.2c2.3,0,4.6-0.1,7-0.1c2.4,0,4.8,0,7.1,0.1
					c2.3,0.1,4.5,0.1,6.5,0.2c2,0.1,3.7,0.1,5.2,0.1c0.3-0.2,0.5-0.5,0.6-1.1c0.1-0.6,0.2-1.1,0.2-1.7c0-0.6-0.1-1-0.2-1.2
					C225.8,311.4,224,311.2,222.6,311z"/>
				<path class="st1" d="M522.4,228.4c-0.5,0-1.3,0-2.4,0.1c-1.1,0-2.5,0.1-3.9,0.1c-1.5,0-3,0.1-4.5,0.1c-1.5,0-2.9,0.1-4.1,0.1
					c-4.3,0-8-0.1-11.2-0.2c-3.1-0.1-5.6-0.2-7.5-0.2c-0.1,0.2-0.2,0.5-0.3,1.1c-0.1,0.6-0.1,1.1,0,1.7c0,0.6,0.2,1,0.4,1.2
					c1.9,0.2,3.6,0.4,5.2,0.7c1.6,0.3,3,0.6,4.2,1c1.4,0.4,2.5,0.9,3.2,1.5c0.7,0.7,1.3,1.5,1.6,2.4c0.3,1,0.5,2.1,0.6,3.5
					c0.1,2.1,0.3,4.7,0.3,7.8c0.1,3.2,0.1,6.7,0.2,10.6c0,3.9,0,8,0,12.3c0,4.3,0,8.5,0,12.8c0,4.3,0,8.3,0,12.2
					c-0.1,0.1-0.1,0.1-0.2,0.2c-0.1,0-0.2,0-0.3,0c-1.1-1.3-2.8-3.4-5-6c-2.2-2.7-4.8-5.8-7.7-9.3c-2.9-3.5-6-7.4-9.4-11.4
					c-3.3-4.1-6.7-8.1-10-12.2c-3.4-4.1-6.5-8.1-9.6-11.9c-3-3.8-5.8-7.2-8.2-10.2c-1.2-1.5-2.1-2.8-2.8-3.7
					c-0.7-0.9-1.2-1.7-1.5-2.3c-0.3-0.6-0.6-1.1-0.8-1.6c-0.6,0.1-1.4,0.1-2.5,0.1c-1.1,0-2.4,0-3.8,0c-2.4,0-4.7,0-6.9-0.1
					c-2.2-0.1-4.3-0.1-6.1-0.2c-1.9-0.1-3.4-0.1-4.6-0.1c-0.2,0.2-0.3,0.5-0.4,1.1c-0.1,0.6-0.1,1.1-0.1,1.7c0,0.6,0.1,0.9,0.2,1.1
					c1.8,0.2,3.4,0.4,4.8,0.6c1.4,0.3,2.6,0.6,3.6,1c1.1,0.4,2,0.9,2.9,1.5c1,0.6,1.8,1.3,2.4,2.1c0.5,0.8,0.9,1.6,1.1,2.5
					c0.2,0.8,0.3,1.6,0.3,2.3c-0.1,7.4-0.1,14.3-0.2,20.8c-0.1,6.4-0.2,12.3-0.3,17.4c-0.1,5.2-0.2,9.6-0.4,13.3
					c-0.1,3.7-0.3,6.4-0.4,8.3c-0.1,1.8-0.4,3.3-0.8,4.4c-0.4,1.1-1,2-1.8,2.6c-0.8,0.6-1.7,1.1-2.8,1.4c-1,0.3-2.2,0.5-3.4,0.8
					c-1.2,0.2-2.6,0.4-4.1,0.5c-0.1,0.2-0.2,0.6-0.3,1.1c0,0.6,0,1.2,0,1.8c0,0.6,0.1,1,0.3,1.1c1.5,0,3.6-0.1,6.3-0.2
					c2.8-0.1,6.3-0.2,10.5-0.2c4,0,7.5,0.1,10.5,0.2c3,0.1,5.4,0.2,7.1,0.2c0.1-0.2,0.3-0.6,0.4-1.2c0.1-0.6,0.2-1.1,0.2-1.7
					c0-0.6-0.1-1-0.3-1.2c-1.8-0.2-3.3-0.4-4.8-0.6c-1.4-0.2-2.6-0.5-3.7-0.8c-1.2-0.3-2.2-0.7-3-1.3c-0.8-0.6-1.5-1.5-1.9-2.6
					c-0.4-1.1-0.7-2.6-0.8-4.5c-0.1-1.3-0.1-3.3-0.2-5.8c0-2.6-0.1-5.5-0.1-8.8c0-3.3,0-6.8,0-10.5c0-3.7,0-7.4,0-11.1
					c0-3.7,0-7.2,0.1-10.4c0-3.3,0.1-6.1,0.1-8.6c0-0.1,0.1-0.1,0.2-0.2c0.1,0,0.2,0,0.3,0c1.2,1.5,3,3.7,5.3,6.6
					c2.3,2.9,4.9,6.2,7.9,9.9c3,3.7,6.1,7.7,9.5,11.9c3.3,4.2,6.7,8.4,10,12.6c3.3,4.2,6.4,8.2,9.3,11.9c2.9,3.8,5.5,7.1,7.7,10
					c2.2,2.9,3.8,5.1,4.9,6.7c0.4,0,1.1-0.1,2-0.1c0.9,0,1.9,0,2.9,0c1.1,0,2,0,2.9,0c0.9,0,1.5,0,1.9,0.1c0-1.6-0.1-3.4-0.1-5.6
					c0-2.2-0.1-4.4-0.1-6.8c0-2.4,0-4.7,0-6.8c0.2-13.3,0.3-24.5,0.4-33.6c0.1-9.1,0.3-16.4,0.7-21.8c0.1-1.3,0.3-2.4,0.6-3.4
					c0.3-1,0.8-1.8,1.4-2.5c0.7-0.7,1.6-1.3,2.8-1.7c0.9-0.3,1.9-0.5,2.8-0.8c1-0.2,2.1-0.4,3.4-0.7c0.2-0.2,0.3-0.6,0.4-1.2
					c0.1-0.6,0.1-1.1,0-1.7C522.7,228.9,522.6,228.6,522.4,228.4z"/>
				<path class="st1" d="M658.6,276.2c-2-1.9-4.3-3.7-6.7-5.2c-1.6-0.9-3.4-1.9-5.4-3c-2-1.1-4-2.2-6.1-3.3c-2.1-1.1-4.1-2.3-6-3.5
					c-2-1.3-3.7-2.7-5.1-4.2c-1.4-1.5-2.5-3.2-3.3-5.1c-0.8-1.9-1.2-4.1-1.2-6.7c0-1.8,0.4-3.5,1-5.2c0.6-1.7,1.5-3.2,2.8-4.6
					c1.2-1.4,2.8-2.5,4.6-3.3c1.8-0.8,4-1.2,6.4-1.3c2.1,0,4.2,0.2,6.1,0.6c1.9,0.4,3.7,1.2,5.3,2.3c1.1,0.7,2,1.7,2.7,2.9
					c0.7,1.2,1.3,2.7,1.7,4.6c0.4,1.9,0.8,4.2,1.1,6.9c0.2,0.2,0.6,0.4,1.1,0.5c0.6,0.1,1.2,0,1.8,0c0.6-0.1,1-0.3,1.1-0.6
					c0.2-2.3,0.4-4.6,0.7-7c0.2-2.4,0.5-4.6,0.8-6.7c0.3-2.1,0.6-4,0.9-5.6c-1.9-0.3-3.9-0.6-6-1c-2.1-0.4-4.3-0.8-6.8-1.1
					c-2.5-0.3-5.3-0.5-8.6-0.5c-3.9,0-7.5,0.5-10.8,1.6c-3.3,1.1-6.3,2.6-8.8,4.6c-2.5,2-4.5,4.5-5.9,7.5c-1.4,2.9-2.2,6.3-2.2,10.1
					c0,4.2,0.9,7.8,2.6,10.9c1.7,3.1,4.2,6,7.3,8.5c3.1,2.5,6.8,5,11,7.3c3.2,1.9,5.9,3.6,8.2,5.1c2.3,1.6,4.2,3.2,5.7,4.7
					c1.5,1.6,2.6,3.3,3.4,5.1c0.7,1.8,1.1,3.9,1.1,6.2c0,2.6-0.5,4.9-1.3,6.7c-0.9,1.9-2,3.4-3.5,4.6c-1.5,1.2-3.1,2-4.9,2.6
					c-1.8,0.6-3.5,0.8-5.4,0.8c-2.7,0-5.2-0.3-7.6-0.9c-2.4-0.6-4.4-1.6-6.2-2.9c-2.4-1.7-4.3-4-5.9-6.8c-1.6-2.9-3-6.5-4.2-10.9
					c-0.3-0.1-0.7-0.1-1.4,0c-0.7,0.1-1.3,0.3-1.9,0.5c-0.6,0.2-1,0.5-1.1,0.8c0.1,1,0.2,2.3,0.4,3.8c0.2,1.6,0.5,3.3,0.8,5.1
					c0.3,1.8,0.6,3.6,0.9,5.3c0.3,1.7,0.6,3.2,1,4.4c0.3,1.2,0.6,2,0.8,2.4c1.1,0.6,2.8,1.2,4.9,1.9c2.1,0.7,4.5,1.2,7.1,1.7
					c2.6,0.5,5.4,0.7,8.2,0.7c5,0,9.4-0.7,13.2-2.1c3.9-1.4,7.1-3.3,9.8-5.7c2.7-2.4,4.7-5.2,6.1-8.3c1.4-3.1,2.1-6.4,2.1-9.9
					c0-3.4-0.7-6.4-1.9-8.9C662.2,280.3,660.6,278.1,658.6,276.2z"/>
				<path class="st1" d="M722.5,206.3c-0.4-0.2-0.8-0.3-1.1-0.3c-1.8,0.8-3.6,1.4-5.4,1.9c-1.7,0.4-3.7,0.7-5.8,0.8
					c-2.1,0.1-4.6,0.2-7.6,0.2H60.4c-3.6,0-6.6-0.3-9.2-0.8c-2.6-0.5-4.7-1.2-6.4-2.1c-0.1-0.1-0.4-0.1-0.7,0
					c-0.4,0.1-0.6,0.2-0.9,0.3c-0.3,0.1-0.5,0.3-0.5,0.4c-0.1,2.1-0.3,4.6-0.5,7.4c-0.3,2.8-0.6,5.7-0.9,8.7c-0.4,3-0.8,5.9-1.2,8.6
					c-0.4,2.8-0.8,5.2-1.2,7.3c0.2,0.3,0.7,0.6,1.5,1c0.9,0.3,1.7,0.5,2.6,0.6c0.9,0.1,1.5,0.1,1.8-0.1c0.9-2.5,1.8-4.8,2.6-7.1
					c0.9-2.3,1.7-4.4,2.5-6.2c0.8-1.9,1.6-3.4,2.4-4.7c1.2-1.9,2.4-3.3,3.7-4.1c1.3-0.8,2.8-1.3,4.4-1.3c1.9-0.1,4.1-0.1,6.5-0.1
					c2.5,0,5,0,7.4,0c2.5,0,4.7,0,6.7,0c2,0,3.4,0.1,4.3,0.1c0.3,0,0.6,0.2,0.9,0.5c0.3,0.3,0.4,0.6,0.5,1.1c0,6.5,0,13.2,0,20.1
					c0,6.9,0,13.8-0.1,20.6c0,6.8-0.1,13.3-0.2,19.4c-0.1,6.2-0.1,11.7-0.2,16.5c-0.1,4.9-0.2,8.9-0.3,11.9c0,3-0.2,5.4-0.6,7.3
					c-0.4,1.9-1.1,3.4-2.1,4.4c-1,1.1-2.6,1.8-4.6,2.2c-1.5,0.4-3.4,0.7-5.7,1c-2.3,0.3-5,0.6-8,0.9c-0.2,0.3-0.3,0.8-0.4,1.6
					c-0.1,0.8-0.1,1.5-0.1,2.3c0.1,0.8,0.2,1.4,0.5,1.7c2.5,0,6.2-0.1,11.1-0.3c4.9-0.2,10.9-0.3,18.1-0.3c4,0,7.8,0.1,11.5,0.2
					c3.7,0.1,7,0.2,10,0.3c3,0.1,5.4,0.2,7.4,0.2c0.3-0.2,0.6-0.6,0.8-1.4c0.2-0.8,0.3-1.5,0.3-2.4c0-0.8-0.1-1.5-0.3-1.8
					c-2.2-0.3-4.2-0.5-5.7-0.7c-1.6-0.2-3-0.4-4.1-0.6c-1.2-0.2-2.3-0.5-3.3-0.8c-1.5-0.4-2.6-0.9-3.5-1.7c-0.9-0.7-1.6-1.8-2.1-3.2
					c-0.5-1.4-0.8-3.2-1-5.4c-0.1-1.7-0.2-4.4-0.3-8.3c-0.1-3.8-0.1-8.4-0.2-13.6c0-5.3-0.1-11-0.1-17.1c0-6.1,0-12.3,0-18.6
					c0-6.3,0-12.4,0-18.3c0-5.9,0-11.2,0-16c0-0.3,0.1-0.6,0.3-0.9c0.2-0.3,0.4-0.5,0.7-0.6c1.2-0.1,2.8-0.1,4.8-0.1
					c2.1,0,4.4,0,7,0c2.6,0,5.2,0,7.8,0c2.7,0,575.8,0.1,578.1,0.1c1.8,0.1,3.4,0.5,4.6,1.4c1.2,0.9,2.2,2.3,3,4.2
					c0.5,1.2,1,2.8,1.4,4.6c0.4,1.8,0.7,3.8,1,6c0.3,2.2,0.5,4.4,0.7,6.7c0.2,0.2,0.5,0.3,1.1,0.4c0.6,0.1,1.3,0.1,2,0.1
					c0.7,0,1.4-0.1,2-0.2c0.6-0.1,1-0.3,1.1-0.5c0.3-2.6,0.5-5.5,0.8-8.6c0.3-3.1,0.7-6.1,1-9.2c0.4-3,0.8-5.9,1.2-8.5
					c0.4-2.6,0.9-4.7,1.4-6.5C723.1,206.8,722.9,206.6,722.5,206.3z"/>
				<path class="st1" d="M597.6,293c-0.6-0.2-1-0.2-1.2-0.2c-0.6,1.4-1.3,2.9-2.1,4.5c-0.8,1.6-1.6,3.1-2.5,4.5
					c-0.8,1.4-1.7,2.5-2.4,3.4c-0.8,1.1-1.6,1.9-2.5,2.6c-0.8,0.7-1.9,1.2-3.1,1.5c-1.2,0.3-2.8,0.5-4.8,0.5c-1.2,0-2.5,0-4.1,0
					c-1.6,0-3.2,0-4.9-0.1c-1.7,0-3.4-0.1-4.9-0.1c-1.6-0.1-3-0.1-4.2-0.3c-1.2-0.1-2.1-0.2-2.7-0.4c-0.9-0.3-1.6-0.9-2.2-1.8
					c-0.6-0.9-1-2.1-1-3.5c0-1.4-0.1-3-0.1-4.9c0-1.9-0.1-3.9-0.1-6c0-2.2,0-4.3,0-6.4c0-2.1,0-4.1,0-6c0-1.9,0-3.4,0-4.8
					c0-0.2,0.1-0.5,0.2-0.7c0.2-0.2,0.3-0.4,0.5-0.4c1.3,0,3-0.1,4.9-0.1c1.9,0,3.9,0,6,0c2.1,0,4,0,5.8,0.1c1.8,0,3.3,0.1,4.3,0.2
					c1.6,0.2,2.7,0.6,3.4,1.4c0.7,0.8,1.1,1.7,1.4,2.7c0.2,0.5,0.3,1.1,0.4,1.6c0.1,0.5,0.2,1.1,0.3,1.7c0.1,0.7,0.2,1.5,0.4,2.4
					c0.3,0.2,0.7,0.4,1.4,0.4c0.7,0.1,1.3,0,2-0.1c0.7-0.1,1.1-0.3,1.4-0.5c-0.1-1.8-0.1-3.7-0.2-5.8c-0.1-2.1-0.1-4.5-0.1-7
					c0-1.7,0-3.3,0.2-5c0.1-1.7,0.2-3.2,0.4-4.6c0.2-1.4,0.3-2.6,0.4-3.6c-0.2-0.2-0.6-0.4-1.3-0.5c-0.6-0.1-1.3-0.2-1.9-0.1
					c-0.7,0-1.1,0.1-1.5,0.2c-0.2,1.1-0.4,2.1-0.7,3c-0.3,1-0.5,1.8-0.8,2.6c-0.3,1.1-0.8,2.1-1.5,2.8c-0.7,0.8-1.8,1.2-3.3,1.4
					c-1.3,0.1-2.9,0.2-4.7,0.2c-1.8,0.1-3.8,0.1-5.8,0.1c-2,0-4,0-6,0c-1.9,0-3.6,0-5-0.1c-0.2,0-0.4-0.1-0.5-0.3
					c-0.1-0.2-0.2-0.4-0.2-0.7c0-1.3,0-2.9,0-4.8c0-1.9,0-4,0-6.2c0-2.2,0-4.5,0-6.8c0-2.3,0-4.5,0-6.6c0-2.1,0-3.9,0.1-5.5
					c0-0.3,0.1-0.6,0.2-0.9c0.1-0.4,0.4-0.8,0.6-1.1c0.2-0.3,0.5-0.6,0.9-0.7c0.3,0,1,0,2-0.1c1,0,2.3,0,3.7,0c1.5,0,3,0,4.7,0
					c1.6,0,3.2,0,4.7,0c1.5,0,2.8,0,4,0c1.1,0,1.9,0,2.4,0.1c1.5,0.1,2.7,0.4,3.6,0.8c0.9,0.4,1.6,1,2.1,1.7
					c0.5,0.7,0.9,1.7,1.3,2.8c0.3,1,0.6,2.2,0.8,3.5c0.3,1.4,0.5,3,0.7,5c0.2,0.1,0.6,0.2,1.2,0.3c0.6,0,1.2,0,1.9-0.1
					c0.6-0.1,1.1-0.2,1.3-0.5c0.1-1.4,0.2-3,0.4-4.8c0.2-1.8,0.4-3.6,0.6-5.4c0.2-1.8,0.4-3.5,0.7-5.1c0.3-1.6,0.5-2.9,0.8-4
					c0-0.1-0.1-0.2-0.2-0.4c-0.1-0.2-0.2-0.3-0.3-0.4c-1,0.1-2.4,0.3-4.2,0.3c-1.8,0.1-3.7,0.1-5.7,0.2c-2,0-3.9,0-5.8,0h-27.7
					c-2.6,0-5.2,0-7.6-0.1c-2.4-0.1-4.5-0.2-6.5-0.3c-1.9-0.1-3.5-0.1-4.7-0.1c-0.2,0.3-0.3,0.7-0.4,1.2c-0.1,0.6-0.1,1.1-0.1,1.6
					c0,0.5,0.2,0.9,0.4,1.1c1.6,0.2,3,0.4,4.3,0.7c1.2,0.2,2.3,0.5,3.2,0.7c1.1,0.3,1.9,0.6,2.5,1.1c0.6,0.5,1,1.2,1.2,2.2
					c0.2,0.9,0.4,2.2,0.5,3.9c0,0.7,0.1,1.9,0.1,3.6c0,1.8,0,3.9,0,6.5c0,2.5,0,5.3,0,8.4c0,3,0,6.2,0,9.4c0,4,0,7.9,0,11.6
					c0,3.7,0,7.2,0,10.3c0,3.1,0,5.7,0,7.9c0,2.1,0,3.5-0.1,4.2c-0.1,1.6-0.4,3-0.7,4c-0.3,1-0.8,1.8-1.5,2.4
					c-0.7,0.6-1.5,1-2.6,1.2c-1.3,0.4-2.8,0.6-4.7,0.8c-1.8,0.2-3.8,0.4-6,0.6c-0.2,0.3-0.3,0.7-0.3,1.3c0,0.6,0,1.2,0.1,1.7
					c0.1,0.5,0.2,0.9,0.4,1.1c2.9,0,6.1-0.1,9.7-0.2c3.6-0.1,7.8-0.2,12.5-0.2c4.8,0,9.3,0,13.4,0.1c4.1,0.1,8,0.2,11.7,0.3
					c3.8,0.1,7.6,0.1,11.5,0.1c2.3,0,4-0.1,5.2-0.2c1.1-0.2,2-0.4,2.4-0.8c0.5-0.3,0.8-0.7,1.1-1.3c0.5-1.1,1.1-2.5,1.7-4.2
					c0.6-1.7,1.2-3.5,1.8-5.4c0.6-1.9,1.1-3.7,1.5-5.4c0.4-1.7,0.7-3.1,0.9-4.3c-0.2-0.2-0.6-0.5-1.1-0.7
					C598.8,293.3,598.2,293.2,597.6,293z"/>
			</g>
		</g>
	</g>
</g>
<g id="AG-OUTLINE">
</g>
</svg>
