<?xml version="1.0" encoding="UTF-8" standalone="no"?>
<svg
   xmlns:dc="http://purl.org/dc/elements/1.1/"
   xmlns:cc="http://creativecommons.org/ns#"
   xmlns:rdf="http://www.w3.org/1999/02/22-rdf-syntax-ns#"
   xmlns:svg="http://www.w3.org/2000/svg"
   xmlns="http://www.w3.org/2000/svg"
   xmlns:sodipodi="http://sodipodi.sourceforge.net/DTD/sodipodi-0.dtd"
   xmlns:inkscape="http://www.inkscape.org/namespaces/inkscape"
   width="147.18132mm"
   height="58.894047mm"
   viewBox="0 0 147.18132 58.894047"
   version="1.1"
   id="svg1962"
   inkscape:version="1.0.1 (c497b03c, 2020-09-10)"
   sodipodi:docname="AM-Future.svg">
  <defs
     id="defs1956" />
  <sodipodi:namedview
     id="base"
     pagecolor="#ffffff"
     bordercolor="#666666"
     borderopacity="1.0"
     inkscape:pageopacity="0.0"
     inkscape:pageshadow="2"
     inkscape:zoom="0.38352685"
     inkscape:cx="378.28929"
     inkscape:cy="274.97418"
     inkscape:document-units="mm"
     inkscape:current-layer="layer1"
     inkscape:document-rotation="0"
     showgrid="false"
     fit-margin-top="0"
     fit-margin-left="0"
     fit-margin-right="0"
     fit-margin-bottom="0"
     inkscape:window-width="1251"
     inkscape:window-height="943"
     inkscape:window-x="0"
     inkscape:window-y="23"
     inkscape:window-maximized="0" />
  <metadata
     id="metadata1959">
    <rdf:RDF>
      <cc:Work
         rdf:about="">
        <dc:format>image/svg+xml</dc:format>
        <dc:type
           rdf:resource="http://purl.org/dc/dcmitype/StillImage" />
        <dc:title></dc:title>
      </cc:Work>
    </rdf:RDF>
  </metadata>
  <g
     inkscape:label="Capa 1"
     inkscape:groupmode="layer"
     id="layer1"
     transform="translate(-5.7442928,-75.413083)">
    <g
       transform="matrix(0.26458333,0,0,0.26458333,-1129.416,-479.37107)"
       id="g8148">
      <g
         inkscape:export-ydpi="250"
         inkscape:export-xdpi="250"
         inkscape:export-filename="C:\Users\cruzsanc1\Dropbox\Fabio_Cruz\Presentations PPT\Séminaire recherche Mayo 07\figuras\Varios\scenarios.png"
         transform="matrix(0.72077482,0,0,0.67028749,5995.1529,21.697045)"
         id="g8150">
        <g
           id="g8152">
          <path
             inkscape:connector-curvature="0"
             d="m -2365.2092,3253.1452 c 11.5575,0.04 23.1139,0.074 34.6699,0.1336 38.3056,0.1815 76.6182,0.1676 114.9304,0.1392 28.459,-0.028 56.9172,-0.08 85.376,-0.1099 22.6499,-0.028 45.3,0.01 67.9495,-0.026 23.4656,-0.08 46.9316,-0.1518 70.3995,-0.189 28.3217,0.027 56.6229,-0.084 84.92,-0.3293 27.4798,-0.2458 54.9436,-0.5724 82.3825,-0.9734 41.8832,0.371 80.8516,0.1746 121.2644,-0.2812 l 95.2948,-0.028 v 0 c -0.7587,-0.01 -1.517,-0.01 -2.2756,-0.01 -6.8593,-0.016 -13.7272,2e-4 -20.5491,0.1727 -10.0964,0.2611 -20.1412,0.6336 -29.9174,1.238 -7.7577,0.3603 -15.5131,0.7435 -23.4087,0.9401 -18.1457,0.2986 -36.3283,0.4795 -54.4914,0.7255 -28.382,0.3769 -56.7917,0.6625 -85.2022,0.923 -15.0632,0.147 -30.1247,0.2584 -45.1928,0.3771 -4.3258,0.034 -8.6472,0.095 -12.9746,0.1161 -7.7911,0.038 -15.5886,-0.028 -23.3796,0.015 -23.4313,0.029 -46.8617,0.077 -70.2885,0.1831 -22.7999,0.086 -45.6049,0.037 -68.4075,0.032 -30.6445,-0.03 -61.2885,-0.082 -91.933,-0.1099 -35.5432,-0.025 -71.0905,-0.063 -106.6249,0.1393 -8.8975,0.065 -17.7962,0.092 -26.6963,0.1336 l -95.8454,-3.2129 z"
             id="path8154"
             style="fill:#00222b;fill-opacity:1;fill-rule:nonzero;stroke:none"
             sodipodi:nodetypes="cccccccccccccccccsccccccccc" />
          <path
             style="fill:#00222b;fill-opacity:1;fill-rule:nonzero;stroke:none"
             id="path8156"
             d="m -2016.7592,3418.2208 c 0.027,-4.7741 0.049,-9.5477 0.087,-14.3212 0.1182,-15.8229 0.1092,-31.6488 0.091,-47.4744 -0.018,-11.7557 -0.052,-23.5109 -0.072,-35.2665 -0.018,-9.356 0,-18.7121 -0.017,-28.068 -0.052,-9.6929 -0.099,-19.3861 -0.1231,-29.08 0.017,-11.6988 -0.055,-23.3893 -0.2145,-35.078 -0.1601,-11.3512 -0.3729,-22.6957 -0.6341,-34.0299 -0.1626,-6.5996 -0.3163,-13.2054 -0.5728,-19.7796 -0.1065,-3.0981 -0.3109,-6.1556 -0.4988,-9.2161 -0.2698,-4.2103 -0.5873,-8.3901 -0.8539,-12.6032 -0.1704,-2.5336 -0.2664,-5.0973 -0.323,-7.6734 -0.01,-0.2728 -0.01,-0.5457 -0.014,-0.8186 0,0 2.0617,-39.3636 2.0617,-39.3636 v 0 c 0,0.3133 -0.01,0.6266 -0.01,0.94 -0.01,2.8334 0,5.6703 0.1124,8.4882 0.1702,4.1706 0.4128,8.3198 0.8066,12.3581 0.2347,3.2045 0.4843,6.408 0.6124,9.6694 0.1945,7.4955 0.3124,15.0063 0.4726,22.509 0.2456,11.7237 0.4315,23.459 0.6013,35.1945 0.096,6.2221 0.1684,12.4437 0.2457,18.6679 0.022,1.7868 0.062,3.5718 0.076,5.3594 0.025,3.2183 -0.018,6.4391 0.01,9.6575 0.019,9.6788 0.05,19.3572 0.1193,29.0342 0.056,9.4179 0.024,18.8381 0.021,28.2571 -0.02,12.6584 -0.053,25.3166 -0.072,37.9749 -0.017,14.682 -0.042,29.3656 0.091,44.0438 0.043,3.6753 0.06,7.351 0.087,11.0275 0,0 -2.093,39.591 -2.093,39.591 z"
             inkscape:connector-curvature="0" />
        </g>
      </g>
      <g
         id="g8158">
        <text
           xml:space="preserve"
           style="font-style:normal;font-variant:normal;font-weight:normal;font-stretch:normal;line-height:0%;font-family:Rockwell;-inkscape-font-specification:Rockwell;text-align:start;letter-spacing:0px;word-spacing:0px;writing-mode:lr-tb;text-anchor:start;fill:#000000;fill-opacity:1;stroke:none"
           x="4787.7246"
           y="2181.5652"
           id="text8160"><tspan
             sodipodi:role="line"
             x="4787.7246"
             y="2181.5652"
             id="tspan8162"
             style="font-style:normal;font-variant:normal;font-weight:bold;font-stretch:normal;font-size:10px;line-height:1.25;font-family:Baskerville;-inkscape-font-specification:'Baskerville Bold'">People's </tspan><tspan
             id="tspan8164"
             sodipodi:role="line"
             x="4787.7246"
             y="2194.0652"
             style="font-style:normal;font-variant:normal;font-weight:bold;font-stretch:normal;font-size:10px;line-height:1.25;font-family:Baskerville;-inkscape-font-specification:'Baskerville Bold'">Engagement</tspan></text>
        <text
           id="text8166"
           y="2211.4133"
           x="4813.7407"
           style="font-style:normal;font-variant:normal;font-weight:bold;font-stretch:normal;line-height:0%;font-family:'Times New Roman';-inkscape-font-specification:'Times New Roman,  Bold';text-align:start;letter-spacing:0px;word-spacing:0px;writing-mode:lr-tb;text-anchor:start;fill:#000000;fill-opacity:1;stroke:none"
           xml:space="preserve"><tspan
             id="tspan8168"
             y="2211.4133"
             x="4813.7407"
             sodipodi:role="line"
             style="font-style:normal;font-variant:normal;font-weight:normal;font-stretch:normal;font-size:8.75px;line-height:1.25;font-family:Baskerville;-inkscape-font-specification:Baskerville">High</tspan></text>
        <text
           id="text8170"
           y="2103.5652"
           x="4491.7246"
           style="font-style:normal;font-variant:normal;font-weight:normal;font-stretch:normal;line-height:0%;font-family:Rockwell;-inkscape-font-specification:Rockwell;text-align:start;letter-spacing:0px;word-spacing:0px;writing-mode:lr-tb;text-anchor:start;fill:#000000;fill-opacity:1;stroke:none"
           xml:space="preserve"><tspan
             style="font-style:normal;font-variant:normal;font-weight:bold;font-stretch:normal;font-size:10px;line-height:1.25;font-family:Baskerville;-inkscape-font-specification:'Baskerville Bold'"
             y="2103.5652"
             x="4491.7246"
             sodipodi:role="line"
             id="tspan8172">Degree of Corporate</tspan></text>
        <text
           xml:space="preserve"
           style="font-style:normal;font-variant:normal;font-weight:bold;font-stretch:normal;line-height:0%;font-family:'Times New Roman';-inkscape-font-specification:'Times New Roman,  Bold';text-align:start;letter-spacing:0px;word-spacing:0px;writing-mode:lr-tb;text-anchor:start;fill:#000000;fill-opacity:1;stroke:none"
           x="4542.1001"
           y="2115.2727"
           id="text8174"><tspan
             style="font-style:normal;font-variant:normal;font-weight:normal;font-stretch:normal;font-size:8.75px;line-height:1.25;font-family:Baskerville;-inkscape-font-specification:Baskerville"
             sodipodi:role="line"
             x="4542.1001"
             y="2115.2727"
             id="tspan8176">Worldwide</tspan></text>
        <text
           id="text8178"
           y="2319.2727"
           x="4544.1001"
           style="font-style:normal;font-variant:normal;font-weight:bold;font-stretch:normal;line-height:0%;font-family:'Times New Roman';-inkscape-font-specification:'Times New Roman,  Bold';text-align:start;letter-spacing:0px;word-spacing:0px;writing-mode:lr-tb;text-anchor:start;fill:#000000;fill-opacity:1;stroke:none"
           xml:space="preserve"><tspan
             id="tspan8180"
             y="2319.2727"
             x="4544.1001"
             sodipodi:role="line"
             style="font-style:normal;font-variant:normal;font-weight:normal;font-stretch:normal;font-size:8.75px;line-height:1.25;font-family:Baskerville;-inkscape-font-specification:Baskerville">Local</tspan></text>
        <text
           xml:space="preserve"
           style="font-style:normal;font-variant:normal;font-weight:bold;font-stretch:normal;line-height:0%;font-family:'Times New Roman';-inkscape-font-specification:'Times New Roman,  Bold';text-align:start;letter-spacing:0px;word-spacing:0px;writing-mode:lr-tb;text-anchor:start;fill:#000000;fill-opacity:1;stroke:none"
           x="4293.7407"
           y="2211.4133"
           id="text8182"><tspan
             style="font-style:normal;font-variant:normal;font-weight:normal;font-stretch:normal;font-size:8.75px;line-height:1.25;font-family:Baskerville;-inkscape-font-specification:Baskerville"
             sodipodi:role="line"
             x="4293.7407"
             y="2211.4133"
             id="tspan8184">Low</tspan></text>
      </g>
    </g>
  </g>
</svg>
